<svg width="60" height="66" viewBox="0 0 60 66" fill="none" xmlns="http://www.w3.org/2000/svg">
<path d="M60 30.3052V20.725C60 15.313 60 12.607 58.653 10.8415C57.306 9.076 54.2603 8.21886 48.169 6.50464C44.0073 5.33347 40.3387 3.92248 37.4077 2.63436C33.4113 0.878131 31.4133 0 30 0C28.5867 0 26.5887 0.878131 22.5924 2.63436C19.6613 3.92248 15.9928 5.33347 11.8311 6.50464C5.73977 8.21886 2.69407 9.076 1.34703 10.8415C-1.98682e-07 12.607 0 15.313 0 20.725V30.3052C0 48.868 16.8759 60.0056 25.3133 64.414C27.337 65.4713 28.3487 66 30 66C31.6513 66 32.663 65.4713 34.6867 64.414C43.124 60.0056 60 48.868 60 30.3052Z" fill="white"/>
<path d="M23.334 38C20.8954 38.5489 19.334 39.3924 19.334 40.3383C19.334 41.9924 24.1096 43.3333 30.0007 43.3333C35.8917 43.3333 40.6673 41.9924 40.6673 40.3383C40.6673 39.3924 39.1059 38.5489 36.6673 38" stroke="#2E78AC" stroke-width="1.5" stroke-linecap="round"/>
<path d="M33.3327 25.9998C33.3327 27.8408 31.8403 29.3332 29.9993 29.3332C28.1584 29.3332 26.666 27.8408 26.666 25.9998C26.666 24.1589 28.1584 22.6665 29.9993 22.6665C31.8403 22.6665 33.3327 24.1589 33.3327 25.9998Z" stroke="#2E78AC" stroke-width="1.5"/>
<path d="M31.6759 37.3246C31.2261 37.7577 30.6251 37.9998 29.9996 37.9998C29.374 37.9998 28.7729 37.7577 28.3232 37.3246C24.2051 33.3342 18.6863 28.8765 21.3776 22.4048C22.8328 18.9056 26.3259 16.6665 29.9996 16.6665C33.6732 16.6665 37.1663 18.9056 38.6215 22.4048C41.3095 28.8684 35.8041 33.348 31.6759 37.3246Z" stroke="#2E78AC" stroke-width="1.5"/>
</svg>
