<svg id="e0StkGw8xAH1" xmlns="http://www.w3.org/2000/svg" xmlns:xlink="http://www.w3.org/1999/xlink" viewBox="0 0 219 301" shape-rendering="geometricPrecision" text-rendering="geometricPrecision" project-id="64fbb185e5f14bbf9406235270135340" export-id="04c22c3fea804b48b2f051c6ff9d5e6c" cached="false">
<style><![CDATA[
#e0StkGw8xAH22 {animation-name: e0StkGw8xAH22_c_o, e0StkGw8xAH22_f_p;animation-duration: 3000ms;animation-fill-mode: forwards;animation-timing-function: linear;animation-direction: normal;animation-iteration-count: infinite;}@keyframes e0StkGw8xAH22_c_o { 0% {opacity: 1} 50% {opacity: 1} 100% {opacity: 1}}@keyframes e0StkGw8xAH22_f_p { 0% {fill: #e7ebee} 50% {fill: #fff} 100% {fill: #e7ebee}}
]]></style>
<g><path d="M109.485,300.5c60.193,0,108.989-28.626,108.989-63.937c0-35.312-48.796-63.938-108.989-63.938-60.1928,0-108.988906,28.626-108.988906,63.938c0,35.311,48.796106,63.937,108.988906,63.937Z" fill="#29629f"/><path d="M39.3405,268.589l15.717-16.314-.0339-17.974-15.717,16.307.0339,17.981Z" fill="none" stroke="#000" stroke-miterlimit="10"/><path d="M55.0571,252.275l-28.5683,9.116-.0474-17.981l28.5819-9.109.0338,17.974Z" fill="#3d84bb" stroke="#19374e" stroke-linecap="round" stroke-linejoin="round"/><path d="M22.8919,180.328l1.5785-1.12-.0407-17.935c-33.14111,22.945-31.23745,60.4,2.0188,82.142l.0407,17.982c-32.29432-21.135-35.62741-57.8-3.5905-81.062h-.0068v-.007Z" fill="#3d84bb" stroke="#19374e" stroke-linecap="round" stroke-linejoin="round"/><path d="M24.4703,179.208l28.1009,8.953-.0271-17.948-28.1144-8.94.0406,17.935Z" fill="#3d85ba" stroke="#18374f" stroke-miterlimit="10"/><path d="M52.5717,188.161L36.9089,171.84l-.0339-17.927l15.6696,16.3.0271,17.948Z" fill="none" stroke="#18374f" stroke-miterlimit="10"/><path d="M177.298,169.565l1.958.905.034-17.934c-42.91-20.115-99.9656-19.92-142.415,1.377l.0339,17.934c36.7791,13.188,97.7571-21.371,140.3821-2.275h.007v-.007Z" fill="#3d84bb" stroke="#19374e" stroke-linecap="round" stroke-linejoin="round"/><path d="M179.255,170.471l-15.521,16.152.027-17.941l15.528-16.145-.034,17.934Z" fill="#3d84bb" stroke="#19374e" stroke-linecap="round" stroke-linejoin="round"/><path d="M163.734,186.622l28.359-9.035.04-17.934-28.372,9.028-.027,17.941Z" fill="#3d85ba" stroke="#18374f" stroke-miterlimit="10"/><path d="M196.477,258.622l-1.572,1.134.041-17.974c33.121-23.188,30.431-60.616-2.812-82.129l-.04,17.934c32.287,20.906,36.379,57.537,4.383,81.035Z" fill="#3d84bb" stroke="#19374e" stroke-linecap="round" stroke-linejoin="round"/><path d="M194.904,259.756L166.6,250.734l.027-17.974l28.317,9.014-.04,17.982Z" fill="#3d84bb" stroke="#19374e" stroke-linecap="round" stroke-linejoin="round"/><path d="M182.46,267.197c-42.565,21.567-100.0807,21.77-143.1195,1.391l-.0339-17.981c43.0591,20.365,100.5954,20.176,143.1874-1.391l-.034,17.981Z" fill="#3d84bb" stroke="#19374e" stroke-linecap="round" stroke-linejoin="round"/><g transform="translate(0 0.000001)"><path d="M4.974369,219.175339Q17.970702,195.259158,44.72335,185.569q.000001,0-20.25305-6.402596-30.449862,24.883274-19.495931,40.008935Z" fill="#28629e" stroke="#3f5787" stroke-width="0.602"/><path d="M53.148169,181.8429l4.541528-1.5149L58.709,175.42489l-5.672127-.037098.111296,6.455108Z" transform="translate(.000002 0)" fill="#28629e" stroke="#3f5787" stroke-width="0.602"/><path d="M91.5314,171.037l-.504602,2.681508c7.092625-1.149142,23.397226-1.144938,32.609202-.581008.432086-1.089093,1.477247-2.909787,2.195138-3.5785l.076287-4.056876L91.5314,171.037Z" transform="translate(.000002 0)" fill="#28629e" stroke="#3f5787" stroke-width="0.602"/><path d="M135.712494,164.414c-.217661,1.1276-.986402,3.684354-1.474494,5.145.755197,1.188226,1.817673,3.738496,2.056,5.158.721202.132822,2.685814.468218,3.888111.670792-.10624-3.333635-.348583-8.874849-.557111-10.973792-.328941-.419428-2.393846-.093473-3.912506,0Z" fill="#28629e" stroke="#3f5787" stroke-width="0.602"/><path d="M149.022263,177.074c3.488863.552408,10.526583,2.608201,14.168022,3.972714v-12.365716l2.390762-2.56327c-3.804005-.979171-10.892136-2.070647-14.257048-1.900199L149.022263,177.074Z" transform="translate(.000001 0.000002)" fill="#28629e" stroke="#3f5787" stroke-width="0.602"/><path d="M172.403954,184.509c19.592383,6.68503,37.676114,24.271282,41.791522,34.666339c1.15978-2.039784,2.560106-6.212614,2.815988-8.344566-1.095927-10.600717-13.844535-26.853449-24.918464-32.805558L172.403954,184.509Z" transform="translate(0 0.000002)" fill="#28629e" stroke="#3f5787" stroke-width="0.602"/></g><path id="e0StkGw8xAH22" d="M166.628,232.76l15.866,16.456c-42.591,21.567-100.1278,21.756-143.1869,1.391L55.0309,234.3L26.449,243.409c-33.25627-21.743-35.15315-59.198-2.0188-82.142l28.1144,8.947-15.6695-16.307C79.3244,132.61,136.38,132.421,179.29,152.529l-15.527,16.152l28.371-9.035c33.243,21.513,35.933,58.941,2.812,82.129l-28.318-9.021v.006Z" fill="#e7ebee" stroke="#19374e" stroke-linecap="round" stroke-linejoin="round"/><path d="M128.256,25.0654c.996.7968,2.31,1.1614,3.753,1.2492.711.0337,1.477,0,2.236-.0675c4.681-.4795,9.721-2.8968,9.721-2.8968-.149-.7562-.318-1.2222-.318-1.2222c4.146-1.1343,6.51-4.4497,3.875-7.0696-2.642-2.6402-5.515,2.154-5.515,2.154-6.124-2.9576-10.663-6.8131-12.506-9.65586-1.51,4.13246-4.877,14.63226-1.253,17.52906v-.0203h.007Z" fill="#fff" stroke="#19374e" stroke-linecap="round" stroke-linejoin="round"/><path d="M120.526,98.6457c.339,17.3333,2.615,30.0143,2.615,30.0143.915,5.888,3.753,29.001,3.184,40.899c0,0,5.346,1.411,7.222.337.088-.054.197-.162.291-.31c1.836-2.816,4.052-21.763,2.717-32.614.874,2.39,1.761,4.72,2.283,6.745c1.355,5.328,2.005,38.853,2.005,38.853.596.777,1.382,1.168,2.188,1.344h.034c.359.027.718.081,1.091.115h.047c1.559,0,2.92-.561,2.92-.561s5.569-24.355,5.826-34.788c.258-10.418-4.796-17.218-5.148-19.48-.325-2.174,1.856-8.096,4.247-22.269-1.707,1.04-4.186,1.607-7.052-.621-5.46-4.214,3.414-14.4301,3.414-14.4301.725-2.4511,1.267-5.3613,1.681-8.3121-1.152-2.6874-2.344-4.6388-2.968-5.9961c0,0-13.942,4.3823-23.48-6.1918c0,0-3.449,9.8854-3.11,27.2186v.0472h-.007Z" fill="#3d84bb" stroke="#19374e" stroke-linecap="round" stroke-linejoin="round"/><path d="M136.562,196.771c.996,1.148,9.633,1.809,11.679-1.438c2.053-3.241-.589-9.859-.589-9.859s-.373-1.094-3.448-1.404h-.041c-.359,0-.732-.034-1.091-.115h-.034c-.819-.068-1.571-.027-2.235.554-1.464,1.31-2.629,2.755-3.564,4.483-.792,1.486-2.594,5.557-.67,7.792v-.013h-.007Z" fill="#8b9ba6" stroke="#19374e" stroke-miterlimit="10"/><path d="M114.05,187.243c.61,1.85,2.351,1.506,5.989,1.506s9.098-5.395,10.155-6.388c1.064-.979,6.07-2.532,6.07-5.287s-2.283-7.205-2.419-7.482c-.101.142-.196.25-.291.311-1.876,1.08-7.222-.338-7.222-.338s-2.005,2.647-2.655,5.247c-.644,2.613-10.223,10.574-9.627,12.431Z" fill="#8b9ba6" stroke="#19374e" stroke-miterlimit="10"/><path d="M129.51,7.53676c1.83,2.84274,6.382,6.71184,12.5,9.65584c0,0,2.865-4.7942,5.514-2.154c2.635,2.6266.278,5.942-3.868,7.0697c0,0,.149.4659.311,1.2221.427,2.0798.915,6.408-1.463,9.9327-1.03,1.526-2.005,2.7212-2.879,3.8353-1.924,2.4511-3.414,4.6253-4.099,9.379c0,0,2.507-2.6469,6.904-5.2871c2.154-1.2964,5.914-4.0987,7.364-9.5343l.67,5.3951c.705.5065,1.47,1.1547,2.175,1.9582c1.721.2701,3.109,1.4248,4.207,3.1466c0,0-.305-5.7327-1.308-8.7915-1.009-3.0588-2.161-11.695-2.574-17.8667-.081-3.2883-.312-6.65099-3.191-10.13518-.454-.55369-3.949-4.08514-8.8-4.733361-1.389-.189065-6.971-.621225-11.225,2.667151-.475.36463-.705.73601-.929,1.08038-.447.69548-.189,1.80286.678,3.13982l.013.02025Z" fill="#3d84bb" stroke="#19374e" stroke-linecap="round" stroke-linejoin="round"/><path d="M91.2065,70.3399c.3658,6.8806,7.4385,6.1109,7.4385,6.1109c4.248-.6483,7.987-6.6376,7.987-6.6376l-2.235-6.3269c0,0-13.5563-.027-13.1905,6.8401v.0135Z" fill="#fff" stroke="#19374e" stroke-linecap="round" stroke-linejoin="round"/><path d="M134.246,26.2406l.867,8.0622c0,0,1.525,2.8292,4.512,2.8157.874-1.1208,1.85-2.316,2.879-3.8353c2.378-3.5247,1.897-7.8597,1.47-9.9326c0,0-5.04,2.4173-9.721,2.8967h-.007v-.0067Z" fill="#fff" stroke="#19374e" stroke-linecap="round" stroke-linejoin="round"/><path d="M119.957,47.329c0,2.7887,1.999,4.7604,3.286,5.7395.63.4727,1.09.7225,1.09.7225-.365,2.7617-.542,7.5558-.616,11.4519-.081,3.4437-.081,6.1919-.081,6.1919c9.545,10.5741,23.487,6.1919,23.487,6.1919-1.172-4.6524.352-10.8308,2.351-16.7458-.894-3.4302-1.897-7.3735-2.351-9.8516-.779-4.173,1.795-9.6761,4.038-11.4249.521-.4119,1.036-.6145,1.47-.547-.705-.8102-1.47-1.4517-2.168-1.9649l-.671-5.3951c-1.45,5.4356-5.223,8.2378-7.364,9.541-4.396,2.6402-6.903,5.2871-6.903,5.2871.677-4.7604,2.168-6.9346,4.092-9.379-2.995.0203-4.512-2.8157-4.512-2.8157l-.867-8.0622c-.759.081-1.518.108-2.236.0675c0,0-4.261,2.7819-4.993,6.4552-.745,3.6935-7.052,10.4256-7.052,14.558v-.0135-.0068Z" fill="#e7ebee" stroke="#19374e" stroke-linecap="round" stroke-linejoin="round"/><path d="M104.41,63.5066l2.236,6.3269c0,0,14.436-2.3228,17.078-4.5848.082-3.8893.251-8.6834.617-11.4451c0,0-.468-.2499-1.091-.7225-5.86,4.1459-18.84,10.439-18.84,10.439v-.0135Z" fill="#e7ebee" stroke="#19374e" stroke-linecap="round" stroke-linejoin="round"/><path d="M144.998,106.351c2.872,2.228,5.345,1.661,7.052.628c1.538-.932,2.452-2.235,2.452-2.235c2.29-3.626.176-10.3583.176-10.3583l-1.944-.7563-4.315-1.6948c0,0-8.875,10.2164-3.415,14.4294v-.013h-.006Z" fill="#fff" stroke="#19374e" stroke-linecap="round" stroke-linejoin="round"/><path d="M149.475,60.8663c.982,3.7002,1.849,6.7995,1.849,6.7995s-.142,8.0826-1.24,15.9423c-.413,2.9575-.955,5.8677-1.68,8.3121l4.322,1.6948l1.945.7562c0,0,6.171-17.0563,6.32-26.0504.122-6.9886-.271-20.0949-4.132-26.1314-1.098-1.7219-2.48-2.8765-4.207-3.1466-.434-.0675-.949.1418-1.47.5469-2.243,1.7556-4.824,7.2588-4.038,11.4249.468,2.4781,1.457,6.4215,2.351,9.8517h-.02Z" fill="#e7ebee" stroke="#19374e" stroke-linecap="round" stroke-linejoin="round"/><path d="M55.8096,118.315l3.8208-1.262c1.0298-7.698,2.466-17.8264,1.7072-26.8745-.9145-10.7159-3.7531-20.1421-.2777-25.5642-3.9157,4.7266-5.4806,16.2393-6.463,26.7391-1.0094,10.7226,1.2127,26.9756,1.2127,26.9756v-.014Z" fill="#3d84bb" stroke="#19374e" stroke-linecap="round" stroke-linejoin="round"/><path d="M55.4302,128.673c0,0,1.5107,2.451,4.0715,3.214.3658-1.708.8265-3.133,1.2533-4.24-1.2871-.878-2.0391-1.452-2.0391-1.452c0-2.201.4132-5.381.9145-9.149l-3.8208,1.263c0,0-2.4592,6.617-.3658,10.358h-.0136v.006Z" fill="#fff" stroke="#19374e" stroke-linecap="round" stroke-linejoin="round"/><path d="M58.7225,126.196c0,0,.752.567,2.0392,1.452c1.1178.763,2.642,1.769,4.4373,2.849c8.1498,4.909,21.8141,11.297,27.9992,3.619.5014-.635.9552-1.35,1.3549-2.181c0,0-1.1042-8.46-1.5513-16.57-3.5228-4.227-6.5239-9.237-7.2691-14.598-1.9104-13.6739-2.615-25.9766,3.184-29.7107.8739-.5604,2.5744-.3241,4.3764.9994-.0271-.054-.061-.1013-.0881-.1553-1.3549-2.0325-5.1554-4.5443-9.6063-6.6645-.0677.5334-.1694.9925-.3252,1.3167-1.0297,2.208-10.5547-1.0331-11.6454-3.0656-.2236-.4254-.2033-1.2694-.0339-2.3701-2.6624-.4794-4.9522-.5131-6.4358.1351-1.8834.817-3.1908,1.9379-4.0919,3.3491-3.4685,5.4356-.6368,14.8551.2778,25.571.7587,9.0481-.6842,19.1769-1.7072,26.8739-.5013,3.768-.9146,6.948-.9146,9.15Z" fill="#3d84bb"/><path d="M58.7225,126.196c0,0,.752.567,2.0392,1.452c1.1178.763,2.642,1.769,4.4373,2.849c8.1498,4.909,21.8141,11.297,27.9992,3.619.5014-.635.9552-1.35,1.3549-2.181c0,0-1.1042-8.46-1.5513-16.57-3.5228-4.227-6.5239-9.237-7.2691-14.598-1.9104-13.6739-2.615-25.9766,3.184-29.7107.8739-.5604,2.5744-.3241,4.3764.9994-.0271-.054-.061-.1013-.0881-.1553-1.3549-2.0325-5.1554-4.5443-9.6063-6.6645-.0677.5334-.1694.9925-.3252,1.3167-1.0297,2.208-10.5547-1.0331-11.6454-3.0656-.2236-.4254-.2033-1.2694-.0339-2.3701-2.6624-.4794-4.9522-.5131-6.4358.1351-1.8834.817-3.1908,1.9379-4.0919,3.3491-3.4685,5.4356-.6368,14.8551.2778,25.571.7587,9.0481-.6842,19.1769-1.7072,26.8739-.5013,3.768-.9146,6.948-.9146,9.15Zm0,0h-.0135" fill="none" stroke="#19374e" stroke-linecap="round" stroke-linejoin="round"/><path d="M71.635,63.4938c1.0907,2.0392,10.6158,5.2735,11.6455,3.0655.1558-.3309.2507-.7833.3252-1.3167.2303-1.7083.1084-4.2472-.0474-6.1919-3.2857-.898-6.3546-2.9575-6.5443-3.079-1.4091,1.0331-2.9062,1.6408-4.2612,1.1411-.0609-.027-.1219-.0472-.1896-.081-.4201,1.4788-.7791,2.917-.962,4.0987-.1694,1.0938-.1897,1.9379.0338,2.37v-.0067Z" fill="#fff" stroke="#19374e" stroke-linecap="round" stroke-linejoin="round"/><path d="M77.0068,55.9583c.1897.135,3.2585,2.181,6.5442,3.079c3.4686.9521,7.1743.6077,7.9804-4.6726c1.5921-10.4188-2.3711-15.2602-2.3711-15.2602-.1829.081-.3658.1823-.5419.2768-1.3008,1.6746-2.8453,2.7415-2.8453,2.7415c1.8155,3.0993.1422,7.9272.1422,7.9272s-1.6665-.5942-3.2585.4592c-.5894.3916-1.5921,1.5732-2.7912,2.8427-.8739.9115-1.8426,1.8501-2.8521,2.5929L77,55.9583h.0068Z" fill="#fff" stroke="#19374e" stroke-linecap="round" stroke-linejoin="round"/><path d="M72.5561,57.0252c.061.027.122.054.1897.081c1.3549.4997,2.8521-.108,4.2612-1.1411c1.0094-.736,1.985-1.6814,2.8521-2.5929c1.2194-1.2627,2.2153-2.4511,2.7979-2.8427c1.592-1.0534,3.2518-.4592,3.2518-.4592s1.6665-4.8279-.1423-7.9272c0,0,1.5446-1.0669,2.8386-2.7415c1.5987-2.0729,2.8182-5.0777.2574-8.1297-3.1434-3.7611-17.4174-.5402-20.8318,6.7253-3.3602,7.1237.8401,17.4074,4.5119,19.0347h.0135v-.0067Z" fill="#3d84bb" stroke="#19374e" stroke-linecap="round" stroke-linejoin="round"/><path d="M59.3939,215.009c4.4847-.756,8.9695-1.506,13.4678-2.262.3116,6.151.6503,10.642.6503,10.642c6.1852,2.032,10.0941-.419,11.9436-2.141h.0203c.8197-.783,1.2262-1.404,1.2262-1.404-.6097-23.559,3.0215-38.36,5.2977-55.43c2.2356-16.719,1.2601-29.758,1.2194-30.291-6.1851,7.677-19.8494,1.29-27.9992-3.619-1.7953-1.081-3.3263-2.087-4.4441-2.85-.4201,1.094-.8807,2.532-1.2466,4.241-.359,1.614-.6097,3.464-.6368,5.523-.0542,5.22,1.4295,9.069,1.8834,10.385c3.6582,10.561-1.6801,21.972-3.3263,37.766-1.2195,11.627,1.9443,29.46,1.9443,29.46v-.02Z" fill="#e7ebee" stroke="#19374e" stroke-linecap="round" stroke-linejoin="round"/><path d="M76.1597,236.151c2.8047,1.972,10.609-3.693,13.1833-3.849c8.3259-.83,12.438-9.102,11.286-11.485-1.8491-3.849-14.6123.249-15.1611.418h-.0203c-1.8427,1.715-5.7651,4.166-11.9435,2.141-.9146,6.05-.1423,10.797,2.6556,12.755v.02Z" fill="#3d84bb" stroke="#19374e" stroke-linecap="round" stroke-linejoin="round"/><path d="M60.0236,225.435c2.2153,3.403,13.4678-2.04,13.4678-2.04s-.332-4.49-.6504-10.648c-4.4847.763-8.9695,1.506-13.4678,2.269c0,0-.5894,8.521.6436,10.419h.0068Z" fill="#3d84bb" stroke="#19374e" stroke-linecap="round" stroke-linejoin="round"/><path d="M106.957,127.701c0,0,.793,7.009,4.349,9.419c0,0,6.07,3.714,9.349-2.336c3.286-6.05-8.963-11.83-8.963-11.83l-4.735,4.76v-.013Z" fill="#fff" stroke="#19374e" stroke-linecap="round" stroke-linejoin="round"/><path d="M85.7389,100.773c.7453,5.361,3.7532,10.378,7.2624,14.599c6.1851,7.4,13.9487,12.336,13.9487,12.336l4.736-4.76c-11.185-10.325-11.3-19.764-11.3-19.764s-.116-8.8256-.7931-17.0095c-.6504-7.7381-3.5837-12.1406-6.3003-14.119-1.8021-1.3303-3.5092-1.5598-4.3764-.9994-5.7922,3.7408-5.0945,16.0435-3.184,29.7169h.0067Z" fill="#3d84bb" stroke="#19374e" stroke-linecap="round" stroke-linejoin="round"/><path d="M69.4883,142.881c.5081,2.41,1.9849,3.795,3.184,4.551s1.9443,1.864,2.134,3.194c1.2059,8.447.0203,18.251-1.0162,24.322-.8807,5.158-1.3617,10.371-1.3888,15.604-.0948,16.759,1.1178,32.843,1.1178,32.843" fill="none" stroke="#19374e" stroke-linecap="round" stroke-linejoin="round"/></g><path d="" fill="none" stroke="#3f5787" stroke-width="0.602"/></svg>
