<svg width="218" height="301" viewBox="0 0 218 301" fill="none" xmlns="http://www.w3.org/2000/svg">
<path d="M109.723 4.02561C109.723 4.02561 105.755 1.30799 105.517 1.19851L105.489 1.17919H105.483C104.833 0.902279 104.083 0.928043 103.399 1.38527L62.358 28.8449C60.7853 29.8946 59.8184 31.8394 59.8184 33.9453V120.066C59.8184 121.122 60.2574 122.004 60.8965 122.558H60.902C61.0799 122.712 61.2744 122.835 61.4744 122.938L65.7091 125.726L65.7203 121.502L105.016 95.2078C106.3 94.3449 107.095 92.7542 107.095 91.0348V5.91893L109.723 4.02561Z" fill="#3D84BB" stroke="#19374E" stroke-width="2" stroke-linecap="round" stroke-linejoin="round"/>
<path d="M50.905 43.4885C50.905 43.4885 46.9371 40.7709 46.6982 40.6614L46.6703 40.6421H46.6648C46.0146 40.3652 45.2643 40.3909 44.5808 40.8482L3.53968 68.3078C1.96695 69.3575 1 71.3023 1 73.4082V159.529C1 160.585 1.439 161.467 2.0781 162.021H2.08366C2.26149 162.175 2.45602 162.298 2.65608 162.401L6.89079 165.189L6.90191 160.965L46.198 134.671C47.4817 133.808 48.2764 132.217 48.2764 130.498V45.3818L50.905 43.4885Z" fill="#3D84BB" stroke="#19374E" stroke-width="2" stroke-linecap="round" stroke-linejoin="round"/>
<g style="mix-blend-mode:multiply" opacity="0.2">
<path d="M15.6992 248.2L94.6248 301L210.829 222.814L131.542 171.99L15.6992 248.2Z" fill="#15374F"/>
</g>
<path d="M66.227 31.491L107.268 4.03138C108.913 2.93016 110.969 4.3083 110.969 6.51074V93.6873C110.969 95.4068 110.175 96.9974 108.885 97.8604L67.7107 125.417C65.9213 126.614 63.6816 125.12 63.6816 122.718V36.5978C63.6816 34.492 64.6487 32.5471 66.2214 31.4974H66.227V31.491Z" fill="white" stroke="#19374E" stroke-linecap="round" stroke-linejoin="round"/>
<path d="M71.7852 45.8911L83.35 38.1504" stroke="#19374E" stroke-linecap="round" stroke-linejoin="round"/>
<path d="M71.7852 71.1035L83.35 63.3628" stroke="#19374E" stroke-linecap="round" stroke-linejoin="round"/>
<path d="M71.7852 76.957L83.35 69.2163" stroke="#19374E" stroke-linecap="round" stroke-linejoin="round"/>
<path d="M71.7852 53.4383L104.185 31.7617" stroke="#19374E" stroke-linecap="round" stroke-linejoin="round"/>
<path d="M71.7852 59.8334L104.185 38.1504" stroke="#19374E" stroke-linecap="round" stroke-linejoin="round"/>
<path d="M71.7852 65.3334L104.185 43.6567" stroke="#19374E" stroke-linecap="round" stroke-linejoin="round"/>
<path d="M91.9922 72.5332L103.557 64.7925" stroke="#19374E" stroke-linecap="round" stroke-linejoin="round"/>
<path d="M71.7852 92.7861L104.185 71.103" stroke="#19374E" stroke-linecap="round" stroke-linejoin="round"/>
<path d="M71.7852 99.1806L104.185 77.4976" stroke="#19374E" stroke-linecap="round" stroke-linejoin="round"/>
<path d="M71.7852 104.681L104.185 82.998" stroke="#19374E" stroke-linecap="round" stroke-linejoin="round"/>
<path d="M7.40853 70.9554L48.4497 43.4957C50.0947 42.3945 52.1508 43.7727 52.1508 45.9751V133.152C52.1508 134.871 51.3561 136.462 50.0668 137.325L8.89237 164.881C7.1029 166.079 4.86328 164.585 4.86328 162.183V76.0622C4.86328 73.9563 5.83023 72.0115 7.40296 70.9618H7.40853V70.9554Z" fill="white" stroke="#19374E" stroke-linecap="round" stroke-linejoin="round"/>
<path d="M12.9668 85.3555L24.5317 77.6147" stroke="#19374E" stroke-linecap="round" stroke-linejoin="round"/>
<path d="M12.9668 110.566L24.5317 102.826" stroke="#19374E" stroke-linecap="round" stroke-linejoin="round"/>
<path d="M12.9668 116.42L24.5317 108.679" stroke="#19374E" stroke-linecap="round" stroke-linejoin="round"/>
<path d="M12.9668 92.9027L45.3662 71.2261" stroke="#19374E" stroke-linecap="round" stroke-linejoin="round"/>
<path d="M12.9668 99.2978L45.3662 77.6147" stroke="#19374E" stroke-linecap="round" stroke-linejoin="round"/>
<path d="M12.9668 104.797L45.3662 83.1201" stroke="#19374E" stroke-linecap="round" stroke-linejoin="round"/>
<path d="M33.1719 111.997L44.7367 104.256" stroke="#19374E" stroke-linecap="round" stroke-linejoin="round"/>
<path d="M12.9668 132.25L45.3662 110.567" stroke="#19374E" stroke-linecap="round" stroke-linejoin="round"/>
<path d="M12.9668 138.639L45.3662 116.962" stroke="#19374E" stroke-linecap="round" stroke-linejoin="round"/>
<path d="M12.9668 144.144L45.3662 122.461" stroke="#19374E" stroke-linecap="round" stroke-linejoin="round"/>
<path d="M213.819 151.653L97.9644 229.17L19.0332 176.357L134.887 98.8462L213.819 151.653Z" fill="white" stroke="#19374E" stroke-linecap="round" stroke-linejoin="round"/>
<path d="M97.6151 229.847V276.672L18.6895 223.871V177.047L97.6151 229.847Z" fill="#E7EBEE" stroke="#19374E" stroke-linecap="round" stroke-linejoin="round"/>
<path d="M213.82 151.653V198.478L97.6152 276.677V229.853L213.82 151.653Z" fill="#3D84BB" stroke="#19374E" stroke-linecap="round" stroke-linejoin="round"/>
<path d="M107.99 235.597L21.5898 186.809C52.1831 169.176 77.1024 143.449 107.918 109.762C112.18 105.106 116.265 100.424 120.183 95.7231C125.94 99.7996 131.903 103.825 138.083 107.779C166.148 125.746 185.865 131.947 211.257 141.704C171.527 171.108 147.714 206.186 107.985 235.591H107.99V235.597Z" fill="white" stroke="#19374E" stroke-linecap="round" stroke-linejoin="round"/>
<path d="M195.058 145.497C195.158 145.407 195.202 145.252 195.18 145.111C195.152 144.962 195.063 144.847 194.941 144.808C153.166 130.614 120.55 106.722 120.222 106.484C120.089 106.388 119.917 106.407 119.805 106.536L112.548 114.637L98.3152 130.518C98.3152 130.518 98.2929 130.544 98.2818 130.55L91.1906 138.465C91.1906 138.465 91.174 138.484 91.1629 138.49L84.055 146.418C83.9772 146.508 83.9383 146.63 83.955 146.759C83.9717 146.882 84.0383 146.997 84.1328 147.055C84.2717 147.139 90.1514 150.668 99.9324 156.013C99.9491 156.026 99.9657 156.033 99.988 156.045C111.419 162.299 128.153 171.018 147.248 179.635H147.259C150.365 181.032 153.533 182.43 156.751 183.814C156.79 183.834 156.829 183.84 156.868 183.84C156.956 183.84 157.04 183.801 157.106 183.724C163.753 176.215 172.128 167.695 179.325 160.611C187.994 152.072 194.941 145.613 195.069 145.497H195.058ZM171.411 167.47C168.349 166.266 165.342 165.036 162.392 163.786C164.776 161.358 167.115 159.034 169.333 156.857C172.311 158.08 175.351 159.285 178.441 160.45C176.179 162.685 173.812 165.048 171.417 167.476H171.411V167.47ZM163.964 175.172C160.947 173.929 157.973 172.667 155.061 171.398C157.307 169.015 159.574 166.658 161.808 164.385C164.753 165.634 167.765 166.871 170.822 168.075C168.521 170.413 166.215 172.802 163.97 175.172H163.964ZM100.677 155.543L106.851 148.253C118.138 154.564 134.71 163.297 153.789 171.675C151.577 174.038 149.393 176.428 147.303 178.798C128.525 170.323 112.047 161.745 100.683 155.537L100.677 155.543ZM84.8719 146.605L91.4519 139.263C92.5744 139.959 97.8817 143.23 106.201 147.899L100.021 155.195C91.8019 150.694 86.3724 147.506 84.8663 146.611H84.8719V146.605ZM98.5708 131.323C99.6767 132.044 104.817 135.335 112.903 139.978L106.701 147.3C98.6875 142.812 93.4302 139.592 91.9631 138.684L98.5652 131.323H98.5708ZM105.729 123.337C106.818 124.071 111.797 127.382 119.65 132.018L113.409 139.385C105.601 134.903 100.505 131.664 99.0821 130.75L105.723 123.337H105.729ZM112.798 115.448C113.876 116.196 118.711 119.506 126.346 124.104L120.139 131.432C112.536 126.95 107.596 123.692 106.229 122.777L112.792 115.455H112.798V115.448ZM184.171 141.704C183.132 142.657 180.486 145.098 176.896 148.511C156.506 140.358 139.001 130.782 127.486 123.898L133.843 116.395C145.403 123.537 163.27 133.551 184.171 141.71V141.704ZM176.279 149.097C174.173 151.106 171.767 153.424 169.188 155.955C149.298 147.744 132.193 138.49 120.789 131.799L126.991 124.477C138.456 131.342 155.912 140.912 176.285 149.09H176.279V149.097ZM168.588 156.548C166.376 158.724 164.042 161.056 161.664 163.477C142.213 155.202 125.402 146.244 114.054 139.753L120.289 132.392C131.643 139.064 148.715 148.311 168.588 156.548ZM107.351 147.661L113.548 140.345C124.852 146.817 141.629 155.775 161.08 164.07C158.851 166.349 156.584 168.7 154.35 171.083C135.272 162.724 118.683 153.991 107.357 147.661H107.351ZM169.933 156.271C172.528 153.727 174.94 151.409 177.041 149.406C180.042 150.604 183.098 151.763 186.21 152.883C184.071 154.944 181.642 157.301 179.047 159.851C175.952 158.692 172.912 157.494 169.933 156.271ZM186.833 152.278C183.721 151.164 180.659 150.005 177.658 148.813C181.592 145.078 184.321 142.573 184.949 142.007C187.95 143.166 191.017 144.293 194.135 145.355C193.068 146.353 190.406 148.852 186.838 152.278H186.833ZM120.089 107.315C121.15 108.081 125.83 111.411 133.21 116.002L126.847 123.511C119.45 119.061 114.643 115.803 113.303 114.875L120.083 107.308H120.089V107.315ZM156.784 182.99C153.811 181.708 150.877 180.42 148.004 179.12C150.104 176.75 152.288 174.36 154.506 171.991C157.418 173.266 160.385 174.528 163.403 175.771C161.091 178.218 158.857 180.652 156.79 182.983H156.784V182.99Z" fill="#19374E"/>
<path d="M119.822 113.819L126.475 118.063C126.525 118.095 126.58 118.114 126.636 118.114C126.758 118.114 126.875 118.043 126.936 117.908C127.03 117.715 126.969 117.477 126.803 117.374L120.15 113.13C119.984 113.02 119.778 113.091 119.689 113.284C119.595 113.477 119.656 113.716 119.822 113.819Z" fill="#19374E"/>
<path d="M99.1536 149.368L92.0124 145.395C91.8457 145.305 91.64 145.388 91.5567 145.581C91.4789 145.775 91.5512 146.013 91.7179 146.109L98.8591 150.076C98.9035 150.102 98.9535 150.115 99.0036 150.115C99.1314 150.115 99.2536 150.031 99.3092 149.89C99.387 149.696 99.3148 149.458 99.1481 149.362H99.1536V149.368Z" fill="#19374E"/>
<path d="M98.9535 137.885L105.845 141.923C105.895 141.955 105.95 141.968 106 141.968C106.128 141.968 106.245 141.891 106.306 141.749C106.389 141.556 106.323 141.317 106.156 141.221L99.2647 137.183C99.098 137.08 98.8924 137.164 98.8035 137.357C98.7201 137.55 98.7868 137.788 98.9535 137.885Z" fill="#19374E"/>
<path d="M105.645 129.707L112.536 133.957C112.591 133.983 112.641 134.002 112.697 134.002C112.819 134.002 112.936 133.925 112.997 133.796C113.086 133.603 113.025 133.365 112.858 133.262L105.967 129.011C105.8 128.908 105.595 128.986 105.506 129.172C105.417 129.365 105.478 129.604 105.645 129.707Z" fill="#19374E"/>
<path d="M112.674 121.959L119.282 126.145C119.337 126.177 119.393 126.196 119.443 126.196C119.565 126.196 119.682 126.119 119.743 125.99C119.832 125.797 119.771 125.559 119.604 125.456L112.996 121.27C112.83 121.167 112.624 121.238 112.535 121.431C112.446 121.624 112.507 121.862 112.668 121.965H112.674V121.959Z" fill="#19374E"/>
<path d="M135.676 123.64C135.815 123.724 149.675 131.845 157.967 135.799C158.011 135.818 158.056 135.831 158.094 135.831C158.228 135.831 158.356 135.741 158.406 135.586C158.478 135.387 158.395 135.155 158.222 135.071C149.953 131.124 136.115 123.016 135.976 122.938C135.809 122.835 135.604 122.919 135.515 123.112C135.426 123.306 135.498 123.544 135.665 123.647H135.676V123.64Z" fill="#19374E"/>
<path d="M128.858 131.593C133.354 134.175 137.95 136.693 142.529 139.07C148.103 141.968 153.81 144.743 159.501 147.319C159.545 147.339 159.584 147.351 159.629 147.351C159.768 147.351 159.896 147.255 159.951 147.094C160.018 146.888 159.934 146.662 159.757 146.585C154.077 144.009 148.381 141.24 142.818 138.348C138.244 135.972 133.654 133.461 129.169 130.885C129.002 130.788 128.791 130.865 128.708 131.065C128.624 131.258 128.691 131.503 128.863 131.6H128.858V131.593Z" fill="#19374E"/>
<path d="M122.528 139.759C122.623 139.81 131.804 144.988 137.978 148.073C138.022 148.092 138.067 148.105 138.111 148.105C138.245 148.105 138.367 148.015 138.422 147.867C138.495 147.667 138.411 147.435 138.245 147.345C132.087 144.267 122.917 139.102 122.828 139.051C122.662 138.954 122.456 139.038 122.373 139.231C122.289 139.424 122.362 139.662 122.528 139.759Z" fill="#19374E"/>
<path d="M141.306 159.922C126.946 153.012 116.671 147.216 116.571 147.158C116.404 147.061 116.198 147.145 116.115 147.338C116.031 147.531 116.104 147.77 116.27 147.866C116.376 147.924 126.663 153.727 141.045 160.65C141.09 160.669 141.134 160.682 141.179 160.682H141.173C141.306 160.682 141.434 160.592 141.484 160.443C141.562 160.237 141.479 160.006 141.301 159.922H141.306Z" fill="#19374E"/>
<path d="M124.856 162.498C118.498 159.336 109.99 154.699 109.901 154.654C109.729 154.564 109.529 154.648 109.445 154.847C109.367 155.047 109.44 155.285 109.612 155.376C109.701 155.421 118.226 160.064 124.589 163.232C124.634 163.258 124.678 163.264 124.722 163.264C124.856 163.264 124.978 163.174 125.034 163.026C125.111 162.827 125.028 162.595 124.856 162.505V162.498Z" fill="#19374E"/>
<path d="M76.6474 154.956L103.767 168.776C103.812 168.796 103.856 168.809 103.906 168.809C104.034 168.809 104.162 168.718 104.217 168.57C104.295 168.371 104.217 168.132 104.04 168.049L76.9197 154.235C76.7419 154.145 76.5418 154.235 76.4696 154.441C76.3918 154.641 76.4696 154.879 76.6474 154.963V154.956Z" fill="#19374E"/>
<path d="M133.498 194.395L69.5722 161.094C69.3999 161.004 69.1998 161.094 69.122 161.294C69.0442 161.493 69.122 161.725 69.2943 161.815L132.82 194.91C133.043 194.736 133.271 194.562 133.498 194.395Z" fill="#19374E"/>
<path d="M127.597 198.858L63.7206 165.68C63.5483 165.59 63.3482 165.68 63.2704 165.88C63.1926 166.079 63.2705 166.311 63.4427 166.401L126.847 199.341C127.097 199.174 127.341 199.019 127.597 198.865V198.858Z" fill="#19374E"/>
<path d="M71.7116 198.246L42.4021 181.522C42.2299 181.425 42.0297 181.503 41.9464 181.702C41.8575 181.902 41.9297 182.134 42.102 182.23L71.4115 198.955C71.4615 198.987 71.5116 199 71.5616 199C71.6894 199 71.8061 198.922 71.8673 198.781C71.9506 198.581 71.8839 198.343 71.7116 198.246Z" fill="#19374E"/>
<path d="M76.9355 194.286L47.6259 177.561C47.4536 177.458 47.248 177.542 47.1647 177.742C47.0813 177.941 47.148 178.18 47.3203 178.276L76.6298 195.001C76.6798 195.026 76.7298 195.039 76.7798 195.039C76.9077 195.039 77.0243 194.962 77.0855 194.82C77.1744 194.621 77.1022 194.382 76.9299 194.292H76.9355V194.286Z" fill="#19374E"/>
<path d="M79.9531 205.226C79.9531 205.226 80.8145 210.855 88.5893 209.857C96.364 208.858 102.466 206.192 103.972 204.666C105.478 203.14 105.817 199.005 98.1312 200.847C90.4398 202.689 87.6501 209.657 90.6566 210.855C93.6631 212.053 95.7694 211.95 97.1865 211.499C98.6036 211.048 99.5039 209.908 97.2699 210.352C95.0358 210.803 91.3846 212.445 94.6913 213.489C97.9979 214.532 99.0316 214.133 99.6318 213.939C100.232 213.746 99.6762 212.594 98.7315 213.244C97.7867 213.894 97.3977 215.337 98.9871 215.337C100.576 215.337 102.383 215.086 102.811 214.79C103.238 214.493 103.238 213.592 102.166 214.146C101.093 214.693 100.404 215.936 101.177 216.084C101.949 216.232 106.034 216.084 106.034 216.084C107.54 215.987 107.151 217.475 107.151 217.475C107.323 218.866 110.63 218.422 110.63 218.422" stroke="#19374E" stroke-linecap="round" stroke-linejoin="round"/>
<path d="M114.904 217.295L113.465 214.217L110.93 217.037C110.741 217.25 110.647 217.553 110.675 217.855L110.686 217.997C110.702 218.19 110.803 218.371 110.947 218.467C111.158 218.615 111.419 218.647 111.653 218.551L114.904 217.289V217.295Z" fill="#3272B9"/>
<path d="M128.769 213.74C128.586 213.811 128.402 213.869 128.214 213.927L115.448 217.527C115.448 217.527 112.981 216.979 113.537 213.482L122.956 202.013C123.034 201.916 123.118 201.82 123.201 201.729C122.601 204.66 123.206 207.97 125.074 210.597C126.102 212.046 127.385 213.102 128.764 213.74H128.769Z" stroke="#19374E" stroke-linecap="round" stroke-linejoin="round"/>
<path d="M135.638 209.219C135.672 209.232 135.705 209.238 135.738 209.251L133.626 210.674C131.959 210.108 130.392 208.942 129.169 207.229C127.386 204.711 126.752 201.556 127.23 198.722L129.225 197.37C128.775 200.177 129.414 203.281 131.181 205.767C132.398 207.48 133.971 208.646 135.638 209.213V209.219Z" stroke="#19374E" stroke-linecap="round" stroke-linejoin="round"/>
<path d="M140.379 205.824C140.479 205.857 140.573 205.889 140.673 205.915L139.529 206.687L138.439 207.422C136.805 206.848 135.26 205.696 134.06 204.008C132.276 201.49 131.643 198.335 132.121 195.501C132.126 195.463 132.132 195.43 132.143 195.392L132.537 195.128L133.938 194.181C133.549 196.931 134.199 199.951 135.922 202.379C137.139 204.092 138.712 205.258 140.379 205.824Z" stroke="#19374E" stroke-linecap="round" stroke-linejoin="round"/>
<path d="M141.896 200.357C142.996 201.471 144.252 202.238 145.547 202.643L145.525 202.663L143.541 204.002L143.352 204.131C143.285 204.112 143.213 204.086 143.147 204.06C141.479 203.493 139.912 202.328 138.69 200.615C136.95 198.155 136.3 195.089 136.722 192.314L137.239 191.96L138.962 190.794C138.873 191.296 138.817 191.805 138.806 192.32V192.526C138.778 195.347 139.845 198.251 141.902 200.357H141.896Z" stroke="#19374E" stroke-linecap="round" stroke-linejoin="round"/>
<path d="M133.627 210.674L130.176 212.999C129.732 213.302 129.254 213.546 128.765 213.733C127.386 213.095 126.103 212.046 125.075 210.59C123.207 207.963 122.602 204.646 123.202 201.723C123.619 201.259 124.08 200.853 124.58 200.518L127.231 198.722C126.753 201.555 127.386 204.711 129.17 207.229C130.387 208.942 131.96 210.107 133.627 210.674Z" fill="#3D84BB" stroke="#19374E" stroke-linecap="round" stroke-linejoin="round"/>
<path d="M138.444 207.429L135.743 209.251C135.71 209.238 135.677 209.232 135.643 209.219C133.976 208.652 132.409 207.487 131.186 205.774C129.425 203.288 128.786 200.177 129.23 197.376L132.148 195.399C132.137 195.438 132.131 195.47 132.126 195.508C131.648 198.342 132.281 201.497 134.065 204.015C135.265 205.703 136.805 206.855 138.444 207.429Z" fill="#3D84BB" stroke="#19374E" stroke-linecap="round" stroke-linejoin="round"/>
<path d="M143.345 204.126L140.678 205.922C140.578 205.89 140.483 205.864 140.383 205.832C138.716 205.266 137.149 204.1 135.926 202.387C134.209 199.959 133.559 196.939 133.942 194.189L136.716 192.315C136.293 195.097 136.943 198.156 138.683 200.616C139.9 202.329 141.473 203.495 143.14 204.061C143.207 204.087 143.279 204.106 143.345 204.132V204.126Z" fill="#3D84BB" stroke="#19374E" stroke-linecap="round" stroke-linejoin="round"/>
<path d="M191.261 171.816L155.466 195.953L152.998 197.614L150.22 199.488L148.441 200.692L145.546 202.644C144.251 202.238 142.995 201.478 141.895 200.357C139.833 198.252 138.772 195.354 138.799 192.527V192.321C138.816 191.805 138.866 191.29 138.955 190.794L139.333 190.543L142.028 188.721L144.251 187.214L146.913 185.411L148.903 184.058L181.952 161.686C182.008 164.397 183.064 167.16 185.048 169.182C186.493 170.644 188.204 171.5 189.922 171.752C189.994 171.764 190.066 171.771 190.138 171.784C190.511 171.829 190.888 171.842 191.255 171.822H191.261V171.816Z" fill="#3D84BB" stroke="#19374E" stroke-linecap="round" stroke-linejoin="round"/>
<path d="M209.279 143.178L181.476 159.793C177.069 165.125 181.703 172.189 181.703 172.189C185.855 176.8 188.883 176.292 188.883 176.292L214.92 155.587L209.279 143.171V143.178Z" fill="#3D84BB" stroke="#19374E" stroke-linecap="round" stroke-linejoin="round"/>
<path d="M177.874 170.619L201.226 153.746C202.088 153.122 203.221 153.437 203.749 154.442L204.616 156.084C205.172 157.14 204.828 158.525 203.872 159.079L179.197 173.337C178.869 173.53 178.469 173.388 178.286 173.015L177.641 171.701C177.458 171.327 177.563 170.851 177.874 170.619Z" fill="#E7EBEE" stroke="#19374E" stroke-linecap="round" stroke-linejoin="round"/>
<path d="M214.893 155.592C216.609 154.544 216.737 150.915 215.178 147.484C213.62 144.054 210.965 142.122 209.248 143.17C207.532 144.217 207.404 147.847 208.963 151.277C210.522 154.707 213.177 156.639 214.893 155.592Z" fill="#E7EBEE" stroke="#19374E" stroke-linecap="round" stroke-linejoin="round"/>
</svg>
