<svg width="260" height="301" viewBox="0 0 260 301" fill="none" xmlns="http://www.w3.org/2000/svg">
<path d="M254.437 253.486L176.255 301L39.6484 215.26L117.83 167.746L254.437 253.486Z" fill="#15374F" fill-opacity="0.2"/>
<path d="M118.912 147.357L252.248 229.394C255.169 231.147 255.156 235.499 252.229 237.245L179.99 280.276C178.629 281.09 176.955 281.09 175.594 280.276L41.4812 198.705C38.5479 196.958 38.5479 192.593 41.4812 190.847L114.496 147.344C115.864 146.53 117.551 146.536 118.912 147.35V147.357Z" fill="white" stroke="#19374E" stroke-linecap="round" stroke-linejoin="round"/>
<path d="M100.364 194.641C100.364 196.308 100.943 197.897 101.98 199.335L79.4873 205.958C76.8785 202.518 75.4277 198.685 75.4277 194.641C75.4277 187.893 79.4682 181.722 86.1493 177.002L105.187 186.908C102.19 188.956 100.358 191.667 100.358 194.641H100.364Z" fill="#E7EBEE" stroke="#19374E" stroke-linecap="round" stroke-linejoin="round"/>
<path d="M162.937 194.641C162.937 201.809 158.362 208.335 150.911 213.153L133.96 201.796C136.492 199.827 138 197.339 138 194.641C138 188.247 129.569 183.068 119.179 183.068C113.63 183.068 108.642 184.545 105.193 186.895C105.193 186.895 105.186 186.895 105.186 186.901L86.1484 176.995C94.1721 171.317 105.995 167.733 119.179 167.733C143.339 167.733 162.93 179.772 162.93 194.628L162.937 194.641Z" fill="#3D84BB" stroke="#19374E" stroke-linecap="round" stroke-linejoin="round"/>
<path d="M117.85 221.267C100.836 220.959 86.258 214.67 79.4941 205.709L101.987 199.085H101.994C104.679 202.808 110.475 205.492 117.367 205.899L117.85 221.267Z" fill="#15374F" stroke="#19374E" stroke-miterlimit="10"/>
<path d="M150.917 213.153C142.951 218.313 131.682 221.529 119.185 221.529C118.74 221.529 118.294 221.523 117.849 221.516L117.365 206.149C117.963 206.188 118.574 206.201 119.191 206.201C125.185 206.201 130.53 204.475 133.973 201.796L150.924 213.153H150.917Z" fill="#3D84BB" stroke="#19374E" stroke-linecap="round" stroke-linejoin="round"/>
<path d="M138.007 194.392C138.007 197.09 136.499 199.578 133.966 201.547C130.524 204.232 125.185 205.952 119.185 205.952C111.511 205.952 104.913 203.136 101.986 199.085H101.979C100.942 197.648 100.363 196.059 100.363 194.392C100.363 191.411 102.196 188.7 105.199 186.646C108.648 184.295 113.636 182.818 119.185 182.818C129.576 182.818 138.007 187.998 138.007 194.392Z" stroke="#19374E" stroke-linecap="round" stroke-linejoin="round"/>
<path d="M138.007 194.392C138.007 197.09 136.499 199.578 133.966 201.547C130.524 204.232 125.185 205.952 119.185 205.952C118.568 205.952 117.963 205.939 117.359 205.899C110.468 205.492 104.671 202.807 101.986 199.085H101.979C100.942 197.648 100.363 196.059 100.363 194.392C100.363 191.411 102.196 188.7 105.199 186.646C108.648 184.295 113.636 182.818 119.185 182.818C129.576 182.818 138.007 187.998 138.007 194.392Z" stroke="#19374E" stroke-linecap="round" stroke-linejoin="round"/>
<path d="M186.188 214.099L149.658 235.854C148.188 236.733 146.369 236.733 144.899 235.854L142.882 234.652C141.469 233.812 141.469 231.705 142.882 230.865L178.521 209.648C180.251 208.617 182.383 208.617 184.114 209.648L186.182 210.882C187.384 211.598 187.384 213.39 186.182 214.105L186.188 214.099Z" fill="#3D84BB" stroke="#19374E" stroke-linecap="round" stroke-linejoin="round"/>
<path d="M201.975 223.597L165.445 245.352C163.976 246.232 162.156 246.232 160.686 245.352L158.669 244.151C157.256 243.311 157.256 241.203 158.669 240.363L194.308 219.147C196.039 218.116 198.17 218.116 199.901 219.147L201.969 220.381C203.171 221.096 203.171 222.888 201.969 223.604L201.975 223.597Z" fill="#15374F" stroke="#19374E" stroke-width="2" stroke-miterlimit="10"/>
<path d="M219.594 234.015L183.065 255.77C181.595 256.65 179.775 256.65 178.305 255.77L176.288 254.569C174.875 253.729 174.875 251.621 176.288 250.781L211.927 229.564C213.658 228.534 215.789 228.534 217.52 229.564L219.588 230.799C220.791 231.514 220.791 233.306 219.588 234.022L219.594 234.015Z" stroke="#19374E" stroke-width="2" stroke-linecap="round" stroke-linejoin="round"/>
<path d="M253.711 106.145C253.691 113.753 253.672 121.361 253.647 128.97C253.622 138.462 253.596 147.948 253.571 157.434C253.571 158.569 253.526 159.81 253.227 160.926C252.947 161.957 252.438 162.882 251.528 163.512L251.509 163.525C251.388 163.611 251.254 163.69 251.121 163.762C248.9 164.937 246.609 163.624 244.675 162.469C236.823 157.768 228.971 153.068 221.113 148.368C213.878 144.035 206.637 139.709 199.403 135.377C199.269 135.298 199.142 135.219 199.008 135.14L181.752 142.368L181.726 124.801C178.513 122.878 175.306 120.961 172.093 119.038C169.484 117.475 166.474 116.09 164.196 114.003C160.487 110.602 158.451 105.685 158.438 100.617C158.412 92.3526 158.387 84.0878 158.362 75.8231C158.336 67.4336 158.311 59.0375 158.285 50.648C158.285 48.6655 158.285 46.4992 159.698 44.9631C160.022 44.6086 160.372 44.3461 160.748 44.1491C161.715 43.6436 162.816 43.6436 163.885 43.9194C164.68 44.1229 165.456 44.4708 166.156 44.8778C170.362 47.3264 174.53 49.8471 178.717 52.3285C186.95 57.2126 195.184 62.1032 203.424 66.9872C212.001 72.0813 220.585 77.1688 229.162 82.2629C234.393 85.3679 239.617 88.4664 244.847 91.5714C248.735 93.8756 251.592 97.3876 252.992 101.832C253.431 103.23 253.698 104.681 253.704 106.151L253.711 106.145Z" fill="white" stroke="#19374E" stroke-linecap="round" stroke-linejoin="round"/>
<path d="M258.909 110.379C258.89 116.405 258.871 122.431 258.858 128.457C258.833 137.438 258.807 146.418 258.775 155.392C258.763 157.427 258.133 159.738 256.224 160.67L251.528 163.506C252.444 162.875 252.947 161.95 253.227 160.919C253.526 159.803 253.564 158.563 253.571 157.427C253.596 147.935 253.621 138.449 253.647 128.963C253.666 121.355 253.685 113.746 253.71 106.138C253.71 104.668 253.437 103.217 252.998 101.819C251.604 97.3743 248.741 93.8689 244.853 91.5582C239.623 88.4531 234.393 85.3547 229.169 82.2496C220.591 77.1555 212.008 72.068 203.43 66.9739C195.197 62.0899 186.963 57.1993 178.723 52.3153C174.536 49.8339 170.368 47.3131 166.162 44.8645C165.463 44.4575 164.686 44.103 163.891 43.9061C162.822 43.6304 161.721 43.6304 160.754 44.1358L165.73 41.1752H165.749C166.162 40.9127 166.646 40.742 167.225 40.6632C169.28 40.3744 171.068 41.5954 172.767 42.6063C180.237 47.0374 187.714 51.4684 195.184 55.8995C206.071 62.3525 216.958 68.812 227.845 75.2649C235.15 79.5975 242.461 83.9301 249.772 88.2627C254.639 91.1512 258.432 96.0811 258.896 102.048C259.113 104.799 258.922 107.622 258.909 110.379Z" fill="#3D84BB" stroke="#19374E" stroke-linecap="round" stroke-linejoin="round"/>
<path d="M237.001 121.86C236.994 123.731 236.511 125.858 234.926 126.98C233.342 128.103 231.357 127.735 229.747 126.948C226.406 125.313 223.906 121.899 222.455 118.473C221.163 115.427 220.062 110.7 222.461 107.91C225.318 104.589 230.008 107.864 232.209 110.313C234.964 113.379 236.982 117.619 237.001 121.86Z" fill="#3D84BB" stroke="#19374E" stroke-linecap="round" stroke-linejoin="round"/>
<path d="M213.769 108.022C213.769 109.893 213.292 112.013 211.708 113.142C210.123 114.272 208.157 113.904 206.547 113.116C203.213 111.482 200.725 108.081 199.274 104.661C197.983 101.615 196.882 96.8952 199.274 94.1053C202.119 90.7836 206.789 94.0528 208.984 96.4948C211.733 99.5539 213.744 103.795 213.769 108.022Z" fill="#3D84BB" stroke="#19374E" stroke-linecap="round" stroke-linejoin="round"/>
<path d="M190.621 94.2302C190.621 96.0945 190.15 98.2214 188.572 99.3505C186.994 100.48 185.034 100.119 183.431 99.3308C180.103 97.7028 177.622 94.3024 176.177 90.8954C174.885 87.856 173.778 83.1427 176.158 80.3527C178.983 77.0311 183.647 80.2936 185.83 82.7225C188.579 85.7816 190.583 90.0092 190.615 94.2367L190.621 94.2302Z" fill="#3D84BB" stroke="#19374E" stroke-linecap="round" stroke-linejoin="round"/>
<path d="M107.471 59.2274C107.401 61.8204 107.197 64.4133 106.854 66.9866C103.933 89.3324 92.4162 111.205 76.7442 126.777C65.7044 137.753 45.362 150.251 30.8227 141.37C28.4493 139.919 26.2413 137.91 24.2433 135.232C24.0715 135.002 23.9061 134.772 23.7407 134.536C11.7274 117.442 18.7648 90.9801 26.6676 73.7678C35.5121 54.5009 50.5542 34.6562 70.5403 27.0414C75.1407 25.2886 80.1293 24.3893 84.9079 24.816C87.504 25.0457 90.0364 25.6628 92.4225 26.746C94.6687 27.77 96.7812 29.2011 98.6773 31.1114C105.817 38.3127 107.681 49.328 107.465 59.2208L107.471 59.2274Z" fill="#E7EBEE" stroke="#19374E" stroke-width="2" stroke-linecap="round" stroke-linejoin="round"/>
<path d="M107.471 59.2274C107.401 61.8204 107.197 64.4133 106.854 66.9866C103.933 89.3324 92.4162 111.205 76.7442 126.777C65.7044 137.753 45.362 150.251 30.8227 141.37C28.4493 139.919 26.2413 137.91 24.2433 135.232C24.0715 135.002 23.9061 134.772 23.7407 134.536C11.7274 117.442 18.7648 90.9801 26.6676 73.7678C35.5121 54.5009 50.5542 34.6562 70.5403 27.0414C75.1407 25.2886 80.1293 24.3893 84.9079 24.816C87.504 25.0457 90.0364 25.6628 92.4225 26.746C94.6687 27.77 96.7812 29.2011 98.6773 31.1114C105.817 38.3127 107.681 49.328 107.465 59.2208L107.471 59.2274Z" fill="white" stroke="#19374E" stroke-width="2" stroke-linecap="round" stroke-linejoin="round"/>
<path d="M41.9892 135.383C39.4122 135.383 37.2106 134.805 35.2763 133.624C33.7937 132.718 32.4129 131.418 31.1721 129.75C31.064 129.599 30.9494 129.448 30.8413 129.291L30.8158 129.258C26.7371 123.455 25.2546 115.381 26.4126 105.265C27.3798 96.7898 30.2749 86.9824 34.5636 77.641C39.1258 67.7023 52.0554 43.7089 73.5686 35.5097C76.6101 34.3478 79.7025 33.7373 82.5149 33.7373C83.0685 33.7373 83.6221 33.7636 84.1566 33.8095C85.8937 33.9605 87.4844 34.3675 88.897 35.0108C90.2587 35.6279 91.4994 36.4944 92.5748 37.5776C97.926 42.9736 98.8805 52.21 98.7341 59.0174C98.6769 61.2297 98.4987 63.5076 98.1933 65.792C95.6354 85.3478 85.3528 105.724 70.6798 120.304C63.127 127.814 51.3237 135.389 41.9892 135.389V135.383Z" fill="white" stroke="#19374E" stroke-width="2" stroke-linecap="round" stroke-linejoin="round"/>
<path d="M92.423 26.7527C90.0433 25.6695 87.5045 25.0459 84.9084 24.8227C80.1234 24.396 75.1412 25.2954 70.5408 27.0481C50.5547 34.663 35.5126 54.5076 26.6681 73.7746C18.7653 90.9868 11.7342 117.442 23.7412 134.543C23.9066 134.779 24.072 135.009 24.2438 135.238C26.2418 137.917 28.4498 139.932 30.8231 141.376L15.4629 131.969C15.0684 131.759 14.6739 131.536 14.2794 131.293C-4.44678 120.035 0.319077 90.3107 6.40207 73.0984C13.7322 52.3676 27.5717 31.919 46.4697 20.884C54.8497 15.9868 65.3422 12.698 74.7403 16.4332C76.1466 16.9912 77.4446 17.6805 78.6472 18.4879L92.423 26.7527Z" fill="#E7EBEE" stroke="#19374E" stroke-width="2" stroke-linecap="round" stroke-linejoin="round"/>
<path d="M43.5742 19.7485V25.3284C43.5742 28.2234 47.3793 30.5735 52.0752 30.5735C56.771 30.5735 60.3406 28.3678 60.5634 25.591H60.5761V19.7485H43.5806H43.5742Z" fill="#8B9BA6" stroke="#19374E" stroke-width="2" stroke-miterlimit="10"/>
<path d="M64.3113 8.54923C64.3113 8.67396 64.3113 8.80524 64.2986 8.92997C63.9804 12.9212 58.6292 16.0985 52.0817 16.0985C45.5342 16.0985 39.8457 12.7177 39.8457 8.54923C39.8457 4.38074 45.3242 1 52.0817 1C58.8391 1 64.3177 4.38074 64.3177 8.54923H64.3113Z" fill="#3D84BB" stroke="#19374E" stroke-width="2" stroke-linecap="round" stroke-linejoin="round"/>
<path d="M64.3118 8.9235V16.4727C64.3118 20.6412 58.8333 24.022 52.0758 24.022C45.3184 24.022 39.8398 20.6412 39.8398 16.4727V8.54932C39.8398 12.7178 45.3184 16.0986 52.0758 16.0986C58.8333 16.0986 63.9746 12.9213 64.2927 8.93005H64.3055L64.3118 8.9235Z" fill="#E7EBEE" stroke="#19374E" stroke-width="2" stroke-linecap="round" stroke-linejoin="round"/>
<path d="M62.3193 56.2275C62.0521 56.2604 61.8103 56.5229 61.7594 56.8774C61.0086 61.6695 57.248 85.6236 57.248 89.4048C57.248 93.698 59.6214 95.9431 62.7329 93.6061C65.4245 91.4857 67.5624 86.5689 67.537 82.361C67.537 78.4157 63.4138 59.024 62.9238 56.8118C62.8538 56.4507 62.5866 56.2932 62.3193 56.2275Z" fill="#19374E"/>
</svg>
