<svg width="218" height="273" viewBox="0 0 218 273" fill="none" xmlns="http://www.w3.org/2000/svg">
<path d="M217.499 263.474C217.499 270.591 212.492 273.469 206.318 269.898L147.121 235.722C140.946 232.157 135.939 223.498 135.939 216.381V128.8C135.939 121.682 140.946 118.804 147.121 122.369L206.311 156.545C212.492 160.11 217.499 168.769 217.499 175.887V263.468V263.474Z" fill="#3D84BB" stroke="#19374E" stroke-linecap="round" stroke-linejoin="round"/>
<path d="M142.652 149.895V225.414L210.789 264.753V189.228L142.652 149.895Z" fill="#E7EBEE" stroke="#19374E" stroke-linecap="round" stroke-linejoin="round"/>
<path d="M135.939 153.767V229.285L204.076 268.631V193.106L135.939 153.767Z" fill="#E7EBEE" stroke="#19374E" stroke-linecap="round" stroke-linejoin="round"/>
<path d="M129.229 157.643V233.162L197.365 272.501V196.976L129.229 157.643Z" fill="white" stroke="#19374E" stroke-linecap="round" stroke-linejoin="round"/>
<path d="M217.5 175.893V193.106L204.083 200.86L122.518 153.767V136.554C122.518 132.951 123.804 130.454 125.858 129.299L139.218 121.582L139.243 121.57C141.266 120.427 144.044 120.602 147.115 122.375L148.208 123.006L154.039 126.377L182.688 142.922L188.519 146.287L206.3 156.557C212.486 160.116 217.487 168.782 217.487 175.899H217.5V175.893Z" fill="#3D84BB" stroke="#19374E" stroke-linecap="round" stroke-linejoin="round"/>
<path d="M204.077 183.641C204.077 176.53 199.07 167.864 192.895 164.299L133.705 130.123C127.53 126.558 122.523 129.437 122.523 136.554V153.773L204.083 200.866V183.647H204.077V183.641Z" fill="#E7EBEE" stroke="#19374E" stroke-linecap="round" stroke-linejoin="round"/>
<path d="M200.487 137.777C196.984 135.755 192.577 136.085 188.057 138.695C186.159 139.794 184.348 141.23 182.7 142.909C177.231 148.478 173.448 156.713 173.448 163.962C173.448 170.03 176.17 174.513 180.734 175.968C181.058 176.068 181.383 176.117 181.714 176.117C183.081 176.117 184.348 175.237 184.792 173.864C185.335 172.165 184.392 170.349 182.688 169.805C180.178 169.013 179.903 165.454 179.903 163.962C179.903 157.943 183.637 150.557 188.531 146.275C189.418 145.507 190.342 144.832 191.285 144.283C193.688 142.903 195.861 142.566 197.253 143.371C198.639 144.17 199.432 146.2 199.432 148.953C199.432 150.033 199.313 151.182 199.076 152.368L204.801 155.677C204.951 155.421 205.063 155.134 205.144 154.834C205.644 152.811 205.893 150.832 205.893 148.965C205.893 143.771 203.97 139.8 200.493 137.784H200.487V137.777ZM165.988 117.868C162.491 115.845 158.078 116.169 153.564 118.785C151.666 119.884 149.856 121.32 148.214 122.999C142.738 128.575 138.955 136.803 138.955 144.046C138.955 150.12 141.677 154.603 146.241 156.058C146.565 156.164 146.89 156.208 147.215 156.208C148.582 156.208 149.855 155.327 150.292 153.954C150.836 152.256 149.893 150.439 148.195 149.902C145.679 149.103 145.41 145.544 145.41 144.046C145.41 138.033 149.15 130.641 154.045 126.371C154.931 125.597 155.849 124.922 156.792 124.373C159.189 122.987 161.361 122.65 162.76 123.461C164.146 124.261 164.939 126.29 164.932 129.049C164.932 130.123 164.82 131.266 164.577 132.452L170.308 135.767C170.458 135.511 170.57 135.224 170.651 134.924C171.151 132.901 171.4 130.922 171.394 129.055C171.394 123.861 169.477 119.89 165.994 117.874H165.988V117.868Z" fill="#19374E"/>
<path d="M177.125 240.08C175.739 240.08 174.272 239.661 172.842 238.837C168.534 236.352 165.294 230.733 165.294 225.776V209.825C165.294 206.847 166.511 204.437 168.64 203.207C170.775 201.977 173.485 202.127 176.07 203.625C180.371 206.11 183.617 211.723 183.617 216.68V232.631C183.617 235.609 182.4 238.026 180.271 239.256C179.316 239.805 178.248 240.08 177.125 240.08ZM171.899 208.844C171.837 208.988 171.756 209.294 171.756 209.825V225.776C171.756 228.373 173.816 231.932 176.076 233.243C176.544 233.512 176.856 233.593 177.018 233.612C177.081 233.462 177.162 233.162 177.162 232.631V216.68C177.162 214.083 175.102 210.524 172.842 209.219C172.367 208.944 172.055 208.869 171.899 208.851V208.844ZM156.235 227.899C154.712 227.899 153.095 227.437 151.509 226.525C146.721 223.76 142.969 217.273 142.969 211.754C142.969 209.968 144.417 208.526 146.196 208.526C147.976 208.526 149.424 209.974 149.424 211.754C149.424 215.007 151.903 219.296 154.737 220.931C155.767 221.531 156.323 221.462 156.404 221.418C156.51 221.356 156.81 220.844 156.81 219.751C156.81 216.492 154.331 212.203 151.503 210.574C149.961 209.681 149.43 207.708 150.323 206.16C151.216 204.618 153.189 204.087 154.737 204.98H154.743C155.205 205.248 155.517 205.323 155.673 205.348C155.736 205.198 155.817 204.892 155.817 204.362C155.817 201.765 153.757 198.206 151.497 196.901C151.022 196.633 150.716 196.551 150.554 196.533C150.492 196.682 150.41 196.982 150.41 197.513C150.41 199.298 148.962 200.741 147.183 200.741C145.404 200.741 143.955 199.292 143.955 197.513C143.955 194.535 145.173 192.125 147.301 190.895C149.43 189.665 152.14 189.815 154.737 191.307C159.045 193.798 162.285 199.411 162.285 204.362C162.285 206.772 161.492 208.807 160.069 210.149C162.035 213.071 163.277 216.574 163.277 219.751C163.277 222.929 161.954 225.676 159.638 227.012C158.608 227.606 157.453 227.899 156.235 227.899Z" fill="#19374E"/>
<path d="M82.2319 237.433C82.207 231.402 78.2052 225.371 70.2328 220.77C54.2568 211.549 28.3792 211.53 12.4406 220.733C4.462 225.34 0.485243 231.39 0.503972 237.433V247.978V248.01C0.528944 254.034 4.52449 260.072 12.5031 264.673C28.4791 273.894 54.3567 273.919 70.2953 264.717C78.2802 260.109 82.2507 254.059 82.2319 248.016V237.44V237.433Z" fill="#3D84BB" stroke="#19374E" stroke-linecap="round" stroke-linejoin="round"/>
<path d="M70.2945 254.134C54.3559 263.337 28.4846 263.318 12.5024 254.09C-3.47365 244.869 -3.50493 229.929 12.4336 220.726C28.3722 211.523 54.2497 211.536 70.2258 220.764C86.2018 229.985 86.233 244.931 70.2882 254.134H70.2945Z" fill="white" stroke="#19374E" stroke-linecap="round" stroke-linejoin="round"/>
<path d="M52.7453 199.255H52.764C47.9256 197.295 45.4472 196.414 45.4472 193.03C45.4472 189.646 47.9256 188.772 52.764 186.812H52.7453C63.5895 182.329 71.2311 171.666 71.2311 159.21C71.2311 155.396 70.4881 151.756 69.1833 148.403C69.0959 148.178 69.0271 147.947 68.9335 147.729C68.896 147.629 68.8524 147.535 68.8087 147.442C68.6401 147.048 68.4342 146.674 68.2531 146.287C66.9233 143.902 64.6321 141.642 61.342 139.75C50.2855 133.369 32.3804 133.351 21.3488 139.719C18.2086 141.529 15.9986 143.671 14.65 145.95C14.2193 146.805 13.8323 147.685 13.4952 148.584C12.2278 151.893 11.5098 155.471 11.5098 159.217C11.5098 171.672 19.1451 182.336 29.9893 186.818H29.9768C34.8152 188.779 37.2937 189.659 37.2937 193.043C37.2937 196.427 34.8152 197.301 29.9768 199.261H29.9893C19.1513 203.738 11.5098 214.401 11.5098 226.863C11.5098 230.671 12.2527 234.311 13.5575 237.67C13.6449 237.895 13.7137 238.126 13.8073 238.344C13.8448 238.438 13.8885 238.538 13.9322 238.631C14.1007 239.025 14.3067 239.399 14.4877 239.78C15.8237 242.171 18.1087 244.425 21.3988 246.323C32.4553 252.704 50.3605 252.716 61.392 246.348C64.5322 244.538 66.7423 242.396 68.0908 240.124C68.5216 239.268 68.9023 238.388 69.2457 237.483C70.5068 234.18 71.2311 230.603 71.2311 226.857C71.2311 214.395 63.5957 203.731 52.7515 199.255H52.7453Z" fill="#E7EBEE" stroke="#19374E" stroke-linecap="round" stroke-linejoin="round"/>
<path d="M53.589 239.887C42.6574 242.715 29.3535 241.529 20.3635 236.34C14.0143 232.682 11.1299 227.781 11.6917 222.999M59.8071 237.708C60.7186 237.296 61.5926 236.846 62.4292 236.365C63.3656 235.822 64.2273 235.254 65.0139 234.667" stroke="#19374E" stroke-linecap="round" stroke-linejoin="round"/>
<path d="M82.2319 138.052C82.207 132.028 78.2052 125.99 70.2328 121.389C54.2568 112.168 28.3792 112.149 12.4406 121.345C4.462 125.959 0.485243 132.003 0.503972 138.046V148.597V148.622C0.528944 154.653 4.52449 160.684 12.5031 165.286C28.4791 174.507 54.3567 174.532 70.2953 165.329C78.2802 160.722 82.2507 154.672 82.2319 148.622V138.046V138.052Z" fill="#3D84BB" stroke="#19374E" stroke-linecap="round" stroke-linejoin="round"/>
<path d="M12.4387 121.345C28.3773 112.142 54.2486 112.161 70.2308 121.389C86.2068 130.61 86.2381 145.557 70.2996 154.759C54.361 163.956 28.4834 163.943 12.5074 154.715C-3.46858 145.494 -3.49985 130.548 12.4449 121.345H12.4387Z" fill="white" stroke="#19374E" stroke-linecap="round" stroke-linejoin="round"/>
<path d="M133.324 8.00453L133.268 7.9858C133.155 7.9421 133.043 7.8984 132.931 7.8547C132.824 7.81724 132.706 7.77353 132.594 7.73607C130.04 6.86826 127.374 6.59355 124.652 6.8745C110.73 8.27924 95.4846 23.9624 87.8993 46.1885C81.1755 65.8861 82.3555 85.1967 89.7847 96.0413C90.3903 96.9341 91.0458 97.7644 91.745 98.5386C93.6866 100.705 95.9529 102.384 98.5188 103.471L99.2429 103.758C99.4115 103.827 99.5863 103.889 99.7549 103.952C100.36 104.158 100.972 104.332 101.59 104.47C108.121 105.943 115.281 103.721 122.03 98.7072C122.411 98.4262 122.786 98.139 123.16 97.8393C125.208 96.2036 127.218 94.3181 129.147 92.2079C135.353 85.4027 140.784 76.2063 144.443 65.4991C144.699 64.7436 144.948 63.9882 145.179 63.2327C153.064 37.8912 147.926 13.7109 133.305 8.01703L133.324 8.00453ZM136.67 63.189C129.222 85.0094 113.958 99.55 102.564 95.6604C91.1769 91.7771 87.9805 70.9307 95.4285 49.1104C102.876 27.2901 118.141 12.7494 129.534 16.639C140.922 20.5224 144.118 41.3625 136.67 63.189Z" fill="white" stroke="#19374E" stroke-linecap="round" stroke-linejoin="round"/>
<path d="M136.67 63.1887C129.222 85.009 113.958 99.5497 102.565 95.6601C91.1772 91.7768 87.9808 70.9304 95.4288 49.1101C102.877 27.2898 118.141 12.7491 129.535 16.6387C140.922 20.522 144.118 41.3622 136.67 63.1887Z" fill="white" stroke="#19374E" stroke-linecap="round" stroke-linejoin="round"/>
<path d="M132.931 7.85457C132.825 7.81711 132.706 7.77341 132.594 7.73595C130.041 6.86813 127.375 6.59342 124.653 6.87437C110.731 8.27911 95.4852 23.9623 87.8998 46.1884C81.176 65.886 82.356 85.1965 89.7852 96.0411C90.3908 96.9339 91.0463 97.7643 91.7455 98.5384C93.6871 100.705 95.9534 102.384 98.5193 103.471L88.2057 99.3314L84.9656 98.0327H84.9594L80.9637 96.4282C67.5723 89.0861 63.4457 64.8184 71.9425 39.9264C81.0074 13.3549 101.017 -3.85784 116.637 1.46769L118.104 2.04206H118.11L132.925 7.86082H132.931V7.85457Z" fill="#E7EBEE" stroke="#19374E" stroke-linecap="round" stroke-linejoin="round"/>
<path d="M102.477 60.5975L116.636 74.8198L125.47 35.2997C125.589 34.769 125.127 34.7003 124.946 35.2248L115.076 64.381L102.839 59.7797C102.552 59.6735 102.24 60.3603 102.471 60.5975H102.477Z" fill="#3D84BB"/>
</svg>
