<svg id="ekOGL3aF6Nc1" xmlns="http://www.w3.org/2000/svg" xmlns:xlink="http://www.w3.org/1999/xlink" viewBox="0 0 218 301" shape-rendering="geometricPrecision" text-rendering="geometricPrecision" project-id="d0eff11a922044de80f8d017f8065b93" export-id="7153fb982ca445b0ade809a5e68828ad" cached="false">
<style><![CDATA[
#ekOGL3aF6Nc48 {animation-name: ekOGL3aF6Nc48_c_o, ekOGL3aF6Nc48_s_do;animation-duration: 4000ms;animation-fill-mode: forwards;animation-timing-function: linear;animation-direction: normal;animation-iteration-count: infinite;}@keyframes ekOGL3aF6Nc48_c_o { 0% {opacity: 1} 87.5% {opacity: 1} 92.5% {opacity: 0} 100% {opacity: 0}}@keyframes ekOGL3aF6Nc48_s_do { 0% {stroke-dashoffset: 98.19} 75% {stroke-dashoffset: 0} 100% {stroke-dashoffset: 0}} #ekOGL3aF6Nc49_to {animation: ekOGL3aF6Nc49_to__to 4000ms linear infinite normal forwards}@keyframes ekOGL3aF6Nc49_to__to { 0% {offset-distance: 0%} 8.25% {offset-distance: 11.058814%} 20.75% {offset-distance: 27.768401%} 28.5% {offset-distance: 38.154375%} 40% {offset-distance: 53.456415%} 45.25% {offset-distance: 60.271197%} 47.75% {offset-distance: 63.618818%} 52.5% {offset-distance: 70.132494%} 56.5% {offset-distance: 75.273171%} 58% {offset-distance: 77.258198%} 60.25% {offset-distance: 80.425988%} 63.25% {offset-distance: 84.387009%} 64.5% {offset-distance: 86.138639%} 66.75% {offset-distance: 88.860312%} 70.25% {offset-distance: 93.810703%} 72% {offset-distance: 96.022069%} 75% {offset-distance: 100%} 100% {offset-distance: 100%}} #ekOGL3aF6Nc49 {animation: ekOGL3aF6Nc49_c_o 4000ms linear infinite normal forwards}@keyframes ekOGL3aF6Nc49_c_o { 0% {opacity: 1} 75% {opacity: 1} 82.5% {opacity: 0} 100% {opacity: 0}}
]]></style>
<path d="M109.723,4.02561c0,0-3.968-2.71762-4.206-2.8271l-.028-.01932h-.006c-.65-.276911-1.4-.251147-2.084.20608L62.358,28.8449c-1.5727,1.0497-2.5396,2.9945-2.5396,5.1004v86.1207c0,1.056.439,1.938,1.0781,2.492h.0055c.1779.154.3724.277.5724.38l4.2347,2.788.0112-4.224L105.016,95.2078c1.284-.8629,2.079-2.4536,2.079-4.173v-85.11587l2.628-1.89332Z" fill="#3d84bb" stroke="#19374e" stroke-width="2" stroke-linecap="round" stroke-linejoin="round"/><path d="M50.905,43.4885c0,0-3.9679-2.7176-4.2068-2.8271l-.0279-.0193h-.0055c-.6502-.2769-1.4005-.2512-2.084.2061L3.53968,68.3078C1.96695,69.3575,1,71.3023,1,73.4082v86.1208c0,1.056.439,1.938,1.0781,2.492h.00556c.17783.154.37236.277.57242.38l4.23471,2.788.01112-4.224L46.198,134.671c1.2837-.863,2.0784-2.454,2.0784-4.173v-85.1162l2.6286-1.8933Z" fill="#3d84bb" stroke="#19374e" stroke-width="2" stroke-linecap="round" stroke-linejoin="round"/><g style="mix-blend-mode:multiply" opacity="0.2"><path d="M15.6992,248.199l78.9256,52.8L210.829,222.813l-79.287-50.824-115.8428,76.21Z" fill="#15374f"/></g><path d="M66.227,31.4905L107.268,4.03089c1.645-1.10121,3.701.27692,3.701,2.47936v87.17655c0,1.7195-.794,3.3101-2.084,4.1731L67.7107,125.416c-1.7894,1.198-4.0291-.296-4.0291-2.698v-86.1207c0-2.1058.9671-4.0506,2.5398-5.1003h.0056v-.0065Z" fill="#fff" stroke="#19374e" stroke-linecap="round" stroke-linejoin="round"/><path d="M71.7852,45.8901L83.35,38.1494" fill="none" stroke="#19374e" stroke-linecap="round" stroke-linejoin="round"/><path d="M71.7852,71.103L83.35,63.3623" fill="none" stroke="#19374e" stroke-linecap="round" stroke-linejoin="round"/><path d="M71.7852,76.9565L83.35,69.2158" fill="none" stroke="#19374e" stroke-linecap="round" stroke-linejoin="round"/><path d="M71.7852,53.4383L104.185,31.7617" fill="none" stroke="#19374e" stroke-linecap="round" stroke-linejoin="round"/><path d="M71.7852,59.8325L104.185,38.1494" fill="none" stroke="#19374e" stroke-linecap="round" stroke-linejoin="round"/><path d="M71.7852,65.3329L104.185,43.6562" fill="none" stroke="#19374e" stroke-linecap="round" stroke-linejoin="round"/><path d="M91.9922,72.5327L103.557,64.792" fill="none" stroke="#19374e" stroke-linecap="round" stroke-linejoin="round"/><path d="M71.7852,92.7856L104.185,71.1025" fill="none" stroke="#19374e" stroke-linecap="round" stroke-linejoin="round"/><path d="M71.7852,99.1801l32.3998-21.683" fill="none" stroke="#19374e" stroke-linecap="round" stroke-linejoin="round"/><path d="M71.7852,104.68L104.185,82.9971" fill="none" stroke="#19374e" stroke-linecap="round" stroke-linejoin="round"/><path d="M7.40853,70.9544L48.4497,43.4948c1.645-1.1013,3.7011.2769,3.7011,2.4793v87.1769c0,1.719-.7947,3.31-2.084,4.173L8.89237,164.88c-1.78947,1.198-4.02909-.296-4.02909-2.698v-86.1208c0-2.1058.96695-4.0507,2.53968-5.1004h.00557v-.0064Z" fill="#fff" stroke="#19374e" stroke-linecap="round" stroke-linejoin="round"/><path d="M12.9668,85.355l11.5649-7.7407" fill="none" stroke="#19374e" stroke-linecap="round" stroke-linejoin="round"/><path d="M12.9668,110.566l11.5649-7.741" fill="none" stroke="#19374e" stroke-linecap="round" stroke-linejoin="round"/><path d="M12.9668,116.419l11.5649-7.74" fill="none" stroke="#19374e" stroke-linecap="round" stroke-linejoin="round"/><path d="M12.9668,92.9022L45.3662,71.2256" fill="none" stroke="#19374e" stroke-linecap="round" stroke-linejoin="round"/><path d="M12.9668,99.2973l32.3994-21.683" fill="none" stroke="#19374e" stroke-linecap="round" stroke-linejoin="round"/><path d="M12.9668,104.796L45.3662,83.1191" fill="none" stroke="#19374e" stroke-linecap="round" stroke-linejoin="round"/><path d="M33.1719,111.996l11.5648-7.741" fill="none" stroke="#19374e" stroke-linecap="round" stroke-linejoin="round"/><path d="M12.9668,132.249l32.3994-21.683" fill="none" stroke="#19374e" stroke-linecap="round" stroke-linejoin="round"/><path d="M12.9668,138.639l32.3994-21.677" fill="none" stroke="#19374e" stroke-linecap="round" stroke-linejoin="round"/><path d="M12.9668,144.144l32.3994-21.683" fill="none" stroke="#19374e" stroke-linecap="round" stroke-linejoin="round"/><path d="M213.819,151.653L97.9644,229.169L19.0332,176.356L134.887,98.8457l78.932,52.8073Z" fill="#fff" stroke="#19374e" stroke-linecap="round" stroke-linejoin="round"/><path d="M97.6151,229.846v46.825L18.6895,223.87v-46.824l78.9256,52.8Z" fill="#e7ebee" stroke="#19374e" stroke-linecap="round" stroke-linejoin="round"/><path d="M213.82,151.652v46.825L97.6152,276.676v-46.824l116.2048-78.2Z" fill="#3d84bb" stroke="#19374e" stroke-linecap="round" stroke-linejoin="round"/><path d="M107.99,235.597L21.5898,186.808c30.5933-17.632,55.5126-43.359,86.3282-77.046c4.262-4.656,8.347-9.338,12.265-14.0393c5.757,4.0764,11.72,8.1013,17.9,12.0553c28.065,17.967,47.782,24.169,73.174,33.925-39.73,29.405-63.543,64.483-103.272,93.887h.005v.007Z" transform="translate(0 0.143002)" fill="#fff" stroke="#19374e" stroke-linecap="round" stroke-linejoin="round"/><path d="M195.058,145.496c.1-.09.144-.244.122-.386-.028-.148-.117-.264-.239-.303-41.775-14.193-74.391-38.085-74.719-38.323-.133-.097-.305-.078-.417.051l-7.257,8.102-14.2328,15.88c0,0-.0223.026-.0334.033l-7.0912,7.914c0,0-.0166.019-.0277.026l-7.1079,7.927c-.0778.091-.1167.213-.1.342.0167.122.0833.238.1778.296.1389.084,6.0186,3.613,15.7996,8.958.0167.013.0333.019.0556.032c11.431,6.253,28.165,14.973,47.26,23.589h.011c3.106,1.398,6.274,2.795,9.492,4.18.039.019.078.025.117.025.088,0,.172-.038.238-.115c6.647-7.509,15.022-16.029,22.219-23.113c8.669-8.539,15.616-14.999,15.744-15.115h-.011Zm-23.647,21.973c-3.062-1.204-6.069-2.434-9.019-3.683c2.384-2.428,4.723-4.753,6.941-6.93c2.978,1.224,6.018,2.428,9.108,3.594-2.262,2.234-4.629,4.598-7.024,7.026h-.006v-.007Zm-7.447,7.702c-3.017-1.243-5.991-2.505-8.903-3.773c2.246-2.383,4.513-4.74,6.747-7.013c2.945,1.249,5.957,2.485,9.014,3.69-2.301,2.337-4.607,4.727-6.852,7.096h-.006Zm-63.287-19.628l6.174-7.29c11.287,6.311,27.859,15.043,46.938,23.422-2.212,2.363-4.396,4.752-6.486,7.122-18.778-8.475-35.256-17.053-46.62-23.261l-.006.007Zm-15.8051-8.939l6.58-7.341c1.1225.695,6.4298,3.967,14.7491,8.636l-6.18,7.296c-8.2191-4.502-13.6486-7.689-15.1547-8.584h.0056v-.007Zm13.6989-15.282c1.1059.722,6.2462,4.012,14.3322,8.656l-6.202,7.322c-8.0135-4.489-13.2708-7.709-14.7379-8.617l6.6021-7.361h.0056Zm7.1582-7.985c1.089.734,6.068,4.044,13.921,8.681l-6.241,7.367c-7.808-4.482-12.904-7.721-14.3269-8.636l6.6409-7.412h.006Zm7.069-7.889c1.078.747,5.913,4.057,13.548,8.655l-6.207,7.329c-7.603-4.482-12.543-7.741-13.91-8.655l6.563-7.323h.006v-.006Zm71.373,26.255c-1.039.953-3.685,3.394-7.275,6.807-20.39-8.153-37.895-17.729-49.41-24.613l6.357-7.502c11.56,7.142,29.427,17.156,50.328,25.315v-.007Zm-7.892,7.393c-2.106,2.01-4.512,4.328-7.091,6.859-19.89-8.211-36.995-17.465-48.399-24.156l6.202-7.322c11.465,6.865,28.921,16.434,49.294,24.613h-.006v.006Zm-7.691,7.451c-2.212,2.177-4.546,4.508-6.924,6.93-19.451-8.276-36.262-17.234-47.61-23.725l6.235-7.361c11.354,6.672,28.426,15.92,48.299,24.156Zm-61.237-8.887l6.197-7.315c11.304,6.472,28.081,15.429,47.532,23.724-2.229,2.28-4.496,4.63-6.73,7.013-19.078-8.359-35.667-17.091-46.993-23.422h-.006Zm62.582,8.61c2.595-2.543,5.007-4.862,7.108-6.865c3.001,1.198,6.057,2.357,9.169,3.478-2.139,2.061-4.568,4.418-7.163,6.968-3.095-1.159-6.135-2.357-9.114-3.581Zm16.9-3.992c-3.112-1.114-6.174-2.274-9.175-3.465c3.934-3.735,6.663-6.24,7.291-6.807c3.001,1.159,6.068,2.286,9.186,3.349-1.067.998-3.729,3.497-7.297,6.923h-.005Zm-66.744-44.964c1.061.767,5.741,4.096,13.121,8.688l-6.363,7.509c-7.397-4.45-12.204-7.709-13.544-8.636l6.78-7.567h.006v.006Zm36.695,75.675c-2.973-1.281-5.907-2.569-8.78-3.87c2.1-2.37,4.284-4.759,6.502-7.129c2.912,1.275,5.879,2.537,8.897,3.78-2.312,2.447-4.546,4.882-6.613,7.213h-.006v.006Z" fill="#19374e"/><path d="M119.822,113.819l6.653,4.244c.05.032.105.051.161.051.122,0,.239-.071.3-.206.094-.193.033-.431-.133-.534l-6.653-4.244c-.166-.11-.372-.039-.461.154-.094.193-.033.432.133.535Z" fill="#19374e"/><path d="M99.1536,149.367l-7.1412-3.973c-.1667-.09-.3724-.007-.4557.186-.0778.194-.0055.432.1612.529l7.1412,3.966c.0444.026.0944.039.1445.039.1278,0,.25-.084.3056-.225.0778-.193.0056-.432-.1611-.528h.0055v.006Z" fill="#19374e"/><path d="M98.9535,137.884l6.8915,4.038c.05.032.105.045.155.045.128,0,.245-.077.306-.219.083-.193.017-.431-.15-.528l-6.8913-4.038c-.1667-.103-.3723-.019-.4612.174-.0834.193-.0167.431.15.528Z" transform="translate(.000001 0)" fill="#19374e"/><path d="M105.645,129.706l6.891,4.251c.055.025.105.045.161.045.122,0,.239-.078.3-.206.089-.194.028-.432-.139-.535l-6.891-4.25c-.167-.103-.372-.026-.461.161-.089.193-.028.431.139.534Z" fill="#19374e"/><path d="M112.674,121.958l6.608,4.186c.055.032.111.051.161.051.122,0,.239-.077.3-.206.089-.193.028-.431-.139-.534l-6.608-4.186c-.166-.103-.372-.032-.461.161s-.028.431.133.534h.006v-.006Z" fill="#19374e"/><path d="M135.676,123.64c.139.084,13.999,8.204,22.291,12.158.044.02.089.033.127.033.134,0,.262-.091.312-.245.072-.2-.011-.432-.184-.515-8.269-3.948-22.107-12.056-22.246-12.133-.167-.103-.372-.019-.461.174s-.017.431.15.534h.011v-.006Z" fill="#19374e"/><path d="M128.858,131.593c4.496,2.582,9.092,5.1,13.671,7.476c5.574,2.898,11.281,5.674,16.972,8.25.044.019.083.032.128.032.139,0,.267-.097.322-.258.067-.206-.017-.431-.194-.508-5.68-2.576-11.376-5.345-16.939-8.237-4.574-2.376-9.164-4.888-13.649-7.464-.167-.096-.378-.019-.461.181-.084.193-.017.437.155.534h-.005v-.006Z" fill="#19374e"/><path d="M122.528,139.758c.095.052,9.276,5.23,15.45,8.314.044.02.089.033.133.033.134,0,.256-.091.311-.239.073-.199-.011-.431-.177-.521-6.158-3.079-15.328-8.243-15.417-8.295-.166-.097-.372-.013-.455.18-.084.194-.011.432.155.528Z" fill="#19374e"/><path d="M141.306,159.921c-14.36-6.91-24.635-12.706-24.735-12.764-.167-.096-.373-.012-.456.181-.084.193-.011.431.155.528.106.058,10.393,5.86,24.775,12.783.045.019.089.032.134.032h-.006c.133,0,.261-.09.311-.238.078-.206-.005-.438-.183-.522h.005Z" fill="#19374e"/><path d="M124.856,162.497c-6.358-3.162-14.866-7.799-14.955-7.844-.172-.09-.372-.006-.456.194-.078.199-.005.437.167.528.089.045,8.614,4.688,14.977,7.856.045.026.089.032.133.032.134,0,.256-.09.312-.238.077-.199-.006-.431-.178-.521v-.007Z" fill="#19374e"/><path d="M76.6474,154.956l27.1196,13.82c.045.02.089.033.139.033.128,0,.256-.091.311-.239.078-.199,0-.438-.177-.521L76.9197,154.235c-.1778-.09-.3779,0-.4501.206-.0778.2,0,.438.1778.522v-.007Z" fill="#19374e"/><path d="M133.498,194.394l-63.9258-33.3c-.1723-.091-.3724,0-.4502.199-.0778.2,0,.432.1723.522L132.82,194.909c.223-.173.451-.347.678-.515Z" fill="#19374e"/><path d="M127.597,198.858L63.7206,165.68c-.1723-.091-.3724,0-.4502.199-.0778.2.0001.432.1723.522l63.4043,32.94c.25-.168.494-.322.75-.477v-.006Z" fill="#19374e"/><path d="M71.7116,198.246L42.4021,181.522c-.1722-.097-.3724-.019-.4557.18-.0889.2-.0167.432.1556.528l29.3095,16.725c.05.032.1001.045.1501.045.1278,0,.2445-.078.3057-.219.0833-.2.0166-.438-.1557-.535Z" fill="#19374e"/><path d="M76.9355,194.285L47.6259,177.561c-.1723-.103-.3779-.019-.4612.18-.0834.2-.0167.438.1556.535L76.6298,195c.05.026.1.039.15.039.1279,0,.2445-.078.3057-.219.0889-.2.0167-.438-.1556-.528h.0056v-.007Z" fill="#19374e"/><path id="ekOGL3aF6Nc48" d="M79.9531,205.226c0,0,.8614,5.628,8.6362,4.63s13.8767-3.664,15.3827-5.19c1.506-1.527,1.845-5.661-5.8408-3.819-7.6914,1.842-10.4811,8.81-7.4746,10.007c3.0065,1.198,5.1128,1.095,6.5299.644c1.4171-.45,2.3174-1.59.0834-1.146-2.2341.451-5.8853,2.093-2.5786,3.136s4.3403.644,4.9405.451.0444-1.346-.9003-.696c-.9448.651-1.3338,2.093.2556,2.093c1.5889,0,3.3959-.251,3.8239-.547.427-.296.427-1.198-.645-.644-1.073.547-1.762,1.79-.989,1.938.772.149,4.857,0,4.857,0c1.506-.096,1.117,1.391,1.117,1.391.172,1.392,3.479.947,3.479.947" fill="none" stroke="#19374e" stroke-linecap="round" stroke-linejoin="round" stroke-dashoffset="98.19" stroke-dasharray="98.19"/><g id="ekOGL3aF6Nc49_to" style="offset-path:path('M79.9531,205.226C79.9531,205.226,80.8145,210.854,88.5893,209.856C96.364,208.858,102.466,206.192,103.972,204.666C105.478,203.139,105.817,199.005,98.1312,200.847C90.4398,202.689,87.6501,209.657,90.6566,210.854C93.6631,212.052,95.7694,211.949,97.1865,211.498C98.6036,211.048,99.5039,209.908,97.2699,210.352C95.0358,210.803,91.3846,212.445,94.6913,213.488C97.9979,214.531,99.0316,214.132,99.6318,213.939C100.232,213.746,99.6762,212.593,98.7315,213.243C97.7867,213.894,97.3977,215.336,98.9871,215.336C100.576,215.336,102.383,215.085,102.811,214.789C103.238,214.493,103.238,213.591,102.166,214.145C101.093,214.692,100.404,215.935,101.177,216.083C101.949,216.232,106.034,216.083,106.034,216.083C107.54,215.987,107.151,217.474,107.151,217.474C107.323,218.866,110.63,218.421,110.63,218.421');offset-rotate:0deg"><g id="ekOGL3aF6Nc49" transform="translate(-110.670152,-218.48117)"><g><path d="M114.904,217.294l-1.439-3.078-2.535,2.82c-.189.213-.283.516-.255.818l.011.142c.016.193.117.374.261.47.211.148.472.18.706.084l3.251-1.262v.006Z" fill="#3272b9"/><path d="M128.769,213.739c-.183.071-.367.129-.555.187l-12.766,3.6c0,0-2.467-.548-1.911-4.045l9.419-11.469c.078-.097.162-.193.245-.283-.6,2.93.005,6.24,1.873,8.867c1.028,1.449,2.311,2.505,3.69,3.143h.005Z" fill="none" stroke="#19374e" stroke-linecap="round" stroke-linejoin="round"/><path d="M135.638,209.218c.034.013.067.02.1.033l-2.112,1.423c-1.667-.567-3.234-1.732-4.457-3.445-1.783-2.518-2.417-5.674-1.939-8.508l1.995-1.352c-.45,2.808.189,5.912,1.956,8.398c1.217,1.713,2.79,2.878,4.457,3.445v.006Z" fill="none" stroke="#19374e" stroke-linecap="round" stroke-linejoin="round"/><path d="M140.379,205.824c.1.032.194.064.294.09l-1.144.773-1.09.734c-1.634-.573-3.179-1.726-4.379-3.413-1.784-2.518-2.417-5.674-1.939-8.507.005-.039.011-.071.022-.11l.394-.264l1.401-.946c-.389,2.749.261,5.77,1.984,8.198c1.217,1.713,2.79,2.878,4.457,3.445Z" fill="none" stroke="#19374e" stroke-linecap="round" stroke-linejoin="round"/><path d="M141.896,200.356c1.1,1.114,2.356,1.881,3.651,2.286l-.022.02-1.984,1.339-.189.129c-.067-.019-.139-.045-.205-.071-1.668-.567-3.235-1.732-4.457-3.445-1.74-2.46-2.39-5.526-1.968-8.301l.517-.354l1.723-1.166c-.089.502-.145,1.011-.156,1.526v.206c-.028,2.821,1.039,5.725,3.096,7.831h-.006Z" fill="none" stroke="#19374e" stroke-linecap="round" stroke-linejoin="round"/><path d="M133.627,210.673l-3.451,2.325c-.444.303-.922.547-1.411.734-1.379-.637-2.662-1.687-3.69-3.143-1.868-2.627-2.473-5.944-1.873-8.867.417-.464.878-.87,1.378-1.205l2.651-1.796c-.478,2.833.155,5.989,1.939,8.507c1.217,1.713,2.79,2.878,4.457,3.445Z" fill="#3d84bb" stroke="#19374e" stroke-linecap="round" stroke-linejoin="round"/><path d="M138.444,207.428l-2.701,1.823c-.033-.013-.066-.02-.1-.033-1.667-.566-3.234-1.732-4.457-3.445-1.761-2.486-2.4-5.596-1.956-8.398l2.918-1.977c-.011.039-.017.071-.022.11-.478,2.833.155,5.989,1.939,8.507c1.2,1.687,2.74,2.84,4.379,3.413Z" fill="#3d84bb" stroke="#19374e" stroke-linecap="round" stroke-linejoin="round"/><path d="M143.345,204.124l-2.667,1.797c-.1-.032-.195-.058-.295-.09-1.667-.567-3.234-1.733-4.457-3.446-1.717-2.427-2.367-5.448-1.984-8.197l2.774-1.875c-.423,2.783.227,5.841,1.967,8.301c1.217,1.713,2.79,2.879,4.457,3.446.067.026.139.045.205.071v-.007Z" fill="#3d84bb" stroke="#19374e" stroke-linecap="round" stroke-linejoin="round"/></g><g transform="translate(.000001 0)"><path d="M191.261,171.815l-35.795,24.137-2.468,1.662-2.778,1.874-1.779,1.204-2.895,1.951c-1.295-.406-2.551-1.165-3.651-2.286-2.062-2.106-3.123-5.004-3.096-7.831v-.206c.017-.515.067-1.03.156-1.526l.378-.251l2.695-1.823l2.223-1.507l2.662-1.803l1.99-1.352l33.049-22.372c.056,2.711,1.112,5.473,3.096,7.496c1.445,1.461,3.156,2.318,4.874,2.569.072.013.144.019.216.032.373.045.75.058,1.117.039h.006v-.007Z" fill="#3d84bb" stroke="#19374e" stroke-linecap="round" stroke-linejoin="round"/><path d="M209.279,143.177l-27.803,16.615c-4.407,5.332.227,12.397.227,12.397c4.152,4.611,7.18,4.102,7.18,4.102l26.037-20.704-5.641-12.416v.006Z" fill="#3d84bb" stroke="#19374e" stroke-linecap="round" stroke-linejoin="round"/><path d="M177.874,170.617l23.352-16.872c.862-.625,1.995-.309,2.523.695l.867,1.643c.556,1.056.212,2.44-.744,2.994l-24.675,14.258c-.328.193-.728.052-.911-.322l-.645-1.314c-.183-.373-.078-.85.233-1.082Z" fill="#e7ebee" stroke="#19374e" stroke-linecap="round" stroke-linejoin="round"/><path d="M214.893,155.591c1.716-1.047,1.844-4.677.285-8.107-1.558-3.43-4.213-5.362-5.93-4.315-1.716,1.047-1.844,4.677-.285,8.107c1.559,3.431,4.214,5.362,5.93,4.315Z" fill="#e7ebee" stroke="#19374e" stroke-linecap="round" stroke-linejoin="round"/></g></g></g></svg>
