<svg id="epNcGVfaH6g1" xmlns="http://www.w3.org/2000/svg" xmlns:xlink="http://www.w3.org/1999/xlink" viewBox="0 0 260 301" shape-rendering="geometricPrecision" text-rendering="geometricPrecision" project-id="3a013a462f45438cb706e136966e794c" export-id="624a091456da437f8097c5249dae4e17" cached="false">
<style><![CDATA[
#epNcGVfaH6g6_to {animation: epNcGVfaH6g6_to__to 3000ms linear infinite normal forwards}@keyframes epNcGVfaH6g6_to__to { 0% {transform: translate(124.542698px,190.443504px)} 16.666667% {transform: translate(124.542698px,187.443504px)} 50% {transform: translate(124.542698px,190.443504px)} 100% {transform: translate(124.542698px,190.443504px)}} #epNcGVfaH6g7_to {animation: epNcGVfaH6g7_to__to 3000ms linear infinite normal forwards}@keyframes epNcGVfaH6g7_to__to { 0% {transform: translate(90.307346px,191.479996px)} 50% {transform: translate(90.307346px,191.479996px)} 76.333333% {transform: translate(90.307346px,188.479996px)} 100% {transform: translate(90.307346px,191.479996px)}} #epNcGVfaH6g9_to {animation: epNcGVfaH6g9_to__to 3000ms linear infinite normal forwards}@keyframes epNcGVfaH6g9_to__to { 0% {transform: translate(98.67205px,210.176003px)} 33.333333% {transform: translate(98.67205px,210.176003px)} 57.333333% {transform: translate(98.67205px,207.176003px)} 83.333333% {transform: translate(98.67205px,210.176003px)} 100% {transform: translate(98.67205px,210.176003px)}} #epNcGVfaH6g10_to {animation: epNcGVfaH6g10_to__to 3000ms linear infinite normal forwards}@keyframes epNcGVfaH6g10_to__to { 0% {transform: translate(134.144497px,211.663498px)} 16.666667% {transform: translate(134.144497px,211.663498px)} 40.333333% {transform: translate(134.144497px,208.663498px)} 66.666667% {transform: translate(134.144497px,211.663498px)} 100% {transform: translate(134.144497px,211.663498px)}} #epNcGVfaH6g14_to {animation: epNcGVfaH6g14_to__to 3000ms linear infinite normal forwards}@keyframes epNcGVfaH6g14_to__to { 0% {transform: translate(208.642044px,102.420544px)} 33.333333% {transform: translate(203.642044px,102.420544px)} 66.666667% {transform: translate(208.64px,102.420544px)} 100% {transform: translate(208.64px,102.420544px)}} #epNcGVfaH6g14_tr {animation: epNcGVfaH6g14_tr__tr 3000ms linear infinite normal forwards}@keyframes epNcGVfaH6g14_tr__tr { 0% {transform: rotate(0deg)} 33.333333% {transform: rotate(-5deg)} 66.666667% {transform: rotate(0deg)} 100% {transform: rotate(0deg)}} #epNcGVfaH6g20_to {animation: epNcGVfaH6g20_to__to 3000ms linear infinite normal forwards}@keyframes epNcGVfaH6g20_to__to { 0% {transform: translate(52.081701px,144.381654px)} 33.333333% {transform: translate(55.081701px,144.381654px)} 66.666667% {transform: translate(52.08px,144.381654px)} 100% {transform: translate(52.08px,144.381654px)}} #epNcGVfaH6g20_tr {animation: epNcGVfaH6g20_tr__tr 3000ms linear infinite normal forwards}@keyframes epNcGVfaH6g20_tr__tr { 0% {transform: rotate(0deg)} 33.333333% {transform: rotate(-3deg)} 66.666667% {transform: rotate(0deg)} 100% {transform: rotate(0deg)}}
]]></style>
<path d="M254.437,253.486L176.255,301L39.6484,215.26L117.83,167.746l136.607,85.74Z" fill="#15374f" fill-opacity="0.2"/><path d="M118.912,147.357l133.336,82.037c2.921,1.753,2.908,6.105-.019,7.851L179.99,280.276c-1.361.814-3.035.814-4.396,0L41.4812,198.705c-2.9333-1.747-2.9333-6.112,0-7.858l73.0148-43.503c1.368-.814,3.055-.808,4.416.006v.007Z" transform="translate(0-.02)" fill="#fff" stroke="#19374e" stroke-linecap="round" stroke-linejoin="round"/><g transform="translate(0 0.000001)"><path d="M138.007,194.392c0,2.698-1.508,5.186-4.041,7.155-3.442,2.685-8.781,4.405-14.781,4.405-.617,0-1.222-.013-1.826-.053-6.891-.407-12.688-3.092-15.373-6.814h-.007c-1.037-1.437-1.616-3.026-1.616-4.693c0-2.981,1.833-5.692,4.836-7.746c3.449-2.351,8.437-3.828,13.986-3.828c10.391,0,18.822,5.18,18.822,11.574Z" fill="none" stroke="#19374e" stroke-linecap="round" stroke-linejoin="round"/><g id="epNcGVfaH6g6_to" transform="translate(124.542698,190.443504)"><path d="M162.937,194.641c0,7.169-4.575,13.694-12.026,18.513L133.96,201.797c2.532-1.97,4.04-4.457,4.04-7.156c0-6.393-8.431-11.573-18.821-11.573-5.549,0-10.537,1.477-13.986,3.827c0,0-.007,0-.007.007l-19.0376-9.906c8.0237-5.678,19.8466-9.263,33.0306-9.263c24.16,0,43.751,12.04,43.751,26.895l.007.013Z" transform="translate(-124.542698,-190.443504)" fill="#3d84bb" stroke="#19374e" stroke-linecap="round" stroke-linejoin="round"/></g><g id="epNcGVfaH6g7_to" transform="translate(90.307346,191.479996)"><path d="M100.364,194.641c0,1.667.579,3.256,1.616,4.694l-22.4927,6.623c-2.6088-3.44-4.0596-7.273-4.0596-11.317c0-6.748,4.0405-12.919,10.7216-17.639l19.0377,9.906c-2.997,2.048-4.829,4.759-4.829,7.733h.006Z" transform="translate(-90.307346,-191.479996)" fill="#e7ebee" stroke="#19374e" stroke-linecap="round" stroke-linejoin="round"/></g><path d="M138.007,194.392c0,2.698-1.508,5.186-4.041,7.155-3.442,2.685-8.781,4.405-14.781,4.405-7.674,0-14.272-2.816-17.199-6.867h-.007c-1.037-1.437-1.616-3.026-1.616-4.693c0-2.981,1.833-5.692,4.836-7.746c3.449-2.351,8.437-3.828,13.986-3.828c10.391,0,18.822,5.18,18.822,11.574Z" fill="none" stroke="#19374e" stroke-linecap="round" stroke-linejoin="round"/><g id="epNcGVfaH6g9_to" transform="translate(98.67205,210.176003)"><path d="M117.85,221.267c-17.014-.309-31.592-6.598-38.3559-15.558l22.4929-6.624h.007c2.685,3.722,8.481,6.407,15.373,6.814l.483,15.368Z" transform="translate(-98.67205,-210.176003)" fill="#15374f" stroke="#19374e" stroke-miterlimit="10"/></g><g id="epNcGVfaH6g10_to" transform="translate(134.144497,211.663498)"><path d="M150.917,213.154c-7.966,5.159-19.235,8.376-31.732,8.376-.445,0-.891-.007-1.336-.013l-.484-15.368c.598.04,1.209.053,1.826.053c5.994,0,11.339-1.727,14.782-4.405l16.951,11.357h-.007Z" transform="translate(-134.144497,-211.663498)" fill="#3d84bb" stroke="#19374e" stroke-linecap="round" stroke-linejoin="round"/></g></g><path d="M186.188,214.099l-36.53,21.755c-1.47.879-3.289.879-4.759,0l-2.017-1.202c-1.413-.84-1.413-2.947,0-3.787l35.639-21.217c1.73-1.031,3.862-1.031,5.593,0l2.068,1.234c1.202.716,1.202,2.508,0,3.223l.006-.006Z" fill="#3d84bb" stroke="#19374e" stroke-linecap="round" stroke-linejoin="round"/><path d="M201.975,223.598l-36.53,21.755c-1.469.879-3.289.879-4.759,0l-2.017-1.202c-1.413-.84-1.413-2.947,0-3.787l35.639-21.217c1.731-1.031,3.862-1.031,5.593,0l2.068,1.234c1.202.716,1.202,2.508,0,3.223l.006-.006Z" fill="#15374f" stroke="#19374e" stroke-width="2" stroke-miterlimit="10"/><path d="M219.594,234.016l-36.529,21.755c-1.47.879-3.29.879-4.76,0l-2.017-1.202c-1.413-.84-1.413-2.947,0-3.787l35.639-21.217c1.731-1.031,3.862-1.031,5.593,0l2.068,1.234c1.203.716,1.203,2.508,0,3.223l.006-.006Z" fill="none" stroke="#19374e" stroke-width="2" stroke-linecap="round" stroke-linejoin="round"/><g id="epNcGVfaH6g14_to" transform="translate(208.642044,102.420544)"><g id="epNcGVfaH6g14_tr" transform="rotate(0)"><g transform="translate(-208.642044,-102.420544)"><path d="M253.711,106.144c-.02,7.609-.039,15.217-.064,22.825-.025,9.493-.051,18.978-.076,28.464c0,1.136-.045,2.376-.344,3.492-.28,1.031-.789,1.957-1.699,2.587l-.019.013c-.121.085-.255.164-.388.236-2.221,1.175-4.512-.138-6.446-1.293-7.852-4.7-15.704-9.4-23.562-14.101-7.235-4.332-14.476-8.658-21.71-12.991-.134-.079-.261-.157-.395-.236l-17.256,7.227-.026-17.566c-3.213-1.924-6.42-3.841-9.633-5.764-2.609-1.562-5.619-2.947-7.897-5.035-3.709-3.4-5.745-8.317-5.758-13.385-.026-8.2649-.051-16.5296-.076-24.7944-.026-8.3895-.051-16.7856-.077-25.1751c0-1.9825,0-4.1488,1.413-5.6849.324-.3545.674-.617,1.05-.814.967-.5054,2.068-.5054,3.137-.2297.795.2035,1.571.5514,2.271.9584c4.206,2.4486,8.374,4.9694,12.561,7.4508c8.233,4.884,16.467,9.7746,24.707,14.6586c8.577,5.0941,17.161,10.1816,25.738,15.2757c5.231,3.105,10.455,6.2035,15.685,9.3085c3.888,2.3042,6.745,5.8162,8.145,10.2601.439,1.399.706,2.849.712,4.32l.007-.007Z" fill="#fff" stroke="#19374e" stroke-linecap="round" stroke-linejoin="round"/><path d="M258.909,110.379c-.019,6.026-.038,12.052-.051,18.078-.025,8.981-.051,17.961-.083,26.935-.012,2.035-.642,4.346-2.551,5.278l-4.696,2.836c.916-.631,1.419-1.556,1.699-2.587.299-1.116.337-2.356.344-3.492.025-9.492.05-18.978.076-28.464.019-7.608.038-15.217.063-22.825c0-1.47-.273-2.921-.712-4.319-1.394-4.4447-4.257-7.9501-8.145-10.2608-5.23-3.1051-10.46-6.2035-15.684-9.3086-8.578-5.0941-17.161-10.1816-25.739-15.2757-8.233-4.884-16.467-9.7746-24.707-14.6586-4.187-2.4814-8.355-5.0022-12.561-7.4508-.699-.407-1.476-.7615-2.271-.9584-1.069-.2757-2.17-.2757-3.137.2297l4.976-2.9606h.019c.413-.2625.897-.4332,1.476-.512c2.055-.2888,3.843.9322,5.542,1.9431c7.47,4.4311,14.947,8.8621,22.417,13.2932c10.887,6.453,21.774,12.9125,32.661,19.3654c7.305,4.3326,14.616,8.6652,21.927,12.9978c4.867,2.8885,8.66,7.8184,9.124,13.7853.217,2.751.026,5.574.013,8.331Z" fill="#3d84bb" stroke="#19374e" stroke-linecap="round" stroke-linejoin="round"/><path d="M237.001,121.86c-.007,1.871-.49,3.998-2.075,5.121-1.584,1.122-3.569.755-5.179-.033-3.341-1.635-5.841-5.048-7.292-8.475-1.292-3.046-2.393-7.772.006-10.562c2.857-3.322,7.547-.046,9.748,2.402c2.755,3.066,4.773,7.307,4.792,11.547Z" fill="#3d84bb" stroke="#19374e" stroke-linecap="round" stroke-linejoin="round"/><path d="M213.769,108.022c0,1.871-.477,3.991-2.061,5.12-1.585,1.129-3.551.762-5.161-.026-3.334-1.635-5.822-5.035-7.273-8.455-1.291-3.046-2.392-7.7663,0-10.5562c2.845-3.3217,7.515-.0525,9.71,2.3895c2.749,3.0591,4.76,7.2997,4.785,11.5277Z" fill="#3d84bb" stroke="#19374e" stroke-linecap="round" stroke-linejoin="round"/><path d="M190.621,94.2302c0,1.8643-.471,3.9912-2.049,5.1203-1.578,1.1295-3.538.7685-5.141-.0197-3.328-1.628-5.809-5.0284-7.254-8.4354-1.292-3.0394-2.399-7.7527-.019-10.5427c2.825-3.3216,7.489-.0591,9.672,2.3698c2.749,3.0591,4.753,7.2867,4.785,11.5142l.006-.0065Z" fill="#3d84bb" stroke="#19374e" stroke-linecap="round" stroke-linejoin="round"/></g></g></g><g id="epNcGVfaH6g20_to" transform="translate(52.081701,144.381654)"><g id="epNcGVfaH6g20_tr" transform="rotate(0)"><g transform="translate(-52.0817,-144.381646)"><path d="M107.471,59.2283c-.07,2.593-.274,5.186-.617,7.7593-2.921,22.3458-14.4378,44.2184-30.1098,59.7904-11.0398,10.976-31.3822,23.474-45.9215,14.593-2.3734-1.451-4.5814-3.46-6.5794-6.138-.1718-.23-.3372-.46-.5026-.696-12.0133-17.094-4.9759-43.5559,2.9269-60.7682c8.8445-19.2669,23.8866-39.1116,43.8727-46.7265c4.6004-1.7527,9.589-2.652,14.3676-2.2254c2.5961.2298,5.1285.8469,7.5146,1.93c2.2462,1.0241,4.3587,2.4552,6.2548,4.3655c7.1397,7.2013,9.0037,18.2166,8.7877,28.1094l.006.0065Z" fill="#e7ebee" stroke="#19374e" stroke-width="2" stroke-linecap="round" stroke-linejoin="round"/><path d="M107.471,59.2283c-.07,2.593-.274,5.186-.617,7.7593-2.921,22.3458-14.4378,44.2184-30.1098,59.7904-11.0398,10.976-31.3822,23.474-45.9215,14.593-2.3734-1.451-4.5814-3.46-6.5794-6.138-.1718-.23-.3372-.46-.5026-.696-12.0133-17.094-4.9759-43.5559,2.9269-60.7682c8.8445-19.2669,23.8866-39.1116,43.8727-46.7265c4.6004-1.7527,9.589-2.652,14.3676-2.2254c2.5961.2298,5.1285.8469,7.5146,1.93c2.2462,1.0241,4.3587,2.4552,6.2548,4.3655c7.1397,7.2013,9.0037,18.2166,8.7877,28.1094l.006.0065Z" fill="#fff" stroke="#19374e" stroke-width="2" stroke-linecap="round" stroke-linejoin="round"/><path d="M41.9892,135.384c-2.577,0-4.7786-.578-6.7129-1.759-1.4826-.906-2.8634-2.206-4.1042-3.874-.1081-.151-.2227-.302-.3308-.459l-.0255-.033c-4.0787-5.803-5.5612-13.877-4.4032-23.993.9672-8.4752,3.8623-18.2826,8.151-27.624c4.5622-9.9387,17.4918-33.9322,39.005-42.1313c3.0415-1.1619,6.1339-1.7724,8.9463-1.7724.5536,0,1.1072.0262,1.6417.0722c1.7371.151,3.3278.558,4.7404,1.2013c1.3617.6171,2.6024,1.4836,3.6778,2.5667c5.3512,5.3961,6.3057,14.6324,6.1593,21.4399-.0572,2.2122-.2354,4.4901-.5408,6.7746-2.5579,19.5558-12.8405,39.932-27.5135,54.512-7.5528,7.51-19.3561,15.085-28.6906,15.085v-.006Z" fill="#fff" stroke="#19374e" stroke-width="2" stroke-linecap="round" stroke-linejoin="round"/><path d="M92.423,26.7532c-2.3797-1.0832-4.9185-1.7068-7.5146-1.93-4.785-.4267-9.7672.4726-14.3676,2.2254-19.9861,7.6149-35.0282,27.4595-43.8727,46.7265-7.9028,17.2122-14.9339,43.6669-2.9269,60.7679.1654.236.3308.466.5026.696c1.998,2.678,4.206,4.694,6.5793,6.138L15.4629,131.97c-.3945-.21-.789-.433-1.1835-.676C-4.44678,120.035,0.319077,90.3112,6.40207,73.0989C13.7322,52.368,27.5717,31.9195,46.4697,20.8845c8.38-4.8972,18.8725-8.186,28.2706-4.4508c1.4063.558,2.7043,1.2473,3.9069,2.0547L92.423,26.7532Z" fill="#e7ebee" stroke="#19374e" stroke-width="2" stroke-linecap="round" stroke-linejoin="round"/><path d="M43.5742,19.748v5.5799c0,2.895,3.8051,5.2451,8.501,5.2451c4.6958,0,8.2654-2.2057,8.4882-4.9825h.0127v-5.8425h-16.9955-.0064Z" fill="#8b9ba6" stroke="#19374e" stroke-width="2" stroke-miterlimit="10"/><path d="M64.3113,8.54923c0,.12473,0,.25601-.0127.38074-.3182,3.99123-5.6694,7.16853-12.2169,7.16853s-12.236-3.3808-12.236-7.54927s5.4785-7.54923,12.236-7.54923s12.236,3.38074,12.236,7.54923h-.0064Z" fill="#3d84bb" stroke="#19374e" stroke-width="2" stroke-linecap="round" stroke-linejoin="round"/><path d="M64.3118,8.92301v7.54919c0,4.1685-5.4785,7.5493-12.236,7.5493s-12.236-3.3808-12.236-7.5493v-7.92337c0,4.16847,5.4786,7.54927,12.236,7.54927s11.8988-3.1773,12.2169-7.16854h.0128l.0063-.00655Z" fill="#e7ebee" stroke="#19374e" stroke-width="2" stroke-linecap="round" stroke-linejoin="round"/><path d="M62.3193,56.2275c-.2672.0329-.509.2954-.5599.6499-.7508,4.7921-4.5114,28.7462-4.5114,32.5274c0,4.2932,2.3734,6.5383,5.4849,4.2013c2.6916-2.1204,4.8295-7.0372,4.8041-11.2451c0-3.9453-4.1232-23.337-4.6132-25.5492-.07-.3611-.3372-.5186-.6045-.5843Z" fill="#19374e"/></g></g></g></svg>
