<svg id="e96NRAZkyae1" xmlns="http://www.w3.org/2000/svg" xmlns:xlink="http://www.w3.org/1999/xlink" viewBox="0 0 218 273" shape-rendering="geometricPrecision" text-rendering="geometricPrecision" project-id="e2b51d56471445f3adec7f6dd195c21b" export-id="8e556117e59645b3a254c2146a6a8278" cached="false">
<style><![CDATA[
#e96NRAZkyae9 {animation: e96NRAZkyae9_c_o 3000ms linear infinite normal forwards}@keyframes e96NRAZkyae9_c_o { 0% {opacity: 0} 63.333333% {opacity: 1} 76.666667% {opacity: 1} 100% {opacity: 0}} #e96NRAZkyae13_to {animation: e96NRAZkyae13_to__to 3000ms linear infinite normal forwards}@keyframes e96NRAZkyae13_to__to { 0% {transform: translate(38.318461px,232.190414px)} 66.666667% {transform: translate(38.318461px,214.190414px)} 100% {transform: translate(38.318461px,214.190414px)}} #e96NRAZkyae13_ts {animation: e96NRAZkyae13_ts__ts 3000ms linear infinite normal forwards}@keyframes e96NRAZkyae13_ts__ts { 0% {transform: scale(1,1)} 16.666667% {transform: scale(0.96,1)} 33.333333% {transform: scale(0.88,1)} 50% {transform: scale(0.78,1)} 66.666667% {transform: scale(0.64,1)} 100% {transform: scale(0.64,1)}} #e96NRAZkyae13 {animation: e96NRAZkyae13_c_o 3000ms linear infinite normal forwards}@keyframes e96NRAZkyae13_c_o { 0% {opacity: 1} 66.666667% {opacity: 1} 100% {opacity: 0}} #e96NRAZkyae19 {animation: e96NRAZkyae19_c_o 3000ms linear infinite normal forwards}@keyframes e96NRAZkyae19_c_o { 0% {opacity: 0} 33.333333% {opacity: 1} 66.666667% {opacity: 1} 100% {opacity: 0}}
]]></style>
<path d="M217.499,263.474c0,7.118-5.007,9.996-11.181,6.425l-59.197-34.176c-6.175-3.565-11.182-12.225-11.182-19.342v-87.581c0-7.117,5.007-9.995,11.182-6.43l59.19,34.175c6.181,3.565,11.188,12.225,11.188,19.342v87.581.006Z" fill="#3d84bb" stroke="#19374e" stroke-linecap="round" stroke-linejoin="round"/><path d="M142.652,149.896v75.518l68.137,39.339v-75.525l-68.137-39.332Z" fill="#e7ebee" stroke="#19374e" stroke-linecap="round" stroke-linejoin="round"/><path d="M135.939,153.767v75.518l68.137,39.346v-75.525l-68.137-39.339Z" fill="#e7ebee" stroke="#19374e" stroke-linecap="round" stroke-linejoin="round"/><path d="M129.229,157.644v75.518l68.136,39.339v-75.525l-68.136-39.332Z" fill="#fff" stroke="#19374e" stroke-linecap="round" stroke-linejoin="round"/><path d="M217.5,175.892v17.213l-13.417,7.754-81.565-47.093v-17.213c0-3.602,1.286-6.099,3.34-7.254l13.36-7.717.025-.013c2.023-1.142,4.801-.967,7.872.806l1.093.63l5.831,3.372l28.649,16.544l5.831,3.366l17.781,10.27c6.186,3.558,11.187,12.224,11.187,19.342h.013v-.007Z" fill="#3d84bb" stroke="#19374e" stroke-linecap="round" stroke-linejoin="round"/><path d="M204.077,183.641c0-7.111-5.007-15.777-11.182-19.342l-59.19-34.176c-6.175-3.565-11.182-.686-11.182,6.431v17.219l81.56,47.093v-17.219h-.006v-.006Z" fill="#e7ebee" stroke="#19374e" stroke-linecap="round" stroke-linejoin="round"/><path d="M200.487,137.777c-3.503-2.022-7.91-1.692-12.43.918-1.898,1.099-3.709,2.535-5.357,4.214-5.469,5.569-9.252,13.804-9.252,21.053c0,6.068,2.722,10.551,7.286,12.006.324.1.649.149.98.149c1.367,0,2.634-.88,3.078-2.253.543-1.699-.4-3.515-2.104-4.059-2.51-.792-2.785-4.351-2.785-5.843c0-6.019,3.734-13.405,8.628-17.687.887-.768,1.811-1.443,2.754-1.992c2.403-1.38,4.576-1.717,5.968-.912c1.386.799,2.179,2.829,2.179,5.582c0,1.08-.119,2.229-.356,3.415l5.725,3.309c.15-.256.262-.543.343-.843.5-2.023.749-4.002.749-5.869c0-5.194-1.923-9.165-5.4-11.181h-.006v-.007Zm-34.499-19.909c-3.497-2.023-7.91-1.699-12.424.917-1.898,1.099-3.708,2.535-5.35,4.214-5.476,5.576-9.259,13.804-9.259,21.047c0,6.074,2.722,10.557,7.286,12.012.324.106.649.15.974.15c1.367,0,2.64-.881,3.077-2.254.544-1.698-.399-3.515-2.097-4.052-2.516-.799-2.785-4.358-2.785-5.856c0-6.013,3.74-13.405,8.635-17.675.886-.774,1.804-1.449,2.747-1.998c2.397-1.386,4.569-1.723,5.968-.912c1.386.8,2.179,2.829,2.172,5.588c0,1.074-.112,2.217-.355,3.403l5.731,3.315c.15-.256.262-.543.343-.843.5-2.023.749-4.002.743-5.869c0-5.194-1.917-9.165-5.4-11.181h-.006v-.006Z" fill="#19374e"/><path id="e96NRAZkyae9" d="M177.125,240.08c-1.386,0-2.853-.419-4.283-1.243-4.308-2.485-7.548-8.104-7.548-13.061v-15.951c0-2.978,1.217-5.388,3.346-6.618c2.135-1.23,4.845-1.08,7.43.418c4.301,2.485,7.547,8.098,7.547,13.055v15.951c0,2.978-1.217,5.395-3.346,6.625-.955.549-2.023.824-3.146.824Zm-5.226-31.236c-.062.144-.143.45-.143.981v15.951c0,2.597,2.06,6.156,4.32,7.467.468.269.78.35.942.369.063-.15.144-.45.144-.981v-15.951c0-2.597-2.06-6.156-4.32-7.461-.475-.275-.787-.35-.943-.368v-.007Zm-15.664,19.055c-1.523,0-3.14-.462-4.726-1.374-4.788-2.765-8.54-9.252-8.54-14.771c0-1.786,1.448-3.228,3.227-3.228c1.78,0,3.228,1.448,3.228,3.228c0,3.253,2.479,7.542,5.313,9.177c1.03.6,1.586.531,1.667.487.106-.062.406-.574.406-1.667c0-3.259-2.479-7.548-5.307-9.177-1.542-.893-2.073-2.866-1.18-4.414.893-1.542,2.866-2.073,4.414-1.18h.006c.462.268.774.343.93.368.063-.15.144-.456.144-.986c0-2.597-2.06-6.156-4.32-7.461-.475-.268-.781-.35-.943-.368-.062.149-.144.449-.144.98c0,1.785-1.448,3.228-3.227,3.228s-3.228-1.449-3.228-3.228c0-2.978,1.218-5.388,3.346-6.618c2.129-1.23,4.839-1.08,7.436.412c4.308,2.491,7.548,8.104,7.548,13.055c0,2.41-.793,4.445-2.216,5.787c1.966,2.922,3.208,6.425,3.208,9.602c0,3.178-1.323,5.925-3.639,7.261-1.03.594-2.185.887-3.403.887Z" opacity="0" fill="#19374e"/><path d="M82.2319,237.434c-.0249-6.031-4.0267-12.062-11.9991-16.663-15.976-9.222-41.8536-9.241-57.7922-.038C4.462,225.341,0.485243,231.39,0.503972,237.434v10.545.031c.024972,6.025,4.020518,12.062,11.999128,16.663c15.976,9.222,41.8536,9.247,57.7922.044c7.9849-4.608,11.9554-10.657,11.9366-16.701v-10.576-.006Z" fill="#3d84bb" stroke="#19374e" stroke-linecap="round" stroke-linejoin="round"/><path d="M70.2945,254.134c-15.9386,9.203-41.8099,9.184-57.7921-.043-15.97605-9.222-16.00733-24.162-.0688-33.364c15.9386-9.203,41.8161-9.191,57.7922.037c15.976,9.221,16.0072,24.168.0624,33.37h.0063Z" fill="#fff" stroke="#19374e" stroke-linecap="round" stroke-linejoin="round"/><path d="M52.7453,199.255h.0187c-4.8384-1.96-7.3168-2.84-7.3168-6.224s2.4784-4.258,7.3168-6.219h-.0187c10.8442-4.482,18.4858-15.146,18.4858-27.601c0-3.815-.743-7.455-2.0478-10.807-.0874-.225-.1562-.456-.2498-.675-.0375-.099-.0811-.193-.1248-.287-.1686-.393-.3745-.768-.5556-1.155-1.3298-2.385-3.621-4.645-6.9111-6.536-11.0565-6.381-28.9616-6.4-39.9932-.032-3.1402,1.811-5.3502,3.952-6.6988,6.231-.4307.855-.8177,1.736-1.1548,2.635-1.2674,3.309-1.9854,6.886-1.9854,10.632c0,12.455,7.6353,23.119,18.4795,27.602h-.0125c4.8384,1.96,7.3169,2.84,7.3169,6.224s-2.4785,4.258-7.3169,6.219h.0125c-10.838,4.476-18.4795,15.14-18.4795,27.601c0,3.809.7429,7.448,2.0477,10.807.0874.225.1562.456.2498.675.0375.093.0812.193.1249.287.1685.393.3745.768.5555,1.149c1.336,2.391,3.621,4.645,6.9111,6.543c11.0565,6.38,28.9617,6.393,39.9932.025c3.1402-1.811,5.3503-3.952,6.6988-6.225.4308-.855.8115-1.736,1.1549-2.641c1.2611-3.303,1.9854-6.88,1.9854-10.626c0-12.462-7.6354-23.125-18.4796-27.602h-.0062Z" transform="translate(0 0.233008)" fill="#e7ebee" stroke="#19374e" stroke-linecap="round" stroke-linejoin="round"/><g id="e96NRAZkyae13_to" transform="translate(38.318461,232.190414)"><g id="e96NRAZkyae13_ts" transform="scale(1,1)"><path id="e96NRAZkyae13" d="M53.589,239.887c-10.9316,2.828-24.2355,1.642-33.2255-3.546-6.3492-3.659-9.2336-8.56-8.6718-13.342m48.1154,14.709c.9115-.412,1.7855-.861,2.6221-1.342.9364-.543,1.7981-1.111,2.5847-1.698" transform="translate(-38.318461,-232.190414)" fill="none" stroke="#19374e" stroke-linecap="round" stroke-linejoin="round"/></g></g><path d="M82.2319,138.053c-.0249-6.025-4.0267-12.062-11.9991-16.664-15.976-9.221-41.8536-9.24-57.7922-.043C4.462,125.96,0.485243,132.003,0.503972,138.047v10.551.025c.024972,6.031,4.020518,12.062,11.999128,16.663c15.976,9.221,41.8536,9.246,57.7922.044c7.9849-4.608,11.9554-10.658,11.9366-16.707v-10.576.006Z" fill="#3d84bb" stroke="#19374e" stroke-linecap="round" stroke-linejoin="round"/><path d="M12.4387,121.346c15.9386-9.203,41.8099-9.184,57.7921.043c15.976,9.222,16.0073,24.168.0688,33.371-15.9386,9.196-41.8162,9.184-57.7922-.044-15.97598-9.221-16.00725-24.168-.0625-33.37h-.0062Z" fill="#fff" stroke="#19374e" stroke-linecap="round" stroke-linejoin="round"/><path d="M133.324,8.00453l-.056-.01873c-.113-.0437-.225-.0874-.337-.1311-.107-.03746-.225-.08117-.337-.11863-2.554-.86781-5.22-1.14252-7.942-.86157-13.922,1.40474-29.1674,17.0879-36.7527,39.314-6.7238,19.6976-5.5438,39.0082,1.8854,49.8528.6056.8928,1.2611,1.7231,1.9603,2.4973c1.9416,2.1664,4.2079,3.8454,6.7738,4.9324l.7241.287c.1686.069.3434.131.512.194.6051.206,1.2171.38,1.8351.518c6.531,1.473,13.691-.749,20.44-5.7628.381-.281.756-.5682,1.13-.8679c2.048-1.6357,4.058-3.5212,5.987-5.6314c6.206-6.8052,11.637-16.0016,15.296-26.7088.256-.7555.505-1.5109.736-2.2664c7.885-25.3415,2.747-49.5218-11.874-55.21567l.019-.0125ZM136.67,63.189c-7.448,21.8204-22.712,36.361-34.106,32.4714-11.3871-3.8833-14.5835-24.7297-7.1355-46.55c7.4475-21.8203,22.7125-36.361,34.1055-32.4714c11.388,3.8834,14.584,24.7235,7.136,46.55Z" fill="#fff" stroke="#19374e" stroke-linecap="round" stroke-linejoin="round"/><path d="M136.67,63.1882c-7.448,21.8203-22.712,36.361-34.105,32.4714-11.3878-3.8833-14.5842-24.7297-7.1362-46.55c7.4482-21.8203,22.7122-36.361,34.1062-32.4714c11.387,3.8833,14.583,24.7235,7.135,46.55Z" fill="#fff" stroke="#19374e" stroke-linecap="round" stroke-linejoin="round"/><path d="M132.931,7.85457c-.106-.03746-.225-.08116-.337-.11862-2.553-.86782-5.219-1.14253-7.941-.86158C110.731,8.27911,95.4852,23.9623,87.8998,46.1884C81.176,65.886,82.356,85.1965,89.7852,96.0411c.6056.8928,1.2611,1.7232,1.9603,2.4973c1.9416,2.1666,4.2079,3.8456,6.7738,4.9326L88.2057,99.3314l-3.2401-1.2987h-.0062l-3.9957-1.6045c-13.3914-7.3421-17.518-31.6098-9.0212-56.5018C81.0074,13.3549,101.017,-3.85784,116.637,1.46769l1.467.57437h.006l14.815,5.81876h.006v-.00625Z" fill="#e7ebee" stroke="#19374e" stroke-linecap="round" stroke-linejoin="round"/><path id="e96NRAZkyae19" d="M102.477,60.5971l14.159,14.2222l8.834-39.5201c.119-.5307-.343-.5993-.524-.0749l-9.87,29.1562-12.237-4.6013c-.287-.1061-.599.5806-.368.8179h.006Z" opacity="0" fill="#3d84bb"/></svg>
