<svg id="eUJKFhpcmjO1" xmlns="http://www.w3.org/2000/svg" xmlns:xlink="http://www.w3.org/1999/xlink" viewBox="0 0 1550 1264" shape-rendering="geometricPrecision" text-rendering="geometricPrecision" project-id="180231a9af72476792c8faf6eedab93e" export-id="fc948fc47f6c4d85810d02ba8ffca76e" cached="false">
<style><![CDATA[
#eUJKFhpcmjO69_tr {animation: eUJKFhpcmjO69_tr__tr 2352.9411764705883ms linear infinite normal forwards}@keyframes eUJKFhpcmjO69_tr__tr { 0% {transform: translate(73.93px,1112.12px) rotate(0deg)} 50% {transform: translate(73.93px,1112.12px) rotate(10deg)} 100% {transform: translate(73.93px,1112.12px) rotate(0deg)}} #eUJKFhpcmjO82_tr {animation: eUJKFhpcmjO82_tr__tr 2352.9411764705883ms linear infinite normal forwards}@keyframes eUJKFhpcmjO82_tr__tr { 0% {transform: translate(668.744557px,1011.564516px) rotate(0deg)} 18% {transform: translate(668.744557px,1011.564516px) rotate(6deg)} 33.5% {transform: translate(668.744557px,1011.564516px) rotate(0deg)} 49% {transform: translate(668.744557px,1011.564516px) rotate(4deg)} 62.5% {transform: translate(668.744557px,1011.564516px) rotate(0deg)} 80% {transform: translate(668.744557px,1011.564516px) rotate(5deg)} 94% {transform: translate(668.744557px,1011.564516px) rotate(0deg)} 100% {transform: translate(668.744557px,1011.564516px) rotate(0deg)}} #eUJKFhpcmjO180_ts {animation: eUJKFhpcmjO180_ts__ts 2352.9411764705883ms linear infinite normal forwards}@keyframes eUJKFhpcmjO180_ts__ts { 0% {transform: translate(1094.832744px,1011.520003px) scale(0,0)} 13% {transform: translate(1094.832744px,1011.520003px) scale(1.15,1.15)} 16% {transform: translate(1094.832744px,1011.520003px) scale(1.15,1.15)} 40.5% {transform: translate(1094.832744px,1011.520003px) scale(0.75,0.75)} 56.5% {transform: translate(1094.832744px,1011.520003px) scale(1,1)} 73% {transform: translate(1094.832744px,1011.520003px) scale(0.8,0.8)} 89.5% {transform: translate(1094.832744px,1011.520003px) scale(1.15,1.15)} 100% {transform: translate(1094.832744px,1011.520003px) scale(0,0)}}
]]></style>
<g style="mix-blend-mode:multiply"><path d="M1104.31,1081.48L949.289,993.329c-8.95-5.09-9.01-13.41-.12-18.54l85.311-49.25c8.79-5.07,23.02-5.11,31.88-.07l155.02,88.151c8.95,5.09,9,13.41.12,18.54l-85.31,49.25c-8.79,5.07-23.02,5.11-31.88.07Z" fill="#ebf3f8"/></g><g style="mix-blend-mode:multiply"><path d="M656.98,1081.48L812,993.329c8.95-5.09,9.01-13.41.12-18.54l-85.31-49.25c-8.79-5.07-23.02-5.11-31.88-.07L539.91,1013.62c-8.95,5.09-9.01,13.41-.12,18.54l85.31,49.25c8.79,5.07,23.02,5.11,31.88.07Z" fill="#ebf3f8"/></g><g style="mix-blend-mode:multiply"><path d="M209.38,1004.55c38.367,0,69.47-17.958,69.47-40.11s-31.103-40.11-69.47-40.11-69.47,17.958-69.47,40.11s31.103,40.11,69.47,40.11Z" fill="#ebf3f8"/></g><g style="mix-blend-mode:multiply"><path d="M337.46,1065.67c38.367,0,69.47-17.96,69.47-40.11s-31.103-40.111-69.47-40.111-69.47,17.961-69.47,40.111s31.103,40.11,69.47,40.11Z" fill="#ebf3f8"/></g><path d="M378.14,837.711l-6.84-2.27c-1.83-13.79-4.41-31.94-3.05-48.16c1.63-19.2,6.7-36.09.5-45.81c6.99,8.48,9.78,29.11,11.55,47.92c1.81,19.22-2.16,48.33-2.16,48.33v-.01Z" fill="#3384bd"/><path d="M378.14,840.181c-.26,0-.53-.04-.78-.13l-6.84-2.27c-.9-.3-1.55-1.09-1.67-2.02l-.24-1.77c-1.85-13.87-4.15-31.12-2.82-46.92.44-5.2,1.12-10.16,1.78-14.96c1.69-12.32,3.15-22.96-.9-29.31-.7-1.1-.43-2.57.63-3.34s2.54-.58,3.37.43c7.44,9.03,10.29,29.97,12.1,49.26s-2.01,47.7-2.18,48.9c-.1.73-.52,1.38-1.14,1.77-.4.25-.85.37-1.31.37v-.01Zm-4.58-6.61l2.5.83c.93-7.86,3.21-29.63,1.78-44.79-.87-9.26-2.04-19.55-3.95-28.36-.33,3.64-.86,7.5-1.41,11.53-.65,4.73-1.32,9.63-1.75,14.7-1.28,15.26.98,32.22,2.8,45.85l.03.24Z" fill="#3384bd"/><path d="M368.761,743.93c-.83,0-1.56-.4-2.01-1.03-.1-.12-.18-.21-.26-.29-.92-1.01-.86-2.58.15-3.5s2.58-.86,3.5.15c.16.17.3.34.45.52.38.45.64,1.08.64,1.67c0,1.37-1.11,2.48-2.48,2.48h.01Z" fill="#3384bd"/><path d="M378.799,856.269c0,0-2.7,4.38-7.28,5.76-.65-3.06-1.49-5.62-2.23-7.59c2.3-1.58,3.64-2.6,3.64-2.6c0-3.94-.73-9.65-1.63-16.4l6.84,2.27c0,0,4.4,11.86.66,18.56Z" fill="#fff"/><path d="M371.53,864.51c-.44,0-.88-.12-1.26-.35-.6-.35-1.02-.94-1.16-1.62-.52-2.45-1.21-4.81-2.13-7.23-.4-1.07-.03-2.27.91-2.92c1.08-.74,1.94-1.36,2.54-1.8-.12-3.61-.74-8.51-1.58-14.84-.11-.85.22-1.69.88-2.24.66-.54,1.55-.71,2.36-.44l6.84,2.27c.71.24,1.28.79,1.54,1.49.2.53,4.74,13.02.5,20.63-.02.03-.04.06-.05.09-.13.21-3.26,5.2-8.67,6.83-.23.07-.47.11-.71.11l-.01.02Zm.74-9.12c.35,1.03.67,2.07.95,3.11c2-1.35,3.26-3.19,3.46-3.49c2.28-4.19.67-11.67-.48-15.33l-1.92-.64c.68,5.36,1.13,9.56,1.13,12.8c0,.77-.36,1.5-.97,1.97-.04.03-.81.62-2.17,1.58Z" fill="#3384bd"/><path d="M372.93,851.831c0,0-1.34,1.02-3.64,2.6-2,1.38-4.73,3.18-7.94,5.11-14.55,8.79-38.96,20.24-50.01,6.48-.9-1.13-1.71-2.43-2.43-3.91c0,0,1.98-15.16,2.78-29.7c6.28-7.57,11.64-16.55,12.98-26.16c3.42-24.5,4.67-46.55-5.68-53.25-1.56-1.01-4.6-.58-7.83,1.79.04-.1.11-.18.17-.28c2.43-3.64,9.21-8.14,17.16-11.95.12.96.3,1.78.58,2.37c1.83,3.96,18.85-1.85,20.8-5.5.4-.76.37-2.29.07-4.24c4.75-.87,8.85-.92,11.49.23c3.36,1.47,5.71,3.49,7.32,6.01c6.2,9.73,1.13,26.62-.5,45.82-1.36,16.22,1.21,34.37,3.05,48.16.9,6.75,1.63,12.46,1.63,16.4v.02Z" fill="#3384bd"/><path d="M326.09,874.832c-7.14,0-12.79-2.41-16.68-7.25-1.04-1.31-1.95-2.78-2.73-4.39-.21-.43-.29-.92-.22-1.4.02-.15,1.98-15.24,2.77-29.51.03-.53.23-1.04.57-1.45c7.15-8.6,11.33-16.99,12.43-24.91c3.03-21.71,4.85-44.73-4.57-50.83-.37-.24-2.31-.28-5.01,1.71-.9.66-2.13.64-3.01-.05s-1.18-1.89-.74-2.91c.08-.2.19-.39.31-.57.03-.05.04-.06.07-.11c3.65-5.47,13.91-10.78,18.15-12.81.72-.34,1.56-.32,2.25.06.7.38,1.17,1.07,1.27,1.86.09.73.2,1.16.28,1.41c2.64,1.08,14.69-2.81,16.41-5.34.04-.19.13-.92-.16-2.75-.21-1.33.68-2.58,2-2.82c5.62-1.03,9.97-.89,12.93.4c3.71,1.63,6.47,3.9,8.41,6.94.04.06.07.12.11.18c4.9,7.88,3.34,19.29,1.53,32.48-.65,4.73-1.32,9.63-1.75,14.7-1.28,15.26.98,32.22,2.8,45.85l.24,1.78c.96,7.27,1.65,12.73,1.65,16.73c0,.77-.36,1.5-.97,1.97-.06.04-1.41,1.07-3.74,2.68-2.61,1.8-5.32,3.55-8.07,5.2-14.47,8.74-26.88,13.15-36.54,13.15h.01Zm-14.62-13.15c.54,1.03,1.15,1.97,1.81,2.81c9.97,12.42,33.6.91,46.79-7.06c2.66-1.6,5.29-3.29,7.81-5.03c1.08-.74,1.94-1.36,2.55-1.8-.12-3.61-.74-8.51-1.58-14.84l-.24-1.77c-1.85-13.87-4.15-31.12-2.82-46.92.44-5.2,1.12-10.16,1.78-14.96c1.69-12.32,3.15-22.96-.9-29.31-.03-.05-.06-.1-.09-.15-1.4-2.12-3.41-3.74-6.13-4.93-1.63-.71-4.36-.85-7.8-.42.05,1.43-.14,2.49-.58,3.31-1.3,2.44-5.4,4.44-8.61,5.69-4.17,1.62-8.39,2.53-11.29,2.46-3.26-.09-4.66-1.43-5.26-2.61-2.79,1.44-5.3,2.92-7.41,4.35.3.12.58.27.85.44c11.08,7.17,10.72,27.44,6.79,55.67-1.2,8.65-5.58,17.65-13.01,26.76-.72,12.37-2.26,25.12-2.66,28.31Z" fill="#3384bd"/><path d="M349.88,739.451c-1.94,3.65-18.96,9.45-20.8,5.5-.28-.59-.45-1.41-.58-2.37-.41-3.06-.19-7.62.08-11.09c5.87-1.61,11.36-5.29,11.69-5.53h.01c2.52,1.85,5.18,2.94,7.61,2.04.11-.04.22-.08.33-.14.76,2.65,1.39,5.24,1.72,7.35.3,1.96.33,3.49-.07,4.24h.01Z" fill="#fff"/><path d="M332.48,748.75c-.1,0-.21,0-.31,0-3.4-.09-4.78-1.55-5.34-2.76-.37-.79-.62-1.77-.79-3.1-.35-2.63-.33-6.54.07-11.61.08-1.04.81-1.92,1.81-2.19c5.58-1.53,10.86-5.13,10.91-5.16.85-.59,2.07-.59,2.91.02c2.21,1.62,3.99,2.19,5.29,1.71l.1-.04c.66-.33,1.42-.34,2.1-.05.67.3,1.17.88,1.38,1.59.86,3.02,1.47,5.59,1.79,7.64.43,2.76.33,4.55-.32,5.78-2.22,4.17-13.96,8.14-19.59,8.14l-.01.03Zm-1.24-5.08c2.64,1.08,14.69-2.81,16.41-5.34.04-.19.13-.92-.16-2.75-.21-1.31-.56-2.95-1.04-4.8-1.95.09-4.02-.54-6.21-1.87-1.89,1.15-5.41,3.13-9.31,4.44-.25,3.86-.24,6.91.02,8.89.09.74.2,1.17.28,1.43h.01Z" fill="#3384bd"/><path d="M340.271,725.961c-.33.23-5.82,3.91-11.69,5.53-6.19,1.71-12.82,1.09-14.25-8.37-2.84-18.67,4.23-27.34,4.23-27.34.33.15.66.32.98.5c2.32,3,5.07,4.92,5.07,4.92-3.24,5.55-.26,14.21-.26,14.21s2.98-1.07,5.82.81c1.05.7,2.84,2.82,5,5.1c1.56,1.63,3.29,3.32,5.1,4.64Z" fill="#fff"/><path d="M323.631,734.711c-2.49,0-4.64-.59-6.45-1.76-2.84-1.84-4.63-5.03-5.3-9.47-2.97-19.53,4.44-28.89,4.76-29.28.71-.87,1.93-1.16,2.95-.69.39.18.79.38,1.17.59.29.16.54.38.74.65c2.03,2.64,4.5,4.38,4.53,4.4c1.06.74,1.37,2.17.72,3.28-1.7,2.91-1.23,7.35-.6,10.18c1.61-.03,3.56.31,5.39,1.53.99.67,2.11,1.88,3.66,3.56.55.6,1.14,1.24,1.76,1.89c1.28,1.34,2.99,3.05,4.77,4.35.64.47,1.02,1.22,1.01,2.02c0,.8-.4,1.54-1.05,2-.06.04-5.99,4.12-12.46,5.89-2.02.56-3.9.84-5.61.84l.01.02Zm-4.47-35.07c-1.69,3.51-4.2,11.11-2.37,23.11.45,2.98,1.49,5.01,3.1,6.05c2.25,1.46,5.62.97,8.04.3c3.06-.84,6.03-2.3,8.1-3.45-.99-.91-1.88-1.82-2.64-2.61-.65-.68-1.26-1.34-1.82-1.96-1.06-1.16-2.27-2.46-2.77-2.8-1.71-1.14-3.55-.55-3.63-.53-1.29.42-2.71-.25-3.15-1.54-.12-.36-2.71-8.04-.46-14.28-.69-.59-1.53-1.36-2.4-2.29Z" fill="#3384bd"/><path d="M348.222,727.862c-.11.06-.22.1-.33.14-2.43.9-5.09-.19-7.61-2.04h-.01c-1.81-1.32-3.54-3.02-5.1-4.64-2.16-2.27-3.96-4.4-5-5.1-2.84-1.89-5.82-.81-5.82-.81s-2.98-8.65.26-14.21c0,0-2.76-1.92-5.07-4.92-2.85-3.72-5.03-9.1-.47-14.57c5.62-6.74,31.12-.95,37.21,12.04c5.99,12.77-1.5,31.19-8.06,34.11Z" fill="#76add3"/><path d="M346.091,730.791c-2.21,0-4.59-.91-7.1-2.72-.06-.04-.12-.07-.17-.12-2.09-1.53-4-3.44-5.42-4.93-.65-.68-1.26-1.34-1.82-1.96-1.06-1.16-2.27-2.46-2.77-2.8-1.71-1.14-3.55-.55-3.63-.53-1.29.42-2.71-.25-3.15-1.54-.12-.36-2.71-8.04-.46-14.28-1.11-.95-2.61-2.37-3.97-4.14-4.68-6.1-4.82-12.37-.41-17.67c3.52-4.22,10.86-3.96,14.93-3.44c9.7,1.25,22.11,6.8,26.43,16.02c3.24,6.91,3.22,16.29-.05,25.09-2.29,6.14-5.72,10.74-9.2,12.31-.16.08-.33.14-.49.21-.87.32-1.77.48-2.7.48l-.02.02Zm-4.49-6.94c.05.03.1.07.15.1c2.21,1.62,3.99,2.19,5.29,1.71l.1-.04c0,0,.05-.02.08-.04c1.83-.81,4.58-4.08,6.61-9.53c2.82-7.58,2.9-15.53.21-21.26-3.37-7.19-13.91-12.09-22.57-13.21-4.97-.64-9.09.02-10.49,1.7-1.06,1.28-4.3,5.16.53,11.47c2.03,2.64,4.5,4.38,4.52,4.39c1.06.74,1.37,2.17.72,3.28-1.69,2.89-1.22,7.34-.6,10.18c1.61-.03,3.56.32,5.38,1.53.99.67,2.11,1.88,3.66,3.56.55.6,1.14,1.24,1.76,1.89c1.25,1.3,2.9,2.96,4.63,4.25l.02.02Z" fill="#3384bd"/><path d="M371.75,1010.99c-8.02-1.35-16.03-2.7-24.05-4.05-.56,11.02-1.16,19.07-1.16,19.07-11.04,3.64-18.04-.76-21.33-3.83c0,0-.01,0-.03-.01-1.47-1.41-2.19-2.52-2.19-2.52c1.09-42.219-5.4-68.749-9.47-99.329-3.98-29.96-2.25-53.33-2.18-54.28c11.05,13.77,35.46,2.31,50.01-6.48c3.21-1.93,5.94-3.73,7.94-5.11.74,1.97,1.59,4.53,2.23,7.59.63,2.89,1.09,6.22,1.13,9.89.1,9.36-2.55,16.25-3.36,18.6-6.53,18.92,3,39.39,5.94,67.68c2.16,20.84-3.49,52.779-3.49,52.779h.01Z" fill="#76add3"/><path d="M338.51,1029.86c-7.23,0-12.16-3.28-14.86-5.75-.08-.06-.16-.13-.23-.21-1.59-1.52-2.43-2.79-2.52-2.93-.27-.42-.4-.91-.39-1.4.83-32.129-2.81-55.379-6.32-77.859-1.07-6.84-2.17-13.91-3.13-21.08-3.88-29.19-2.379-52.24-2.189-54.77.07-1.02.76-1.89,1.74-2.2.97-.3,2.029.01,2.669.8c9.98,12.44,33.611.92,46.801-7.05c2.66-1.6,5.289-3.29,7.809-5.03.63-.43,1.42-.55,2.15-.33.73.23,1.311.78,1.581,1.49c1,2.65,1.77,5.26,2.34,7.95.75,3.4,1.139,6.9,1.179,10.38.09,9.21-2.31,16.04-3.33,18.96l-.17.48c-4.08,11.81-1.439,24.8,1.611,39.85c1.61,7.96,3.44,16.97,4.46,26.77c2.17,20.94-3.28,52.149-3.51,53.469-.24,1.34-1.51,2.24-2.85,2.01l-21.311-3.59c-.51,9.5-1.01,16.28-1.01,16.35-.07,1-.739,1.86-1.699,2.17-3.24,1.07-6.181,1.5-8.811,1.5l-.01.02Zm-11.74-9.62c0,0,.09.08.13.12c3.24,3.02,8.81,6.02,17.29,3.76.2-2.93.631-9.37,1.031-17.32.04-.71.369-1.36.919-1.81.55-.44,1.271-.63,1.961-.51l21.6,3.64c1.24-7.8,4.819-32.699,3.059-49.669-.99-9.56-2.72-18.06-4.38-26.29-3.19-15.75-5.949-29.36-1.429-42.45l.179-.51c.94-2.67,3.14-8.93,3.05-17.26-.04-3.14-.399-6.3-1.069-9.39-.31-1.45-.67-2.86-1.11-4.26-1.76,1.16-3.561,2.29-5.371,3.38-21.84,13.19-38.96,16.52-49.08,9.72-.32,8.66-.459,26.87,2.431,48.59.95,7.12,2.05,14.16,3.11,20.97c3.52,22.5,7.15,45.76,6.4,77.899.28.35.709.84,1.279,1.4v-.01Z" fill="#3384bd"/><path d="M347.7,1009.41c0,0-.09,0-.13,0-1.37-.07-2.42-1.23-2.35-2.6.9-17.549,1.64-41.049.09-53.359-3-23.68-5.52-47.48-3.73-61.13.1-.73.51-1.38,1.13-1.77c2.34-1.48,6.47-4.58,7.57-6.6.65-1.2,2.16-1.65,3.36-.99c1.2.65,1.65,2.16.99,3.36-1.67,3.07-6.19,6.36-8.27,7.77-1.44,13.28,1,36.05,3.87,58.75c1.6,12.67.85,36.49-.05,54.239-.07,1.32-1.16,2.35-2.47,2.35l-.01-.02Z" fill="#3384bd"/><path d="M311.351,868.491c-1.37,0-2.48-1.1-2.48-2.46v-.03c0-1.37,1.11-2.48,2.48-2.48s2.48,1.11,2.48,2.48-1.11,2.49-2.48,2.49Z" fill="#3384bd"/><path d="M341.8,1048.87c-5.02,3.53-18.95-6.63-23.55-6.89-14.88-1.49-22.21-16.32-20.16-20.57c3.31-6.89,26.1.44,27.09.76.01.01.03.01.03.01c3.29,3.07,10.29,7.47,21.33,3.83c1.63,10.83.26,19.35-4.74,22.86Z" fill="#fff"/><path d="M339.081,1052.08c-4.15,0-9.32-2.5-14.03-4.78-2.7-1.3-5.75-2.78-6.94-2.85-.04,0-.07,0-.11,0-12.55-1.26-18.73-10.63-20.32-13.47-2.34-4.18-3.02-8.16-1.82-10.64c3.81-7.93,22.29-3.02,30.06-.53.08.03.16.05.23.09.27.11.53.27.75.48c3.43,3.21,9.5,6.38,18.87,3.29.69-.23,1.45-.14,2.07.24s1.04,1.02,1.15,1.74c1.88,12.55-.11,21.28-5.77,25.26-1.19.84-2.6,1.18-4.15,1.18l.01-.01Zm-20.63-12.57c2.17.15,5.08,1.55,8.75,3.33c3.91,1.89,11.18,5.41,13.17,4c3.54-2.49,4.98-8.85,4.07-17.68-10.23,2.35-17.04-1.72-20.51-4.8-11.81-3.7-22.33-4.56-23.61-1.89-.21.44-.21,2.7,1.68,6.07c1.3,2.31,6.31,9.92,16.45,10.96v.01Z" fill="#3384bd"/><path d="M370.599,1029.66c-3.96,6.09-24.06-3.65-24.06-3.65s.59-8.05,1.16-19.07c8.02,1.35,16.03,2.7,24.05,4.05c0,0,1.06,15.28-1.14,18.67h-.01Z" fill="#fff"/><path d="M365.54,1034.14c-2.49,0-5.54-.55-9.17-1.65-5.64-1.71-10.7-4.15-10.91-4.25-.91-.44-1.47-1.4-1.39-2.41c0-.08.6-8.15,1.15-19.02.04-.71.37-1.36.92-1.81.55-.44,1.26-.63,1.96-.51l24.05,4.05c1.13.19,1.98,1.13,2.06,2.27.26,3.78.93,16.4-1.54,20.19-1.36,2.09-3.72,3.13-7.14,3.13l.01.01Zm-16.41-9.66c8.27,3.75,17.9,6.12,19.39,3.82.95-1.46,1.19-8.66.86-15.21l-19.36-3.26c-.36,6.7-.72,12.05-.89,14.64v.01Z" fill="#3384bd"/><path d="M286.791,854.522c0,0-1.42,12.57-7.77,16.87c0,0-10.83,6.66-16.7-4.19-5.87-10.84,16.01-21.19,16.01-21.19l8.46,8.52v-.01Z" fill="#fff"/><path d="M271.78,875.882c-1.07,0-2.19-.12-3.31-.42-3.49-.93-6.29-3.32-8.33-7.08-1.44-2.67-1.69-5.5-.73-8.41c2.97-9.07,17.26-15.92,17.87-16.2.95-.45,2.08-.25,2.82.49l8.46,8.52c.53.53.79,1.28.7,2.02-.06.56-1.63,13.76-8.85,18.64-.03.02-.06.04-.09.06-.19.12-3.95,2.39-8.54,2.39v-.01Zm6.07-26.86c-4.3,2.3-12.05,7.34-13.73,12.48-.52,1.59-.39,3.07.38,4.51c1.36,2.51,3.12,4.07,5.22,4.65c3.67,1,7.53-1.12,7.97-1.37c3.92-2.72,5.86-10.11,6.48-13.9l-6.32-6.36v-.01Z" fill="#3384bd"/><path d="M324.69,806.26c-1.34,9.6-6.7,18.59-12.98,26.16-11.04,13.26-24.92,22.1-24.92,22.1L278.33,846c19.97-18.49,20.17-35.42,20.17-35.42s.21-15.82,1.42-30.48c1.16-13.86,6.41-21.76,11.26-25.3c3.22-2.37,6.27-2.8,7.83-1.79c10.35,6.7,9.1,28.75,5.68,53.25Z" fill="#3384bd"/><path d="M286.79,857c-.64,0-1.28-.25-1.76-.73l-8.46-8.52c-.47-.48-.73-1.13-.72-1.8s.3-1.31.79-1.77c9.85-9.13,14.6-17.79,16.84-23.45c2.43-6.12,2.54-10.15,2.54-10.19c0-.15.22-16.07,1.43-30.65c1.46-17.44,9.06-24.76,12.27-27.1c3.84-2.82,8.02-3.56,10.63-1.87c11.08,7.17,10.72,27.44,6.79,55.67-1.23,8.85-5.78,18.07-13.53,27.4-11.16,13.4-24.91,22.24-25.49,22.61-.41.26-.87.39-1.33.39v.01Zm-4.92-10.95l5.23,5.27c3.95-2.74,14.24-10.33,22.7-20.49c7.14-8.6,11.33-16.98,12.43-24.91c3.03-21.71,4.85-44.73-4.57-50.83-.37-.24-2.31-.28-5.01,1.71-2.66,1.94-8.97,8.11-10.26,23.51-1.19,14.4-1.41,30.15-1.41,30.31c0,.71-.43,17.13-19.11,35.43Z" fill="#3384bd"/><path d="M222.681,674.711c-1.78,1.42-4.12,2.08-6.7,2.23-1.28.07-2.63.01-4-.12-8.36-.87-17.36-5.2-17.36-5.2.28-1.36.55-2.19.55-2.19-7.4-2.03-11.62-7.97-6.9-12.68c4.73-4.73,9.85,3.86,9.85,3.86c10.93-5.29,19.05-12.21,22.32-17.31c2.7,7.4,8.72,26.22,2.23,31.41h.01Z" fill="#fff"/><path d="M214.851,679.45c-.98,0-2.02-.06-3.11-.17-8.7-.9-17.81-5.24-18.19-5.43-1.02-.49-1.58-1.61-1.36-2.72c0-.03.01-.06.02-.09-4.22-1.71-7.26-4.64-8.14-7.97-.76-2.87.11-5.73,2.45-8.07c2.05-2.05,4.18-2.27,5.6-2.1c2.96.37,5.38,2.77,6.8,4.54c10.44-5.39,16.97-11.63,19.45-15.48.51-.79,1.42-1.22,2.36-1.12s1.73.73,2.05,1.61c8.26,22.62,5.35,31.08,1.45,34.19-2.06,1.64-4.78,2.57-8.1,2.77-.41.02-.84.03-1.28.03v.01Zm-17.32-9.25c2.97,1.25,9.05,3.57,14.71,4.15c1.32.13,2.54.17,3.61.11c2.26-.13,4.04-.7,5.28-1.69c3.15-2.51,2.5-11.88-1.55-24.37-4.68,5.1-12.18,10.47-20.38,14.44-1.16.56-2.55.14-3.21-.96-.92-1.53-2.99-3.88-4.49-4.06-.21-.03-.71-.09-1.48.68-1.08,1.08-1.46,2.16-1.16,3.29.57,2.15,3.37,4.26,6.97,5.24.66.18,1.21.62,1.53,1.22s.38,1.3.17,1.94v.01Z" fill="#3384bd"/><path d="M236.492,806.56c-.61,31.06-4.67,53.799-4.67,53.799-1.63,10.56-6.7,51.97-5.68,73.29c0,0-9.55,2.541-12.9.611-.17-.1-.34-.29-.52-.55-3.27-5.04-7.23-39-4.85-58.43-1.57,4.29-3.14,8.46-4.07,12.09-2.43,9.55-3.58,69.63-3.58,69.63-1.07,1.39-2.47,2.089-3.91,2.409-.03,0-.06,0-.07.01-.63.05-1.28.141-1.94.211h-.08c-2.78,0-5.22-1.01-5.22-1.01s-9.95-43.64-10.4-62.33c-.47-18.67,8.57-30.86,9.19-34.91.58-3.9-3.32-14.51-7.58-39.91c3.05,1.86,7.47,2.87,12.6-1.12c9.76-7.55-6.09-25.85-6.09-25.85-1.3-4.38-2.27-9.6-3-14.9c2.05-4.82,4.19-8.321,5.29-10.741c0,0,24.9,7.851,41.95-11.089c0,0,6.16,17.72,5.55,48.779l-.02.011Z" fill="#76add3"/><path d="M194.291,962.101c-3.27,0-5.95-1.071-6.25-1.191-.74-.31-1.29-.96-1.47-1.74-.41-1.79-10.01-44.099-10.47-62.819-.36-14.19,4.51-24.691,7.42-30.961.87-1.87,1.68-3.63,1.8-4.38.22-1.46-.67-5.39-1.91-10.82-1.48-6.51-3.51-15.44-5.67-28.31-.16-.96.25-1.92,1.06-2.46.8-.54,1.85-.57,2.68-.06c3.22,1.97,6.42,1.65,9.78-.96c1.3-1.01,2.01-2.31,2.18-3.98.61-6.14-6.02-15.29-8.62-18.3-.23-.27-.4-.58-.5-.92-1.22-4.11-2.25-9.24-3.08-15.26-.06-.44,0-.9.17-1.31c1.33-3.13,2.69-5.709,3.79-7.779.62-1.17,1.15-2.181,1.53-3.011.52-1.14,1.81-1.71,3-1.33.95.3,23.62,7.11,39.36-10.39.59-.65,1.47-.939,2.33-.769s1.56.79,1.85,1.62c.26.74,6.3,18.499,5.69,49.649-.6,30.9-4.67,53.96-4.71,54.19-1.78,11.54-6.64,51.96-5.64,72.73.06,1.17-.71,2.21-1.84,2.51-2.47.66-10.84,2.62-14.77.36-.5-.29-.93-.709-1.33-1.299-2.57-3.97-4.99-20.12-5.75-36.13-1.15,15.61-1.93,42.559-2.23,58.069-.01.53-.19,1.05-.52,1.47-1.32,1.72-3.12,2.83-5.35,3.32-.02,0-.04.001-.06.011-.11.02-.22.039-.32.049-.37.03-.75.08-1.14.12l-.76.081c-.08,0-.17.01-.26.01l.01-.01Zm-3.2-5.401c.79.21,1.9.44,3.06.45l.6-.07c.37-.04.74-.08,1.11-.12.77-.18,1.39-.489,1.9-.949.16-7.92,1.31-60.101,3.64-69.271.88-3.44,2.27-7.24,3.74-11.25l.4-1.079c.43-1.18,1.68-1.85,2.91-1.56c1.22.3,2.03,1.459,1.88,2.709-1.05,8.56-.94,20.981.31,34.071c1.16,12.11,2.94,20.549,4.08,22.569c1.46.57,5.33.24,8.87-.51-.63-21.64,4.03-60.369,5.78-71.719.05-.28,4.05-22.991,4.64-53.471.43-21.94-2.6-37.22-4.31-43.99-14.78,13.4-33.24,10.67-39.39,9.26-.23.44-.47.901-.73,1.391-.98,1.85-2.17,4.119-3.34,6.779.74,5.23,1.65,9.72,2.69,13.36c1.9,2.29,10.3,12.991,9.45,21.611-.3,3.05-1.67,5.549-4.07,7.399-3.51,2.72-7.27,3.751-10.93,3.041c1.85,10.46,3.57,18.029,4.87,23.729c1.55,6.83,2.33,10.261,1.98,12.651-.22,1.46-1.05,3.249-2.2,5.729-2.73,5.88-7.29,15.72-6.96,28.75.4,16.39,8.36,52.95,10.04,60.48l-.02.01Z" fill="#3384bd"/><path d="M207.871,877.75c-.28,0-.57-.05-.85-.15-1.29-.47-1.95-1.89-1.47-3.18c2.62-7.15,4.95-13.99,4.73-19.02-.41-9.02-2.62-52.13-2.65-52.57-.05-1.03.53-1.98,1.48-2.39c1.23-.55,4.73-2.39,6.07-4.34.77-1.13,2.32-1.42,3.44-.64c1.13.77,1.42,2.32.64,3.44-1.66,2.43-4.72,4.31-6.6,5.31.41,7.99,2.2,42.94,2.56,50.97.26,5.96-2.12,13.01-5.03,20.95-.37,1-1.32,1.63-2.33,1.63l.01-.01Z" fill="#3384bd"/><path d="M207.85,982.39c-1.78,2.05-17.21,3.24-20.86-2.58s1.06-17.67,1.06-17.67.68-1.97,6.16-2.52h.08c.63,0,1.31-.07,1.94-.21.01-.01.04-.01.07-.01c1.46-.12,2.81-.06,3.98.99c2.62,2.34,4.7,4.93,6.37,8.03c1.42,2.66,4.63,9.96,1.2,13.96v.01Z" fill="#fff"/><path d="M199.331,986.55c-.92,0-1.8-.03-2.57-.09-4.09-.31-9.46-1.489-11.87-5.329-4.17-6.63.26-18.38.84-19.87.41-1.09,2.01-3.481,8.23-4.111.08,0,.16-.01.25-.01.55,0,1.06-.05,1.5-.15.13-.03.26-.05.39-.06c1.72-.15,3.93-.09,5.84,1.61c2.87,2.57,5.13,5.42,6.9,8.71c1.38,2.58,5.5,11.39.9,16.75-1.66,1.92-6.46,2.54-10.39,2.54l-.02.01Zm-9.07-23.26c-1.14,3-3.54,11.45-1.18,15.21.7,1.12,2.44,2.03,4.9,2.57c5.03,1.1,10.85.25,12.09-.42c2-2.59-.06-8.14-1.61-11.05-1.49-2.77-3.4-5.18-5.83-7.35-.35-.31-.78-.47-1.98-.38-.75.15-1.55.24-2.32.24-2.82.3-3.83.98-4.07,1.19v-.01Zm.13-.34c0,0-.01.03-.02.05c0-.01.01-.03.02-.05Z" fill="#3384bd"/><path d="M194.291,962.1c-1.32,0-2.41-1.03-2.47-2.35s.91-2.46,2.22-2.59l.72-.08c.43-.05.85-.1,1.27-.13c1.3-.11,2.47.81,2.66,2.1.2,1.29-.65,2.51-1.92,2.79-.79.17-1.65.26-2.47.26h-.01Z" fill="#3384bd"/><path d="M248.07,965.319c-1.09,3.32-4.2,2.7-10.69,2.7s-16.25-9.67-18.14-11.44c-1.9-1.75-10.83-4.53-10.83-9.47s4.07-12.91,4.31-13.41c.18.26.36.45.52.55c3.35,1.93,12.9-.61,12.9-.61s3.58,4.74,4.74,9.4c1.14,4.67,18.26,18.95,17.18,22.27l.01.01Z" fill="#fff"/><path d="M241.79,970.539c-.59,0-1.2,0-1.82-.02-.8-.01-1.67-.029-2.6-.029-4.76,0-11.1-3.831-19.39-11.691l-.43-.41c-.28-.26-1.49-.89-2.37-1.36-3.68-1.94-9.25-4.869-9.25-9.919s3.81-12.99,4.58-14.52c.39-.79,1.17-1.3,2.05-1.36.84-.06,1.65.31,2.15.98c1.72.69,6.85.09,10.81-.96.97-.26,2.01.099,2.61.899.16.21,3.9,5.2,5.17,10.3.38,1.56,4.97,6.441,8,9.661c6.86,7.3,10.12,10.939,9.14,13.969-1.31,4-4.5,4.45-8.63,4.45l-.02.01ZM213.85,937.11c-1.4,3.16-2.97,7.4-2.97,10c0,2.06,4.13,4.229,6.6,5.539c1.48.78,2.66,1.401,3.43,2.111l.48.45c9,8.54,13.66,10.329,15.98,10.329.96,0,1.86.01,2.68.03c4.21.06,5.15-.06,5.52-.68-.71-1.74-5-6.3-7.89-9.37-5.28-5.61-8.54-9.19-9.2-11.87-.68-2.72-2.35-5.569-3.4-7.179-2.89.65-7.78,1.48-11.22.65l-.01-.01Z" fill="#3384bd"/><path d="M220.451,643.3c-3.28,5.1-11.4,12.02-22.32,17.31c0,0-5.13-8.59-9.85-3.86-4.71,4.71-.5,10.65,6.9,12.68c0,0-.28.83-.55,2.19-.77,3.72-1.63,11.48,2.62,17.8c1.83,2.73,3.57,4.86,5.14,6.88c3.43,4.4,6.1,8.28,7.32,16.81c0,0-4.47-4.74-12.32-9.47-3.84-2.33-10.57-7.35-13.16-17.09l-1.2,9.67c-1.25.91-2.62,2.07-3.89,3.51h-.01c-3.09.48-5.55,2.55-7.52,5.64c0,0,.54-10.27,2.33-15.75c1.81-5.48,3.86-20.96,4.6-32.03.15-5.88.55-11.92,5.69-18.16.81-.99,7.06-7.32,15.72-8.48c2.48-.33,12.44-1.12,20.05,4.77.84.65,1.27,1.32,1.67,1.93.8,1.24.33,3.24-1.21,5.64l-.01.01Z" fill="#76add3"/><path d="M209.701,715.59c-.67,0-1.33-.27-1.8-.78-.04-.04-4.36-4.57-11.79-9.04-4.46-2.7-7.98-6.05-10.53-10.01l-.1.78c-.08.68-.45,1.3-1,1.7-1.32.96-2.49,2.01-3.48,3.14-.41.46-.97.76-1.57.83-2.16.36-4.04,1.84-5.74,4.51-.61.95-1.77,1.37-2.84,1.03s-1.781-1.37-1.721-2.49c.02-.43.581-10.66,2.451-16.39c1.76-5.33,3.77-20.8,4.48-31.37.17-6.55.79-12.98,6.25-19.62c1.68-2.05,8.47-8.18,17.31-9.36c2.15-.29,13.31-1.38,21.9,5.26c1.14.88,1.74,1.79,2.18,2.46c0,0,.049.08.059.09.95,1.47,1.501,4.1-1.209,8.32-3.92,6.09-13.07,13.23-23.33,18.2-1.16.56-2.551.14-3.211-.96-.92-1.53-2.99-3.88-4.49-4.06-.21-.03-.709-.09-1.479.68-1.08,1.08-1.461,2.16-1.161,3.29.57,2.15,3.371,4.26,6.971,5.24.66.18,1.209.62,1.529,1.22s.381,1.31.171,1.95c0,0-.24.72-.47,1.9-.75,3.6-1.44,10.43,2.25,15.93c1.49,2.23,2.91,4.03,4.29,5.78l.75.96c3.64,4.67,6.53,8.96,7.82,17.99.15,1.07-.41,2.11-1.38,2.58-.34.17-.71.24-1.07.24h-.04Zm-25.48-31.51c1.12,0,2.1.75,2.39,1.84c1.75,6.57,5.8,11.82,12.05,15.61c2.66,1.6,4.94,3.2,6.81,4.63-1.24-3.28-2.93-5.63-5.04-8.33l-.74-.94c-1.36-1.73-2.9-3.7-4.5-6.08-4.7-7-3.89-15.34-2.99-19.69c0-.03.01-.05.02-.08-4.22-1.71-7.26-4.64-8.14-7.97-.76-2.87.11-5.73,2.45-8.07c2.05-2.05,4.179-2.27,5.599-2.1c2.96.37,5.381,2.77,6.801,4.54c10.44-5.39,16.969-11.63,19.449-15.48c1.16-1.81,1.251-2.79,1.191-3-.35-.52-.6-.9-1.08-1.27-7.03-5.44-16.4-4.51-18.21-4.27-7.31.98-13.09,6.32-14.13,7.59-4.5,5.46-4.971,10.56-5.131,16.66c0,.03,0,.07,0,.1-.75,11.1-2.819,26.86-4.719,32.64-.74,2.27-1.26,5.48-1.6,8.37c1.01-.6,2.069-1.03,3.179-1.3.86-.91,1.811-1.78,2.841-2.59l1.07-8.63c.15-1.18,1.11-2.09,2.29-2.17.06,0,.11,0,.17,0l-.03-.01Z" fill="#3384bd"/><path d="M288.86,755.85c-.65,12.32-13.28,10.96-13.28,10.96-7.58-1.16-14.26-11.89-14.26-11.89l3.98-11.33c0,0,24.21-.04,23.56,12.26Z" fill="#fff"/><path d="M276.65,769.329c-.77,0-1.27-.05-1.34-.06-.04,0-.07,0-.11-.01-8.61-1.31-15.69-12.55-15.99-13.03-.4-.64-.48-1.42-.23-2.13l3.98-11.33c.35-.99,1.28-1.65,2.33-1.66.67.01,16.53.05,23.1,6.97c2.11,2.22,3.1,4.88,2.94,7.91-.22,4.28-1.73,7.63-4.48,9.97-3.48,2.96-7.99,3.37-10.2,3.37Zm-.77-4.98c.47.04,4.88.31,7.78-2.18c1.66-1.42,2.58-3.59,2.73-6.44.09-1.63-.43-3.01-1.58-4.23-3.72-3.92-12.9-5.15-17.77-5.38l-2.98,8.46c2.19,3.15,7.12,9,11.82,9.77Z" fill="#3384bd"/><path d="M211.99,676.821l-1.54,14.44c0,0-2.71,5.07-8.06,5.04-1.57-2.01-3.31-4.15-5.14-6.88-4.24-6.33-3.39-14.08-2.62-17.8c0,0,9,4.33,17.36,5.2Z" fill="#fff"/><path d="M202.43,698.781h-.06c-.76,0-1.47-.35-1.94-.95l-.74-.94c-1.36-1.73-2.9-3.7-4.5-6.08-4.7-7-3.89-15.34-2.99-19.69.15-.75.64-1.38,1.33-1.72.68-.34,1.48-.34,2.17-.01.09.04,8.73,4.15,16.55,4.96.65.07,1.26.39,1.67.91.41.51.61,1.17.54,1.82l-1.54,14.44c-.03.32-.13.62-.28.91-.14.26-3.48,6.35-10.2,6.35h-.01Zm-5.84-23.6c-.36,3.71-.1,8.68,2.71,12.87c1.47,2.18,2.86,3.96,4.21,5.68c2.44-.47,3.98-2.45,4.53-3.28l1.23-11.5c-4.93-.84-9.71-2.56-12.68-3.76v-.01Z" fill="#3384bd"/><path d="M237.509,714.6c0,5-3.57,8.53-5.87,10.28-1.12.85-1.94,1.3-1.94,1.3.65,4.95.95,13.53,1.1,20.51.14,6.17.14,11.09.14,11.09-17.05,18.95-41.95,11.09-41.95,11.09c2.09-8.35-.63-19.42-4.2-30.01c1.6-6.15,3.38-13.22,4.2-17.65c1.39-7.47-3.21-17.34-7.22-20.48-.94-.73-1.85-1.1-2.63-.98c1.27-1.45,2.63-2.6,3.89-3.51l1.2-9.67c2.59,9.74,9.32,14.76,13.16,17.09c7.86,4.73,12.32,9.47,12.32,9.47-1.21-8.53-3.89-12.42-7.32-16.81c5.35.03,8.06-5.04,8.06-5.04l1.54-14.44c1.36.14,2.71.19,4,.12c0,0,7.62,4.97,8.93,11.58c1.32,6.6,12.6,18.67,12.6,26.09l-.01-.03Z" fill="#3384bd"/><path d="M201.39,773.011c-7.34,0-12.66-1.62-13.14-1.77-1.25-.39-1.98-1.69-1.66-2.97c2.1-8.38-1.36-20.35-4.15-28.62-.15-.46-.17-.95-.05-1.41c1.37-5.28,3.3-12.84,4.17-17.48c1.22-6.54-2.99-15.47-6.31-18.07-.45-.35-.72-.45-.8-.47-1,.12-1.98-.37-2.47-1.26-.5-.91-.38-2.04.31-2.83c1.01-1.15,2.15-2.23,3.42-3.23l1.07-8.63c.15-1.18,1.11-2.09,2.29-2.17s2.26.69,2.56,1.84c1.75,6.57,5.8,11.82,12.05,15.61c2.66,1.6,4.94,3.2,6.81,4.63-1.24-3.28-2.93-5.63-5.04-8.33-.58-.75-.69-1.77-.27-2.62s1.28-1.38,2.24-1.39c3.07.02,5.01-2.43,5.64-3.38l1.48-13.89c.14-1.36,1.36-2.34,2.71-2.2c1.33.13,2.54.17,3.61.12.53-.03,1.05.11,1.49.4.35.23,8.51,5.63,10.01,13.17.49,2.44,2.96,6.35,5.35,10.13c3.59,5.68,7.3,11.55,7.3,16.44c0,6.13-4.29,10.31-6.85,12.25-.29.22-.56.41-.8.58.44,4.2.75,10.64.94,19.19.14,6.13.14,11.1.14,11.15c0,.61-.23,1.2-.64,1.66-9.94,11.05-22.24,13.57-31.39,13.57l-.02-.02Zm-9.52-5.95c6.05,1.32,23.52,3.59,36.59-10.24c0-1.73-.03-5.58-.13-10.07-.21-9.53-.57-16.34-1.08-20.24-.13-1.02.38-2.02,1.29-2.51c0,0,.69-.37,1.61-1.08c1.83-1.39,4.9-4.32,4.9-8.31c0-3.45-3.47-8.94-6.53-13.79-2.75-4.36-5.35-8.47-6.02-11.81-.89-4.5-5.56-8.31-7.25-9.56-.34,0-.68,0-1.03,0l-1.29,12.08c-.03.32-.13.62-.28.91-.11.2-2.07,3.78-5.97,5.48c2.54,3.69,4.5,7.85,5.5,14.86.15,1.07-.41,2.11-1.38,2.58s-2.14.25-2.88-.53c-.04-.04-4.36-4.57-11.79-9.04-4.46-2.7-7.98-6.05-10.53-10.01l-.1.78c-.08.68-.45,1.3-1,1.7-.32.24-.64.48-.95.72c4.91,4.08,9.38,14.71,7.9,22.69-.85,4.58-2.68,11.8-4.06,17.11c2.9,8.7,5.81,19.4,4.5,28.29l-.02-.01Z" fill="#3384bd"/><path d="M183.021,698.71c-.76,0-1.51-.35-2-1.01-.81-1.1-.57-2.65.53-3.46c2.53-1.85,4.61-2.76,4.7-2.8c1.26-.54,2.71.04,3.26,1.3.54,1.26-.04,2.71-1.29,3.25-.04.02-1.71.76-3.74,2.25-.44.32-.95.48-1.46.48v-.01Z" fill="#3384bd"/><path d="M265.291,743.579l-3.98,11.33c0,0-25.78-4.16-30.51-8.23-.15-6.97-.45-15.56-1.1-20.51c0,0,.83-.44,1.94-1.3c10.47,7.43,33.65,18.7,33.65,18.7v.01Z" fill="#3384bd"/><path d="M261.311,757.39c-.13,0-.26-.011-.4-.031-4.42-.71-26.73-4.49-31.73-8.79-.53-.46-.85-1.12-.86-1.83-.21-9.53-.57-16.34-1.08-20.24-.13-1.02.38-2.02,1.29-2.51c0,0,.69-.379,1.61-1.079.86-.66,2.05-.681,2.94-.051c10.19,7.23,33.07,18.381,33.3,18.491c1.13.55,1.67,1.86,1.25,3.05l-3.98,11.33c-.35,1-1.3,1.66-2.34,1.66Zm-28.06-12.021c4.18,2.36,17.33,5.19,26.42,6.76l2.56-7.289c-5.42-2.69-20.54-10.331-29.79-16.411.37,3.97.64,9.65.81,16.95v-.01Z" fill="#3384bd"/><path d="M192.79,820.359c-5.13,3.98-9.55,2.981-12.6,1.121-2.74-1.67-4.37-4.01-4.37-4.01-4.08-6.49-.32-18.56-.32-18.56l3.49-1.361l7.7-3.029c0,0,15.85,18.3,6.09,25.85l.01-.011Z" fill="#fff"/><path d="M185.63,825.579c-2.28,0-4.55-.66-6.73-1.99-3.15-1.92-5.03-4.6-5.11-4.71-.02-.03-.04-.06-.06-.09-4.63-7.37-.75-20.08-.58-20.62.22-.72.76-1.3,1.46-1.57l11.19-4.39c.98-.38,2.09-.11,2.78.68.44.51,10.75,12.54,9.81,22.03-.3,3.05-1.67,5.54-4.07,7.4-2.79,2.17-5.75,3.26-8.68,3.26h-.01Zm-7.74-9.49c.2.27,1.54,2.02,3.6,3.27c3.23,1.97,6.43,1.66,9.79-.96c1.3-1,2.01-2.3,2.17-3.97.54-5.38-4.52-13.12-7.52-16.96l-8.37,3.29c-.96,3.71-2.17,11.26.33,15.33Z" fill="#3384bd"/><path d="M184.781,738.859c-1.75,6.63-3.31,12.18-3.31,12.18s.25,14.48,2.22,28.57c.73,5.29,1.71,10.51,3,14.9l-7.7,3.03-3.49,1.36c0,0-11.02-30.57-11.29-46.68-.22-12.53.48-36.01,7.37-46.84c1.97-3.09,4.44-5.15,7.52-5.64h.01c.79-.12,1.7.25,2.63.98c4.01,3.14,8.61,13.01,7.22,20.48-.83,4.44-2.6,11.51-4.2,17.65l.02.01Z" fill="#3384bd"/><path d="M175.51,801.38c-.35,0-.7-.07-1.02-.22-.61-.28-1.08-.79-1.31-1.42-.46-1.26-11.17-31.14-11.43-47.48-.23-13.09.47-36.75,7.76-48.21c2.5-3.92,5.61-6.19,9.23-6.75.05,0,.09-.01.14-.02c1.43-.18,2.91.32,4.42,1.49c5.01,3.92,9.65,14.77,8.13,22.89-.89,4.79-2.85,12.47-4.24,17.82-1.48,5.62-2.85,10.53-3.22,11.86.05,2.3.43,15.36,2.19,27.91.8,5.77,1.78,10.66,2.93,14.54.36,1.23-.27,2.54-1.47,3.01l-11.19,4.4c-.29.11-.6.17-.9.17l-.02.01Zm3.92-99.17c-2.16.36-4.04,1.84-5.74,4.51-6.84,10.75-7.16,35.37-6.98,45.46.21,12.94,7.74,36,10.3,43.47l6.71-2.64c-.96-3.7-1.79-8.08-2.48-13.07-1.97-14.07-2.24-28.72-2.24-28.86c0-.24.03-.48.09-.71.02-.06,1.57-5.61,3.3-12.14c1.37-5.28,3.3-12.84,4.16-17.48c1.22-6.54-2.99-15.47-6.31-18.07-.45-.35-.72-.45-.8-.47c0,0,0,0-.01,0Z" fill="#3384bd"/><path d="M205.911,741.271c-6.23,0-10.66-2.95-10.87-3.1-1.13-.77-1.43-2.31-.66-3.44s2.31-1.43,3.44-.66c.03.02,4.43,2.89,10.11,2.1c8.63-1.21,11.7-8.16,11.83-8.46.33-.78,1.06-1.35,1.9-1.49c1.78-.28,5.16-1.11,6.65-2.11c1.13-.77,2.67-.47,3.44.67.77,1.13.47,2.67-.67,3.44-2.13,1.44-5.52,2.28-7.38,2.66-1.53,2.71-5.96,8.91-15.08,10.19-.93.13-1.84.19-2.71.19v.01Z" fill="#3384bd"/><g style="mix-blend-mode:multiply"><path d="M73.93,1192.22c40.83,0,73.93-19.11,73.93-42.69s-33.1-42.69-73.93-42.69c-40.8304,0-73.93,19.11-73.93,42.69s33.0996,42.69,73.93,42.69Z" fill="#ebf3f8"/></g><path d="M72.6005,1127.73c-10.41,0-20.82-2.29-28.75-6.87-3.31-1.92-6.02-4.11-8.06-6.51-1.84-2.15-3.14-4.48-3.87-6.9-.45-1.48-.69-3.04-.69-4.62c0-6.93,4.48-13.32,12.63-18c15.85-9.16,41.64-9.16,57.5005,0c10.18,5.88,14.599,14.47,11.819,22.98-.74,2.26-2,4.45-3.74,6.53-2.14,2.49-4.849,4.67-8.079,6.53-7.9205,4.58-18.3305,6.87-28.7405,6.87l-.02-.01Zm0-44.9c-9.51,0-19.03,2.09-26.27,6.28-6.55,3.76-10.15,8.63-10.15,13.71c0,1.11.15,2.15.47,3.18.54,1.78,1.51,3.5,2.9,5.13c1.68,1.98,3.96,3.8,6.78,5.44c14.48,8.37,38.05,8.37,52.54,0c2.7505-1.58,5.0295-3.41,6.7795-5.44c1.31-1.57,2.261-3.21,2.811-4.87c2.03-6.21-1.47-12.46-9.5905-17.15-7.24-4.19-16.76-6.28-26.27-6.28Z" fill="#3384bd"/><path d="M107.53,1112.74c-1.84,2.14-4.31,4.19-7.42,5.97-15.19,8.78-39.83,8.78-55.02,0-3.11-1.8-5.5901-3.83-7.4201-5.97c1.34-3.79,4.57-7.42,9.68-10.36c13.93-8.06,36.5401-8.06,50.4901,0c5.09,2.95,8.34,6.55,9.68,10.36h.01Z" fill="#76add3"/><path d="M72.6003,1127.73c-10.41,0-20.8201-2.29-28.7501-6.87-3.31-1.92-6.02-4.11-8.06-6.51-.57-.67-.74-1.6-.45-2.43c1.59-4.5,5.32-8.54,10.78-11.68c14.59-8.44,38.35-8.44,52.97,0c5.4698,3.17,9.1998,7.21,10.7798,11.68.29.84.12,1.77-.46,2.44-2.12,2.46-4.83,4.65-8.06,6.51-7.9197,4.58-18.3297,6.87-28.7397,6.87l-.01-.01Zm-32.0201-15.49c1.54,1.55,3.47,3.01,5.76,4.33c14.48,8.37,38.05,8.37,52.54,0c2.2398-1.29,4.1698-2.74,5.7498-4.33-1.43-2.84-4.17-5.49-8.0197-7.71-13.25-7.65-34.7801-7.65-48.0101,0-3.84,2.21-6.58,4.86-8.02,7.72v-.01Z" fill="#3384bd"/><path d="M101.8,1152.52c-.17,0-.34-.02-.52-.05-1.3404-.28-2.1903-1.6-1.9103-2.94l.21-.97c.28-1.34,1.6003-2.19,2.9403-1.91s2.19,1.6,1.91,2.94l-.21.97c-.25,1.16-1.28,1.96-2.42,1.96Z" fill="#3384bd"/><path d="M110.821,1107.02l-8.82,42.05c-.45,3.97-3.32,7.87-8.56,10.89-11.51,6.64-30.17,6.64-41.69,0-4.8-2.76-7.59-6.25-8.39-9.86l-.11-.55-8.96-42.83c1.31,4.4,4.9201,8.6,10.8001,11.98c15.19,8.78,39.83,8.78,55.0199,0c5.74-3.31,9.31-7.41,10.71-11.69v.01Z" fill="#e0e7f7"/><path d="M72.6007,1167.38c-8,0-15.99-1.76-22.08-5.27-5.27-3.03-8.58-6.99-9.57-11.47l-.12-.6-8.96-42.81c-.27-1.3.53-2.58,1.82-2.91s2.6.42,2.98,1.69c1.17,3.93,4.51,7.58,9.66,10.55c14.49,8.37,38.0601,8.37,52.5401,0c5.0202-2.9,8.3402-6.47,9.5902-10.32.41-1.25,1.72-1.97,2.99-1.63s2.06,1.61,1.79,2.9l-8.79,41.94c-.6,4.86-4.06,9.35-9.7703,12.64-6.09,3.51-14.08,5.27-22.08,5.27v.02Zm-33.5-49.78l6.7,32.02c.66,2.99,3.22,5.92,7.2,8.2c10.81,6.24,28.4,6.24,39.21,0c4.36-2.51,6.96-5.72,7.34-9.02c0-.08.02-.15.04-.23l6.4903-30.95c-1.4,1.16-2.98,2.24-4.72,3.25-15.8503,9.16-41.6403,9.16-57.5003,0-1.75-1.01-3.34-2.1-4.75-3.27h-.01Z" fill="#3384bd"/><g id="eUJKFhpcmjO69_tr" transform="translate(73.93,1112.12) rotate(0)"><g transform="translate(-73.929999,-1112.119997)"><path d="M71.8897,1112.12c-.3,0-.5999-.05-.8999-.17-1.28-.5-1.9101-1.93-1.4101-3.21c4.66-11.98,2.1901-43.45,2.1701-43.77-.11-1.36.9099-2.56,2.2699-2.67s2.56.91,2.67,2.27c.11,1.34,2.58,32.92-2.49,45.96-.38.98-1.32,1.58-2.31,1.58v.01Z" fill="#3384bd"/><path d="M73.2802,1093.95c-.98,0-1.8999-.58-2.2999-1.54-5.53-13.58-26.69-28.77-26.91-28.92-1.11-.79-1.3701-2.34-.5801-3.46.79-1.11,2.3401-1.37,3.4601-.58.92.65,22.54,16.18,28.62,31.09.52,1.27-.09,2.71-1.36,3.23-.31.12-.6201.18-.9301.18Z" fill="#3384bd"/><path d="M74.1699,1099.34c-.31,0-.6199-.06-.9199-.18-1.27-.51-1.89-1.95-1.38-3.22c9.15-22.8,30.6-45.43,31.51-46.38.94-.99,2.51-1.03,3.5-.08.99.94,1.03,2.51.08,3.5-.22.23-21.7,22.9-30.5,44.81-.39.97-1.3201,1.56-2.3001,1.56l.01-.01Z" fill="#3384bd"/><g transform="translate(.000001 0)"><path d="M89.2793,1063.59c-19.89,5-45.66,7.84-64.48-2.66-3.38-1.88-6.53-4.19-9.39-6.99-13.85002-15.49-4.25-37.34,9.14-49.66.01-.01.02-.01.02-.01-1.44-1.52-2.77-3.04-3.96-4.569-42.22-53.59,60.33-111.45,84.2097-35.95c2.31.02,4.57.17,6.78.46c15.03,4.18,22.97,14.12,25.44,26.23c5.56,27.199-16.5,65.279-47.7697,73.159l.01-.01Z" fill="#ffd969"/><path d="M89.2808,1063.59c-19.89,5-45.66,7.84-64.48-2.66c83.4802-11.39,106.1102-50.66,112.2502-70.5c5.56,27.2-16.5,65.28-47.7702,73.16Z" fill="#ff9361"/><path d="M56.47,1070.54c-11.49,0-23.0401-1.96-32.8701-7.44-3.68-2.05-7.0099-4.54-9.9199-7.39-.04-.04-.07-.08-.11-.12-6.89003-7.7-9.03004-17.49-6.20004-28.3c2.14-8.14,7.08994-16.46,13.74004-23.14-.88-.99-1.6901-1.96-2.4401-2.93C6.63995,985.951,4.71999,968.911,13.28,953.261c9.94-18.19,32.09-29.93,52.66-27.94c11.09,1.08,30.9299,7.21,40.7,35.99c1.83.07,3.6.22,5.29.44.11.02.23.04.34.07c18.82,5.23,25.18,18.18,27.2,28.12c2.81,13.729-1.08,30.789-10.4,45.639-9.74,15.51-24.02,26.6-39.1901,30.42-9.76,2.46-21.5599,4.55-33.4199,4.55l.01-.01Zm-39.25-18.31c2.57,2.52,5.53,4.72,8.8,6.54c18.56,10.36,44.32,7.03,62.67,2.42c30.89-7.79,51.08-45.14,45.95-70.259-2.5-12.26-10.62-20.66-23.51-24.29-1.98-.25-4.1-.39-6.31-.42-1.07-.01-2.01-.71-2.34-1.73-6.45-20.39-19.59-32.55-37.01-34.24-18.69-1.81-38.8,8.86-47.83,25.38-7.55,13.81-5.79,28.91,4.94,42.53c1.12,1.44,2.36,2.869,3.81,4.389.68.72.87,1.77.48,2.68-.17.39-.43.72-.75.97-6.79,6.29-11.8701,14.43-13.9501,22.34-1.66,6.35-2.1399,15.6,5.0401,23.68l.01.01Z" fill="#3384bd"/><path d="M24.5898,1006.74c-.63,0-1.2501-.24-1.7301-.71-.98-.96-.9899-2.53-.0299-3.5c6.95-7.09,13.8599-10.319,14.1499-10.449c1.24-.57,2.7101-.031,3.2901,1.209.57,1.24.03,2.711-1.21,3.291-.06.03-6.41,3.02-12.68,9.419-.49.49-1.1301.74-1.7701.74h-.0199Z" fill="#3384bd"/><path d="M87.8006,970.232c-.79,0-1.5601-.37-2.0401-1.07-.77-1.12-.4999-2.65.6101-3.43.27-.19,6.8399-4.681,18.5104-4.461c1.37.03,2.46,1.161,2.43,2.521-.03,1.37-1.16,2.45-2.52,2.43-9.9604-.19-15.5404,3.54-15.5904,3.57-.43.29-.92.43-1.4.43v.01Z" fill="#3384bd"/><path d="M76.7496,1067.25c-1.33,0-2.4301-1.06-2.4801-2.4-1.77-56.35-24-99.539-24.23-99.969-.63-1.21-.16-2.71,1.05-3.34s2.71-.17,3.34,1.05c.23.44,22.99,44.579,24.79,102.109.04,1.37-1.03,2.51-2.4,2.55-.03,0-.0499,0-.0799,0h.01Z" fill="#3384bd"/><path d="M73.9292,1037.23c-.29,0-.58-.05-.87-.16-1.28-.48-1.9299-1.91-1.4499-3.19.36-.97,8.9999-23.85,22.9199-38.369.95-.99,2.52-1.02,3.5-.07.99.95,1.0201,2.52.0701,3.5-13.2,13.769-21.77,36.449-21.85,36.679-.37,1-1.3201,1.61-2.3201,1.61Z" fill="#3384bd"/><path d="M74.8998,1051.09c-.65,0-1.2999-.26-1.7899-.76-13.63-14.2-39.5501-18.58-39.8101-18.63-1.35-.22-2.2699-1.5-2.0399-2.85.22-1.35,1.4899-2.27,2.8399-2.05c1.13.18,27.8,4.68,42.58,20.08.95.99.9201,2.56-.0699,3.5-.48.46-1.1001.69-1.7201.69l.01.02Z" fill="#3384bd"/></g></g></g><g id="eUJKFhpcmjO82_tr" transform="translate(668.744557,1011.564516) rotate(0)"><g transform="translate(-668.744557,-1011.564514)"><g transform="translate(.000001 0.000001)"><path d="M773.661,809.829L666.421,1005.31l-97.17-56.121h-.01l-4-2.32c-15.73-7.56-25.6-25.79-25.6-52.37c0-50.3,35.32-111.47,78.88-136.61c11.28-6.51,21.99-9.97,31.7-10.65c8.26-.56,15.78.88,22.27,4.17v-.02l.47.27c.89.47,1.76.97,2.62,1.51l98.1,56.66h-.02Z" fill="#3384bd"/><g style="mix-blend-mode:screen" opacity="0.5"><path d="M650.201,747.24c-1.9,4.08-7.94,10.03-19.89,18.49-64.29,45.42-75.78,114.15-75.4,141.81.37,27.22,13.9,41.22,14.32,41.65l-4-2.31c-15.73-7.56-25.6-25.79-25.6-52.37c0-50.3,35.32-111.47,78.88-136.61c11.28-6.51,21.99-9.97,31.7-10.65l-.01-.01Z" fill="#fff"/></g><path d="M666.411,1007.46c-.38,0-.75-.1-1.08-.29l-101.17-58.43c-16.96-8.24-26.69-28-26.69-54.25c0-50.9,35.87-113.02,79.95-138.48c20.65-11.92,40.43-14.28,55.75-6.66.13.04.26.1.39.17l.46.26c.85.45,1.77.98,2.65,1.53l98.07,56.64c1.01.59,1.37,1.87.81,2.9l-107.25,195.48c-.28.51-.75.88-1.31,1.04-.19.05-.39.08-.58.08v.01Zm-99.97-62.38l99.14,57.26l105.18-191.7-96.29-55.61c0,0-.05-.03-.07-.05-.79-.5-1.62-.98-2.46-1.42l-.26-.15c-.06-.02-.12-.05-.18-.08-14.01-7.1-32.45-4.83-51.92,6.41-42.9,24.77-77.8,85.21-77.8,134.75c0,24.6,8.89,42.98,24.39,50.43.1.05.19.1.27.16Z" fill="#3384bd"/><path d="M775.713,939.714c30.8-53.349,30.8-111.013-.003-128.797-30.802-17.783-80.741,11.048-111.542,64.397-30.8,53.348-30.8,111.013.002,128.796c30.802,17.78,80.742-11.048,111.543-64.396Z" fill="#ebf3f8"/><path d="M684.722,1011.56c-7.88,0-15.17-1.85-21.62-5.57-15.59-9.001-24.18-27.801-24.18-52.931c0-50.9,35.87-113.02,79.95-138.48c21.76-12.56,42.33-14.53,57.93-5.52c15.59,9,24.18,27.8,24.18,52.93c0,50.9-35.87,113.02-79.95,138.481-12.77,7.37-25.13,11.09-36.31,11.09Zm70.45-203.751c-10.42,0-22.05,3.53-34.14,10.51-42.9,24.77-77.8,85.21-77.8,134.75c0,23.52,7.82,41,22.02,49.201c14.2,8.2,33.25,6.24,53.62-5.521c42.9-24.77,77.8-85.21,77.8-134.75c0-23.52-7.82-41-22.02-49.2-5.77-3.33-12.34-4.99-19.48-4.99Z" fill="#3384bd"/><path d="M538.66,296.47l101.45,58.58l23.43,429.86-101.46-58.58-23.42-429.86Z" fill="#3384bd"/></g><g transform="translate(.000001 0)"><g style="mix-blend-mode:screen" opacity="0.5"><path d="M538.66,296.47l14.69,8.49l24.08,430.23-15.35-8.86-23.42-429.86Z" fill="#fff"/></g><g transform="translate(.000001 0)"><path d="M538.66,296.469l101.45,58.58l153.67-88.37-101.45-58.57-153.67,88.36Z" fill="#ebf3f8"/><path d="M640.11,357.199c-.37,0-.74-.1-1.08-.29l-101.46-58.58c-.67-.39-1.08-1.1-1.08-1.87s.41-1.48,1.08-1.86l153.67-88.37c.67-.38,1.49-.38,2.15,0l101.46,58.58c.67.39,1.08,1.1,1.08,1.87s-.41,1.48-1.08,1.86l-153.67,88.37c-.33.19-.7.29-1.07.29Zm-97.14-60.73l97.14,56.09l149.35-85.88-97.14-56.09-149.35,85.88Z" fill="#3384bd"/><path d="M793.779,266.68l-153.67,88.37l23.43,429.86l112.83-65.14l17.41-453.09Z" fill="#ebf3f8"/><path d="M663.54,787.06c-.35,0-.71-.09-1.03-.26-.66-.36-1.08-1.03-1.12-1.78L637.96,355.16c-.04-.81.37-1.58,1.08-1.98l153.67-88.37c.68-.39,1.52-.38,2.19.02.67.41,1.07,1.14,1.04,1.93L778.52,719.84c-.03.74-.43,1.41-1.08,1.78L664.61,786.76c-.33.19-.7.29-1.08.29l.01.01Zm-21.2-430.81L665.5,781.29L774.26,718.5l17.22-448.01-149.15,85.76h.01Z" fill="#3384bd"/><path d="M663.541,787.06c-.37,0-.74-.1-1.08-.29l-101.46-58.58c-.63-.36-1.03-1.02-1.07-1.75l-23.43-429.86c-.04-.79.35-1.54,1.02-1.95s1.52-.42,2.2-.03l101.46,58.58c.63.36,1.03,1.02,1.07,1.75l23.43,429.86c.04.79-.35,1.54-1.02,1.95-.35.21-.74.32-1.13.32h.01Zm-99.37-62.01l97,56-23.15-424.72-97-56l23.15,424.72Z" fill="#3384bd"/></g></g></g></g><path d="M1026.77,232.98c-.75,0-1.47-.39-1.87-1.08-.59-1.03-.23-2.35.8-2.94l.33-.19c1.03-.59,2.35-.23,2.94.8s.23,2.35-.8,2.94l-.33.19c-.34.19-.7.28-1.07.28Z" fill="#3384bd"/><path d="M1376.04,310.36c-9.52,0-17.26-7.74-17.26-17.26s7.74-17.26,17.26-17.26s17.26,7.74,17.26,17.26-7.74,17.26-17.26,17.26Zm0-30.91c-7.53,0-13.65,6.12-13.65,13.65s6.12,13.65,13.65,13.65s13.65-6.12,13.65-13.65-6.12-13.65-13.65-13.65Z" fill="#3384bd"/><path d="M1307.63,1156.24c-.86,0-1.69-.44-2.15-1.24-.68-1.19-.28-2.7.91-3.38l33.85-19.54c1.19-.68,2.7-.28,3.38.91s.28,2.7-.91,3.38l-33.85,19.54c-.39.23-.82.33-1.24.33h.01Z" fill="#3384bd"/><path d="M1341.47,1156.24c-.42,0-.85-.11-1.24-.33l-33.85-19.54c-1.19-.68-1.59-2.2-.91-3.38.68-1.19,2.2-1.59,3.38-.91l33.85,19.54c1.19.68,1.59,2.2.91,3.38-.46.79-1.29,1.24-2.15,1.24h.01Z" fill="#3384bd"/><path d="M533.17,1263.39c-.86,0-1.69-.44-2.15-1.24-.68-1.19-.28-2.7.91-3.38l45.2-26.1c1.19-.68,2.7-.28,3.38.91s.28,2.7-.91,3.38l-45.2,26.1c-.39.23-.82.33-1.24.33h.01Z" fill="#3384bd"/><path d="M578.37,1263.39c-.42,0-.85-.11-1.24-.33l-45.2-26.1c-1.19-.68-1.59-2.2-.91-3.38.68-1.19,2.2-1.59,3.38-.91l45.2,26.1c1.19.68,1.59,2.2.91,3.38-.46.79-1.29,1.24-2.15,1.24h.01Z" fill="#3384bd"/><path d="M369.551,549.18v48.39c0,2.98-.26,5.74-.73,8.25-1.34,6.84-4.36,11.81-8.53,14.51l-.11.06-.58.34c-5.01,2.87-11.53,2.58-18.65-1.54l-50.13-28.94-17.39,10.04-17.39-30.12-50.14-28.95c-2.5-1.45-4.93-3.27-7.24-5.4-12.29-11.38-21.36-31.51-21.36-49.24v-48.39c0-11.84,4.05-20.09,10.4-23.41l.08-.04.62-.3c2.99-1.38,6.46-1.69,10.26-.82c1.54.36,3.13.9,4.77,1.66.8.38,1.64.8,2.47,1.29l135.06,77.97c15.8,9.12,28.6,33.59,28.6,54.64h-.01Z" fill="#e0e7f7"/><g style="mix-blend-mode:screen" opacity="0.5"><path d="M198.661,413.61v122.2c-12.29-11.38-21.36-31.51-21.36-49.24v-48.39c0-11.84,4.05-20.09,10.4-23.41l.08-.04.62-.3c2.99-1.38,6.46-1.69,10.26-.82Z" fill="#fff"/></g><path d="M352.32,625.101c-3.99,0-8.27-1.26-12.6-3.76l-48.9-28.23-16.15,9.32c-1.18.68-2.7.28-3.38-.91l-17.06-29.55-49.57-28.62c-16.45-9.5-29.83-34.97-29.83-56.78v-48.39c0-12.35,4.26-21.68,11.7-25.59.06-.03.14-.08.19-.1l.62-.3c5.07-2.32,10.99-2.03,17.15.83.9.42,1.8.89,2.66,1.39l135.06,77.98c16.45,9.5,29.84,34.97,29.84,56.79v48.39c0,3.07-.26,6-.78,8.71-1.44,7.42-4.77,12.99-9.62,16.13-.03.02-.07.04-.11.06l-.68.39c-2.59,1.49-5.47,2.23-8.52,2.23l-.02.01Zm-61.51-37.33c.43,0,.86.11,1.24.33l50.14,28.95c6.06,3.5,11.81,4.04,16.18,1.53l.62-.36c3.66-2.39,6.22-6.84,7.4-12.87.46-2.4.69-5.01.69-7.77v-48.39c0-20.24-12.27-43.79-27.36-52.5l-135.06-77.98c-.74-.43-1.51-.83-2.27-1.18-4.8-2.22-9.28-2.52-12.95-.84l-.5.24c0,0-.07.04-.08.05-5.77,3.01-9.07,10.75-9.07,21.22v48.39c0,20.24,12.27,43.78,27.35,52.49l50.15,28.95c.38.22.69.53.91.91l16.15,27.97l15.24-8.8c.38-.22.81-.33,1.24-.33l-.02-.01Z" fill="#3384bd"/><path d="M394.94,534.53v48.39c0,12.95-4.84,21.61-12.25,24.21l-22.4,13.21c4.17-2.7,7.2-7.68,8.53-14.51.48-2.51.74-5.26.74-8.25v-48.39c0-21.05-12.81-45.52-28.6-54.64L205.9,416.57c-.83-.48-1.66-.91-2.46-1.28-5.65-2.62-10.82-2.78-15.03-.85l22.64-13.01c5.18-3.93,12.33-4.08,20.24.49L366.35,479.9c15.79,9.12,28.6,33.59,28.6,54.64l-.01-.01Z" fill="#fff"/><path d="M360.281,622.81c-.83,0-1.64-.42-2.11-1.18-.71-1.15-.37-2.65.76-3.38c3.69-2.39,6.27-6.85,7.45-12.9.46-2.4.69-5.01.69-7.77v-48.39c0-20.24-12.27-43.79-27.36-52.5l-135.06-77.98c-.74-.43-1.51-.83-2.27-1.18-4.8-2.23-9.28-2.52-12.95-.84-1.2.55-2.63.06-3.23-1.12-.61-1.18-.18-2.62.97-3.28l22.51-12.94c6.15-4.58,14.46-4.43,22.85.41l135.06,77.98c16.45,9.5,29.84,34.97,29.84,56.79v48.39c0,13.44-5.1,23.31-13.67,26.46l-22.21,13.09c-.39.23-.83.34-1.26.34h-.01ZM199.051,411.17c1.77.4,3.58,1.02,5.41,1.87.9.42,1.8.89,2.66,1.39l135.06,77.98c16.45,9.5,29.84,34.97,29.84,56.79v48.39c0,3.07-.26,6-.78,8.71-.39,2.02-.93,3.91-1.59,5.65l11.77-6.94c.14-.08.29-.15.45-.21c6.63-2.33,10.59-10.51,10.59-21.87v-48.39c0-20.24-12.27-43.79-27.36-52.5l-135.06-77.98c-6.73-3.89-12.94-4.12-17.5-.66-.08.06-.17.12-.26.17l-13.22,7.6h-.01Z" fill="#3384bd"/><path d="M359.61,623.201c-.86,0-1.69-.44-2.15-1.24-.68-1.19-.28-2.7.91-3.38l.68-.39c1.18-.68,2.7-.28,3.39.9.68,1.18.28,2.7-.9,3.39l-.68.39c-.39.23-.82.33-1.24.33h-.01Z" fill="#3384bd"/><path d="M246.73,503.629c0,7.27-5.11,10.22-11.41,6.59-6.3-3.64-11.41-12.48-11.41-19.76s5.11-10.22,11.41-6.59s11.41,12.48,11.41,19.76Z" fill="#fff"/><path d="M240.42,514.26c-2,0-4.15-.64-6.34-1.9-7.09-4.09-12.65-13.71-12.65-21.9c0-4.44,1.63-7.83,4.58-9.53c2.95-1.71,6.7-1.42,10.54.8c7.09,4.09,12.65,13.71,12.65,21.9c0,4.44-1.63,7.83-4.58,9.53-1.27.74-2.69,1.1-4.21,1.1h.01ZM230.23,484.8c-.65,0-1.24.14-1.73.42-1.34.77-2.1,2.68-2.1,5.24c0,6.36,4.66,14.43,10.17,17.61c2.22,1.28,4.25,1.57,5.59.8s2.1-2.68,2.1-5.24c0-6.36-4.66-14.43-10.17-17.61-1.4-.81-2.73-1.22-3.86-1.22Z" fill="#3384bd"/><path d="M281.488,533.011c4.452-2.57,4.451-10.909-.003-18.623-4.454-7.715-11.675-11.885-16.127-9.314-4.453,2.57-4.452,10.909.002,18.624c4.454,7.714,11.675,11.884,16.128,9.313Z" fill="#fff"/><path d="M278.519,536.26c-2,0-4.15-.64-6.34-1.9-7.09-4.09-12.65-13.71-12.65-21.9c0-4.44,1.63-7.83,4.58-9.53c2.95-1.71,6.7-1.42,10.54.8c7.09,4.09,12.65,13.71,12.65,21.9c0,4.44-1.63,7.83-4.58,9.53-1.27.74-2.69,1.1-4.21,1.1h.01Zm-10.19-29.46c-.65,0-1.24.14-1.73.42-1.34.77-2.1,2.68-2.1,5.24c0,6.36,4.66,14.43,10.17,17.61c2.22,1.28,4.25,1.57,5.59.8s2.1-2.68,2.1-5.24c0-6.36-4.66-14.43-10.17-17.61-1.4-.81-2.73-1.22-3.86-1.22Z" fill="#3384bd"/><path d="M319.589,555.015c4.453-2.57,4.452-10.909-.002-18.624-4.454-7.714-11.675-11.884-16.128-9.314-4.453,2.571-4.452,10.91.002,18.624c4.455,7.715,11.675,11.885,16.128,9.314Z" fill="#fff"/><path d="M316.621,558.25c-2,0-4.15-.64-6.34-1.9-7.09-4.09-12.65-13.71-12.65-21.9c0-4.44,1.63-7.83,4.58-9.53c2.95-1.71,6.7-1.42,10.54.8c7.09,4.09,12.65,13.72,12.65,21.9c0,4.44-1.63,7.83-4.58,9.53-1.27.74-2.69,1.1-4.21,1.1h.01Zm-10.19-29.46c-.65,0-1.24.14-1.73.42-1.34.77-2.1,2.68-2.1,5.24c0,6.36,4.66,14.43,10.17,17.61c2.22,1.28,4.25,1.57,5.59.8s2.1-2.68,2.1-5.24c0-6.36-4.66-14.43-10.17-17.61-1.4-.81-2.73-1.22-3.86-1.22Z" fill="#3384bd"/><g style="mix-blend-mode:multiply"><path d="M1465.51,976.531c38.09,0,68.97-17.828,68.97-39.82s-30.88-39.82-68.97-39.82-68.97,17.828-68.97,39.82s30.88,39.82,68.97,39.82Z" fill="#ebf3f8"/></g><path d="M1436.84,760.05c1.19,1.3,2.39,2.52,3.58,3.67c26.41,25.56,51.18,16.83,61.25,11.41c3.05-1.64,4.75-2.98,4.75-2.98-4.68-11.85-6.68-38.77-4.17-57.48-10.34-12.66-33.4-39.55-8.35-48.71c2.74-1,5.53-.48,8.29,1.14-.04-.08-.1-.15-.15-.22-5.19-7.03-16.23-13.13-22.82-16.36l-.47,9.21c-11.38,6.44-20.85-.11-20.34-2.63.26-1.35,1.23-6.35,2.07-10.7-1.12,0-2.29.04-3.49.12-3.8.22-6.76,1.96-9.03,4.72-8.56,10.36-7.5,35.19-6.02,48.35.22,1.98.33,4.35.33,6.99c0,19.48-5.43,53.47-5.43,53.47Z" fill="#3384bd"/><path d="M1478.57,783.52c-11.54,0-25.51-4.13-39.87-18.02-1.36-1.31-2.56-2.55-3.69-3.77-.51-.56-.74-1.32-.62-2.06.05-.34,5.4-34.02,5.4-53.08c0-2.57-.11-4.83-.31-6.72-1.26-11.18-3.13-38.47,6.57-50.2c2.86-3.48,6.49-5.37,10.8-5.61c1.23-.08,2.46-.13,3.63-.13.74,0,1.44.33,1.91.9s.66,1.32.52,2.05c-.54,2.82-1.14,5.91-1.57,8.11l-.42,2.15c.39.49,1.6,1.53,3.76,2.23c2.15.69,6.4,1.4,11.66-1.16l.39-7.8c.04-.83.5-1.59,1.22-2.01s1.6-.46,2.35-.09c7.93,3.88,18.48,10,23.73,17.12.04.05.22.27.38.59.49.98.27,2.16-.53,2.91s-2,.88-2.94.33c-2.27-1.33-4.3-1.64-6.19-.95-5.23,1.91-8.25,4.63-9.26,8.3-2.81,10.29,10.54,26.58,17.71,35.33l.96,1.18c.43.53.63,1.22.54,1.9-2.41,18-.49,44.81,4.02,56.24.4,1.02.09,2.18-.77,2.85-.08.06-1.9,1.5-5.11,3.22-4.85,2.61-13.5,6.21-24.28,6.21l.01-.02Zm-39.1-24.28c.83.87,1.71,1.76,2.67,2.69c8.47,8.2,31.1,25.67,58.36,11.01c1.22-.66,2.22-1.27,2.94-1.74-4.27-12.76-6.01-37.76-3.79-55.79l-.28-.35c-8.28-10.11-22.15-27.02-18.66-39.78c1.44-5.27,5.59-9.18,12.34-11.65.62-.23,1.25-.4,1.89-.51-4.15-3.44-9.27-6.47-13.43-8.67l-.27,5.39c-.04.85-.52,1.61-1.25,2.03-8.77,4.96-16.81,3.15-21.04.09-2.24-1.62-3.31-3.57-2.95-5.36l.5-2.58c.27-1.42.62-3.21.98-5.06-.1,0-.2.01-.3.02-2.94.17-5.31,1.42-7.28,3.82-2.21,2.68-9.13,13.92-5.47,46.5.23,2.07.34,4.51.34,7.27c0,17.62-4.3,46.37-5.28,52.66l-.02.01Zm21.38-101.7v.02c0,0,0-.01,0-.02Z" fill="#3384bd"/><g mask="url(#eUJKFhpcmjO126)"><g><path d="M1527.25,572.289h-104.19v104.19h104.19v-104.19Z" fill="#fff"/></g><mask id="eUJKFhpcmjO126" mask-type="luminance" x="-150%" y="-150%" height="400%" width="400%"><path d="M1458.41,657.11c-.51,2.52,8.96,9.07,20.34,2.63l.46-9.21l1-20.18h-.01c-3.23,6.69-11.37,12.34-19.32,13.91-.14.68-.27,1.4-.41,2.15-.83,4.35-1.81,9.34-2.07,10.7h.01Z" fill="#fff"/></mask></g><path d="M1468.9,664.979c-4.14,0-7.63-1.31-9.97-3-2.23-1.62-3.31-3.57-2.96-5.35l.52-2.68c.42-2.19,1.01-5.23,1.55-8.01.14-.74.27-1.47.41-2.17.2-.98.97-1.75,1.95-1.95c7.37-1.46,14.76-6.74,17.57-12.56.41-.86,1.28-1.4,2.23-1.4.68,0,1.33.28,1.8.77s.72,1.15.69,1.83l-1.46,29.39c-.04.85-.52,1.61-1.25,2.03-3.93,2.22-7.71,3.09-11.08,3.09v.01Zm-7.97-7.84c.38.49,1.6,1.53,3.76,2.23c2.15.69,6.4,1.4,11.66-1.16l.99-19.94c-3.86,3.72-8.99,6.67-14.33,8.06-.03.18-.07.36-.1.54-.54,2.81-1.13,5.85-1.55,8.04l-.43,2.24v-.01Z" fill="#3384bd"/><g mask="url(#eUJKFhpcmjO132)"><g><path d="M1527.25,572.289h-104.19v104.19h104.19v-104.19Z" fill="#fff"/></g><mask id="eUJKFhpcmjO132" mask-type="luminance" x="-150%" y="-150%" height="400%" width="400%"><path d="M1452.16,644.109c2.68.75,5.69.75,8.73.15c7.95-1.57,16.09-7.22,19.32-13.91h.01c.15-.3.29-.62.41-.92-2.85-1.76-6.94-5.66-7.51-7.48-.81-2.53.1-11.89.1-11.89s-7.25,3.42-15.72,3.42c-2.71,0-5.01-.92-6.69-2.39c0,0-9.66,29.94,1.35,33.03v-.01Z" transform="translate(.000001 0)" fill="#fff"/></mask></g><path d="M1456.65,647.169c-1.82,0-3.56-.23-5.15-.67-2.24-.63-4.05-2.13-5.24-4.34-4.9-9.13,1.46-29.54,2.2-31.83.26-.79.89-1.41,1.7-1.63.8-.22,1.67-.02,2.29.53c1.33,1.16,3.07,1.78,5.06,1.78c7.82,0,14.6-3.15,14.66-3.18.81-.38,1.75-.3,2.48.21s1.13,1.38,1.04,2.26c-.41,4.26-.6,9.64-.2,10.9.38,1.01,3.72,4.43,6.46,6.13c1.03.64,1.45,1.92.99,3.04-.15.36-.31.73-.49,1.09-.03.07-.07.13-.11.2-3.56,7.13-12.13,13.29-20.96,15.04-1.61.32-3.2.48-4.72.48l-.01-.01Zm-3.82-5.45c2.2.62,4.82.65,7.58.11c6.96-1.38,13.94-6.17,17.06-11.6-2.64-2.02-5.98-5.22-6.71-7.54-.58-1.82-.5-5.76-.32-8.92-3.11,1.02-7.8,2.19-12.95,2.19-1.88,0-3.64-.36-5.24-1.05-1.94,7.08-4.48,19.63-1.64,24.91.56,1.04,1.26,1.64,2.21,1.91l.01-.01Z" fill="#3384bd"/><path d="M1450.81,611.08c1.68,1.48,3.98,2.39,6.69,2.39c8.47,0,15.72-3.42,15.72-3.42s-.9,9.36-.1,11.89c.57,1.82,4.67,5.72,7.51,7.48c1.08.67,2,1.04,2.46.88c1.71-.6,4.23-4.53,4.73-16.53.51-11.99-5.76-19.59-18.03-20.26-2.9-.16-13.5-1.51-19.35,4.75-3.98,4.24-3.2,9.74.36,12.82h.01Z" fill="#76add3"/><path d="M1482.84,632.82c-.99,0-2.12-.42-3.52-1.29-2.58-1.6-7.65-5.92-8.57-8.84-.58-1.82-.5-5.76-.32-8.92-3.11,1.02-7.8,2.19-12.95,2.19-3.2,0-6.08-1.04-8.32-3-2.3-1.99-3.7-4.83-3.86-7.8-.16-3.08,1.02-6.13,3.32-8.59c6.19-6.63,16.6-5.86,20.52-5.58.3.02.56.04.77.05c13.33.73,20.94,9.27,20.37,22.84-.46,10.96-2.67,17.45-6.39,18.76-.34.12-.7.18-1.07.18h.02Zm-9.63-25.24c.5,0,1,.15,1.43.45.73.51,1.12,1.38,1.04,2.26-.41,4.26-.6,9.64-.2,10.9.38,1.01,3.72,4.43,6.46,6.13.24.15.43.26.59.34.66-.91,2.41-4.17,2.83-13.99.46-10.83-5.12-17.11-15.69-17.68-.24-.01-.53-.03-.86-.06-3.27-.24-11.96-.87-16.54,4.02-1.39,1.48-2.08,3.19-1.99,4.94.09,1.65.85,3.18,2.16,4.31c0,0,0,0,.01.01c1.33,1.16,3.07,1.78,5.06,1.78c7.78,0,14.6-3.15,14.67-3.19.33-.16.69-.23,1.05-.23l-.02.01Z" fill="#3384bd"/><path d="M1449.54,926.67c.4.29.81.56,1.23.79c9.19,5.42,21.55.62,21.55.62c12.7-44.34,7.25-72.96,7.25-72.96s6.07-15.93,11.59-30.85c2.96-7.99,5.75-15.69,7.36-20.54c4.64-13.9,3.16-28.59,3.16-28.59-10.07,5.42-34.85,14.15-61.25-11.41c0,0-1.81,41.62,15.12,73.61-.55,8.18-.88,16.23-.77,22.83.41,23.98-5.24,66.51-5.24,66.51v-.01Z" fill="#76add3"/><path d="M1461.24,932.52c-3.78,0-7.96-.71-11.73-2.93-.4-.22-.89-.53-1.43-.92-.74-.53-1.12-1.43-1-2.33.06-.42,5.62-42.62,5.22-66.14-.1-5.97.15-13.49.73-22.34-16.69-32.11-15.15-72.53-15.08-74.25.04-.97.65-1.83,1.56-2.19s1.94-.16,2.64.52c8.47,8.19,31.1,25.67,58.35,11.01.73-.39,1.61-.39,2.34,0s1.22,1.12,1.3,1.94c.06.62,1.48,15.39-3.28,29.63-1.43,4.29-3.91,11.22-7.39,20.61-4.84,13.1-10.17,27.12-11.36,30.24.77,4.8,4.34,32.29-7.43,73.4-.21.74-.76,1.35-1.48,1.63-.35.13-5.61,2.14-11.98,2.14l.02-.02Zm-9.04-7.1c6.55,3.69,15.06,1.64,18.09.72c11.94-42.57,6.9-70.29,6.84-70.57-.09-.45-.04-.919.12-1.349.06-.16,6.13-16.081,11.58-30.831c3.46-9.34,5.92-16.23,7.33-20.46c3.06-9.18,3.35-18.84,3.23-23.93-11.17,4.97-33.06,10.09-56.52-9.73.18,12.22,2.01,42.601,14.86,66.891.22.41.31.87.28,1.32-.6,9.03-.86,16.639-.76,22.629.36,21.28-4.05,57.37-5.06,65.3l.01.01Z" fill="#3384bd"/><path d="M1455.54,839.809c-.06,0-.11,0-.17,0-1.37-.09-2.4-1.27-2.31-2.64c1.41-21.31,4.27-43.84,4.3-44.07.17-1.36,1.42-2.32,2.77-2.14c1.36.17,2.32,1.41,2.14,2.77-.03.22-2.87,22.61-4.27,43.77-.09,1.31-1.18,2.31-2.47,2.31h.01Z" fill="#3384bd"/><path d="M1479.57,855.11l35.87,34.46h.03l13.86-12.9c.27-.64.48-1.31.63-2.01c0,0-25.6-41.35-38.8-50.4-5.51,14.93-11.59,30.85-11.59,30.85Z" fill="#76add3"/><path d="M1515.44,892.05c-.63,0-1.25-.23-1.72-.68l-35.87-34.46c-.72-.69-.95-1.74-.6-2.67.06-.16,6.13-16.08,11.58-30.83.26-.72.85-1.27,1.57-1.5.73-.23,1.52-.11,2.15.32c13.48,9.25,38.45,49.43,39.51,51.14.34.54.45,1.2.32,1.83-.19.87-.45,1.7-.77,2.46-.14.32-.34.61-.59.84l-13.86,12.89c-.18.17-.38.31-.6.41-.35.17-.73.25-1.11.25h-.01Zm-32.98-37.58l33.01,31.71l11.75-10.93c.02-.06.04-.12.06-.18-3.55-5.65-22.99-36.16-34.99-46.75-4.12,11.1-8.32,22.17-9.83,26.14v.01Z" fill="#3384bd"/><path d="M1430.67,966.169c4.97,2.7,21.75.41,28.74-8.73s13.44-10.88,14.65-12.96c1.2-2.09-1.75-16.4-1.75-16.4s-12.35,4.8-21.55-.62c0,0-4.12,9.82-14.6,21.92-10.48,12.08-10.48,14.11-5.5,16.79h.01Z" fill="#fff"/><path d="M1436.64,969.689c-3,0-5.53-.47-7.15-1.34-2.05-1.1-4-2.46-4.45-4.89-.59-3.22,1.49-6.74,9.25-15.7c10.06-11.61,14.15-21.16,14.19-21.25.28-.66.83-1.17,1.51-1.39s1.42-.15,2.04.22c8.07,4.75,19.28.49,19.39.44.68-.26,1.44-.22,2.08.13s1.1.96,1.24,1.68c2.09,10.11,2.58,16.21,1.47,18.14-.73,1.24-2,2.07-3.75,3.2-2.7,1.75-6.77,4.39-11.08,10.03-5.73,7.49-16.83,10.75-24.74,10.75v-.02Zm15.28-38.89c-1.88,3.71-6.21,11.34-13.88,20.2-2.09,2.41-8.46,9.75-8.12,11.56.01.07.17.47,1.93,1.42c3.85,2.09,19.37.08,25.59-8.06c4.83-6.32,9.52-9.36,12.33-11.17.78-.5,1.72-1.11,2.08-1.45.23-1.54-.48-6.9-1.43-12.04-4,1.07-11.62,2.39-18.49-.47l-.01.01Z" fill="#3384bd"/><path d="M1515.04,932.31c9.28,1.61,18.14-19.61,19.85-28.88c1.71-9.28,6.62-14.91,5.54-16.92-1.08-2.02-11.08-9.84-11.08-9.84h-.03c-3.16,8.29-13.23,12.64-13.86,12.9h-.03c0,0-.4,9.7-1.48,14-1.07,4.3-8.2,27.14,1.08,28.74h.01Z" fill="#fff"/><path d="M1516.04,934.87c-.47,0-.94-.04-1.42-.12-2.07-.36-3.77-1.5-4.92-3.29-3.61-5.66-1.29-16.81,1.45-26.97.17-.63.31-1.15.4-1.52c1.01-4.01,1.4-13.39,1.41-13.49.04-.91.57-1.73,1.39-2.13.05-.02.12-.06.17-.08.1-.04,9.66-4.06,12.49-11.48.22-.59.66-1.06,1.22-1.34.85-.42,1.9-.33,2.65.26c3.89,3.04,10.59,8.46,11.74,10.62c1.09,2.03.04,4.29-1.42,7.42-1.27,2.74-3.02,6.5-3.87,11.12-1.7,9.21-10.37,30.99-21.29,31Zm1.8-43.68c-.16,2.96-.6,9.49-1.48,12.97-.1.39-.24.94-.43,1.61-3.3,12.23-4,19.97-2.06,23.01.4.63.88.95,1.58,1.07.2.03.4.05.6.05c6.53,0,14.66-17.59,16.39-26.94.97-5.24,2.87-9.33,4.25-12.31.54-1.16,1.19-2.56,1.36-3.24-.95-1.15-4.37-4.1-7.87-6.93-3.47,5.76-9.58,9.31-12.36,10.69l.02.02Z" fill="#3384bd"/><g mask="url(#eUJKFhpcmjO150)"><g><path d="M1417.79,805.464l-93.33,128.731l128.73,93.325l93.33-128.733-128.73-93.323Z" fill="#fff"/><path d="M1511.1,676.745l-93.32,128.732L1546.51,898.8l93.32-128.732-128.73-93.323Z" fill="#fff"/></g><mask id="eUJKFhpcmjO150" mask-type="luminance" x="-150%" y="-150%" height="400%" width="400%"><path d="M1515.47,889.57c.63-.26,10.7-4.61,13.86-12.89l-13.86,12.89Z" fill="#fff"/></mask></g><path d="M1515.47,892.049c-.82,0-1.62-.41-2.09-1.14-.65-1.01-.48-2.34.4-3.15l13.86-12.89c.84-.78,2.12-.88,3.07-.24.96.64,1.34,1.86.93,2.94-3.59,9.4-14.75,14.1-15.23,14.29-.31.13-.63.19-.95.19h.01Z" fill="#3384bd"/><g mask="url(#eUJKFhpcmjO156)"><g><path d="M1423.07,676.471h-104.19v104.19h104.19v-104.19Z" fill="#fff"/></g><mask id="eUJKFhpcmjO156" mask-type="luminance" x="-150%" y="-150%" height="400%" width="400%"><path d="M1376.64,755.15c4.56,11.37,15.99,6.02,15.99,6.02c6.75-3.5,9.59-15.73,9.59-15.73l-7.37-9.37c0,0-22.77,7.72-18.21,19.09v-.01Z" fill="#fff"/></mask></g><path d="M1386.64,764.901c-1.55,0-3.23-.23-4.88-.89-3.34-1.32-5.83-3.99-7.42-7.94-1.12-2.8-1.04-5.62.23-8.4c3.97-8.61,18.85-13.74,19.48-13.96.99-.34,2.09-.01,2.74.81l7.37,9.37c.47.59.64,1.36.47,2.09-.13.54-3.19,13.39-10.86,17.37-.03.02-.06.03-.09.05-.18.08-3.24,1.49-7.04,1.49v.01Zm-7.7-10.67c1.07,2.67,2.59,4.37,4.64,5.18c3.51,1.38,7.55-.28,7.97-.46c4.16-2.21,6.92-9.28,7.97-12.94l-5.5-6.99c-4.5,1.78-12.71,5.87-14.94,10.74-.7,1.53-.75,2.95-.13,4.48l-.01-.01Z" fill="#3384bd"/><g mask="url(#eUJKFhpcmjO163)"><g><path d="M1527.25,676.471h-104.19v104.19h104.19v-104.19Z" fill="#fff"/><path d="M1631.44,676.471h-104.19v104.19h104.19v-104.19Z" fill="#fff"/></g><mask id="eUJKFhpcmjO163" mask-type="luminance" x="-150%" y="-150%" height="400%" width="400%"><path d="M1533.62,779.42c12.12,1.75,13.23-10.82,13.23-10.82.34-7.61-8.82-16.18-8.82-16.18L1525.66,758c-.75,6.77-1.05,20.14,7.96,21.43v-.01Z" fill="#fff"/></mask></g><path d="M1535.87,782.069c-.84,0-1.71-.06-2.6-.19-8.1-1.16-11.67-9.73-10.07-24.15.1-.87.65-1.62,1.44-1.99l12.37-5.58c.91-.41,1.98-.23,2.71.45.41.38,10,9.46,9.61,18.11c0,.04,0,.07,0,.11-.02.28-.65,6.81-5.46,10.62-2.22,1.75-4.89,2.64-7.99,2.64l-.01-.02Zm-7.89-22.4c-.5,5.8-.49,16.38,5.99,17.3c2.85.41,5.08-.05,6.81-1.42c2.95-2.34,3.54-6.67,3.6-7.13.16-4.56-4.2-10.19-6.9-13.04l-9.5,4.29Z" fill="#3384bd"/><path d="M1394.85,736.06l7.37,9.37c0,0,25.35-13.31,31.13-20.3c2.42-2.96,7.09-9.28,8.92-18.54c0-2.64-.11-5.01-.33-6.99-1.48-13.16-2.54-37.99,6.02-48.35-17.79,15.61-26.3,51.1-30.33,57.35-3.64,5.64-22.78,27.46-22.78,27.46Z" fill="#3384bd"/><path d="M1402.23,747.911c-.74,0-1.47-.33-1.95-.95l-7.37-9.37c-.74-.94-.7-2.27.08-3.17.19-.22,19.06-21.75,22.56-27.17.96-1.49,2.46-5.57,4.2-10.29c4.94-13.41,13.21-35.85,26.58-47.58.97-.85,2.43-.82,3.36.08s1.01,2.36.18,3.36c-2.21,2.67-9.12,13.91-5.47,46.49.23,2.07.34,4.51.34,7.27c0,.16-.02.32-.05.48-1.41,7.1-4.58,13.7-9.43,19.63-6.03,7.3-30.84,20.37-31.89,20.93-.37.19-.76.28-1.15.28l.01.01Zm-4.16-11.77l4.82,6.13c7.97-4.29,24.42-13.72,28.55-18.72c4.27-5.21,7.08-11,8.35-17.21c0-2.47-.11-4.65-.31-6.47-.85-7.56-1.98-22.49.38-34.99-7.06,11.02-12.07,24.61-15.46,33.81-1.99,5.41-3.43,9.31-4.69,11.26-3.16,4.9-17.17,21.06-21.64,26.2v-.01Z" fill="#3384bd"/><path d="M1502.25,714.68c2.05,2.53,3.61,4.49,4.17,5.62c3.43,6.85,19.24,37.69,19.24,37.69l12.37-5.58c0,0-7.81-28.68-13.86-48.3-4.62-14.98-13.09-31.77-21.97-36.99-2.76-1.63-5.55-2.15-8.29-1.15-25.05,9.15-2,36.05,8.35,48.71h-.01Z" fill="#3384bd"/><path d="M1525.66,760.47c-.9,0-1.77-.5-2.21-1.35-.16-.31-15.85-30.93-19.25-37.71-.48-.98-2.45-3.4-3.88-5.17l-.95-1.17c-8.28-10.11-22.15-27.02-18.66-39.78c1.44-5.27,5.59-9.19,12.34-11.65c3.32-1.21,6.82-.77,10.39,1.32.08.04.15.09.22.15c10.04,6.09,18.58,24.38,22.87,38.27c5.99,19.43,13.8,48.09,13.88,48.38.32,1.18-.26,2.41-1.37,2.91l-12.37,5.58c-.33.15-.68.22-1.02.22h.01Zm-28.9-92.53c-.69,0-1.35.12-2.01.36-5.22,1.91-8.25,4.63-9.26,8.3-2.81,10.29,10.54,26.58,17.71,35.33l.96,1.18c2.26,2.79,3.8,4.72,4.47,6.09c2.86,5.71,14.53,28.5,18.14,35.56l8.29-3.74c-1.9-6.9-8.24-29.83-13.28-46.18-4.38-14.18-12.52-30.68-20.86-35.59-.06-.04-.12-.07-.18-.12-1.42-.8-2.74-1.2-4-1.2l.02.01Z" fill="#3384bd"/><path d="M284.6,313.36c-.15,0-.29-.01-.44-.04-1.35-.24-2.24-1.53-2-2.88c13.35-74.29,49.86-144.84,102.8-198.64C437.91,57.9998,507.86,20.3698,581.93,5.82976c49.55-9.72,92.95-7.28,129,7.28004c29.76,12.01,54.12,33.32,68.52,58.56c39.81-15.59,84.98-15.81,124.95-.43c41.94,16.13,76.63,48.8602,95.18,89.8002.56,1.25.01,2.72-1.23,3.28-1.25.57-2.71.01-3.28-1.23-18.01-39.76-51.71-71.5502-92.44-87.2202-38.62-14.86-82.26-14.72-120.78.2c5.47,10.6,9.19,21.82,10.85,33.2702c1.99,13.75.68,25.6-3.9,35.22-5.74,12.06-17.03,20.16-28.74,20.64-9.14.37-17.65-3.89-24-12.01-7.9-10.1-10.79-24.2-7.37-35.92c6.52-22.3502,28.02-35.8102,44.9-43.1702.42-.18.84-.36,1.26-.54-13.88-24.03-37.24-44.34-65.75-55.85-35.14-14.19004-77.6-16.54004-126.19-7.01-73.1,14.34-142.14,51.49-194.39,104.5802-52.25,53.1-88.29,122.72-101.46,196.04-.22,1.2-1.26,2.04-2.44,2.04h-.02ZM777.23,77.9298c-.56.24-1.12.48-1.68.72-15.91,6.94-36.14,19.51-42.13,40.0102-2.99,10.24-.43,22.6,6.51,31.48c5.34,6.82,12.4,10.42,19.9,10.11c9.9-.4,19.51-7.4,24.47-17.82c4.15-8.72,5.32-19.62,3.47-32.38-1.6-11.0602-5.22-21.8902-10.55-32.1202h.01Z" transform="translate(0 26)" fill="#3384bd" stroke-dashoffset="2329.25" stroke-dasharray="2329.25"/><g style="mix-blend-mode:multiply"><path d="M908.291,1227.23c41.918,0,75.9-19.62,75.9-43.82s-33.982-43.82-75.9-43.82c-41.919,0-75.9,19.62-75.9,43.82s33.981,43.82,75.9,43.82Z" fill="#245e86"/></g><path d="M984.191,1162.77v-21.61h-9.88c-3.3-3.35-7.4-6.51-12.36-9.37-29.64-17.11-77.7-17.11-107.34,0-4.95,2.86-9.06,6.02-12.36,9.37h-9.87v21.61c0,11.21,7.41,22.43,22.23,30.98c29.64,17.11,77.7,17.11,107.34,0c14.82-8.56,22.23-19.77,22.23-30.99l.01.01Z" fill="#e0e7f7"/><path d="M908.29,1209.01c-19.89,0-39.77-4.37-54.91-13.11-15.13-8.74-23.47-20.5-23.47-33.13v-21.61c0-1.37,1.11-2.48,2.48-2.48h8.85c3.4-3.31,7.47-6.35,12.14-9.04c30.28-17.48,79.54-17.48,109.81,0c4.67,2.69,8.74,5.73,12.14,9.04h8.85c1.37,0,2.48,1.11,2.48,2.48v21.61c0,12.63-8.33,24.39-23.47,33.13s-35.02,13.11-54.91,13.11h.01Zm-73.42-65.37v19.13c0,10.78,7.45,21.02,20.99,28.84c28.91,16.69,75.95,16.69,104.86,0c13.54-7.82,20.99-18.06,20.99-28.84v-19.13h-7.4c-.66,0-1.3-.27-1.77-.74-3.22-3.28-7.2-6.29-11.83-8.96-28.91-16.69-75.95-16.69-104.86,0-4.62,2.67-8.6,5.69-11.83,8.97-.47.47-1.1.74-1.77.74h-7.4l.02-.01Z" fill="#3384bd"/><path d="M908.291,1184.98c41.918,0,75.9-19.62,75.9-43.82s-33.982-43.82-75.9-43.82c-41.919,0-75.9,19.62-75.9,43.82s33.981,43.82,75.9,43.82Z" fill="#fff"/><path d="M908.29,1187.23c-19.85,0-39.71-4.36-54.82-13.09-15.08-8.71-23.38-20.42-23.38-32.98s8.3-24.28,23.38-32.98c30.23-17.45,79.41-17.45,109.64,0c15.08,8.71,23.38,20.42,23.38,32.98s-8.31,24.28-23.38,32.98c-15.11,8.73-34.97,13.09-54.82,13.09Zm0-87.6c-19.02,0-38.04,4.18-52.51,12.54-13.59,7.85-21.08,18.14-21.08,28.99s7.49,21.14,21.08,28.99c28.96,16.72,76.07,16.72,105.03,0c13.59-7.85,21.08-18.14,21.08-28.99s-7.49-21.14-21.08-28.99c-14.48-8.36-33.5-12.54-52.52-12.54Z" fill="#3384bd"/><path d="M882.409,1151.78c-.79,0-1.55-.38-2.02-1.04-.55-.78-.609-1.8-.149-2.64l9.73-17.56c.66-1.2,2.169-1.63,3.369-.97s1.63,2.17.97,3.37l-7.22,13.02l54.94-9.69c1.35-.24,2.63.66,2.87,2.01s-.66,2.63-2.01,2.87l-60.06,10.59c-.14.03-.29.04-.43.04h.01Z" fill="#3285bd" stroke-dashoffset="172.91" stroke-dasharray="172.91"/><g id="eUJKFhpcmjO180_ts" transform="translate(1094.832744,1011.520003) scale(0,0)"><g transform="translate(-1094.832744,-1011.520001)"><g transform="translate(0 0.000001)"><g transform="translate(.000001 0)"><path d="M1118.94,953.06c0,23.21-7.52,40.05-19.9,48.98-.97.71-1.98,1.36-3.03,1.97l-.76.44c-.97.54-1.97,1.03-2.98,1.48l-.03.02c-13.91,6.16-32.18,4.2-52.18-7.349-43.551-25.15-78.871-86.311-78.871-136.611c0-24.18,8.16-41.44,21.47-50.06l.13-.079l2.84-1.651.08-.03c14.15-7.39,33.291-5.89,54.361,6.28c9.36,5.39,18.34,12.47,26.69,20.74c22.1,21.94,39.63,52.311,47.57,82.411c3,11.34,4.63,22.659,4.63,33.459h-.02Z" fill="#ffd969"/><path d="M1075.32,1011.51c-11.25,0-23.67-3.72-36.35-11.04-44.08-25.449-79.95-87.569-79.95-138.469c0-24.08,7.97-42.5,22.45-51.87l.15-.1l2.9-1.69c.08-.05.17-.09.26-.13c15.39-7.98,35.39-5.72,56.33,6.38c9.28,5.35,18.41,12.44,27.13,21.07c22.51,22.35,40.06,52.75,48.13,83.39c3.12,11.81,4.7,23.25,4.7,34.01c0,23.03-7.38,41.05-20.79,50.729-.97.72-2.03,1.4-3.22,2.09l-.75.44c-1.04.58-2.11,1.11-3.21,1.59-5.45,2.41-11.44,3.61-17.81,3.61l.03-.01ZM986.57,812.141l-2.78,1.62c-13.18,8.53-20.46,25.67-20.46,48.23c0,49.53,34.9,109.97,77.79,134.74c18.63,10.759,36.48,13.329,50.24,7.239c1.01-.44,1.95-.91,2.84-1.4l.72-.42c1.06-.61,1.98-1.21,2.84-1.84c12.27-8.859,19.02-25.629,19.02-47.249c0-10.39-1.53-21.46-4.56-32.91-7.89-29.93-25.02-59.61-47-81.43-8.45-8.37-17.28-15.23-26.25-20.4-19.67-11.36-38.24-13.58-52.28-6.24-.04.02-.08.04-.12.06Z" fill="#3384bd"/><path d="M985.61,810.199l-2.84,1.65c.92-.6,1.87-1.14,2.84-1.65Z" fill="#ffd969"/><path d="M982.77,814.01c-.72,0-1.43-.36-1.83-1.02-.61-.99-.32-2.29.65-2.93.88-.58,1.87-1.15,3.02-1.76c1.04-.54,2.32-.16,2.89.87s.21,2.32-.8,2.9l-2.84,1.65c-.34.2-.71.29-1.08.29h-.01Z" fill="#3384bd"/><path d="M1219.86,894.801c0,26.53-9.82,44.74-25.51,52.33l-.05.03-98.29,56.849c1.05-.6,2.06-1.25,3.03-1.97c12.38-8.929,19.9-25.769,19.9-48.979c0-10.81-1.63-22.12-4.63-33.46-7.93-30.1-25.47-60.47-47.57-82.41-8.35-8.27-17.33-15.34-26.69-20.74-21.07-12.17-40.201-13.68-54.361-6.28l97.741-56.4c14.39-9.42,34.84-8.68,57.55,4.43c43.57,25.15,78.89,86.31,78.89,136.61l-.01-.01Z" fill="#ff9361"/></g><g transform="translate(0 0.000001)"><g style="mix-blend-mode:screen" opacity="0.5"><path d="M1109.29,747.42c1.9,4.08,7.94,10.03,19.89,18.49c64.29,45.42,75.78,114.15,75.4,141.81-.37,27.22-13.9,41.22-14.32,41.65l4-2.31c15.73-7.56,25.6-25.79,25.6-52.37c0-50.3-35.32-111.47-78.88-136.61-11.28-6.51-21.99-9.97-31.7-10.65l.01-.01Z" fill="#fff"/></g><g><path d="M1096.01,1006.16c-.74,0-1.47-.39-1.87-1.08-.59-1.03-.24-2.35.79-2.94l.12-.07c.99-.58,1.88-1.15,2.7-1.76c12.27-8.859,19.02-25.629,19.02-47.249c0-10.39-1.53-21.461-4.56-32.911-7.89-29.93-25.02-59.609-47-81.429-8.45-8.37-17.28-15.23-26.25-20.4-19.67-11.36-38.24-13.58-52.281-6.24-1.04.54-2.32.16-2.88-.87s-.2-2.32.81-2.9l97.681-56.37c15.55-10.15,37.33-8.55,59.75,4.4c44.09,25.45,79.96,87.57,79.96,138.47c0,26.21-9.7,45.959-26.61,54.209-.01,0-.02.01-.03.02l-98.14,56.76c-.05.03-.1.06-.16.09-.34.19-.71.29-1.07.29l.02-.02Zm-91.18-202.639c11.2,0,23.57,3.72,36.3,11.07c9.28,5.35,18.41,12.44,27.13,21.07c22.51,22.35,40.06,52.75,48.13,83.39c3.12,11.81,4.7,23.25,4.7,34.01c0,16.22-3.66,29.94-10.5,40.03l82.59-47.77c.08-.05.17-.1.23-.13c15.44-7.46,24.3-25.83,24.3-50.39c0-49.53-34.91-109.98-77.81-134.74-21.3-12.3-40.94-13.89-55.29-4.49-.03.02-.07.04-.1.06l-83.2,48.02c1.16-.08,2.34-.13,3.52-.13Z" fill="#3384bd"/><path d="M1203.63,553.34c0,79.44-27,114.38-64.12,139.88-4.36,3-8.89,5.87-13.52,8.68-29.37,17.77-30.05,82.69-30.05,82.69L982.039,718.84c0,0-11.31-79.24,27.241-110.48c38.55-31.24,81.35-50.23,83.82-84.33c2.48-34.1-13.09-86.38-56.94-111.7-43.851-25.32-63.311-6.33-72.141,13.06l-78.89-88.41c0,0,11.93-29.19,39.68-47.22l8.23-4.76c14.3-7.27,32.1-11.28,53.79-8.01c15.661,2.33,33.351,8.49,53.221,19.96c21.93,12.66,41.93,27.94,59.83,44.92h.02c43,40.73,73.87,91.25,90.23,138.81c8.89,25.75,13.5,50.63,13.5,72.65v.01Z" fill="#ffd969"/><path d="M1095.94,786.75c-.37,0-.74-.1-1.08-.29l-113.9-65.75c-.57-.33-.96-.91-1.06-1.56-.03-.2-2.84-20.32-.85-44.01c2.66-31.63,12.64-55.29,28.87-68.45c10.04-8.13,20.25-15.37,30.14-22.36c27.44-19.42,51.13-36.2,52.89-60.45c1.32-18.24-2.66-39.42-10.92-58.11-9.95-22.5-25.49-40.33-44.95-51.56-18.67-10.78-34.36-14.26-46.63-10.33-9.52,3.05-17.09,10.59-22.48,22.42-.3.66-.92,1.13-1.64,1.24s-1.45-.15-1.93-.7l-78.89-88.41c-.55-.61-.7-1.49-.39-2.25.5-1.22,12.51-30.03,40.5-48.21.03-.02.06-.04.1-.06l8.23-4.76c0,0,.07-.04.1-.06c16.64-8.46,35.17-11.22,55.08-8.22c16.94,2.52,35.1,9.33,53.97,20.22c21.25,12.27,41.47,27.44,60.09,45.08.06.04.11.09.16.14c40.89,38.73,73.13,88.34,90.79,139.68c8.91,25.82,13.62,51.19,13.62,73.35c0,37.61-6.01,67.43-18.38,91.16-10.21,19.59-25.04,35.63-46.66,50.49-4.05,2.78-8.51,5.65-13.62,8.75-28,16.94-29.01,80.24-29.01,80.88c0,.77-.42,1.47-1.09,1.85-.33.19-.7.28-1.07.28h.01Zm-111.9-69.24l109.86,63.42c.62-14.21,4.68-64.96,30.98-80.87c5.04-3.06,9.43-5.87,13.41-8.61c32.82-22.55,63.18-54.88,63.18-138.1c0-21.69-4.63-46.57-13.38-71.95-17.41-50.64-49.2-99.57-89.53-137.81-.06-.04-.11-.09-.16-.14-18.41-17.47-38.41-32.48-59.43-44.62-18.4-10.62-36.05-17.25-52.46-19.69-18.99-2.86-36.63-.24-52.44,7.78l-8.13,4.7c-23.64,15.37-35.68,39.35-38.28,44.98l75.82,84.97c5.82-11.3,13.76-18.63,23.66-21.79c13.47-4.31,30.33-.71,50.1,10.7c20.26,11.7,36.42,30.22,46.74,53.55c8.54,19.31,12.65,41.24,11.28,60.17-1.91,26.28-26.37,43.6-54.7,63.65-9.83,6.96-19.99,14.15-29.91,22.19-34.84,28.23-27.72,98.15-26.6,107.47h-.01Z" fill="#3384bd"/><path d="M1304.57,495.07c0,88.84-33.78,122.01-77.65,148.56-29.37,17.79-30.05,82.71-30.05,82.71l-10.98,6.33-89.95,51.93c0,0,.68-64.92,30.05-82.69c4.63-2.82,9.16-5.68,13.52-8.68c37.11-25.49,64.12-60.43,64.12-139.87c0-22.02-4.62-46.9-13.51-72.65-16.35-47.57-47.23-98.09-90.23-138.81h-.02c-17.89-16.98-37.9-32.26-59.83-44.92-19.87-11.48-37.56-17.63-53.221-19.96-21.7-3.27-39.5.74-53.79,8.01L1014.38,238l.04-.02c0,0,.04-.02.06-.03l12.27-7.1c24.83-15.68,62.01-22.28,114.2,7.87c103.12,59.51,163.6,176.73,163.6,256.36l.02-.01Z" fill="#ff9361"/></g><g style="mix-blend-mode:screen" opacity="0.5"><path d="M1304.57,495.07c0,88.84-33.78,122.01-77.65,148.56-29.37,17.79-30.05,82.71-30.05,82.71l-10.98,6.33c-5.44-51.14,16.5-90.89,48.69-108.82c54.85-30.57,88.36-158.89,1.5-273.7-86.88-114.82-137.32-115.86-165.67-119.32-33.27-4.06-54.3,6.27-55.9,7.1l12.27-7.1c24.83-15.68,62.01-22.28,114.2,7.87c103.12,59.51,163.6,176.73,163.6,256.36l-.01.01Z" fill="#fff"/></g></g></g><path d="M1095.94,786.75c-.38,0-.75-.1-1.09-.29-.67-.39-1.07-1.11-1.07-1.88.03-2.7,1.04-66.33,31.09-84.51c5.29-3.21,9.55-5.95,13.41-8.61c32.82-22.55,63.19-54.88,63.19-138.1c0-21.69-4.63-46.57-13.39-71.95-17.41-50.63-49.19-99.56-89.51-137.8-.06-.05-.12-.1-.18-.15-18.41-17.47-38.4-32.48-59.42-44.62-18.41-10.63-36.05-17.26-52.459-19.7-19.02-2.87-36.68-.24-52.5,7.8-1.04.53-2.31.13-2.87-.89-.56-1.03-.2-2.31.81-2.89l81.349-47.03c0,0,.08-.04.11-.06l.04-.02l12.21-7.06c14.43-9.12,30.58-13.69,47.93-13.54c21.11.18,44.14,7.38,68.42,21.41c61.21,35.33,99.72,85.51,121.24,121.39c27.6,46.02,43.44,95.9,43.44,136.83s-7.42,73.86-22.69,98.76c-15.25,24.87-36.86,40.06-56,51.63-28,16.96-29.01,80.26-29.01,80.89c0,.76-.42,1.46-1.08,1.84l-10.82,6.24c-.05.04-.1.07-.16.1l-89.95,51.92c-.33.19-.71.29-1.08.29h.04Zm5.26-446.58c.06.05.12.1.18.15c40.89,38.73,73.13,88.33,90.78,139.68c8.91,25.82,13.63,51.18,13.63,73.35c0,37.61-6.01,67.43-18.39,91.16-10.21,19.59-25.04,35.63-46.67,50.48-3.93,2.71-8.26,5.49-13.62,8.75-23.98,14.51-28.16,63-28.88,77.04l86.42-49.88c.05-.04.1-.07.16-.1l9.93-5.73c.25-9.41,2.94-66.26,31.06-83.3c47.3-28.62,76.61-63.14,76.61-146.71c0-40.18-15.61-89.25-42.82-134.62-21.26-35.44-59.28-85.01-119.7-119.88-43.15-24.93-80.82-27.59-111.97-7.91l-12.34,7.14c0,0-.09.05-.13.07l-61.619,35.62c10.57-2.16,21.72-2.37,33.34-.62c16.929,2.52,35.089,9.32,53.969,20.23c21.25,12.27,41.46,27.43,60.07,45.07l-.01.01Z" fill="#3384bd"/></g></g></svg>
