<svg width="120" height="126" viewBox="0 0 120 126" fill="none" xmlns="http://www.w3.org/2000/svg">
<path d="M87.5 37.5C87.5 41.1114 86.7887 44.6873 85.4067 48.0238C84.0247 51.3602 81.999 54.3918 79.4454 56.9454C76.8918 59.499 73.8602 61.5247 70.5238 62.9067C67.1873 64.2887 63.6114 65 60 65L60 37.5H87.5Z" fill="#15374F"/>
<path d="M60 116C53.4339 116 46.9321 114.707 40.8658 112.194C34.7995 109.681 29.2876 105.998 24.6447 101.355C20.0017 96.7124 16.3188 91.2004 13.806 85.1342C11.2933 79.0679 10 72.5661 10 66L60 66L60 116Z" fill="#3384BD"/>
</svg>
