<svg id="erKg8ebvBNM1" xmlns="http://www.w3.org/2000/svg" xmlns:xlink="http://www.w3.org/1999/xlink" viewBox="0 0 879 430" shape-rendering="geometricPrecision" text-rendering="geometricPrecision" project-id="f94bc39dc9a8409fa2dc7f24d07611cc" export-id="11915e5322274fa08798610e6f1804aa" cached="false">
<style><![CDATA[
#erKg8ebvBNM5 {animation: erKg8ebvBNM5_c_o 10000ms linear infinite normal forwards}@keyframes erKg8ebvBNM5_c_o { 0% {opacity: 1} 87.5% {opacity: 1} 100% {opacity: 0}} #erKg8ebvBNM8_to {animation: erKg8ebvBNM8_to__to 10000ms linear infinite normal forwards}@keyframes erKg8ebvBNM8_to__to { 0% {transform: translate(425.515763px,41.257934px)} 18.75% {transform: translate(425.515763px,41.257934px)} 31.25% {transform: translate(425.515763px,236.26px)} 100% {transform: translate(425.515763px,236.26px)}} #erKg8ebvBNM8_tr {animation: erKg8ebvBNM8_tr__tr 10000ms linear infinite normal forwards}@keyframes erKg8ebvBNM8_tr__tr { 0% {transform: rotate(10deg)} 18.75% {transform: rotate(10deg)} 31.25% {transform: rotate(0deg)} 100% {transform: rotate(0deg)}} #erKg8ebvBNM8 {animation: erKg8ebvBNM8_c_o 10000ms linear infinite normal forwards}@keyframes erKg8ebvBNM8_c_o { 0% {opacity: 0} 18.75% {opacity: 0} 25% {opacity: 1} 50% {opacity: 1} 56.25% {opacity: 0.3} 60% {opacity: 1} 65% {opacity: 0.2} 68.75% {opacity: 1} 75% {opacity: 1} 100% {opacity: 1}} #erKg8ebvBNM11_to {animation: erKg8ebvBNM11_to__to 10000ms linear infinite normal forwards}@keyframes erKg8ebvBNM11_to__to { 0% {transform: translate(177.189266px,79.183579px)} 12.5% {transform: translate(177.189266px,214.18px)} 100% {transform: translate(177.189266px,214.18px)}} #erKg8ebvBNM11_tr {animation: erKg8ebvBNM11_tr__tr 10000ms linear infinite normal forwards}@keyframes erKg8ebvBNM11_tr__tr { 0% {transform: rotate(-24deg)} 12.5% {transform: rotate(0deg)} 100% {transform: rotate(0deg)}} #erKg8ebvBNM11 {animation: erKg8ebvBNM11_c_o 10000ms linear infinite normal forwards}@keyframes erKg8ebvBNM11_c_o { 0% {opacity: 0} 6.25% {opacity: 1} 50% {opacity: 1} 53.75% {opacity: 0.6} 58.75% {opacity: 1} 63.75% {opacity: 0.4} 68.75% {opacity: 1} 75% {opacity: 1} 100% {opacity: 1}} #erKg8ebvBNM14_to {animation: erKg8ebvBNM14_to__to 10000ms linear infinite normal forwards}@keyframes erKg8ebvBNM14_to__to { 0% {transform: translate(440.009002px,39.049988px)} 12.5% {transform: translate(440.009002px,39.049988px)} 25% {transform: translate(440.009002px,358.05px)} 100% {transform: translate(440.009002px,358.05px)}} #erKg8ebvBNM14_tr {animation: erKg8ebvBNM14_tr__tr 10000ms linear infinite normal forwards}@keyframes erKg8ebvBNM14_tr__tr { 0% {transform: rotate(-9.55109deg)} 12.5% {transform: rotate(-9.55109deg)} 25% {transform: rotate(0deg)} 100% {transform: rotate(0deg)}} #erKg8ebvBNM14 {animation: erKg8ebvBNM14_c_o 10000ms linear infinite normal forwards}@keyframes erKg8ebvBNM14_c_o { 0% {opacity: 0} 12.5% {opacity: 0} 18.75% {opacity: 1} 52.5% {opacity: 1} 56.25% {opacity: 0.4} 62.5% {opacity: 1} 66.25% {opacity: 0.4} 75% {opacity: 1} 100% {opacity: 1}} #erKg8ebvBNM17_to {animation: erKg8ebvBNM17_to__to 10000ms linear infinite normal forwards}@keyframes erKg8ebvBNM17_to__to { 0% {transform: translate(326.899384px,39.026062px)} 6.25% {transform: translate(326.899384px,39.026062px)} 18.75% {transform: translate(326.899384px,310.03px)} 100% {transform: translate(326.899384px,310.03px)}} #erKg8ebvBNM17_tr {animation: erKg8ebvBNM17_tr__tr 10000ms linear infinite normal forwards}@keyframes erKg8ebvBNM17_tr__tr { 0% {transform: rotate(3.880362deg)} 6.25% {transform: rotate(3.880362deg)} 18.75% {transform: rotate(0deg)} 100% {transform: rotate(0deg)}} #erKg8ebvBNM17 {animation: erKg8ebvBNM17_c_o 10000ms linear infinite normal forwards}@keyframes erKg8ebvBNM17_c_o { 0% {opacity: 0} 6.25% {opacity: 0} 12.5% {opacity: 1} 47.5% {opacity: 1} 51.25% {opacity: 0.4} 53.75% {opacity: 1} 58.75% {opacity: 0.3} 62.5% {opacity: 1} 75% {opacity: 1} 100% {opacity: 1}} #erKg8ebvBNM20_to {animation: erKg8ebvBNM20_to__to 10000ms linear infinite normal forwards}@keyframes erKg8ebvBNM20_to__to { 0% {transform: translate(566.003082px,36.997925px)} 25% {transform: translate(566.003082px,36.997925px)} 37.5% {transform: translate(566.003082px,295px)} 100% {transform: translate(566.003082px,295px)}} #erKg8ebvBNM20_tr {animation: erKg8ebvBNM20_tr__tr 10000ms linear infinite normal forwards}@keyframes erKg8ebvBNM20_tr__tr { 0% {transform: rotate(-12.914736deg)} 25% {transform: rotate(-12.914736deg)} 37.5% {transform: rotate(0deg)} 100% {transform: rotate(0deg)}} #erKg8ebvBNM20 {animation: erKg8ebvBNM20_c_o 10000ms linear infinite normal forwards}@keyframes erKg8ebvBNM20_c_o { 0% {opacity: 0} 25% {opacity: 0} 31.25% {opacity: 1} 50% {opacity: 1} 53.75% {opacity: 0.3} 57.5% {opacity: 1} 63.75% {opacity: 0.5} 67.5% {opacity: 1} 75% {opacity: 1} 100% {opacity: 1}} #erKg8ebvBNM23_to {animation: erKg8ebvBNM23_to__to 10000ms linear infinite normal forwards}@keyframes erKg8ebvBNM23_to__to { 0% {transform: translate(703.925354px,30.998078px)} 31.25% {transform: translate(703.925354px,30.998078px)} 43.75% {transform: translate(703.925354px,221px)} 100% {transform: translate(703.925354px,221px)}} #erKg8ebvBNM23_tr {animation: erKg8ebvBNM23_tr__tr 10000ms linear infinite normal forwards}@keyframes erKg8ebvBNM23_tr__tr { 0% {transform: rotate(20.544032deg)} 31.25% {transform: rotate(20.544032deg)} 43.75% {transform: rotate(0deg)} 100% {transform: rotate(0deg)}} #erKg8ebvBNM23 {animation: erKg8ebvBNM23_c_o 10000ms linear infinite normal forwards}@keyframes erKg8ebvBNM23_c_o { 0% {opacity: 0} 31.25% {opacity: 0} 37.5% {opacity: 1} 56.25% {opacity: 1} 58.75% {opacity: 0.6} 62.5% {opacity: 1} 65% {opacity: 0.3} 68.75% {opacity: 1} 75% {opacity: 1} 100% {opacity: 1}}
]]></style>
<defs><linearGradient id="erKg8ebvBNM7-fill" x1="439.044" y1="156.934" x2="439.044" y2="368.442" spreadMethod="pad" gradientUnits="userSpaceOnUse" gradientTransform="translate(0 0)"><stop id="erKg8ebvBNM7-fill-0" offset="0%" stop-color="rgba(70,129,170,0)"/><stop id="erKg8ebvBNM7-fill-1" offset="68.75%" stop-color="#146ca9"/></linearGradient><linearGradient id="erKg8ebvBNM7-stroke" x1="439.044" y1="156.934" x2="439.044" y2="368.442" spreadMethod="pad" gradientUnits="userSpaceOnUse" gradientTransform="translate(0 0)"><stop id="erKg8ebvBNM7-stroke-0" offset="0%" stop-color="rgba(70,129,170,0)"/><stop id="erKg8ebvBNM7-stroke-1" offset="68.75%" stop-color="#146ca9"/></linearGradient></defs><g id="erKg8ebvBNM5" clip-path="url(#erKg8ebvBNM26)"><g><path d="M56.2578,47.5605c-.2013-4.8304,3.3852-9.5855,10.1924-13.2646l.0039-.002L115.05,6.94434l.004-.00293c3.757-2.2133,8.481-3.99894,13.838-5.22559c5.355-1.226478,11.205-1.862646,17.129-1.860351h.002C243.394,-1.21536,341.46,-1.75,439.518,-1.75c98.057,0,196.114.53465,293.447,1.605469h.003c5.924-.002378,11.774.632962,17.131,1.859371c5.357,1.22662,10.083,3.0132,13.84,5.22657l.005.00293L812.548,34.293l.004.0019c6.589,3.5627,10.16,8.1334,10.198,12.8047l-.008.4522v170.5242c.057,2.265-.734,4.527-2.354,6.679l-.003.005c-59.187,82.013-180.312,148.713-360.082,198.224l-.003.001c-6.296,1.809-13.479,2.765-20.798,2.765s-14.502-.956-20.798-2.765l-.003-.001C238.931,373.472,117.805,306.777,58.6152,224.76l-.0029-.005c-1.5184-2.017-2.308-4.132-2.3545-6.254v-170.9297h.001l-.001-.0108Z" fill="url(#erKg8ebvBNM7-fill)" stroke="url(#erKg8ebvBNM7-stroke)" stroke-width="0.5"/><g id="erKg8ebvBNM8_to" transform="translate(425.515763,41.257934)"><g id="erKg8ebvBNM8_tr" transform="rotate(10)"><g id="erKg8ebvBNM8" transform="translate(-425.515762,-236.257934)" opacity="0"><rect width="159.8" height="58" rx="29" ry="29" transform="matrix(0.971013 -0.239027 0.239027 0.971013 341.00002 227.196824)" fill="#15374f"/><path d="M389.501,251.303l-3.012-12.235l1.468-.361l3.012,12.235-1.468.361Zm3.992-.983l-2.156-8.756l1.329-.327.47,1.534c.145-.617.441-1.147.888-1.59.447-.444,1.002-.748,1.666-.911.676-.167,1.299-.172,1.869-.015.567.144,1.059.462,1.476.952.418.491.731,1.161.94,2.012l1.278,5.191-1.468.361-1.239-5.033c-.218-.886-.574-1.503-1.067-1.851-.497-.36-1.1-.452-1.811-.277-.501.123-.92.356-1.256.698-.324.34-.547.765-.668,1.277-.109.509-.082,1.095.081,1.76l1.136,4.614-1.468.361Zm13.48-3.318c-.524.129-.999.159-1.424.091-.424-.069-.789-.269-1.093-.602-.296-.348-.525-.853-.689-1.517l-1.196-4.859-1.521.374-.305-1.241l1.521-.374-.325-2.145l1.276-.314.517,2.097l2.551-.628.306,1.241-2.552.628l1.196,4.859c.135.548.338.893.608,1.037.267.132.68.129,1.24-.009l.926-.228.31,1.259-1.346.331Zm7.06-1.515c-.827.203-1.607.198-2.34-.018-.736-.226-1.374-.638-1.917-1.233-.533-.61-.911-1.37-1.135-2.279-.23-.932-.247-1.781-.052-2.545.192-.777.561-1.436,1.107-1.978.558-.545,1.262-.923,2.113-1.132s1.626-.196,2.327.039c.7.235,1.284.623,1.751,1.163.478.537.807,1.173.988,1.907.029.117.06.245.095.385.031.128.061.275.09.441l-7.236,1.781-.28-1.136l5.803-1.428c-.233-.796-.654-1.353-1.264-1.673-.602-.334-1.269-.41-2.003-.23-.502.124-.939.355-1.313.694-.376.328-.646.74-.807,1.237-.151.494-.145,1.068.015,1.72l.121.49c.175.71.456,1.278.845,1.701.388.423.828.704,1.32.843.488.127.977.13,1.466.01.606-.15,1.074-.407,1.405-.772.339-.38.542-.832.611-1.356l1.451-.357c-.02.573-.152,1.113-.399,1.618-.249.494-.606.928-1.07,1.302-.452.371-1.016.639-1.692.806Zm10.427,1.511c-.793.195-1.518.262-2.175.202-.655-.049-1.209-.24-1.661-.574-.442-.336-.738-.813-.89-1.431-.063-.256-.08-.548-.049-.877.042-.332.161-.676.357-1.034.208-.36.534-.718.977-1.074l1.16.344c-.542.406-.873.796-.99,1.171-.107.372-.125.698-.056.978.094.384.284.678.568.879.297.199.653.316,1.069.349.427.031.892-.016,1.393-.139.489-.12.896-.301,1.22-.541.327-.229.558-.496.692-.801.135-.305.161-.627.078-.965-.097-.396-.332-.696-.704-.901-.369-.194-.978-.211-1.829-.051-.699.123-1.291.201-1.777.234-.475.03-.882.032-1.223.004-.332-.042-.619-.107-.864-.195-.232-.091-.449-.192-.649-.303l-.099-.402l1.296-2.117l1.37.144-1.356,2.021.076-.668c.151.062.295.119.432.172.136.053.311.084.523.094.224.006.517-.01.878-.05.361-.039.839-.107,1.433-.204.806-.137,1.476-.153,2.008-.049.544.101.967.312,1.268.633.313.318.532.728.655,1.229.12.489.097.996-.071,1.519-.156.52-.484.996-.983,1.428s-1.192.757-2.077.975Zm-1.691-6.795c-.735.181-1.398.196-1.991.046-.582-.154-1.064-.431-1.447-.831-.382-.4-.646-.891-.789-1.474-.141-.571-.134-1.122.019-1.654.165-.535.469-1.006.913-1.412.441-.417,1.029-.716,1.763-.897s1.393-.188,1.978-.023c.581.153,1.063.43,1.446.83s.644.886.785,1.457c.143.582.138,1.14-.015,1.672s-.452,1.001-.896,1.407c-.443.405-1.032.699-1.766.879Zm-.297-1.206c.617-.152,1.066-.435,1.347-.85.293-.418.363-.936.211-1.554-.149-.606-.45-1.026-.903-1.26-.442-.238-.971-.28-1.589-.128s-1.078.438-1.383.859c-.292.418-.364.93-.215,1.536.152.618.455,1.044.908,1.278s.994.274,1.624.119Zm.538-3.914l-.743-1.133l3.601-.886.271,1.101-3.129.918Zm6.668,6.33l-2.155-8.757l1.328-.327.536,1.648c.088-.442.25-.84.484-1.194.246-.358.566-.665.959-.922.394-.258.865-.454,1.413-.589l.378,1.538-.472.116c-.384.095-.738.238-1.062.429-.315.176-.579.408-.793.695-.202.285-.331.638-.388,1.06-.048.407-.001.896.139,1.467l1.101,4.474-1.468.362Zm6.575-1.619l-2.155-8.756l1.468-.362l2.156,8.757-1.469.361Zm-1.886-10.825c-.291.072-.559.039-.803-.099-.235-.152-.388-.374-.46-.665s-.036-.547.108-.768c.152-.235.373-.388.665-.46.279-.069.541-.035.785.103.241.126.398.335.469.626.072.291.033.56-.116.807-.152.235-.368.387-.648.456Zm9.372,8.983c-.525.129-.999.159-1.424.091-.425-.069-.789-.27-1.094-.602-.295-.348-.525-.854-.688-1.518l-1.196-4.859-1.521.375-.305-1.241l1.52-.375-.324-2.144l1.276-.315.516,2.098l2.552-.628.306,1.241-2.552.628l1.196,4.859c.135.547.337.893.607,1.037.268.132.681.129,1.24-.009l.927-.228.309,1.258-1.345.332Zm5.257,2.784l.962-5.353-.506.124-5.376-6.926l1.591-.391l4.532,5.984l1.375-7.438l1.521-.375-2.561,13.996-1.538.379Z" fill="#fff"/></g></g></g><g id="erKg8ebvBNM11_to" transform="translate(177.189266,79.183579)"><g id="erKg8ebvBNM11_tr" transform="rotate(-24)"><g id="erKg8ebvBNM11" transform="translate(-177.189266,-214.183578)" opacity="0"><rect width="259.09" height="58" rx="29" ry="29" transform="matrix(0.913545 0.406737 -0.406737 0.913545 70.639449 135.000037)" fill="#15374f"/><path d="M100.456,185.309c-1.1289-.502-1.9948-1.183-2.5973-2.043-.5867-.865-.9071-1.842-.9613-2.93-.0382-1.094.2062-2.233.7333-3.417s1.2077-2.123,2.0415-2.815c.8498-.699,1.7898-1.115,2.8208-1.247c1.047-.138,2.135.044,3.264.547c1.315.586,2.245,1.374,2.789,2.365s.677,2.108.4,3.35l-1.529-.681c.142-.79.039-1.519-.308-2.186-.342-.677-.973-1.221-1.894-1.631-.822-.366-1.626-.494-2.41-.384-.769.105-1.482.437-2.139.999-.642.555-1.1818,1.326-1.6211,2.312-.4393.987-.6531,1.91-.6415,2.769.0275.853.2573,1.605.6894,2.257.4479.646,1.0832,1.153,1.9052,1.519.921.41,1.743.526,2.465.348.728-.188,1.335-.594,1.823-1.217l1.529.68c-.723,1.005-1.635,1.637-2.735,1.896s-2.308.095-3.624-.491Zm9.698,4.318c-.635-.283-1.138-.658-1.509-1.125-.354-.473-.545-1.031-.574-1.674-.018-.639.151-1.358.508-2.158l2.174-4.884l1.381.615-2.108,4.736c-.376.844-.481,1.552-.316,2.125.176.578.599,1.015,1.267,1.313.472.21.937.286,1.397.228.475-.065.912-.264,1.31-.599.415-.341.759-.818,1.032-1.432l1.94-4.358l1.382.615-3.668,8.239-1.25-.557.562-1.483c-.482.403-1.035.642-1.66.719-.62.065-1.243-.041-1.868-.32Zm9.542,4.248c-.669-.297-1.212-.671-1.63-1.119-.402-.455-.663-.959-.785-1.512-.121-.553-.096-1.127.076-1.72l1.415.63c-.066.325-.065.647.003.967.068.319.223.618.467.897.243.279.573.512.99.697.395.176.737.263,1.027.26.306-.008.56-.078.764-.211.219-.139.38-.323.483-.554.151-.339.184-.634.097-.882-.075-.244-.244-.483-.507-.719-.263-.235-.591-.486-.985-.753-.321-.222-.633-.466-.935-.732-.286-.272-.535-.554-.747-.845-.196-.297-.318-.614-.365-.951-.047-.336.014-.696.185-1.08.21-.471.516-.834.919-1.088.418-.261.892-.397,1.423-.41.543-.009,1.121.124,1.735.397.877.391,1.494.922,1.852,1.593.358.672.405,1.435.143,2.29l-1.365-.607c.131-.441.094-.845-.111-1.212-.188-.373-.54-.674-1.056-.904-.515-.229-.956-.301-1.323-.214-.356.091-.609.306-.76.646-.098.219-.107.445-.026.678.08.233.236.473.467.721.247.241.56.498.937.772.493.337.928.689,1.304,1.053.377.365.631.767.763,1.207.144.445.084.963-.18,1.555-.213.509-.537.897-.971,1.164-.434.266-.935.404-1.504.413-.553.004-1.153-.139-1.8-.427Zm8.088,3.365c-.494-.22-.887-.487-1.18-.801-.294-.315-.459-.697-.495-1.147-.02-.455.109-.995.387-1.62l2.035-4.572-1.43-.637.519-1.167l1.431.637l1.059-1.893l1.201.534-.879,1.974l2.401,1.069-.52,1.167-2.401-1.069-2.035,4.572c-.229.515-.281.912-.156,1.191.13.268.458.519.985.754l.871.388-.527,1.184-1.266-.564Zm6.555,3.155c-.768-.342-1.38-.825-1.838-1.449-.453-.635-.716-1.356-.79-2.164-.063-.803.099-1.638.484-2.504.391-.877.911-1.558,1.561-2.044.649-.485,1.359-.767,2.129-.845.786-.083,1.563.046,2.33.388.779.346,1.394.837,1.847,1.472.458.624.718,1.338.781,2.141s-.101,1.643-.491,2.52c-.386.866-.904,1.542-1.553,2.027-.639.491-1.352.778-2.138.862-.77.077-1.544-.058-2.322-.404Zm.527-1.184c.482.215.978.297,1.486.248.508-.05.987-.257,1.438-.621.462-.359.845-.878,1.147-1.558.313-.702.451-1.336.415-1.904-.037-.568-.206-1.057-.509-1.468-.299-.422-.683-.738-1.155-.947-.46-.205-.952-.28-1.476-.224-.508.049-.991.248-1.448.596s-.842.873-1.154,1.575c-.303.68-.433,1.311-.391,1.895s.209,1.078.502,1.484c.303.411.685.719,1.145.924Zm5.592,3.672l3.668-8.238l1.25.556-.429,1.228c.454-.311.953-.489,1.499-.535.551-.057,1.1.037,1.648.281.417.185.774.417,1.071.693.302.266.531.578.687.937.16.347.242.738.245,1.173.51-.377,1.078-.591,1.704-.64.631-.061,1.227.033,1.786.282.646.288,1.152.671,1.518,1.149.37.467.564,1.02.582,1.658.028.643-.135,1.365-.492,2.166l-2.174,4.883-1.365-.607l2.109-4.736c.371-.833.479-1.534.324-2.102-.149-.579-.536-1.007-1.161-1.285-.439-.196-.879-.254-1.321-.175-.443.079-.858.288-1.245.628-.388.34-.721.822-.999,1.447l-1.933,4.341-1.381-.615l2.108-4.736c.371-.833.479-1.533.325-2.101-.149-.579-.537-1.008-1.161-1.286-.417-.185-.852-.241-1.305-.167-.443.079-.858.288-1.245.628-.388.34-.721.822-.999,1.447l-1.933,4.341-1.381-.615Zm18.256,8.365c-.778-.347-1.391-.83-1.837-1.449-.442-.63-.695-1.347-.757-2.15-.047-.809.12-1.641.5-2.496.391-.877.897-1.558,1.52-2.042.628-.496,1.324-.79,2.088-.884.775-.088,1.563.046,2.363.402.8.357,1.405.843,1.814,1.458.409.616.632,1.28.669,1.993.048.717-.081,1.421-.389,2.112-.048.11-.102.23-.161.362-.053.12-.12.255-.199.404l-6.808-3.031.476-1.069l5.459,2.43c.304-.771.313-1.469.027-2.096-.27-.632-.75-1.102-1.441-1.41-.471-.21-.958-.295-1.462-.257-.498.028-.964.189-1.396.482-.422.298-.77.754-1.043,1.368l-.205.461c-.298.668-.423,1.289-.376,1.862.047.572.222,1.064.526,1.475.308.4.692.702,1.152.907.57.254,1.098.338,1.583.252.501-.093.939-.325,1.314-.696l1.365.608c-.367.441-.803.785-1.307,1.033-.5.238-1.048.362-1.644.372-.584.016-1.195-.118-1.831-.401Zm5.783,2.338l3.668-8.238l1.25.556-.588,1.63c.342-.295.713-.51,1.116-.646.413-.132.854-.178,1.323-.14s.961.172,1.476.401l-.644,1.447-.444-.198c-.362-.161-.729-.265-1.102-.313-.357-.054-.708-.033-1.053.063-.334.101-.652.301-.956.599-.288.292-.551.707-.79,1.244l-1.874,4.21-1.382-.615Zm7.993-1.525l.52-1.168l6.511,2.9-.519,1.167-6.512-2.899Zm11.968,10.648c-1.129-.502-1.995-1.183-2.598-2.043-.586-.865-.907-1.842-.961-2.93-.038-1.094.206-2.233.733-3.417s1.208-2.123,2.042-2.815c.849-.699,1.79-1.115,2.821-1.247c1.046-.138,2.134.044,3.263.547c1.316.586,2.246,1.374,2.79,2.365s.677,2.108.399,3.35l-1.529-.681c.142-.79.04-1.519-.307-2.186-.342-.677-.974-1.221-1.894-1.631-.823-.366-1.626-.494-2.411-.384-.769.105-1.482.437-2.139.999-.641.555-1.181,1.326-1.621,2.312-.439.987-.653,1.91-.641,2.769.027.853.257,1.605.689,2.257.448.646,1.083,1.152,1.906,1.519.92.41,1.742.526,2.465.348.727-.188,1.335-.594,1.823-1.217l1.529.68c-.723,1.005-1.635,1.637-2.735,1.896-1.101.259-2.309.095-3.624-.491Zm10.356,4.611c-.779-.346-1.391-.829-1.838-1.449-.442-.63-.694-1.346-.757-2.149-.047-.809.12-1.641.501-2.497.39-.877.897-1.557,1.52-2.042.627-.495,1.323-.79,2.087-.883.775-.088,1.563.045,2.363.402.8.356,1.405.842,1.814,1.458.409.615.632,1.279.67,1.992.048.718-.082,1.422-.389,2.113-.049.109-.103.23-.161.361-.054.121-.121.256-.2.404l-6.808-3.031.476-1.069l5.46,2.431c.304-.771.313-1.47.027-2.096-.27-.633-.751-1.103-1.441-1.41-.472-.21-.959-.296-1.462-.257-.499.027-.964.188-1.397.481-.422.299-.769.755-1.043,1.369l-.205.46c-.297.669-.423,1.289-.376,1.862.048.573.223,1.065.526,1.475.308.4.692.703,1.152.908.571.253,1.098.337,1.583.251.501-.092.939-.324,1.315-.695l1.364.607c-.367.441-.802.786-1.307,1.034-.5.237-1.048.361-1.643.372-.585.015-1.196-.119-1.831-.402Zm5.783,2.338l3.668-8.238l1.249.556-.569,1.501c.492-.399,1.051-.636,1.676-.712s1.25.024,1.875.303c.636.283,1.131.661,1.485,1.134.359.462.553,1.014.582,1.658.029.643-.135,1.365-.491,2.165l-2.174,4.884-1.382-.615l2.109-4.736c.371-.833.468-1.538.292-2.116-.172-.589-.592-1.032-1.26-1.329-.472-.21-.945-.283-1.42-.219-.464.069-.901.269-1.311.599-.399.335-.737.814-1.015,1.439l-1.933,4.341-1.381-.615Zm12.682,5.647c-.494-.22-.887-.487-1.18-.801-.294-.315-.459-.697-.495-1.147-.02-.455.109-.996.387-1.62l2.035-4.572-1.431-.637.52-1.167l1.431.637l1.059-1.893l1.201.534-.879,1.974l2.401,1.069-.52,1.167-2.401-1.069-2.035,4.572c-.229.515-.281.912-.156,1.191.13.268.458.519.985.754l.871.388-.527,1.184-1.266-.564Zm3.151,1.403l3.668-8.238l1.25.556-.588,1.63c.341-.295.713-.51,1.115-.646.414-.132.855-.178,1.324-.14s.961.172,1.476.401l-.644,1.447-.444-.198c-.362-.161-.729-.265-1.102-.313-.357-.054-.708-.033-1.053.063-.334.101-.652.301-.956.599-.288.292-.551.707-.79,1.244l-1.875,4.21-1.381-.615Zm6.186,2.754l3.668-8.238l1.381.615-3.668,8.238-1.381-.615Zm5.149-9.707c-.274-.122-.465-.312-.573-.57-.092-.265-.078-.534.044-.808s.308-.454.556-.541c.265-.092.534-.077.808.045.263.117.449.305.557.563.113.247.109.508-.013.782s-.318.463-.587.566c-.265.093-.528.081-.792-.037Zm2.299,13.26c-.779-.347-1.4-.84-1.863-1.48-.453-.635-.717-1.357-.79-2.165-.063-.803.096-1.632.476-2.487.386-.866.898-1.544,1.537-2.035.65-.485,1.362-.773,2.137-.861.786-.084,1.568.048,2.346.395.987.439,1.689,1.06,2.106,1.863.434.797.553,1.665.359,2.603l-1.414-.63c.108-.569.013-1.091-.288-1.566s-.736-.84-1.306-1.094c-.461-.205-.947-.277-1.46-.216-.508.049-.993.254-1.455.613-.458.348-.84.867-1.147,1.558-.225.504-.354.985-.387,1.443-.022.463.026.886.145,1.267.135.375.333.7.592.973.27.278.575.492.915.644.384.171.762.266,1.133.287.377.01.728-.056,1.055-.2.342-.15.628-.377.856-.683l1.414.63c-.547.755-1.269,1.241-2.167,1.459-.887.222-1.819.116-2.794-.318Zm5.881,2.381l3.668-8.238l1.381.615-3.668,8.238-1.381-.615Zm5.149-9.706c-.274-.122-.465-.313-.574-.571-.092-.264-.077-.534.045-.808s.307-.454.556-.54c.264-.093.533-.078.808.044.263.117.448.305.557.563.113.248.108.508-.014.782-.122.275-.317.463-.587.567-.264.092-.528.08-.791-.037Zm1.893,12.842c-.493-.22-.887-.487-1.18-.801-.294-.315-.459-.697-.495-1.147-.02-.455.109-.996.387-1.621l2.035-4.571-1.43-.637.519-1.167l1.431.637l1.059-1.893l1.201.534-.879,1.974l2.401,1.068-.52,1.168-2.401-1.069-2.035,4.571c-.229.516-.281.913-.156,1.192.13.268.458.519.985.754l.871.388-.527,1.184-1.266-.564Zm2.445,5.423l4.043-3.638-.477-.212.002-8.767l1.497.666-.091,7.506l5.649-5.031l1.43.637-10.606,9.483-1.447-.644Z" fill="#fff"/></g></g></g><g id="erKg8ebvBNM14_to" transform="translate(440.009002,39.049988)"><g id="erKg8ebvBNM14_tr" transform="rotate(-9.55109)"><g id="erKg8ebvBNM14" transform="translate(-440.009002,-358.049988)" opacity="0"><rect width="169.08" height="58" rx="29" ry="29" transform="translate(355.469 329.05)" fill="#15374f"/><path d="M396.801,364.05v-12.6h4.068c.984,0,1.788.168,2.412.504.624.324,1.086.762,1.386,1.314s.45,1.176.45,1.872c0,.672-.156,1.29-.468,1.854-.3.564-.768,1.014-1.404,1.35s-1.452.504-2.448.504h-2.484v5.202h-1.512Zm6.66,0l-2.772-5.634h1.692l2.862,5.634h-1.782Zm-5.148-6.39h2.448c.96,0,1.662-.234,2.106-.702.456-.468.684-1.068.684-1.8c0-.744-.222-1.332-.666-1.764-.432-.444-1.146-.666-2.142-.666h-2.43v4.932Zm12.554,6.606c-.852,0-1.608-.192-2.268-.576-.66-.396-1.182-.948-1.566-1.656-.372-.72-.558-1.548-.558-2.484c0-.96.186-1.788.558-2.484.372-.708.888-1.26,1.548-1.656.672-.396,1.446-.594,2.322-.594s1.626.198,2.25.594s1.098.912,1.422,1.548c.336.636.504,1.332.504,2.088c0,.12,0,.252,0,.396c0,.132-.006.282-.018.45h-7.452v-1.17h5.976c-.036-.828-.312-1.47-.828-1.926-.504-.468-1.134-.702-1.89-.702-.516,0-.996.12-1.44.36-.444.228-.804.564-1.08,1.008-.264.444-.396,1.002-.396,1.674v.504c0,.732.138,1.35.414,1.854s.636.882,1.08,1.134c.444.24.918.36,1.422.36.624,0,1.14-.138,1.548-.414.42-.288.726-.678.918-1.17h1.494c-.156.552-.414,1.044-.774,1.476-.36.42-.81.756-1.35,1.008-.528.252-1.14.378-1.836.378Zm6.234-.216v-12.96h1.512v12.96h-1.512Zm4.17,0v-9.018h1.512v9.018h-1.512Zm.756-10.962c-.3,0-.552-.096-.756-.288-.192-.204-.288-.456-.288-.756s.096-.54.288-.72c.204-.192.456-.288.756-.288.288,0,.534.096.738.288.204.18.306.42.306.72s-.102.552-.306.756c-.204.192-.45.288-.738.288Zm6.359,11.178c-.744,0-1.362-.126-1.854-.378-.48-.252-.84-.588-1.08-1.008-.24-.432-.36-.9-.36-1.404c0-.612.156-1.128.468-1.548.324-.42.774-.738,1.35-.954.588-.228,1.272-.342,2.052-.342h2.412c0-.564-.09-1.032-.27-1.404-.168-.372-.42-.654-.756-.846s-.744-.288-1.224-.288c-.576,0-1.08.15-1.512.45-.42.288-.678.708-.774,1.26h-1.548c.072-.636.288-1.176.648-1.62.372-.444.84-.78,1.404-1.008.564-.24,1.158-.36,1.782-.36.828,0,1.518.156,2.07.468.564.3.984.726,1.26,1.278.288.54.432,1.182.432,1.926v5.562h-1.35l-.09-1.602c-.12.252-.276.492-.468.72-.18.216-.396.408-.648.576-.24.156-.522.282-.846.378s-.69.144-1.098.144Zm.234-1.278c.432,0,.816-.084,1.152-.252.336-.18.624-.42.864-.72.252-.3.438-.636.558-1.008.12-.384.18-.774.18-1.17v-.036h-2.286c-.576,0-1.044.072-1.404.216-.36.132-.618.318-.774.558s-.234.516-.234.828c0,.324.072.606.216.846.156.24.378.426.666.558.288.12.642.18,1.062.18Zm11.339,1.278c-.504,0-.966-.072-1.386-.216-.408-.144-.774-.342-1.098-.594-.312-.252-.57-.552-.774-.9l-.144,1.494h-1.368v-12.96h1.512v5.436c.288-.456.702-.852,1.242-1.188.54-.348,1.212-.522,2.016-.522.888,0,1.662.21,2.322.63.66.408,1.17.972,1.53,1.692.372.708.558,1.512.558,2.412c0,.912-.186,1.722-.558,2.43-.36.708-.876,1.266-1.548,1.674-.66.408-1.428.612-2.304.612Zm-.162-1.314c.588,0,1.11-.138,1.566-.414.456-.288.81-.684,1.062-1.188.264-.516.396-1.116.396-1.8s-.132-1.278-.396-1.782c-.252-.516-.606-.918-1.062-1.206s-.978-.432-1.566-.432c-.6,0-1.134.144-1.602.432-.456.288-.816.69-1.08,1.206-.252.504-.378,1.098-.378,1.782s.126,1.284.378,1.8c.264.504.624.9,1.08,1.188.468.276,1.002.414,1.602.414Zm6.839,1.098v-9.018h1.512v9.018h-1.512Zm.756-10.962c-.3,0-.552-.096-.756-.288-.192-.204-.288-.456-.288-.756s.096-.54.288-.72c.204-.192.456-.288.756-.288.288,0,.534.096.738.288.204.18.306.42.306.72s-.102.552-.306.756c-.204.192-.45.288-.738.288Zm3.389,10.962v-12.96h1.512v12.96h-1.512Zm4.17,0v-9.018h1.512v9.018h-1.512Zm.756-10.962c-.3,0-.552-.096-.756-.288-.192-.204-.288-.456-.288-.756s.096-.54.288-.72c.204-.192.456-.288.756-.288.288,0,.534.096.738.288.204.18.306.42.306.72s-.102.552-.306.756c-.204.192-.45.288-.738.288Zm6.953,10.962c-.54,0-1.008-.084-1.404-.252s-.702-.45-.918-.846c-.204-.408-.306-.954-.306-1.638v-5.004h-1.566v-1.278h1.566l.198-2.16h1.314v2.16h2.628v1.278h-2.628v5.004c0,.564.114.948.342,1.152.228.192.63.288,1.206.288h.954v1.296h-1.386Zm4.439,3.96l2.214-4.968h-.522l-3.564-8.01h1.638l2.97,6.894l3.114-6.894h1.566l-5.832,12.978h-1.584Z" fill="#fff"/></g></g></g><g id="erKg8ebvBNM17_to" transform="translate(326.899384,39.026062)"><g id="erKg8ebvBNM17_tr" transform="rotate(3.880362)"><g id="erKg8ebvBNM17" transform="translate(-326.899384,-310.026062)" opacity="0"><rect width="178.25" height="58" rx="29" ry="29" transform="matrix(0.99766 -0.068376 0.068376 0.99766 236.000031 287.187942)" fill="#15374f"/><path d="M279.554,318.283l-.862-12.57l1.509-.103.861,12.57-1.508.103Zm4.101-.281l-.616-8.997l1.365-.093.199,1.592c.249-.582.631-1.054,1.148-1.414.516-.36,1.116-.563,1.798-.61.695-.048,1.309.054,1.844.306.533.241.963.638,1.29,1.193s.52,1.269.58,2.143l.366,5.334-1.509.103-.354-5.172c-.063-.91-.307-1.578-.733-2.006-.427-.44-1.006-.635-1.736-.585-.515.035-.967.193-1.357.472-.378.278-.671.659-.878,1.143-.196.482-.27,1.065-.223,1.747l.325,4.741-1.509.103Zm10.295-.705l-.617-8.997l1.365-.094.199,1.592c.249-.582.632-1.053,1.148-1.413.517-.361,1.116-.564,1.799-.611.694-.047,1.308.055,1.843.307.534.24.964.638,1.29,1.192.327.555.52,1.27.58,2.144l.366,5.333-1.509.104-.354-5.172c-.062-.91-.307-1.579-.733-2.007-.427-.44-1.006-.634-1.736-.584-.515.035-.967.192-1.357.471-.378.279-.67.66-.878,1.143-.195.483-.27,1.065-.223,1.748l.325,4.74-1.508.104Zm14.367-.768c-.838.057-1.605-.083-2.302-.42-.698-.349-1.268-.863-1.712-1.543-.431-.68-.679-1.493-.744-2.438-.066-.958.075-1.804.422-2.537.346-.734.842-1.315,1.486-1.744.655-.442,1.402-.691,2.24-.749.85-.058,1.624.087,2.321.437.697.337,1.261.845,1.692,1.525.432.68.68,1.499.746,2.457.065.946-.076,1.786-.423,2.519-.334.733-.829,1.32-1.485,1.762-.644.429-1.391.672-2.241.731Zm-.089-1.293c.527-.036,1.003-.195,1.429-.477s.753-.689.981-1.222c.24-.534.335-1.172.284-1.914-.053-.766-.228-1.392-.526-1.876-.298-.485-.677-.838-1.137-1.059-.461-.233-.949-.332-1.464-.297-.502.035-.972.199-1.409.494-.426.282-.759.683-1,1.205s-.335,1.166-.283,1.932c.051.742.232,1.361.543,1.857.31.496.69.855,1.138,1.077.46.221.942.314,1.444.28Zm8.809.478l-4.029-8.763l1.58-.108l3.229,7.357l2.195-7.729l1.544-.105-2.777,9.229-1.742.119Zm9.335-.423c-.742.051-1.367-.032-1.876-.25-.496-.219-.878-.529-1.146-.932-.269-.415-.421-.873-.455-1.376-.042-.611.078-1.136.361-1.576.295-.442.722-.79,1.282-1.045.571-.267,1.245-.428,2.023-.481l2.407-.165c-.039-.563-.161-1.023-.366-1.382-.193-.36-.463-.624-.812-.793-.348-.168-.762-.236-1.241-.203-.574.039-1.067.223-1.477.552-.4.316-.628.753-.686,1.31l-1.545.106c.029-.639.207-1.193.536-1.661.341-.468.785-.835,1.332-1.101.546-.278,1.131-.439,1.753-.481.826-.057,1.525.052,2.097.325.583.261,1.032.657,1.345,1.189.324.519.512,1.15.562,1.892l.381,5.549-1.347.092-.199-1.592c-.103.26-.242.51-.418.751-.165.227-.367.434-.607.618-.229.173-.502.318-.818.435-.317.118-.679.191-1.086.219Zm.146-1.291c.431-.029.808-.139,1.132-.33.323-.203.594-.462.813-.777.231-.317.393-.665.488-1.044.093-.392.126-.785.099-1.18l-.002-.036-2.281.157c-.575.039-1.037.143-1.386.311-.35.156-.595.36-.734.61s-.198.531-.177.842c.022.323.114.599.274.829.172.229.406.399.702.511.296.1.653.136,1.072.107Zm9.937.384c-.539.037-1.012-.015-1.418-.156-.407-.14-.731-.401-.974-.781-.231-.393-.37-.931-.417-1.613l-.342-4.993-1.563.108-.087-1.276l1.562-.107.05-2.168l1.311-.09.148,2.155l2.622-.18.087,1.275-2.622.18.342,4.992c.039.563.179.938.42,1.126.241.176.649.245,1.223.205l.952-.065.089,1.293-1.383.095Zm3.603-.247l-.617-8.997l1.509-.104.617,8.997-1.509.104Zm.005-10.988c-.3.02-.557-.058-.774-.236-.206-.19-.319-.435-.339-.735-.021-.299.059-.545.238-.738.19-.205.435-.318.734-.339.288-.019.54.06.756.237.216.166.334.398.355.698.02.299-.064.557-.254.775-.19.205-.429.318-.716.338Zm8.203,10.642c-.838.057-1.605-.083-2.302-.42-.697-.349-1.268-.863-1.711-1.543-.432-.68-.68-1.493-.745-2.438-.065-.958.075-1.804.422-2.537.346-.734.842-1.315,1.486-1.744.655-.442,1.402-.691,2.24-.749.85-.058,1.624.087,2.321.437.697.337,1.261.845,1.693,1.525.431.681.68,1.499.745,2.457.065.946-.076,1.786-.422,2.519-.335.733-.83,1.32-1.485,1.762-.645.429-1.392.672-2.242.731Zm-.088-1.293c.526-.036,1.003-.195,1.428-.477.426-.282.753-.689.981-1.222.24-.534.335-1.172.284-1.914-.053-.766-.228-1.392-.526-1.876-.297-.485-.676-.838-1.137-1.059-.461-.233-.949-.332-1.463-.297-.503.035-.973.199-1.41.494-.426.282-.759.683-1,1.205s-.335,1.166-.282,1.932c.05.742.231,1.361.542,1.857.31.496.69.855,1.138,1.077.46.221.942.314,1.445.28Zm6.66.626l-.617-8.997l1.365-.094.199,1.592c.249-.582.632-1.053,1.149-1.413.516-.361,1.116-.564,1.798-.611.694-.047,1.309.055,1.843.307.534.24.964.637,1.291,1.192s.52,1.27.58,2.144l.365,5.333-1.508.104-.355-5.172c-.062-.91-.306-1.579-.733-2.007-.427-.44-1.005-.635-1.736-.584-.514.035-.967.192-1.357.471-.377.279-.67.66-.877,1.143-.196.483-.27,1.065-.223,1.747l.324,4.741-1.508.104Z" fill="#fff"/></g></g></g><g id="erKg8ebvBNM20_to" transform="translate(566.003082,36.997925)"><g id="erKg8ebvBNM20_tr" transform="rotate(-12.914736)"><g id="erKg8ebvBNM20" transform="translate(-566.003082,-294.997925)" opacity="0"><rect width="200.61" height="58" rx="29" ry="29" transform="matrix(0.992546 0.121869 -0.121869 0.992546 469.979943 253.990014)" fill="#15374f"/><path d="M512.312,293.661c-1.226-.151-2.254-.549-3.081-1.194-.814-.657-1.406-1.497-1.776-2.522-.356-1.035-.456-2.196-.298-3.482s.535-2.383,1.129-3.289c.609-.917,1.386-1.589,2.334-2.017.96-.438,2.054-.582,3.281-.431c1.429.176,2.548.658,3.358,1.446.81.789,1.264,1.818,1.362,3.087l-1.661-.204c-.096-.797-.407-1.464-.933-2-.525-.548-1.288-.884-2.289-1.007-.893-.109-1.699.003-2.417.338-.705.325-1.289.851-1.754,1.58-.45.719-.742,1.614-.873,2.686-.132,1.072-.067,2.017.196,2.835.275.807.715,1.46,1.319,1.957.617.487,1.372.785,2.266.895c1,.123,1.82-.006,2.459-.387.641-.393,1.103-.959,1.387-1.698l1.662.204c-.398,1.172-1.085,2.043-2.062,2.612-.976.57-2.179.766-3.609.591Zm11.305,1.388c-.833-.102-1.56-.385-2.18-.848-.619-.475-1.082-1.088-1.389-1.839-.295-.749-.384-1.595-.269-2.536.117-.952.415-1.756.895-2.411.479-.654,1.076-1.131,1.789-1.43.728-.31,1.508-.413,2.342-.311.845.104,1.578.393,2.196.868.621.463,1.078,1.069,1.373,1.819.295.749.384,1.601.267,2.553-.116.941-.413,1.739-.893,2.394-.467.655-1.064,1.138-1.791,1.448-.714.299-1.494.397-2.34.293Zm.158-1.286c.524.064,1.022-.002,1.494-.198.471-.196.869-.534,1.194-1.014.337-.478.551-1.087.641-1.825.094-.762.04-1.41-.16-1.942-.201-.533-.506-.951-.916-1.255-.409-.316-.869-.506-1.381-.569-.5-.061-.993.011-1.478.218-.471.196-.874.527-1.21.994-.335.466-.55,1.081-.643,1.843-.091.738-.031,1.381.18,1.926.211.546.516.97.914,1.273.41.304.865.487,1.365.549Zm6.421,1.876l1.58-12.863l1.501.184-1.58,12.864-1.501-.185Zm3.978.489l1.58-12.864l1.501.185-1.58,12.863-1.501-.184Zm6.9,1.064c-.739-.09-1.337-.291-1.794-.601-.446-.308-.762-.686-.949-1.132-.186-.458-.248-.937-.187-1.437.075-.608.293-1.101.654-1.48.372-.377.858-.638,1.456-.782.611-.155,1.304-.184,2.078-.089l2.394.294c.069-.56.037-1.036-.097-1.427-.121-.39-.337-.7-.647-.932-.31-.231-.703-.376-1.18-.435-.571-.07-1.09.018-1.555.263-.452.234-.759.62-.922,1.156l-1.537-.189c.149-.622.43-1.132.841-1.529.423-.395.929-.671,1.516-.829.59-.17,1.194-.216,1.813-.14.822.101,1.488.34,1.998.717.523.366.888.84,1.094,1.422.22.571.285,1.225.195,1.964l-.678,5.52-1.34-.164.106-1.601c-.15.235-.334.455-.553.658-.205.192-.442.356-.713.492-.257.126-.552.217-.886.272-.333.056-.702.059-1.107.009Zm.388-1.24c.429.053.82.017,1.174-.109.355-.138.671-.341.945-.61.287-.267.513-.577.677-.932.166-.367.273-.746.321-1.139l.005-.036-2.269-.279c-.572-.07-1.045-.055-1.42.044-.374.087-.652.24-.836.459s-.296.484-.334.793c-.039.322-.002.611.112.866.125.258.323.469.593.635.271.155.615.257,1.032.308Zm11.099,2.651c-.5-.062-.95-.189-1.349-.383-.388-.193-.727-.434-1.018-.724-.279-.288-.498-.617-.658-.987l-.325,1.465-1.358-.167l1.579-12.863l1.501.184-.662,5.396c.341-.418.8-.761,1.377-1.028.579-.28,1.267-.371,2.065-.273.881.109,1.624.411,2.228.909.605.485,1.042,1.107,1.312,1.865.283.749.37,1.569.26,2.462-.111.906-.395,1.687-.85,2.344-.444.659-1.024,1.15-1.741,1.473-.704.325-1.491.434-2.361.327Zm-.001-1.324c.584.072,1.119-.002,1.605-.22.488-.23.888-.58,1.199-1.05.325-.48.529-1.059.612-1.738.084-.679.025-1.285-.175-1.817-.188-.543-.49-.985-.908-1.327-.417-.341-.918-.548-1.501-.619-.596-.073-1.143.005-1.643.233-.488.231-.894.586-1.219,1.066-.311.469-.509,1.043-.592,1.722-.084.679-.032,1.29.156,1.833.2.532.509.969.927,1.311.431.331.944.533,1.539.606Zm10.505,2.614c-.833-.103-1.56-.385-2.181-.848-.618-.475-1.081-1.088-1.388-1.839-.295-.75-.384-1.595-.269-2.536.117-.953.415-1.757.895-2.411.479-.654,1.076-1.131,1.789-1.431.728-.309,1.508-.413,2.342-.311.845.104,1.578.394,2.196.869.62.463,1.078,1.069,1.373,1.818.295.75.384,1.601.267,2.554-.116.941-.413,1.739-.893,2.393-.467.656-1.064,1.139-1.792,1.449-.713.299-1.493.396-2.339.293Zm.158-1.287c.524.065,1.022-.001,1.493-.197.472-.196.87-.534,1.195-1.014.337-.479.551-1.087.641-1.826.094-.762.04-1.409-.16-1.942-.201-.532-.506-.95-.916-1.255-.409-.316-.869-.505-1.381-.568-.5-.062-.993.011-1.478.217-.471.196-.875.528-1.21.994-.335.467-.55,1.081-.643,1.844-.091.738-.031,1.38.18,1.926s.516.97.914,1.273c.41.304.865.487,1.365.548Zm6.421,1.877l1.099-8.951l1.358.167-.085,1.73c.24-.381.532-.696.877-.944.357-.246.765-.42,1.225-.52.46-.101.969-.117,1.529-.048l-.193,1.572-.482-.06c-.393-.048-.775-.04-1.146.023-.357.053-.686.176-.988.368-.29.195-.536.479-.739.853-.19.363-.321.837-.392,1.42l-.562,4.574-1.501-.184Zm9.482,1.382c-.738-.091-1.336-.291-1.794-.601-.446-.309-.762-.686-.949-1.133-.186-.458-.248-.937-.186-1.437.074-.607.292-1.101.653-1.479.373-.378.858-.639,1.456-.783.611-.154,1.304-.184,2.078-.089l2.394.294c.069-.56.037-1.035-.097-1.427-.121-.389-.337-.7-.647-.931-.31-.232-.703-.377-1.18-.436-.571-.07-1.09.018-1.555.263-.452.235-.759.62-.922,1.156l-1.536-.188c.149-.623.429-1.133.84-1.529.424-.396.929-.672,1.517-.83.589-.169,1.193-.216,1.812-.14.822.101,1.488.34,1.998.717.523.366.888.84,1.095,1.422.22.571.284,1.226.194,1.964l-.678,5.521-1.34-.165.106-1.601c-.15.236-.334.455-.552.658-.205.192-.443.356-.714.492-.257.126-.552.217-.886.273-.333.055-.702.058-1.107.009Zm.388-1.24c.429.052.82.016,1.174-.11.356-.138.671-.341.945-.609.287-.267.513-.578.677-.933.166-.366.273-.746.321-1.139l.005-.036-2.269-.279c-.572-.07-1.045-.055-1.42.044-.373.087-.652.24-.836.459s-.295.484-.333.794c-.04.321-.003.61.111.866.125.257.323.468.593.635.271.154.615.257,1.032.308Zm9.684,2.259c-.536-.066-.99-.206-1.363-.421-.372-.215-.642-.533-.808-.952-.152-.43-.187-.984-.104-1.663l.61-4.967-1.554-.191.156-1.268l1.554.191.46-2.12l1.304.16-.263,2.144l2.608.32-.156,1.269-2.608-.321-.61,4.967c-.069.56-.002.955.199,1.185.203.219.59.363,1.162.433l.947.116-.158,1.287-1.376-.169Zm3.585.44l1.099-8.951l1.501.184-1.099,8.951-1.501-.184Zm2.086-10.788c-.297-.037-.536-.163-.715-.378-.166-.226-.23-.488-.194-.786.037-.297.161-.524.374-.679.226-.166.488-.231.785-.194.286.035.519.16.698.376.18.203.252.454.216.752-.037.298-.169.535-.396.713-.226.166-.482.231-.768.196Zm6.039,12.003c-.834-.102-1.561-.385-2.181-.848-.619-.475-1.081-1.088-1.388-1.839-.295-.749-.385-1.595-.269-2.536.117-.952.415-1.756.894-2.41.48-.655,1.076-1.132,1.79-1.431.727-.31,1.508-.413,2.341-.311.846.104,1.578.393,2.197.868.62.463,1.078,1.069,1.373,1.819.294.749.383,1.601.266,2.554-.115.94-.413,1.738-.892,2.393-.467.656-1.065,1.138-1.792,1.448-.714.299-1.493.397-2.339.293Zm.158-1.286c.524.064,1.022-.002,1.493-.198.472-.196.87-.534,1.195-1.014.337-.478.55-1.087.641-1.825.094-.762.04-1.41-.161-1.942-.2-.533-.505-.951-.915-1.255-.409-.316-.869-.506-1.381-.569-.501-.061-.993.011-1.478.218-.471.196-.875.527-1.21.994-.335.466-.55,1.081-.644,1.843-.09.739-.03,1.381.181,1.926.211.546.516.971.914,1.273.41.305.865.487,1.365.549Zm6.421,1.876l1.099-8.95l1.358.166-.106,1.601c.355-.524.82-.915,1.395-1.17.576-.256,1.203-.342,1.882-.259.69.085,1.274.302,1.751.65.479.337.826.809,1.042,1.416.215.607.27,1.345.163,2.214l-.651,5.306-1.501-.184.632-5.145c.111-.906-.002-1.609-.34-2.109-.336-.513-.867-.814-1.594-.903-.512-.063-.986.005-1.421.206-.424.202-.784.52-1.079.956-.283.436-.467.994-.55,1.673l-.579,4.717-1.501-.185Z" fill="#fff"/></g></g></g><g id="erKg8ebvBNM23_to" transform="translate(703.925354,30.998078)"><g id="erKg8ebvBNM23_tr" transform="rotate(20.544032)"><g id="erKg8ebvBNM23" transform="translate(-703.925354,-220.998078)" opacity="0"><rect width="200.16" height="58" rx="29" ry="29" transform="matrix(0.93358 -0.358368 0.358368 0.93358 600.099985 229.789716)" fill="#15374f"/><path d="M653.621,245.666l-4.07-10.604-3.513,1.348-.445-1.159l8.436-3.238.445,1.159-3.512,1.348l4.071,10.604-1.412.542Zm5.628-2.161l-3.232-8.419l1.277-.49.737,1.568c.033-.45.144-.865.332-1.245.199-.385.478-.73.837-1.035.358-.305.801-.558,1.327-.76l.568,1.478-.454.175c-.369.141-.703.327-1,.557-.291.215-.524.478-.7.789-.165.308-.249.674-.253,1.1.003.41.11.89.321,1.439l1.651,4.301-1.411.542Zm9.02-3.231c-.694.267-1.316.37-1.866.312-.538-.064-.995-.248-1.369-.554-.379-.318-.659-.712-.84-1.182-.219-.572-.258-1.109-.118-1.613.152-.508.459-.966.919-1.375.467-.423,1.065-.775,1.793-1.054l2.252-.865c-.202-.526-.454-.931-.755-1.214-.29-.287-.627-.46-1.009-.518-.383-.059-.798-.003-1.246.169-.538.207-.955.527-1.251.962-.288.42-.379.904-.271,1.454l-1.445.555c-.16-.62-.152-1.201.025-1.745.188-.548.504-1.029.949-1.444.441-.426.952-.751,1.535-.975.773-.297,1.473-.398,2.1-.305.634.078,1.179.325,1.634.742.463.401.827.949,1.094,1.643l1.993,5.193-1.26.484-.658-1.464c-.022.278-.082.558-.179.84-.091.266-.224.523-.399.77-.168.232-.386.45-.654.656s-.593.382-.974.528Zm-.239-1.277c.403-.155.732-.371.985-.648.249-.289.432-.616.549-.982.127-.37.181-.751.159-1.141-.025-.401-.109-.787-.251-1.157l-.013-.033-2.134.819c-.538.206-.949.441-1.233.705-.289.252-.463.518-.523.798s-.033.566.078.857c.116.302.285.54.505.712.232.168.506.263.822.283.312.008.664-.062,1.056-.213Zm6.514-1.363l-3.232-8.419l1.277-.49.658,1.463c.067-.629.294-1.192.682-1.688s.902-.867,1.54-1.112c.65-.249,1.267-.332,1.852-.248.581.073,1.109.326,1.584.761.475.434.87,1.06,1.184,1.878l1.916,4.991-1.412.542-1.858-4.84c-.326-.851-.756-1.419-1.29-1.703-.537-.295-1.147-.311-1.831-.049-.481.185-.868.469-1.158.85-.28.377-.447.827-.504,1.35-.045.519.055,1.097.3,1.736l1.703,4.436-1.411.542Zm12.903-4.722c-.684.263-1.332.383-1.944.361-.606-.037-1.147-.209-1.624-.514s-.865-.729-1.162-1.27l1.445-.555c.183.277.412.504.685.682.274.178.596.279.966.304.369.025.767-.044,1.193-.207.403-.155.706-.336.91-.542.21-.222.34-.452.391-.69.057-.253.04-.498-.05-.733-.134-.347-.319-.578-.556-.693-.225-.119-.514-.169-.867-.149-.352.019-.762.074-1.229.163-.384.071-.777.119-1.179.144-.394.01-.769-.013-1.125-.069-.349-.072-.659-.21-.93-.414-.272-.205-.482-.503-.633-.895-.185-.482-.225-.955-.12-1.419.111-.48.35-.912.716-1.297.378-.389.88-.704,1.508-.945.896-.344,1.708-.405,2.436-.183s1.301.728,1.72,1.518l-1.394.536c-.22-.405-.532-.664-.936-.779-.397-.13-.858-.095-1.385.108-.527.202-.889.463-1.087.783-.188.316-.214.648-.081.995.086.224.24.39.461.498s.501.168.84.179c.345-.004.748-.043,1.208-.117.588-.11,1.144-.169,1.667-.177.524-.008.989.096,1.393.314.416.213.74.622.973,1.227.209.511.254,1.014.136,1.509-.119.496-.376.948-.772,1.357-.388.393-.913.717-1.574.97Zm6.567,1.49l-4.651-12.116l1.278-.49.663,1.326c.076-.338.209-.678.399-1.021.185-.354.446-.679.782-.975.332-.307.756-.56,1.271-.758.818-.314,1.604-.391,2.36-.231.762.145,1.446.486,2.051,1.025.601.528,1.065,1.217,1.392,2.069.323.84.437,1.657.344,2.451-.094.795-.376,1.501-.846,2.118s-1.113,1.083-1.931,1.397c-.684.262-1.342.355-1.976.277s-1.194-.313-1.679-.706l1.955,5.092-1.412.542Zm2.49-6.374c.549-.21.986-.526,1.313-.947.323-.433.511-.929.566-1.49.062-.576-.03-1.184-.275-1.822-.246-.639-.582-1.146-1.009-1.522-.42-.391-.894-.64-1.423-.745-.529-.106-1.068-.053-1.617.158-.56.215-1.007.54-1.341.977-.322.432-.514.937-.576,1.513-.055.561.041,1.16.286,1.799s.577,1.154.998,1.545c.427.376.905.617,1.434.722.536.09,1.083.027,1.644-.188Zm9.477-2.23c-.695.267-1.317.37-1.866.311-.539-.063-.995-.247-1.37-.554-.379-.317-.659-.711-.839-1.181-.219-.572-.259-1.109-.118-1.613.152-.508.458-.967.918-1.375.468-.423,1.065-.775,1.794-1.054l2.251-.865c-.202-.526-.453-.931-.755-1.214-.29-.287-.626-.46-1.009-.519-.382-.058-.798-.002-1.246.17-.537.207-.954.527-1.25.962-.289.42-.379.904-.271,1.454l-1.445.555c-.161-.62-.153-1.201.024-1.745.188-.548.505-1.029.95-1.444.44-.426.952-.751,1.534-.975.773-.297,1.473-.398,2.101-.305.634.078,1.178.325,1.634.742.462.401.827.948,1.093,1.643l1.994,5.193-1.261.483-.658-1.463c-.022.278-.081.558-.179.84-.09.266-.223.523-.398.77-.168.232-.387.45-.655.656s-.592.382-.973.528Zm-.24-1.277c.404-.155.732-.371.986-.648.249-.289.432-.616.548-.982.128-.37.181-.751.16-1.141-.026-.401-.109-.787-.251-1.157l-.013-.033-2.134.819c-.538.206-.949.441-1.234.705-.289.252-.463.518-.522.798-.06.28-.034.566.078.857.116.302.284.54.505.712.231.168.505.262.821.282.312.009.664-.062,1.056-.212Zm6.514-1.363l-3.232-8.419l1.277-.49.737,1.568c.033-.45.144-.865.332-1.246.199-.385.478-.73.837-1.034.358-.305.801-.558,1.328-.761l.567,1.479-.454.174c-.369.142-.703.328-1,.558-.291.214-.524.477-.7.789-.165.308-.249.674-.253,1.1.004.41.111.889.321,1.438l1.652,4.302-1.412.542Zm9.683-3.486c-.795.306-1.57.397-2.323.275-.758-.133-1.444-.461-2.056-.984-.605-.539-1.075-1.246-1.411-2.119-.344-.897-.467-1.736-.369-2.519.093-.795.377-1.495.852-2.101.485-.611,1.137-1.073,1.954-1.387.818-.314,1.589-.398,2.314-.252.724.146,1.352.458,1.882.936.542.473.948,1.063,1.219,1.769.043.112.09.235.142.369.047.124.095.266.144.427l-6.957,2.67-.419-1.092l5.579-2.141c-.33-.761-.818-1.261-1.463-1.502-.638-.256-1.31-.249-2.016.022-.482.185-.887.469-1.215.852-.333.372-.549.815-.648,1.328-.087.51-.01,1.078.231,1.705l.18.471c.263.683.613,1.211,1.051,1.582.439.372.91.596,1.415.672.5.065.986.007,1.456-.174.583-.223,1.015-.537,1.297-.941.289-.419.435-.893.438-1.421l1.395-.536c.052.572-.013,1.123-.194,1.656-.185.521-.485.996-.899,1.425-.403.424-.929.761-1.579,1.01Zm5.743-2.435l-3.232-8.419l1.277-.491.659,1.464c.066-.63.294-1.193.682-1.689s.901-.866,1.54-1.112c.649-.249,1.267-.332,1.852-.248.58.073,1.108.327,1.584.761.475.435.869,1.061,1.183,1.879l1.916,4.991-1.411.541-1.858-4.839c-.327-.852-.757-1.419-1.29-1.703-.537-.295-1.148-.311-1.831-.049-.482.185-.868.468-1.159.849-.279.378-.447.828-.503,1.351-.045.518.055,1.097.3,1.735l1.703,4.437-1.412.542Zm13.542-4.967c-.796.305-1.583.395-2.364.271-.769-.129-1.466-.453-2.089-.972-.612-.523-1.086-1.222-1.421-2.096-.34-.885-.458-1.727-.353-2.525.116-.803.417-1.51.902-2.12.497-.615,1.143-1.075,1.938-1.381c1.009-.387,1.944-.444,2.807-.171.87.257,1.568.786,2.094,1.587l-1.445.555c-.325-.479-.762-.781-1.311-.904-.549-.124-1.115-.074-1.697.15-.471.18-.866.474-1.186.879-.324.394-.522.882-.595,1.463-.077.569.02,1.207.291,1.912.198.516.447.947.747,1.295.312.343.645.607.999.792.36.17.729.26,1.106.27.387.005.755-.059,1.102-.192.392-.15.727-.35,1.005-.598.273-.259.474-.555.604-.887.136-.348.177-.711.122-1.088l1.445-.555c.148.92-.019,1.775-.5,2.564-.471.784-1.204,1.368-2.201,1.751Zm8.035.926l.286-5.432-.487.188-6.198-6.201l1.529-.587l5.244,5.372.436-7.553l1.462-.561-.794,14.206-1.478.568Z" fill="#fff"/></g></g></g></g><clipPath id="erKg8ebvBNM26"><rect width="879" height="430" rx="0" ry="0" fill="#fff"/></clipPath></g></svg>
