<svg width="60" height="66" viewBox="0 0 60 66" fill="none" xmlns="http://www.w3.org/2000/svg">
<path d="M60 30.3052V20.725C60 15.313 60 12.607 58.653 10.8415C57.306 9.076 54.2603 8.21886 48.169 6.50464C44.0073 5.33347 40.3387 3.92248 37.4077 2.63436C33.4113 0.878131 31.4133 0 30 0C28.5867 0 26.5887 0.878131 22.5924 2.63436C19.6613 3.92248 15.9928 5.33347 11.8311 6.50464C5.73977 8.21886 2.69407 9.076 1.34703 10.8415C-1.98682e-07 12.607 0 15.313 0 20.725V30.3052C0 48.868 16.8759 60.0056 25.3133 64.414C27.337 65.4713 28.3487 66 30 66C31.6513 66 32.663 65.4713 34.6867 64.414C43.124 60.0056 60 48.868 60 30.3052Z" fill="white"/>
<path d="M18.334 23L26.3992 27.5698C29.3725 29.2545 30.6288 29.2545 33.6022 27.5698L41.6673 23" stroke="#2E78AC" stroke-width="1.5" stroke-linejoin="round"/>
<path d="M18.3524 31.7217C18.4286 35.2982 18.4668 37.0864 19.7864 38.4111C21.1061 39.7358 22.9427 39.7818 26.616 39.8741C28.8798 39.9311 31.1215 39.9311 33.3854 39.8741C37.0586 39.7818 38.8952 39.7358 40.2149 38.4111C41.5346 37.0864 41.5727 35.2982 41.6489 31.7217C41.6735 30.5717 41.6735 29.4286 41.6489 28.2786C41.5727 24.7022 41.5346 22.9139 40.2149 21.5893C38.8952 20.2646 37.0586 20.2185 33.3854 20.1262C31.1215 20.0693 28.8798 20.0693 26.6159 20.1262C22.9427 20.2184 21.1061 20.2646 19.7864 21.5893C18.4668 22.9139 18.4286 24.7022 18.3524 28.2786C18.3278 29.4286 18.3279 30.5717 18.3524 31.7217Z" stroke="#2E78AC" stroke-width="1.5" stroke-linejoin="round"/>
</svg>
