<svg width="1930" height="1542" viewBox="0 0 1930 1542" fill="none" xmlns="http://www.w3.org/2000/svg">
<g clip-path="url(#clip0_1921_35829)">
<rect width="1920" height="1034" transform="translate(9.25781)" fill="white"/>
<mask id="mask0_1921_35829" style="mask-type:luminance" maskUnits="userSpaceOnUse" x="79" y="0" width="1921" height="1021">
<path d="M1999.26 0H79.2578V1020.65H1999.26V0Z" fill="white"/>
</mask>
<g mask="url(#mask0_1921_35829)">
<path d="M1999.26 0.639648H79.2578V1020.64H1999.26V0.639648Z" fill="white"/>
</g>
<mask id="mask1_1921_35829" style="mask-type:luminance" maskUnits="userSpaceOnUse" x="79" y="0" width="1921" height="1021">
<path d="M1999.26 0H79.2578V1020.65H1999.26V0Z" fill="white"/>
</mask>
<g mask="url(#mask1_1921_35829)">
<path d="M59.2075 1069.83L1534.12 215.846C1546.65 208.605 1546.49 190.486 1533.83 183.474L870.258 -184.113L36.9375 -43.7484L59.2075 1069.83Z" fill="white"/>
</g>
<mask id="mask2_1921_35829" style="mask-type:luminance" maskUnits="userSpaceOnUse" x="79" y="0" width="1921" height="1021">
<path d="M1999.26 0H79.2578V1020.65H1999.26V0Z" fill="white"/>
</mask>
<g mask="url(#mask2_1921_35829)">
<path d="M1853.46 1389.37L725.978 759.656C713.448 752.414 713.608 734.296 726.268 727.284L1999.26 -6.68262L2223.16 500.061L1853.46 1389.37Z" fill="white"/>
</g>
<mask id="mask3_1921_35829" style="mask-type:luminance" maskUnits="userSpaceOnUse" x="79" y="0" width="1921" height="1021">
<path d="M1999.26 0H79.2578V1020.65H1999.26V0Z" fill="white"/>
</mask>
<g mask="url(#mask3_1921_35829)">
<path d="M1270.03 0.639648L1556.7 160.561C1580.55 173.866 1609.64 173.706 1633.35 160.142L1912.1 0.639648" fill="white"/>
</g>
<mask id="mask4_1921_35829" style="mask-type:luminance" maskUnits="userSpaceOnUse" x="79" y="0" width="1921" height="1021">
<path d="M1999.26 0H79.2578V1020.65H1999.26V0Z" fill="white"/>
</mask>
<g mask="url(#mask4_1921_35829)">
<path d="M1328.67 1138.29L1042 978.379C1018.15 965.074 989.057 965.234 965.347 978.798L686.607 1138.3" fill="white"/>
</g>
<g clip-path="url(#clip1_1921_35829)">
<mask id="mask5_1921_35829" style="mask-type:luminance" maskUnits="userSpaceOnUse" x="9" y="0" width="1921" height="1021">
<path d="M1929.26 0.00488281H9.25781V1020.65H1929.26V0.00488281Z" fill="white"/>
</mask>
<g mask="url(#mask5_1921_35829)">
<path d="M1929.26 0.644531H9.25781V1020.64H1929.26V0.644531Z" fill="#3384BD"/>
</g>
<mask id="mask6_1921_35829" style="mask-type:luminance" maskUnits="userSpaceOnUse" x="9" y="0" width="1921" height="1021">
<path d="M1929.26 0.00488281H9.25781V1020.65H1929.26V0.00488281Z" fill="white"/>
</mask>
<g mask="url(#mask6_1921_35829)">
<path d="M-10.7925 1069.84L1464.12 215.851C1476.65 208.61 1476.49 190.491 1463.83 183.479L800.258 -184.108L-33.0625 -43.7435L-10.7925 1069.84Z" fill="white"/>
</g>
<mask id="mask7_1921_35829" style="mask-type:luminance" maskUnits="userSpaceOnUse" x="9" y="0" width="1921" height="1021">
<path d="M1929.26 0.00488281H9.25781V1020.65H1929.26V0.00488281Z" fill="white"/>
</mask>
<g mask="url(#mask7_1921_35829)">
<path d="M1783.46 1389.38L655.978 759.661C643.448 752.419 643.608 734.301 656.268 727.289L1929.26 -6.67773L2153.16 500.066L1783.46 1389.38Z" fill="white"/>
</g>
<mask id="mask8_1921_35829" style="mask-type:luminance" maskUnits="userSpaceOnUse" x="9" y="0" width="1921" height="1021">
<path d="M1929.26 0.00488281H9.25781V1020.65H1929.26V0.00488281Z" fill="white"/>
</mask>
<g mask="url(#mask8_1921_35829)">
<path d="M1200.03 0.644531L1486.7 160.566C1510.55 173.871 1539.64 173.711 1563.35 160.147L1842.1 0.644531" fill="white"/>
</g>
<mask id="mask9_1921_35829" style="mask-type:luminance" maskUnits="userSpaceOnUse" x="9" y="0" width="1921" height="1021">
<path d="M1929.26 0.00488281H9.25781V1020.65H1929.26V0.00488281Z" fill="white"/>
</mask>
<g mask="url(#mask9_1921_35829)">
<path d="M1258.67 1138.3L971.997 978.384C948.147 965.079 919.057 965.239 895.347 978.803L616.607 1138.31" fill="white"/>
</g>
<mask id="mask10_1921_35829" style="mask-type:luminance" maskUnits="userSpaceOnUse" x="9" y="0" width="1921" height="1021">
<path d="M1929.26 0.00488281H9.25781V1020.65H1929.26V0.00488281Z" fill="white"/>
</mask>
<g mask="url(#mask10_1921_35829)">
<path d="M550.456 788.847L149.646 1020.64L751.186 1020.95L869.416 956.17C884.956 947.65 885.066 925.386 869.616 916.716L640.536 788.257C612.517 772.536 578.266 772.766 550.456 788.847Z" fill="white"/>
</g>
</g>
</g>
<path d="M154.758 1018L76.0306 1019.68L2.25851 1064L4.7583 1106.5L154.758 1018Z" fill="url(#paint0_linear_1921_35829)"/>
<path d="M1035.27 1013.13L1107.57 1011.91L1905.57 1451.91L1905.57 1496.91L1035.27 1013.13Z" fill="url(#paint1_linear_1921_35829)"/>
<path d="M856.757 1001.5L803.757 992.5L5.757 1432.5L5.75705 1477.5L856.757 1001.5Z" fill="url(#paint2_linear_1921_35829)"/>
<defs>
<linearGradient id="paint0_linear_1921_35829" x1="79.9512" y1="1014" x2="74.8072" y2="1110.24" gradientUnits="userSpaceOnUse">
<stop stop-color="#3384BC"/>
<stop offset="1" stop-color="white"/>
</linearGradient>
<linearGradient id="paint1_linear_1921_35829" x1="899.069" y1="910.411" x2="1797.91" y2="1356.38" gradientUnits="userSpaceOnUse">
<stop offset="0.228391" stop-color="#3384BC"/>
<stop offset="0.903846" stop-color="white"/>
</linearGradient>
<linearGradient id="paint2_linear_1921_35829" x1="1012.26" y1="891" x2="113.419" y2="1336.97" gradientUnits="userSpaceOnUse">
<stop offset="0.283654" stop-color="#3384BC"/>
<stop offset="0.745192" stop-color="white"/>
</linearGradient>
<clipPath id="clip0_1921_35829">
<rect width="1920" height="1034" fill="white" transform="translate(9.25781)"/>
</clipPath>
<clipPath id="clip1_1921_35829">
<rect width="1920" height="1020" fill="white" transform="translate(9.25781 0.324219)"/>
</clipPath>
</defs>
</svg>
