<svg width="302" height="398" viewBox="0 0 302 398" fill="none" xmlns="http://www.w3.org/2000/svg">
<g clip-path="url(#clip0_1934_26113)">
<path d="M190.807 219.392C190.807 219.392 235.69 193.884 237.406 166.945C239.122 140.005 210.799 128.671 203.348 129.642C195.898 130.612 200.996 136.154 200.996 136.154C200.996 136.154 227.853 144.51 229.253 159.515C230.908 177.255 222.8 188.704 186.591 214.357L190.807 219.392Z" fill="#3384BD"/>
<path d="M213.411 141.198C213.922 141.775 214.399 141.263 213.918 140.68C212.329 138.755 214.283 134.829 216.807 135.265C217.607 135.403 217.977 134.209 217.157 134.028C213.323 133.18 210.94 138.408 213.411 141.198ZM226.724 152.136C226.771 152.93 227.703 153.132 227.677 152.323C227.648 151.39 228.178 150.591 228.99 150.139C229.594 149.803 230.326 149.704 230.998 149.865C231.545 149.997 232.066 150.296 232.629 150.267C232.754 150.26 232.884 150.235 232.98 150.154C233.153 150.01 233.154 149.73 233.037 149.538C232.92 149.346 232.716 149.226 232.513 149.13C231.884 148.833 231.18 148.708 230.487 148.753C230.124 148.776 229.772 148.851 229.426 148.961C229.141 149.053 228.841 149.059 228.564 149.166C227.324 149.642 226.647 150.836 226.724 152.136ZM229.727 173.34C232.135 173.126 234.029 175.02 233.501 177.481C233.335 178.257 234.257 178.169 234.455 177.387C235.295 174.076 232.936 171.634 229.581 172.029C228.839 172.117 228.977 173.407 229.727 173.34ZM218.104 188.936C218.114 188.977 218.148 189.013 218.188 189.03C218.247 189.055 218.315 189.047 218.379 189.042C219.548 188.947 220.645 189.797 221.188 190.783C221.828 191.944 221.74 193.298 221.595 194.564C221.502 195.374 222.753 195.381 222.854 194.588C223.066 192.924 223.058 191.16 222.08 189.719C221.232 188.469 219.471 187.652 218.155 188.819C218.137 188.835 218.118 188.853 218.108 188.876C218.099 188.895 218.099 188.916 218.104 188.936ZM201.664 204.39C203.755 205.239 204.559 207.427 203.732 209.463C203.478 210.089 204.557 210.56 204.831 209.932C206.036 207.166 204.759 204.679 201.94 203.57C201.154 203.261 200.894 204.077 201.664 204.39Z" fill="#15374F"/>
<path d="M31.2539 92.4417C31.2539 92.4417 38.9924 98.1607 46.8731 94.6455C54.7537 91.1304 53.5018 80.0168 53.4616 75.7735C53.4215 71.5301 52.3715 63.5688 51.7857 62.2555C51.1998 60.9419 45.1989 57.0417 44.7948 56.7588C44.3907 56.476 35.701 71.4683 35.701 71.4683L31.2539 92.4417Z" fill="white"/>
<path d="M26.7289 104.929C26.4055 107.112 29.3953 114.022 27.4956 119.316C25.596 124.61 20.1197 127.701 18.281 127.317C16.4423 126.933 16.8265 125.094 17.3316 123.943C17.8368 122.791 19.3326 117.214 18.4032 115.961C17.4737 114.709 9.99764 112.485 8.3407 113.132C6.68375 113.778 5.57164 123.538 4.88448 123.659C4.19754 123.78 1.36888 121.8 0.843991 114.808C0.319099 107.817 3.67356 104.746 5.89641 103.291C8.11927 101.837 13.9588 100.806 14.8683 99.9378C15.7776 99.0691 41.726 53.4053 41.726 53.4053C41.726 53.4053 46.8996 42.5752 46.6979 39.4231C46.496 36.2711 44.2738 31.7041 44.9408 29.4613C45.6078 27.2185 50.4173 20.3487 54.2366 17.9042C58.0556 15.4594 57.4899 16.2676 57.3281 17.3589C57.1663 18.4499 54.7814 27.0172 55.3067 27.9873C55.8321 28.9573 58.6607 30.9376 61.1864 31.2005C63.712 31.4634 66.3997 30.6351 67.0867 30.514C67.7736 30.3928 70.4416 21.4216 71.4116 20.8962C72.3816 20.3709 75.9779 24.6953 75.8763 32.1515C75.7748 39.6076 72.1722 40.6805 70.9454 41.3448C68.5206 42.6579 62.5999 44.2335 61.1855 46.2542C59.7706 48.274 27.0525 102.747 26.7289 104.929Z" fill="#15374F"/>
<path d="M55.8216 43.4718C55.4735 43.266 55.0703 43.1264 54.6306 43.0643C52.8785 42.8168 51.1273 43.8149 49.9888 45.08C47.9546 47.3405 46.5446 50.3407 45.0525 52.9715C43.485 55.7351 41.972 58.5291 40.4567 61.3215C37.3803 66.9906 34.2444 72.6044 30.7603 78.0355C27.5171 83.0909 24.1486 88.074 21.3331 93.3873C19.9653 95.9687 17.9997 99.082 17.6541 102.033C17.4888 103.443 18.2846 105.955 20.124 105.833C21.8271 105.72 23.2896 103.672 24.1078 102.399C25.7174 99.894 27.3269 97.389 28.9365 94.8842C29.2039 94.4679 29.4829 93.9772 29.3322 93.5058C27.2549 96.5103 25.1775 99.5149 23.1002 102.519C22.6571 103.16 22.1782 103.831 21.4659 104.147C18.9468 105.262 19.4887 101.916 19.9155 100.674C20.4254 99.1889 21.1941 97.8293 21.8972 96.433C23.2302 93.7848 24.7399 91.231 26.2964 88.7095C29.3596 83.7475 32.6903 78.9555 35.7003 73.9601C38.8673 68.7042 41.7204 63.2701 44.6694 57.8911C46.1439 55.2018 47.6447 52.5264 49.2244 49.8972C49.9462 48.6958 50.6298 47.3946 51.6002 46.3718C52.1943 45.7458 52.9277 45.1659 53.8326 45.0992C54.6619 45.0383 55.6036 45.3628 55.7779 46.2633C55.8635 46.7059 55.7719 47.1639 55.6366 47.5938C55.2595 48.7905 54.5522 49.8498 53.8809 50.9098C52.6876 52.7938 51.583 54.7338 50.5715 56.7212C51.1114 56.3416 51.5019 55.7904 51.8754 55.2465C53.4636 52.9341 54.9456 50.5485 56.3147 48.0997C56.662 47.4785 57.0085 46.8339 57.0939 46.1275C57.2365 44.946 56.708 43.9955 55.8216 43.4718Z" fill="white"/>
<path d="M34.4337 58.2337C34.4337 58.2337 31.3827 57.0008 29.6247 59.082C27.8666 61.163 29.8465 64.3558 29.8465 64.3558C29.8465 64.3558 25.1386 63.7695 24.5929 66.6992C24.0471 69.6292 26.0676 71.0437 26.0676 71.0437C26.0676 71.0437 23.2589 71.1849 22.309 73.8318C21.3592 76.4786 23.3797 77.8933 23.3797 77.8933C23.3797 77.8933 17.3783 80.0144 19.54 84.2378C21.7017 88.4612 32.4311 89.0479 34.654 87.5932C36.8768 86.1386 35.0179 83.6329 35.0179 83.6329C35.0179 83.6329 39.6654 83.8759 39.9283 81.35C40.1912 78.8243 38.8576 77.2884 38.8576 77.2884C38.8576 77.2884 40.2922 77.3895 41.3028 75.0862C42.3134 72.7829 40.2929 71.3682 40.2929 71.3682C40.2929 71.3682 43.3845 70.8229 42.6574 66.7008C41.9304 62.5788 34.4337 58.2337 34.4337 58.2337Z" fill="white"/>
<path d="M52.0299 63.13C51.4955 59.1861 44.5917 53.6063 40.5301 54.6769C36.4685 55.7476 31.255 62.3343 31.255 62.3343C31.255 62.3343 29.9421 66.1382 34.7205 66.5199C39.4987 66.9015 41.3782 65.5075 41.3782 65.5075C41.3782 65.5075 42.5904 66.3562 42.0245 67.1644C41.4586 67.9726 37.8363 80.4066 38.4443 83.4338C39.0526 86.461 48.0644 87.3508 48.0644 87.3508C48.0644 87.3508 52.9013 69.5618 52.0299 63.13Z" fill="white"/>
<path d="M52.3962 72.0478C52.8365 71.5427 51.9787 70.7492 51.5211 71.2503C48.7913 74.2399 45.3509 76.111 41.235 75.5061C41.2692 75.327 41.2993 75.148 41.3374 74.9687C41.6939 73.2891 42.1832 71.6315 42.7809 70.0221C43.1113 69.1321 43.7427 68.1508 43.5612 67.1973C47.0643 65.5694 47.6919 61.885 46.1238 58.6316C45.8042 57.9687 44.7832 58.4512 45.0896 59.1229C46.3332 61.8489 44.9264 64.2975 42.9107 66.0435C42.4105 65.4994 41.7173 65.0527 41.0956 64.8514C40.4624 64.6463 39.8874 64.7812 39.3142 64.9872C39.3156 64.9731 39.3192 64.9611 39.3199 64.9464C39.4171 62.7045 38.7123 60.5041 36.8325 59.1633C36.2134 58.7216 35.5534 59.6725 36.1574 60.1276C37.6679 61.266 38.0448 63.0243 38.0716 64.8281C38.075 65.064 38.186 65.2412 38.3392 65.3541C38.169 65.4128 37.9966 65.4656 37.82 65.5048C36.4291 65.8133 33.2755 66.0585 32.4741 64.4217C31.6392 62.7165 33.7335 60.493 34.9349 59.5878C35.5722 59.1075 34.8692 57.9805 34.165 58.3959C32.0947 59.6172 29.8884 62.0996 30.6107 64.7102C31.4098 67.5992 35.4213 67.9557 37.8749 67.5378C37.9979 67.5169 38.1167 67.4859 38.2361 67.4557C38.7372 67.7286 39.2095 68.0268 39.5547 68.5116C40.0828 69.2529 40.0046 70.0076 40.1231 70.8507C39.8679 71.682 39.5665 72.509 38.8566 73.0716C37.9159 73.817 36.0624 73.4766 34.8264 73.2409C34.5258 72.8429 34.3808 72.3848 34.4263 71.8454C34.4721 71.3051 34.932 69.8791 35.5881 69.8315C36.2467 69.7837 36.2027 68.6798 35.5414 68.6657C34.2788 68.639 33.4559 70.203 33.1928 71.2809C33.0588 71.8296 33.0656 72.3805 33.1939 72.8959C32.2216 72.6523 31.2745 72.3388 30.3471 71.971C30.3877 71.8022 30.3645 71.6095 30.2397 71.4216C29.2359 69.9115 29.4061 68.2576 30.9092 67.1488C31.4424 66.7556 30.8473 65.8033 30.2698 66.1591C28.5732 67.2044 27.7727 69.4084 28.5503 71.1877C28.105 70.9767 27.6621 70.7589 27.2231 70.5305C26.3866 70.0953 25.6915 71.4733 26.463 71.9814C29.5249 73.998 33.1841 75.1747 36.8403 75.4231C37.7579 75.4855 38.5242 75.4424 39.2168 75.1487C38.8603 76.9581 38.6221 78.8077 38.5561 80.656C38.3707 80.711 38.1928 80.828 38.0453 81.0252C37.5993 81.6205 36.882 81.8948 36.0636 81.9807C35.3175 80.51 35.077 79.1341 36.1375 77.6952C36.6134 77.0493 35.616 76.3664 35.1239 76.9856C34.0456 78.3429 33.6805 80.3865 34.476 81.9505C33.253 81.8059 32.0265 81.4413 31.2346 81.1797C30.198 80.8373 29.1985 80.4021 28.2199 79.9217C28.2881 79.7322 28.2752 79.5101 28.1251 79.3027C27.1844 78.0023 26.5546 75.5097 28.6584 74.8756C29.3896 74.6553 29.2173 73.4827 28.4472 73.6787C25.8984 74.3278 25.5347 76.9378 26.4392 78.994C25.8511 78.672 25.2675 78.3422 24.6862 78.0125C23.8168 77.5195 22.9082 78.7604 23.7812 79.305C23.9453 79.4074 24.1094 79.5094 24.2739 79.6116C23.693 79.974 23.1874 80.5084 22.815 81.0184C22.0068 82.1246 22.1909 83.2718 22.6231 84.4873C22.9132 85.3032 24.1064 84.7178 23.8345 83.9116C23.5661 83.1168 23.4299 82.4015 23.972 81.6878C24.3609 81.1759 24.9556 80.5737 25.6054 80.4243C27.0482 81.2872 28.5229 82.0913 30.0756 82.7122C29.4854 84.1086 29.6121 85.7669 30.4099 87.0818C30.8122 87.7447 31.9132 87.2488 31.5177 86.5553C30.8894 85.4534 30.8552 84.26 31.3368 83.1628C31.8182 83.3174 32.305 83.4583 32.8043 83.5696C34.6022 83.9703 36.9565 84.226 38.5842 83.2104C38.5999 83.4844 38.6153 83.7586 38.64 84.0317C38.7254 84.9748 40.1007 85.0579 40.488 84.3551C42.9799 88.6044 49.2054 85.5656 51.9064 84.0322C52.5811 83.6492 52.0884 82.5645 51.3824 82.9291C48.9617 84.1795 42.6317 86.4314 41.218 82.7748C41.1124 82.5015 40.8622 82.395 40.6106 82.4086C40.6473 80.5361 40.7448 78.686 41.0108 76.8351C45.588 79.2893 49.5532 75.3089 52.3962 72.0478Z" fill="#EBF3F8"/>
<path d="M42.332 92.9685C42.332 92.9685 51.643 143.747 76.5159 154.236C101.389 164.725 121.415 141.712 122.951 134.357C124.488 127.002 117.577 129.992 117.577 129.992C117.577 129.992 100.844 152.602 86.2153 148.984C68.9197 144.706 60.7771 133.281 48.475 90.6455L42.332 92.9685Z" fill="#3384BD"/>
<path d="M108.726 140.055C108.013 140.347 108.34 140.967 109.049 140.704C111.389 139.838 114.453 142.974 113.21 145.215C112.816 145.925 113.822 146.668 114.264 145.952C116.326 142.612 112.173 138.64 108.726 140.055ZM94.0155 149.025C93.2499 148.808 92.7522 149.621 93.5243 149.863C94.415 150.143 94.9954 150.906 95.1545 151.822C95.2729 152.503 95.1262 153.226 94.7523 153.808C94.4477 154.282 93.9939 154.675 93.8362 155.216C93.8011 155.336 93.7825 155.468 93.8267 155.585C93.906 155.795 94.17 155.888 94.3899 155.841C94.6097 155.794 94.7906 155.641 94.9481 155.481C95.4347 154.985 95.7851 154.36 95.9707 153.692C96.0679 153.342 96.1139 152.985 96.123 152.622C96.1304 152.323 96.2236 152.037 96.2143 151.74C96.1724 150.412 95.2674 149.38 94.0155 149.025ZM73.0044 144.88C72.4135 147.224 70.0024 148.389 67.852 147.081C67.1741 146.668 66.9532 147.568 67.6263 148.013C70.4767 149.895 73.559 148.472 74.2901 145.173C74.4517 144.444 73.1882 144.15 73.0044 144.88ZM62.1036 128.77C62.0621 128.767 62.0163 128.787 61.9875 128.819C61.9445 128.867 61.9293 128.933 61.913 128.995C61.6184 130.131 60.4544 130.887 59.3447 131.075C58.0375 131.297 56.7885 130.768 55.6401 130.214C54.906 129.86 54.4877 131.039 55.2032 131.395C56.7049 132.143 58.3731 132.716 60.0562 132.267C61.5157 131.878 62.8667 130.484 62.1979 128.858C62.1884 128.835 62.1779 128.811 62.1598 128.794C62.1439 128.78 62.1242 128.772 62.1036 128.77ZM52.9234 108.16C51.4335 109.855 49.1026 109.893 47.4529 108.443C46.945 107.996 46.1452 108.861 46.6481 109.326C48.8632 111.374 51.6314 110.987 53.6065 108.69C54.1577 108.049 53.4723 107.535 52.9234 108.16Z" fill="#15374F"/>
<path d="M208.443 119.591C207.511 116.557 204.561 114.539 201.917 113.105C198.242 111.112 194.194 109.817 190.171 108.742C176.491 105.086 161.806 104.873 147.769 106.204C140.599 106.884 133.646 108.127 126.864 110.547C122.457 112.12 115.99 114.597 114.456 119.591C110.8 131.492 116.118 172.446 136.061 194.499C140.163 199.035 145.023 203.237 150.569 205.981C156.281 208.808 161.902 209.39 167.959 207.604C175.428 205.402 181.695 200.187 186.839 194.499C206.781 172.446 212.099 131.492 208.443 119.591Z" fill="#EBF3F8"/>
<path d="M208.27 119.102C207.187 116.339 204.416 114.46 201.917 113.105C198.242 111.112 194.195 109.817 190.172 108.742C176.492 105.086 161.806 104.873 147.769 106.204C140.599 106.884 133.646 108.127 126.865 110.547C122.458 112.12 115.991 114.597 114.457 119.591C114.434 119.665 114.413 119.746 114.391 119.822C115.559 124.141 124.99 131.142 162.363 131.142C167.57 131.142 172.194 130.957 176.307 130.632C176.079 133.744 176.324 136.851 176.636 139.96C176.975 143.331 177.714 147.019 177.286 150.407C177.066 152.151 175.492 153.441 174.391 154.697C173.404 155.822 172.418 156.946 171.432 158.071C169.512 160.262 167.54 162.477 166.851 165.39C166.094 168.589 166.284 172.137 166.404 175.395C166.523 178.641 166.83 181.889 167.349 185.095C167.852 188.198 168.788 191.035 170.683 193.568C172.415 195.882 174.598 197.78 176.783 199.649C177.791 200.512 179.262 199.051 178.247 198.181C176.072 196.318 173.824 194.424 172.149 192.074C170.266 189.432 169.598 186.4 169.161 183.24C168.678 179.743 168.443 176.208 168.435 172.677C168.428 169.381 168.303 165.874 170.133 162.992C171.814 160.345 174.223 158.037 176.281 155.685C178.059 153.654 179.35 152.205 179.396 149.384C179.5 143.04 177.958 136.814 178.232 130.467C199.891 128.443 206.386 122.36 208.27 119.102Z" fill="#3384BD"/>
<path d="M182.698 185.906C180.603 187.529 178.361 188.911 175.961 190.032C174.831 190.56 175.815 192.19 176.931 191.697C179.519 190.554 181.919 189.109 184.128 187.339C185.151 186.519 183.71 185.123 182.698 185.906ZM182.533 190.797C181.047 191.776 179.602 192.734 177.972 193.464C177.009 193.894 177.703 195.583 178.697 195.188C180.491 194.475 182.241 193.598 183.718 192.337C184.561 191.618 183.459 190.187 182.533 190.797ZM183.434 181.318C181.85 182.089 180.455 183.254 178.977 184.211C177.487 185.176 175.973 186.102 174.448 187.012C173.428 187.621 174.327 189.134 175.374 188.599C178.446 187.03 182.087 185.207 184.461 182.651C185.134 181.927 184.293 180.899 183.434 181.318Z" fill="#C0D9EB"/>
<path d="M176.078 143.546C175.883 141.107 175.653 138.673 175.404 136.24C175.301 135.233 173.734 135.202 173.808 136.24C174.097 140.296 174.356 144.358 174.524 148.421C174.613 150.579 173.154 151.831 171.868 153.419C170.73 154.824 169.494 156.186 168.493 157.693C167.905 158.578 169.218 159.559 169.946 158.816C171.45 157.282 172.729 155.476 174.082 153.806C175.032 152.633 176.303 151.449 176.462 149.866C176.667 147.828 176.241 145.584 176.078 143.546ZM144.022 132.494C135.073 131.974 126.345 129.709 118.318 125.698C117.253 125.166 116.312 126.757 117.38 127.306C125.665 131.566 134.715 134.057 144.022 134.512C145.32 134.576 145.311 132.569 144.022 132.494Z" fill="white"/>
<path d="M102.153 33.5352C102.153 33.5352 88.6579 40.1314 86.9115 58.6833C85.165 77.2353 95.5112 84.7107 99.8561 86.486C104.201 88.2612 109.44 71.8097 109.44 71.8097L102.153 33.5352Z" fill="#3384BD"/>
<path d="M159.773 112.489C195.527 110.114 222.902 83.9697 220.917 54.0945C218.932 24.2192 188.339 1.92616 152.585 4.30154C116.832 6.67691 89.4567 32.8212 91.4415 62.6965C93.4264 92.5718 124.019 114.865 159.773 112.489Z" fill="#EBF3F8"/>
<path d="M226.108 45.5573C226.108 45.5573 220.17 27.7055 210.739 29.8055C201.309 31.9058 193.275 45.5573 193.624 60.9589C193.974 76.3604 214.131 97.5805 224.136 69.2937C224.136 69.2937 228.378 67.7845 229.775 59.0336C231.172 50.2829 226.108 45.5573 226.108 45.5573Z" fill="#3384BD"/>
<path d="M223.833 44.6817C224.873 44.866 224.969 44.1387 223.911 43.8654C215.683 41.7402 209.028 51.5153 208.777 58.5109C208.638 62.381 209.801 66.6279 212.593 69.4203C215.226 72.0545 220.401 72.4333 223.484 69.8843C224.388 69.1366 223.432 68.6906 222.498 69.1407C215.21 72.656 211.098 63.8534 211.594 57.7954C212.058 52.1145 217.157 43.4989 223.833 44.6817Z" fill="#15374F"/>
<path d="M89.0093 50.9824C89.0093 50.9824 85.5164 52.7325 85.1672 61.8336C84.8179 70.9344 90.7558 73.7348 90.7558 73.7348L89.0093 50.9824Z" fill="#3384BD"/>
<path d="M102.755 46.4443C102.755 46.4443 95.041 62.1652 103.378 70.5204C103.378 70.5204 164.399 70.5204 165.464 70.5204C166.528 70.5204 159.843 60.1556 165.697 45.7564C165.697 45.7564 103.109 44.6665 102.755 46.4443Z" fill="#15374F"/>
<path d="M188.853 30.7217C190.633 28.9319 192.182 27.1403 190.427 24.6838C189.531 23.4296 188.403 22.3275 187.279 21.2822C186.704 20.7471 186.09 20.2333 185.642 19.5813C185.042 18.7079 184.487 16.4283 186.361 16.4485C187.34 16.4589 187.32 15.0035 186.361 14.9373C184.443 14.8052 183.15 16.6717 183.328 18.4821C183.587 21.1034 186.463 22.9303 188.026 24.7847C188.973 25.9081 189.664 26.8978 188.576 28.145C188.161 28.6214 187.658 29.0339 187.208 29.4779C186.052 30.6176 184.959 31.8163 183.925 33.0678C182.106 35.2694 180.452 37.6117 179.023 40.0863C173.07 50.394 171.089 62.8634 174.639 74.3419C175.639 77.576 177.055 80.6963 178.889 83.5422C180.826 86.5497 183.222 89.2235 185.199 92.2034C183.569 93.8247 181.767 95.2043 179.75 96.3359C178.249 97.1776 176.535 98.0019 175.579 99.5104C173.381 102.979 176.675 106.078 179.43 107.789C180.579 108.502 181.604 106.714 180.484 105.982C179.229 105.163 177.664 104.174 177.145 102.691C176.502 100.854 178.158 99.6792 179.548 98.867C182.403 97.1987 185.006 95.5109 187.296 93.0827C187.61 92.7502 187.715 92.2027 187.462 91.7999C184.28 86.7482 180.12 82.5328 177.809 76.9344C175.634 71.6646 174.724 65.9089 175.018 60.2212C175.599 49.016 181.032 38.5844 188.853 30.7217Z" fill="#3384BD"/>
<path d="M196.988 86.3145C196.045 87.1528 195.273 88.1393 194.386 89.0366C193.598 89.8348 192.596 91.0562 191.458 91.2551C190.118 91.4895 190.421 93.7239 191.78 93.64C193.366 93.5421 194.489 92.4876 195.626 91.4659C196.848 90.3676 198.048 89.1873 198.788 87.706C199.374 86.535 197.978 85.4349 196.988 86.3145ZM198.948 90.1292C197.698 92.1918 195.987 93.5217 193.896 94.6529C192.672 95.3156 193.506 97.4195 194.859 96.9422C197.562 95.9889 199.801 93.9236 201.247 91.4766C202.124 89.9944 199.837 88.662 198.948 90.1292Z" fill="#C0D9EB"/>
<path d="M105.766 60.7354L106.241 57.2545L109.884 57.1543L109.408 60.6352L105.766 60.7354Z" fill="white"/>
<path d="M118.602 60.3817L119.077 56.901L122.72 56.8008L122.244 60.2815L118.602 60.3817Z" fill="white"/>
<path d="M110.453 56.451L110.929 52.9701L114.571 52.8701L114.096 56.3508L110.453 56.451Z" fill="white"/>
<path d="M114.957 56.3279L115.433 52.847L119.075 52.7471L118.6 56.2278L114.957 56.3279Z" fill="white"/>
<path d="M136.719 60.7354L137.194 57.2545L140.837 57.1543L140.361 60.6352L136.719 60.7354Z" fill="white"/>
<path d="M149.559 60.3817L150.034 56.901L153.677 56.8008L153.201 60.2815L149.559 60.3817Z" fill="white"/>
<path d="M141.406 56.451L141.882 52.9701L145.524 52.8701L145.049 56.3508L141.406 56.451Z" fill="white"/>
<path d="M145.914 56.3279L146.39 52.847L150.032 52.7471L149.556 56.2278L145.914 56.3279Z" fill="white"/>
<path d="M185.878 26.703C179.21 32.2756 173.238 40.2951 171.506 48.9454C171.271 50.1212 173.045 50.6314 173.314 49.4449C174.26 45.2775 176.006 41.4537 178.381 37.9109C180.876 34.1884 184.031 31.1451 187.001 27.8282C187.692 27.0565 186.657 26.0516 185.878 26.703ZM171.584 52.1605C170.362 52.1605 170.36 54.0638 171.584 54.0638C172.806 54.0638 172.808 52.1605 171.584 52.1605ZM133.202 13.7291C120.983 17.5312 110.156 26.1894 102.403 36.1893C101.844 36.9112 102.841 37.9406 103.422 37.2103C107.317 32.3177 112.01 27.9413 117.09 24.3063C122.275 20.5963 127.843 17.9933 133.716 15.5962C134.833 15.14 134.421 13.3498 133.202 13.7291Z" fill="white"/>
<path d="M142.726 84.4133C137.308 87.7659 130.866 89.188 125.012 85.2733C123.706 84.3999 122.438 86.1513 123.573 87.2462C130.021 93.4638 138.159 89.4618 144.274 85.7169C145.751 84.8126 144.215 83.492 142.726 84.4133Z" fill="#C0D9EB"/>
</g>
<path d="M35.7715 235L67.6435 177.4H84.2835L51.6435 235H35.7715ZM35.7715 243.96V235L42.0435 230.776H105.276V243.96H35.7715ZM78.2675 267V208.376H92.7315V267H78.2675Z" fill="#15374F"/>
<g filter="url(#filter0_ddd_1934_26113)">
<rect x="109" y="139" width="116" height="161" rx="24" fill="white"/>
<path d="M167.175 268.28C160.433 268.28 154.247 266.403 148.615 262.648C143.068 258.808 138.631 253.432 135.303 246.52C131.975 239.608 130.311 231.459 130.311 222.072C130.311 212.685 131.932 204.579 135.175 197.752C138.503 190.84 142.94 185.507 148.487 181.752C154.033 177.997 160.177 176.12 166.919 176.12C173.745 176.12 179.932 177.997 185.479 181.752C191.025 185.507 195.42 190.84 198.663 197.752C201.991 204.579 203.655 212.728 203.655 222.2C203.655 231.587 201.991 239.736 198.663 246.648C195.42 253.56 191.025 258.893 185.479 262.648C180.017 266.403 173.916 268.28 167.175 268.28ZM166.919 254.456C171.356 254.456 175.196 253.261 178.439 250.872C181.681 248.483 184.199 244.899 185.991 240.12C187.868 235.341 188.807 229.325 188.807 222.072C188.807 214.904 187.868 208.931 185.991 204.152C184.199 199.373 181.639 195.832 178.311 193.528C175.068 191.139 171.271 189.944 166.919 189.944C162.567 189.944 158.727 191.139 155.399 193.528C152.156 195.832 149.639 199.373 147.847 204.152C146.055 208.845 145.159 214.819 145.159 222.072C145.159 229.325 146.055 235.341 147.847 240.12C149.639 244.899 152.156 248.483 155.399 250.872C158.727 253.261 162.567 254.456 166.919 254.456Z" fill="#15374F"/>
</g>
<path d="M228.772 235L260.644 177.4H277.284L244.644 235H228.772ZM228.772 243.96V235L235.044 230.776H298.276V243.96H228.772ZM271.268 267V208.376H285.732V267H271.268Z" fill="#15374F"/>
<defs>
<filter id="filter0_ddd_1934_26113" x="72" y="109" width="190" height="289" filterUnits="userSpaceOnUse" color-interpolation-filters="sRGB">
<feFlood flood-opacity="0" result="BackgroundImageFix"/>
<feColorMatrix in="SourceAlpha" type="matrix" values="0 0 0 0 0 0 0 0 0 0 0 0 0 0 0 0 0 0 127 0" result="hardAlpha"/>
<feOffset dy="7"/>
<feGaussianBlur stdDeviation="7.5"/>
<feColorMatrix type="matrix" values="0 0 0 0 0 0 0 0 0 0 0 0 0 0 0 0 0 0 0.1 0"/>
<feBlend mode="normal" in2="BackgroundImageFix" result="effect1_dropShadow_1934_26113"/>
<feColorMatrix in="SourceAlpha" type="matrix" values="0 0 0 0 0 0 0 0 0 0 0 0 0 0 0 0 0 0 127 0" result="hardAlpha"/>
<feOffset dy="-3"/>
<feGaussianBlur stdDeviation="13.5"/>
<feColorMatrix type="matrix" values="0 0 0 0 0 0 0 0 0 0 0 0 0 0 0 0 0 0 0.09 0"/>
<feBlend mode="normal" in2="effect1_dropShadow_1934_26113" result="effect2_dropShadow_1934_26113"/>
<feColorMatrix in="SourceAlpha" type="matrix" values="0 0 0 0 0 0 0 0 0 0 0 0 0 0 0 0 0 0 127 0" result="hardAlpha"/>
<feOffset dy="61"/>
<feGaussianBlur stdDeviation="18.5"/>
<feColorMatrix type="matrix" values="0 0 0 0 0 0 0 0 0 0 0 0 0 0 0 0 0 0 0.05 0"/>
<feBlend mode="normal" in2="effect2_dropShadow_1934_26113" result="effect3_dropShadow_1934_26113"/>
<feBlend mode="normal" in="SourceGraphic" in2="effect3_dropShadow_1934_26113" result="shape"/>
</filter>
<clipPath id="clip0_1934_26113">
<rect width="262.633" height="213" fill="white"/>
</clipPath>
</defs>
</svg>
