<svg width="60" height="66" viewBox="0 0 60 66" fill="none" xmlns="http://www.w3.org/2000/svg">
<path d="M60 30.3052V20.725C60 15.313 60 12.607 58.653 10.8415C57.306 9.076 54.2603 8.21886 48.169 6.50464C44.0073 5.33347 40.3387 3.92248 37.4077 2.63436C33.4113 0.878131 31.4133 0 30 0C28.5867 0 26.5887 0.878131 22.5924 2.63436C19.6613 3.92248 15.9928 5.33347 11.8311 6.50464C5.73977 8.21886 2.69407 9.076 1.34703 10.8415C-1.98682e-07 12.607 0 15.313 0 20.725V30.3052C0 48.868 16.8759 60.0056 25.3133 64.414C27.337 65.4713 28.3487 66 30 66C31.6513 66 32.663 65.4713 34.6867 64.414C43.124 60.0056 60 48.868 60 30.3052Z" fill="white"/>
<path d="M26.211 21.6163L25.6741 20.4083C25.3231 19.6185 25.1476 19.2236 24.8851 18.9213C24.5561 18.5426 24.1273 18.2639 23.6476 18.1171C23.2648 18 22.8326 18 21.9683 18C20.7039 18 20.0717 18 19.541 18.2431C18.9158 18.5294 18.3512 19.151 18.1263 19.8008C17.9353 20.3524 17.99 20.9192 18.0994 22.0529C19.2639 34.1202 25.8798 40.7361 37.947 41.9006C39.0807 42.0099 39.6477 42.0646 40.1991 41.8737C40.849 41.6487 41.4706 41.0842 41.757 40.459C41.9999 39.9283 41.9999 39.2961 41.9999 38.0317C41.9999 37.1674 41.9999 36.7353 41.8829 36.3525C41.7361 35.8727 41.4574 35.4439 41.0786 35.1149C40.7765 34.8525 40.3815 34.6769 39.5917 34.3258L38.3837 33.789C37.5283 33.4089 37.1006 33.2187 36.6661 33.1774C36.2501 33.1378 35.8307 33.1962 35.4414 33.3478C35.0346 33.5062 34.6751 33.8058 33.9559 34.4051C33.2402 35.0015 32.8823 35.2998 32.445 35.4595C32.0573 35.6013 31.5447 35.6537 31.1365 35.5935C30.6758 35.5257 30.3231 35.3371 29.6177 34.9602C27.423 33.7873 26.2127 32.577 25.0398 30.3823C24.6629 29.6769 24.4744 29.3242 24.4065 28.8635C24.3463 28.4553 24.3988 27.9427 24.5404 27.555C24.7002 27.1177 24.9984 26.7598 25.5949 26.044C26.1942 25.3249 26.4938 24.9654 26.6522 24.5585C26.8038 24.1693 26.8622 23.7499 26.8226 23.334C26.7813 22.8994 26.5912 22.4717 26.211 21.6163Z" stroke="#2E78AC" stroke-width="1.5" stroke-linecap="round"/>
</svg>
