<svg width="512" height="512" viewBox="0 0 512 512" fill="none" xmlns="http://www.w3.org/2000/svg">
<g clip-path="url(#clip0_1147_16381)">
<path d="M256 0C114.844 0 0 114.844 0 256C0 397.156 114.844 512 256 512C397.156 512 512 397.156 512 256C512 114.844 397.156 0 256 0ZM256 480C132.484 480 32 379.516 32 256C32 132.484 132.484 32 256 32C379.516 32 480 132.484 480 256C480 379.516 379.516 480 256 480ZM347.312 228.688C348.799 230.173 349.978 231.936 350.783 233.877C351.587 235.818 352.002 237.899 352.002 240C352.002 242.101 351.587 244.182 350.783 246.123C349.978 248.064 348.799 249.827 347.312 251.312C344.188 254.436 340.092 256 336 256C331.908 256 327.812 254.436 324.688 251.312L272 198.624V352C272 360.844 264.836 368 256 368C247.164 368 240 360.844 240 352V198.624L187.312 251.312C181.06 257.564 170.936 257.564 164.688 251.312C158.44 245.06 158.436 234.936 164.688 228.688L244.688 148.688C246.173 147.201 247.936 146.022 249.877 145.217C251.818 144.413 253.899 143.998 256 143.998C258.101 143.998 260.182 144.413 262.123 145.217C264.064 146.022 265.827 147.201 267.312 148.688L347.312 228.688Z" fill="white"/>
</g>
<defs>
<clipPath id="clip0_1147_16381">
<rect width="512" height="512" fill="white"/>
</clipPath>
</defs>
</svg>
