<svg width="497" height="641" viewBox="0 0 497 641" fill="none" xmlns="http://www.w3.org/2000/svg">
<g style="mix-blend-mode:multiply" opacity="0.2">
<path d="M495.999 528.258L300.562 641L105.138 528.258L136.792 510.002L295.182 601.372L300.393 599.074L306.085 601.294L464.344 510.002L495.999 528.258Z" fill="#15374F"/>
</g>
<g style="mix-blend-mode:multiply" opacity="0.2">
<path d="M110.258 289.685L295.585 182.786C298.613 181.046 302.342 181.046 305.37 182.786L490.698 289.685C493.011 291.022 493.011 294.359 490.698 295.697L303.018 403.972C301.446 404.881 299.523 404.881 297.95 403.972L110.271 295.697C107.958 294.359 107.958 291.022 110.271 289.685H110.258Z" fill="#15374F"/>
<path d="M110.258 289.685L295.585 182.786C298.613 181.046 302.342 181.046 305.37 182.786L490.698 289.685C493.011 291.022 493.011 294.359 490.698 295.697L303.018 403.972C301.446 404.881 299.523 404.881 297.95 403.972L110.271 295.697C107.958 294.359 107.958 291.022 110.271 289.685H110.258Z" stroke="black" stroke-width="2" stroke-linecap="round" stroke-linejoin="round"/>
</g>
<path d="M164.99 281.192L293.831 206.87C297.937 204.494 303.005 204.494 307.124 206.87L435.964 281.192C444.827 286.308 444.827 299.084 435.964 304.187L307.124 378.509C303.018 380.885 297.95 380.885 293.831 378.509L164.99 304.187C156.128 299.071 156.128 286.295 164.99 281.192Z" fill="#E7EBEE"/>
<path d="M300.47 409.284V597.451C300.47 600.282 303.523 602.061 305.992 600.658L492.554 494.266C494.633 493.084 495.92 490.864 495.92 488.475V297.853C495.92 295.568 493.425 294.127 491.437 295.282L303.809 403.519C301.743 404.713 300.47 406.908 300.47 409.297V409.284Z" stroke="white" stroke-width="2" stroke-linecap="round" stroke-linejoin="round"/>
<path d="M300.483 408.373V597.709C300.483 600.423 297.546 602.124 295.181 600.786L106.826 493.368C105.722 492.732 105.046 491.563 105.046 490.291V298.825C105.046 296.098 108.009 294.397 110.374 295.761L297.949 403.971C299.521 404.88 300.496 406.555 300.496 408.373H300.483Z" stroke="white" stroke-width="2" stroke-linecap="round" stroke-linejoin="round"/>
<path d="M300.47 476.957L495.881 364.176" stroke="white" stroke-width="2" stroke-linecap="round" stroke-linejoin="round"/>
<path d="M300.574 541.903L495.881 429.226" stroke="white" stroke-linecap="round" stroke-linejoin="round"/>
<path d="M105.046 364.226L300.418 476.916" stroke="white" stroke-linecap="round" stroke-linejoin="round"/>
<path d="M105.033 429.109L244.178 509.378L300.47 541.851H300.483L300.574 541.903" stroke="white" stroke-linecap="round" stroke-linejoin="round"/>
<path d="M277.886 431.914L189.173 380.73" stroke="white" stroke-linecap="round" stroke-linejoin="round"/>
<path d="M277.886 497.081L189.173 445.897" stroke="white" stroke-linecap="round" stroke-linejoin="round"/>
<path d="M277.886 563.225L189.173 512.041" stroke="white" stroke-linecap="round" stroke-linejoin="round"/>
<path d="M138.755 359.69C142.148 357.732 142.078 351.262 138.597 345.238C135.116 339.214 129.544 335.918 126.15 337.875C122.757 339.833 122.828 346.304 126.308 352.328C129.789 358.351 135.361 361.648 138.755 359.69Z" stroke="white" stroke-linecap="round" stroke-linejoin="round"/>
<path d="M169.053 439.168C172.446 437.21 172.376 430.74 168.895 424.716C165.414 418.692 159.842 415.396 156.448 417.353C153.055 419.311 153.125 425.781 156.606 431.805C160.087 437.829 165.659 441.126 169.053 439.168Z" stroke="white" stroke-linecap="round" stroke-linejoin="round"/>
<path d="M169.053 504.365C172.446 502.408 172.376 495.937 168.895 489.913C165.414 483.889 159.842 480.593 156.448 482.551C153.055 484.508 153.125 490.979 156.606 497.003C160.087 503.027 165.659 506.323 169.053 504.365Z" stroke="white" stroke-linecap="round" stroke-linejoin="round"/>
<path d="M169.929 375.81C173.677 373.647 173.5 366.332 169.535 359.469C165.57 352.607 159.318 348.797 155.57 350.959C151.822 353.121 151.999 360.437 155.964 367.299C159.929 374.161 166.181 377.972 169.929 375.81Z" fill="#3272B9"/>
<path d="M139.632 492.039C143.38 489.876 143.204 482.561 139.239 475.698C135.274 468.836 129.021 465.026 125.273 467.188C121.525 469.35 121.702 476.666 125.667 483.528C129.632 490.39 135.884 494.201 139.632 492.039Z" fill="#3272B9"/>
<path d="M138.755 424.327C142.148 422.369 142.078 415.899 138.597 409.875C135.116 403.851 129.544 400.555 126.15 402.512C122.757 404.47 122.828 410.941 126.308 416.964C129.789 422.988 135.361 426.285 138.755 424.327Z" stroke="white" stroke-width="2" stroke-linecap="round" stroke-linejoin="round"/>
<path d="M304.979 247.979H304.901C304.901 247.979 304.862 247.979 304.836 247.979C304.836 247.979 304.797 247.979 304.771 247.979C304.771 247.979 304.732 247.979 304.706 247.979C304.706 247.979 304.667 247.979 304.641 247.979C304.641 247.979 304.602 247.979 304.576 247.979C304.55 247.979 304.538 247.979 304.512 247.979C304.512 247.979 304.472 247.979 304.446 247.979H304.381C304.355 247.979 304.343 247.979 304.317 247.979C304.317 247.979 304.278 247.979 304.252 247.979C304.252 247.979 304.213 247.979 304.187 247.979C304.161 247.979 304.148 247.979 304.122 247.979C304.122 247.979 304.083 247.979 304.057 247.979C304.057 247.979 304.018 247.979 303.992 247.979C303.992 247.979 303.953 247.979 303.927 247.979C303.901 247.979 303.888 247.979 303.862 247.979C303.836 247.979 303.823 247.979 303.797 247.979C303.771 247.979 303.758 247.979 303.732 247.979C303.706 247.979 303.693 247.979 303.667 247.979C303.641 247.979 303.628 247.979 303.602 247.979C303.576 247.979 303.563 247.979 303.537 247.979C303.511 247.979 303.498 247.979 303.472 247.979C303.446 247.979 303.433 247.979 303.407 247.979C303.381 247.979 303.368 247.979 303.342 247.979C303.316 247.979 303.303 247.979 303.277 247.979C303.277 247.979 303.238 247.979 303.212 247.979C303.186 247.979 303.173 247.979 303.147 247.979C303.121 247.979 303.108 247.979 303.082 247.979C303.082 247.979 303.043 247.979 303.017 247.979C302.991 247.979 302.978 247.979 302.952 247.979C302.926 247.979 302.913 247.979 302.887 247.979C302.861 247.979 302.848 247.979 302.822 247.979C302.822 247.979 302.783 247.979 302.757 247.979C302.731 247.979 302.718 247.979 302.692 247.979C302.666 247.979 302.653 247.979 302.627 247.979H302.562C302.536 247.979 302.523 247.979 302.51 247.979C302.484 247.979 302.471 247.979 302.445 247.979C302.419 247.979 302.406 247.979 302.38 247.979C302.354 247.979 302.341 247.979 302.328 247.979C302.302 247.979 302.289 247.979 302.263 247.979C302.237 247.979 302.224 247.979 302.198 247.979C302.172 247.979 302.159 247.979 302.146 247.979C302.12 247.979 302.108 247.979 302.082 247.979C302.082 247.979 302.043 247.979 302.017 247.979C301.991 247.979 301.977 247.979 301.965 247.979C301.939 247.979 301.926 247.979 301.913 247.979C301.887 247.979 301.874 247.979 301.848 247.979C301.835 247.979 301.809 247.979 301.796 247.979C301.77 247.979 301.757 247.979 301.731 247.979C301.705 247.979 301.692 247.979 301.666 247.979C301.64 247.979 301.627 247.979 301.601 247.979C301.588 247.979 301.562 247.979 301.549 247.979C301.523 247.979 301.51 247.979 301.484 247.979H301.419C301.393 247.979 301.38 247.979 301.367 247.979C301.341 247.979 301.328 247.979 301.302 247.979C301.276 247.979 301.263 247.979 301.237 247.979C301.224 247.979 301.198 247.979 301.185 247.979C301.172 247.979 301.146 247.979 301.133 247.979C301.107 247.979 301.094 247.979 301.068 247.979C301.055 247.979 301.029 247.979 301.016 247.979C301.003 247.979 300.977 247.979 300.964 247.979C300.938 247.979 300.925 247.979 300.899 247.979C300.886 247.979 300.86 247.979 300.847 247.979C300.847 247.979 300.847 247.979 300.834 247.979C300.821 247.979 300.795 247.979 300.782 247.979C300.769 247.979 300.743 247.979 300.73 247.979C300.73 247.979 300.73 247.979 300.717 247.979C300.704 247.979 300.678 247.979 300.665 247.979C300.652 247.979 300.626 247.979 300.613 247.979C300.6 247.979 300.574 247.979 300.561 247.979C300.548 247.979 300.522 247.979 300.509 247.979C300.509 247.979 300.509 247.979 300.496 247.979C300.483 247.979 300.457 247.979 300.444 247.979C300.431 247.979 300.405 247.979 300.392 247.979C300.392 247.979 300.392 247.979 300.379 247.979C300.366 247.979 300.34 247.979 300.327 247.979C300.314 247.979 300.288 247.979 300.275 247.979C300.262 247.979 300.236 247.979 300.223 247.979C300.197 247.979 300.184 247.979 300.158 247.979C300.145 247.979 300.119 247.979 300.106 247.979C300.106 247.979 300.106 247.979 300.093 247.979C300.08 247.979 300.054 247.979 300.041 247.979C300.041 247.979 300.041 247.979 300.028 247.979C300.002 247.979 299.989 247.979 299.963 247.979C299.95 247.979 299.924 247.979 299.911 247.979C299.911 247.979 299.911 247.979 299.898 247.979C299.885 247.979 299.859 247.979 299.846 247.979C299.833 247.979 299.808 247.979 299.782 247.979C299.769 247.979 299.742 247.979 299.729 247.979C299.716 247.979 299.69 247.979 299.677 247.979C299.664 247.979 299.639 247.979 299.626 247.979C299.613 247.979 299.587 247.979 299.574 247.979C299.574 247.979 299.574 247.979 299.561 247.979C299.548 247.979 299.522 247.979 299.509 247.979C299.509 247.979 299.509 247.979 299.496 247.979C299.483 247.979 299.457 247.979 299.444 247.979C299.418 247.979 299.405 247.979 299.379 247.979C299.366 247.979 299.34 247.979 299.327 247.979C299.327 247.979 299.327 247.979 299.314 247.979C299.301 247.979 299.275 247.979 299.262 247.979C299.262 247.979 299.262 247.979 299.249 247.979C299.236 247.979 299.21 247.979 299.197 247.979C299.197 247.979 299.197 247.979 299.184 247.979C299.171 247.979 299.145 247.979 299.132 247.979C299.132 247.979 299.132 247.979 299.119 247.979C299.106 247.979 299.093 247.979 299.067 247.979H299.054C299.041 247.979 299.015 247.979 299.002 247.979C299.002 247.979 299.002 247.979 298.989 247.979C298.976 247.979 298.95 247.979 298.937 247.979C298.937 247.979 298.937 247.979 298.924 247.979C298.911 247.979 298.898 247.979 298.872 247.979C298.872 247.979 298.872 247.979 298.859 247.979C298.846 247.979 298.82 247.979 298.807 247.979C298.807 247.979 298.794 247.979 298.781 247.979C298.768 247.979 298.742 247.979 298.729 247.979C298.729 247.979 298.729 247.979 298.716 247.979C298.703 247.979 298.69 247.979 298.664 247.979C298.664 247.979 298.664 247.979 298.651 247.979C298.638 247.979 298.612 247.979 298.599 247.979C298.599 247.979 298.586 247.979 298.573 247.979C298.56 247.979 298.534 247.979 298.521 247.979C298.521 247.979 298.521 247.979 298.508 247.979C298.495 247.979 298.482 247.979 298.456 247.979H298.443C298.43 247.979 298.404 247.979 298.391 247.979C298.391 247.979 298.391 247.979 298.378 247.979C298.365 247.979 298.339 247.979 298.326 247.979C298.326 247.979 298.326 247.979 298.313 247.979C298.3 247.979 298.274 247.979 298.261 247.979H298.248C298.235 247.979 298.222 247.979 298.196 247.979C298.196 247.979 298.196 247.979 298.183 247.979C298.17 247.979 298.144 247.979 298.131 247.979C298.131 247.979 298.118 247.979 298.105 247.979C298.092 247.979 298.066 247.979 298.053 247.979C298.053 247.979 298.053 247.979 298.04 247.979C298.027 247.979 298.014 247.979 297.988 247.979C297.988 247.979 297.975 247.979 297.962 247.979C297.949 247.979 297.936 247.979 297.91 247.979C297.91 247.979 297.897 247.979 297.884 247.979C297.871 247.979 297.858 247.979 297.832 247.979C297.832 247.979 297.819 247.979 297.806 247.979C297.793 247.979 297.78 247.979 297.754 247.979C297.754 247.979 297.754 247.979 297.728 247.979C297.715 247.979 297.702 247.979 297.676 247.979C297.676 247.979 297.663 247.979 297.65 247.979C297.637 247.979 297.624 247.979 297.598 247.979C297.598 247.979 297.598 247.979 297.572 247.979C297.559 247.979 297.546 247.979 297.52 247.979C297.52 247.979 297.52 247.979 297.507 247.979C297.494 247.979 297.481 247.979 297.468 247.979C297.468 247.979 297.455 247.979 297.442 247.979C297.442 247.979 297.416 247.979 297.403 247.979C297.403 247.979 297.391 247.979 297.378 247.979C297.365 247.979 297.352 247.979 297.339 247.979C297.339 247.979 297.326 247.979 297.313 247.979C297.3 247.979 297.286 247.979 297.274 247.979C297.274 247.979 297.26 247.979 297.247 247.979C297.234 247.979 297.222 247.979 297.209 247.979C297.209 247.979 297.196 247.979 297.183 247.979C297.17 247.979 297.157 247.979 297.144 247.979C297.144 247.979 297.131 247.979 297.118 247.979C297.105 247.979 297.092 247.979 297.079 247.979C297.079 247.979 297.066 247.979 297.053 247.979C297.053 247.979 297.027 247.979 297.014 247.979C297.014 247.979 296.988 247.979 296.975 247.979C296.975 247.979 296.949 247.979 296.936 247.979C296.936 247.979 296.923 247.979 296.91 247.979C296.91 247.979 296.884 247.979 296.871 247.979H296.845C296.845 247.979 296.819 247.979 296.806 247.979C296.806 247.979 296.78 247.979 296.767 247.979C296.767 247.979 296.741 247.979 296.728 247.979H296.702C296.702 247.979 296.676 247.979 296.663 247.979H296.637C296.637 247.979 296.611 247.979 296.598 247.979C296.598 247.979 296.572 247.979 296.559 247.979C296.559 247.979 296.533 247.979 296.52 247.979H296.494C296.481 247.979 296.468 247.979 296.455 247.979C296.455 247.979 296.442 247.979 296.429 247.979C296.429 247.979 296.403 247.979 296.39 247.979C296.39 247.979 296.364 247.979 296.351 247.979H296.325C296.325 247.979 296.299 247.979 296.286 247.979C296.286 247.979 296.26 247.979 296.247 247.979C296.247 247.979 296.234 247.979 296.221 247.979C296.208 247.979 296.195 247.979 296.182 247.979C296.182 247.979 296.169 247.979 296.156 247.979C296.156 247.979 296.13 247.979 296.117 247.979C296.117 247.979 296.104 247.979 296.091 247.979C296.078 247.979 296.065 247.979 296.052 247.979C296.052 247.979 296.039 247.979 296.026 247.979C296.013 247.979 296 247.979 295.987 247.979H295.961C295.961 247.979 295.935 247.979 295.922 247.979C295.922 247.979 295.896 247.979 295.883 247.979H295.857C295.857 247.979 295.831 247.979 295.818 247.979C295.818 247.979 295.792 247.979 295.779 247.979C295.779 247.979 295.753 247.979 295.74 247.979C295.74 247.979 295.727 247.979 295.714 247.979C295.714 247.979 295.688 247.979 295.675 247.979H295.649C295.649 247.979 295.623 247.979 295.61 247.979C295.61 247.979 295.584 247.979 295.571 247.979H295.545C295.545 247.979 295.519 247.979 295.506 247.979C295.493 247.979 295.48 247.979 295.467 247.979C295.467 247.979 295.454 247.979 295.441 247.979C295.441 247.979 295.415 247.979 295.402 247.979C295.402 247.979 295.376 247.979 295.363 247.979H295.337C295.337 247.979 295.311 247.979 295.298 247.979C295.298 247.979 295.272 247.979 295.259 247.979C295.259 247.979 295.246 247.979 295.233 247.979C295.233 247.979 295.207 247.979 295.194 247.979C295.194 247.979 295.168 247.979 295.155 247.979C295.155 247.979 295.142 247.979 295.129 247.979C295.129 247.979 295.104 247.979 295.091 247.979C295.091 247.979 295.064 247.979 295.051 247.979C295.051 247.979 295.038 247.979 295.025 247.979C295.025 247.979 294.999 247.979 294.986 247.979C294.986 247.979 294.973 247.979 294.96 247.979C294.947 247.979 294.935 247.979 294.922 247.979C294.922 247.979 294.896 247.979 294.883 247.979C294.87 247.979 294.857 247.979 294.844 247.979C294.844 247.979 294.831 247.979 294.818 247.979C294.805 247.979 294.792 247.979 294.779 247.979C294.779 247.979 294.766 247.979 294.753 247.979C294.74 247.979 294.727 247.979 294.714 247.979H294.688C294.675 247.979 294.662 247.979 294.649 247.979C294.649 247.979 294.636 247.979 294.623 247.979C294.61 247.979 294.597 247.979 294.584 247.979C294.584 247.979 294.571 247.979 294.558 247.979C294.545 247.979 294.532 247.979 294.519 247.979C294.519 247.979 294.493 247.979 294.48 247.979C294.48 247.979 294.454 247.979 294.441 247.979C294.441 247.979 294.428 247.979 294.415 247.979C294.415 247.979 294.389 247.979 294.376 247.979C294.376 247.979 294.363 247.979 294.35 247.979C294.35 247.979 294.324 247.979 294.311 247.979H294.285H294.259C294.259 247.979 294.233 247.979 294.22 247.979C294.22 247.979 294.194 247.979 294.181 247.979C294.181 247.979 294.168 247.979 294.155 247.979C294.142 247.979 294.129 247.979 294.116 247.979C294.116 247.979 294.103 247.979 294.09 247.979C294.077 247.979 294.064 247.979 294.051 247.979C294.051 247.979 294.025 247.979 294.012 247.979C294.012 247.979 293.986 247.979 293.973 247.979C293.973 247.979 293.96 247.979 293.947 247.979C293.934 247.979 293.921 247.979 293.908 247.979C293.908 247.979 293.908 247.979 293.895 247.979C293.882 247.979 293.869 247.979 293.843 247.979H293.817C293.804 247.979 293.791 247.979 293.778 247.979C293.778 247.979 293.778 247.979 293.765 247.979C293.752 247.979 293.726 247.979 293.713 247.979C293.713 247.979 293.713 247.979 293.7 247.979C293.687 247.979 293.674 247.979 293.648 247.979C293.622 247.979 293.596 247.979 293.57 247.979C293.57 247.979 293.57 247.979 293.557 247.979C293.544 247.979 293.531 247.979 293.505 247.979C293.492 247.979 293.466 247.979 293.453 247.979C293.427 247.979 293.401 247.979 293.388 247.979C293.375 247.979 293.349 247.979 293.336 247.979C293.323 247.979 293.297 247.979 293.284 247.979C293.258 247.979 293.232 247.979 293.206 247.979C293.193 247.979 293.167 247.979 293.154 247.979C293.141 247.979 293.115 247.979 293.102 247.979C293.063 247.979 293.011 247.979 292.972 247.992C292.959 247.992 292.933 247.992 292.92 247.992C292.868 247.992 292.829 247.992 292.777 248.005C292.764 248.005 292.738 248.005 292.725 248.005C292.66 248.005 292.595 248.018 292.53 248.031C292.517 248.031 292.492 248.031 292.479 248.031C292.427 248.031 292.388 248.031 292.336 248.044C292.323 248.044 292.297 248.044 292.284 248.044C292.232 248.044 292.193 248.044 292.141 248.057C292.128 248.057 292.102 248.057 292.089 248.057C292.037 248.057 291.998 248.057 291.946 248.07C291.933 248.07 291.907 248.07 291.894 248.07C291.842 248.07 291.803 248.07 291.751 248.083C291.751 248.083 291.712 248.083 291.699 248.083C291.634 248.083 291.569 248.095 291.504 248.108C291.504 248.108 291.465 248.108 291.452 248.108C291.4 248.108 291.361 248.108 291.309 248.121C291.296 248.121 291.27 248.121 291.257 248.121C291.257 248.121 291.166 248.121 291.114 248.134C291.101 248.134 291.075 248.134 291.062 248.134C290.997 248.134 290.932 248.147 290.867 248.16C290.867 248.16 290.776 248.16 290.724 248.173C290.711 248.173 290.685 248.173 290.672 248.173C290.542 248.186 290.412 248.199 290.269 248.225C290.114 248.238 289.971 248.264 289.815 248.277C286.28 248.719 282.837 249.303 279.51 250.03C279.38 250.056 279.263 250.082 279.133 250.108C279.12 250.108 279.094 250.108 279.081 250.108C279.042 250.108 278.99 250.121 278.951 250.134C278.938 250.134 278.912 250.134 278.899 250.134C278.86 250.134 278.808 250.147 278.769 250.16C278.756 250.16 278.73 250.16 278.717 250.16C278.704 250.16 278.691 250.16 278.665 250.16C278.626 250.16 278.587 250.173 278.548 250.186C278.535 250.186 278.523 250.186 278.497 250.186C278.458 250.186 278.418 250.199 278.379 250.212C278.366 250.212 278.354 250.212 278.341 250.212C278.328 250.212 278.315 250.212 278.289 250.212C278.263 250.212 278.25 250.212 278.224 250.225C278.224 250.225 278.224 250.225 278.211 250.225C278.198 250.225 278.185 250.225 278.172 250.225C278.172 250.225 278.172 250.225 278.159 250.225C278.146 250.225 278.133 250.225 278.12 250.225C278.12 250.225 278.107 250.225 278.094 250.225C278.094 250.225 278.068 250.225 278.055 250.225C278.055 250.225 278.042 250.225 278.029 250.225C278.029 250.225 278.003 250.225 277.99 250.225C277.99 250.225 277.977 250.225 277.964 250.225C277.964 250.225 277.938 250.225 277.925 250.225C277.925 250.225 277.925 250.225 277.912 250.225C277.899 250.225 277.873 250.225 277.86 250.225C277.86 250.225 277.86 250.225 277.847 250.225C277.834 250.225 277.821 250.225 277.808 250.225C277.808 250.225 277.808 250.225 277.795 250.225C277.782 250.225 277.769 250.225 277.756 250.225C277.756 250.225 277.743 250.225 277.73 250.225C277.73 250.225 277.704 250.225 277.691 250.225H277.665C277.652 250.225 277.639 250.225 277.626 250.225C277.626 250.225 277.613 250.225 277.6 250.225C277.587 250.225 277.574 250.225 277.561 250.225C277.561 250.225 277.548 250.225 277.535 250.225C277.522 250.225 277.509 250.225 277.496 250.225C277.496 250.225 277.483 250.225 277.47 250.225C277.457 250.225 277.444 250.225 277.431 250.225C277.431 250.225 277.431 250.225 277.418 250.225C277.405 250.225 277.392 250.225 277.379 250.225C277.379 250.225 277.379 250.225 277.366 250.225C277.353 250.225 277.34 250.225 277.327 250.225H277.301C277.301 250.225 277.275 250.225 277.262 250.225C277.262 250.225 277.249 250.225 277.236 250.225C277.223 250.225 277.21 250.225 277.197 250.225C277.197 250.225 277.197 250.225 277.184 250.225C277.171 250.225 277.158 250.225 277.145 250.225H277.119C277.119 250.225 277.106 250.225 277.093 250.225H277.067C277.067 250.225 277.041 250.225 277.028 250.225H277.002C277.002 250.225 276.976 250.225 276.963 250.238H276.937C276.937 250.238 276.924 250.238 276.911 250.238H276.885H276.859H276.833C276.833 250.238 276.82 250.238 276.807 250.238C276.807 250.238 276.781 250.238 276.768 250.238C276.768 250.238 276.755 250.238 276.742 250.238C276.742 250.238 276.716 250.238 276.703 250.238C276.703 250.238 276.69 250.238 276.677 250.238C276.677 250.238 276.651 250.238 276.638 250.238H276.612H276.586H276.56C276.56 250.238 276.534 250.238 276.521 250.238C276.521 250.238 276.508 250.238 276.495 250.238C276.495 250.238 276.469 250.238 276.456 250.238C276.456 250.238 276.43 250.238 276.417 250.238C276.417 250.238 276.404 250.238 276.391 250.238C276.391 250.238 276.378 250.238 276.365 250.238C276.365 250.238 276.339 250.238 276.326 250.238C276.326 250.238 276.326 250.238 276.3 250.238C276.3 250.238 276.275 250.238 276.262 250.238C276.262 250.238 276.248 250.238 276.236 250.238C276.236 250.238 276.209 250.238 276.196 250.238C276.196 250.238 276.183 250.238 276.17 250.238H276.131C276.131 250.238 276.118 250.238 276.105 250.251C276.105 250.251 276.08 250.251 276.067 250.251C276.067 250.251 276.054 250.251 276.041 250.251C276.041 250.251 276.015 250.251 276.002 250.251C276.002 250.251 275.989 250.251 275.976 250.251C275.963 250.251 275.95 250.251 275.937 250.251C275.937 250.251 275.924 250.251 275.911 250.251C275.911 250.251 275.885 250.251 275.872 250.251C275.872 250.251 275.872 250.251 275.859 250.251C275.846 250.251 275.833 250.251 275.82 250.251C275.82 250.251 275.807 250.251 275.794 250.251C275.781 250.251 275.768 250.251 275.755 250.251C275.755 250.251 275.755 250.251 275.742 250.251C275.742 250.251 275.716 250.251 275.703 250.251C275.703 250.251 275.69 250.251 275.677 250.251C275.664 250.251 275.651 250.251 275.638 250.251C275.638 250.251 275.625 250.251 275.612 250.251C275.612 250.251 275.586 250.251 275.573 250.251C275.573 250.251 275.56 250.251 275.547 250.251C275.534 250.251 275.521 250.251 275.508 250.251C275.508 250.251 275.508 250.251 275.495 250.251C275.482 250.251 275.469 250.251 275.456 250.251C275.456 250.251 275.443 250.251 275.43 250.251C275.417 250.251 275.404 250.251 275.391 250.251C275.391 250.251 275.391 250.251 275.378 250.251C275.365 250.251 275.352 250.251 275.339 250.251C275.339 250.251 275.339 250.251 275.326 250.251C275.313 250.251 275.3 250.251 275.287 250.251C275.287 250.251 275.287 250.251 275.274 250.251C275.261 250.251 275.248 250.251 275.222 250.251C275.222 250.251 275.222 250.251 275.209 250.251C275.196 250.251 275.183 250.251 275.17 250.251C275.17 250.251 275.17 250.251 275.157 250.251C275.144 250.251 275.131 250.251 275.118 250.251C275.118 250.251 275.118 250.251 275.105 250.251C275.092 250.251 275.066 250.251 275.053 250.251C275.04 250.251 275.027 250.251 275.001 250.251C275.001 250.251 275.001 250.251 274.988 250.251C274.975 250.251 274.962 250.251 274.949 250.251C274.949 250.251 274.949 250.251 274.936 250.251C274.923 250.251 274.91 250.251 274.884 250.251C274.884 250.251 274.884 250.251 274.871 250.251C274.858 250.251 274.832 250.251 274.819 250.251C274.806 250.251 274.793 250.251 274.78 250.251C274.78 250.251 274.78 250.251 274.767 250.251C274.754 250.251 274.741 250.251 274.715 250.251C274.715 250.251 274.715 250.251 274.702 250.251C274.689 250.251 274.663 250.251 274.65 250.264C274.637 250.264 274.624 250.264 274.598 250.264C274.585 250.264 274.572 250.264 274.546 250.264C274.546 250.264 274.546 250.264 274.533 250.264C274.52 250.264 274.494 250.264 274.481 250.277C274.468 250.277 274.455 250.277 274.429 250.277C274.429 250.277 274.429 250.277 274.416 250.277C274.403 250.277 274.39 250.277 274.364 250.277C274.351 250.277 274.325 250.277 274.312 250.29C274.299 250.29 274.273 250.29 274.26 250.303C274.247 250.303 274.221 250.303 274.208 250.316C274.195 250.316 274.169 250.316 274.156 250.329C274.143 250.329 274.117 250.329 274.104 250.342C274.091 250.342 274.065 250.342 274.052 250.355C274.039 250.355 274.013 250.355 274 250.368C273.987 250.368 273.961 250.368 273.948 250.381C273.935 250.381 273.909 250.381 273.896 250.394C273.883 250.394 273.857 250.394 273.844 250.407C273.831 250.407 273.806 250.407 273.793 250.42C273.78 250.42 273.753 250.42 273.741 250.433C273.728 250.433 273.701 250.433 273.688 250.446C273.675 250.446 273.65 250.446 273.637 250.459C273.624 250.459 273.598 250.459 273.585 250.472C273.585 250.472 273.546 250.472 273.533 250.485C273.533 250.485 273.494 250.485 273.468 250.498C273.468 250.498 273.429 250.498 273.416 250.511C273.403 250.511 273.377 250.511 273.364 250.524C273.338 250.524 273.325 250.524 273.312 250.537C273.312 250.537 273.273 250.537 273.26 250.55C273.26 250.55 273.221 250.55 273.208 250.563C273.195 250.563 273.169 250.563 273.156 250.576C273.13 250.576 273.117 250.575 273.104 250.588C273.104 250.588 273.065 250.588 273.052 250.601C273.052 250.601 272.935 250.64 272.883 250.653C272.883 250.653 272.844 250.653 272.831 250.666C269.842 251.523 268.114 254.627 268.971 257.613C269.673 260.08 271.934 261.69 274.377 261.69C274.884 261.69 275.404 261.625 275.924 261.469C285.332 258.782 295.519 257.418 306.188 257.418C309.293 257.418 311.814 254.899 311.814 251.796C311.814 248.693 309.293 246.174 306.188 246.174L304.979 247.979ZM248.18 264.196C246.985 264.196 245.776 264.573 244.763 265.352C239.734 269.221 235.81 273.597 233.263 278.323C233.237 278.362 233.224 278.401 233.198 278.453C233.172 278.492 233.159 278.531 233.133 278.582C233.133 278.582 233.094 278.673 233.068 278.712C233.068 278.712 233.068 278.738 233.055 278.738C233.029 278.777 233.016 278.816 232.99 278.868C232.951 278.933 232.925 279.011 232.886 279.076C232.886 279.076 232.86 279.128 232.847 279.154C232.847 279.167 232.834 279.18 232.821 279.206C232.821 279.206 232.795 279.258 232.782 279.284C232.782 279.284 232.769 279.323 232.756 279.336C232.756 279.336 232.756 279.349 232.743 279.362C232.743 279.375 232.73 279.387 232.717 279.413C232.717 279.413 232.717 279.439 232.704 279.439C232.704 279.439 232.691 279.465 232.678 279.491C232.678 279.504 232.665 279.517 232.652 279.543C232.652 279.543 232.652 279.556 232.639 279.569C232.639 279.582 232.626 279.595 232.613 279.621C232.613 279.634 232.6 279.647 232.587 279.673C232.587 279.673 232.587 279.686 232.574 279.699C232.574 279.712 232.561 279.725 232.548 279.751C232.548 279.751 232.548 279.777 232.535 279.777C232.535 279.777 232.522 279.803 232.509 279.829C232.509 279.829 232.509 279.842 232.496 279.855C232.496 279.855 232.496 279.855 232.496 279.868C232.496 279.868 232.496 279.881 232.483 279.894C232.483 279.907 232.47 279.92 232.457 279.946C232.457 279.946 232.457 279.959 232.457 279.972C232.457 279.985 232.444 279.998 232.431 280.024C232.431 280.037 232.418 280.05 232.405 280.076C232.405 280.076 232.405 280.089 232.405 280.102C232.405 280.115 232.392 280.128 232.379 280.141C232.379 280.141 232.379 280.154 232.379 280.167C232.379 280.167 232.379 280.167 232.379 280.18C232.379 280.18 232.379 280.205 232.366 280.205C232.366 280.205 232.366 280.218 232.366 280.231C232.366 280.231 232.366 280.231 232.366 280.244C232.366 280.244 232.366 280.257 232.366 280.27C232.366 280.283 232.366 280.296 232.34 280.309C232.34 280.309 232.34 280.322 232.34 280.335C232.34 280.335 232.34 280.335 232.34 280.348C232.34 280.348 232.34 280.361 232.34 280.374C232.34 280.387 232.327 280.4 232.314 280.413C232.314 280.413 232.314 280.426 232.314 280.439C232.314 280.452 232.314 280.465 232.288 280.478C232.288 280.478 232.288 280.491 232.288 280.504C232.288 280.504 232.288 280.504 232.288 280.517C232.288 280.517 232.288 280.53 232.288 280.543C232.288 280.556 232.288 280.569 232.262 280.595C232.262 280.595 232.262 280.608 232.262 280.621C232.262 280.621 232.262 280.621 232.262 280.634C232.262 280.634 232.262 280.647 232.262 280.66C232.262 280.66 232.262 280.673 232.262 280.686C232.262 280.686 232.262 280.686 232.262 280.699C232.262 280.699 232.262 280.712 232.262 280.725C232.262 280.725 232.262 280.725 232.262 280.738C232.262 280.738 232.262 280.738 232.262 280.751C232.262 280.751 232.262 280.751 232.262 280.777C232.262 280.777 232.262 280.777 232.262 280.79C232.262 280.79 232.262 280.803 232.262 280.816C232.262 280.816 232.262 280.829 232.262 280.842C232.262 280.842 232.262 280.842 232.262 280.855C232.262 280.855 232.262 280.868 232.262 280.881C232.262 280.894 232.262 280.907 232.249 280.92C232.249 280.92 232.249 280.933 232.249 280.946C232.249 280.946 232.249 280.946 232.249 280.959C232.249 280.959 232.249 280.959 232.249 280.972C232.249 280.972 232.249 280.972 232.249 280.985C232.249 280.985 232.249 280.998 232.249 281.011C232.249 281.011 232.249 281.011 232.249 281.023C232.249 281.023 232.249 281.024 232.249 281.036C232.249 281.036 232.249 281.037 232.249 281.049C232.249 281.049 232.249 281.049 232.249 281.062C232.249 281.062 232.249 281.062 232.249 281.075C232.249 281.075 232.249 281.088 232.249 281.101C232.249 281.101 232.249 281.101 232.249 281.114C232.249 281.114 232.249 281.114 232.249 281.127C232.249 281.127 232.249 281.127 232.249 281.14C232.249 281.14 232.249 281.14 232.249 281.153C232.249 281.153 232.249 281.153 232.249 281.166V281.179C232.249 281.179 232.249 281.179 232.249 281.192C232.249 281.192 232.249 281.192 232.249 281.205C232.249 281.205 232.249 281.205 232.249 281.218C232.249 281.218 232.249 281.218 232.249 281.231C232.249 281.231 232.249 281.231 232.249 281.244C232.249 281.244 232.249 281.244 232.249 281.257C232.249 281.257 232.249 281.257 232.249 281.27C232.249 281.27 232.249 281.27 232.249 281.283C232.249 281.283 232.249 281.283 232.249 281.296C232.249 281.296 232.249 281.296 232.249 281.309C232.249 281.309 232.249 281.309 232.249 281.322C232.249 281.322 232.249 281.322 232.249 281.335C232.249 281.335 232.249 281.335 232.249 281.348C232.249 281.348 232.249 281.348 232.249 281.361C232.249 281.361 232.249 281.361 232.249 281.374C232.249 281.374 232.249 281.374 232.249 281.387C232.249 281.387 232.249 281.387 232.249 281.4C232.249 281.4 232.249 281.4 232.249 281.413C232.249 281.413 232.249 281.413 232.249 281.426C232.249 281.426 232.249 281.426 232.249 281.439C232.249 281.439 232.249 281.439 232.249 281.452C232.249 281.452 232.249 281.452 232.249 281.465C232.249 281.465 232.249 281.465 232.249 281.478V281.491C232.249 281.491 232.249 281.491 232.249 281.504C232.249 281.504 232.249 281.504 232.249 281.517C232.249 281.517 232.249 281.517 232.249 281.53C232.249 281.53 232.249 281.53 232.249 281.543C232.249 281.543 232.249 281.543 232.249 281.556C232.249 281.556 232.249 281.556 232.249 281.569C232.249 281.569 232.249 281.569 232.249 281.582C232.249 281.582 232.249 281.582 232.249 281.595C232.249 281.595 232.249 281.595 232.249 281.608C232.249 281.608 232.249 281.608 232.249 281.621C232.249 281.621 232.249 281.621 232.249 281.634C232.249 281.634 232.249 281.634 232.249 281.647C232.249 281.647 232.249 281.647 232.249 281.66C232.249 281.66 232.249 281.66 232.249 281.673C232.249 281.673 232.249 281.673 232.249 281.686C232.249 281.686 232.249 281.686 232.249 281.699C232.249 281.699 232.249 281.699 232.249 281.712C232.249 281.712 232.249 281.712 232.249 281.725V281.751C232.249 281.751 232.249 281.751 232.249 281.764C232.249 281.764 232.249 281.764 232.249 281.777C232.249 281.777 232.249 281.777 232.249 281.79C232.249 281.79 232.249 281.79 232.249 281.803C232.249 281.803 232.249 281.803 232.249 281.816C232.249 281.816 232.249 281.816 232.249 281.829C232.249 281.829 232.249 281.829 232.249 281.842C232.249 281.842 232.249 281.842 232.249 281.855C232.249 281.855 232.249 281.854 232.249 281.867C232.249 281.867 232.249 281.867 232.249 281.88C232.249 281.88 232.249 281.88 232.249 281.893C232.249 281.893 232.249 281.893 232.249 281.906C232.249 281.906 232.249 281.906 232.249 281.919C232.249 281.919 232.249 281.932 232.249 281.945C232.249 281.945 232.249 281.945 232.249 281.958C232.249 281.958 232.249 281.958 232.249 281.971C232.249 281.971 232.249 281.971 232.249 281.984C232.249 281.984 232.249 281.984 232.249 281.997C232.249 281.997 232.249 282.01 232.249 282.023C232.249 282.023 232.249 282.023 232.249 282.036C232.249 282.036 232.249 282.036 232.249 282.049C232.249 282.049 232.249 282.062 232.249 282.075C232.249 282.075 232.249 282.075 232.249 282.088C232.249 282.088 232.249 282.101 232.249 282.114C232.249 282.114 232.249 282.114 232.249 282.127C232.249 282.127 232.249 282.127 232.249 282.14C232.249 282.14 232.249 282.153 232.249 282.166C232.249 282.166 232.249 282.166 232.249 282.179C232.249 282.179 232.249 282.179 232.249 282.192C232.249 282.192 232.249 282.205 232.249 282.218C232.249 282.218 232.249 282.218 232.249 282.231C232.249 282.231 232.249 282.244 232.249 282.257C232.249 282.257 232.249 282.257 232.249 282.27C232.249 282.27 232.249 282.27 232.249 282.283C232.249 282.283 232.249 282.283 232.249 282.309C232.249 282.309 232.249 282.309 232.249 282.322C232.249 282.322 232.249 282.322 232.249 282.335C232.249 282.335 232.249 282.335 232.249 282.348C232.249 282.348 232.249 282.348 232.249 282.361C232.249 282.361 232.249 282.361 232.249 282.374C232.249 282.374 232.249 282.374 232.249 282.387C232.249 282.387 232.249 282.387 232.249 282.4C232.249 282.4 232.249 282.4 232.249 282.413C232.249 282.413 232.249 282.413 232.249 282.426C232.249 282.426 232.249 282.426 232.249 282.439C232.249 282.439 232.249 282.439 232.249 282.452C232.249 282.452 232.249 282.452 232.249 282.465C232.249 282.465 232.249 282.465 232.249 282.491C232.249 282.491 232.249 282.491 232.249 282.504C232.249 282.504 232.249 282.504 232.249 282.517C232.249 282.517 232.249 282.53 232.249 282.543C232.249 282.543 232.249 282.543 232.249 282.556C232.249 282.556 232.249 282.569 232.249 282.582C232.249 282.582 232.249 282.582 232.249 282.595C232.249 282.595 232.249 282.595 232.249 282.608C232.249 282.608 232.249 282.608 232.249 282.634C232.249 282.634 232.249 282.634 232.249 282.647C232.249 282.647 232.249 282.647 232.249 282.673C232.249 282.673 232.249 282.685 232.249 282.698C232.249 282.698 232.249 282.698 232.249 282.711C232.249 282.711 232.249 282.724 232.249 282.737C232.249 282.737 232.249 282.75 232.249 282.763C232.249 282.763 232.249 282.763 232.249 282.776C232.249 282.776 232.249 282.789 232.249 282.802C232.249 282.802 232.249 282.802 232.249 282.815C232.249 282.815 232.249 282.815 232.249 282.828C232.249 282.828 232.249 282.841 232.249 282.854C232.249 282.854 232.249 282.854 232.249 282.867C232.249 282.867 232.249 282.88 232.249 282.893C232.249 282.893 232.249 282.893 232.249 282.906C232.249 282.906 232.249 282.906 232.249 282.919C232.249 282.919 232.249 282.932 232.249 282.945C232.249 282.945 232.249 282.945 232.249 282.958C232.249 282.958 232.249 282.971 232.249 282.984C232.249 282.984 232.249 282.997 232.249 283.01C232.249 283.01 232.249 283.01 232.249 283.023C232.249 283.023 232.249 283.036 232.249 283.049V283.075C232.249 283.075 232.249 283.075 232.249 283.088C232.249 283.088 232.249 283.101 232.249 283.114C232.249 283.114 232.249 283.114 232.249 283.127C232.249 283.127 232.249 283.14 232.249 283.153C232.249 283.153 232.249 283.166 232.249 283.179C232.249 283.179 232.249 283.179 232.249 283.192C232.249 283.192 232.249 283.205 232.249 283.218C232.249 283.218 232.249 283.218 232.249 283.231C232.249 283.231 232.249 283.231 232.249 283.244C232.249 283.244 232.249 283.257 232.249 283.27C232.249 283.27 232.249 283.27 232.249 283.283C232.249 283.283 232.249 283.296 232.249 283.309C232.249 283.309 232.249 283.322 232.249 283.335C232.249 283.335 232.249 283.335 232.249 283.348C232.249 283.348 232.249 283.361 232.249 283.374V283.4C232.249 283.4 232.249 283.413 232.249 283.426C232.249 283.426 232.249 283.439 232.249 283.452C232.249 283.452 232.249 283.452 232.249 283.465C232.249 283.465 232.249 283.478 232.249 283.49C232.249 283.49 232.249 283.504 232.249 283.516C232.249 283.516 232.249 283.516 232.249 283.529C232.249 283.529 232.249 283.542 232.249 283.555V283.581C232.249 283.581 232.249 283.581 232.249 283.594C232.249 283.594 232.249 283.607 232.249 283.62C232.249 283.62 232.249 283.633 232.249 283.646C232.249 283.646 232.249 283.659 232.249 283.672V283.698C232.249 283.698 232.249 283.698 232.249 283.711C232.249 283.711 232.249 283.724 232.249 283.737V283.763C232.249 283.763 232.249 283.776 232.249 283.789C232.249 283.789 232.249 283.802 232.249 283.815C232.249 283.815 232.249 283.815 232.249 283.828C232.249 283.828 232.249 283.841 232.249 283.854C232.249 283.854 232.249 283.867 232.249 283.88C232.249 283.88 232.249 283.893 232.249 283.906C232.249 283.906 232.249 283.919 232.249 283.932C232.249 283.932 232.249 283.945 232.249 283.958C232.249 283.958 232.249 283.971 232.249 283.984C232.249 283.984 232.249 283.997 232.249 284.01V284.023C232.249 284.023 232.249 284.036 232.249 284.049C232.249 284.049 232.249 284.062 232.249 284.075C232.249 284.075 232.249 284.088 232.249 284.101C232.249 284.101 232.249 284.114 232.249 284.127C232.249 284.127 232.249 284.14 232.249 284.153C232.249 284.153 232.249 284.166 232.249 284.179C232.249 284.179 232.249 284.192 232.249 284.205V284.218C232.249 284.218 232.249 284.231 232.249 284.244C232.249 284.244 232.249 284.257 232.249 284.27C232.249 284.27 232.249 284.283 232.249 284.296C232.249 284.296 232.249 284.309 232.249 284.321C232.249 284.321 232.249 284.334 232.249 284.347C232.249 284.347 232.249 284.36 232.249 284.373C232.249 284.373 232.249 284.386 232.249 284.399C232.249 284.399 232.249 284.412 232.249 284.425C232.249 284.425 232.249 284.438 232.249 284.451C232.249 284.451 232.249 284.464 232.249 284.477C232.249 284.477 232.249 284.49 232.249 284.503C232.249 284.503 232.249 284.516 232.249 284.529C232.249 284.529 232.249 284.542 232.249 284.555C232.249 284.555 232.249 284.568 232.249 284.581C232.249 284.581 232.249 284.594 232.249 284.607C232.249 284.607 232.249 284.62 232.249 284.633C232.249 284.633 232.249 284.646 232.249 284.659C232.249 284.659 232.249 284.672 232.249 284.685C232.249 284.685 232.249 284.698 232.249 284.711C232.249 284.711 232.249 284.724 232.249 284.737C232.249 284.737 232.249 284.737 232.249 284.75C232.249 284.75 232.249 284.763 232.249 284.776C232.249 284.776 232.249 284.789 232.249 284.802C232.249 284.802 232.249 284.815 232.249 284.828C232.249 284.828 232.249 284.841 232.249 284.854C232.249 284.854 232.249 284.854 232.249 284.88C232.249 284.88 232.249 284.893 232.249 284.906C232.249 284.906 232.249 284.919 232.249 284.932C232.249 284.932 232.249 284.945 232.249 284.958C232.249 284.958 232.249 284.971 232.249 284.984V285.01C232.249 285.01 232.249 285.023 232.249 285.036C232.249 285.036 232.249 285.049 232.249 285.062C232.249 285.062 232.249 285.062 232.249 285.075C232.249 285.075 232.249 285.088 232.249 285.101C232.249 285.101 232.249 285.114 232.249 285.127C232.249 285.127 232.249 285.127 232.249 285.14C232.249 285.14 232.249 285.152 232.249 285.165C232.249 285.165 232.249 285.178 232.249 285.191C232.249 285.191 232.249 285.204 232.249 285.217C232.249 285.217 232.249 285.23 232.249 285.243C232.249 285.243 232.249 285.243 232.249 285.256C232.249 285.256 232.249 285.269 232.249 285.282C232.249 285.282 232.249 285.295 232.249 285.308C232.249 285.308 232.249 285.321 232.249 285.334C232.249 285.334 232.249 285.347 232.249 285.36C232.249 285.36 232.249 285.373 232.249 285.386C232.249 285.386 232.249 285.399 232.249 285.412C232.249 285.412 232.249 285.425 232.249 285.438C232.249 285.438 232.249 285.451 232.249 285.464C232.249 285.464 232.249 285.477 232.249 285.49C232.249 285.49 232.249 285.503 232.249 285.516C232.249 285.516 232.249 285.529 232.249 285.542C232.249 285.542 232.249 285.555 232.249 285.568C232.249 285.568 232.249 285.581 232.249 285.594C232.249 285.594 232.249 285.607 232.249 285.62C232.249 285.62 232.249 285.633 232.249 285.646C232.249 285.646 232.249 285.659 232.249 285.672C232.249 285.672 232.249 285.685 232.249 285.698C232.249 285.698 232.249 285.711 232.249 285.724C232.249 285.724 232.249 285.737 232.249 285.75C232.249 285.75 232.249 285.763 232.249 285.776C232.249 285.776 232.249 285.789 232.249 285.802C232.249 285.802 232.249 285.815 232.249 285.828C232.249 285.828 232.249 285.841 232.249 285.854C232.249 285.854 232.249 285.867 232.249 285.88C232.249 285.88 232.249 285.893 232.249 285.906C232.249 285.906 232.249 285.919 232.249 285.932C232.249 285.932 232.249 285.945 232.249 285.958C232.249 285.958 232.249 285.97 232.249 285.983C232.249 285.983 232.249 285.996 232.249 286.009C232.249 286.009 232.249 286.022 232.249 286.035C232.249 286.035 232.249 286.048 232.249 286.061C232.249 286.061 232.249 286.074 232.249 286.087C232.249 286.087 232.249 286.1 232.249 286.113C232.249 286.113 232.249 286.126 232.249 286.139C232.249 286.139 232.249 286.152 232.249 286.165C232.249 286.165 232.249 286.178 232.249 286.191C232.249 286.191 232.249 286.204 232.249 286.217C232.249 286.217 232.249 286.23 232.249 286.243C232.249 286.243 232.249 286.256 232.249 286.269C232.249 286.269 232.249 286.282 232.249 286.295C232.249 286.295 232.249 286.308 232.249 286.321C232.249 286.321 232.249 286.334 232.249 286.347C232.249 286.347 232.249 286.36 232.249 286.373C232.249 286.373 232.249 286.386 232.249 286.399C232.249 286.399 232.249 286.412 232.249 286.425C232.249 286.425 232.249 286.438 232.249 286.451C232.249 286.451 232.249 286.464 232.249 286.477C232.249 286.477 232.249 286.49 232.249 286.503C232.249 286.503 232.249 286.516 232.249 286.529C232.249 286.542 232.249 286.568 232.249 286.581C232.249 286.581 232.249 286.594 232.249 286.607C232.249 286.607 232.249 286.62 232.249 286.633C232.249 286.633 232.249 286.646 232.249 286.659C232.249 286.659 232.249 286.672 232.249 286.685C232.249 286.685 232.249 286.698 232.249 286.711C232.249 286.711 232.249 286.724 232.249 286.737C232.249 286.737 232.249 286.75 232.249 286.763C232.249 286.763 232.249 286.776 232.249 286.788C232.249 286.788 232.249 286.802 232.249 286.814C232.249 286.814 232.249 286.827 232.249 286.84C232.249 286.84 232.249 286.853 232.249 286.866C232.249 286.866 232.249 286.879 232.249 286.892C232.249 286.892 232.249 286.905 232.249 286.918C232.249 286.918 232.249 286.931 232.249 286.944C232.249 286.944 232.249 286.957 232.249 286.97C232.249 286.97 232.249 286.983 232.249 286.996C232.249 286.996 232.249 287.009 232.249 287.022C232.249 287.022 232.249 287.035 232.249 287.048V287.074C232.249 287.074 232.249 287.087 232.249 287.1C232.249 287.1 232.249 287.113 232.249 287.126C232.249 287.126 232.249 287.139 232.249 287.152C232.249 287.152 232.249 287.165 232.249 287.178C232.249 287.178 232.249 287.191 232.249 287.204C232.249 287.204 232.249 287.217 232.249 287.23C232.249 287.23 232.249 287.243 232.249 287.256C232.249 287.256 232.249 287.269 232.249 287.282V287.308C232.249 287.308 232.249 287.321 232.249 287.334C232.249 287.334 232.249 287.347 232.249 287.36C232.249 287.36 232.249 287.373 232.249 287.386C232.249 287.386 232.249 287.399 232.249 287.412C232.249 287.412 232.249 287.425 232.249 287.438C232.249 287.438 232.249 287.451 232.249 287.464C232.249 287.464 232.249 287.477 232.249 287.49C232.249 287.49 232.249 287.503 232.249 287.516C232.249 287.516 232.249 287.529 232.249 287.542C232.249 287.542 232.249 287.555 232.249 287.568C232.249 287.568 232.249 287.581 232.249 287.594C232.249 287.594 232.249 287.607 232.249 287.62C232.249 287.62 232.249 287.632 232.249 287.645C232.249 287.645 232.249 287.645 232.249 287.671C232.249 287.671 232.249 287.684 232.249 287.697C232.249 287.697 232.249 287.71 232.249 287.723C232.249 287.723 232.249 287.736 232.249 287.749C232.249 287.749 232.249 287.762 232.249 287.775C232.249 287.775 232.249 287.788 232.249 287.801C232.249 287.801 232.249 287.814 232.249 287.827C232.249 287.827 232.249 287.84 232.249 287.853C232.249 287.853 232.249 287.866 232.249 287.879C232.249 287.879 232.249 287.892 232.249 287.905C232.249 287.905 232.249 287.918 232.249 287.931C232.249 287.931 232.249 287.944 232.249 287.957C232.249 287.957 232.249 287.97 232.249 287.983C232.249 287.983 232.249 287.996 232.249 288.009C232.249 288.009 232.249 288.022 232.249 288.035C232.249 288.035 232.249 288.048 232.249 288.061C232.249 288.061 232.249 288.074 232.249 288.087C232.249 288.087 232.249 288.1 232.249 288.113C232.249 288.113 232.249 288.126 232.249 288.139C232.249 288.139 232.249 288.152 232.249 288.165C232.249 288.165 232.249 288.178 232.249 288.191C232.249 288.191 232.249 288.204 232.249 288.217V288.243V288.269C232.249 288.269 232.249 288.282 232.249 288.295C232.249 288.295 232.249 288.308 232.249 288.321C232.249 288.321 232.249 288.334 232.249 288.347C232.249 288.347 232.249 288.36 232.249 288.373C232.249 288.373 232.249 288.386 232.249 288.399C232.249 288.399 232.249 288.412 232.249 288.425V288.45V288.476V288.502C232.249 288.502 232.249 288.515 232.249 288.528V288.554C232.249 288.554 232.249 288.567 232.249 288.58C232.249 288.58 232.249 288.593 232.249 288.606C232.249 288.606 232.249 288.606 232.249 288.619C232.249 288.619 232.249 288.632 232.249 288.645C232.249 288.645 232.249 288.658 232.249 288.671C232.249 288.671 232.249 288.671 232.249 288.684C232.249 288.684 232.249 288.697 232.249 288.71C232.249 288.71 232.249 288.71 232.249 288.723C232.249 288.723 232.249 288.723 232.249 288.736C232.249 288.736 232.249 288.736 232.249 288.749C232.249 288.749 232.249 288.749 232.249 288.762C232.249 288.762 232.249 288.762 232.249 288.775C232.249 288.775 232.249 288.775 232.249 288.788C232.249 288.788 232.249 288.801 232.249 288.814V288.84C232.249 288.84 232.249 288.853 232.249 288.866C232.249 288.879 232.249 288.892 232.249 288.905C232.249 288.905 232.249 288.905 232.249 288.918C232.249 288.918 232.249 288.918 232.249 288.931C232.249 288.931 232.249 288.957 232.249 288.97C232.249 288.97 232.249 288.97 232.249 288.983C232.249 288.983 232.249 288.983 232.249 288.996C232.249 289.009 232.249 289.022 232.249 289.048C232.249 289.048 232.249 289.048 232.249 289.061C232.249 289.087 232.249 289.1 232.249 289.126C232.249 289.152 232.249 289.178 232.249 289.191C232.249 289.191 232.249 289.191 232.249 289.204C232.275 289.84 232.327 290.476 232.392 291.099C232.73 293.969 235.16 296.072 237.98 296.072C238.188 296.072 238.408 296.072 238.616 296.033C241.709 295.683 243.918 292.891 243.567 289.814C243.502 289.281 243.476 288.749 243.476 288.217C243.476 280.933 249.181 275.012 253.963 271.324C256.419 269.429 256.874 265.897 254.977 263.443C253.872 262.002 252.209 261.249 250.519 261.249L248.18 264.196ZM249.636 307.966C247.881 307.966 246.166 308.784 245.062 310.303C243.255 312.822 243.827 316.328 246.335 318.132C249.103 320.119 252.17 321.963 255.496 323.638C255.522 323.651 255.548 323.664 255.574 323.677C255.574 323.677 255.574 323.677 255.6 323.677C255.613 323.677 255.639 323.703 255.665 323.703C255.665 323.703 255.665 323.703 255.678 323.703C255.691 323.703 255.717 323.716 255.73 323.729C255.73 323.729 255.73 323.729 255.743 323.729C255.756 323.729 255.782 323.742 255.795 323.755C255.795 323.755 255.795 323.755 255.808 323.755C255.808 323.755 255.808 323.755 255.821 323.755C255.834 323.755 255.86 323.768 255.873 323.781C255.873 323.781 255.873 323.781 255.886 323.781C255.899 323.781 255.925 323.794 255.938 323.807C255.938 323.807 255.938 323.807 255.951 323.807C255.951 323.807 255.964 323.807 255.977 323.807C255.977 323.807 255.977 323.807 255.99 323.807C255.99 323.807 255.99 323.807 256.003 323.807C256.003 323.807 256.016 323.807 256.029 323.807C256.029 323.807 256.029 323.807 256.042 323.807C256.042 323.807 256.042 323.807 256.055 323.807C256.055 323.807 256.055 323.807 256.068 323.807C256.068 323.807 256.081 323.807 256.094 323.807C256.094 323.807 256.094 323.807 256.107 323.807C256.107 323.807 256.12 323.807 256.133 323.807C256.133 323.807 256.146 323.807 256.159 323.807C256.159 323.807 256.172 323.807 256.185 323.807C256.185 323.807 256.198 323.807 256.211 323.807C256.211 323.807 256.224 323.807 256.237 323.82C256.237 323.82 256.25 323.82 256.263 323.82C256.276 323.82 256.302 323.833 256.315 323.845C256.367 323.871 256.432 323.897 256.484 323.923C261.409 326.3 266.879 328.325 272.753 329.922C272.753 329.922 272.87 329.948 272.922 329.974C272.922 329.974 272.948 329.974 272.961 329.974C272.961 329.974 273.026 329.987 273.065 330C273.091 330 273.104 330 273.13 330.013H273.156C273.182 330.013 273.195 330.013 273.221 330.026C273.221 330.026 273.234 330.026 273.247 330.026C273.247 330.026 273.273 330.026 273.286 330.026H273.312C273.312 330.026 273.325 330.026 273.338 330.026C273.364 330.026 273.377 330.026 273.403 330.039C273.403 330.039 273.416 330.039 273.429 330.039C273.429 330.039 273.442 330.039 273.455 330.039C273.455 330.039 273.455 330.039 273.468 330.039C273.468 330.039 273.468 330.039 273.481 330.039C273.481 330.039 273.481 330.039 273.494 330.039C273.494 330.039 273.494 330.039 273.507 330.039C273.507 330.039 273.507 330.039 273.52 330.039C273.52 330.039 273.546 330.039 273.559 330.039C273.559 330.039 273.559 330.039 273.572 330.039C273.572 330.039 273.572 330.039 273.585 330.039C273.585 330.039 273.611 330.039 273.624 330.039C273.624 330.039 273.637 330.039 273.65 330.039C273.676 330.039 273.688 330.039 273.714 330.052H273.727C273.753 330.052 273.767 330.052 273.793 330.065C273.793 330.065 273.806 330.065 273.819 330.065C273.845 330.065 273.87 330.065 273.896 330.091C273.896 330.091 273.909 330.091 273.922 330.091C274.884 330.338 275.859 330.571 276.846 330.805C277.262 330.896 277.691 330.948 278.094 330.948C280.654 330.948 282.98 329.182 283.577 326.585C284.266 323.56 282.382 320.547 279.354 319.846C268.764 317.418 259.486 313.51 252.547 308.524C251.559 307.81 250.402 307.472 249.272 307.472L249.636 307.966ZM338.596 318.301C338.05 318.301 337.491 318.379 336.946 318.548C327.772 321.353 317.35 322.924 306.811 323.079C303.706 323.131 301.224 325.676 301.276 328.779C301.328 331.857 303.836 334.311 306.902 334.311C306.928 334.311 306.954 334.311 306.993 334.311C319 334.129 330.293 332.337 340.259 329.286C343.235 328.377 344.898 325.235 343.989 322.261C343.248 319.846 341.013 318.288 338.609 318.288L338.596 318.301ZM374.11 281.777C373.759 281.777 373.395 281.816 373.031 281.88C369.978 282.465 367.99 285.425 368.574 288.463C368.743 289.359 368.834 290.268 368.834 291.164C368.834 297.955 363.805 303.564 359.582 307.07C357.191 309.056 356.866 312.601 358.854 314.99C359.972 316.328 361.57 317.016 363.182 317.016C364.442 317.016 365.715 316.587 366.768 315.717C370.354 312.731 373.317 309.485 375.513 306.018C375.513 306.018 375.513 306.018 375.513 306.005C375.513 306.005 375.565 305.927 375.591 305.875C375.669 305.758 375.734 305.642 375.812 305.512C375.812 305.512 375.825 305.486 375.838 305.46C375.838 305.46 375.851 305.434 375.864 305.408C375.864 305.395 375.877 305.382 375.89 305.369C375.89 305.356 375.903 305.343 375.916 305.317C375.916 305.304 375.929 305.291 375.942 305.278C375.942 305.278 375.942 305.265 375.955 305.252C375.955 305.252 375.955 305.252 375.955 305.239C375.955 305.239 375.955 305.226 375.968 305.213C375.968 305.213 375.968 305.213 375.968 305.2C375.968 305.2 375.968 305.174 375.981 305.174C375.981 305.174 375.981 305.174 375.981 305.161C375.981 305.161 375.981 305.148 375.994 305.135C375.994 305.122 376.007 305.109 376.02 305.096C376.02 305.083 376.033 305.07 376.046 305.057C376.046 305.044 376.059 305.031 376.072 305.018C376.072 305.018 376.072 305.005 376.085 304.992C376.085 304.992 376.085 304.992 376.085 304.979C376.085 304.979 376.085 304.966 376.098 304.953C376.098 304.953 376.098 304.953 376.098 304.94C376.098 304.94 376.098 304.927 376.111 304.914C376.111 304.914 376.111 304.914 376.111 304.902C376.111 304.902 376.111 304.876 376.124 304.876C376.124 304.876 376.124 304.876 376.124 304.863C376.124 304.863 376.124 304.85 376.137 304.837C376.137 304.824 376.15 304.811 376.163 304.798C376.163 304.798 376.163 304.798 376.163 304.785C376.163 304.785 376.163 304.772 376.176 304.759C376.176 304.746 376.189 304.733 376.202 304.72C376.202 304.707 376.215 304.694 376.228 304.681C376.228 304.681 376.228 304.668 376.241 304.655C376.241 304.655 376.241 304.655 376.241 304.642C376.241 304.642 376.241 304.629 376.241 304.616C376.241 304.616 376.241 304.616 376.241 304.603C376.241 304.603 376.241 304.59 376.254 304.577C376.254 304.577 376.254 304.577 376.254 304.564C376.254 304.564 376.254 304.551 376.267 304.538C376.267 304.538 376.267 304.525 376.267 304.512C376.267 304.499 376.28 304.486 376.293 304.473C376.293 304.46 376.306 304.447 376.319 304.434C376.319 304.421 376.332 304.408 376.345 304.395C376.345 304.382 376.358 304.369 376.371 304.356C376.371 304.356 376.371 304.343 376.371 304.33C376.371 304.33 376.371 304.317 376.371 304.304C376.371 304.304 376.371 304.304 376.371 304.291C376.371 304.291 376.371 304.278 376.371 304.265C376.371 304.265 376.371 304.265 376.371 304.252C376.371 304.252 376.371 304.252 376.371 304.239C376.371 304.239 376.371 304.239 376.371 304.226C376.371 304.226 376.371 304.213 376.371 304.2C376.371 304.2 376.371 304.2 376.371 304.187C376.371 304.187 376.371 304.187 376.371 304.174C376.371 304.174 376.371 304.174 376.371 304.161C376.371 304.161 376.371 304.161 376.371 304.148C376.371 304.148 376.371 304.148 376.371 304.135C376.371 304.135 376.371 304.135 376.371 304.122C376.371 304.122 376.371 304.109 376.371 304.096C376.371 304.096 376.371 304.096 376.371 304.083C376.371 304.083 376.371 304.083 376.371 304.071C376.371 304.071 376.371 304.071 376.371 304.058C376.371 304.058 376.371 304.058 376.371 304.045C376.371 304.045 376.371 304.045 376.371 304.032C376.371 304.032 376.371 304.032 376.371 304.019C376.371 304.019 376.371 304.019 376.371 304.006C376.371 304.006 376.371 303.993 376.371 303.98C376.371 303.98 376.371 303.98 376.371 303.967C376.371 303.967 376.371 303.967 376.371 303.954C376.371 303.954 376.371 303.954 376.371 303.941V303.915C376.371 303.915 376.371 303.915 376.371 303.902C376.371 303.902 376.371 303.889 376.371 303.876C376.371 303.876 376.371 303.876 376.371 303.863C376.371 303.863 376.371 303.863 376.371 303.85C376.371 303.85 376.371 303.85 376.371 303.837C376.371 303.837 376.371 303.837 376.371 303.824C376.371 303.824 376.371 303.824 376.371 303.811C376.371 303.811 376.371 303.811 376.371 303.798C376.371 303.798 376.371 303.798 376.371 303.785C376.371 303.785 376.371 303.785 376.371 303.772C376.371 303.772 376.371 303.772 376.371 303.759C376.371 303.759 376.371 303.759 376.371 303.746C376.371 303.746 376.371 303.746 376.371 303.733C376.371 303.733 376.371 303.733 376.371 303.72C376.371 303.72 376.371 303.72 376.371 303.707C376.371 303.707 376.371 303.707 376.371 303.694C376.371 303.694 376.371 303.694 376.371 303.681C376.371 303.681 376.371 303.681 376.371 303.668C376.371 303.668 376.371 303.668 376.371 303.655C376.371 303.655 376.371 303.642 376.371 303.629C376.371 303.629 376.371 303.629 376.371 303.616C376.371 303.616 376.371 303.616 376.371 303.603C376.371 303.603 376.371 303.603 376.371 303.59C376.371 303.59 376.371 303.59 376.371 303.577C376.371 303.577 376.371 303.577 376.371 303.564C376.371 303.564 376.371 303.551 376.371 303.538C376.371 303.538 376.371 303.538 376.371 303.525C376.371 303.525 376.371 303.525 376.371 303.512C376.371 303.512 376.371 303.512 376.371 303.499C376.371 303.499 376.371 303.499 376.371 303.486C376.371 303.486 376.371 303.486 376.371 303.473C376.371 303.473 376.371 303.473 376.371 303.447C376.371 303.447 376.371 303.447 376.371 303.434C376.371 303.434 376.371 303.421 376.371 303.408C376.371 303.408 376.371 303.395 376.371 303.382C376.371 303.382 376.371 303.369 376.371 303.356C376.371 303.356 376.371 303.343 376.371 303.33C376.371 303.33 376.371 303.33 376.371 303.317C376.371 303.317 376.371 303.304 376.371 303.291C376.371 303.291 376.371 303.291 376.371 303.278C376.371 303.278 376.371 303.265 376.371 303.252C376.371 303.252 376.371 303.253 376.371 303.24C376.371 303.24 376.371 303.227 376.371 303.214C376.371 303.214 376.371 303.214 376.371 303.201C376.371 303.201 376.371 303.188 376.371 303.175C376.371 303.175 376.371 303.175 376.371 303.162C376.371 303.162 376.371 303.149 376.371 303.136C376.371 303.136 376.371 303.136 376.371 303.123C376.371 303.123 376.371 303.11 376.371 303.097V303.084C376.371 303.084 376.371 303.071 376.371 303.058C376.371 303.058 376.371 303.045 376.371 303.032C376.371 303.032 376.371 303.032 376.371 303.019C376.371 303.019 376.371 303.006 376.371 302.993C376.371 302.993 376.371 302.993 376.371 302.98C376.371 302.98 376.371 302.967 376.371 302.954C376.371 302.954 376.371 302.954 376.371 302.941C376.371 302.941 376.371 302.928 376.371 302.915C376.371 302.915 376.371 302.915 376.371 302.902C376.371 302.902 376.371 302.889 376.371 302.876C376.371 302.876 376.371 302.876 376.371 302.863C376.371 302.863 376.371 302.85 376.371 302.837C376.371 302.837 376.371 302.837 376.371 302.824C376.371 302.824 376.371 302.811 376.371 302.798V302.772C376.371 302.772 376.371 302.759 376.371 302.746C376.371 302.746 376.371 302.733 376.371 302.72C376.371 302.72 376.371 302.707 376.371 302.694C376.371 302.694 376.371 302.694 376.371 302.681C376.371 302.681 376.371 302.681 376.371 302.668C376.371 302.668 376.371 302.655 376.371 302.642C376.371 302.642 376.371 302.642 376.371 302.629C376.371 302.629 376.371 302.616 376.371 302.603C376.371 302.603 376.371 302.603 376.371 302.59C376.371 302.59 376.371 302.577 376.371 302.564C376.371 302.564 376.371 302.564 376.371 302.551C376.371 302.551 376.371 302.538 376.371 302.525C376.371 302.525 376.371 302.525 376.371 302.512C376.371 302.512 376.371 302.499 376.371 302.486C376.371 302.486 376.371 302.473 376.371 302.46C376.371 302.46 376.371 302.447 376.371 302.435C376.371 302.435 376.371 302.435 376.371 302.422C376.371 302.422 376.371 302.409 376.371 302.396C376.371 302.396 376.371 302.383 376.371 302.37C376.371 302.37 376.371 302.357 376.371 302.344C376.371 302.344 376.371 302.344 376.371 302.331C376.371 302.331 376.371 302.331 376.371 302.318C376.371 302.318 376.371 302.305 376.371 302.292C376.371 302.292 376.371 302.279 376.371 302.266C376.371 302.266 376.371 302.253 376.371 302.24C376.371 302.24 376.371 302.24 376.371 302.227C376.371 302.227 376.371 302.214 376.371 302.201C376.371 302.201 376.371 302.188 376.371 302.175C376.371 302.175 376.371 302.162 376.371 302.149C376.371 302.149 376.371 302.136 376.371 302.123C376.371 302.123 376.371 302.11 376.371 302.097C376.371 302.097 376.371 302.097 376.371 302.084C376.371 302.084 376.371 302.071 376.371 302.058C376.371 302.058 376.371 302.045 376.371 302.032C376.371 302.032 376.371 302.019 376.371 302.006C376.371 302.006 376.371 301.993 376.371 301.98C376.371 301.98 376.371 301.967 376.371 301.954C376.371 301.954 376.371 301.941 376.371 301.928C376.371 301.928 376.371 301.915 376.371 301.902C376.371 301.902 376.371 301.889 376.371 301.876C376.371 301.876 376.371 301.876 376.371 301.863C376.371 301.863 376.371 301.85 376.371 301.837C376.371 301.837 376.371 301.824 376.371 301.811C376.371 301.811 376.371 301.798 376.371 301.785C376.371 301.785 376.371 301.772 376.371 301.759C376.371 301.759 376.371 301.746 376.371 301.733C376.371 301.733 376.371 301.72 376.371 301.707C376.371 301.707 376.371 301.694 376.371 301.681C376.371 301.681 376.371 301.668 376.371 301.655C376.371 301.655 376.371 301.642 376.371 301.629C376.371 301.629 376.371 301.616 376.371 301.604C376.371 301.604 376.371 301.591 376.371 301.578C376.371 301.578 376.371 301.565 376.371 301.552C376.371 301.552 376.371 301.539 376.371 301.526C376.371 301.526 376.371 301.487 376.384 301.474C376.384 301.474 376.384 301.461 376.384 301.448C376.384 301.448 376.384 301.435 376.384 301.422C376.384 301.422 376.384 301.409 376.384 301.396C376.384 301.396 376.384 301.383 376.384 301.37C376.384 301.37 376.384 301.357 376.384 301.344C376.384 301.344 376.384 301.331 376.384 301.318C376.384 301.318 376.384 301.305 376.384 301.292C376.384 301.292 376.384 301.279 376.384 301.266C376.384 301.266 376.384 301.253 376.384 301.24C376.384 301.24 376.384 301.227 376.384 301.214C376.384 301.214 376.384 301.201 376.384 301.188C376.384 301.188 376.384 301.188 376.384 301.162C376.384 301.162 376.384 301.149 376.384 301.136C376.384 301.136 376.384 301.097 376.397 301.084C376.397 301.084 376.397 301.071 376.397 301.058C376.397 301.058 376.397 301.045 376.397 301.032C376.397 301.032 376.397 301.019 376.397 301.006C376.397 301.006 376.397 300.993 376.397 300.98C376.397 300.98 376.397 300.967 376.397 300.954C376.397 300.954 376.397 300.941 376.397 300.928C376.397 300.928 376.397 300.915 376.397 300.902C376.397 300.902 376.397 300.889 376.397 300.876C376.397 300.876 376.397 300.863 376.397 300.85C376.397 300.85 376.397 300.837 376.397 300.824C376.397 300.824 376.397 300.811 376.397 300.798C376.397 300.798 376.397 300.786 376.397 300.773C376.397 300.773 376.397 300.76 376.397 300.747C376.397 300.747 376.397 300.734 376.397 300.721C376.397 300.721 376.397 300.708 376.397 300.695C376.397 300.695 376.397 300.656 376.41 300.643C376.41 300.643 376.41 300.63 376.41 300.617C376.41 300.617 376.41 300.604 376.41 300.591C376.41 300.578 376.41 300.565 376.423 300.539C376.423 300.539 376.423 300.526 376.423 300.513C376.423 300.513 376.423 300.5 376.423 300.487C376.423 300.487 376.423 300.474 376.423 300.461C376.423 300.461 376.423 300.448 376.423 300.435C376.423 300.435 376.423 300.422 376.423 300.409C376.423 300.409 376.423 300.396 376.423 300.383C376.423 300.383 376.423 300.37 376.423 300.357C376.423 300.357 376.423 300.344 376.423 300.331C376.423 300.331 376.423 300.318 376.423 300.305C376.423 300.305 376.423 300.292 376.423 300.279C376.423 300.279 376.423 300.266 376.423 300.253C376.423 300.24 376.423 300.227 376.436 300.201C376.436 300.188 376.436 300.175 376.449 300.149C376.449 300.149 376.449 300.136 376.449 300.123C376.449 300.123 376.449 300.11 376.449 300.097C376.449 300.097 376.449 300.084 376.449 300.071C376.449 300.071 376.449 300.058 376.449 300.045C376.449 300.045 376.449 300.032 376.449 300.019C376.449 300.019 376.449 300.006 376.449 299.993C376.449 299.993 376.449 299.98 376.449 299.967C376.449 299.967 376.449 299.955 376.449 299.942C376.449 299.942 376.449 299.929 376.449 299.916C376.449 299.916 376.449 299.89 376.462 299.864C376.462 299.851 376.462 299.825 376.475 299.812C376.475 299.812 376.475 299.773 376.488 299.76C376.488 299.747 376.488 299.734 376.501 299.708C376.501 299.708 376.501 299.695 376.501 299.682C376.501 299.682 376.501 299.669 376.501 299.656C376.501 299.656 376.501 299.643 376.501 299.63C376.501 299.63 376.501 299.617 376.501 299.604C376.501 299.604 376.501 299.591 376.501 299.578C376.501 299.578 376.501 299.565 376.501 299.552C376.501 299.552 376.501 299.539 376.501 299.526C376.501 299.526 376.501 299.513 376.501 299.5C376.501 299.5 376.501 299.487 376.501 299.474C376.501 299.474 376.501 299.461 376.501 299.448C376.501 299.448 376.501 299.435 376.501 299.422C376.501 299.409 376.501 299.396 376.501 299.37C376.501 299.37 376.501 299.331 376.501 299.318C376.501 299.305 376.501 299.292 376.501 299.266C376.501 299.266 376.501 299.253 376.501 299.24C376.501 299.24 376.501 299.227 376.501 299.214C376.501 299.214 376.501 299.201 376.501 299.188C376.501 299.188 376.501 299.175 376.501 299.162C376.501 299.162 376.501 299.149 376.501 299.137C376.501 299.137 376.501 299.124 376.501 299.111C376.501 299.111 376.501 299.098 376.501 299.085C376.501 299.085 376.501 299.072 376.501 299.059C376.501 299.059 376.501 299.046 376.501 299.033C376.501 299.033 376.501 299.02 376.501 299.007C376.501 299.007 376.501 298.994 376.501 298.981C376.501 298.968 376.501 298.955 376.501 298.929C376.501 298.929 376.501 298.89 376.501 298.877C376.501 298.877 376.501 298.864 376.501 298.851C376.501 298.851 376.501 298.838 376.501 298.825C376.501 298.825 376.501 298.812 376.501 298.799C376.501 298.799 376.501 298.786 376.501 298.773C376.501 298.773 376.501 298.76 376.501 298.747C376.501 298.747 376.501 298.734 376.501 298.721C376.501 298.721 376.501 298.708 376.501 298.695C376.501 298.695 376.501 298.682 376.501 298.669C376.501 298.669 376.501 298.656 376.501 298.643C376.501 298.643 376.501 298.63 376.501 298.617C376.501 298.617 376.501 298.604 376.501 298.591C376.501 298.591 376.501 298.578 376.501 298.565C376.501 298.565 376.501 298.552 376.501 298.539C376.501 298.526 376.501 298.513 376.501 298.487C376.501 298.474 376.501 298.461 376.501 298.435C376.501 298.435 376.501 298.422 376.501 298.409C376.501 298.409 376.501 298.396 376.501 298.383C376.501 298.383 376.501 298.37 376.501 298.357C376.501 298.357 376.501 298.344 376.501 298.331C376.501 298.331 376.501 298.318 376.501 298.306C376.501 298.306 376.501 298.293 376.501 298.28C376.501 298.28 376.501 298.267 376.501 298.254C376.501 298.254 376.501 298.241 376.501 298.228V298.202C376.501 298.202 376.501 298.189 376.501 298.176C376.501 298.176 376.501 298.163 376.501 298.15C376.501 298.15 376.501 298.137 376.501 298.124C376.501 298.124 376.501 298.111 376.501 298.098V298.072C376.501 298.072 376.501 298.059 376.501 298.046C376.501 298.046 376.501 298.033 376.501 298.02C376.501 298.02 376.501 298.007 376.501 297.994C376.501 297.994 376.501 297.981 376.501 297.968C376.501 297.968 376.501 297.955 376.501 297.942C376.501 297.942 376.501 297.929 376.501 297.916C376.501 297.916 376.501 297.916 376.501 297.903C376.501 297.903 376.501 297.89 376.501 297.877C376.501 297.877 376.501 297.864 376.501 297.851C376.501 297.851 376.501 297.838 376.501 297.825C376.501 297.825 376.501 297.825 376.501 297.812C376.501 297.812 376.501 297.799 376.501 297.786C376.501 297.786 376.501 297.773 376.501 297.76C376.501 297.76 376.501 297.747 376.501 297.734C376.501 297.734 376.501 297.721 376.501 297.708C376.501 297.708 376.501 297.695 376.501 297.682C376.501 297.669 376.501 297.656 376.501 297.63C376.501 297.617 376.501 297.604 376.501 297.578C376.501 297.578 376.501 297.565 376.501 297.552C376.501 297.552 376.501 297.539 376.501 297.526C376.501 297.526 376.501 297.513 376.501 297.5C376.501 297.5 376.501 297.488 376.501 297.475C376.501 297.475 376.501 297.462 376.501 297.449C376.501 297.449 376.501 297.436 376.501 297.423C376.501 297.423 376.501 297.41 376.501 297.397C376.501 297.397 376.501 297.384 376.501 297.371C376.501 297.371 376.501 297.358 376.501 297.345C376.501 297.345 376.501 297.332 376.501 297.319C376.501 297.319 376.501 297.306 376.501 297.293C376.501 297.28 376.501 297.267 376.501 297.241C376.501 297.228 376.501 297.202 376.501 297.189C376.501 297.189 376.501 297.15 376.501 297.137C376.501 297.137 376.501 297.124 376.501 297.111C376.501 297.111 376.501 297.098 376.501 297.085C376.501 297.085 376.501 297.072 376.501 297.059C376.501 297.059 376.501 297.046 376.501 297.033C376.501 297.033 376.501 297.02 376.501 297.007C376.501 297.007 376.501 296.994 376.501 296.981C376.501 296.981 376.501 296.968 376.501 296.955C376.501 296.955 376.501 296.942 376.501 296.929C376.501 296.929 376.501 296.916 376.501 296.903C376.501 296.903 376.501 296.89 376.501 296.877C376.501 296.877 376.501 296.864 376.501 296.851C376.501 296.838 376.501 296.825 376.501 296.799C376.501 296.786 376.501 296.773 376.501 296.747C376.501 296.734 376.501 296.721 376.501 296.695C376.501 296.695 376.501 296.682 376.501 296.67C376.501 296.67 376.501 296.657 376.501 296.644C376.501 296.644 376.501 296.631 376.501 296.618C376.501 296.618 376.501 296.605 376.501 296.592C376.501 296.592 376.501 296.579 376.501 296.566C376.501 296.566 376.501 296.566 376.501 296.553C376.501 296.553 376.501 296.54 376.501 296.527C376.501 296.527 376.501 296.514 376.501 296.501C376.501 296.501 376.501 296.488 376.501 296.475C376.501 296.475 376.501 296.462 376.501 296.449C376.501 296.449 376.501 296.436 376.501 296.423C376.501 296.423 376.501 296.41 376.501 296.397C376.501 296.397 376.501 296.384 376.501 296.371C376.501 296.371 376.501 296.358 376.501 296.345C376.501 296.345 376.501 296.332 376.501 296.319C376.501 296.319 376.501 296.306 376.501 296.293C376.501 296.293 376.501 296.28 376.501 296.267C376.501 296.267 376.501 296.254 376.501 296.241C376.501 296.241 376.501 296.228 376.501 296.215C376.501 296.215 376.501 296.202 376.501 296.189C376.501 296.189 376.501 296.176 376.501 296.163C376.501 296.163 376.501 296.15 376.501 296.137C376.501 296.137 376.501 296.124 376.501 296.111C376.501 296.111 376.501 296.098 376.501 296.085V296.059C376.501 296.059 376.501 296.046 376.501 296.033C376.501 296.033 376.501 296.02 376.501 296.007C376.501 296.007 376.501 295.994 376.501 295.981C376.501 295.981 376.501 295.968 376.501 295.955C376.501 295.955 376.501 295.942 376.501 295.929C376.501 295.929 376.501 295.916 376.501 295.903C376.501 295.903 376.501 295.89 376.501 295.877C376.501 295.877 376.501 295.864 376.501 295.852C376.501 295.852 376.501 295.838 376.501 295.826C376.501 295.826 376.501 295.813 376.501 295.8C376.501 295.8 376.501 295.8 376.501 295.787C376.501 295.787 376.501 295.774 376.501 295.761C376.501 295.761 376.501 295.761 376.501 295.748C376.501 295.748 376.501 295.735 376.501 295.722C376.501 295.722 376.501 295.722 376.501 295.709C376.501 295.709 376.501 295.696 376.501 295.683C376.501 295.683 376.501 295.683 376.501 295.657C376.501 295.657 376.501 295.644 376.501 295.631C376.501 295.631 376.501 295.618 376.501 295.605C376.501 295.605 376.501 295.592 376.501 295.579C376.501 295.579 376.501 295.566 376.501 295.553C376.501 295.553 376.501 295.54 376.501 295.527C376.501 295.527 376.501 295.514 376.501 295.501C376.501 295.501 376.501 295.488 376.501 295.475C376.501 295.475 376.501 295.462 376.501 295.449C376.501 295.449 376.501 295.436 376.501 295.423C376.501 295.423 376.501 295.41 376.501 295.397C376.501 295.397 376.501 295.397 376.501 295.384C376.501 295.384 376.501 295.371 376.501 295.358C376.501 295.358 376.501 295.345 376.501 295.332C376.501 295.332 376.501 295.319 376.501 295.306C376.501 295.306 376.501 295.293 376.501 295.28V295.254C376.501 295.254 376.501 295.241 376.501 295.228C376.501 295.228 376.501 295.215 376.501 295.202C376.501 295.202 376.501 295.189 376.501 295.176C376.501 295.176 376.501 295.163 376.501 295.15C376.501 295.137 376.501 295.124 376.501 295.098C376.501 295.085 376.501 295.072 376.501 295.046C376.501 295.046 376.501 295.033 376.501 295.02C376.501 295.02 376.501 295.008 376.501 294.995C376.501 294.995 376.501 294.982 376.501 294.969C376.501 294.969 376.501 294.956 376.501 294.943C376.501 294.943 376.501 294.93 376.501 294.917C376.501 294.917 376.501 294.917 376.501 294.904C376.501 294.904 376.501 294.891 376.501 294.878C376.501 294.878 376.501 294.878 376.501 294.852C376.501 294.852 376.501 294.839 376.501 294.826C376.501 294.826 376.501 294.813 376.501 294.8C376.501 294.8 376.501 294.787 376.501 294.774C376.501 294.774 376.501 294.761 376.501 294.748C376.501 294.748 376.501 294.735 376.501 294.722C376.501 294.722 376.501 294.709 376.501 294.696C376.501 294.696 376.501 294.683 376.501 294.67C376.501 294.67 376.501 294.657 376.501 294.644C376.501 294.644 376.501 294.631 376.501 294.618C376.501 294.618 376.501 294.605 376.501 294.592C376.501 294.592 376.501 294.579 376.501 294.566C376.501 294.566 376.501 294.553 376.501 294.54C376.501 294.54 376.501 294.54 376.501 294.527C376.501 294.527 376.501 294.514 376.501 294.501C376.501 294.501 376.501 294.501 376.501 294.488C376.501 294.488 376.501 294.475 376.501 294.462C376.501 294.462 376.501 294.462 376.501 294.449C376.501 294.449 376.501 294.436 376.501 294.423C376.501 294.423 376.501 294.41 376.501 294.397C376.501 294.397 376.501 294.384 376.501 294.371C376.501 294.371 376.501 294.358 376.501 294.345C376.501 294.345 376.501 294.332 376.501 294.319C376.501 294.306 376.501 294.293 376.501 294.267C376.501 294.267 376.501 294.254 376.501 294.241C376.501 294.241 376.501 294.228 376.501 294.215C376.501 294.215 376.501 294.203 376.501 294.19C376.501 294.19 376.501 294.177 376.501 294.164C376.501 294.164 376.501 294.151 376.501 294.138C376.501 294.138 376.501 294.125 376.501 294.112C376.501 294.112 376.501 294.099 376.501 294.086C376.501 294.086 376.501 294.073 376.501 294.06C376.501 294.06 376.501 294.047 376.501 294.034C376.501 294.034 376.501 294.021 376.501 294.008C376.501 294.008 376.501 293.995 376.501 293.982C376.501 293.982 376.501 293.969 376.501 293.956C376.501 293.956 376.501 293.943 376.501 293.93C376.501 293.93 376.501 293.917 376.501 293.904C376.501 293.904 376.501 293.891 376.501 293.878C376.501 293.878 376.501 293.865 376.501 293.852C376.501 293.852 376.501 293.839 376.501 293.826C376.501 293.826 376.501 293.813 376.501 293.8C376.501 293.8 376.501 293.8 376.501 293.774C376.501 293.774 376.501 293.761 376.501 293.748C376.501 293.748 376.501 293.748 376.501 293.722C376.501 293.722 376.501 293.709 376.501 293.696C376.501 293.696 376.501 293.696 376.501 293.683C376.501 293.683 376.501 293.67 376.501 293.657C376.501 293.657 376.501 293.644 376.501 293.631C376.501 293.631 376.501 293.618 376.501 293.605C376.501 293.605 376.501 293.605 376.501 293.592C376.501 293.592 376.501 293.579 376.501 293.566C376.501 293.566 376.501 293.553 376.501 293.54C376.501 293.54 376.501 293.527 376.501 293.514C376.501 293.514 376.501 293.501 376.501 293.488C376.501 293.488 376.501 293.475 376.501 293.462C376.501 293.462 376.501 293.449 376.501 293.436C376.501 293.436 376.501 293.423 376.501 293.41C376.501 293.41 376.501 293.397 376.501 293.385C376.501 293.385 376.501 293.371 376.501 293.359C376.501 293.359 376.501 293.346 376.501 293.333C376.501 293.333 376.501 293.32 376.501 293.307C376.501 293.307 376.501 293.294 376.501 293.281C376.501 293.281 376.501 293.268 376.501 293.255C376.501 293.255 376.501 293.242 376.501 293.229C376.501 293.229 376.501 293.216 376.501 293.203C376.501 293.203 376.501 293.19 376.501 293.177C376.501 293.177 376.501 293.164 376.501 293.151C376.501 293.151 376.501 293.138 376.501 293.125C376.501 293.125 376.501 293.112 376.501 293.099C376.501 293.099 376.501 293.086 376.501 293.073V293.047V293.021V292.995V292.969V292.943V292.917V292.904V292.891V292.878C376.501 292.878 376.501 292.878 376.501 292.865C376.501 292.865 376.501 292.852 376.501 292.839C376.501 292.839 376.501 292.826 376.501 292.813C376.501 292.787 376.501 292.774 376.501 292.748C376.501 292.748 376.501 292.748 376.501 292.735C376.501 292.735 376.501 292.735 376.501 292.722C376.501 292.722 376.501 292.722 376.501 292.709C376.501 292.709 376.501 292.709 376.501 292.696C376.501 292.696 376.501 292.696 376.501 292.683C376.501 292.683 376.501 292.683 376.501 292.67C376.501 292.618 376.501 292.566 376.501 292.515C376.475 291.748 376.41 290.982 376.319 290.216C376.319 290.216 376.319 290.216 376.319 290.203C376.319 290.203 376.319 290.203 376.319 290.19C376.319 290.19 376.319 290.19 376.319 290.177C376.319 290.177 376.319 290.151 376.319 290.138C376.319 290.138 376.319 290.138 376.319 290.125C376.319 290.125 376.319 290.125 376.319 290.112C376.319 290.112 376.319 290.112 376.319 290.099C376.319 290.099 376.319 290.099 376.319 290.087V290.074C376.319 290.074 376.319 290.074 376.319 290.061C376.254 289.606 376.176 289.165 376.098 288.71C375.578 286.022 373.226 284.153 370.575 284.153L374.11 281.777ZM329.656 250.485C327.057 250.485 324.718 252.302 324.159 254.951C323.522 257.989 325.459 260.976 328.499 261.612C339.116 263.845 348.524 267.572 355.723 272.389C356.684 273.038 357.776 273.337 358.854 273.337C360.674 273.337 362.454 272.467 363.532 270.844C365.261 268.26 364.572 264.767 361.986 263.04C356.152 259.145 349.134 255.847 341.26 253.341C341.156 253.302 341.039 253.276 340.935 253.237C340.883 253.224 340.831 253.198 340.766 253.185H340.74C340.714 253.185 340.701 253.172 340.675 253.159H340.649C340.649 253.159 340.584 253.133 340.558 253.133C340.558 253.133 340.545 253.133 340.532 253.133H340.506C340.506 253.133 340.493 253.133 340.48 253.133C340.48 253.133 340.467 253.133 340.454 253.133H340.428C340.428 253.133 340.415 253.133 340.402 253.133C340.402 253.133 340.402 253.133 340.376 253.133C340.376 253.133 340.363 253.133 340.35 253.133C340.35 253.133 340.337 253.133 340.324 253.133C340.324 253.133 340.324 253.133 340.311 253.133C340.311 253.133 340.311 253.133 340.298 253.133C340.298 253.133 340.298 253.133 340.285 253.133C340.285 253.133 340.285 253.133 340.272 253.133H340.259C340.259 253.133 340.246 253.133 340.233 253.133C340.233 253.133 340.233 253.133 340.22 253.133C340.22 253.133 340.22 253.133 340.207 253.133C340.207 253.133 340.207 253.133 340.194 253.133C340.194 253.133 340.194 253.133 340.181 253.133C340.181 253.133 340.181 253.133 340.168 253.133C340.168 253.133 340.155 253.133 340.142 253.133C340.142 253.133 340.142 253.133 340.129 253.133C340.129 253.133 340.129 253.133 340.103 253.133C340.103 253.133 340.09 253.133 340.077 253.133C340.077 253.133 340.064 253.133 340.051 253.133C340.051 253.133 340.051 253.133 340.038 253.133C340.038 253.133 340.038 253.133 340.025 253.133C340.025 253.133 340.025 253.133 339.999 253.133C339.999 253.133 339.999 253.133 339.986 253.133C339.986 253.133 339.973 253.133 339.96 253.133C339.96 253.133 339.96 253.133 339.947 253.133C339.947 253.133 339.948 253.133 339.935 253.133C339.935 253.133 339.935 253.133 339.922 253.133C339.922 253.133 339.895 253.133 339.882 253.133C339.882 253.133 339.869 253.133 339.856 253.133C339.856 253.133 339.843 253.133 339.83 253.133C339.804 253.133 339.792 253.12 339.766 253.12H339.753C339.727 253.12 339.714 253.12 339.688 253.107C339.688 253.107 339.688 253.107 339.662 253.107C339.636 253.107 339.61 253.094 339.597 253.081C339.597 253.081 339.584 253.081 339.571 253.081C339.545 253.081 339.519 253.068 339.506 253.055C339.506 253.055 339.493 253.055 339.48 253.055C339.454 253.055 339.428 253.042 339.415 253.029C339.415 253.029 339.415 253.029 339.402 253.029C339.376 253.029 339.337 253.017 339.311 253.004C339.285 253.004 339.246 252.991 339.22 252.978C339.194 252.978 339.155 252.965 339.129 252.952C339.129 252.952 339.064 252.926 339.025 252.926C336.452 252.186 333.801 251.51 331.072 250.939C330.682 250.861 330.293 250.822 329.916 250.822L329.656 250.485Z" fill="#3272B9"/>
<path d="M138.508 8.18672C138.508 8.18672 127.579 1.72059 126.917 1.47389L126.839 1.42195H126.826C125.033 0.772734 122.966 0.824677 121.082 1.91535L8.00405 67.1481C3.66389 69.6541 1 74.2635 1 79.2754V283.868C1 286.374 2.20854 288.477 3.97579 289.789L4.0018 289.802C4.49559 290.165 5.02833 290.464 5.58709 290.698L17.2561 297.32L17.2951 287.283L125.565 224.803C129.113 222.764 131.296 218.986 131.296 214.896V12.6793L138.547 8.17376L138.508 8.18672Z" fill="#3D84BB" stroke="#19374E" stroke-width="2" stroke-linecap="round" stroke-linejoin="round"/>
<path d="M18.6582 73.4458L131.736 8.21302C136.271 5.60319 141.937 8.86223 141.937 14.0949V221.193C141.937 225.283 139.741 229.062 136.206 231.1L22.7515 296.567C17.8136 299.41 11.6543 295.853 11.6543 290.166V85.573C11.6543 80.5741 14.318 75.9517 18.6582 73.4458Z" fill="white" stroke="#19374E" stroke-width="2" stroke-linecap="round" stroke-linejoin="round"/>
<path d="M100.784 18.1186H88.4787C87.868 13.1716 85.1781 9.04257 80.9549 7.47148C74.2757 4.96553 66.2841 9.76968 63.1265 18.2094C61.4372 22.715 61.4761 27.3244 62.8795 31.0378L50.0669 42.9184C46.3505 46.3592 44.2324 51.2024 44.2324 56.2662V64.6151C44.2324 71.0683 51.2105 75.0934 56.7982 71.8733L102.565 45.4633C106.775 43.0353 109.374 38.5427 109.374 33.6866V26.7141C109.374 21.9749 105.527 18.1315 100.784 18.1315V18.1186Z" fill="#3D84BB" stroke="#19374E" stroke-width="2" stroke-linecap="round" stroke-linejoin="round"/>
<path d="M79.8483 23.9486C80.0047 20.9767 78.6616 18.4903 76.8484 18.395C75.0353 18.2997 73.4386 20.6317 73.2822 23.6036C73.1258 26.5754 74.4689 29.0618 76.2821 29.1571C78.0953 29.2524 79.6919 26.9204 79.8483 23.9486Z" fill="#19374E"/>
<path d="M53.9131 104.906L121.77 65.7588" stroke="#19374E" stroke-width="2" stroke-linecap="round" stroke-linejoin="round"/>
<path d="M53.9131 129.979L121.77 90.832" stroke="#19374E" stroke-width="2" stroke-linecap="round" stroke-linejoin="round"/>
<path d="M53.9131 155.05L121.77 115.903" stroke="#19374E" stroke-width="2" stroke-linecap="round" stroke-linejoin="round"/>
<path d="M53.9131 180.669L121.77 141.521" stroke="#19374E" stroke-width="2" stroke-linecap="round" stroke-linejoin="round"/>
<path d="M22.4275 112.125L30.939 124.525L42.829 96.6087C42.9849 96.2322 42.66 96.1283 42.4521 96.4789L31.2118 116.617L22.8174 111.567C22.6225 111.45 22.2976 111.917 22.4405 112.112L22.4275 112.125Z" fill="#3D84BB"/>
<path d="M22.4275 138.874L30.939 151.274L42.829 123.358C42.9849 122.982 42.66 122.878 42.4521 123.228L31.2118 143.367L22.8174 138.316C22.6225 138.199 22.2976 138.667 22.4405 138.861L22.4275 138.874Z" fill="#3D84BB"/>
<path d="M22.4275 165.609L30.939 178.009L42.829 150.093C42.9849 149.716 42.66 149.612 42.4521 149.963L31.2118 170.101L22.8174 165.05C22.6225 164.934 22.2976 165.401 22.4405 165.596L22.4275 165.609Z" fill="#3D84BB"/>
<path d="M22.4275 192.343L30.939 204.743L42.829 176.827C42.9849 176.45 42.66 176.347 42.4521 176.697L31.2118 196.836L22.8174 191.785C22.6225 191.668 22.2976 192.135 22.4405 192.33L22.4275 192.343Z" fill="#3D84BB"/>
<path d="M207.34 179.099L226.858 167.777L242.711 158.766L223.206 170.101L207.34 179.099Z" fill="white" stroke="#19374E" stroke-linecap="round" stroke-linejoin="round"/>
<path d="M315.233 270.688L334.75 259.366L334.607 283.257L315.103 294.579L315.233 270.688Z" fill="#3D84BB" stroke="#19374E" stroke-linecap="round" stroke-linejoin="round"/>
<path d="M195.528 82.9751L215.033 71.6399L238.254 85.1824L218.749 96.5047L195.528 82.9751Z" fill="#3D84BB" stroke="#19374E" stroke-linecap="round" stroke-linejoin="round"/>
<path d="M314.09 203.561C292.324 191.005 274.73 160.415 274.807 135.277C274.846 122.734 279.265 113.905 286.399 109.763L266.894 121.098C259.773 125.24 255.342 134.057 255.303 146.612C255.238 171.763 272.819 202.341 294.585 214.896C305.488 221.194 315.376 221.765 322.536 217.597L342.041 206.262C334.881 210.417 324.992 209.846 314.09 203.548V203.561Z" fill="#3D84BB" stroke="#19374E" stroke-width="2" stroke-linecap="round" stroke-linejoin="round"/>
<path d="M364.457 254.836L383.962 243.513L398.84 269.404L379.336 280.726L364.457 254.836Z" fill="#3D84BB" stroke="#19374E" stroke-width="2" stroke-linecap="round" stroke-linejoin="round"/>
<path d="M241.84 36.7264L261.358 25.3911L278.017 54.6056L258.512 65.9279L241.84 36.7264Z" fill="#3D84BB" stroke="#19374E" stroke-width="2" stroke-linecap="round" stroke-linejoin="round"/>
<path d="M209.899 54.6576L229.417 43.3353L261.358 25.3911L241.84 36.7264L209.899 54.6576Z" fill="white" stroke="#19374E" stroke-width="2" stroke-linecap="round" stroke-linejoin="round"/>
<path d="M371.539 239.554L391.044 228.219C389.315 234.036 386.924 239.139 383.962 243.501L364.457 254.837C367.42 250.461 369.811 245.371 371.539 239.554Z" fill="#3D84BB"/>
<mask id="mask0_1296_41077" style="mask-type:luminance" maskUnits="userSpaceOnUse" x="364" y="228" width="28" height="27">
<path d="M371.539 239.554L391.044 228.219C389.315 234.036 386.924 239.139 383.962 243.501L364.457 254.837C367.42 250.461 369.811 245.371 371.539 239.554Z" fill="white"/>
</mask>
<g mask="url(#mask0_1296_41077)">
<path d="M371.539 239.554L391.044 228.219C389.315 234.036 386.924 239.139 383.962 243.501L364.457 254.837C367.42 250.461 369.811 245.371 371.539 239.554Z" fill="#3D84BB" stroke="#19374E" stroke-width="2" stroke-linecap="round" stroke-linejoin="round"/>
</g>
<path d="M371.539 239.554L391.044 228.219C389.315 234.036 386.924 239.139 383.962 243.501L364.457 254.837C367.42 250.461 369.811 245.371 371.539 239.554Z" stroke="#19374E" stroke-width="2" stroke-linecap="round" stroke-linejoin="round"/>
<path d="M258.513 65.9268L278.017 54.5916C282.929 54.5137 288.153 55.1759 293.598 56.6301L274.093 67.9653C268.635 66.5241 263.425 65.8619 258.513 65.9268Z" fill="#3D84BB"/>
<mask id="mask1_1296_41077" style="mask-type:luminance" maskUnits="userSpaceOnUse" x="258" y="54" width="36" height="14">
<path d="M258.513 65.9268L278.017 54.5916C282.929 54.5137 288.153 55.1759 293.598 56.6301L274.093 67.9653C268.635 66.5241 263.425 65.8619 258.513 65.9268Z" fill="white"/>
</mask>
<g mask="url(#mask1_1296_41077)">
<path d="M258.513 65.9268L278.017 54.5916C282.929 54.5137 288.153 55.1759 293.598 56.6301L274.093 67.9653C268.635 66.5241 263.425 65.8619 258.513 65.9268Z" fill="#3D84BB" stroke="#19374E" stroke-width="2" stroke-linecap="round" stroke-linejoin="round"/>
</g>
<path d="M258.513 65.9268L278.017 54.5916C282.929 54.5137 288.153 55.1759 293.598 56.6301L274.093 67.9653C268.635 66.5241 263.425 65.8619 258.513 65.9268Z" stroke="#19374E" stroke-width="2" stroke-linecap="round" stroke-linejoin="round"/>
<path d="M365.457 166.465L384.962 155.13C387.561 162.245 389.653 169.399 391.199 176.515L371.694 187.85C370.148 180.735 368.056 173.567 365.47 166.465H365.457Z" fill="#3D84BB"/>
<mask id="mask2_1296_41077" style="mask-type:luminance" maskUnits="userSpaceOnUse" x="365" y="155" width="27" height="33">
<path d="M365.457 166.465L384.962 155.13C387.561 162.245 389.653 169.399 391.199 176.515L371.694 187.85C370.148 180.735 368.056 173.567 365.47 166.465H365.457Z" fill="white"/>
</mask>
<g mask="url(#mask2_1296_41077)">
<path d="M365.457 166.465L384.962 155.13C387.561 162.245 389.653 169.399 391.199 176.515L371.694 187.85C370.148 180.735 368.056 173.567 365.47 166.465H365.457Z" fill="#3D84BB" stroke="#19374E" stroke-width="2" stroke-linecap="round" stroke-linejoin="round"/>
</g>
<path d="M365.457 166.465L384.962 155.13C387.561 162.245 389.653 169.399 391.199 176.515L371.694 187.85C370.148 180.735 368.056 173.567 365.47 166.465H365.457Z" stroke="#19374E" stroke-width="2" stroke-linecap="round" stroke-linejoin="round"/>
<path d="M318.833 94.7928L338.338 83.4575C343.756 88.5603 348.928 94.1306 353.775 100.116L334.27 111.452C329.424 105.466 324.252 99.8826 318.833 94.7928Z" fill="#3D84BB"/>
<mask id="mask3_1296_41077" style="mask-type:luminance" maskUnits="userSpaceOnUse" x="318" y="83" width="36" height="29">
<path d="M318.833 94.7928L338.338 83.4575C343.756 88.5603 348.928 94.1306 353.775 100.116L334.27 111.452C329.424 105.466 324.252 99.8826 318.833 94.7928Z" fill="white"/>
</mask>
<g mask="url(#mask3_1296_41077)">
<path d="M318.833 94.7928L338.338 83.4575C343.756 88.5603 348.928 94.1306 353.775 100.116L334.27 111.452C329.424 105.466 324.252 99.8826 318.833 94.7928Z" fill="#3D84BB" stroke="#19374E" stroke-width="2" stroke-linecap="round" stroke-linejoin="round"/>
</g>
<path d="M318.833 94.7928L338.338 83.4575C343.756 88.5603 348.928 94.1306 353.775 100.116L334.27 111.452C329.424 105.466 324.252 99.8826 318.833 94.7928Z" stroke="#19374E" stroke-width="2" stroke-linecap="round" stroke-linejoin="round"/>
<path d="M393.694 200.548L413.211 189.213L413.056 240.916L393.551 252.252L393.694 200.548Z" fill="#3D84BB" stroke="#19374E" stroke-width="2" stroke-linecap="round" stroke-linejoin="round"/>
<path d="M371.681 187.85L391.198 176.528L413.211 189.214L393.693 200.549L371.681 187.85Z" fill="#3D84BB" stroke="#19374E" stroke-width="2" stroke-linecap="round" stroke-linejoin="round"/>
<path d="M274.366 41.3367L293.871 30.0015L338.624 56.2426L319.106 67.5648L274.366 41.3367Z" fill="#3D84BB" stroke="#19374E" stroke-width="2" stroke-linecap="round" stroke-linejoin="round"/>
<path d="M319.106 67.5637L338.624 56.2415L338.351 83.4564L318.833 94.7916L319.106 67.5637Z" fill="#3D84BB" stroke="#19374E" stroke-width="2" stroke-linecap="round" stroke-linejoin="round"/>
<path d="M334.27 111.451L353.787 100.116L370.147 91.04L350.643 102.362L334.27 111.451Z" fill="white" stroke="#19374E" stroke-width="2" stroke-linecap="round" stroke-linejoin="round"/>
<path d="M393.551 252.251L371.538 239.553C369.81 245.37 367.419 250.473 364.456 254.835L379.335 280.726L347.55 298.969L332.464 272.715C327.058 272.974 321.289 272.312 315.233 270.702L315.103 294.593L270.376 268.651L270.506 243.812C264.581 238.254 258.967 232.087 253.756 225.491L238.76 233.996L207.353 179.111L223.219 170.113C220.568 162.517 218.476 154.857 217.034 147.3L195.164 134.536L195.541 82.9891L218.762 96.5316C220.568 91.247 222.972 86.6117 225.857 82.6255L209.926 54.6835L241.866 36.7393L258.538 65.9408C263.45 65.8629 268.674 66.5251 274.119 67.9793L274.391 41.3486L319.132 67.5768L318.859 94.8047C324.277 99.9075 329.449 105.478 334.296 111.463L350.669 102.375L381.908 157.35L365.483 166.465C368.082 173.58 370.174 180.734 371.707 187.85L393.72 200.548L393.577 252.251H393.551ZM294.585 214.896C316.351 227.452 334.062 217.233 334.127 192.083C334.192 166.932 316.611 136.367 294.845 123.811C273.079 111.256 255.368 121.461 255.303 146.612C255.238 171.762 272.819 202.34 294.585 214.896Z" fill="white" stroke="#19374E" stroke-width="2" stroke-linecap="round" stroke-linejoin="round"/>
<path d="M350.644 102.362L370.148 91.04L401.387 146.015L381.882 157.35L350.644 102.362Z" fill="#3D84BB" stroke="#19374E" stroke-width="2" stroke-linecap="round" stroke-linejoin="round"/>
</svg>
