<svg width="187" height="222" viewBox="0 0 187 222" fill="none" xmlns="http://www.w3.org/2000/svg">
<path d="M56.7779 104.55L118.633 68.8672C119.642 68.2858 120.89 68.2858 121.899 68.8672L183.754 104.55C184.528 104.995 184.528 106.111 183.754 106.556L121.111 142.698C120.585 142.998 119.942 142.998 119.421 142.698L56.7779 106.556C56.0037 106.111 56.0037 104.995 56.7779 104.55Z" stroke="#19374E" stroke-width="2" stroke-linecap="round" stroke-linejoin="round"/>
<path d="M185.499 184.363L120.266 222L55.0371 184.363L65.6028 178.272L118.474 208.77L120.21 208.001L122.11 208.741L174.934 178.272L185.499 184.363Z" fill="#8B9BA6"/>
<path d="M75.0489 101.718L118.053 76.9077C119.423 76.1154 121.117 76.1154 122.487 76.9077L165.491 101.718C168.447 103.425 168.447 107.691 165.491 109.393L122.487 134.203C121.117 134.995 119.423 134.995 118.053 134.203L75.0489 109.393C72.0931 107.686 72.0931 103.42 75.0489 101.718Z" fill="#E7EBEE"/>
<path d="M120.266 144.475V207.284C120.266 208.226 121.288 208.821 122.105 208.353L184.373 172.839C185.067 172.445 185.494 171.704 185.494 170.907V107.278C185.494 106.514 184.664 106.036 184.002 106.42L121.378 142.553C120.688 142.951 120.266 143.687 120.266 144.48V144.475Z" stroke="#19374E" stroke-width="2" stroke-linecap="round" stroke-linejoin="round"/>
<path d="M120.271 144.165V207.363C120.271 208.268 119.29 208.84 118.502 208.39L55.633 172.534C55.2623 172.323 55.0371 171.934 55.0371 171.507V107.597C55.0371 106.687 56.027 106.12 56.8153 106.575L119.421 142.693C119.947 142.998 120.271 143.556 120.271 144.161V144.165Z" stroke="#19374E" stroke-width="2" stroke-linecap="round" stroke-linejoin="round"/>
<path d="M120.266 167.063L185.49 129.412" stroke="#19374E" stroke-width="2" stroke-linecap="round" stroke-linejoin="round"/>
<path d="M120.299 188.737L185.49 151.127" stroke="#19374E" stroke-linecap="round" stroke-linejoin="round"/>
<path d="M55.0371 129.43L120.247 167.049" stroke="#19374E" stroke-linecap="round" stroke-linejoin="round"/>
<path d="M55.0332 151.085L101.476 177.879L120.267 188.723H120.271L120.299 188.737" stroke="#19374E" stroke-linecap="round" stroke-linejoin="round"/>
<path d="M112.727 152.023L83.1133 134.939" stroke="#19374E" stroke-linecap="round" stroke-linejoin="round"/>
<path d="M112.727 173.776L83.1133 156.692" stroke="#19374E" stroke-linecap="round" stroke-linejoin="round"/>
<path d="M112.727 195.858L83.1133 178.77" stroke="#19374E" stroke-linecap="round" stroke-linejoin="round"/>
<path d="M66.2906 127.918C67.4216 127.265 67.3974 125.107 66.2366 123.098C65.0757 121.089 63.2179 119.989 62.0869 120.642C60.9559 121.294 60.9801 123.452 62.1409 125.461C63.3018 127.47 65.1597 128.57 66.2906 127.918Z" stroke="#19374E" stroke-linecap="round" stroke-linejoin="round"/>
<path d="M76.4039 154.44C77.5349 153.787 77.5107 151.629 76.3499 149.62C75.189 147.611 73.3311 146.511 72.2002 147.164C71.0692 147.816 71.0934 149.974 72.2542 151.983C73.4151 153.992 75.273 155.092 76.4039 154.44Z" stroke="#19374E" stroke-linecap="round" stroke-linejoin="round"/>
<path d="M76.4039 176.203C77.5349 175.551 77.5107 173.393 76.3499 171.384C75.189 169.375 73.3311 168.275 72.2002 168.927C71.0692 169.58 71.0934 171.738 72.2542 173.747C73.4151 175.756 75.273 176.856 76.4039 176.203Z" stroke="#19374E" stroke-linecap="round" stroke-linejoin="round"/>
<path d="M76.6968 133.3C77.9467 132.579 77.8865 130.136 76.5625 127.845C75.2384 125.553 73.1518 124.28 71.9018 125.001C70.6519 125.722 70.712 128.164 72.0361 130.456C73.3602 132.748 75.4469 134.021 76.6968 133.3Z" fill="#3272B9"/>
<path d="M66.5835 172.092C67.8334 171.371 67.7733 168.929 66.4492 166.637C65.1251 164.346 63.0385 163.072 61.7886 163.793C60.5386 164.515 60.5988 166.957 61.9228 169.249C63.2469 171.54 65.3336 172.814 66.5835 172.092Z" fill="#3272B9"/>
<path d="M66.2887 149.491C67.4197 148.839 67.3955 146.681 66.2346 144.672C65.0738 142.663 63.2159 141.563 62.0849 142.216C60.954 142.868 60.9781 145.026 62.139 147.035C63.2998 149.044 65.1577 150.144 66.2887 149.491Z" stroke="#19374E" stroke-width="2" stroke-linecap="round" stroke-linejoin="round"/>
<path d="M121.772 90.6303H121.749C121.749 90.6303 121.735 90.6303 121.73 90.6303C121.73 90.6303 121.716 90.6303 121.706 90.6303C121.706 90.6303 121.692 90.6303 121.683 90.6303C121.683 90.6303 121.669 90.6303 121.664 90.6303C121.664 90.6303 121.65 90.6303 121.641 90.6303C121.631 90.6303 121.627 90.6303 121.617 90.6303C121.617 90.6303 121.603 90.6303 121.594 90.6303H121.575C121.566 90.6303 121.561 90.6303 121.552 90.6303C121.552 90.6303 121.538 90.6303 121.533 90.6303C121.533 90.6303 121.519 90.6303 121.514 90.6303C121.505 90.6303 121.5 90.6303 121.491 90.6303C121.491 90.6303 121.477 90.6303 121.467 90.6303C121.467 90.6303 121.453 90.6303 121.448 90.6303C121.448 90.6303 121.434 90.6303 121.43 90.6303C121.42 90.6303 121.416 90.6303 121.406 90.6303C121.401 90.6303 121.392 90.6303 121.387 90.6303C121.383 90.6303 121.373 90.6303 121.369 90.6303C121.359 90.6303 121.355 90.6303 121.345 90.6303C121.341 90.6303 121.331 90.6303 121.326 90.6303C121.322 90.6303 121.312 90.6303 121.308 90.6303C121.298 90.6303 121.294 90.6303 121.284 90.6303C121.28 90.6303 121.27 90.6303 121.265 90.6303C121.261 90.6303 121.251 90.6303 121.247 90.6303C121.237 90.6303 121.233 90.6303 121.223 90.6303C121.223 90.6303 121.209 90.6303 121.2 90.6303C121.195 90.6303 121.186 90.6303 121.181 90.6303C121.176 90.6303 121.167 90.6303 121.158 90.6303C121.158 90.6303 121.143 90.6303 121.134 90.6303C121.129 90.6303 121.12 90.6303 121.115 90.6303C121.111 90.6303 121.101 90.6303 121.097 90.6303C121.087 90.6303 121.082 90.6303 121.073 90.6303C121.073 90.6303 121.059 90.6303 121.054 90.6303C121.05 90.6303 121.04 90.6303 121.036 90.6303C121.031 90.6303 121.021 90.6303 121.012 90.6303H120.993C120.989 90.6303 120.979 90.6303 120.975 90.6303C120.965 90.6303 120.96 90.6303 120.951 90.6303C120.946 90.6303 120.937 90.6303 120.932 90.6303C120.928 90.6303 120.918 90.6303 120.914 90.6303C120.904 90.6303 120.899 90.6303 120.895 90.6303C120.89 90.6303 120.881 90.6303 120.876 90.6303C120.871 90.6303 120.862 90.6303 120.857 90.6303C120.853 90.6303 120.843 90.6303 120.838 90.6303C120.838 90.6303 120.824 90.6303 120.815 90.6303C120.81 90.6303 120.801 90.6303 120.796 90.6303C120.792 90.6303 120.782 90.6303 120.778 90.6303C120.773 90.6303 120.763 90.6303 120.759 90.6303C120.754 90.6303 120.745 90.6303 120.74 90.6303C120.735 90.6303 120.726 90.6303 120.721 90.6303C120.712 90.6303 120.707 90.6303 120.698 90.6303C120.693 90.6303 120.684 90.6303 120.679 90.6303C120.674 90.6303 120.665 90.6303 120.66 90.6303C120.651 90.6303 120.646 90.6303 120.637 90.6303H120.613C120.609 90.6303 120.599 90.6303 120.595 90.6303C120.59 90.6303 120.58 90.6303 120.576 90.6303C120.571 90.6303 120.562 90.6303 120.557 90.6303C120.552 90.6303 120.543 90.6303 120.538 90.6303C120.534 90.6303 120.524 90.6303 120.519 90.6303C120.515 90.6303 120.505 90.6303 120.501 90.6303C120.496 90.6303 120.487 90.6303 120.482 90.6303C120.477 90.6303 120.468 90.6303 120.463 90.6303C120.458 90.6303 120.449 90.6303 120.444 90.6303C120.44 90.6303 120.43 90.6303 120.426 90.6303C120.421 90.6303 120.412 90.6303 120.407 90.6303C120.402 90.6303 120.393 90.6303 120.388 90.6303C120.388 90.6303 120.388 90.6303 120.383 90.6303C120.379 90.6303 120.369 90.6303 120.365 90.6303C120.36 90.6303 120.351 90.6303 120.346 90.6303C120.341 90.6303 120.332 90.6303 120.327 90.6303C120.322 90.6303 120.313 90.6303 120.308 90.6303C120.304 90.6303 120.294 90.6303 120.29 90.6303C120.285 90.6303 120.275 90.6303 120.271 90.6303C120.271 90.6303 120.271 90.6303 120.266 90.6303C120.261 90.6303 120.252 90.6303 120.247 90.6303C120.243 90.6303 120.233 90.6303 120.229 90.6303C120.224 90.6303 120.214 90.6303 120.21 90.6303C120.205 90.6303 120.196 90.6303 120.191 90.6303C120.186 90.6303 120.177 90.6303 120.172 90.6303C120.168 90.6303 120.158 90.6303 120.154 90.6303C120.149 90.6303 120.139 90.6303 120.135 90.6303C120.13 90.6303 120.121 90.6303 120.116 90.6303C120.111 90.6303 120.102 90.6303 120.097 90.6303C120.093 90.6303 120.083 90.6303 120.078 90.6303C120.074 90.6303 120.064 90.6303 120.06 90.6303C120.055 90.6303 120.046 90.6303 120.041 90.6303C120.036 90.6303 120.027 90.6303 120.022 90.6303C120.017 90.6303 120.008 90.6303 120.003 90.6303C120.003 90.6303 120.003 90.6303 119.999 90.6303C119.994 90.6303 119.985 90.6303 119.98 90.6303C119.975 90.6303 119.966 90.6303 119.961 90.6303C119.956 90.6303 119.947 90.6303 119.942 90.6303C119.938 90.6303 119.928 90.6303 119.924 90.6303C119.924 90.6303 119.924 90.6303 119.919 90.6303C119.914 90.6303 119.91 90.6303 119.9 90.6303C119.9 90.6303 119.9 90.6303 119.895 90.6303C119.891 90.6303 119.881 90.6303 119.877 90.6303C119.877 90.6303 119.877 90.6303 119.872 90.6303C119.867 90.6303 119.863 90.6303 119.853 90.6303C119.853 90.6303 119.853 90.6303 119.849 90.6303C119.844 90.6303 119.839 90.6303 119.834 90.6303C119.834 90.6303 119.834 90.6303 119.83 90.6303C119.825 90.6303 119.816 90.6303 119.811 90.6303C119.811 90.6303 119.811 90.6303 119.806 90.6303C119.802 90.6303 119.797 90.6303 119.788 90.6303C119.788 90.6303 119.788 90.6303 119.783 90.6303C119.778 90.6303 119.773 90.6303 119.769 90.6303C119.769 90.6303 119.769 90.6303 119.764 90.6303C119.759 90.6303 119.755 90.6303 119.75 90.6303C119.75 90.6303 119.75 90.6303 119.741 90.6303C119.736 90.6303 119.731 90.6303 119.722 90.6303C119.722 90.6303 119.722 90.6303 119.717 90.6303C119.712 90.6303 119.708 90.6303 119.703 90.6303C119.703 90.6303 119.703 90.6303 119.698 90.6303C119.694 90.6303 119.689 90.6303 119.68 90.6303C119.68 90.6303 119.68 90.6303 119.67 90.6303C119.666 90.6303 119.661 90.6303 119.651 90.6303C119.651 90.6303 119.651 90.6303 119.647 90.6303C119.642 90.6303 119.637 90.6303 119.633 90.6303C119.633 90.6303 119.633 90.6303 119.628 90.6303C119.623 90.6303 119.619 90.6303 119.614 90.6303C119.614 90.6303 119.614 90.6303 119.609 90.6303C119.605 90.6303 119.595 90.6303 119.59 90.6303C119.59 90.6303 119.591 90.6303 119.586 90.6303C119.581 90.6303 119.576 90.6303 119.567 90.6303C119.567 90.6303 119.567 90.6303 119.562 90.6303C119.558 90.6303 119.553 90.6303 119.548 90.6303C119.548 90.6303 119.548 90.6303 119.544 90.6303C119.539 90.6303 119.53 90.6303 119.525 90.6303C119.525 90.6303 119.525 90.6303 119.515 90.6303C119.511 90.6303 119.506 90.6303 119.497 90.6303C119.497 90.6303 119.497 90.6303 119.492 90.6303C119.487 90.6303 119.483 90.6303 119.478 90.6303C119.478 90.6303 119.478 90.6303 119.473 90.6303C119.469 90.6303 119.464 90.6303 119.459 90.6303C119.459 90.6303 119.454 90.6303 119.45 90.6303C119.445 90.6303 119.44 90.6303 119.436 90.6303C119.436 90.6303 119.436 90.6303 119.431 90.6303C119.426 90.6303 119.422 90.6303 119.417 90.6303C119.417 90.6303 119.417 90.6303 119.412 90.6303C119.408 90.6303 119.403 90.6303 119.398 90.6303C119.398 90.6303 119.393 90.6303 119.389 90.6303C119.384 90.6303 119.379 90.6303 119.375 90.6303C119.375 90.6303 119.375 90.6303 119.37 90.6303C119.365 90.6303 119.361 90.6303 119.356 90.6303C119.356 90.6303 119.356 90.6303 119.351 90.6303C119.347 90.6303 119.342 90.6303 119.337 90.6303C119.337 90.6303 119.332 90.6303 119.328 90.6303C119.328 90.6303 119.318 90.6303 119.314 90.6303C119.314 90.6303 119.309 90.6303 119.304 90.6303C119.3 90.6303 119.295 90.6303 119.29 90.6303H119.286C119.281 90.6303 119.276 90.6303 119.271 90.6303C119.271 90.6303 119.267 90.6303 119.262 90.6303C119.257 90.6303 119.253 90.6303 119.248 90.6303C119.248 90.6303 119.243 90.6303 119.239 90.6303C119.234 90.6303 119.229 90.6303 119.225 90.6303C119.225 90.6303 119.22 90.6303 119.215 90.6303C119.21 90.6303 119.206 90.6303 119.201 90.6303C119.201 90.6303 119.196 90.6303 119.192 90.6303C119.192 90.6303 119.182 90.6303 119.178 90.6303C119.178 90.6303 119.173 90.6303 119.168 90.6303C119.168 90.6303 119.159 90.6303 119.154 90.6303C119.154 90.6303 119.149 90.6303 119.145 90.6303C119.145 90.6303 119.135 90.6303 119.131 90.6303H119.121H119.112H119.103C119.103 90.6303 119.093 90.6303 119.088 90.6303H119.079C119.079 90.6303 119.07 90.6303 119.065 90.6303C119.065 90.6303 119.06 90.6303 119.056 90.6303C119.056 90.6303 119.046 90.6303 119.042 90.6303H119.032C119.032 90.6303 119.023 90.6303 119.018 90.6303C119.018 90.6303 119.013 90.6303 119.009 90.6303C119.009 90.6303 118.999 90.6303 118.995 90.6303C118.995 90.6303 118.99 90.6303 118.985 90.6303C118.985 90.6303 118.976 90.6303 118.971 90.6303H118.962C118.962 90.6303 118.957 90.6303 118.952 90.6303C118.952 90.6303 118.943 90.6303 118.938 90.6303C118.938 90.6303 118.929 90.6303 118.924 90.6303C118.924 90.6303 118.92 90.6303 118.915 90.6303C118.915 90.6303 118.906 90.6303 118.901 90.6303C118.901 90.6303 118.896 90.6303 118.891 90.6303C118.891 90.6303 118.882 90.6303 118.877 90.6303C118.877 90.6303 118.873 90.6303 118.868 90.6303C118.868 90.6303 118.859 90.6303 118.854 90.6303C118.854 90.6303 118.849 90.6303 118.845 90.6303C118.845 90.6303 118.835 90.6303 118.83 90.6303C118.83 90.6303 118.826 90.6303 118.821 90.6303C118.821 90.6303 118.812 90.6303 118.807 90.6303H118.798C118.798 90.6303 118.793 90.6303 118.788 90.6303H118.779C118.779 90.6303 118.769 90.6303 118.765 90.6303C118.765 90.6303 118.755 90.6303 118.751 90.6303C118.751 90.6303 118.746 90.6303 118.741 90.6303C118.741 90.6303 118.732 90.6303 118.727 90.6303C118.727 90.6303 118.723 90.6303 118.718 90.6303C118.718 90.6303 118.708 90.6303 118.704 90.6303C118.704 90.6303 118.694 90.6303 118.69 90.6303C118.69 90.6303 118.685 90.6303 118.68 90.6303H118.671C118.666 90.6303 118.662 90.6303 118.657 90.6303C118.657 90.6303 118.652 90.6303 118.647 90.6303C118.647 90.6303 118.638 90.6303 118.633 90.6303H118.624C118.624 90.6303 118.619 90.6303 118.615 90.6303C118.615 90.6303 118.605 90.6303 118.601 90.6303C118.601 90.6303 118.591 90.6303 118.586 90.6303C118.586 90.6303 118.582 90.6303 118.577 90.6303C118.577 90.6303 118.568 90.6303 118.563 90.6303C118.563 90.6303 118.554 90.6303 118.549 90.6303C118.549 90.6303 118.544 90.6303 118.54 90.6303C118.54 90.6303 118.53 90.6303 118.525 90.6303C118.525 90.6303 118.516 90.6303 118.511 90.6303C118.511 90.6303 118.507 90.6303 118.502 90.6303C118.502 90.6303 118.493 90.6303 118.488 90.6303C118.488 90.6303 118.483 90.6303 118.479 90.6303C118.474 90.6303 118.469 90.6303 118.464 90.6303H118.455C118.45 90.6303 118.446 90.6303 118.441 90.6303C118.441 90.6303 118.436 90.6303 118.432 90.6303C118.427 90.6303 118.422 90.6303 118.418 90.6303C118.418 90.6303 118.413 90.6303 118.408 90.6303C118.404 90.6303 118.399 90.6303 118.394 90.6303H118.385C118.38 90.6303 118.375 90.6303 118.371 90.6303C118.371 90.6303 118.366 90.6303 118.361 90.6303C118.357 90.6303 118.352 90.6303 118.347 90.6303C118.347 90.6303 118.343 90.6303 118.338 90.6303C118.333 90.6303 118.328 90.6303 118.324 90.6303H118.314C118.314 90.6303 118.305 90.6303 118.3 90.6303C118.3 90.6303 118.296 90.6303 118.291 90.6303C118.291 90.6303 118.282 90.6303 118.277 90.6303C118.277 90.6303 118.272 90.6303 118.267 90.6303C118.267 90.6303 118.258 90.6303 118.253 90.6303H118.244C118.244 90.6303 118.239 90.6303 118.235 90.6303C118.235 90.6303 118.225 90.6303 118.221 90.6303C118.221 90.6303 118.211 90.6303 118.206 90.6303C118.206 90.6303 118.202 90.6303 118.197 90.6303C118.192 90.6303 118.188 90.6303 118.183 90.6303C118.183 90.6303 118.178 90.6303 118.174 90.6303C118.169 90.6303 118.164 90.6303 118.16 90.6303H118.15C118.15 90.6303 118.141 90.6303 118.136 90.6303C118.136 90.6303 118.131 90.6303 118.127 90.6303C118.122 90.6303 118.117 90.6303 118.113 90.6303C118.113 90.6303 118.113 90.6303 118.108 90.6303C118.103 90.6303 118.099 90.6303 118.094 90.6303C118.094 90.6303 118.089 90.6303 118.084 90.6303C118.08 90.6303 118.075 90.6303 118.07 90.6303C118.07 90.6303 118.07 90.6303 118.066 90.6303C118.061 90.6303 118.056 90.6303 118.052 90.6303C118.052 90.6303 118.052 90.6303 118.047 90.6303C118.042 90.6303 118.038 90.6303 118.033 90.6303C118.023 90.6303 118.019 90.6303 118.009 90.6303C118.005 90.6303 118 90.6303 117.995 90.6303C117.991 90.6303 117.986 90.6303 117.977 90.6303C117.967 90.6303 117.962 90.6303 117.953 90.6303C117.948 90.6303 117.944 90.6303 117.934 90.6303C117.93 90.6303 117.925 90.6303 117.916 90.6303C117.906 90.6303 117.897 90.6303 117.887 90.6303C117.883 90.6303 117.878 90.6303 117.869 90.6303C117.864 90.6303 117.855 90.6303 117.85 90.6303C117.836 90.6303 117.822 90.6303 117.808 90.6303C117.803 90.6303 117.798 90.6303 117.789 90.6303C117.775 90.6303 117.761 90.6303 117.742 90.6303C117.737 90.6303 117.728 90.6303 117.723 90.6303C117.704 90.6303 117.681 90.6303 117.658 90.635C117.653 90.635 117.648 90.635 117.639 90.635C117.625 90.635 117.606 90.635 117.592 90.6397C117.587 90.6397 117.582 90.6397 117.573 90.6397C117.559 90.6397 117.545 90.6397 117.526 90.6444C117.521 90.6444 117.517 90.6444 117.507 90.6444C117.493 90.6444 117.479 90.6443 117.46 90.649C117.456 90.649 117.446 90.649 117.442 90.649C117.428 90.649 117.409 90.649 117.395 90.6537C117.395 90.6537 117.381 90.6537 117.376 90.6537C117.353 90.6537 117.334 90.6584 117.31 90.6631C117.31 90.6631 117.301 90.6631 117.292 90.6631C117.277 90.6631 117.259 90.6631 117.245 90.6678C117.24 90.6678 117.231 90.6678 117.226 90.6678C117.226 90.6678 117.193 90.6678 117.179 90.6725C117.174 90.6725 117.165 90.6725 117.16 90.6725C117.137 90.6725 117.118 90.6772 117.095 90.6819C117.095 90.6819 117.062 90.6819 117.048 90.6865C117.043 90.6865 117.034 90.6865 117.029 90.6865C116.982 90.6912 116.94 90.6959 116.897 90.7006C116.846 90.7053 116.794 90.7147 116.747 90.7194C115.565 90.8694 114.42 91.0616 113.308 91.3007C113.266 91.3101 113.224 91.3195 113.182 91.3288C113.177 91.3288 113.172 91.3288 113.163 91.3288C113.149 91.3288 113.135 91.3335 113.121 91.3382C113.116 91.3382 113.111 91.3382 113.102 91.3382C113.088 91.3382 113.074 91.3429 113.06 91.3476C113.055 91.3476 113.05 91.3476 113.046 91.3476C113.041 91.3476 113.036 91.3476 113.031 91.3476C113.017 91.3476 113.003 91.3523 112.989 91.357C112.985 91.357 112.98 91.357 112.971 91.357C112.956 91.357 112.942 91.3617 112.928 91.3663C112.928 91.3663 112.919 91.3663 112.914 91.3663C112.91 91.3663 112.905 91.3663 112.9 91.3663C112.891 91.3663 112.886 91.3663 112.881 91.371C112.881 91.371 112.872 91.371 112.867 91.371C112.863 91.371 112.858 91.371 112.853 91.371C112.853 91.371 112.849 91.371 112.844 91.371C112.844 91.371 112.834 91.371 112.83 91.371C112.83 91.371 112.83 91.371 112.82 91.371C112.82 91.371 112.811 91.371 112.806 91.371C112.806 91.371 112.806 91.371 112.797 91.371C112.797 91.371 112.788 91.371 112.783 91.371C112.783 91.371 112.783 91.371 112.778 91.371C112.773 91.371 112.769 91.371 112.759 91.371C112.759 91.371 112.759 91.371 112.755 91.371C112.75 91.371 112.745 91.371 112.741 91.371C112.741 91.371 112.741 91.371 112.736 91.371C112.736 91.371 112.727 91.371 112.722 91.371C112.722 91.371 112.717 91.371 112.712 91.371H112.703C112.703 91.371 112.698 91.371 112.694 91.371C112.694 91.371 112.684 91.371 112.68 91.371C112.68 91.371 112.675 91.371 112.67 91.371C112.67 91.371 112.661 91.371 112.656 91.371C112.656 91.371 112.651 91.371 112.647 91.371C112.647 91.371 112.637 91.371 112.633 91.371C112.633 91.371 112.628 91.371 112.623 91.371C112.623 91.371 112.614 91.371 112.609 91.371C112.609 91.371 112.609 91.371 112.605 91.371C112.605 91.371 112.595 91.371 112.59 91.371C112.59 91.371 112.59 91.371 112.586 91.371C112.586 91.371 112.576 91.371 112.572 91.371C112.572 91.371 112.567 91.371 112.562 91.371H112.553C112.553 91.371 112.548 91.371 112.544 91.371C112.544 91.371 112.534 91.371 112.529 91.371C112.529 91.371 112.529 91.371 112.525 91.371C112.525 91.371 112.515 91.371 112.511 91.371H112.501C112.501 91.371 112.497 91.371 112.492 91.371C112.492 91.371 112.487 91.371 112.483 91.371C112.483 91.371 112.473 91.371 112.468 91.371H112.459C112.459 91.371 112.45 91.371 112.45 91.3757H112.44C112.44 91.3757 112.436 91.3757 112.431 91.3757H112.422C112.422 91.3757 112.417 91.3757 112.412 91.3757H112.403C112.403 91.3757 112.398 91.3757 112.393 91.3757C112.393 91.3757 112.384 91.3757 112.379 91.3757C112.379 91.3757 112.379 91.3757 112.375 91.3757C112.375 91.3757 112.365 91.3757 112.361 91.3757C112.361 91.3757 112.356 91.3757 112.351 91.3757H112.342C112.342 91.3757 112.337 91.3757 112.332 91.3757C112.332 91.3757 112.328 91.3757 112.323 91.3757C112.323 91.3757 112.318 91.3757 112.314 91.3757H112.304C112.304 91.3757 112.3 91.3757 112.295 91.3757H112.286H112.276C112.276 91.3757 112.271 91.3757 112.267 91.3757C112.267 91.3757 112.262 91.3757 112.257 91.3757C112.257 91.3757 112.248 91.3757 112.243 91.3757C112.243 91.3757 112.243 91.3757 112.239 91.3757C112.239 91.3757 112.229 91.3757 112.225 91.3757C112.225 91.3757 112.22 91.3757 112.215 91.3757H112.206C112.206 91.3757 112.201 91.3757 112.196 91.3757H112.182C112.182 91.3757 112.182 91.3757 112.173 91.3804C112.173 91.3804 112.164 91.3804 112.159 91.3804C112.159 91.3804 112.154 91.3804 112.149 91.3804H112.14C112.14 91.3804 112.135 91.3804 112.131 91.3804C112.131 91.3804 112.121 91.3804 112.117 91.3804H112.112C112.112 91.3804 112.103 91.3804 112.098 91.3804C112.098 91.3804 112.098 91.3804 112.093 91.3804C112.093 91.3804 112.084 91.3804 112.079 91.3804C112.079 91.3804 112.074 91.3804 112.07 91.3804C112.07 91.3804 112.06 91.3804 112.056 91.3804C112.056 91.3804 112.056 91.3804 112.051 91.3804C112.051 91.3804 112.042 91.3804 112.037 91.3804C112.037 91.3804 112.037 91.3804 112.032 91.3804C112.032 91.3804 112.023 91.3804 112.018 91.3804C112.018 91.3804 112.013 91.3804 112.009 91.3804C112.009 91.3804 111.999 91.3804 111.995 91.3804C111.995 91.3804 111.995 91.3804 111.985 91.3804C111.985 91.3804 111.976 91.3804 111.971 91.3804C111.971 91.3804 111.971 91.3804 111.966 91.3804C111.966 91.3804 111.957 91.3804 111.952 91.3804C111.952 91.3804 111.952 91.3804 111.948 91.3804C111.943 91.3804 111.938 91.3804 111.934 91.3804C111.934 91.3804 111.934 91.3804 111.929 91.3804C111.929 91.3804 111.92 91.3804 111.915 91.3804C111.915 91.3804 111.915 91.3804 111.91 91.3804C111.91 91.3804 111.901 91.3804 111.896 91.3804C111.891 91.3804 111.887 91.3804 111.882 91.3804C111.882 91.3804 111.882 91.3804 111.877 91.3804C111.873 91.3804 111.868 91.3804 111.863 91.3804C111.863 91.3804 111.863 91.3804 111.859 91.3804C111.854 91.3804 111.849 91.3804 111.844 91.3804C111.84 91.3804 111.835 91.3804 111.83 91.3804C111.826 91.3804 111.821 91.3804 111.816 91.3804C111.816 91.3804 111.816 91.3804 111.812 91.3804C111.807 91.3804 111.802 91.3804 111.798 91.3804C111.793 91.3804 111.788 91.3804 111.784 91.3804C111.784 91.3804 111.784 91.3804 111.779 91.3804C111.774 91.3804 111.769 91.3804 111.765 91.3804C111.76 91.3804 111.755 91.3804 111.751 91.3804C111.746 91.3804 111.741 91.3804 111.737 91.3804C111.732 91.3804 111.727 91.3804 111.718 91.3804C111.713 91.3804 111.708 91.3804 111.704 91.3804C111.699 91.3804 111.694 91.3804 111.69 91.3804C111.685 91.3804 111.68 91.3804 111.671 91.3804C111.666 91.3804 111.662 91.3804 111.657 91.3804C111.652 91.3804 111.647 91.3804 111.643 91.3804C111.638 91.3804 111.629 91.3804 111.624 91.3804C111.619 91.3804 111.615 91.3804 111.605 91.3804C111.601 91.3804 111.596 91.3804 111.586 91.3804C111.582 91.3804 111.577 91.3804 111.568 91.3804C111.563 91.3804 111.558 91.3804 111.549 91.3804C111.544 91.3804 111.54 91.3804 111.53 91.3804C111.525 91.3804 111.521 91.3804 111.511 91.3804C111.507 91.3804 111.497 91.3804 111.493 91.3851C111.488 91.3851 111.483 91.3851 111.474 91.3851C111.469 91.3851 111.464 91.3851 111.455 91.3898C111.45 91.3898 111.441 91.3898 111.436 91.3945C111.432 91.3945 111.422 91.3945 111.418 91.3992C111.413 91.3992 111.408 91.3992 111.399 91.4038C111.394 91.4038 111.385 91.4039 111.38 91.4085C111.375 91.4085 111.366 91.4085 111.361 91.4132C111.361 91.4132 111.347 91.4132 111.342 91.4179C111.342 91.4179 111.328 91.4179 111.324 91.4226C111.324 91.4226 111.31 91.4226 111.305 91.4273C111.3 91.4273 111.291 91.4273 111.286 91.432C111.281 91.432 111.272 91.432 111.267 91.4367C111.267 91.4367 111.253 91.4367 111.249 91.4413C111.249 91.4413 111.235 91.4414 111.23 91.446C111.225 91.446 111.216 91.446 111.211 91.4507C111.206 91.4507 111.197 91.4507 111.192 91.4554C111.192 91.4554 111.178 91.4554 111.174 91.4601C111.174 91.4601 111.136 91.4695 111.117 91.4789C111.117 91.4789 111.103 91.4789 111.099 91.4836C110.099 91.7695 109.522 92.8056 109.808 93.8042C110.043 94.6294 110.794 95.1638 111.615 95.1638C111.784 95.1638 111.957 95.1404 112.131 95.0935C115.269 94.198 118.671 93.7433 122.232 93.7433C123.269 93.7433 124.109 92.9041 124.109 91.868C124.109 90.8319 123.269 89.9927 122.232 89.9927L121.772 90.6303ZM102.813 96.0405C102.414 96.0405 102.011 96.1671 101.673 96.4297C99.9933 97.7236 98.6843 99.1817 97.8304 100.757C97.821 100.771 97.8163 100.785 97.8069 100.799C97.7975 100.813 97.7928 100.827 97.7835 100.841C97.7835 100.841 97.7694 100.869 97.76 100.884C97.76 100.884 97.76 100.888 97.7553 100.893C97.7459 100.907 97.7412 100.921 97.7319 100.935C97.7178 100.959 97.7084 100.982 97.6943 101.005C97.6943 101.005 97.6849 101.024 97.6802 101.034C97.6802 101.038 97.6756 101.043 97.6709 101.048C97.6709 101.048 97.6615 101.066 97.6568 101.076C97.6568 101.076 97.6521 101.085 97.6474 101.094C97.6474 101.094 97.6474 101.099 97.6427 101.104C97.6427 101.109 97.638 101.113 97.6333 101.118C97.6333 101.118 97.6333 101.123 97.6286 101.127C97.6286 101.127 97.6239 101.137 97.6192 101.141C97.6192 101.146 97.6146 101.151 97.6099 101.155C97.6099 101.155 97.6099 101.16 97.6052 101.165C97.6052 101.169 97.6005 101.174 97.5958 101.179C97.5958 101.184 97.5911 101.188 97.5864 101.193C97.5864 101.193 97.5864 101.198 97.5817 101.202C97.5817 101.207 97.577 101.212 97.5723 101.216C97.5723 101.216 97.5723 101.221 97.5676 101.226C97.5676 101.226 97.5629 101.235 97.5583 101.24C97.5583 101.24 97.5583 101.244 97.5583 101.249C97.5583 101.249 97.5583 101.249 97.5583 101.254C97.5583 101.254 97.5583 101.259 97.5583 101.263C97.5583 101.268 97.5583 101.273 97.5489 101.277C97.5489 101.277 97.5489 101.282 97.5489 101.287C97.5489 101.291 97.5489 101.296 97.5395 101.301C97.5395 101.305 97.5395 101.31 97.5301 101.315C97.5301 101.315 97.5301 101.32 97.5301 101.324C97.5301 101.329 97.5301 101.334 97.5254 101.338C97.5254 101.338 97.5254 101.343 97.5254 101.348C97.5254 101.348 97.5254 101.348 97.5254 101.352C97.5254 101.352 97.5254 101.357 97.5254 101.362C97.5254 101.362 97.5254 101.366 97.5254 101.371C97.5254 101.371 97.5254 101.371 97.5254 101.376C97.5254 101.376 97.5254 101.38 97.5254 101.385C97.5254 101.39 97.5254 101.395 97.5207 101.399C97.5207 101.399 97.5207 101.404 97.5207 101.409C97.5207 101.409 97.5207 101.413 97.5207 101.418C97.5207 101.423 97.5207 101.427 97.516 101.432C97.516 101.432 97.516 101.437 97.516 101.441C97.516 101.446 97.516 101.451 97.5113 101.455C97.5113 101.455 97.5113 101.46 97.5113 101.465C97.5113 101.465 97.5113 101.465 97.5113 101.47C97.5113 101.47 97.5113 101.474 97.5113 101.479C97.5113 101.484 97.5113 101.488 97.5066 101.493C97.5066 101.493 97.5066 101.498 97.5066 101.502C97.5066 101.502 97.5066 101.502 97.5066 101.507C97.5066 101.507 97.5066 101.512 97.5066 101.516C97.5066 101.516 97.5066 101.521 97.5066 101.526C97.5066 101.526 97.5066 101.526 97.5066 101.53C97.5066 101.53 97.5066 101.535 97.5066 101.54C97.5066 101.54 97.5066 101.54 97.5066 101.545C97.5066 101.545 97.5066 101.545 97.5066 101.549C97.5066 101.549 97.5066 101.554 97.5066 101.559C97.5066 101.559 97.5066 101.563 97.5066 101.568C97.5066 101.568 97.5066 101.573 97.5066 101.577C97.5066 101.577 97.5066 101.587 97.502 101.591C97.502 101.591 97.502 101.591 97.502 101.601C97.502 101.601 97.502 101.601 97.502 101.605C97.502 101.605 97.502 101.606 97.502 101.61C97.502 101.61 97.502 101.61 97.502 101.615C97.502 101.615 97.502 101.615 97.502 101.62C97.502 101.62 97.502 101.62 97.502 101.624C97.502 101.624 97.502 101.624 97.502 101.629C97.502 101.629 97.502 101.629 97.502 101.634C97.502 101.634 97.502 101.634 97.502 101.638C97.502 101.638 97.502 101.638 97.502 101.643C97.502 101.643 97.502 101.643 97.502 101.648C97.502 101.648 97.502 101.648 97.502 101.652C97.502 101.652 97.502 101.652 97.502 101.657C97.502 101.657 97.502 101.657 97.502 101.662C97.502 101.662 97.502 101.662 97.502 101.666C97.502 101.666 97.502 101.666 97.502 101.671C97.502 101.671 97.502 101.671 97.502 101.676C97.502 101.676 97.502 101.676 97.502 101.681C97.502 101.681 97.502 101.681 97.502 101.685C97.502 101.685 97.502 101.685 97.502 101.69C97.502 101.69 97.502 101.69 97.502 101.695C97.502 101.695 97.502 101.695 97.502 101.699C97.502 101.699 97.502 101.699 97.502 101.704C97.502 101.704 97.502 101.704 97.502 101.709C97.502 101.709 97.502 101.709 97.502 101.713C97.502 101.713 97.502 101.713 97.502 101.718C97.502 101.718 97.502 101.718 97.502 101.723C97.502 101.723 97.502 101.723 97.502 101.727C97.502 101.727 97.502 101.727 97.502 101.732C97.502 101.732 97.502 101.732 97.502 101.737C97.502 101.737 97.502 101.737 97.502 101.741C97.502 101.741 97.502 101.741 97.502 101.746C97.502 101.746 97.502 101.746 97.502 101.751C97.502 101.751 97.502 101.751 97.502 101.756C97.502 101.756 97.502 101.756 97.502 101.76C97.502 101.76 97.502 101.76 97.502 101.765C97.502 101.765 97.502 101.765 97.502 101.77C97.502 101.77 97.502 101.77 97.502 101.774C97.502 101.774 97.502 101.774 97.502 101.779C97.502 101.779 97.502 101.779 97.502 101.784C97.502 101.784 97.502 101.784 97.502 101.788C97.502 101.788 97.502 101.788 97.502 101.793C97.502 101.793 97.502 101.793 97.502 101.798C97.502 101.798 97.502 101.798 97.502 101.802C97.502 101.802 97.502 101.802 97.502 101.807V101.816C97.502 101.816 97.502 101.816 97.502 101.821C97.502 101.821 97.502 101.821 97.502 101.826C97.502 101.826 97.502 101.826 97.502 101.831C97.502 101.831 97.502 101.831 97.502 101.835C97.502 101.835 97.502 101.835 97.502 101.84C97.502 101.84 97.502 101.84 97.502 101.845C97.502 101.845 97.502 101.845 97.502 101.849C97.502 101.849 97.502 101.849 97.502 101.854C97.502 101.854 97.502 101.854 97.502 101.859C97.502 101.859 97.502 101.859 97.502 101.863C97.502 101.863 97.502 101.863 97.502 101.868C97.502 101.868 97.502 101.868 97.502 101.873C97.502 101.873 97.502 101.873 97.502 101.877C97.502 101.877 97.502 101.877 97.502 101.882C97.502 101.882 97.502 101.882 97.502 101.887C97.502 101.887 97.502 101.887 97.502 101.892C97.502 101.892 97.502 101.891 97.502 101.896C97.502 101.896 97.502 101.896 97.502 101.901C97.502 101.901 97.502 101.901 97.502 101.906C97.502 101.906 97.502 101.906 97.502 101.91C97.502 101.91 97.502 101.91 97.502 101.915C97.502 101.915 97.502 101.915 97.502 101.92C97.502 101.92 97.502 101.92 97.502 101.924C97.502 101.924 97.502 101.924 97.502 101.929C97.502 101.929 97.502 101.929 97.502 101.934C97.502 101.934 97.502 101.934 97.502 101.938C97.502 101.938 97.502 101.938 97.502 101.943C97.502 101.943 97.502 101.943 97.502 101.948C97.502 101.948 97.502 101.948 97.502 101.952C97.502 101.952 97.502 101.952 97.502 101.957C97.502 101.957 97.502 101.957 97.502 101.962C97.502 101.962 97.502 101.962 97.502 101.967C97.502 101.967 97.502 101.967 97.502 101.971C97.502 101.971 97.502 101.971 97.502 101.976C97.502 101.976 97.502 101.976 97.502 101.981C97.502 101.981 97.502 101.981 97.502 101.985C97.502 101.985 97.502 101.985 97.502 101.99C97.502 101.99 97.502 101.99 97.502 101.995C97.502 101.995 97.502 101.995 97.502 101.999C97.502 101.999 97.502 101.999 97.502 102.004C97.502 102.004 97.502 102.004 97.502 102.009C97.502 102.009 97.502 102.009 97.502 102.013C97.502 102.013 97.502 102.013 97.502 102.018C97.502 102.018 97.502 102.018 97.502 102.023C97.502 102.023 97.502 102.023 97.502 102.027C97.502 102.027 97.502 102.027 97.502 102.032C97.502 102.032 97.502 102.032 97.502 102.037C97.502 102.037 97.502 102.037 97.502 102.042C97.502 102.042 97.502 102.042 97.502 102.046C97.502 102.046 97.502 102.046 97.502 102.051C97.502 102.051 97.502 102.056 97.502 102.06C97.502 102.06 97.502 102.06 97.502 102.065C97.502 102.065 97.502 102.07 97.502 102.074C97.502 102.074 97.502 102.074 97.502 102.079C97.502 102.079 97.502 102.079 97.502 102.084C97.502 102.084 97.502 102.084 97.502 102.088C97.502 102.088 97.502 102.088 97.502 102.093C97.502 102.093 97.502 102.093 97.502 102.098C97.502 102.098 97.502 102.098 97.502 102.102C97.502 102.102 97.502 102.102 97.502 102.107C97.502 102.107 97.502 102.107 97.502 102.112C97.502 102.112 97.502 102.112 97.502 102.117C97.502 102.117 97.502 102.117 97.502 102.121C97.502 102.121 97.502 102.121 97.502 102.126C97.502 102.126 97.502 102.126 97.502 102.131C97.502 102.131 97.502 102.131 97.502 102.135C97.502 102.135 97.502 102.135 97.502 102.14C97.502 102.14 97.502 102.14 97.502 102.145C97.502 102.145 97.502 102.145 97.502 102.149V102.159C97.502 102.159 97.502 102.159 97.502 102.163C97.502 102.163 97.502 102.163 97.502 102.168C97.502 102.168 97.502 102.168 97.502 102.173C97.502 102.173 97.502 102.173 97.502 102.177C97.502 102.177 97.502 102.182 97.502 102.187C97.502 102.187 97.502 102.187 97.502 102.192C97.502 102.192 97.502 102.192 97.502 102.201C97.502 102.201 97.502 102.201 97.502 102.206C97.502 102.206 97.502 102.206 97.502 102.21C97.502 102.21 97.502 102.21 97.502 102.22C97.502 102.22 97.502 102.22 97.502 102.224C97.502 102.224 97.502 102.229 97.502 102.234C97.502 102.234 97.502 102.234 97.502 102.238C97.502 102.238 97.502 102.238 97.502 102.243C97.502 102.243 97.502 102.248 97.502 102.252C97.502 102.252 97.502 102.257 97.502 102.262C97.502 102.262 97.502 102.262 97.502 102.267C97.502 102.267 97.502 102.267 97.502 102.276C97.502 102.276 97.502 102.276 97.502 102.281C97.502 102.281 97.502 102.285 97.502 102.29C97.502 102.29 97.502 102.295 97.502 102.299C97.502 102.299 97.502 102.299 97.502 102.304C97.502 102.304 97.502 102.309 97.502 102.313C97.502 102.313 97.502 102.318 97.502 102.323C97.502 102.323 97.502 102.323 97.502 102.328C97.502 102.328 97.502 102.328 97.502 102.332C97.502 102.332 97.502 102.337 97.502 102.342C97.502 102.342 97.502 102.342 97.502 102.346V102.356C97.502 102.356 97.502 102.356 97.502 102.36C97.502 102.36 97.502 102.365 97.502 102.37V102.379C97.502 102.379 97.502 102.384 97.502 102.388C97.502 102.388 97.502 102.388 97.502 102.398C97.502 102.398 97.502 102.398 97.502 102.403C97.502 102.403 97.502 102.407 97.502 102.412C97.502 102.412 97.502 102.412 97.502 102.421C97.502 102.421 97.502 102.421 97.502 102.426C97.502 102.426 97.502 102.431 97.502 102.435C97.502 102.435 97.502 102.435 97.502 102.44C97.502 102.44 97.502 102.445 97.502 102.449C97.502 102.449 97.502 102.454 97.502 102.459C97.502 102.459 97.502 102.459 97.502 102.463C97.502 102.463 97.502 102.468 97.502 102.473C97.502 102.473 97.502 102.478 97.502 102.482C97.502 102.482 97.502 102.482 97.502 102.487C97.502 102.487 97.502 102.492 97.502 102.496C97.502 102.496 97.502 102.496 97.502 102.501C97.502 102.501 97.502 102.506 97.502 102.51C97.502 102.51 97.502 102.515 97.502 102.52C97.502 102.52 97.502 102.52 97.502 102.524C97.502 102.524 97.502 102.529 97.502 102.534C97.502 102.534 97.502 102.538 97.502 102.543C97.502 102.543 97.502 102.548 97.502 102.553C97.502 102.553 97.502 102.557 97.502 102.562C97.502 102.562 97.502 102.562 97.502 102.567C97.502 102.567 97.502 102.571 97.502 102.576C97.502 102.576 97.502 102.581 97.502 102.585C97.502 102.585 97.502 102.59 97.502 102.595C97.502 102.595 97.502 102.599 97.502 102.604C97.502 102.604 97.502 102.609 97.502 102.613C97.502 102.613 97.502 102.618 97.502 102.623C97.502 102.623 97.502 102.628 97.502 102.632C97.502 102.632 97.502 102.632 97.502 102.637C97.502 102.637 97.502 102.642 97.502 102.646C97.502 102.646 97.502 102.651 97.502 102.656C97.502 102.656 97.502 102.656 97.502 102.66C97.502 102.66 97.502 102.665 97.502 102.67C97.502 102.67 97.502 102.67 97.502 102.674C97.502 102.674 97.502 102.679 97.502 102.684C97.502 102.684 97.502 102.688 97.502 102.693C97.502 102.693 97.502 102.693 97.502 102.698C97.502 102.698 97.502 102.703 97.502 102.707C97.502 102.707 97.502 102.712 97.502 102.717C97.502 102.717 97.502 102.717 97.502 102.721C97.502 102.721 97.502 102.726 97.502 102.731C97.502 102.731 97.502 102.731 97.502 102.735C97.502 102.735 97.502 102.74 97.502 102.745C97.502 102.745 97.502 102.749 97.502 102.754V102.759C97.502 102.759 97.502 102.764 97.502 102.768C97.502 102.768 97.502 102.773 97.502 102.778C97.502 102.778 97.502 102.778 97.502 102.782C97.502 102.782 97.502 102.787 97.502 102.792C97.502 102.792 97.502 102.792 97.502 102.796C97.502 102.796 97.502 102.801 97.502 102.806C97.502 102.806 97.502 102.806 97.502 102.815C97.502 102.815 97.502 102.815 97.502 102.82C97.502 102.82 97.502 102.824 97.502 102.829C97.502 102.829 97.502 102.829 97.502 102.834C97.502 102.834 97.502 102.834 97.502 102.839C97.502 102.839 97.502 102.843 97.502 102.848C97.502 102.848 97.502 102.848 97.502 102.853C97.502 102.853 97.502 102.857 97.502 102.862C97.502 102.862 97.502 102.867 97.502 102.871C97.502 102.871 97.502 102.876 97.502 102.881C97.502 102.881 97.502 102.885 97.502 102.89C97.502 102.89 97.502 102.895 97.502 102.899C97.502 102.899 97.502 102.904 97.502 102.909C97.502 102.909 97.502 102.914 97.502 102.918C97.502 102.918 97.502 102.923 97.502 102.928C97.502 102.928 97.502 102.932 97.502 102.937C97.502 102.937 97.502 102.942 97.502 102.946C97.502 102.946 97.502 102.951 97.502 102.956C97.502 102.956 97.502 102.96 97.502 102.965C97.502 102.965 97.502 102.97 97.502 102.974C97.502 102.974 97.502 102.979 97.502 102.984C97.502 102.984 97.502 102.989 97.502 102.993C97.502 102.993 97.502 102.993 97.502 102.998C97.502 102.998 97.502 103.003 97.502 103.007C97.502 103.007 97.502 103.012 97.502 103.017C97.502 103.017 97.502 103.021 97.502 103.026C97.502 103.026 97.502 103.031 97.502 103.035C97.502 103.035 97.502 103.04 97.502 103.045C97.502 103.045 97.502 103.049 97.502 103.054C97.502 103.054 97.502 103.059 97.502 103.064C97.502 103.064 97.502 103.064 97.502 103.073C97.502 103.073 97.502 103.078 97.502 103.082C97.502 103.082 97.502 103.087 97.502 103.092C97.502 103.092 97.502 103.096 97.502 103.101C97.502 103.101 97.502 103.106 97.502 103.11V103.115C97.502 103.115 97.502 103.12 97.502 103.124C97.502 103.124 97.502 103.129 97.502 103.134C97.502 103.134 97.502 103.139 97.502 103.143C97.502 103.143 97.502 103.148 97.502 103.153C97.502 103.153 97.502 103.157 97.502 103.162C97.502 103.162 97.502 103.167 97.502 103.171C97.502 103.171 97.502 103.176 97.502 103.181C97.502 103.181 97.502 103.185 97.502 103.19C97.502 103.19 97.502 103.195 97.502 103.2C97.502 103.2 97.502 103.204 97.502 103.209C97.502 103.209 97.502 103.214 97.502 103.218C97.502 103.218 97.502 103.223 97.502 103.228C97.502 103.228 97.502 103.232 97.502 103.237C97.502 103.237 97.502 103.242 97.502 103.246C97.502 103.246 97.502 103.251 97.502 103.256C97.502 103.256 97.502 103.26 97.502 103.265C97.502 103.265 97.502 103.27 97.502 103.275C97.502 103.275 97.502 103.279 97.502 103.284C97.502 103.284 97.502 103.289 97.502 103.293C97.502 103.293 97.502 103.298 97.502 103.303C97.502 103.307 97.502 103.312 97.502 103.321C97.502 103.321 97.502 103.326 97.502 103.331C97.502 103.331 97.502 103.335 97.502 103.34C97.502 103.34 97.502 103.345 97.502 103.35C97.502 103.35 97.502 103.354 97.502 103.359C97.502 103.359 97.502 103.364 97.502 103.368C97.502 103.368 97.502 103.373 97.502 103.378C97.502 103.378 97.502 103.382 97.502 103.387C97.502 103.387 97.502 103.392 97.502 103.396C97.502 103.396 97.502 103.401 97.502 103.406C97.502 103.406 97.502 103.41 97.502 103.415C97.502 103.415 97.502 103.42 97.502 103.425C97.502 103.425 97.502 103.429 97.502 103.434C97.502 103.434 97.502 103.439 97.502 103.443C97.502 103.443 97.502 103.448 97.502 103.453C97.502 103.453 97.502 103.457 97.502 103.462C97.502 103.462 97.502 103.467 97.502 103.471C97.502 103.471 97.502 103.476 97.502 103.481C97.502 103.481 97.502 103.485 97.502 103.49C97.502 103.49 97.502 103.495 97.502 103.5C97.502 103.5 97.502 103.504 97.502 103.509C97.502 103.509 97.502 103.514 97.502 103.518C97.502 103.518 97.502 103.523 97.502 103.528C97.502 103.528 97.502 103.532 97.502 103.537C97.502 103.537 97.502 103.542 97.502 103.546C97.502 103.546 97.502 103.551 97.502 103.556C97.502 103.556 97.502 103.56 97.502 103.565C97.502 103.565 97.502 103.57 97.502 103.575V103.584C97.502 103.584 97.502 103.589 97.502 103.593C97.502 103.593 97.502 103.598 97.502 103.603C97.502 103.603 97.502 103.607 97.502 103.612C97.502 103.612 97.502 103.617 97.502 103.621C97.502 103.621 97.502 103.626 97.502 103.631C97.502 103.631 97.502 103.636 97.502 103.64C97.502 103.64 97.502 103.645 97.502 103.65C97.502 103.65 97.502 103.654 97.502 103.659C97.502 103.659 97.502 103.664 97.502 103.668C97.502 103.668 97.502 103.673 97.502 103.678C97.502 103.678 97.502 103.682 97.502 103.687C97.502 103.687 97.502 103.692 97.502 103.696C97.502 103.696 97.502 103.701 97.502 103.706C97.502 103.706 97.502 103.706 97.502 103.711C97.502 103.711 97.502 103.715 97.502 103.72C97.502 103.72 97.502 103.725 97.502 103.729C97.502 103.729 97.502 103.734 97.502 103.739C97.502 103.739 97.502 103.743 97.502 103.748C97.502 103.748 97.502 103.753 97.502 103.757C97.502 103.757 97.502 103.762 97.502 103.767C97.502 103.767 97.502 103.771 97.502 103.776C97.502 103.776 97.502 103.781 97.502 103.786C97.502 103.786 97.502 103.79 97.502 103.795C97.502 103.795 97.502 103.8 97.502 103.804C97.502 103.804 97.502 103.809 97.502 103.814C97.502 103.814 97.502 103.818 97.502 103.823C97.502 103.823 97.502 103.828 97.502 103.832C97.502 103.832 97.502 103.837 97.502 103.842C97.502 103.842 97.502 103.847 97.502 103.851C97.502 103.851 97.502 103.856 97.502 103.861C97.502 103.861 97.502 103.865 97.502 103.87C97.502 103.87 97.502 103.875 97.502 103.879C97.502 103.879 97.502 103.884 97.502 103.889C97.502 103.889 97.502 103.893 97.502 103.898C97.502 103.898 97.502 103.903 97.502 103.907C97.502 103.907 97.502 103.912 97.502 103.917V103.926C97.502 103.926 97.502 103.931 97.502 103.936C97.502 103.936 97.502 103.94 97.502 103.945C97.502 103.945 97.502 103.95 97.502 103.954C97.502 103.954 97.502 103.959 97.502 103.964C97.502 103.964 97.502 103.968 97.502 103.973C97.502 103.973 97.502 103.978 97.502 103.982C97.502 103.982 97.502 103.987 97.502 103.992V104.001V104.011C97.502 104.011 97.502 104.011 97.502 104.015V104.025C97.502 104.025 97.502 104.029 97.502 104.034C97.502 104.034 97.502 104.039 97.502 104.043C97.502 104.043 97.502 104.043 97.502 104.048C97.502 104.048 97.502 104.053 97.502 104.057V104.062C97.502 104.062 97.502 104.062 97.502 104.067C97.502 104.067 97.502 104.072 97.502 104.076C97.502 104.076 97.502 104.076 97.502 104.081C97.502 104.081 97.502 104.081 97.502 104.086C97.502 104.086 97.502 104.09 97.502 104.095V104.104V104.109C97.502 104.114 97.502 104.118 97.502 104.123V104.132C97.502 104.132 97.502 104.132 97.502 104.137C97.502 104.137 97.502 104.137 97.502 104.142C97.502 104.147 97.502 104.151 97.502 104.156C97.502 104.156 97.502 104.156 97.502 104.161C97.502 104.17 97.502 104.175 97.502 104.184C97.502 104.193 97.502 104.198 97.502 104.208C97.502 104.208 97.502 104.207 97.502 104.212C97.5113 104.423 97.5254 104.634 97.5489 104.845C97.6615 105.802 98.4731 106.505 99.4115 106.505C99.4819 106.505 99.5522 106.505 99.6273 106.491C100.659 106.373 101.396 105.445 101.279 104.414C101.26 104.236 101.251 104.057 101.251 103.884C101.251 101.451 103.155 99.477 104.751 98.244C105.572 97.6111 105.722 96.4344 105.088 95.6139C104.718 95.1357 104.164 94.8825 103.601 94.8825L102.813 96.0405ZM103.296 110.649C102.71 110.649 102.137 110.921 101.771 111.432C101.166 112.271 101.359 113.443 102.198 114.048C103.123 114.709 104.145 115.328 105.253 115.886C105.262 115.886 105.271 115.895 105.281 115.9C105.281 115.9 105.281 115.9 105.285 115.9C105.29 115.9 105.3 115.905 105.304 115.909C105.304 115.909 105.304 115.909 105.309 115.909C105.314 115.909 105.323 115.914 105.328 115.919C105.328 115.919 105.328 115.919 105.332 115.919C105.337 115.919 105.346 115.923 105.351 115.928C105.351 115.928 105.351 115.928 105.356 115.928C105.361 115.928 105.365 115.933 105.37 115.938C105.37 115.938 105.37 115.938 105.375 115.938C105.379 115.938 105.384 115.942 105.393 115.947C105.393 115.947 105.393 115.947 105.398 115.947C105.398 115.947 105.403 115.947 105.407 115.947C105.407 115.947 105.407 115.947 105.412 115.947C105.412 115.947 105.412 115.947 105.417 115.947C105.417 115.947 105.422 115.947 105.426 115.947C105.426 115.947 105.426 115.947 105.431 115.947C105.431 115.947 105.431 115.947 105.436 115.947C105.436 115.947 105.436 115.947 105.44 115.947C105.44 115.947 105.44 115.947 105.445 115.947C105.445 115.947 105.445 115.947 105.45 115.947C105.45 115.947 105.454 115.947 105.459 115.947C105.459 115.947 105.464 115.947 105.468 115.947C105.468 115.947 105.468 115.947 105.473 115.947C105.473 115.947 105.478 115.947 105.483 115.947C105.483 115.947 105.487 115.947 105.492 115.947C105.492 115.947 105.492 115.947 105.497 115.947C105.501 115.947 105.511 115.952 105.515 115.956C105.534 115.966 105.553 115.975 105.572 115.984C107.214 116.781 109.039 117.457 111.005 117.986C111.005 117.986 111.042 117.996 111.061 118H111.07C111.07 118 111.094 118.005 111.103 118.01C111.113 118.01 111.117 118.01 111.127 118.014C111.127 118.014 111.131 118.014 111.136 118.014C111.145 118.014 111.15 118.014 111.16 118.019C111.16 118.019 111.164 118.019 111.169 118.019H111.178C111.178 118.019 111.183 118.019 111.188 118.019C111.188 118.019 111.192 118.019 111.197 118.019C111.202 118.019 111.211 118.019 111.221 118.024C111.221 118.024 111.225 118.024 111.23 118.024C111.23 118.024 111.235 118.024 111.239 118.024C111.239 118.024 111.239 118.024 111.244 118.024C111.244 118.024 111.244 118.024 111.249 118.024C111.249 118.024 111.249 118.024 111.253 118.024C111.253 118.024 111.253 118.024 111.258 118.024C111.258 118.024 111.258 118.024 111.263 118.024C111.263 118.024 111.272 118.024 111.277 118.024C111.277 118.024 111.277 118.024 111.281 118.024C111.281 118.024 111.281 118.024 111.286 118.024C111.286 118.024 111.296 118.024 111.3 118.024H111.305C111.314 118.024 111.319 118.024 111.328 118.028C111.328 118.028 111.328 118.028 111.333 118.028C111.342 118.028 111.347 118.028 111.357 118.033C111.357 118.033 111.361 118.033 111.366 118.033C111.375 118.033 111.385 118.033 111.389 118.038C111.389 118.038 111.394 118.038 111.399 118.038C111.723 118.122 112.046 118.202 112.375 118.277C112.515 118.31 112.656 118.324 112.792 118.324C113.646 118.324 114.42 117.733 114.622 116.866C114.852 115.858 114.223 114.85 113.21 114.615C109.672 113.804 106.58 112.501 104.263 110.837C103.93 110.598 103.55 110.485 103.17 110.485L103.296 110.649ZM132.99 114.104C132.807 114.104 132.624 114.133 132.441 114.189C129.377 115.126 125.901 115.652 122.382 115.703C121.345 115.717 120.519 116.57 120.534 117.607C120.548 118.633 121.387 119.454 122.41 119.454C122.42 119.454 122.429 119.454 122.438 119.454C126.445 119.393 130.217 118.793 133.539 117.775C134.529 117.471 135.087 116.42 134.782 115.431C134.534 114.625 133.792 114.104 132.99 114.104ZM144.841 101.91C144.724 101.91 144.602 101.92 144.485 101.943C143.467 102.14 142.8 103.125 142.997 104.142C143.054 104.437 143.087 104.742 143.087 105.042C143.087 107.311 141.407 109.182 139.999 110.354C139.202 111.015 139.094 112.201 139.755 112.998C140.126 113.443 140.661 113.673 141.2 113.673C141.623 113.673 142.05 113.532 142.397 113.242C143.593 112.248 144.583 111.16 145.32 110.007C145.32 110.007 145.32 110.007 145.32 110.002C145.32 110.002 145.339 109.974 145.348 109.96C145.371 109.922 145.4 109.88 145.423 109.843C145.423 109.843 145.428 109.833 145.432 109.829C145.432 109.829 145.437 109.819 145.442 109.815C145.442 109.81 145.446 109.805 145.451 109.801C145.451 109.796 145.456 109.791 145.461 109.787C145.461 109.782 145.465 109.777 145.47 109.772C145.47 109.772 145.47 109.768 145.475 109.763C145.475 109.763 145.475 109.763 145.475 109.758C145.475 109.758 145.475 109.754 145.479 109.749C145.479 109.749 145.479 109.749 145.479 109.744C145.479 109.744 145.479 109.74 145.484 109.735C145.484 109.735 145.484 109.735 145.484 109.73C145.484 109.73 145.484 109.726 145.489 109.721C145.489 109.716 145.493 109.712 145.498 109.707C145.498 109.707 145.503 109.697 145.507 109.693C145.507 109.688 145.512 109.683 145.517 109.679C145.517 109.679 145.517 109.674 145.522 109.669C145.522 109.669 145.522 109.669 145.522 109.665C145.522 109.665 145.522 109.66 145.526 109.655C145.526 109.655 145.526 109.651 145.531 109.646C145.531 109.646 145.531 109.646 145.531 109.641C145.531 109.641 145.531 109.636 145.536 109.632C145.536 109.632 145.536 109.627 145.54 109.622C145.54 109.622 145.545 109.613 145.55 109.608C145.55 109.608 145.55 109.604 145.554 109.599C145.554 109.594 145.559 109.59 145.564 109.585C145.564 109.58 145.568 109.576 145.573 109.571C145.573 109.571 145.573 109.566 145.573 109.561C145.573 109.561 145.573 109.557 145.573 109.552C145.573 109.552 145.573 109.547 145.573 109.543C145.573 109.543 145.573 109.543 145.573 109.538C145.573 109.538 145.573 109.533 145.573 109.529C145.573 109.529 145.573 109.524 145.573 109.519C145.573 109.515 145.578 109.51 145.583 109.505C145.583 109.505 145.587 109.496 145.592 109.491C145.592 109.486 145.597 109.482 145.601 109.477C145.601 109.477 145.606 109.468 145.611 109.463C145.611 109.463 145.611 109.458 145.611 109.454C145.611 109.454 145.611 109.449 145.611 109.444C145.611 109.444 145.611 109.444 145.611 109.435C145.611 109.435 145.611 109.435 145.611 109.43C145.611 109.43 145.611 109.43 145.611 109.426C145.611 109.426 145.611 109.426 145.611 109.421C145.611 109.421 145.611 109.416 145.611 109.411C145.611 109.411 145.611 109.411 145.611 109.407C145.611 109.407 145.611 109.407 145.611 109.402C145.611 109.402 145.611 109.402 145.611 109.397C145.611 109.397 145.611 109.397 145.611 109.393C145.611 109.393 145.611 109.393 145.611 109.388C145.611 109.388 145.611 109.388 145.611 109.383C145.611 109.383 145.611 109.379 145.611 109.374C145.611 109.374 145.611 109.374 145.611 109.369C145.611 109.369 145.611 109.369 145.611 109.365C145.611 109.365 145.611 109.365 145.611 109.36C145.611 109.36 145.611 109.36 145.611 109.355C145.611 109.355 145.611 109.355 145.611 109.351C145.611 109.351 145.611 109.351 145.611 109.346C145.611 109.346 145.611 109.346 145.611 109.341C145.611 109.341 145.611 109.336 145.611 109.332V109.322C145.611 109.322 145.611 109.322 145.611 109.318C145.611 109.318 145.611 109.313 145.611 109.308C145.611 109.308 145.611 109.308 145.611 109.304C145.611 109.304 145.611 109.304 145.611 109.299C145.611 109.299 145.611 109.299 145.611 109.294C145.611 109.294 145.611 109.294 145.611 109.29C145.611 109.29 145.611 109.29 145.611 109.285C145.611 109.285 145.611 109.285 145.611 109.28C145.611 109.28 145.611 109.28 145.611 109.276C145.611 109.276 145.611 109.276 145.611 109.271C145.611 109.271 145.611 109.271 145.611 109.266C145.611 109.266 145.611 109.266 145.611 109.261C145.611 109.261 145.611 109.261 145.611 109.257C145.611 109.257 145.611 109.257 145.611 109.252C145.611 109.252 145.611 109.252 145.611 109.247C145.611 109.247 145.611 109.247 145.611 109.243C145.611 109.243 145.611 109.243 145.611 109.238C145.611 109.238 145.611 109.238 145.611 109.233C145.611 109.233 145.611 109.233 145.611 109.229C145.611 109.229 145.611 109.229 145.611 109.224C145.611 109.224 145.611 109.224 145.611 109.219C145.611 109.219 145.611 109.219 145.611 109.215C145.611 109.215 145.611 109.215 145.611 109.21C145.611 109.21 145.611 109.21 145.611 109.205C145.611 109.205 145.611 109.205 145.611 109.2C145.611 109.2 145.611 109.2 145.611 109.196C145.611 109.196 145.611 109.196 145.611 109.191C145.611 109.191 145.611 109.191 145.611 109.186C145.611 109.186 145.611 109.186 145.611 109.182C145.611 109.182 145.611 109.182 145.611 109.177C145.611 109.177 145.611 109.177 145.611 109.172C145.611 109.172 145.611 109.168 145.611 109.163C145.611 109.163 145.611 109.158 145.611 109.154C145.611 109.154 145.611 109.154 145.611 109.149C145.611 109.149 145.611 109.149 145.611 109.144C145.611 109.144 145.611 109.144 145.611 109.14C145.611 109.14 145.611 109.14 145.611 109.135C145.611 109.135 145.611 109.135 145.611 109.13C145.611 109.13 145.611 109.13 145.611 109.125C145.611 109.125 145.611 109.125 145.611 109.121C145.611 109.121 145.611 109.121 145.611 109.116C145.611 109.116 145.611 109.116 145.611 109.111C145.611 109.111 145.611 109.111 145.611 109.107C145.611 109.107 145.611 109.107 145.611 109.102C145.611 109.102 145.611 109.097 145.611 109.093C145.611 109.093 145.611 109.093 145.611 109.088C145.611 109.088 145.611 109.083 145.611 109.079C145.611 109.079 145.611 109.079 145.611 109.074C145.611 109.074 145.611 109.074 145.611 109.069C145.611 109.069 145.611 109.069 145.611 109.065C145.611 109.065 145.611 109.065 145.611 109.06C145.611 109.06 145.611 109.055 145.611 109.05C145.611 109.05 145.611 109.05 145.611 109.046C145.611 109.046 145.611 109.041 145.611 109.036C145.611 109.036 145.611 109.036 145.611 109.032C145.611 109.032 145.611 109.032 145.611 109.027C145.611 109.027 145.611 109.027 145.611 109.022V109.018C145.611 109.018 145.611 109.018 145.611 109.013C145.611 109.013 145.611 109.013 145.611 109.008C145.611 109.008 145.611 109.004 145.611 108.999C145.611 108.999 145.611 108.999 145.611 108.994C145.611 108.994 145.611 108.994 145.611 108.99C145.611 108.99 145.611 108.985 145.611 108.98C145.611 108.98 145.611 108.98 145.611 108.975C145.611 108.975 145.611 108.975 145.611 108.971C145.611 108.971 145.611 108.971 145.611 108.966C145.611 108.966 145.611 108.966 145.611 108.961V108.957C145.611 108.957 145.611 108.957 145.611 108.952C145.611 108.952 145.611 108.952 145.611 108.947C145.611 108.947 145.611 108.947 145.611 108.943C145.611 108.943 145.611 108.938 145.611 108.933C145.611 108.933 145.611 108.933 145.611 108.929C145.611 108.929 145.611 108.924 145.611 108.919C145.611 108.919 145.611 108.919 145.611 108.915C145.611 108.915 145.611 108.91 145.611 108.905C145.611 108.905 145.611 108.905 145.611 108.9C145.611 108.9 145.611 108.896 145.611 108.891C145.611 108.891 145.611 108.891 145.611 108.886C145.611 108.886 145.611 108.886 145.611 108.877C145.611 108.877 145.611 108.877 145.611 108.872C145.611 108.872 145.611 108.872 145.611 108.868C145.611 108.868 145.611 108.863 145.611 108.858C145.611 108.858 145.611 108.858 145.611 108.854V108.849C145.611 108.849 145.611 108.849 145.611 108.844C145.611 108.844 145.611 108.84 145.611 108.835C145.611 108.835 145.611 108.83 145.611 108.825C145.611 108.825 145.611 108.821 145.611 108.816C145.611 108.816 145.611 108.811 145.611 108.807C145.611 108.807 145.611 108.802 145.611 108.797C145.611 108.797 145.611 108.797 145.611 108.793C145.611 108.793 145.611 108.788 145.611 108.783C145.611 108.783 145.611 108.779 145.611 108.774C145.611 108.774 145.611 108.769 145.611 108.764C145.611 108.764 145.611 108.764 145.611 108.76C145.611 108.76 145.611 108.755 145.611 108.75C145.611 108.75 145.611 108.75 145.611 108.746C145.611 108.746 145.611 108.746 145.611 108.741C145.611 108.741 145.611 108.736 145.611 108.732C145.611 108.732 145.611 108.732 145.611 108.727C145.611 108.727 145.611 108.722 145.611 108.718C145.611 108.718 145.611 108.718 145.611 108.713C145.611 108.713 145.611 108.708 145.611 108.704C145.611 108.704 145.611 108.699 145.611 108.694C145.611 108.694 145.611 108.689 145.611 108.685C145.611 108.685 145.611 108.685 145.611 108.68C145.611 108.68 145.611 108.675 145.611 108.671C145.611 108.671 145.611 108.671 145.611 108.666C145.611 108.666 145.611 108.661 145.611 108.657C145.611 108.657 145.611 108.652 145.611 108.647C145.611 108.647 145.611 108.643 145.611 108.638C145.611 108.638 145.611 108.633 145.611 108.629C145.611 108.629 145.611 108.624 145.611 108.619C145.611 108.619 145.611 108.61 145.615 108.6C145.615 108.6 145.615 108.596 145.615 108.591C145.615 108.591 145.615 108.586 145.615 108.582C145.615 108.582 145.615 108.577 145.615 108.572C145.615 108.572 145.615 108.568 145.615 108.563C145.615 108.563 145.615 108.558 145.615 108.554C145.615 108.554 145.615 108.554 145.615 108.549C145.615 108.549 145.615 108.544 145.615 108.539C145.615 108.539 145.615 108.539 145.615 108.535C145.615 108.535 145.615 108.53 145.615 108.525C145.615 108.525 145.615 108.525 145.615 108.521C145.615 108.521 145.615 108.516 145.615 108.511C145.615 108.511 145.615 108.511 145.615 108.507C145.615 108.507 145.615 108.502 145.615 108.497C145.615 108.497 145.615 108.483 145.62 108.479C145.62 108.479 145.62 108.474 145.62 108.469C145.62 108.469 145.62 108.464 145.62 108.46C145.62 108.46 145.62 108.455 145.62 108.45C145.62 108.45 145.62 108.446 145.62 108.441C145.62 108.441 145.62 108.436 145.62 108.432C145.62 108.432 145.62 108.427 145.62 108.422C145.62 108.422 145.62 108.418 145.62 108.413C145.62 108.413 145.62 108.408 145.62 108.403C145.62 108.403 145.62 108.399 145.62 108.394C145.62 108.394 145.62 108.389 145.62 108.385C145.62 108.385 145.62 108.38 145.62 108.375C145.62 108.375 145.62 108.371 145.62 108.366C145.62 108.366 145.62 108.361 145.62 108.357C145.62 108.357 145.62 108.352 145.62 108.347C145.62 108.347 145.62 108.343 145.62 108.338C145.62 108.338 145.62 108.328 145.625 108.319C145.625 108.319 145.625 108.314 145.625 108.31C145.625 108.31 145.625 108.305 145.625 108.3C145.625 108.296 145.625 108.291 145.629 108.286C145.629 108.286 145.629 108.282 145.629 108.277C145.629 108.277 145.629 108.277 145.629 108.272C145.629 108.272 145.629 108.268 145.629 108.263C145.629 108.263 145.629 108.258 145.629 108.253C145.629 108.253 145.629 108.249 145.629 108.244C145.629 108.244 145.629 108.239 145.629 108.235C145.629 108.235 145.629 108.23 145.629 108.225C145.629 108.225 145.629 108.221 145.629 108.216C145.629 108.216 145.629 108.211 145.629 108.207C145.629 108.207 145.629 108.202 145.629 108.197C145.629 108.197 145.629 108.193 145.629 108.188C145.629 108.183 145.629 108.178 145.629 108.174C145.629 108.169 145.629 108.164 145.629 108.16C145.629 108.16 145.629 108.155 145.629 108.15C145.629 108.15 145.629 108.146 145.629 108.141C145.629 108.141 145.629 108.136 145.629 108.132C145.629 108.132 145.629 108.127 145.629 108.122C145.629 108.122 145.629 108.117 145.629 108.113C145.629 108.113 145.629 108.108 145.629 108.103C145.629 108.103 145.629 108.099 145.629 108.094C145.629 108.094 145.629 108.089 145.629 108.085C145.629 108.085 145.629 108.08 145.629 108.075C145.629 108.075 145.629 108.066 145.629 108.061C145.629 108.057 145.629 108.052 145.629 108.047C145.629 108.047 145.629 108.038 145.629 108.028C145.629 108.024 145.629 108.019 145.629 108.014C145.629 108.014 145.629 108.01 145.629 108.005C145.629 108.005 145.629 108 145.629 107.996C145.629 107.996 145.629 107.991 145.629 107.986C145.629 107.986 145.629 107.982 145.629 107.977C145.629 107.977 145.629 107.972 145.629 107.967C145.629 107.967 145.629 107.963 145.629 107.958C145.629 107.958 145.629 107.953 145.629 107.949C145.629 107.949 145.629 107.944 145.629 107.939C145.629 107.939 145.629 107.935 145.629 107.93C145.629 107.93 145.629 107.925 145.629 107.921C145.629 107.921 145.629 107.916 145.629 107.911C145.629 107.907 145.629 107.902 145.629 107.897C145.629 107.897 145.629 107.883 145.629 107.878C145.629 107.874 145.629 107.869 145.629 107.864C145.629 107.864 145.629 107.86 145.629 107.855C145.629 107.855 145.629 107.85 145.629 107.846C145.629 107.846 145.629 107.841 145.629 107.836C145.629 107.836 145.629 107.832 145.629 107.827C145.629 107.827 145.629 107.822 145.629 107.817C145.629 107.817 145.629 107.817 145.629 107.813C145.629 107.813 145.629 107.808 145.629 107.803C145.629 107.803 145.629 107.803 145.629 107.799C145.629 107.799 145.629 107.794 145.629 107.789C145.629 107.789 145.629 107.785 145.629 107.78C145.629 107.78 145.629 107.775 145.629 107.771C145.629 107.766 145.629 107.761 145.629 107.756C145.629 107.756 145.629 107.747 145.629 107.738C145.629 107.738 145.629 107.733 145.629 107.728C145.629 107.728 145.629 107.724 145.629 107.719C145.629 107.719 145.629 107.714 145.629 107.71C145.629 107.71 145.629 107.705 145.629 107.7C145.629 107.7 145.629 107.696 145.629 107.691C145.629 107.691 145.629 107.686 145.629 107.681C145.629 107.681 145.629 107.677 145.629 107.672C145.629 107.672 145.629 107.667 145.629 107.663C145.629 107.663 145.629 107.658 145.629 107.653C145.629 107.653 145.629 107.653 145.629 107.649C145.629 107.649 145.629 107.644 145.629 107.639C145.629 107.639 145.629 107.635 145.629 107.63C145.629 107.63 145.629 107.625 145.629 107.621C145.629 107.616 145.629 107.611 145.629 107.606C145.629 107.602 145.629 107.597 145.629 107.592C145.629 107.592 145.629 107.588 145.629 107.583C145.629 107.583 145.629 107.578 145.629 107.574C145.629 107.574 145.629 107.569 145.629 107.564C145.629 107.564 145.629 107.56 145.629 107.555C145.629 107.555 145.629 107.55 145.629 107.546C145.629 107.546 145.629 107.541 145.629 107.536C145.629 107.536 145.629 107.531 145.629 107.527C145.629 107.527 145.629 107.522 145.629 107.517C145.629 107.517 145.629 107.513 145.629 107.508C145.629 107.508 145.629 107.508 145.629 107.499C145.629 107.499 145.629 107.494 145.629 107.489C145.629 107.489 145.629 107.485 145.629 107.48C145.629 107.48 145.629 107.475 145.629 107.471V107.461C145.629 107.461 145.629 107.456 145.629 107.452C145.629 107.452 145.629 107.447 145.629 107.442C145.629 107.442 145.629 107.438 145.629 107.433C145.629 107.433 145.629 107.428 145.629 107.424C145.629 107.424 145.629 107.419 145.629 107.414C145.629 107.414 145.629 107.41 145.629 107.405C145.629 107.405 145.629 107.405 145.629 107.4C145.629 107.4 145.629 107.396 145.629 107.391C145.629 107.391 145.629 107.391 145.629 107.386C145.629 107.386 145.629 107.381 145.629 107.377C145.629 107.377 145.629 107.377 145.629 107.372C145.629 107.372 145.629 107.367 145.629 107.363C145.629 107.363 145.629 107.358 145.629 107.353C145.629 107.353 145.629 107.349 145.629 107.344C145.629 107.344 145.629 107.339 145.629 107.335C145.629 107.335 145.629 107.33 145.629 107.325C145.629 107.32 145.629 107.316 145.629 107.311C145.629 107.306 145.629 107.302 145.629 107.297C145.629 107.297 145.629 107.292 145.629 107.288C145.629 107.288 145.629 107.283 145.629 107.278C145.629 107.278 145.629 107.274 145.629 107.269C145.629 107.269 145.629 107.264 145.629 107.26C145.629 107.26 145.629 107.255 145.629 107.25C145.629 107.25 145.629 107.245 145.629 107.241C145.629 107.241 145.629 107.236 145.629 107.231C145.629 107.231 145.629 107.227 145.629 107.222C145.629 107.222 145.629 107.217 145.629 107.213C145.629 107.213 145.629 107.208 145.629 107.203C145.629 107.203 145.629 107.199 145.629 107.194C145.629 107.189 145.629 107.185 145.629 107.18C145.629 107.175 145.629 107.17 145.629 107.161C145.629 107.161 145.629 107.152 145.629 107.142C145.629 107.142 145.629 107.138 145.629 107.133C145.629 107.133 145.629 107.128 145.629 107.124C145.629 107.124 145.629 107.119 145.629 107.114C145.629 107.114 145.629 107.11 145.629 107.105C145.629 107.105 145.629 107.1 145.629 107.095C145.629 107.095 145.629 107.095 145.629 107.091C145.629 107.091 145.629 107.086 145.629 107.081C145.629 107.081 145.629 107.077 145.629 107.072C145.629 107.072 145.629 107.067 145.629 107.063C145.629 107.063 145.629 107.063 145.629 107.058C145.629 107.058 145.629 107.053 145.629 107.049C145.629 107.044 145.629 107.039 145.629 107.035C145.629 107.03 145.629 107.025 145.629 107.02C145.629 107.016 145.629 107.011 145.629 107.006C145.629 107.006 145.629 107.002 145.629 106.997C145.629 106.997 145.629 106.992 145.629 106.988C145.629 106.988 145.629 106.983 145.629 106.978C145.629 106.978 145.629 106.974 145.629 106.969C145.629 106.969 145.629 106.964 145.629 106.96C145.629 106.96 145.629 106.96 145.629 106.955C145.629 106.955 145.629 106.95 145.629 106.945C145.629 106.945 145.629 106.945 145.629 106.941C145.629 106.941 145.629 106.936 145.629 106.931C145.629 106.931 145.629 106.931 145.629 106.927C145.629 106.927 145.629 106.922 145.629 106.917C145.629 106.917 145.629 106.913 145.629 106.908C145.629 106.908 145.629 106.903 145.629 106.899C145.629 106.899 145.629 106.894 145.629 106.889C145.629 106.889 145.629 106.884 145.629 106.88C145.629 106.88 145.629 106.875 145.629 106.87C145.629 106.87 145.629 106.87 145.629 106.866C145.629 106.866 145.629 106.861 145.629 106.856C145.629 106.856 145.629 106.852 145.629 106.847C145.629 106.847 145.629 106.842 145.629 106.838C145.629 106.838 145.629 106.838 145.629 106.833C145.629 106.833 145.629 106.828 145.629 106.824C145.629 106.824 145.629 106.819 145.629 106.814C145.629 106.814 145.629 106.809 145.629 106.805V106.795C145.629 106.795 145.629 106.791 145.629 106.786C145.629 106.786 145.629 106.781 145.629 106.777C145.629 106.777 145.629 106.772 145.629 106.767C145.629 106.767 145.629 106.767 145.629 106.763C145.629 106.763 145.629 106.758 145.629 106.753C145.629 106.753 145.629 106.749 145.629 106.744C145.629 106.744 145.629 106.739 145.629 106.734C145.629 106.734 145.629 106.73 145.629 106.725C145.629 106.725 145.629 106.72 145.629 106.716C145.629 106.716 145.629 106.711 145.629 106.706C145.629 106.706 145.629 106.706 145.629 106.702C145.629 106.702 145.629 106.697 145.629 106.692C145.629 106.692 145.629 106.692 145.629 106.688C145.629 106.688 145.629 106.683 145.629 106.678C145.629 106.678 145.629 106.678 145.629 106.674C145.629 106.674 145.629 106.669 145.629 106.664C145.629 106.664 145.629 106.664 145.629 106.659C145.629 106.659 145.629 106.655 145.629 106.65C145.629 106.65 145.629 106.65 145.629 106.645C145.629 106.645 145.629 106.641 145.629 106.636C145.629 106.636 145.629 106.631 145.629 106.627C145.629 106.627 145.629 106.622 145.629 106.617C145.629 106.617 145.629 106.613 145.629 106.608C145.629 106.608 145.629 106.603 145.629 106.599C145.629 106.599 145.629 106.594 145.629 106.589C145.629 106.589 145.629 106.589 145.629 106.584C145.629 106.584 145.629 106.58 145.629 106.575C145.629 106.575 145.629 106.575 145.629 106.57C145.629 106.57 145.629 106.566 145.629 106.561C145.629 106.561 145.629 106.556 145.629 106.552C145.629 106.552 145.629 106.547 145.629 106.542C145.629 106.542 145.629 106.542 145.629 106.538C145.629 106.538 145.629 106.533 145.629 106.528C145.629 106.528 145.629 106.524 145.629 106.519C145.629 106.519 145.629 106.514 145.629 106.509C145.629 106.509 145.629 106.505 145.629 106.5C145.629 106.5 145.629 106.495 145.629 106.491C145.629 106.486 145.629 106.481 145.629 106.477C145.629 106.472 145.629 106.467 145.629 106.463C145.629 106.463 145.629 106.458 145.629 106.453C145.629 106.453 145.629 106.448 145.629 106.444C145.629 106.444 145.629 106.439 145.629 106.434C145.629 106.434 145.629 106.434 145.629 106.43C145.629 106.43 145.629 106.425 145.629 106.42C145.629 106.42 145.629 106.42 145.629 106.416C145.629 106.416 145.629 106.411 145.629 106.406C145.629 106.406 145.629 106.406 145.629 106.402C145.629 106.402 145.629 106.397 145.629 106.392C145.629 106.392 145.629 106.392 145.629 106.388C145.629 106.388 145.629 106.383 145.629 106.378C145.629 106.378 145.629 106.378 145.629 106.373C145.629 106.373 145.629 106.369 145.629 106.364C145.629 106.364 145.629 106.359 145.629 106.355C145.629 106.355 145.629 106.35 145.629 106.345C145.629 106.345 145.629 106.341 145.629 106.336C145.629 106.336 145.629 106.336 145.629 106.331C145.629 106.331 145.629 106.327 145.629 106.322C145.629 106.322 145.629 106.317 145.629 106.313C145.629 106.313 145.629 106.308 145.629 106.303C145.629 106.303 145.629 106.303 145.629 106.298C145.629 106.298 145.629 106.294 145.629 106.289C145.629 106.289 145.629 106.289 145.629 106.284C145.629 106.284 145.629 106.28 145.629 106.275C145.629 106.275 145.629 106.275 145.629 106.27C145.629 106.27 145.629 106.266 145.629 106.261C145.629 106.261 145.629 106.261 145.629 106.256C145.629 106.256 145.629 106.252 145.629 106.247C145.629 106.247 145.629 106.242 145.629 106.238C145.629 106.238 145.629 106.233 145.629 106.228C145.629 106.223 145.629 106.219 145.629 106.214C145.629 106.214 145.629 106.209 145.629 106.205C145.629 106.205 145.629 106.205 145.629 106.195C145.629 106.195 145.629 106.191 145.629 106.186C145.629 106.186 145.629 106.186 145.629 106.181C145.629 106.181 145.629 106.177 145.629 106.172C145.629 106.172 145.629 106.172 145.629 106.167C145.629 106.167 145.629 106.162 145.629 106.158C145.629 106.158 145.629 106.153 145.629 106.148C145.629 106.148 145.629 106.144 145.629 106.139C145.629 106.139 145.629 106.139 145.629 106.134C145.629 106.134 145.629 106.13 145.629 106.125C145.629 106.125 145.629 106.125 145.629 106.12C145.629 106.12 145.629 106.116 145.629 106.111C145.629 106.111 145.629 106.106 145.629 106.102C145.629 106.102 145.629 106.097 145.629 106.092C145.629 106.092 145.629 106.092 145.629 106.087C145.629 106.087 145.629 106.087 145.629 106.083C145.629 106.083 145.629 106.083 145.629 106.073C145.629 106.073 145.629 106.073 145.629 106.069C145.629 106.069 145.629 106.064 145.629 106.059C145.629 106.059 145.629 106.059 145.629 106.055C145.629 106.055 145.629 106.05 145.629 106.045C145.629 106.045 145.629 106.045 145.629 106.041C145.629 106.041 145.629 106.036 145.629 106.031C145.629 106.031 145.629 106.031 145.629 106.027C145.629 106.027 145.629 106.022 145.629 106.017C145.629 106.017 145.629 106.017 145.629 106.012C145.629 106.012 145.629 106.008 145.629 106.003C145.629 106.003 145.629 105.998 145.629 105.994C145.629 105.994 145.629 105.989 145.629 105.984C145.629 105.984 145.629 105.98 145.629 105.975C145.629 105.975 145.629 105.97 145.629 105.966C145.629 105.966 145.629 105.961 145.629 105.956C145.629 105.956 145.629 105.952 145.629 105.947C145.629 105.947 145.629 105.942 145.629 105.937C145.629 105.937 145.629 105.933 145.629 105.928C145.629 105.928 145.629 105.923 145.629 105.919C145.629 105.919 145.629 105.919 145.629 105.914C145.629 105.914 145.629 105.909 145.629 105.905C145.629 105.905 145.629 105.9 145.629 105.895C145.629 105.895 145.629 105.891 145.629 105.886C145.629 105.886 145.629 105.886 145.629 105.881C145.629 105.881 145.629 105.877 145.629 105.872C145.629 105.872 145.629 105.872 145.629 105.867C145.629 105.867 145.629 105.862 145.629 105.858C145.629 105.858 145.629 105.853 145.629 105.848C145.629 105.848 145.629 105.844 145.629 105.839V105.83V105.82V105.811V105.801V105.792V105.783V105.778V105.773V105.769C145.629 105.769 145.629 105.764 145.629 105.759C145.629 105.759 145.629 105.755 145.629 105.75C145.629 105.741 145.629 105.736 145.629 105.726C145.629 105.726 145.629 105.726 145.629 105.722C145.629 105.722 145.629 105.722 145.629 105.717C145.629 105.717 145.629 105.717 145.629 105.712C145.629 105.694 145.629 105.68 145.629 105.661C145.62 105.403 145.601 105.15 145.568 104.897C145.568 104.897 145.568 104.897 145.568 104.892C145.568 104.892 145.568 104.883 145.568 104.878C145.568 104.878 145.568 104.878 145.568 104.873C145.568 104.873 145.568 104.873 145.568 104.869C145.568 104.869 145.568 104.869 145.568 104.864C145.568 104.864 145.568 104.864 145.568 104.859C145.568 104.859 145.568 104.859 145.568 104.854C145.568 104.854 145.568 104.854 145.568 104.85C145.55 104.7 145.522 104.55 145.493 104.4C145.32 103.504 144.532 102.881 143.654 102.881L144.841 101.91ZM130.006 91.4648C129.138 91.4648 128.359 92.0696 128.172 92.9557C127.956 93.9683 128.608 94.9669 129.621 95.1779C133.164 95.9233 136.307 97.1704 138.705 98.7738C139.024 98.9895 139.389 99.0926 139.746 99.0926C140.351 99.0926 140.947 98.8019 141.308 98.2581C141.885 97.3955 141.656 96.2328 140.792 95.6561C138.845 94.3528 136.504 93.2557 133.872 92.4165C133.835 92.4071 133.797 92.3931 133.764 92.3837C133.745 92.379 133.727 92.3743 133.708 92.3649C133.708 92.3649 133.703 92.3649 133.698 92.3649C133.689 92.3649 133.684 92.3649 133.68 92.3603C133.68 92.3603 133.675 92.3603 133.67 92.3603C133.67 92.3603 133.647 92.3556 133.637 92.3509C133.637 92.3509 133.633 92.3509 133.628 92.3509C133.628 92.3509 133.623 92.3509 133.619 92.3509C133.619 92.3509 133.614 92.3509 133.609 92.3509C133.609 92.3509 133.605 92.3509 133.6 92.3509C133.6 92.3509 133.595 92.3509 133.591 92.3509C133.591 92.3509 133.586 92.3509 133.581 92.3509C133.581 92.3509 133.581 92.3509 133.576 92.3509C133.576 92.3509 133.576 92.3509 133.572 92.3509H133.567C133.567 92.3509 133.567 92.3509 133.562 92.3509C133.562 92.3509 133.562 92.3509 133.558 92.3509C133.558 92.3509 133.558 92.3509 133.553 92.3509H133.548C133.548 92.3509 133.544 92.3509 133.539 92.3509C133.539 92.3509 133.539 92.3509 133.534 92.3509C133.534 92.3509 133.534 92.3509 133.53 92.3509C133.53 92.3509 133.53 92.3509 133.52 92.3509C133.52 92.3509 133.52 92.3509 133.515 92.3509C133.515 92.3509 133.515 92.3509 133.511 92.3509C133.511 92.3509 133.506 92.3509 133.501 92.3509C133.501 92.3509 133.497 92.3509 133.492 92.3509C133.492 92.3509 133.492 92.3509 133.487 92.3509C133.487 92.3509 133.487 92.3509 133.483 92.3509C133.483 92.3509 133.483 92.3509 133.478 92.3509C133.478 92.3509 133.478 92.3509 133.473 92.3509C133.473 92.3509 133.473 92.3509 133.464 92.3509C133.464 92.3509 133.464 92.3509 133.459 92.3509C133.459 92.3509 133.459 92.3509 133.454 92.3509H133.445C133.445 92.3509 133.445 92.3509 133.44 92.3509C133.44 92.3509 133.44 92.3509 133.436 92.3509C133.431 92.3509 133.422 92.3509 133.412 92.3462C133.412 92.3462 133.412 92.3462 133.408 92.3462C133.403 92.3462 133.393 92.3462 133.384 92.3415C133.384 92.3415 133.384 92.3415 133.379 92.3415C133.375 92.3415 133.365 92.3415 133.356 92.3368C133.356 92.3368 133.356 92.3368 133.347 92.3368C133.342 92.3368 133.333 92.3368 133.323 92.3321C133.323 92.3321 133.323 92.3321 133.318 92.3321C133.314 92.3321 133.304 92.3321 133.295 92.3274C133.295 92.3274 133.295 92.3274 133.29 92.3274C133.281 92.3274 133.272 92.3228 133.257 92.3181C133.248 92.3181 133.239 92.3134 133.225 92.3087C133.215 92.3087 133.201 92.304 133.192 92.2993C133.192 92.2993 133.168 92.2946 133.159 92.2899C132.3 92.0414 131.414 91.8211 130.503 91.6289C130.372 91.6008 130.245 91.5867 130.119 91.5867L130.006 91.4648Z" fill="#3D84BB"/>
<path d="M138.723 39.7579C133.693 36.4433 126.698 27.1746 126.698 27.1746C124.812 24.0616 122.63 21.0236 119.661 18.9935C114.716 15.618 109.892 19.1342 104.675 19.0404C93.5231 18.8388 85.627 10.1937 85.627 10.1937L101.56 1C101.56 1 113.092 9.7436 121.509 9.95457C124.85 10.039 126.769 9.31228 127.604 8.88565C128.265 8.5434 128.974 8.27149 129.715 8.16366C133.937 7.55419 136.982 10.8547 136.982 10.8547C139.952 14.0334 142.251 18.0559 144.996 21.4549C148.698 26.0353 153.009 30.8267 157.87 34.2116C160.652 36.1479 164.049 37.4231 167.131 38.8249L151.001 48.1311" fill="#E7EBEE"/>
<path d="M138.723 39.7579C133.693 36.4433 126.698 27.1746 126.698 27.1746C124.812 24.0616 122.63 21.0236 119.661 18.9935C114.716 15.618 109.892 19.1342 104.675 19.0404C93.5231 18.8388 85.627 10.1937 85.627 10.1937L101.56 1C101.56 1 113.092 9.7436 121.509 9.95457C124.85 10.039 126.769 9.31228 127.604 8.88565C128.265 8.5434 128.974 8.27149 129.715 8.16366C133.937 7.55419 136.982 10.8547 136.982 10.8547C139.952 14.0334 142.251 18.0559 144.996 21.4549C148.698 26.0353 153.009 30.8267 157.87 34.2116C160.652 36.1479 164.049 37.4231 167.131 38.8249L151.001 48.1311" stroke="#19374E" stroke-width="2" stroke-linecap="round" stroke-linejoin="round"/>
<path d="M162.46 71.1646C156.525 83.1947 146.635 92.7119 133.559 96.3312C128.825 97.6393 123.852 98.5347 118.939 98.7972C118.939 98.7972 134.629 97.9018 144.087 81.7273C151.256 69.4628 151.007 48.1265 151.007 48.1265L167.137 38.8203C167.137 38.8203 167.963 60.0113 162.464 71.16L162.46 71.1646Z" fill="#3D84BB" stroke="#19374E" stroke-width="2" stroke-linecap="round" stroke-linejoin="round"/>
<path d="M144.086 81.7317C134.632 97.9016 118.938 98.8017 118.938 98.8017C118.938 98.8017 109.827 87.4702 105.74 80.7191C101.659 73.9727 98.0975 68.1498 91.8106 51.7784C85.7067 35.8899 85.627 10.1982 85.627 10.1982C85.627 10.1982 93.5231 18.8481 104.675 19.045C109.892 19.1388 114.716 15.6179 119.661 18.9981C122.133 20.6906 124.122 23.105 125.694 25.6695C127.134 28.0183 128.842 30.1984 130.71 32.2284C134.608 36.4619 141.313 42.6926 151.006 48.1357C151.006 48.1357 151.255 69.4719 144.086 81.7364V81.7317Z" fill="white" stroke="#19374E" stroke-width="2" stroke-linecap="round" stroke-linejoin="round"/>
<path d="M120.16 94.9715C117.293 91.3053 110.086 81.7412 107.393 77.2921C107.393 77.2921 101.576 67.0388 95.5328 50.9956C92.1688 42.0645 90.6909 29.0124 89.884 20.5875C89.8323 20.0296 90.4376 19.5421 90.9067 19.8468C99.8397 25.6509 107.891 24.882 111.386 24.2913C112.737 24.0615 115.613 23.513 116.561 23.513C117.194 23.513 117.617 23.6396 118.105 23.9725C119.934 25.2196 121.201 27.498 123.204 30.1657C124.035 31.2721 132.424 41.3987 146.888 51.1409C147.188 51.3425 147.376 51.6801 147.371 52.0411C147.287 59.0641 145.326 71.6802 141.103 78.9048C135.454 88.5627 129.163 92.1445 120.155 94.9715H120.16Z" fill="white" stroke="#19374E" stroke-linecap="round" stroke-linejoin="round"/>
<path d="M124.203 62.9414C121.13 57.3718 116.062 54.2822 112.872 56.0356C109.686 57.789 109.593 63.7243 112.661 69.294C115.734 74.8637 120.801 77.9532 123.991 76.1998C127.172 74.4464 127.266 68.5111 124.203 62.9414ZM122.012 72.6649C120.262 73.6166 117.212 71.4037 115.19 67.7187C113.172 64.0338 112.952 60.2738 114.697 59.3221C116.443 58.3657 119.497 60.5785 121.514 64.2635C123.536 67.9485 123.757 71.7085 122.012 72.6649Z" fill="#3D84BB"/>
<path d="M112.459 41.7268L113.716 38.0371L120.707 42.0034V55.5431L116.226 52.8755V43.8506L112.459 41.7268Z" fill="#3D84BB"/>
<path d="M69.4842 34.5771C69.4748 39.7014 69.4607 44.8257 69.4514 49.95C69.442 53.3067 69.4373 56.6635 69.4279 60.0203C69.4279 61.5253 69.5452 63.0958 69.3575 64.5961C68.9259 68.117 66.6504 71.0471 63.6571 72.7865C59.9084 74.9665 56.1598 77.1419 52.4111 79.3219C40.2455 86.3918 28.0799 93.457 15.9143 100.527C12.6395 102.43 9.37877 104.362 6.08519 106.237C3.33585 107.808 0.844563 106.856 0.741346 103.499C0.39416 92.3412 0.661582 81.1363 0.619357 69.9735V68.9046L0.638128 74.3992L69.4842 34.5771Z" fill="#3D84BB" stroke="#19374E" stroke-linecap="round" stroke-linejoin="round"/>
<path d="M69.5067 24.6009L69.4926 34.5728C61.7888 39.0267 54.0897 43.4852 46.3859 47.9391C33.9952 55.1027 21.6091 62.2711 9.21827 69.4347C6.35633 71.0897 3.49908 72.7446 0.637137 74.3949C0.623062 71.0569 0.608993 67.7235 0.599609 64.3855L69.5113 24.5962L69.5067 24.6009Z" fill="#E7EBEE" stroke="#19374E" stroke-linecap="round" stroke-linejoin="round"/>
<path d="M69.5211 18.881L69.507 24.6007L0.599945 64.39C0.590561 61.4739 0.154228 58.253 1.18171 55.4588C2.03091 53.1522 3.59324 51.0659 5.7092 49.7954C9.87074 47.3013 14.1261 44.9525 18.3299 42.5333C26.226 37.9904 34.1269 33.4428 42.023 28.8998C48.4412 25.2055 54.8595 21.5111 61.2778 17.8168C63.4359 16.5744 67.8602 13.2504 69.2583 17.1745C69.4507 17.7183 69.5211 18.3091 69.5164 18.8857L69.5211 18.881Z" fill="#3D84BB" stroke="#19374E" stroke-linecap="round" stroke-linejoin="round"/>
<path d="M21.5431 78.0094L21.5525 85.5528L6.14493 94.5261L6.13086 89.941L17.1001 83.5462L17.0719 78.6235C17.8085 78.1969 21.5806 75.2855 21.5384 78.0094H21.5431Z" fill="#E7EBEE"/>
<path d="M11.4234 92.4399L11.4515 96.8985C10.2551 97.5923 9.05407 98.4831 7.78262 99.0223C7.47297 99.1535 7.13516 99.2895 6.79736 99.1629C5.63382 98.7269 6.1499 96.2984 6.14521 95.5154L11.4234 92.4446V92.4399Z" fill="#E7EBEE"/>
<path d="M11.1663 82.0366L11.1898 86.0029L6.12742 88.9518C6.12742 87.5313 5.94913 86.2092 6.77956 84.9855C7.75543 83.5509 9.73064 82.8618 11.1616 82.0366H11.1663Z" fill="#E7EBEE"/>
<path d="M21.5577 86.5418C21.5577 87.9905 21.8063 89.5142 21.0322 90.8081C20.2346 92.1443 18.6441 92.735 17.3633 93.4757L17.3398 88.9984L21.5624 86.5371L21.5577 86.5418Z" fill="#E7EBEE"/>
<path d="M16.4721 89.5005L16.5003 93.9731L12.3153 96.4016L12.2871 91.9384L16.4721 89.5005Z" fill="#E7EBEE"/>
<path d="M16.219 79.1157L16.2425 83.0586L12.0527 85.5011L12.0293 81.5395L16.219 79.1157Z" fill="#E7EBEE"/>
</svg>
