<svg width="199" height="197" viewBox="0 0 199 197" fill="none" xmlns="http://www.w3.org/2000/svg">
<path d="M98.3867 99.615C98.3867 99.1624 98.7537 98.7949 99.2068 98.7949C99.6599 98.7949 100.027 99.1619 100.027 99.615C100.027 100.068 99.6599 100.435 99.2068 100.435C98.7537 100.435 98.3867 100.068 98.3867 99.615Z" fill="#A1C6E1"/>
<path d="M196.22 196.576H2.19173C0.981332 196.576 0 195.595 0 194.385V194.053C0 192.843 0.981332 191.861 2.19173 191.861H196.22C197.431 191.861 198.412 192.843 198.412 194.053V194.385C198.412 195.595 197.431 196.576 196.22 196.576Z" fill="#15374F"/>
<path d="M171.309 184.697H27.1055V95.7885C27.1055 94.8333 27.8802 94.0586 28.8354 94.0586H169.579C170.534 94.0586 171.309 94.8333 171.309 95.7885V184.697H171.309Z" fill="#76ADD3"/>
<path d="M161.209 174.106C161.745 174.106 162.18 173.671 162.18 173.135V135.045L117.68 174.106H161.209Z" fill="white"/>
<path d="M38.7989 101.893C38.2629 101.893 37.8281 102.327 37.8281 102.863V136.825L77.6247 101.893H38.7989Z" fill="white"/>
<path d="M162.179 102.863C162.179 102.327 161.744 101.893 161.208 101.893H113.294L37.8281 168.135V173.136C37.8281 173.672 38.2624 174.107 38.7989 174.107H82.01L162.179 103.736V102.863Z" fill="white"/>
<path d="M82.0117 174.106H117.681L162.181 135.045V103.735L82.0117 174.106Z" fill="white"/>
<path d="M77.6247 101.893L37.8281 136.825V168.135L113.294 101.893H77.6247Z" fill="white"/>
<path d="M179.618 191.862H18.7943C17.0676 191.862 15.668 190.462 15.668 188.735V187.822C15.668 186.095 17.0676 184.695 18.7943 184.695H179.619C181.345 184.695 182.745 186.095 182.745 187.822V188.735C182.744 190.461 181.345 191.862 179.618 191.862Z" fill="#C0D9EB"/>
<path d="M110.273 189.462H88.138C87.3857 189.462 86.7695 188.93 86.7695 188.279C86.7695 187.628 87.3853 187.095 88.138 187.095H110.273C111.025 187.095 111.64 187.628 111.64 188.279C111.64 188.93 111.025 189.462 110.273 189.462Z" fill="#76ADD3"/>
<path d="M125.104 121.135L106.629 121.04L106.461 153.776L129.785 153.895L129.928 126.009L125.104 121.135Z" fill="#76ADD3"/>
<path d="M125.078 125.984L129.928 126.009L125.103 121.135L125.078 125.984Z" fill="#1C4968"/>
<path d="M112.169 124.494L112.16 126.156L124.361 126.218L124.37 124.556L112.169 124.494Z" fill="white"/>
<path d="M109.315 128.878L109.312 129.433L127.175 129.524L127.178 128.969L109.315 128.878Z" fill="white"/>
<path d="M109.304 131.665L109.301 132.22L127.164 132.311L127.166 131.756L109.304 131.665Z" fill="white"/>
<path d="M109.3 134.463L109.297 135.018L127.16 135.11L127.163 134.556L109.3 134.463Z" fill="white"/>
<path d="M109.276 137.237L109.273 137.791L127.136 137.882L127.139 137.328L109.276 137.237Z" fill="white"/>
<path d="M109.257 140.024L109.254 140.578L127.117 140.669L127.12 140.115L109.257 140.024Z" fill="white"/>
<path d="M109.245 142.811L109.242 143.365L127.105 143.456L127.108 142.902L109.245 142.811Z" fill="white"/>
<path d="M109.241 145.609L109.238 146.163L117.263 146.205L117.265 145.65L109.241 145.609Z" fill="white"/>
<path d="M127.284 149.003C127.273 151.134 125.537 152.853 123.406 152.842C121.274 152.831 119.555 151.095 119.566 148.963C119.577 146.832 121.314 145.113 123.445 145.124C125.576 145.135 127.295 146.871 127.284 149.003Z" fill="white"/>
<path d="M115.295 124.021L96.8205 123.926L96.6523 156.662L119.977 156.782L120.12 128.895L115.295 124.021Z" fill="white"/>
<path d="M115.27 128.87L120.119 128.895L115.294 124.021L115.27 128.87Z" fill="#1C4968"/>
<path d="M102.36 127.379L102.352 129.042L114.553 129.104L114.561 127.442L102.36 127.379Z" fill="#76ADD3"/>
<path d="M99.5067 131.766L99.5039 132.32L117.367 132.411L117.37 131.857L99.5067 131.766Z" fill="#76ADD3"/>
<path d="M99.495 134.551L99.4922 135.105L117.355 135.197L117.358 134.642L99.495 134.551Z" fill="#76ADD3"/>
<path d="M99.4912 137.351L99.4883 137.905L117.351 137.998L117.354 137.444L99.4912 137.351Z" fill="#76ADD3"/>
<path d="M99.4677 140.123L99.4648 140.678L117.328 140.769L117.33 140.214L99.4677 140.123Z" fill="#76ADD3"/>
<path d="M99.452 142.91L99.4492 143.465L117.312 143.556L117.315 143.002L99.452 142.91Z" fill="#76ADD3"/>
<path d="M99.4364 145.697L99.4336 146.251L117.296 146.342L117.299 145.788L99.4364 145.697Z" fill="#76ADD3"/>
<path d="M99.4326 148.494L99.4297 149.049L107.454 149.091L107.457 148.536L99.4326 148.494Z" fill="#76ADD3"/>
<path d="M117.476 151.889C117.465 154.021 115.728 155.74 113.597 155.729C111.466 155.718 109.747 153.981 109.758 151.85C109.769 149.719 111.505 148 113.636 148.011C115.768 148.021 117.487 149.758 117.476 151.889Z" fill="#76ADD3"/>
<path d="M105.354 117.167L93.2203 117.179C92.3178 117.18 91.5852 116.45 91.5843 115.547L91.582 113.63C91.5811 112.728 92.3119 111.995 93.2148 111.994L105.349 111.981C106.252 111.981 106.984 112.711 106.985 113.614L106.987 115.531C106.988 116.433 106.257 117.166 105.354 117.167Z" fill="#15374F"/>
<path d="M108.085 88.9581C122.449 85.0534 133.008 71.9131 132.992 56.3061C132.972 37.6375 117.831 22.5194 99.1732 22.5391C80.515 22.5588 65.4061 37.7089 65.4258 56.3776C65.4423 71.9841 76.0294 85.102 90.4016 88.9764" fill="#3384BD"/>
<path d="M134.281 100.941L122.39 85.9371C122.546 85.8143 122.7 85.6901 122.853 85.5651L134.976 100.381C134.746 100.57 134.514 100.756 134.281 100.941ZM64.1252 100.933C63.8957 100.751 63.6666 100.567 63.4394 100.381L75.5585 85.5609C75.7143 85.6883 75.8709 85.8143 76.0285 85.9394L64.1252 100.933ZM149.071 83.267L132.208 74.2037C132.298 74.0351 132.388 73.8665 132.475 73.6961L149.495 82.4612C149.355 82.7315 149.215 82.9999 149.071 83.267ZM49.3328 83.2428C49.1945 82.9844 49.0584 82.7237 48.9237 82.4625L65.9362 73.6842C66.0292 73.8642 66.1236 74.0429 66.2189 74.2211L49.3328 83.2428ZM155.574 61.111L136.491 59.5717C136.506 59.3811 136.52 59.19 136.532 58.9995L155.639 60.203C155.62 60.5058 155.598 60.8091 155.574 61.111ZM42.8415 61.0964C42.8172 60.794 42.7957 60.4912 42.7773 60.1874L61.8844 59.0008C61.8964 59.1919 61.9101 59.3829 61.9257 59.574L42.8415 61.0964ZM134.599 44.4288C134.535 44.241 134.469 44.0532 134.402 43.8663L152.407 37.3625C152.508 37.6429 152.607 37.9242 152.704 38.206L134.599 44.4288ZM63.8196 44.4206L45.7099 38.211C45.8066 37.9292 45.9055 37.6489 46.0068 37.3694L64.0162 43.8612C63.9493 44.0472 63.8833 44.2337 63.8196 44.4206ZM126.796 31.3C126.667 31.1589 126.536 31.0182 126.404 30.8794L140.297 17.7075C140.506 17.9283 140.713 18.1505 140.918 18.3745L126.796 31.3ZM71.6272 31.2927L57.4909 18.3823C57.6907 18.1633 57.8932 17.9466 58.0966 17.7309L72.0317 30.8574C71.8957 31.0017 71.7605 31.1465 71.6272 31.2927ZM114.413 22.3635C114.233 22.2838 114.054 22.2046 113.873 22.1276L121.396 4.52365C121.668 4.64002 121.94 4.75868 122.211 4.87963L114.413 22.3635ZM84.0121 22.3603L76.1976 4.88329C76.4716 4.76143 76.7483 4.64048 77.0259 4.52182L84.5485 22.1258C84.3685 22.2023 84.1894 22.2806 84.0121 22.3603ZM99.5186 19.1451L99.1686 19.1442L98.9153 19.1451L98.7641 0.00183155L99.148 0L99.6446 0.00183155L99.5186 19.1451Z" fill="#3384BD"/>
<path d="M124.548 45.0274C124.311 44.8959 124.109 44.6906 123.983 44.4263C119.44 34.9186 109.704 28.7827 99.1787 28.7951C98.426 28.7942 97.8199 28.1885 97.8203 27.4395C97.8194 26.6899 98.426 26.0824 99.175 26.0811C110.743 26.0696 121.441 32.8116 126.432 43.2571C126.755 43.9333 126.469 44.7429 125.793 45.0658C125.38 45.2619 124.919 45.2331 124.548 45.0274Z" fill="white"/>
<path d="M127.352 57.4125C126.935 57.1811 126.653 56.7376 126.652 56.2273C126.651 55.1772 126.591 54.1253 126.474 53.1009C126.388 52.3564 126.923 51.6844 127.667 51.5987C128.409 51.5139 129.083 52.0481 129.169 52.7926C129.298 53.9178 129.364 55.0718 129.366 56.2236C129.367 56.9731 128.76 57.581 128.011 57.5824C127.772 57.5824 127.547 57.5206 127.352 57.4125Z" fill="white"/>
<path d="M87.5859 72.0501L87.6162 100.561L110.929 100.536L110.899 72.0254" fill="#3384BD"/>
<path d="M110.906 103.663L87.6403 103.688C86.762 103.689 86.0496 102.978 86.0487 102.1L86.0469 100.093C86.046 99.2151 86.757 98.5027 87.6352 98.5018L110.901 98.4775C111.779 98.4766 112.492 99.1876 112.492 100.066L112.495 102.072C112.495 102.949 111.784 103.662 110.906 103.663Z" fill="#15374F"/>
<path d="M110.918 114.034L87.6525 114.059C86.7742 114.06 86.0618 113.349 86.0609 112.471L86.0586 110.465C86.0577 109.587 86.7687 108.874 87.647 108.873L110.913 108.849C111.791 108.848 112.503 109.559 112.504 110.437L112.506 112.442C112.507 113.321 111.796 114.033 110.918 114.034Z" fill="#15374F"/>
<path d="M110.914 108.848L87.6486 108.873C86.7703 108.874 86.0579 108.163 86.057 107.285L86.0547 105.279C86.0538 104.401 86.7648 103.689 87.6426 103.688L110.909 103.663C111.787 103.662 112.499 104.373 112.5 105.251L112.502 107.257C112.503 108.135 111.792 108.847 110.914 108.848Z" fill="#15374F"/>
<path d="M99.2033 76.5032C110.223 76.5032 119.157 67.5699 119.157 56.55C119.157 45.5301 110.223 36.5967 99.2033 36.5967C88.1834 36.5967 79.25 45.5301 79.25 56.55C79.25 67.5699 88.1834 76.5032 99.2033 76.5032Z" stroke="white" stroke-width="8" stroke-miterlimit="10"/>
<path d="M84.2271 131.237L70.8824 131.438L70.8055 126.328C70.75 122.648 73.6981 119.61 77.377 119.554C81.0563 119.499 84.0947 122.447 84.1501 126.126L84.2271 131.237ZM72.9468 129.311L82.0999 129.173L82.0546 126.158C82.0166 123.635 79.9325 121.612 77.4091 121.65C74.8856 121.688 72.8634 123.773 72.9014 126.296L72.9468 129.311Z" fill="#1C4968"/>
<path d="M84.2693 128.973L70.7735 129.176C69.8362 129.19 69.0876 129.962 69.1018 130.899L69.2557 141.104C69.2699 142.042 70.0414 142.79 70.9788 142.776L84.4746 142.573C85.4119 142.558 86.1605 141.787 86.1463 140.85L85.9924 130.645C85.9782 129.707 85.2067 128.959 84.2693 128.973ZM78.2984 135.915L78.7836 139.149L76.5635 139.182L76.951 135.935C76.3216 135.681 75.8726 135.069 75.8621 134.348C75.8474 133.387 76.6143 132.597 77.5746 132.583C78.5348 132.568 79.3251 133.335 79.3398 134.296C79.3503 135.017 78.9201 135.642 78.2984 135.915Z" fill="#76ADD3"/>
<path d="M156.209 117.208C151.948 116.94 150.136 115.011 149.415 113.813C149.209 113.47 148.716 113.456 148.489 113.786C147.7 114.94 145.778 116.76 141.508 116.778C141.096 116.78 140.726 117.027 140.577 117.412C139.535 120.108 136.406 130.551 148.333 134.983C160.5 131.254 157.984 120.647 157.102 117.894C156.976 117.502 156.62 117.233 156.209 117.208Z" fill="#76ADD3"/>
<path d="M154.875 118.308C151.512 118.068 150.002 116.582 149.361 115.585C149.147 115.252 148.673 115.238 148.44 115.558C147.742 116.516 146.148 117.912 142.777 117.955C142.363 117.96 141.992 118.211 141.847 118.599C140.936 121.022 138.555 129.549 148.385 133.202C158.412 130.13 156.532 121.478 155.765 119.006C155.643 118.61 155.288 118.338 154.875 118.308Z" fill="white"/>
<path d="M153.053 120.625C152.709 120.337 152.196 120.382 151.908 120.726L147.568 125.906L145.289 124.502C144.96 124.299 144.522 124.354 144.255 124.653C143.954 124.988 143.983 125.503 144.318 125.804L147.126 128.319C147.155 128.345 147.192 128.374 147.225 128.397C147.702 128.732 148.36 128.616 148.694 128.139L148.723 128.098L153.196 121.715C153.434 121.373 153.377 120.898 153.053 120.625Z" fill="#76ADD3"/>
<path d="M153.924 159.322V157.315H152.27C152.189 157.026 152.077 156.752 151.933 156.498L153.102 155.329L151.683 153.909L150.514 155.078C150.258 154.935 149.984 154.822 149.696 154.741V153.087H147.689V154.741C147.401 154.822 147.127 154.935 146.872 155.078L145.703 153.909L144.284 155.329L145.452 156.498C145.309 156.753 145.196 157.027 145.115 157.315H143.461V159.322H145.115C145.196 159.61 145.309 159.884 145.452 160.139L144.284 161.308L145.703 162.727L146.872 161.558C147.127 161.702 147.401 161.814 147.689 161.895V163.549H149.696V161.895C149.984 161.814 150.258 161.701 150.514 161.558L151.683 162.727L153.102 161.308L151.933 160.139C152.077 159.884 152.189 159.61 152.27 159.322H153.924ZM148.693 160.35C147.571 160.35 146.661 159.44 146.661 158.318C146.661 157.196 147.57 156.286 148.693 156.286C149.815 156.286 150.725 157.195 150.725 158.318C150.724 159.44 149.815 160.35 148.693 160.35Z" fill="#76ADD3"/>
<path d="M143.451 168.035V166.028H141.797C141.716 165.74 141.604 165.466 141.46 165.211L142.629 164.042L141.21 162.623L140.04 163.791C139.785 163.647 139.511 163.535 139.223 163.454V161.8H137.216V163.454C136.928 163.535 136.654 163.647 136.399 163.791L135.23 162.623L133.811 164.042L134.98 165.211C134.836 165.466 134.723 165.74 134.643 166.028H132.988V168.035H134.643C134.723 168.323 134.836 168.597 134.98 168.852L133.811 170.022L135.23 171.441L136.399 170.272C136.654 170.416 136.928 170.528 137.216 170.609V172.263H139.223V170.609C139.511 170.528 139.785 170.416 140.04 170.272L141.21 171.441L142.629 170.022L141.46 168.852C141.604 168.597 141.716 168.323 141.797 168.035H143.451ZM138.22 169.063C137.098 169.063 136.188 168.153 136.188 167.031C136.188 165.909 137.097 164.999 138.22 164.999C139.342 164.999 140.252 165.909 140.252 167.031C140.252 168.154 139.342 169.063 138.22 169.063Z" fill="#76ADD3"/>
</svg>
