<svg id="ecN8Cl6M7Gk1" xmlns="http://www.w3.org/2000/svg" xmlns:xlink="http://www.w3.org/1999/xlink" viewBox="0 0 215 225" shape-rendering="geometricPrecision" text-rendering="geometricPrecision" project-id="53cc9854351e49209ddb5ccffefafc7c" export-id="7cca7e7160c8426e96a52443243191e5" cached="false">
<style><![CDATA[
#ecN8Cl6M7Gk7 {animation-name: ecN8Cl6M7Gk7_c_o, ecN8Cl6M7Gk7_s_do;animation-duration: 4000ms;animation-fill-mode: forwards;animation-timing-function: linear;animation-direction: normal;animation-iteration-count: infinite;}@keyframes ecN8Cl6M7Gk7_c_o { 0% {opacity: 1} 90% {opacity: 1} 97.5% {opacity: 0} 100% {opacity: 0}}@keyframes ecN8Cl6M7Gk7_s_do { 0% {stroke-dashoffset: 97.94} 75% {stroke-dashoffset: 0} 100% {stroke-dashoffset: 0}} #ecN8Cl6M7Gk8_to {animation: ecN8Cl6M7Gk8_to__to 4000ms linear infinite normal forwards}@keyframes ecN8Cl6M7Gk8_to__to { 0% {offset-distance: 0%} 8.25% {offset-distance: 10.996225%} 21% {offset-distance: 28.03011%} 28.75% {offset-distance: 38.302155%} 39.75% {offset-distance: 53.148224%} 45% {offset-distance: 60.15325%} 47.75% {offset-distance: 63.512932%} 52.5% {offset-distance: 70.009304%} 56.5% {offset-distance: 75.302423%} 58% {offset-distance: 77.254252%} 60.25% {offset-distance: 80.310234%} 63.25% {offset-distance: 84.389683%} 64.5% {offset-distance: 86.101414%} 66.5% {offset-distance: 88.724423%} 70.5% {offset-distance: 93.841595%} 72% {offset-distance: 95.972238%} 75% {offset-distance: 100%} 100% {offset-distance: 100%}} #ecN8Cl6M7Gk8 {animation: ecN8Cl6M7Gk8_c_o 4000ms linear infinite normal forwards}@keyframes ecN8Cl6M7Gk8_c_o { 0% {opacity: 1} 75% {opacity: 1} 82.5% {opacity: 0} 100% {opacity: 0}} #ecN8Cl6M7Gk42 {animation: ecN8Cl6M7Gk42_c_o 4000ms linear infinite normal forwards}@keyframes ecN8Cl6M7Gk42_c_o { 0% {opacity: 0} 25% {opacity: 0} 62.5% {opacity: 1} 90% {opacity: 1} 100% {opacity: 0.5}}
]]></style>
<path d="M196.352,86.5864c1.047,27.0406-.571,57.5626-15.187,80.8746-8.435,13.45-20.462,25.553-34.125,33.534L106.806,224.5L19.9512,173.76L57.913,149.271L196.347,86.5864h.005Z" fill="#8b9ba6"/><path d="M109.484,29.5782c-.896-.5231-2.032,0-2.233,1.0235-1.252,6.4525-5.36,26.608-11.0732,43.9273-2.8208,8.5446-7.0586,15.5923-9.8526,21.2241-5.227,10.5419-12.896,21.9859-23.1005,29.4759-18.7737,13.784-38.4921,24.561-45.2565,28.132-1.0517.554-1.0828,2.065-.0579,2.669l86.5517,50.795c.45.266,1.002.275,1.461.027c4.318-2.318,26.733-14.587,46.518-30.017c9.982-7.787,18.31-17.928,23.537-28.466c2.79-5.632,7.032-12.679,9.853-21.224c6.064-18.383,10.427-39.9636,11.403-44.9551.125-.6403-.165-1.2851-.722-1.6143L109.484,29.5782Z" transform="translate(.720932 0)" fill="#fff" stroke="#19374e" stroke-linecap="round" stroke-linejoin="round"/><path d="M144.366,66.611c-1.029-2.0291-3.297-3.4674-3.449-3.5576-1.818-1.0551-4.393-.1939-5.681,1.2039-4.046,4.3828-5.33,15.2135-1.324,19.8669c3.556,4.1393,7.692,2.8587,9.875-1.5962c2.197-4.5046,2.914-11.3178.584-15.917h-.005Zm-3.123,11.9445c-.254.6087-.82,1.736-1.302,2.259-1.515,1.6639-3.413.5772-4.295-1.0235-1.342-2.4439-.495-6.7095.432-9.221.405-1.0957,1.791-3.3908,3.338-2.9625.944.2615,1.755.992,2.21,1.7901c1.274,2.241.575,6.8493-.388,9.1579h.005Z" fill="#3272b9"/><path d="M131.894,63.7882c-.053.5591-.285,1.1498-.263,1.727-.124.1262-2.785-1.6143-3.097-1.8352l-.08-.1894c.027-.1804.111-.3247.111-.514-.035-1.2671-.476-2.3538-1.671-3.0572-1.978-1.1633-2.794,1.0506-2.339,2.5521.472,1.5512,1.68,2.2636,2.705,3.4269c2.165,2.453,2.972,4.8653,2.504,8.0577-.57,3.8598-3.07,6.5066-7.286,4.0537-3.088-1.7901-4.3-5.208-4.055-8.4545.054-.6989.263-1.4655.286-2.1734l3.15,1.7089c-.29,1.709.058,3.8012,1.805,4.7165c1.787.9334,2.834-.2705,2.736-1.9298-.129-2.1599-3.543-4.2701-4.595-6.3443-1.47-2.8858-1.403-7.0116,1.003-9.46c1.693-1.727,4.47-1.2941,6.194.1984c2.05,1.7766,3.146,4.9419,2.897,7.5121l-.005.0045Z" fill="#3272b9"/><path d="M120.561,51.8973l-5.173,21.6119-3.173-1.8172c-.076-.1172.307-1.8396.379-2.1327.753-3.1023,1.595-6.2225,2.335-9.3202.664-2.7776,1.172-5.5507,1.983-8.2065.174-.5592.187-1.3302.37-1.9299.035-.1037-.063-.1623.142-.1308.891.5546,2.054,1.0326,2.897,1.6278.115.0812.245.1443.236.2976h.004Z" fill="#3272b9"/><path id="ecN8Cl6M7Gk7" d="M72.0117,177.587c0,0,.8868,5.069,8.9078,4.171c8.0211-.897,14.3132-3.296,15.8639-4.676c1.5507-1.379,1.9072-5.099-6.0247-3.44s-10.8106,7.936-7.7091,9.014c3.1014,1.077,5.2715.987,6.7331.581s2.3931-1.434.0892-1.032c-2.3038.401-6.0693,1.884-2.6604,2.822c3.4134.943,4.4741.582,5.0979.402.6194-.181.0446-1.209-.9313-.627s-1.3725,1.885.2674,1.885s3.5024-.226,3.9436-.492c.4411-.266.4411-1.077-.664-.581-1.1096.491-1.8181,1.614-1.0204,1.749.7976.135,5.0086,0,5.0086,0c1.5507-.09,1.1547,1.254,1.1547,1.254.178,1.253,3.587.852,3.587.852" fill="none" stroke="#19374e" stroke-linecap="round" stroke-linejoin="round" stroke-dashoffset="97.94" stroke-dasharray="97.94"/><g id="ecN8Cl6M7Gk8_to" style="offset-path:path('M72.0117,177.587C72.0117,177.587,72.8985,182.656,80.9195,181.758C88.9406,180.861,95.2327,178.462,96.7834,177.082C98.3341,175.703,98.6906,171.983,90.7587,173.642C82.8268,175.301,79.9481,181.578,83.0496,182.656C86.151,183.733,88.3211,183.643,89.7827,183.237C91.2443,182.831,92.1758,181.803,89.8719,182.205C87.5681,182.606,83.8026,184.089,87.2115,185.027C90.6249,185.97,91.6856,185.609,92.3094,185.429C92.9288,185.248,92.354,184.22,91.3781,184.802C90.4022,185.384,90.0056,186.687,91.6455,186.687C93.2853,186.687,95.1479,186.461,95.5891,186.195C96.0302,185.929,96.0302,185.118,94.9251,185.614C93.8155,186.105,93.107,187.228,93.9047,187.363C94.7023,187.498,98.9133,187.363,98.9133,187.363C100.464,187.273,100.068,188.617,100.068,188.617C100.246,189.87,103.655,189.469,103.655,189.469');offset-rotate:0deg"><g id="ecN8Cl6M7Gk8" transform="translate(-103.68959,-189.522729)"><path d="M108.056,188.459l-1.483-2.773-2.612,2.543c-.196.19-.294.465-.267.735l.013.126c.018.176.121.334.272.424.218.131.486.158.726.077l3.351-1.136v.004Z" fill="#3272b9"/><path d="M122.356,185.253c-.187.063-.378.117-.57.167l-13.164,3.242c0,0-2.544-.492-1.969-3.644l9.714-10.33c.085-.086.165-.171.254-.257-.619,2.638.009,5.623,1.934,7.99c1.061,1.308,2.384,2.255,3.81,2.827l-.009.005Z" fill="none" stroke="#19374e" stroke-width="2" stroke-linecap="round" stroke-linejoin="round"/><path d="M129.442,181.186c.035.013.071.018.107.031l-2.179,1.281c-1.716-.51-3.338-1.56-4.595-3.103-1.84-2.268-2.495-5.108-2.001-7.66l2.055-1.218c-.464,2.525.196,5.325,2.014,7.566c1.257,1.542,2.879,2.593,4.594,3.103h.005Z" fill="none" stroke="#19374e" stroke-width="2" stroke-linecap="round" stroke-linejoin="round"/><path d="M134.336,178.129c.102.032.205.059.303.086l-1.181.699-1.128.662c-1.689-.518-3.275-1.555-4.514-3.075-1.84-2.268-2.495-5.109-2-7.661.008-.036.013-.063.022-.099l.405-.239l1.444-.852c-.401,2.475.272,5.194,2.045,7.381c1.257,1.542,2.879,2.593,4.595,3.102l.009-.004Z" fill="none" stroke="#19374e" stroke-width="2" stroke-linecap="round" stroke-linejoin="round"/><path d="M135.9,173.2c1.132,1.005,2.428,1.691,3.765,2.056l-.022.013-2.05,1.204-.196.118c-.071-.018-.143-.036-.214-.064-1.715-.509-3.338-1.56-4.594-3.102-1.796-2.214-2.464-4.973-2.032-7.476l.535-.315l1.778-1.051c-.094.451-.147.911-.161,1.375v.185c-.031,2.543,1.07,5.159,3.195,7.052l-.004.005Z" fill="none" stroke="#19374e" stroke-linecap="round" stroke-linejoin="round"/><path d="M127.37,182.498l-3.561,2.096c-.459.271-.949.492-1.452.659-1.422-.573-2.745-1.52-3.81-2.828-1.925-2.367-2.549-5.352-1.934-7.99.428-.415.904-.78,1.421-1.086l2.736-1.615c-.494,2.553.156,5.393,2.001,7.661c1.257,1.542,2.879,2.593,4.594,3.103h.005Z" fill="#3d84bb" stroke="#19374e" stroke-linecap="round" stroke-linejoin="round"/><path d="M132.335,179.571l-2.785,1.641c-.036-.014-.071-.018-.107-.032-1.716-.509-3.338-1.56-4.594-3.102-1.818-2.241-2.478-5.036-2.014-7.566l3.007-1.781c-.013.036-.013.063-.022.099-.495,2.552.161,5.393,2.001,7.661c1.239,1.52,2.83,2.557,4.514,3.075v.005Z" fill="#3d84bb" stroke="#19374e" stroke-width="2" stroke-linecap="round" stroke-linejoin="round"/><g transform="translate(.000001 0.000001)"><path d="M137.392,176.596l-2.749,1.614c-.103-.027-.205-.054-.303-.085-1.716-.51-3.338-1.561-4.595-3.103-1.773-2.187-2.446-4.906-2.045-7.381l2.861-1.686c-.432,2.502.232,5.262,2.032,7.476c1.256,1.542,2.879,2.592,4.594,3.102.071.022.143.04.214.063h-.009Z" fill="#3d84bb" stroke="#19374e" stroke-width="2" stroke-linecap="round" stroke-linejoin="round"/><g transform="translate(.000001 0.000001)"><path d="M186.811,147.494l-36.919,21.738-2.545,1.497-2.865,1.686-1.836,1.082-2.986,1.759c-1.336-.365-2.633-1.051-3.765-2.056-2.126-1.894-3.226-4.509-3.195-7.053v-.184c.013-.465.067-.925.16-1.376l.388-.23l2.781-1.641l2.29-1.357l2.745-1.623l2.054-1.218l34.09-20.151c.058,2.444,1.149,4.933,3.19,6.75c1.489,1.317,3.253,2.088,5.027,2.313.076.014.151.018.223.027.383.037.771.05,1.154.037h.009Z" fill="#3d84bb" stroke="#19374e" stroke-linecap="round" stroke-linejoin="round"/><g><path d="M205.398,121.702l-28.68,14.966c-4.545,4.802.237,11.169.237,11.169c4.282,4.152,7.406,3.697,7.406,3.697l26.857-18.645-5.82-11.182v-.005Z" fill="#3d84bb" stroke="#19374e" stroke-linecap="round" stroke-linejoin="round"/><path d="M173.001,146.416l24.081-15.2c.887-.559,2.059-.279,2.602.627l.892,1.483c.574.952.218,2.196-.767,2.697L174.36,148.865c-.338.171-.753.045-.94-.289l-.664-1.181c-.192-.339-.08-.767.245-.974v-.005Z" fill="#e7ebee" stroke="#19374e" stroke-linecap="round" stroke-linejoin="round"/><path d="M211.293,132.993c1.77-.943,1.902-4.213.295-7.302-1.608-3.089-4.346-4.829-6.117-3.885-1.77.943-1.902,4.212-.295,7.301c1.608,3.09,4.346,4.829,6.117,3.886Z" fill="#e7ebee" stroke="#19374e" stroke-linecap="round" stroke-linejoin="round"/></g></g></g></g></g><path d="M55.0391,144.266l22.6238,13.216" fill="none" stroke="#19374e" stroke-linecap="round" stroke-linejoin="round"/><path d="M50.5879,146.858l22.6238,13.216" fill="none" stroke="#19374e" stroke-linecap="round" stroke-linejoin="round"/><path d="M112.863,146.628l24.986,14.596" fill="none" stroke="#19374e" stroke-linecap="round" stroke-linejoin="round"/><path d="M80.0957,127.492l27.5973,16.12" fill="none" stroke="#19374e" stroke-linecap="round" stroke-linejoin="round"/><path d="M71.2461,135.549l27.5923,16.12" fill="none" stroke="#19374e" stroke-linecap="round" stroke-linejoin="round"/><path d="M104.008,154.691l22.583,13.189" fill="none" stroke="#19374e" stroke-width="2" stroke-linecap="round" stroke-linejoin="round"/><path d="M75.7344,131.519l13.8007,8.062" fill="none" stroke="#19374e" stroke-width="2" stroke-linecap="round" stroke-linejoin="round"/><path d="M95.0957,142.832l13.8003,8.058" fill="none" stroke="#19374e" stroke-width="2" stroke-linecap="round" stroke-linejoin="round"/><path d="M116.783,155.498l15.552,9.085" fill="none" stroke="#19374e" stroke-linecap="round" stroke-linejoin="round"/><path d="M61.3758,10.072l-.0401-.027c-.0846-.04962-.1649-.10374-.2451-.15334-.0802-.04509-.1649-.0947-.2451-.1443-1.8805-1.06864-3.9392-1.67285-6.1227-1.85321C43.5691,6.96979,29.3006,17.2144,20.112,33.7897c-8.1458,14.695-10.0174,30.2377-5.744,39.9547.3476.7981.7398,1.5556,1.1765,2.2726c1.2121,2.0065,2.7538,3.6794,4.6165,4.9194l.5259.3381c.1248.0812.2495.1579.3742.23.4457.2525.9047.4825,1.3681.6854c4.9196,2.1328,10.8774,1.4158,16.9155-1.5872.3386-.1668.6773-.3427,1.016-.523c1.8493-1.0011,3.703-2.205,5.5255-3.6073c5.8688-4.5091,11.4747-11.0247,15.9041-19.0147.3119-.5636.6148-1.1318.9089-1.6954c9.8748-19.0147,9.3401-39.0124-1.3323-45.6903h.0089ZM56.0062,54.4908C46.9825,70.7639,32.8655,80.0977,24.4701,75.3316c-8.3953-4.7616-7.8874-21.8193,1.1363-38.097c9.0236-16.2732,23.1407-25.607,31.536-20.8409c8.3954,4.7616,7.8875,21.8194-1.1362,38.0971Z" fill="#fff" stroke="#19374e" stroke-linecap="round" stroke-linejoin="round"/><path d="M56.0068,54.4903c-9.0236,16.2732-23.1407,25.6069-31.536,20.8408-8.3954-4.7615-7.8875-21.8193,1.1362-38.097c9.0237-16.2732,23.1407-25.6069,31.5361-20.8409c8.3953,4.7616,7.8874,21.8194-1.1363,38.0971Z" fill="#fff" stroke="#19374e" stroke-linecap="round" stroke-linejoin="round"/><path d="M61.0906,9.8957c-.0802-.04509-.1649-.09469-.2451-.14429-1.8805-1.06864-3.9392-1.67285-6.1227-1.85321-11.1537-.92436-25.4222,9.3202-34.6108,25.8955-8.1458,14.695-10.0174,30.2377-5.744,39.9548.3476.7981.7398,1.5556,1.1765,2.2725c1.212,2.0066,2.7538,3.6794,4.6165,4.9194l-7.513-4.8066-2.3618-1.5106h-.0044L7.37189,72.7565c-9.46928-7.8097-9.19748-27.7307,1.09619-46.2945C19.4525,6.64467,37.6915,-4.12294,49.2017,2.41068l1.0694.67636h.0045L61.0861,9.89119l.0045.00451Z" fill="#e7ebee" stroke="#19374e" stroke-linecap="round" stroke-linejoin="round"/><path d="M20.8345,81.3779l-.147-.0947" fill="none" stroke="#f00" stroke-linecap="round" stroke-linejoin="round"/><path d="M7.37191,72.7611l-.0223-.0135" fill="none" stroke="#f00" stroke-linecap="round" stroke-linejoin="round"/><path d="M22.4337,82.1947L15.0142,113.51L4.91211,108.311L12.648,76.1436l7.513,4.8066.5259.3382c.1248.0812.2495.1578.3742.2299.4456.2525.9047.4825,1.3681.6854l.0045-.009Z" fill="#3d84bb" stroke="#19374e" stroke-linecap="round" stroke-linejoin="round"/><path d="M40.3651,80.0791l-.4456,2.1869-5.6949,27.956-7.0363-11.3176L15.0098,113.509l7.4194-31.3152c4.9196,2.1328,10.8774,1.4159,16.9155-1.5871.3386-.1669.6773-.3428,1.016-.5231l.0044-.0045Z" fill="#e7ebee" stroke="#19374e" stroke-linecap="round" stroke-linejoin="round"/><path d="M56.6883,104.834L45.9535,99.8154L39.9199,82.2707l.4456-2.1869c1.8493-1.001,3.703-2.2049,5.5256-3.6072L56.6883,104.839v-.005Z" fill="#3d84bb" stroke="#19374e" stroke-linecap="round" stroke-linejoin="round"/><path d="M75.5457,84.0249h-14.0502L56.6917,104.839L45.8945,76.4767c5.8688-4.5091,11.4747-11.0246,15.9041-19.0147.3119-.5636.6148-1.1318.9089-1.6954L75.5457,84.0249Z" fill="#e7ebee" stroke="#19374e" stroke-linecap="round" stroke-linejoin="round"/><path id="ecN8Cl6M7Gk42" d="M30.8285,46.505l9.0771,13.3964L52.5833,29.7403c.1693-.4058-.1871-.5276-.401-.1353L40.1909,51.3657L31.234,45.9098c-.2094-.1263-.5525.3742-.4055.5952Z" opacity="0" fill="#3d84bb"/><path d="M133.868,95.0276c-.174-1.9614-1.497-4.3467-3.498-3.9905-2.019.3607-3.168,4.0221-3.52,6.0016-.433,2.4213-.268,5.6993,2.125,6.7003c3.489,1.457,5.129-5.9924,4.889-8.7114h.004Zm-4.011,6.6014c-.851.261-1.394-.812-1.488-1.628-.178-1.524.682-5.0906,1.662-6.1908c1.252-1.4204,2.184.1893,2.188,1.6908.005,1.4475-.971,5.7-2.362,6.128Z" fill="#3272b9"/><path d="M124.894,93.8332c-.063.0947.369.5005.45.6178c1.595,2.3447.026,6.281-2.839,5.235-1.996-.7305-3.226-3.3413-2.495-5.5868l1.582.983c-.647,1.6999,1.907,3.6839,2.566,1.5962.468-1.4744-.432-2.5251-1.573-3.0391l-.053-.1262.463-1.727c.388.1037.7.5095,1.096.5952c1.547.3291,1.912-2.2726.785-3.0887-.749-.5411-1.422-.2706-1.769.6132l-1.493-.9063c.936-3.5486,4.701-2.3132,5.432.762.414,1.7495-.089,4.5181-2.148,4.0807l-.004-.009Z" fill="#3272b9"/><path d="M109.181,88.9944l3.169,1.8893c.058.0992-.379,1.7134-.473,1.9073-.031.0676-.044.1443-.133.1218l-5.361-3.445.499-1.6458c1.368-.9378,2.945-1.6052,4.3-2.5476.459-.3201.972-.7305,1.217-1.2941.387-.8928.312-2.2184-.504-2.7776-.927-.6357-1.457.1714-1.818,1.0371l-1.457-.9469c.904-3.9589,4.919-2.7595,5.61.7034.432,2.1869-.486,3.8553-2.05,4.9915-.833.6043-2.197,1.1589-2.896,1.8082-.072.0631-.129.0766-.103.2074v-.009Z" fill="#3272b9"/><path d="M115.535,92.8269l3.218,2.0967c.044.0947-.401,1.6548-.49,1.8757-.032.0767.022.1173-.098.0812l-5.37-3.3096.503-1.7811c1.333-.9109,2.848-1.5647,4.176-2.4755.677-.4644,1.279-.9334,1.479-1.8577.223-1.0101-.129-2.3267-1.163-2.489-.695-.1128-1.042.6448-1.301,1.2445l-1.462-.8793c.442-2.3267,2.411-3.3638,4.18-1.8307c1.359,1.1814,1.814,3.1474,1.266,4.969-.709,2.3583-3.24,3.1699-4.951,4.3558h.013Z" fill="#3272b9"/><path d="M138.997,95.9649l-3.32,11.7911-1.457-.915-.013-.158l2.651-9.5232-2.281.7801c-.071-.0767.486-1.975.561-2.1103.174-.2931,1.783-.6267,2.157-.8477l1.702.983Z" fill="#3272b9"/></svg>
