<svg width="175" height="225" viewBox="0 0 175 225" fill="none" xmlns="http://www.w3.org/2000/svg">
<g style="mix-blend-mode:multiply" opacity="0.2">
<path d="M174 185.54L105.695 225L37.3955 185.54L48.4586 179.151L103.815 211.13L105.636 210.326L107.625 211.103L162.936 179.151L174 185.54Z" fill="#15374F"/>
</g>
<path d="M39.1848 102.04L103.956 64.6252C105.014 64.0162 106.317 64.0162 107.376 64.6252L172.147 102.04C172.955 102.508 172.955 103.676 172.147 104.144L106.554 142.04C106.004 142.359 105.332 142.359 104.782 142.04L39.1893 104.144C38.3809 103.676 38.3809 102.508 39.1893 102.04H39.1848Z" stroke="black" stroke-width="2" stroke-linecap="round" stroke-linejoin="round"/>
<path d="M58.3142 99.067L103.343 73.0544C104.778 72.2228 106.55 72.2228 107.989 73.0544L153.018 99.067C156.116 100.858 156.116 105.329 153.018 107.115L107.989 133.128C106.554 133.96 104.783 133.96 103.343 133.128L58.3142 107.115C55.2169 105.325 55.2169 100.853 58.3142 99.067Z" fill="#E7EBEE"/>
<path d="M105.663 143.899V209.758C105.663 210.748 106.73 211.371 107.593 210.88L172.796 173.643C173.522 173.229 173.972 172.452 173.972 171.616V104.898C173.972 104.099 173.1 103.594 172.405 103.999L106.83 141.881C106.108 142.299 105.663 143.068 105.663 143.904V143.899Z" stroke="black" stroke-linecap="round" stroke-linejoin="round"/>
<path d="M105.668 143.58V209.848C105.668 210.798 104.641 211.393 103.815 210.925L37.9855 173.329C37.5994 173.106 37.3633 172.697 37.3633 172.252V105.239C37.3633 104.284 38.3987 103.689 39.2253 104.166L104.782 142.04C105.331 142.358 105.672 142.944 105.672 143.58H105.668Z" stroke="black" stroke-linecap="round" stroke-linejoin="round"/>
<path d="M105.663 167.585L173.958 128.111" stroke="black" stroke-linecap="round" stroke-linejoin="round"/>
<path d="M105.699 190.316L173.958 150.879" stroke="black" stroke-linecap="round" stroke-linejoin="round"/>
<path d="M37.3633 128.129L105.645 167.571" stroke="black" stroke-linecap="round" stroke-linejoin="round"/>
<path d="M37.3594 150.838L85.9898 178.932L105.664 190.298H105.668L105.7 190.316" stroke="black" stroke-linecap="round" stroke-linejoin="round"/>
<path d="M97.7705 151.82L66.7656 133.906" stroke="black" stroke-linecap="round" stroke-linejoin="round"/>
<path d="M97.7705 174.629L66.7656 156.714" stroke="black" stroke-linecap="round" stroke-linejoin="round"/>
<path d="M97.7705 197.779L66.7656 179.864" stroke="black" stroke-linecap="round" stroke-linejoin="round"/>
<path d="M49.1445 126.541C50.3305 125.856 50.3058 123.592 49.0893 121.483C47.8728 119.375 45.9252 118.221 44.7392 118.906C43.5532 119.592 43.578 121.856 44.7944 123.965C46.0109 126.073 47.9585 127.227 49.1445 126.541Z" stroke="black" stroke-linecap="round" stroke-linejoin="round"/>
<path d="M59.7334 154.359C60.9194 153.674 60.8947 151.409 59.6782 149.301C58.4617 147.192 56.5141 146.039 55.3281 146.724C54.1421 147.409 54.1668 149.674 55.3833 151.782C56.5998 153.89 58.5474 155.044 59.7334 154.359Z" stroke="black" stroke-linecap="round" stroke-linejoin="round"/>
<path d="M59.7334 177.178C60.9194 176.493 60.8947 174.228 59.6782 172.119C58.4617 170.011 56.5141 168.857 55.3281 169.543C54.1421 170.228 54.1668 172.492 55.3833 174.601C56.5998 176.709 58.5474 177.863 59.7334 177.178Z" stroke="black" stroke-linecap="round" stroke-linejoin="round"/>
<path d="M60.0404 132.184C61.3502 131.427 61.2886 128.866 59.9028 126.465C58.517 124.063 56.3318 122.729 55.022 123.486C53.7122 124.243 53.7738 126.803 55.1596 129.205C56.5454 131.607 58.7305 132.94 60.0404 132.184Z" fill="#3272B9"/>
<path d="M49.4515 172.864C50.7614 172.107 50.6998 169.546 49.314 167.145C47.9282 164.743 45.743 163.409 44.4332 164.166C43.1234 164.923 43.1849 167.483 44.5707 169.885C45.9565 172.287 48.1417 173.62 49.4515 172.864Z" fill="#3272B9"/>
<path d="M49.1445 149.165C50.3305 148.479 50.3058 146.215 49.0893 144.106C47.8728 141.998 45.9252 140.844 44.7392 141.529C43.5532 142.215 43.578 144.479 44.7944 146.588C46.0109 148.696 47.9585 149.85 49.1445 149.165Z" stroke="black" stroke-linecap="round" stroke-linejoin="round"/>
<path d="M107.239 87.4427H107.212C107.212 87.4427 107.198 87.4427 107.189 87.4427C107.189 87.4427 107.176 87.4427 107.167 87.4427C107.167 87.4427 107.153 87.4427 107.144 87.4427C107.144 87.4427 107.13 87.4427 107.121 87.4427C107.121 87.4427 107.107 87.4427 107.098 87.4427C107.089 87.4427 107.085 87.4427 107.076 87.4427C107.076 87.4427 107.062 87.4427 107.053 87.4427H107.03C107.021 87.4427 107.017 87.4427 107.008 87.4427C107.008 87.4427 106.994 87.4427 106.985 87.4427C106.985 87.4427 106.971 87.4427 106.962 87.4427C106.953 87.4427 106.949 87.4427 106.939 87.4427C106.939 87.4427 106.926 87.4427 106.917 87.4427C106.917 87.4427 106.903 87.4427 106.894 87.4427C106.894 87.4427 106.88 87.4427 106.871 87.4427C106.862 87.4427 106.858 87.4427 106.849 87.4427C106.84 87.4427 106.835 87.4427 106.826 87.4427C106.817 87.4427 106.812 87.4427 106.803 87.4427C106.794 87.4427 106.79 87.4427 106.78 87.4427C106.771 87.4427 106.767 87.4427 106.758 87.4427C106.749 87.4427 106.744 87.4427 106.735 87.4427C106.726 87.4427 106.721 87.4427 106.712 87.4427C106.703 87.4427 106.699 87.4427 106.69 87.4427C106.681 87.4427 106.676 87.4427 106.667 87.4427C106.658 87.4427 106.653 87.4427 106.644 87.4427C106.644 87.4427 106.631 87.4427 106.622 87.4427C106.612 87.4427 106.608 87.4427 106.599 87.4427C106.59 87.4427 106.585 87.4427 106.576 87.4427C106.576 87.4427 106.562 87.4427 106.553 87.4427C106.544 87.4427 106.54 87.4427 106.531 87.4427C106.522 87.4427 106.517 87.4427 106.508 87.4427C106.499 87.4427 106.494 87.4427 106.485 87.4427C106.485 87.4427 106.472 87.4427 106.463 87.4427C106.453 87.4427 106.449 87.4427 106.44 87.4427C106.431 87.4427 106.426 87.4427 106.417 87.4427H106.394C106.385 87.4427 106.381 87.4427 106.376 87.4427C106.367 87.4427 106.363 87.4427 106.354 87.4427C106.344 87.4427 106.34 87.4427 106.331 87.4427C106.322 87.4427 106.317 87.4427 106.313 87.4427C106.304 87.4427 106.299 87.4427 106.29 87.4427C106.281 87.4427 106.276 87.4427 106.267 87.4427C106.258 87.4427 106.254 87.4427 106.249 87.4427C106.24 87.4427 106.236 87.4427 106.226 87.4427C106.226 87.4427 106.213 87.4427 106.204 87.4427C106.195 87.4427 106.19 87.4427 106.186 87.4427C106.176 87.4427 106.172 87.4427 106.167 87.4427C106.158 87.4427 106.154 87.4427 106.145 87.4427C106.14 87.4427 106.131 87.4427 106.126 87.4427C106.117 87.4427 106.113 87.4427 106.104 87.4427C106.095 87.4427 106.09 87.4427 106.081 87.4427C106.072 87.4427 106.067 87.4427 106.058 87.4427C106.054 87.4427 106.045 87.4427 106.04 87.4427C106.031 87.4427 106.027 87.4427 106.017 87.4427H105.995C105.986 87.4427 105.981 87.4427 105.977 87.4427C105.968 87.4427 105.963 87.4427 105.954 87.4427C105.945 87.4427 105.94 87.4427 105.931 87.4427C105.927 87.4427 105.918 87.4427 105.913 87.4427C105.908 87.4427 105.899 87.4427 105.895 87.4427C105.886 87.4427 105.881 87.4427 105.872 87.4427C105.868 87.4427 105.859 87.4427 105.854 87.4427C105.849 87.4427 105.84 87.4427 105.836 87.4427C105.827 87.4427 105.822 87.4427 105.813 87.4427C105.809 87.4427 105.799 87.4427 105.795 87.4427C105.795 87.4427 105.795 87.4427 105.79 87.4427C105.786 87.4427 105.777 87.4427 105.772 87.4427C105.768 87.4427 105.759 87.4427 105.754 87.4427C105.754 87.4427 105.754 87.4427 105.75 87.4427C105.745 87.4427 105.736 87.4427 105.731 87.4427C105.727 87.4427 105.718 87.4427 105.713 87.4427C105.709 87.4427 105.7 87.4427 105.695 87.4427C105.691 87.4427 105.681 87.4427 105.677 87.4427C105.677 87.4427 105.677 87.4427 105.672 87.4427C105.668 87.4427 105.659 87.4427 105.654 87.4427C105.65 87.4427 105.641 87.4427 105.636 87.4427C105.636 87.4427 105.636 87.4427 105.631 87.4427C105.627 87.4427 105.618 87.4427 105.613 87.4427C105.609 87.4427 105.6 87.4427 105.595 87.4427C105.591 87.4427 105.582 87.4427 105.577 87.4427C105.568 87.4427 105.563 87.4427 105.554 87.4427C105.55 87.4427 105.541 87.4427 105.536 87.4427C105.536 87.4427 105.536 87.4427 105.532 87.4427C105.527 87.4427 105.518 87.4427 105.513 87.4427C105.513 87.4427 105.513 87.4427 105.509 87.4427C105.5 87.4427 105.495 87.4427 105.486 87.4427C105.482 87.4427 105.473 87.4427 105.468 87.4427C105.468 87.4427 105.468 87.4427 105.463 87.4427C105.459 87.4427 105.45 87.4427 105.445 87.4427C105.441 87.4427 105.432 87.4427 105.423 87.4427C105.418 87.4427 105.409 87.4427 105.404 87.4427C105.4 87.4427 105.391 87.4427 105.386 87.4427C105.382 87.4427 105.373 87.4427 105.368 87.4427C105.364 87.4427 105.354 87.4427 105.35 87.4427C105.35 87.4427 105.35 87.4427 105.345 87.4427C105.341 87.4427 105.332 87.4427 105.327 87.4427C105.327 87.4427 105.327 87.4427 105.323 87.4427C105.318 87.4427 105.309 87.4427 105.304 87.4427C105.295 87.4427 105.291 87.4427 105.282 87.4427C105.277 87.4427 105.268 87.4427 105.264 87.4427C105.264 87.4427 105.264 87.4427 105.259 87.4427C105.255 87.4427 105.245 87.4427 105.241 87.4427C105.241 87.4427 105.241 87.4427 105.236 87.4427C105.232 87.4427 105.223 87.4427 105.218 87.4427C105.218 87.4427 105.218 87.4427 105.214 87.4427C105.209 87.4427 105.2 87.4427 105.196 87.4427C105.196 87.4427 105.195 87.4427 105.191 87.4427C105.186 87.4427 105.182 87.4427 105.173 87.4427H105.168C105.164 87.4427 105.155 87.4427 105.15 87.4427C105.15 87.4427 105.15 87.4427 105.146 87.4427C105.141 87.4427 105.132 87.4427 105.127 87.4427C105.127 87.4427 105.127 87.4427 105.123 87.4427C105.118 87.4427 105.114 87.4427 105.105 87.4427C105.105 87.4427 105.105 87.4427 105.1 87.4427C105.096 87.4427 105.087 87.4427 105.082 87.4427C105.082 87.4427 105.077 87.4427 105.073 87.4427C105.068 87.4427 105.059 87.4427 105.055 87.4427C105.055 87.4427 105.055 87.4427 105.05 87.4427C105.046 87.4427 105.041 87.4427 105.032 87.4427C105.032 87.4427 105.032 87.4427 105.027 87.4427C105.023 87.4427 105.014 87.4427 105.009 87.4427C105.009 87.4427 105.005 87.4427 105 87.4427C104.996 87.4427 104.987 87.4427 104.982 87.4427C104.982 87.4427 104.982 87.4427 104.978 87.4427C104.973 87.4427 104.968 87.4427 104.959 87.4427H104.955C104.95 87.4427 104.941 87.4427 104.937 87.4427C104.937 87.4427 104.937 87.4427 104.932 87.4427C104.928 87.4427 104.918 87.4427 104.914 87.4427C104.914 87.4427 104.914 87.4427 104.909 87.4427C104.905 87.4427 104.896 87.4427 104.891 87.4427H104.887C104.882 87.4427 104.878 87.4427 104.868 87.4427C104.868 87.4427 104.869 87.4427 104.864 87.4427C104.859 87.4427 104.85 87.4427 104.846 87.4427C104.846 87.4427 104.841 87.4427 104.837 87.4427C104.832 87.4427 104.823 87.4427 104.819 87.4427C104.819 87.4427 104.819 87.4427 104.814 87.4427C104.809 87.4427 104.805 87.4427 104.796 87.4427C104.796 87.4427 104.791 87.4427 104.787 87.4427C104.782 87.4427 104.778 87.4427 104.769 87.4427C104.769 87.4427 104.764 87.4427 104.759 87.4427C104.755 87.4427 104.75 87.4427 104.741 87.4427C104.741 87.4427 104.737 87.4427 104.732 87.4427C104.728 87.4427 104.723 87.4427 104.714 87.4427C104.714 87.4427 104.714 87.4427 104.705 87.4427C104.7 87.4427 104.696 87.4427 104.687 87.4427C104.687 87.4427 104.682 87.4427 104.678 87.4427C104.673 87.4427 104.669 87.4427 104.66 87.4427C104.66 87.4427 104.66 87.4427 104.65 87.4427C104.646 87.4427 104.641 87.4427 104.632 87.4427C104.632 87.4427 104.632 87.4427 104.628 87.4427C104.623 87.4427 104.619 87.4427 104.614 87.4427C104.614 87.4427 104.61 87.4427 104.605 87.4427C104.605 87.4427 104.596 87.4427 104.591 87.4427C104.591 87.4427 104.587 87.4427 104.582 87.4427C104.578 87.4427 104.573 87.4427 104.569 87.4427C104.569 87.4427 104.564 87.4427 104.56 87.4427C104.555 87.4427 104.551 87.4427 104.546 87.4427C104.546 87.4427 104.541 87.4427 104.537 87.4427C104.532 87.4427 104.528 87.4427 104.523 87.4427C104.523 87.4427 104.519 87.4427 104.514 87.4427C104.51 87.4427 104.505 87.4427 104.501 87.4427C104.501 87.4427 104.496 87.4427 104.492 87.4427C104.487 87.4427 104.482 87.4427 104.478 87.4427C104.478 87.4427 104.473 87.4427 104.469 87.4427C104.469 87.4427 104.46 87.4427 104.455 87.4427C104.455 87.4427 104.446 87.4427 104.442 87.4427C104.442 87.4427 104.432 87.4427 104.428 87.4427C104.428 87.4427 104.423 87.4427 104.419 87.4427C104.419 87.4427 104.41 87.4427 104.405 87.4427H104.396C104.396 87.4427 104.387 87.4427 104.383 87.4427C104.383 87.4427 104.373 87.4427 104.369 87.4427C104.369 87.4427 104.36 87.4427 104.355 87.4427H104.346C104.346 87.4427 104.337 87.4427 104.333 87.4427H104.324C104.324 87.4427 104.314 87.4427 104.31 87.4427C104.31 87.4427 104.301 87.4427 104.296 87.4427C104.296 87.4427 104.287 87.4427 104.283 87.4427H104.274C104.269 87.4427 104.264 87.4427 104.26 87.4427C104.26 87.4427 104.255 87.4427 104.251 87.4427C104.251 87.4427 104.242 87.4427 104.237 87.4427C104.237 87.4427 104.228 87.4427 104.224 87.4427H104.215C104.215 87.4427 104.205 87.4427 104.201 87.4427C104.201 87.4427 104.192 87.4427 104.187 87.4427C104.187 87.4427 104.183 87.4427 104.178 87.4427C104.174 87.4427 104.169 87.4427 104.165 87.4427C104.165 87.4427 104.16 87.4427 104.155 87.4427C104.155 87.4427 104.146 87.4427 104.142 87.4427C104.142 87.4427 104.137 87.4427 104.133 87.4427C104.128 87.4427 104.124 87.4427 104.119 87.4427C104.119 87.4427 104.115 87.4427 104.11 87.4427C104.106 87.4427 104.101 87.4427 104.096 87.4427H104.087C104.087 87.4427 104.078 87.4427 104.074 87.4427C104.074 87.4427 104.065 87.4427 104.06 87.4427H104.051C104.051 87.4427 104.042 87.4427 104.037 87.4427C104.037 87.4427 104.028 87.4427 104.024 87.4427C104.024 87.4427 104.015 87.4427 104.01 87.4427C104.01 87.4427 104.006 87.4427 104.001 87.4427C104.001 87.4427 103.992 87.4427 103.987 87.4427H103.978C103.978 87.4427 103.969 87.4427 103.965 87.4427C103.965 87.4427 103.956 87.4427 103.951 87.4427H103.942C103.942 87.4427 103.933 87.4427 103.928 87.4427C103.924 87.4427 103.919 87.4427 103.915 87.4427C103.915 87.4427 103.91 87.4427 103.906 87.4427C103.906 87.4427 103.897 87.4427 103.892 87.4427C103.892 87.4427 103.883 87.4427 103.878 87.4427H103.869C103.869 87.4427 103.86 87.4427 103.856 87.4427C103.856 87.4427 103.847 87.4427 103.842 87.4427C103.842 87.4427 103.838 87.4427 103.833 87.4427C103.833 87.4427 103.824 87.4427 103.819 87.4427C103.819 87.4427 103.81 87.4427 103.806 87.4427C103.806 87.4427 103.801 87.4427 103.797 87.4427C103.797 87.4427 103.788 87.4427 103.783 87.4427C103.783 87.4427 103.774 87.4427 103.769 87.4427C103.769 87.4427 103.765 87.4427 103.76 87.4427C103.76 87.4427 103.751 87.4427 103.747 87.4427C103.747 87.4427 103.742 87.4427 103.738 87.4427C103.733 87.4427 103.729 87.4427 103.724 87.4427C103.724 87.4427 103.715 87.4427 103.71 87.4427C103.706 87.4427 103.701 87.4427 103.697 87.4427C103.697 87.4427 103.692 87.4427 103.688 87.4427C103.683 87.4427 103.679 87.4427 103.674 87.4427C103.674 87.4427 103.67 87.4427 103.665 87.4427C103.66 87.4427 103.656 87.4427 103.651 87.4427H103.642C103.638 87.4427 103.633 87.4427 103.629 87.4427C103.629 87.4427 103.624 87.4427 103.62 87.4427C103.615 87.4427 103.611 87.4427 103.606 87.4427C103.606 87.4427 103.601 87.4427 103.597 87.4427C103.592 87.4427 103.588 87.4427 103.583 87.4427C103.583 87.4427 103.574 87.4427 103.57 87.4427C103.57 87.4427 103.561 87.4427 103.556 87.4427C103.556 87.4427 103.551 87.4427 103.547 87.4427C103.547 87.4427 103.538 87.4427 103.533 87.4427C103.533 87.4427 103.529 87.4427 103.524 87.4427C103.524 87.4427 103.515 87.4427 103.511 87.4427H103.502H103.492C103.492 87.4427 103.483 87.4427 103.479 87.4427C103.479 87.4427 103.47 87.4427 103.465 87.4427C103.465 87.4427 103.461 87.4427 103.456 87.4427C103.452 87.4427 103.447 87.4427 103.442 87.4427C103.442 87.4427 103.438 87.4427 103.433 87.4427C103.429 87.4427 103.424 87.4427 103.42 87.4427C103.42 87.4427 103.411 87.4427 103.406 87.4427C103.406 87.4427 103.397 87.4427 103.392 87.4427C103.392 87.4427 103.388 87.4427 103.383 87.4427C103.379 87.4427 103.374 87.4427 103.37 87.4427C103.37 87.4427 103.37 87.4427 103.365 87.4427C103.361 87.4427 103.356 87.4427 103.347 87.4427H103.338C103.333 87.4427 103.329 87.4427 103.324 87.4427C103.324 87.4427 103.324 87.4427 103.32 87.4427C103.315 87.4427 103.306 87.4427 103.302 87.4427C103.302 87.4427 103.302 87.4427 103.297 87.4427C103.293 87.4427 103.288 87.4427 103.279 87.4427C103.27 87.4427 103.261 87.4427 103.252 87.4427C103.252 87.4427 103.252 87.4427 103.247 87.4427C103.243 87.4427 103.238 87.4427 103.229 87.4427C103.224 87.4427 103.215 87.4427 103.211 87.4427C103.202 87.4427 103.193 87.4427 103.188 87.4427C103.184 87.4427 103.174 87.4427 103.17 87.4427C103.165 87.4427 103.156 87.4427 103.152 87.4427C103.143 87.4427 103.134 87.4427 103.125 87.4427C103.12 87.4427 103.111 87.4427 103.106 87.4427C103.102 87.4427 103.093 87.4427 103.088 87.4427C103.075 87.4427 103.056 87.4427 103.043 87.4473C103.038 87.4473 103.029 87.4473 103.025 87.4473C103.006 87.4473 102.993 87.4473 102.975 87.4518C102.97 87.4518 102.961 87.4518 102.957 87.4518C102.934 87.4518 102.911 87.4563 102.888 87.4609C102.884 87.4609 102.875 87.4609 102.87 87.4609C102.852 87.4609 102.838 87.4609 102.82 87.4654C102.816 87.4654 102.807 87.4654 102.802 87.4654C102.784 87.4654 102.77 87.4654 102.752 87.47C102.748 87.47 102.739 87.47 102.734 87.47C102.716 87.47 102.702 87.47 102.684 87.4745C102.679 87.4745 102.67 87.4745 102.666 87.4745C102.648 87.4745 102.634 87.4745 102.616 87.4791C102.616 87.4791 102.602 87.4791 102.598 87.4791C102.575 87.4791 102.552 87.4836 102.53 87.4882C102.53 87.4882 102.516 87.4882 102.511 87.4882C102.493 87.4882 102.48 87.4882 102.462 87.4927C102.457 87.4927 102.448 87.4927 102.443 87.4927C102.443 87.4927 102.412 87.4927 102.393 87.4973C102.389 87.4973 102.38 87.4973 102.375 87.4973C102.352 87.4973 102.33 87.5018 102.307 87.5063C102.307 87.5063 102.275 87.5063 102.257 87.5109C102.253 87.5109 102.244 87.5109 102.239 87.5109C102.194 87.5154 102.148 87.52 102.098 87.5291C102.044 87.5336 101.994 87.5427 101.939 87.5472C100.704 87.7018 99.5005 87.9063 98.3378 88.1607C98.2924 88.1698 98.2515 88.1789 98.2061 88.188C98.2016 88.188 98.1925 88.188 98.1879 88.188C98.1743 88.188 98.1561 88.1926 98.1425 88.1971C98.138 88.1971 98.1289 88.1971 98.1243 88.1971C98.1107 88.1971 98.0926 88.2016 98.0789 88.2062C98.0744 88.2062 98.0653 88.2062 98.0608 88.2062C98.0562 88.2062 98.0517 88.2062 98.0426 88.2062C98.029 88.2062 98.0153 88.2107 98.0017 88.2153C97.9972 88.2153 97.9927 88.2153 97.9836 88.2153C97.97 88.2153 97.9563 88.2198 97.9427 88.2244C97.9381 88.2244 97.9336 88.2244 97.9291 88.2244C97.9245 88.2244 97.92 88.2244 97.9109 88.2244C97.9018 88.2244 97.8973 88.2244 97.8882 88.2289C97.8882 88.2289 97.8882 88.2289 97.8837 88.2289C97.8791 88.2289 97.8746 88.2289 97.87 88.2289C97.87 88.2289 97.87 88.2289 97.8655 88.2289C97.861 88.2289 97.8564 88.2289 97.8519 88.2289C97.8519 88.2289 97.8473 88.2289 97.8428 88.2289C97.8428 88.2289 97.8337 88.2289 97.8291 88.2289C97.8291 88.2289 97.8246 88.2289 97.8201 88.2289C97.8201 88.2289 97.811 88.2289 97.8065 88.2289C97.8065 88.2289 97.8019 88.2289 97.7974 88.2289C97.7974 88.2289 97.7883 88.2289 97.7837 88.2289C97.7837 88.2289 97.7837 88.2289 97.7792 88.2289C97.7746 88.2289 97.7656 88.2289 97.7611 88.2289C97.7611 88.2289 97.761 88.2289 97.7565 88.2289C97.752 88.2289 97.7474 88.2289 97.7429 88.2289C97.7429 88.2289 97.7429 88.2289 97.7383 88.2289C97.7338 88.2289 97.7292 88.2289 97.7247 88.2289C97.7247 88.2289 97.7201 88.2289 97.7156 88.2289C97.7156 88.2289 97.7066 88.2289 97.702 88.2289H97.6929C97.6884 88.2289 97.6838 88.2289 97.6793 88.2289C97.6793 88.2289 97.6747 88.2289 97.6702 88.2289C97.6656 88.2289 97.6611 88.2289 97.6566 88.2289C97.6566 88.2289 97.6521 88.2289 97.6475 88.2289C97.643 88.2289 97.6384 88.2289 97.6339 88.2289C97.6339 88.2289 97.6293 88.2289 97.6248 88.2289C97.6202 88.2289 97.6157 88.2289 97.6111 88.2289C97.6111 88.2289 97.6111 88.2289 97.6066 88.2289C97.6021 88.2289 97.5976 88.2289 97.593 88.2289C97.593 88.2289 97.593 88.2289 97.5885 88.2289C97.5839 88.2289 97.5794 88.2289 97.5748 88.2289H97.5657C97.5657 88.2289 97.5566 88.2289 97.5521 88.2289C97.5521 88.2289 97.5476 88.2289 97.5431 88.2289C97.5385 88.2289 97.534 88.2289 97.5294 88.2289C97.5294 88.2289 97.5294 88.2289 97.5249 88.2289C97.5203 88.2289 97.5158 88.2289 97.5112 88.2289H97.5022C97.5022 88.2289 97.4976 88.2289 97.4931 88.2289H97.484C97.484 88.2289 97.4749 88.2289 97.4704 88.2289H97.4613C97.4613 88.2289 97.4522 88.2289 97.4477 88.2335H97.4386C97.4386 88.2335 97.4341 88.2335 97.4295 88.2335H97.4204H97.4113H97.4023C97.4023 88.2335 97.3977 88.2335 97.3932 88.2335C97.3932 88.2335 97.3841 88.2335 97.3795 88.2335C97.3795 88.2335 97.375 88.2335 97.3705 88.2335C97.3705 88.2335 97.3614 88.2335 97.3569 88.2335C97.3569 88.2335 97.3523 88.2335 97.3478 88.2335C97.3478 88.2335 97.3387 88.2335 97.3341 88.2335H97.325H97.316H97.3069C97.3069 88.2335 97.2978 88.2335 97.2933 88.2335C97.2933 88.2335 97.2887 88.2335 97.2842 88.2335C97.2842 88.2335 97.2751 88.2335 97.2705 88.2335C97.2705 88.2335 97.2615 88.2335 97.257 88.2335C97.257 88.2335 97.2524 88.2335 97.2479 88.2335C97.2479 88.2335 97.2433 88.2335 97.2388 88.2335C97.2388 88.2335 97.2297 88.2335 97.2251 88.2335C97.2251 88.2335 97.2251 88.2335 97.216 88.2335C97.216 88.2335 97.207 88.2335 97.2025 88.2335C97.2025 88.2335 97.1979 88.2335 97.1934 88.2335C97.1934 88.2335 97.1843 88.2335 97.1797 88.2335C97.1797 88.2335 97.1752 88.2335 97.1706 88.2335H97.157C97.157 88.2335 97.1524 88.2335 97.1479 88.238C97.1479 88.238 97.1389 88.238 97.1343 88.238C97.1343 88.238 97.1298 88.238 97.1252 88.238C97.1252 88.238 97.1161 88.238 97.1116 88.238C97.1116 88.238 97.107 88.238 97.1025 88.238C97.098 88.238 97.0935 88.238 97.0889 88.238C97.0889 88.238 97.0844 88.238 97.0798 88.238C97.0798 88.238 97.0707 88.238 97.0662 88.238C97.0662 88.238 97.0662 88.238 97.0616 88.238C97.0571 88.238 97.0525 88.238 97.048 88.238C97.048 88.238 97.0435 88.238 97.0389 88.238C97.0344 88.238 97.0299 88.238 97.0253 88.238C97.0253 88.238 97.0253 88.238 97.0208 88.238C97.0208 88.238 97.0117 88.238 97.0071 88.238C97.0071 88.238 97.0026 88.238 96.9981 88.238C96.9935 88.238 96.989 88.238 96.9844 88.238C96.9844 88.238 96.9799 88.238 96.9754 88.238C96.9754 88.238 96.9663 88.238 96.9617 88.238C96.9617 88.238 96.9572 88.238 96.9527 88.238C96.9481 88.238 96.9436 88.238 96.939 88.238C96.939 88.238 96.939 88.238 96.9345 88.238C96.9299 88.238 96.9254 88.238 96.9208 88.238C96.9208 88.238 96.9163 88.238 96.9118 88.238C96.9073 88.238 96.9027 88.238 96.8982 88.238C96.8982 88.238 96.8982 88.238 96.8936 88.238C96.8891 88.238 96.8845 88.238 96.88 88.238C96.88 88.238 96.88 88.238 96.8754 88.238C96.8709 88.238 96.8664 88.238 96.8618 88.238C96.8618 88.238 96.8618 88.238 96.8573 88.238C96.8528 88.238 96.8482 88.238 96.8391 88.238C96.8391 88.238 96.8391 88.238 96.8346 88.238C96.83 88.238 96.8255 88.238 96.8209 88.238C96.8209 88.238 96.8209 88.238 96.8164 88.238C96.8118 88.238 96.8073 88.238 96.8028 88.238C96.8028 88.238 96.8028 88.238 96.7983 88.238C96.7937 88.238 96.7846 88.238 96.7801 88.238C96.7755 88.238 96.771 88.238 96.7619 88.238C96.7619 88.238 96.7619 88.238 96.7573 88.238C96.7528 88.238 96.7483 88.238 96.7438 88.238C96.7438 88.238 96.7438 88.238 96.7392 88.238C96.7347 88.238 96.7301 88.238 96.721 88.238C96.721 88.238 96.721 88.238 96.7165 88.238C96.7119 88.238 96.7028 88.238 96.6983 88.238C96.6938 88.238 96.6893 88.238 96.6847 88.238C96.6847 88.238 96.6847 88.238 96.6802 88.238C96.6756 88.238 96.6711 88.238 96.662 88.238C96.662 88.238 96.662 88.238 96.6574 88.238C96.6529 88.238 96.6438 88.238 96.6393 88.2425C96.6347 88.2425 96.6302 88.2425 96.6211 88.2425C96.6166 88.2425 96.612 88.2425 96.6029 88.2425C96.6029 88.2425 96.6029 88.2425 96.5984 88.2425C96.5939 88.2425 96.5848 88.2425 96.5802 88.2471C96.5757 88.2471 96.5712 88.2471 96.5621 88.2471C96.5621 88.2471 96.5621 88.2471 96.5575 88.2471C96.553 88.2471 96.5484 88.2471 96.5394 88.2471C96.5348 88.2471 96.5258 88.2471 96.5212 88.2516C96.5167 88.2516 96.5076 88.2516 96.503 88.2562C96.4985 88.2562 96.4894 88.2562 96.4849 88.2607C96.4803 88.2607 96.4712 88.2607 96.4667 88.2653C96.4621 88.2653 96.4531 88.2653 96.4486 88.2698C96.444 88.2698 96.4349 88.2698 96.4304 88.2744C96.4258 88.2744 96.4167 88.2744 96.4122 88.2789C96.4076 88.2789 96.3986 88.2789 96.3941 88.2834C96.3895 88.2834 96.3804 88.2834 96.3759 88.288C96.3713 88.288 96.3622 88.288 96.3577 88.2925C96.3531 88.2925 96.3441 88.2925 96.3396 88.2971C96.335 88.2971 96.3259 88.2971 96.3214 88.3016C96.3168 88.3016 96.3077 88.3016 96.3032 88.3062C96.2986 88.3062 96.2896 88.3062 96.2851 88.3107C96.2805 88.3107 96.2714 88.3107 96.2669 88.3153C96.2669 88.3153 96.2532 88.3153 96.2487 88.3198C96.2487 88.3198 96.2351 88.3198 96.226 88.3244C96.226 88.3244 96.2124 88.3243 96.2078 88.3289C96.2033 88.3289 96.1942 88.3289 96.1897 88.3334C96.1806 88.3334 96.1761 88.3334 96.1715 88.338C96.1715 88.338 96.1579 88.338 96.1533 88.3425C96.1533 88.3425 96.1397 88.3425 96.1352 88.3471C96.1306 88.3471 96.1216 88.3471 96.117 88.3516C96.1079 88.3516 96.1034 88.3516 96.0988 88.3562C96.0988 88.3562 96.0852 88.3562 96.0807 88.3607C96.0807 88.3607 96.0398 88.3743 96.0216 88.3789C96.0216 88.3789 96.008 88.3789 96.0035 88.3834C94.9589 88.6834 94.3549 89.7695 94.6546 90.8147C94.8999 91.6782 95.6901 92.2417 96.5439 92.2417C96.721 92.2417 96.9027 92.219 97.0844 92.1644C100.372 91.2237 103.933 90.7466 107.662 90.7466C108.747 90.7466 109.628 89.8649 109.628 88.7788C109.628 87.6927 108.747 86.811 107.662 86.811L107.239 87.4427ZM87.3882 93.1188C86.9704 93.1188 86.548 93.2506 86.1938 93.5232C84.4362 94.8775 83.0647 96.409 82.1746 98.0632C82.1655 98.0768 82.161 98.0904 82.1519 98.1086C82.1428 98.1223 82.1382 98.1359 82.1292 98.1541C82.1292 98.1541 82.1155 98.1859 82.1064 98.1995C82.1064 98.1995 82.1065 98.2086 82.1019 98.2086C82.0929 98.2222 82.0883 98.2359 82.0792 98.254C82.0656 98.2768 82.0565 98.304 82.0429 98.3267C82.0429 98.3267 82.0338 98.3449 82.0293 98.354C82.0293 98.3586 82.0247 98.3631 82.0202 98.3722C82.0202 98.3722 82.0111 98.3904 82.0065 98.3995C82.0065 98.3995 82.002 98.4131 81.9974 98.4176C81.9974 98.4176 81.9974 98.4222 81.9929 98.4267C81.9929 98.4313 81.9884 98.4358 81.9839 98.4449C81.9839 98.4449 81.9839 98.454 81.9793 98.454C81.9793 98.454 81.9748 98.4631 81.9702 98.4722C81.9702 98.4767 81.9657 98.4813 81.9611 98.4904C81.9611 98.4904 81.9611 98.4949 81.9566 98.4994C81.9566 98.504 81.952 98.5085 81.9475 98.5176C81.9475 98.5222 81.9429 98.5267 81.9384 98.5358C81.9384 98.5358 81.9384 98.5403 81.9339 98.5449C81.9339 98.5494 81.9294 98.554 81.9248 98.5631C81.9248 98.5631 81.9248 98.5722 81.9203 98.5722C81.9203 98.5722 81.9157 98.5812 81.9112 98.5903C81.9112 98.5903 81.9112 98.5949 81.9066 98.5994C81.9066 98.5994 81.9066 98.5994 81.9066 98.604C81.9066 98.604 81.9066 98.6085 81.9021 98.6131C81.9021 98.6176 81.8975 98.6221 81.893 98.6312C81.893 98.6312 81.893 98.6358 81.893 98.6403C81.893 98.6449 81.8884 98.6494 81.8839 98.6585C81.8839 98.663 81.8794 98.6676 81.8749 98.6767C81.8749 98.6767 81.8749 98.6812 81.8749 98.6858C81.8749 98.6903 81.8703 98.6949 81.8658 98.6994C81.8658 98.6994 81.8658 98.7039 81.8658 98.7085C81.8658 98.7085 81.8658 98.7085 81.8658 98.713C81.8658 98.713 81.8658 98.7221 81.8612 98.7221C81.8612 98.7221 81.8612 98.7267 81.8612 98.7312C81.8612 98.7312 81.8612 98.7312 81.8612 98.7357C81.8612 98.7357 81.8612 98.7403 81.8612 98.7448C81.8612 98.7494 81.8612 98.7539 81.8521 98.7585C81.8521 98.7585 81.8521 98.763 81.8521 98.7676C81.8521 98.7676 81.8521 98.7676 81.8521 98.7721C81.8521 98.7721 81.8521 98.7767 81.8521 98.7812C81.8521 98.7857 81.8476 98.7903 81.843 98.7948C81.843 98.7948 81.843 98.7994 81.843 98.8039C81.843 98.8085 81.843 98.813 81.834 98.8176C81.834 98.8176 81.834 98.8221 81.834 98.8266C81.834 98.8266 81.834 98.8266 81.834 98.8312C81.834 98.8312 81.834 98.8357 81.834 98.8403C81.834 98.8448 81.8339 98.8494 81.8249 98.8585C81.8249 98.8585 81.8249 98.863 81.8249 98.8675C81.8249 98.8675 81.8249 98.8675 81.8249 98.8721C81.8249 98.8721 81.8249 98.8766 81.8249 98.8812C81.8249 98.8812 81.8249 98.8857 81.8249 98.8903C81.8249 98.8903 81.8249 98.8903 81.8249 98.8948C81.8249 98.8948 81.8249 98.8994 81.8249 98.9039C81.8249 98.9039 81.8249 98.9039 81.8249 98.9084C81.8249 98.9084 81.8249 98.9084 81.8249 98.913C81.8249 98.913 81.8249 98.913 81.8249 98.9221C81.8249 98.9221 81.8249 98.9221 81.8249 98.9266C81.8249 98.9266 81.8249 98.9312 81.8249 98.9357C81.8249 98.9357 81.8249 98.9403 81.8249 98.9448C81.8249 98.9448 81.8249 98.9448 81.8249 98.9493C81.8249 98.9493 81.8249 98.9539 81.8249 98.9584C81.8249 98.963 81.8249 98.9675 81.8203 98.9721C81.8203 98.9721 81.8203 98.9766 81.8203 98.9812C81.8203 98.9812 81.8203 98.9812 81.8203 98.9857C81.8203 98.9857 81.8203 98.9857 81.8203 98.9903C81.8203 98.9903 81.8203 98.9902 81.8203 98.9948C81.8203 98.9948 81.8203 98.9993 81.8203 99.0039C81.8203 99.0039 81.8203 99.0039 81.8203 99.0084C81.8203 99.0084 81.8203 99.0084 81.8203 99.013C81.8203 99.013 81.8203 99.013 81.8203 99.0175C81.8203 99.0175 81.8203 99.0175 81.8203 99.0221C81.8203 99.0221 81.8203 99.0221 81.8203 99.0266C81.8203 99.0266 81.8203 99.0311 81.8203 99.0357C81.8203 99.0357 81.8203 99.0357 81.8203 99.0402C81.8203 99.0402 81.8203 99.0402 81.8203 99.0448C81.8203 99.0448 81.8203 99.0448 81.8203 99.0493C81.8203 99.0493 81.8203 99.0493 81.8203 99.0539C81.8203 99.0539 81.8203 99.0539 81.8203 99.0584V99.063C81.8203 99.063 81.8203 99.063 81.8203 99.0675C81.8203 99.0675 81.8203 99.0675 81.8203 99.072C81.8203 99.072 81.8203 99.072 81.8203 99.0766C81.8203 99.0766 81.8203 99.0766 81.8203 99.0811C81.8203 99.0811 81.8203 99.0811 81.8203 99.0857C81.8203 99.0857 81.8203 99.0857 81.8203 99.0902C81.8203 99.0902 81.8203 99.0902 81.8203 99.0948C81.8203 99.0948 81.8203 99.0948 81.8203 99.0993C81.8203 99.0993 81.8203 99.0993 81.8203 99.1039C81.8203 99.1039 81.8203 99.1039 81.8203 99.1084C81.8203 99.1084 81.8203 99.1084 81.8203 99.1129C81.8203 99.1129 81.8203 99.113 81.8203 99.1175C81.8203 99.1175 81.8203 99.1175 81.8203 99.122C81.8203 99.122 81.8203 99.122 81.8203 99.1266C81.8203 99.1266 81.8203 99.1266 81.8203 99.1311C81.8203 99.1311 81.8203 99.1311 81.8203 99.1357C81.8203 99.1357 81.8203 99.1357 81.8203 99.1402C81.8203 99.1402 81.8203 99.1402 81.8203 99.1448C81.8203 99.1448 81.8203 99.1448 81.8203 99.1493C81.8203 99.1493 81.8203 99.1493 81.8203 99.1538C81.8203 99.1538 81.8203 99.1539 81.8203 99.1584C81.8203 99.1584 81.8203 99.1584 81.8203 99.1629C81.8203 99.1629 81.8203 99.1629 81.8203 99.1675V99.172C81.8203 99.172 81.8203 99.172 81.8203 99.1766C81.8203 99.1766 81.8203 99.1766 81.8203 99.1811C81.8203 99.1811 81.8203 99.1811 81.8203 99.1857C81.8203 99.1857 81.8203 99.1857 81.8203 99.1902C81.8203 99.1902 81.8203 99.1902 81.8203 99.1947C81.8203 99.1947 81.8203 99.1947 81.8203 99.1993C81.8203 99.1993 81.8203 99.1993 81.8203 99.2038C81.8203 99.2038 81.8203 99.2038 81.8203 99.2084C81.8203 99.2084 81.8203 99.2084 81.8203 99.2129C81.8203 99.2129 81.8203 99.2129 81.8203 99.2175C81.8203 99.2175 81.8203 99.2175 81.8203 99.222C81.8203 99.222 81.8203 99.222 81.8203 99.2266C81.8203 99.2266 81.8203 99.2266 81.8203 99.2311C81.8203 99.2311 81.8203 99.2311 81.8203 99.2356C81.8203 99.2356 81.8203 99.2356 81.8203 99.2402C81.8203 99.2402 81.8203 99.2402 81.8203 99.2447C81.8203 99.2447 81.8203 99.2447 81.8203 99.2493C81.8203 99.2493 81.8203 99.2493 81.8203 99.2538V99.2629C81.8203 99.2629 81.8203 99.2629 81.8203 99.2675C81.8203 99.2675 81.8203 99.2675 81.8203 99.272C81.8203 99.272 81.8203 99.272 81.8203 99.2765C81.8203 99.2765 81.8203 99.2765 81.8203 99.2811C81.8203 99.2811 81.8203 99.2811 81.8203 99.2856C81.8203 99.2856 81.8203 99.2856 81.8203 99.2902C81.8203 99.2902 81.8203 99.2902 81.8203 99.2947C81.8203 99.2947 81.8203 99.2947 81.8203 99.2993C81.8203 99.2993 81.8203 99.2993 81.8203 99.3038C81.8203 99.3038 81.8203 99.3038 81.8203 99.3084C81.8203 99.3084 81.8203 99.3084 81.8203 99.3129C81.8203 99.3129 81.8203 99.3129 81.8203 99.3175C81.8203 99.3175 81.8203 99.3174 81.8203 99.322C81.8203 99.322 81.8203 99.3265 81.8203 99.3311C81.8203 99.3311 81.8203 99.3311 81.8203 99.3356C81.8203 99.3356 81.8203 99.3356 81.8203 99.3402C81.8203 99.3402 81.8203 99.3402 81.8203 99.3447C81.8203 99.3447 81.8203 99.3447 81.8203 99.3493C81.8203 99.3493 81.8203 99.3538 81.8203 99.3584C81.8203 99.3584 81.8203 99.3583 81.8203 99.3629C81.8203 99.3629 81.8203 99.3629 81.8203 99.3674C81.8203 99.3674 81.8203 99.372 81.8203 99.3765C81.8203 99.3765 81.8203 99.3765 81.8203 99.3811C81.8203 99.3811 81.8203 99.3856 81.8203 99.3902C81.8203 99.3902 81.8203 99.3902 81.8203 99.3947C81.8203 99.3947 81.8203 99.3947 81.8203 99.3993C81.8203 99.3993 81.8203 99.4038 81.8203 99.4083C81.8203 99.4083 81.8203 99.4083 81.8203 99.4129C81.8203 99.4129 81.8203 99.4129 81.8203 99.4174C81.8203 99.4174 81.8203 99.422 81.8203 99.4265C81.8203 99.4265 81.8203 99.4265 81.8203 99.4311C81.8203 99.4311 81.8203 99.4356 81.8203 99.4402C81.8203 99.4402 81.8203 99.4402 81.8203 99.4447C81.8203 99.4447 81.8203 99.4447 81.8203 99.4492C81.8203 99.4492 81.8203 99.4492 81.8203 99.4583C81.8203 99.4583 81.8203 99.4583 81.8203 99.4629C81.8203 99.4629 81.8203 99.4629 81.8203 99.4674C81.8203 99.4674 81.8203 99.4674 81.8203 99.472C81.8203 99.472 81.8203 99.472 81.8203 99.4765C81.8203 99.4765 81.8203 99.4765 81.8203 99.481C81.8203 99.481 81.8203 99.4811 81.8203 99.4856C81.8203 99.4856 81.8203 99.4856 81.8203 99.4901C81.8203 99.4901 81.8203 99.4901 81.8203 99.4947C81.8203 99.4947 81.8203 99.4947 81.8203 99.4992C81.8203 99.4992 81.8203 99.4992 81.8203 99.5038C81.8203 99.5038 81.8203 99.5038 81.8203 99.5083C81.8203 99.5083 81.8203 99.5083 81.8203 99.5129C81.8203 99.5129 81.8203 99.5129 81.8203 99.5219C81.8203 99.5219 81.8203 99.522 81.8203 99.5265C81.8203 99.5265 81.8203 99.5265 81.8203 99.531C81.8203 99.531 81.8203 99.5356 81.8203 99.5401C81.8203 99.5401 81.8203 99.5401 81.8203 99.5447C81.8203 99.5447 81.8203 99.5492 81.8203 99.5538C81.8203 99.5538 81.8203 99.5538 81.8203 99.5583C81.8203 99.5583 81.8203 99.5583 81.8203 99.5628C81.8203 99.5628 81.8203 99.5629 81.8203 99.5719C81.8203 99.5719 81.8203 99.5719 81.8203 99.5765C81.8203 99.5765 81.8203 99.5765 81.8203 99.5856C81.8203 99.5856 81.8203 99.5901 81.8203 99.5947C81.8203 99.5947 81.8203 99.5947 81.8203 99.5992C81.8203 99.5992 81.8203 99.6037 81.8203 99.6083C81.8203 99.6083 81.8203 99.6128 81.8203 99.6174C81.8203 99.6174 81.8203 99.6174 81.8203 99.6219C81.8203 99.6219 81.8203 99.6265 81.8203 99.631C81.8203 99.631 81.8203 99.631 81.8203 99.6356C81.8203 99.6356 81.8203 99.6356 81.8203 99.6401C81.8203 99.6401 81.8203 99.6446 81.8203 99.6492C81.8203 99.6492 81.8203 99.6492 81.8203 99.6537C81.8203 99.6537 81.8203 99.6583 81.8203 99.6628C81.8203 99.6628 81.8203 99.6628 81.8203 99.6674C81.8203 99.6674 81.8203 99.6674 81.8203 99.6719C81.8203 99.6719 81.8203 99.6765 81.8203 99.681C81.8203 99.681 81.8203 99.681 81.8203 99.6856C81.8203 99.6856 81.8203 99.6901 81.8203 99.6946C81.8203 99.6946 81.8203 99.6992 81.8203 99.7037C81.8203 99.7037 81.8203 99.7037 81.8203 99.7083C81.8203 99.7083 81.8203 99.7128 81.8203 99.7174V99.7265C81.8203 99.7265 81.8203 99.7264 81.8203 99.731C81.8203 99.731 81.8203 99.7355 81.8203 99.7401C81.8203 99.7401 81.8203 99.7401 81.8203 99.7446C81.8203 99.7446 81.8203 99.7492 81.8203 99.7537C81.8203 99.7537 81.8203 99.7583 81.8203 99.7628C81.8203 99.7628 81.8203 99.7628 81.8203 99.7674C81.8203 99.7674 81.8203 99.7719 81.8203 99.7764C81.8203 99.7764 81.8203 99.7764 81.8203 99.781C81.8203 99.781 81.8203 99.781 81.8203 99.7855C81.8203 99.7855 81.8203 99.7901 81.8203 99.7946C81.8203 99.7946 81.8203 99.7946 81.8203 99.7992C81.8203 99.7992 81.8203 99.8037 81.8203 99.8083C81.8203 99.8083 81.8203 99.8128 81.8203 99.8173C81.8203 99.8173 81.8203 99.8173 81.8203 99.8219C81.8203 99.8219 81.8203 99.8264 81.8203 99.831V99.8401C81.8203 99.8401 81.8203 99.8446 81.8203 99.8492C81.8203 99.8492 81.8203 99.8537 81.8203 99.8582C81.8203 99.8582 81.8203 99.8582 81.8203 99.8628C81.8203 99.8628 81.8203 99.8673 81.8203 99.8719C81.8203 99.8719 81.8203 99.8764 81.8203 99.881C81.8203 99.881 81.8203 99.881 81.8203 99.8855C81.8203 99.8855 81.8203 99.8901 81.8203 99.8946V99.9037C81.8203 99.9037 81.8203 99.9037 81.8203 99.9082C81.8203 99.9082 81.8203 99.9128 81.8203 99.9173C81.8203 99.9173 81.8203 99.9219 81.8203 99.9264C81.8203 99.9264 81.8203 99.931 81.8203 99.9355V99.9446C81.8203 99.9446 81.8203 99.9446 81.8203 99.9491C81.8203 99.9491 81.8203 99.9537 81.8203 99.9582V99.9673C81.8203 99.9673 81.8203 99.9719 81.8203 99.9764C81.8203 99.9764 81.8203 99.9809 81.8203 99.9855C81.8203 99.9855 81.8203 99.9855 81.8203 99.99C81.8203 99.99 81.8203 99.9946 81.8203 99.9991C81.8203 99.9991 81.8203 100.004 81.8203 100.008C81.8203 100.008 81.8203 100.013 81.8203 100.017C81.8203 100.017 81.8203 100.022 81.8203 100.026C81.8203 100.026 81.8203 100.031 81.8203 100.035C81.8203 100.035 81.8203 100.04 81.8203 100.045C81.8203 100.045 81.8203 100.049 81.8203 100.054V100.058C81.8203 100.058 81.8203 100.063 81.8203 100.067C81.8203 100.067 81.8203 100.072 81.8203 100.076C81.8203 100.076 81.8203 100.081 81.8203 100.085C81.8203 100.085 81.8203 100.09 81.8203 100.095C81.8203 100.095 81.8203 100.099 81.8203 100.104C81.8203 100.104 81.8203 100.108 81.8203 100.113C81.8203 100.113 81.8203 100.117 81.8203 100.122V100.126C81.8203 100.126 81.8203 100.131 81.8203 100.135C81.8203 100.135 81.8203 100.14 81.8203 100.145C81.8203 100.145 81.8203 100.149 81.8203 100.154C81.8203 100.154 81.8203 100.158 81.8203 100.163C81.8203 100.163 81.8203 100.167 81.8203 100.172C81.8203 100.172 81.8203 100.176 81.8203 100.181C81.8203 100.181 81.8203 100.185 81.8203 100.19C81.8203 100.19 81.8203 100.195 81.8203 100.199C81.8203 100.199 81.8203 100.204 81.8203 100.208C81.8203 100.208 81.8203 100.213 81.8203 100.217C81.8203 100.217 81.8203 100.222 81.8203 100.226C81.8203 100.226 81.8203 100.231 81.8203 100.235C81.8203 100.235 81.8203 100.24 81.8203 100.245C81.8203 100.245 81.8203 100.249 81.8203 100.254C81.8203 100.254 81.8203 100.258 81.8203 100.263C81.8203 100.263 81.8203 100.267 81.8203 100.272C81.8203 100.272 81.8203 100.276 81.8203 100.281C81.8203 100.281 81.8203 100.285 81.8203 100.29C81.8203 100.29 81.8203 100.295 81.8203 100.299C81.8203 100.299 81.8203 100.304 81.8203 100.308C81.8203 100.308 81.8203 100.308 81.8203 100.313C81.8203 100.313 81.8203 100.317 81.8203 100.322C81.8203 100.322 81.8203 100.326 81.8203 100.331C81.8203 100.331 81.8203 100.335 81.8203 100.34C81.8203 100.34 81.8203 100.345 81.8203 100.349C81.8203 100.349 81.8203 100.349 81.8203 100.358C81.8203 100.358 81.8203 100.363 81.8203 100.367C81.8203 100.367 81.8203 100.372 81.8203 100.376C81.8203 100.376 81.8203 100.381 81.8203 100.385C81.8203 100.385 81.8203 100.39 81.8203 100.394V100.404C81.8203 100.404 81.8203 100.408 81.8203 100.413C81.8203 100.413 81.8203 100.417 81.8203 100.422C81.8203 100.422 81.8203 100.422 81.8203 100.426C81.8203 100.426 81.8203 100.431 81.8203 100.435C81.8203 100.435 81.8203 100.44 81.8203 100.444C81.8203 100.444 81.8203 100.444 81.8203 100.449C81.8203 100.449 81.8203 100.454 81.8203 100.458C81.8203 100.458 81.8203 100.463 81.8203 100.467C81.8203 100.467 81.8203 100.472 81.8203 100.476C81.8203 100.476 81.8203 100.481 81.8203 100.485C81.8203 100.485 81.8203 100.485 81.8203 100.49C81.8203 100.49 81.8203 100.494 81.8203 100.499C81.8203 100.499 81.8203 100.504 81.8203 100.508C81.8203 100.508 81.8203 100.513 81.8203 100.517C81.8203 100.517 81.8203 100.522 81.8203 100.526C81.8203 100.526 81.8203 100.531 81.8203 100.535C81.8203 100.535 81.8203 100.54 81.8203 100.544C81.8203 100.544 81.8203 100.549 81.8203 100.554C81.8203 100.554 81.8203 100.558 81.8203 100.563C81.8203 100.563 81.8203 100.567 81.8203 100.572C81.8203 100.572 81.8203 100.576 81.8203 100.581C81.8203 100.581 81.8203 100.585 81.8203 100.59C81.8203 100.59 81.8203 100.594 81.8203 100.599C81.8203 100.599 81.8203 100.604 81.8203 100.608C81.8203 100.608 81.8203 100.613 81.8203 100.617C81.8203 100.617 81.8203 100.622 81.8203 100.626C81.8203 100.626 81.8203 100.631 81.8203 100.635C81.8203 100.635 81.8203 100.64 81.8203 100.644C81.8203 100.644 81.8203 100.649 81.8203 100.654C81.8203 100.654 81.8203 100.658 81.8203 100.663C81.8203 100.663 81.8203 100.667 81.8203 100.672C81.8203 100.672 81.8203 100.676 81.8203 100.681C81.8203 100.681 81.8203 100.685 81.8203 100.69C81.8203 100.69 81.8203 100.694 81.8203 100.699C81.8203 100.699 81.8203 100.704 81.8203 100.708C81.8203 100.708 81.8203 100.713 81.8203 100.717C81.8203 100.717 81.8203 100.722 81.8203 100.726C81.8203 100.726 81.8203 100.731 81.8203 100.735C81.8203 100.735 81.8203 100.74 81.8203 100.744C81.8203 100.744 81.8203 100.749 81.8203 100.753C81.8203 100.753 81.8203 100.758 81.8203 100.763C81.8203 100.763 81.8203 100.767 81.8203 100.772C81.8203 100.772 81.8203 100.776 81.8203 100.781C81.8203 100.781 81.8203 100.785 81.8203 100.79C81.8203 100.79 81.8203 100.794 81.8203 100.799C81.8203 100.799 81.8203 100.803 81.8203 100.808C81.8203 100.808 81.8203 100.813 81.8203 100.817C81.8203 100.817 81.8203 100.822 81.8203 100.826C81.8203 100.826 81.8203 100.831 81.8203 100.835C81.8203 100.835 81.8203 100.84 81.8203 100.844C81.8203 100.844 81.8203 100.849 81.8203 100.853C81.8203 100.853 81.8203 100.858 81.8203 100.863C81.8203 100.863 81.8203 100.867 81.8203 100.872C81.8203 100.872 81.8203 100.876 81.8203 100.881C81.8203 100.881 81.8203 100.885 81.8203 100.89C81.8203 100.89 81.8203 100.894 81.8203 100.899C81.8203 100.899 81.8203 100.903 81.8203 100.908C81.8203 100.908 81.8203 100.913 81.8203 100.917C81.8203 100.917 81.8203 100.922 81.8203 100.926C81.8203 100.926 81.8203 100.931 81.8203 100.935C81.8203 100.94 81.8203 100.949 81.8203 100.953C81.8203 100.953 81.8203 100.958 81.8203 100.963C81.8203 100.963 81.8203 100.967 81.8203 100.972C81.8203 100.972 81.8203 100.976 81.8203 100.981C81.8203 100.981 81.8203 100.985 81.8203 100.99C81.8203 100.99 81.8203 100.994 81.8203 100.999C81.8203 100.999 81.8203 101.003 81.8203 101.008C81.8203 101.008 81.8203 101.013 81.8203 101.017C81.8203 101.017 81.8203 101.022 81.8203 101.026C81.8203 101.026 81.8203 101.031 81.8203 101.035C81.8203 101.035 81.8203 101.04 81.8203 101.044C81.8203 101.044 81.8203 101.049 81.8203 101.053C81.8203 101.053 81.8203 101.058 81.8203 101.063C81.8203 101.063 81.8203 101.067 81.8203 101.072C81.8203 101.072 81.8203 101.076 81.8203 101.081C81.8203 101.081 81.8203 101.085 81.8203 101.09C81.8203 101.09 81.8203 101.094 81.8203 101.099C81.8203 101.099 81.8203 101.103 81.8203 101.108C81.8203 101.108 81.8203 101.113 81.8203 101.117V101.126C81.8203 101.126 81.8203 101.131 81.8203 101.135C81.8203 101.135 81.8203 101.14 81.8203 101.144C81.8203 101.144 81.8203 101.149 81.8203 101.153C81.8203 101.153 81.8203 101.158 81.8203 101.163C81.8203 101.163 81.8203 101.167 81.8203 101.172C81.8203 101.172 81.8203 101.176 81.8203 101.181C81.8203 101.181 81.8203 101.185 81.8203 101.19C81.8203 101.19 81.8203 101.194 81.8203 101.199V101.208C81.8203 101.208 81.8203 101.212 81.8203 101.217C81.8203 101.217 81.8203 101.222 81.8203 101.226C81.8203 101.226 81.8203 101.231 81.8203 101.235C81.8203 101.235 81.8203 101.24 81.8203 101.244C81.8203 101.244 81.8203 101.249 81.8203 101.253C81.8203 101.253 81.8203 101.258 81.8203 101.262C81.8203 101.262 81.8203 101.267 81.8203 101.272C81.8203 101.272 81.8203 101.276 81.8203 101.281C81.8203 101.281 81.8203 101.285 81.8203 101.29C81.8203 101.29 81.8203 101.294 81.8203 101.299C81.8203 101.299 81.8203 101.303 81.8203 101.308C81.8203 101.308 81.8203 101.312 81.8203 101.317C81.8203 101.317 81.8203 101.322 81.8203 101.326C81.8203 101.326 81.8203 101.326 81.8203 101.335C81.8203 101.335 81.8203 101.34 81.8203 101.344C81.8203 101.344 81.8203 101.349 81.8203 101.353C81.8203 101.353 81.8203 101.358 81.8203 101.362C81.8203 101.362 81.8203 101.367 81.8203 101.372C81.8203 101.372 81.8203 101.376 81.8203 101.381C81.8203 101.381 81.8203 101.385 81.8203 101.39C81.8203 101.39 81.8203 101.394 81.8203 101.399C81.8203 101.399 81.8203 101.403 81.8203 101.408C81.8203 101.408 81.8203 101.412 81.8203 101.417C81.8203 101.417 81.8203 101.422 81.8203 101.426C81.8203 101.426 81.8203 101.431 81.8203 101.435C81.8203 101.435 81.8203 101.44 81.8203 101.444C81.8203 101.444 81.8203 101.449 81.8203 101.453C81.8203 101.453 81.8203 101.458 81.8203 101.462C81.8203 101.462 81.8203 101.467 81.8203 101.472C81.8203 101.472 81.8203 101.476 81.8203 101.481C81.8203 101.481 81.8203 101.485 81.8203 101.49C81.8203 101.49 81.8203 101.494 81.8203 101.499C81.8203 101.499 81.8203 101.503 81.8203 101.508C81.8203 101.508 81.8203 101.512 81.8203 101.517C81.8203 101.517 81.8203 101.522 81.8203 101.526V101.535V101.544C81.8203 101.544 81.8203 101.549 81.8203 101.553C81.8203 101.553 81.8203 101.558 81.8203 101.562C81.8203 101.562 81.8203 101.567 81.8203 101.572C81.8203 101.572 81.8203 101.576 81.8203 101.581C81.8203 101.581 81.8203 101.585 81.8203 101.59C81.8203 101.59 81.8203 101.594 81.8203 101.599V101.608V101.617V101.626C81.8203 101.626 81.8203 101.631 81.8203 101.635V101.644C81.8203 101.644 81.8203 101.649 81.8203 101.653C81.8203 101.653 81.8203 101.658 81.8203 101.662C81.8203 101.662 81.8203 101.662 81.8203 101.667C81.8203 101.667 81.8203 101.671 81.8203 101.676C81.8203 101.676 81.8203 101.681 81.8203 101.685C81.8203 101.685 81.8203 101.685 81.8203 101.69C81.8203 101.69 81.8203 101.694 81.8203 101.699C81.8203 101.699 81.8203 101.699 81.8203 101.703C81.8203 101.703 81.8203 101.703 81.8203 101.708C81.8203 101.708 81.8203 101.708 81.8203 101.712C81.8203 101.712 81.8203 101.712 81.8203 101.717C81.8203 101.717 81.8203 101.717 81.8203 101.721C81.8203 101.721 81.8203 101.721 81.8203 101.726C81.8203 101.726 81.8203 101.731 81.8203 101.735V101.744C81.8203 101.744 81.8203 101.749 81.8203 101.753C81.8203 101.758 81.8203 101.762 81.8203 101.767C81.8203 101.767 81.8203 101.767 81.8203 101.771C81.8203 101.771 81.8203 101.771 81.8203 101.776C81.8203 101.776 81.8203 101.785 81.8203 101.79C81.8203 101.79 81.8203 101.79 81.8203 101.794C81.8203 101.794 81.8203 101.794 81.8203 101.799C81.8203 101.803 81.8203 101.808 81.8203 101.817C81.8203 101.817 81.8203 101.817 81.8203 101.821C81.8203 101.831 81.8203 101.835 81.8203 101.844C81.8203 101.853 81.8203 101.862 81.8203 101.867C81.8203 101.867 81.8203 101.867 81.8203 101.871C81.8294 102.094 81.8476 102.317 81.8703 102.535C81.9884 103.539 82.8376 104.275 83.8231 104.275C83.8958 104.275 83.973 104.275 84.0457 104.262C85.1265 104.139 85.8986 103.162 85.776 102.085C85.7533 101.899 85.7442 101.712 85.7442 101.526C85.7442 98.9766 87.7379 96.9043 89.4092 95.6137C90.2676 94.9502 90.4265 93.7141 89.7635 92.8552C89.3774 92.3508 88.7961 92.0872 88.2057 92.0872L87.3882 93.1188ZM87.8969 108.438C87.2838 108.438 86.6843 108.725 86.2983 109.256C85.667 110.138 85.8668 111.365 86.7433 111.997C87.7107 112.692 88.7825 113.337 89.9451 113.923C89.9542 113.928 89.9633 113.932 89.9724 113.937C89.9724 113.937 89.9724 113.937 89.9814 113.937C89.986 113.937 89.995 113.946 90.0041 113.946C90.0041 113.946 90.0041 113.946 90.0087 113.946C90.0132 113.946 90.0223 113.951 90.0268 113.955C90.0268 113.955 90.0269 113.955 90.0314 113.955C90.0359 113.955 90.045 113.96 90.0496 113.964C90.0496 113.964 90.0495 113.964 90.0541 113.964C90.0541 113.964 90.0541 113.964 90.0586 113.964C90.0632 113.964 90.0723 113.969 90.0768 113.973C90.0768 113.973 90.0768 113.973 90.0813 113.973C90.0859 113.973 90.095 113.978 90.0995 113.982C90.0995 113.982 90.0995 113.982 90.1041 113.982C90.1041 113.982 90.1086 113.982 90.1131 113.982C90.1131 113.982 90.1131 113.982 90.1177 113.982C90.1177 113.982 90.1177 113.982 90.1222 113.982C90.1222 113.982 90.1268 113.982 90.1313 113.982C90.1313 113.982 90.1313 113.982 90.1358 113.982C90.1358 113.982 90.1358 113.982 90.1404 113.982C90.1404 113.982 90.1404 113.982 90.1449 113.982C90.1449 113.982 90.1495 113.982 90.154 113.982C90.154 113.982 90.154 113.982 90.1586 113.982C90.1586 113.982 90.1631 113.982 90.1676 113.982C90.1676 113.982 90.1722 113.982 90.1767 113.982C90.1767 113.982 90.1813 113.982 90.1858 113.982C90.1858 113.982 90.1903 113.982 90.1949 113.982C90.1949 113.982 90.1994 113.982 90.204 113.987C90.204 113.987 90.2085 113.987 90.2131 113.987C90.2176 113.987 90.2267 113.992 90.2312 113.996C90.2494 114.005 90.2721 114.014 90.2902 114.023C92.0115 114.855 93.9235 115.564 95.9762 116.123C95.9762 116.123 96.0171 116.132 96.0353 116.141C96.0353 116.141 96.0444 116.141 96.0489 116.141C96.0489 116.141 96.0716 116.146 96.0852 116.15C96.0943 116.15 96.0989 116.15 96.1079 116.155H96.117C96.1261 116.155 96.1306 116.155 96.1397 116.159C96.1397 116.159 96.1443 116.159 96.1488 116.159C96.1488 116.159 96.1579 116.159 96.1624 116.159H96.1715C96.1715 116.159 96.1761 116.159 96.1806 116.159C96.1897 116.159 96.1942 116.159 96.2033 116.164C96.2033 116.164 96.2078 116.164 96.2124 116.164C96.2124 116.164 96.2169 116.164 96.2215 116.164C96.2215 116.164 96.2215 116.164 96.226 116.164C96.226 116.164 96.226 116.164 96.2306 116.164C96.2306 116.164 96.2306 116.164 96.2351 116.164C96.2351 116.164 96.2351 116.164 96.2396 116.164C96.2396 116.164 96.2396 116.164 96.2441 116.164C96.2441 116.164 96.2532 116.164 96.2578 116.164C96.2578 116.164 96.2578 116.164 96.2623 116.164C96.2623 116.164 96.2623 116.164 96.2669 116.164C96.2669 116.164 96.276 116.164 96.2805 116.164C96.2805 116.164 96.2851 116.164 96.2896 116.164C96.2987 116.164 96.3032 116.164 96.3123 116.168H96.3168C96.3259 116.168 96.3305 116.168 96.3396 116.173C96.3396 116.173 96.3441 116.173 96.3486 116.173C96.3577 116.173 96.3668 116.173 96.3759 116.182C96.3759 116.182 96.3804 116.182 96.385 116.182C96.721 116.268 97.0616 116.35 97.4068 116.432C97.5521 116.464 97.702 116.482 97.8428 116.482C98.7374 116.482 99.5504 115.864 99.7593 114.955C100 113.896 99.3415 112.842 98.2833 112.596C94.582 111.747 91.3394 110.379 88.9142 108.634C88.569 108.384 88.1648 108.266 87.7697 108.266L87.8969 108.438ZM118.988 112.056C118.797 112.056 118.602 112.083 118.411 112.142C115.205 113.124 111.563 113.673 107.879 113.728C106.794 113.746 105.927 114.637 105.945 115.723C105.963 116.8 106.84 117.659 107.911 117.659C107.92 117.659 107.929 117.659 107.943 117.659C112.139 117.595 116.086 116.968 119.569 115.9C120.609 115.582 121.191 114.482 120.873 113.442C120.614 112.596 119.833 112.051 118.993 112.051L118.988 112.056ZM131.4 99.272C131.277 99.272 131.15 99.2856 131.023 99.3084C129.956 99.5129 129.261 100.549 129.465 101.612C129.524 101.926 129.556 102.244 129.556 102.558C129.556 104.934 127.799 106.898 126.323 108.125C125.487 108.82 125.373 110.061 126.068 110.897C126.459 111.365 127.017 111.606 127.581 111.606C128.021 111.606 128.466 111.456 128.834 111.151C130.087 110.106 131.123 108.97 131.89 107.757C131.89 107.757 131.89 107.757 131.89 107.752C131.89 107.752 131.909 107.725 131.918 107.707C131.945 107.666 131.968 107.625 131.995 107.579C131.995 107.579 131.999 107.57 132.004 107.561C132.004 107.561 132.009 107.552 132.013 107.543C132.013 107.538 132.018 107.534 132.022 107.529C132.022 107.525 132.027 107.52 132.031 107.511C132.031 107.507 132.036 107.502 132.04 107.498C132.04 107.498 132.04 107.493 132.045 107.488C132.045 107.488 132.045 107.488 132.045 107.484C132.045 107.484 132.045 107.479 132.049 107.475C132.049 107.475 132.049 107.475 132.049 107.47C132.049 107.47 132.049 107.461 132.054 107.461C132.054 107.461 132.054 107.461 132.054 107.457C132.054 107.457 132.054 107.452 132.059 107.448C132.059 107.443 132.063 107.438 132.068 107.434C132.068 107.429 132.072 107.425 132.077 107.42C132.077 107.416 132.081 107.411 132.086 107.407C132.086 107.407 132.086 107.402 132.09 107.398C132.09 107.398 132.09 107.398 132.09 107.393C132.09 107.393 132.09 107.388 132.095 107.384C132.095 107.384 132.095 107.384 132.095 107.379C132.095 107.379 132.095 107.375 132.099 107.37C132.099 107.37 132.099 107.37 132.099 107.366C132.099 107.366 132.099 107.357 132.104 107.357C132.104 107.357 132.104 107.357 132.104 107.352C132.104 107.352 132.104 107.348 132.108 107.343C132.108 107.338 132.113 107.334 132.118 107.329C132.118 107.329 132.118 107.329 132.118 107.325C132.118 107.325 132.118 107.32 132.122 107.316C132.122 107.311 132.127 107.307 132.131 107.302C132.131 107.298 132.136 107.293 132.14 107.288C132.14 107.288 132.14 107.284 132.145 107.279C132.145 107.279 132.145 107.279 132.145 107.275C132.145 107.275 132.145 107.27 132.145 107.266C132.145 107.266 132.145 107.266 132.145 107.261C132.145 107.261 132.145 107.257 132.149 107.252C132.149 107.252 132.149 107.252 132.149 107.248C132.149 107.248 132.149 107.243 132.154 107.238C132.154 107.238 132.154 107.234 132.154 107.229C132.154 107.225 132.158 107.22 132.163 107.216C132.163 107.211 132.168 107.207 132.172 107.202C132.172 107.198 132.177 107.193 132.181 107.188C132.181 107.184 132.186 107.179 132.19 107.175C132.19 107.175 132.19 107.17 132.19 107.166C132.19 107.166 132.19 107.161 132.19 107.157C132.19 107.157 132.19 107.157 132.19 107.152C132.19 107.152 132.19 107.148 132.19 107.143C132.19 107.143 132.19 107.143 132.19 107.139C132.19 107.139 132.19 107.138 132.19 107.134C132.19 107.134 132.19 107.134 132.19 107.129C132.19 107.129 132.19 107.125 132.19 107.12C132.19 107.12 132.19 107.12 132.19 107.116C132.19 107.116 132.19 107.116 132.19 107.111C132.19 107.111 132.19 107.111 132.19 107.107C132.19 107.107 132.19 107.107 132.19 107.102C132.19 107.102 132.19 107.102 132.19 107.098C132.19 107.098 132.19 107.098 132.19 107.093C132.19 107.093 132.19 107.089 132.19 107.084C132.19 107.084 132.19 107.084 132.19 107.079C132.19 107.079 132.19 107.079 132.19 107.075C132.19 107.075 132.19 107.075 132.19 107.07C132.19 107.07 132.19 107.07 132.19 107.066C132.19 107.066 132.19 107.066 132.19 107.061C132.19 107.061 132.19 107.061 132.19 107.057C132.19 107.057 132.19 107.057 132.19 107.052C132.19 107.052 132.19 107.048 132.19 107.043C132.19 107.043 132.19 107.043 132.19 107.039C132.19 107.039 132.19 107.039 132.19 107.034C132.19 107.034 132.19 107.034 132.19 107.029V107.02C132.19 107.02 132.19 107.02 132.19 107.016C132.19 107.016 132.19 107.011 132.19 107.007C132.19 107.007 132.19 107.007 132.19 107.002C132.19 107.002 132.19 107.002 132.19 106.998C132.19 106.998 132.19 106.998 132.19 106.993C132.19 106.993 132.19 106.993 132.19 106.989C132.19 106.989 132.19 106.989 132.19 106.984C132.19 106.984 132.19 106.984 132.19 106.979C132.19 106.979 132.19 106.979 132.19 106.975C132.19 106.975 132.19 106.975 132.19 106.97C132.19 106.97 132.19 106.97 132.19 106.966C132.19 106.966 132.19 106.966 132.19 106.961C132.19 106.961 132.19 106.961 132.19 106.957C132.19 106.957 132.19 106.957 132.19 106.952C132.19 106.952 132.19 106.952 132.19 106.948C132.19 106.948 132.19 106.948 132.19 106.943C132.19 106.943 132.19 106.943 132.19 106.939C132.19 106.939 132.19 106.939 132.19 106.934C132.19 106.934 132.19 106.934 132.19 106.929C132.19 106.929 132.19 106.925 132.19 106.92C132.19 106.92 132.19 106.92 132.19 106.916C132.19 106.916 132.19 106.916 132.19 106.911C132.19 106.911 132.19 106.911 132.19 106.907C132.19 106.907 132.19 106.907 132.19 106.902C132.19 106.902 132.19 106.902 132.19 106.898C132.19 106.898 132.19 106.893 132.19 106.889C132.19 106.889 132.19 106.889 132.19 106.884C132.19 106.884 132.19 106.884 132.19 106.879C132.19 106.879 132.19 106.879 132.19 106.875C132.19 106.875 132.19 106.875 132.19 106.87C132.19 106.87 132.19 106.87 132.19 106.866C132.19 106.866 132.19 106.866 132.19 106.857C132.19 106.857 132.19 106.857 132.19 106.852C132.19 106.852 132.19 106.848 132.19 106.843C132.19 106.843 132.19 106.839 132.19 106.834C132.19 106.834 132.19 106.829 132.19 106.825C132.19 106.825 132.19 106.82 132.19 106.816C132.19 106.816 132.19 106.816 132.19 106.811C132.19 106.811 132.19 106.807 132.19 106.802C132.19 106.802 132.19 106.802 132.19 106.798C132.19 106.798 132.19 106.793 132.19 106.789C132.19 106.789 132.19 106.789 132.19 106.784C132.19 106.784 132.19 106.779 132.19 106.775C132.19 106.775 132.19 106.775 132.19 106.77C132.19 106.77 132.19 106.766 132.19 106.761C132.19 106.761 132.19 106.761 132.19 106.757C132.19 106.757 132.19 106.752 132.19 106.748C132.19 106.748 132.19 106.748 132.19 106.743C132.19 106.743 132.19 106.739 132.19 106.734V106.729C132.19 106.729 132.19 106.725 132.19 106.72C132.19 106.72 132.19 106.716 132.19 106.711C132.19 106.711 132.19 106.711 132.19 106.707C132.19 106.707 132.19 106.702 132.19 106.698C132.19 106.698 132.19 106.698 132.19 106.693C132.19 106.693 132.19 106.689 132.19 106.684C132.19 106.684 132.19 106.684 132.19 106.68C132.19 106.68 132.19 106.675 132.19 106.67C132.19 106.67 132.19 106.67 132.19 106.666C132.19 106.666 132.19 106.661 132.19 106.657C132.19 106.657 132.19 106.657 132.19 106.652C132.19 106.652 132.19 106.648 132.19 106.643C132.19 106.643 132.19 106.643 132.19 106.639C132.19 106.639 132.19 106.634 132.19 106.63V106.62C132.19 106.62 132.19 106.616 132.19 106.611C132.19 106.611 132.19 106.607 132.19 106.602C132.19 106.602 132.19 106.598 132.19 106.593C132.19 106.593 132.19 106.593 132.19 106.589C132.19 106.589 132.19 106.589 132.19 106.584C132.19 106.584 132.19 106.58 132.19 106.575C132.19 106.575 132.19 106.575 132.19 106.57C132.19 106.57 132.19 106.566 132.19 106.561C132.19 106.561 132.19 106.561 132.19 106.557C132.19 106.557 132.19 106.552 132.19 106.548C132.19 106.548 132.19 106.548 132.19 106.543C132.19 106.543 132.19 106.539 132.19 106.534C132.19 106.534 132.19 106.534 132.19 106.53C132.19 106.53 132.19 106.525 132.19 106.52C132.19 106.52 132.19 106.516 132.19 106.511C132.19 106.511 132.19 106.507 132.19 106.502C132.19 106.502 132.19 106.502 132.19 106.498C132.19 106.498 132.19 106.493 132.19 106.489C132.19 106.489 132.19 106.484 132.19 106.48C132.19 106.48 132.19 106.475 132.19 106.47C132.19 106.47 132.19 106.47 132.19 106.466C132.19 106.466 132.19 106.466 132.19 106.461C132.19 106.461 132.19 106.457 132.19 106.452C132.19 106.452 132.19 106.448 132.19 106.443C132.19 106.443 132.19 106.439 132.19 106.434C132.19 106.434 132.19 106.434 132.19 106.43C132.19 106.43 132.19 106.425 132.19 106.42C132.19 106.42 132.19 106.416 132.19 106.411C132.19 106.411 132.19 106.407 132.19 106.402C132.19 106.402 132.19 106.398 132.19 106.393C132.19 106.393 132.19 106.389 132.19 106.384C132.19 106.384 132.19 106.384 132.19 106.38C132.19 106.38 132.19 106.375 132.19 106.37C132.19 106.37 132.19 106.366 132.19 106.361C132.19 106.361 132.19 106.357 132.19 106.352C132.19 106.352 132.19 106.348 132.19 106.343C132.19 106.343 132.19 106.339 132.19 106.334C132.19 106.334 132.19 106.33 132.19 106.325C132.19 106.325 132.19 106.32 132.19 106.316C132.19 106.316 132.19 106.311 132.19 106.307C132.19 106.307 132.19 106.307 132.19 106.302C132.19 106.302 132.19 106.298 132.19 106.293C132.19 106.293 132.19 106.289 132.19 106.284C132.19 106.284 132.19 106.28 132.19 106.275C132.19 106.275 132.19 106.271 132.19 106.266C132.19 106.266 132.19 106.261 132.19 106.257C132.19 106.257 132.19 106.252 132.19 106.248C132.19 106.248 132.19 106.243 132.19 106.239C132.19 106.239 132.19 106.234 132.19 106.23C132.19 106.23 132.19 106.225 132.19 106.221C132.19 106.221 132.19 106.216 132.19 106.211C132.19 106.211 132.19 106.207 132.19 106.202C132.19 106.202 132.19 106.198 132.19 106.193C132.19 106.193 132.19 106.189 132.19 106.184C132.19 106.184 132.19 106.171 132.195 106.166C132.195 106.166 132.195 106.161 132.195 106.157C132.195 106.157 132.195 106.152 132.195 106.148C132.195 106.148 132.195 106.143 132.195 106.139C132.195 106.139 132.195 106.134 132.195 106.13C132.195 106.13 132.195 106.125 132.195 106.121C132.195 106.121 132.195 106.116 132.195 106.111C132.195 106.111 132.195 106.107 132.195 106.102C132.195 106.102 132.195 106.098 132.195 106.093C132.195 106.093 132.195 106.089 132.195 106.084C132.195 106.084 132.195 106.08 132.195 106.075C132.195 106.075 132.195 106.071 132.195 106.066C132.195 106.066 132.195 106.066 132.195 106.057C132.195 106.057 132.195 106.052 132.195 106.048C132.195 106.048 132.195 106.034 132.199 106.03C132.199 106.03 132.199 106.025 132.199 106.021C132.199 106.021 132.199 106.016 132.199 106.011C132.199 106.011 132.199 106.007 132.199 106.002C132.199 106.002 132.199 105.998 132.199 105.993C132.199 105.993 132.199 105.989 132.199 105.984C132.199 105.984 132.199 105.98 132.199 105.975C132.199 105.975 132.199 105.971 132.199 105.966C132.199 105.966 132.199 105.961 132.199 105.957C132.199 105.957 132.199 105.952 132.199 105.948C132.199 105.948 132.199 105.943 132.199 105.939C132.199 105.939 132.199 105.934 132.199 105.93C132.199 105.93 132.199 105.925 132.199 105.921C132.199 105.921 132.199 105.916 132.199 105.911C132.199 105.911 132.199 105.907 132.199 105.902C132.199 105.902 132.199 105.898 132.199 105.893C132.199 105.893 132.199 105.88 132.204 105.875C132.204 105.875 132.204 105.871 132.204 105.866C132.204 105.866 132.204 105.861 132.204 105.857C132.204 105.852 132.204 105.848 132.208 105.839C132.208 105.839 132.208 105.834 132.208 105.83C132.208 105.83 132.208 105.825 132.208 105.821C132.208 105.821 132.208 105.816 132.208 105.812C132.208 105.812 132.208 105.807 132.208 105.802C132.208 105.802 132.208 105.798 132.208 105.793C132.208 105.793 132.208 105.789 132.208 105.784C132.208 105.784 132.208 105.78 132.208 105.775C132.208 105.775 132.208 105.771 132.208 105.766C132.208 105.766 132.208 105.762 132.208 105.757C132.208 105.757 132.208 105.752 132.208 105.748C132.208 105.748 132.208 105.743 132.208 105.739C132.208 105.734 132.208 105.73 132.213 105.721C132.213 105.716 132.213 105.712 132.217 105.702C132.217 105.702 132.217 105.698 132.217 105.693C132.217 105.693 132.217 105.689 132.217 105.684C132.217 105.684 132.217 105.68 132.217 105.675C132.217 105.675 132.217 105.671 132.217 105.666C132.217 105.666 132.217 105.662 132.217 105.657C132.217 105.657 132.217 105.652 132.217 105.648C132.217 105.648 132.217 105.643 132.217 105.639C132.217 105.639 132.217 105.634 132.217 105.63C132.217 105.63 132.217 105.625 132.217 105.621C132.217 105.621 132.217 105.612 132.222 105.602C132.222 105.598 132.222 105.589 132.227 105.584C132.227 105.584 132.227 105.571 132.231 105.566C132.231 105.562 132.231 105.557 132.236 105.548C132.236 105.548 132.236 105.543 132.236 105.539C132.236 105.539 132.236 105.534 132.236 105.53C132.236 105.53 132.236 105.525 132.236 105.521C132.236 105.521 132.236 105.516 132.236 105.512C132.236 105.512 132.236 105.507 132.236 105.502C132.236 105.502 132.236 105.498 132.236 105.493C132.236 105.493 132.236 105.489 132.236 105.484C132.236 105.484 132.236 105.48 132.236 105.475C132.236 105.475 132.236 105.471 132.236 105.466C132.236 105.466 132.236 105.462 132.236 105.457C132.236 105.457 132.236 105.452 132.236 105.448C132.236 105.443 132.236 105.439 132.236 105.43C132.236 105.43 132.236 105.416 132.236 105.412C132.236 105.407 132.236 105.403 132.236 105.393C132.236 105.393 132.236 105.389 132.236 105.384C132.236 105.384 132.236 105.38 132.236 105.375C132.236 105.375 132.236 105.371 132.236 105.366C132.236 105.366 132.236 105.362 132.236 105.357C132.236 105.357 132.236 105.353 132.236 105.348C132.236 105.348 132.236 105.343 132.236 105.339C132.236 105.339 132.236 105.334 132.236 105.33C132.236 105.33 132.236 105.325 132.236 105.321C132.236 105.321 132.236 105.316 132.236 105.312C132.236 105.312 132.236 105.307 132.236 105.303C132.236 105.303 132.236 105.298 132.236 105.293C132.236 105.289 132.236 105.284 132.236 105.275C132.236 105.275 132.236 105.262 132.236 105.257C132.236 105.257 132.236 105.253 132.236 105.248C132.236 105.248 132.236 105.243 132.236 105.239C132.236 105.239 132.236 105.234 132.236 105.23C132.236 105.23 132.236 105.225 132.236 105.221C132.236 105.221 132.236 105.216 132.236 105.212C132.236 105.212 132.236 105.207 132.236 105.203C132.236 105.203 132.236 105.198 132.236 105.193C132.236 105.193 132.236 105.189 132.236 105.184C132.236 105.184 132.236 105.18 132.236 105.175C132.236 105.175 132.236 105.171 132.236 105.166C132.236 105.166 132.236 105.162 132.236 105.157C132.236 105.157 132.236 105.153 132.236 105.148C132.236 105.148 132.236 105.143 132.236 105.139C132.236 105.134 132.236 105.13 132.236 105.121C132.236 105.116 132.236 105.112 132.236 105.103C132.236 105.103 132.236 105.098 132.236 105.093C132.236 105.093 132.236 105.089 132.236 105.084C132.236 105.084 132.236 105.08 132.236 105.075C132.236 105.075 132.236 105.071 132.236 105.066C132.236 105.066 132.236 105.062 132.236 105.057C132.236 105.057 132.236 105.053 132.236 105.048C132.236 105.048 132.236 105.043 132.236 105.039C132.236 105.039 132.236 105.034 132.236 105.03V105.021C132.236 105.021 132.236 105.016 132.236 105.012C132.236 105.012 132.236 105.007 132.236 105.003C132.236 105.003 132.236 104.998 132.236 104.994C132.236 104.994 132.236 104.989 132.236 104.984V104.975C132.236 104.975 132.236 104.971 132.236 104.966C132.236 104.966 132.236 104.962 132.236 104.957C132.236 104.957 132.236 104.953 132.236 104.948C132.236 104.948 132.236 104.944 132.236 104.939C132.236 104.939 132.236 104.934 132.236 104.93C132.236 104.93 132.236 104.925 132.236 104.921C132.236 104.921 132.236 104.921 132.236 104.916C132.236 104.916 132.236 104.912 132.236 104.907C132.236 104.907 132.236 104.903 132.236 104.898C132.236 104.898 132.236 104.894 132.236 104.889C132.236 104.889 132.236 104.889 132.236 104.884C132.236 104.884 132.236 104.88 132.236 104.875C132.236 104.875 132.236 104.871 132.236 104.866C132.236 104.866 132.236 104.862 132.236 104.857C132.236 104.857 132.236 104.853 132.236 104.848C132.236 104.848 132.236 104.844 132.236 104.839C132.236 104.834 132.236 104.83 132.236 104.821C132.236 104.816 132.236 104.812 132.236 104.803C132.236 104.803 132.236 104.798 132.236 104.794C132.236 104.794 132.236 104.789 132.236 104.784C132.236 104.784 132.236 104.78 132.236 104.775C132.236 104.775 132.236 104.771 132.236 104.766C132.236 104.766 132.236 104.762 132.236 104.757C132.236 104.757 132.236 104.753 132.236 104.748C132.236 104.748 132.236 104.744 132.236 104.739C132.236 104.739 132.236 104.734 132.236 104.73C132.236 104.73 132.236 104.725 132.236 104.721C132.236 104.721 132.236 104.716 132.236 104.712C132.236 104.712 132.236 104.707 132.236 104.703C132.236 104.698 132.236 104.694 132.236 104.684C132.236 104.68 132.236 104.671 132.236 104.666C132.236 104.666 132.236 104.653 132.236 104.648C132.236 104.648 132.236 104.644 132.236 104.639C132.236 104.639 132.236 104.634 132.236 104.63C132.236 104.63 132.236 104.625 132.236 104.621C132.236 104.621 132.236 104.616 132.236 104.612C132.236 104.612 132.236 104.607 132.236 104.603C132.236 104.603 132.236 104.598 132.236 104.594C132.236 104.594 132.236 104.589 132.236 104.585C132.236 104.585 132.236 104.58 132.236 104.575C132.236 104.575 132.236 104.571 132.236 104.566C132.236 104.566 132.236 104.562 132.236 104.557C132.236 104.557 132.236 104.553 132.236 104.548C132.236 104.544 132.236 104.539 132.236 104.53C132.236 104.525 132.236 104.521 132.236 104.512C132.236 104.507 132.236 104.503 132.236 104.494C132.236 104.494 132.236 104.489 132.236 104.485C132.236 104.485 132.236 104.48 132.236 104.475C132.236 104.475 132.236 104.471 132.236 104.466C132.236 104.466 132.236 104.462 132.236 104.457C132.236 104.457 132.236 104.453 132.236 104.448C132.236 104.448 132.236 104.448 132.236 104.444C132.236 104.444 132.236 104.439 132.236 104.435C132.236 104.435 132.236 104.43 132.236 104.425C132.236 104.425 132.236 104.421 132.236 104.416C132.236 104.416 132.236 104.412 132.236 104.407C132.236 104.407 132.236 104.403 132.236 104.398C132.236 104.398 132.236 104.394 132.236 104.389C132.236 104.389 132.236 104.385 132.236 104.38C132.236 104.38 132.236 104.375 132.236 104.371C132.236 104.371 132.236 104.366 132.236 104.362C132.236 104.362 132.236 104.357 132.236 104.353C132.236 104.353 132.236 104.348 132.236 104.344C132.236 104.344 132.236 104.339 132.236 104.335C132.236 104.335 132.236 104.33 132.236 104.325C132.236 104.325 132.236 104.321 132.236 104.316C132.236 104.316 132.236 104.312 132.236 104.307C132.236 104.307 132.236 104.303 132.236 104.298C132.236 104.298 132.236 104.294 132.236 104.289C132.236 104.289 132.236 104.285 132.236 104.28V104.271C132.236 104.271 132.236 104.266 132.236 104.262C132.236 104.262 132.236 104.257 132.236 104.253C132.236 104.253 132.236 104.248 132.236 104.244C132.236 104.244 132.236 104.239 132.236 104.235C132.236 104.235 132.236 104.23 132.236 104.225C132.236 104.225 132.236 104.221 132.236 104.216C132.236 104.216 132.236 104.212 132.236 104.207C132.236 104.207 132.236 104.203 132.236 104.198C132.236 104.198 132.236 104.194 132.236 104.189C132.236 104.189 132.236 104.185 132.236 104.18C132.236 104.18 132.236 104.18 132.236 104.175C132.236 104.175 132.236 104.171 132.236 104.166C132.236 104.166 132.236 104.166 132.236 104.162C132.236 104.162 132.236 104.157 132.236 104.153C132.236 104.153 132.236 104.153 132.236 104.148C132.236 104.148 132.236 104.144 132.236 104.139C132.236 104.139 132.236 104.139 132.236 104.13C132.236 104.13 132.236 104.126 132.236 104.121C132.236 104.121 132.236 104.116 132.236 104.112C132.236 104.112 132.236 104.107 132.236 104.103C132.236 104.103 132.236 104.098 132.236 104.094C132.236 104.094 132.236 104.089 132.236 104.085C132.236 104.085 132.236 104.08 132.236 104.076C132.236 104.076 132.236 104.071 132.236 104.066C132.236 104.066 132.236 104.062 132.236 104.057C132.236 104.057 132.236 104.053 132.236 104.048C132.236 104.048 132.236 104.044 132.236 104.039C132.236 104.039 132.236 104.039 132.236 104.035C132.236 104.035 132.236 104.03 132.236 104.026C132.236 104.026 132.236 104.021 132.236 104.016C132.236 104.016 132.236 104.012 132.236 104.007C132.236 104.007 132.236 104.003 132.236 103.998V103.989C132.236 103.989 132.236 103.985 132.236 103.98C132.236 103.98 132.236 103.976 132.236 103.971C132.236 103.971 132.236 103.966 132.236 103.962C132.236 103.962 132.236 103.957 132.236 103.953C132.236 103.948 132.236 103.944 132.236 103.935C132.236 103.93 132.236 103.926 132.236 103.916C132.236 103.916 132.236 103.912 132.236 103.907C132.236 103.907 132.236 103.903 132.236 103.898C132.236 103.898 132.236 103.894 132.236 103.889C132.236 103.889 132.236 103.885 132.236 103.88C132.236 103.88 132.236 103.876 132.236 103.871C132.236 103.871 132.236 103.871 132.236 103.866C132.236 103.866 132.236 103.862 132.236 103.857C132.236 103.857 132.236 103.857 132.236 103.848C132.236 103.848 132.236 103.844 132.236 103.839C132.236 103.839 132.236 103.835 132.236 103.83C132.236 103.83 132.236 103.826 132.236 103.821C132.236 103.821 132.236 103.816 132.236 103.812C132.236 103.812 132.236 103.807 132.236 103.803C132.236 103.803 132.236 103.798 132.236 103.794C132.236 103.794 132.236 103.789 132.236 103.785C132.236 103.785 132.236 103.78 132.236 103.776C132.236 103.776 132.236 103.771 132.236 103.766C132.236 103.766 132.236 103.762 132.236 103.757C132.236 103.757 132.236 103.753 132.236 103.748C132.236 103.748 132.236 103.744 132.236 103.739C132.236 103.739 132.236 103.739 132.236 103.735C132.236 103.735 132.236 103.73 132.236 103.726C132.236 103.726 132.236 103.726 132.236 103.721C132.236 103.721 132.236 103.717 132.236 103.712C132.236 103.712 132.236 103.712 132.236 103.707C132.236 103.707 132.236 103.703 132.236 103.698C132.236 103.698 132.236 103.694 132.236 103.689C132.236 103.689 132.236 103.685 132.236 103.68C132.236 103.68 132.236 103.676 132.236 103.671C132.236 103.671 132.236 103.667 132.236 103.662C132.236 103.657 132.236 103.653 132.236 103.644C132.236 103.644 132.236 103.639 132.236 103.635C132.236 103.635 132.236 103.63 132.236 103.626C132.236 103.626 132.236 103.621 132.236 103.617C132.236 103.617 132.236 103.612 132.236 103.607C132.236 103.607 132.236 103.603 132.236 103.598C132.236 103.598 132.236 103.594 132.236 103.589C132.236 103.589 132.236 103.585 132.236 103.58C132.236 103.58 132.236 103.576 132.236 103.571C132.236 103.571 132.236 103.567 132.236 103.562C132.236 103.562 132.236 103.557 132.236 103.553C132.236 103.553 132.236 103.548 132.236 103.544C132.236 103.544 132.236 103.539 132.236 103.535C132.236 103.535 132.236 103.53 132.236 103.526C132.236 103.526 132.236 103.521 132.236 103.517C132.236 103.517 132.236 103.512 132.236 103.507C132.236 103.507 132.236 103.503 132.236 103.498C132.236 103.498 132.236 103.494 132.236 103.489C132.236 103.489 132.236 103.485 132.236 103.48C132.236 103.48 132.236 103.48 132.236 103.471C132.236 103.471 132.236 103.467 132.236 103.462C132.236 103.462 132.236 103.462 132.236 103.453C132.236 103.453 132.236 103.448 132.236 103.444C132.236 103.444 132.236 103.444 132.236 103.439C132.236 103.439 132.236 103.435 132.236 103.43C132.236 103.43 132.236 103.426 132.236 103.421C132.236 103.421 132.236 103.417 132.236 103.412C132.236 103.412 132.236 103.412 132.236 103.407C132.236 103.407 132.236 103.403 132.236 103.398C132.236 103.398 132.236 103.394 132.236 103.389C132.236 103.389 132.236 103.385 132.236 103.38C132.236 103.38 132.236 103.376 132.236 103.371C132.236 103.371 132.236 103.367 132.236 103.362C132.236 103.362 132.236 103.357 132.236 103.353C132.236 103.353 132.236 103.348 132.236 103.344C132.236 103.344 132.236 103.339 132.236 103.335C132.236 103.335 132.236 103.33 132.236 103.326C132.236 103.326 132.236 103.321 132.236 103.317C132.236 103.317 132.236 103.312 132.236 103.308C132.236 103.308 132.236 103.303 132.236 103.298C132.236 103.298 132.236 103.294 132.236 103.289C132.236 103.289 132.236 103.285 132.236 103.28C132.236 103.28 132.236 103.276 132.236 103.271C132.236 103.271 132.236 103.267 132.236 103.262C132.236 103.262 132.236 103.258 132.236 103.253C132.236 103.253 132.236 103.248 132.236 103.244C132.236 103.244 132.236 103.239 132.236 103.235C132.236 103.235 132.236 103.23 132.236 103.226V103.217V103.208V103.198V103.189V103.18V103.171V103.167V103.162V103.158C132.236 103.158 132.236 103.158 132.236 103.153C132.236 103.153 132.236 103.148 132.236 103.144C132.236 103.144 132.236 103.139 132.236 103.135C132.236 103.126 132.236 103.121 132.236 103.112C132.236 103.112 132.236 103.112 132.236 103.108C132.236 103.108 132.236 103.108 132.236 103.103C132.236 103.103 132.236 103.103 132.236 103.098C132.236 103.098 132.236 103.098 132.236 103.094C132.236 103.094 132.236 103.094 132.236 103.089C132.236 103.089 132.236 103.089 132.236 103.085C132.236 103.067 132.236 103.048 132.236 103.03C132.227 102.762 132.204 102.494 132.172 102.226C132.172 102.226 132.172 102.226 132.172 102.221C132.172 102.221 132.172 102.221 132.172 102.217C132.172 102.217 132.172 102.217 132.172 102.212C132.172 102.212 132.172 102.203 132.172 102.199C132.172 102.199 132.172 102.199 132.172 102.194C132.172 102.194 132.172 102.194 132.172 102.19C132.172 102.19 132.172 102.19 132.172 102.185C132.172 102.185 132.172 102.185 132.172 102.18V102.176C132.172 102.176 132.172 102.176 132.172 102.171C132.149 102.012 132.122 101.858 132.095 101.699C131.913 100.758 131.091 100.104 130.165 100.104L131.4 99.272ZM115.863 88.3198C114.955 88.3198 114.138 88.956 113.942 89.8831C113.72 90.9465 114.397 91.9917 115.459 92.2144C119.17 92.9961 122.458 94.3003 124.974 95.9863C125.31 96.2136 125.691 96.3181 126.068 96.3181C126.704 96.3181 127.326 96.0136 127.703 95.4455C128.307 94.5412 128.067 93.3187 127.163 92.7143C125.124 91.351 122.671 90.1967 119.919 89.3196C119.883 89.306 119.842 89.2969 119.806 89.2832C119.787 89.2787 119.769 89.2696 119.746 89.2651H119.737C119.728 89.2651 119.724 89.2605 119.715 89.256H119.706C119.706 89.256 119.683 89.2469 119.674 89.2469C119.674 89.2469 119.669 89.2469 119.665 89.2469H119.656C119.656 89.2469 119.651 89.2469 119.647 89.2469C119.647 89.2469 119.642 89.2469 119.637 89.2469H119.628C119.628 89.2469 119.624 89.2469 119.619 89.2469C119.619 89.2469 119.619 89.2469 119.61 89.2469C119.61 89.2469 119.606 89.2469 119.601 89.2469C119.601 89.2469 119.597 89.2469 119.592 89.2469C119.592 89.2469 119.592 89.2469 119.588 89.2469C119.588 89.2469 119.588 89.2469 119.583 89.2469C119.583 89.2469 119.583 89.2469 119.578 89.2469C119.578 89.2469 119.578 89.2469 119.574 89.2469H119.569C119.569 89.2469 119.565 89.2469 119.56 89.2469C119.56 89.2469 119.56 89.2469 119.556 89.2469C119.556 89.2469 119.556 89.2469 119.551 89.2469C119.551 89.2469 119.551 89.2469 119.547 89.2469C119.547 89.2469 119.547 89.2469 119.542 89.2469C119.542 89.2469 119.542 89.2469 119.538 89.2469C119.538 89.2469 119.533 89.2469 119.528 89.2469C119.528 89.2469 119.528 89.2469 119.524 89.2469C119.524 89.2469 119.524 89.2469 119.515 89.2469C119.515 89.2469 119.51 89.2469 119.506 89.2469C119.506 89.2469 119.501 89.2469 119.497 89.2469C119.497 89.2469 119.497 89.2469 119.492 89.2469C119.492 89.2469 119.492 89.2469 119.488 89.2469C119.488 89.2469 119.488 89.2469 119.479 89.2469C119.479 89.2469 119.479 89.2469 119.474 89.2469C119.474 89.2469 119.469 89.2469 119.465 89.2469C119.465 89.2469 119.465 89.2469 119.46 89.2469C119.46 89.2469 119.46 89.2469 119.456 89.2469C119.456 89.2469 119.456 89.2469 119.451 89.2469C119.451 89.2469 119.442 89.2469 119.438 89.2469C119.438 89.2469 119.433 89.2469 119.429 89.2469C119.429 89.2469 119.424 89.2469 119.419 89.2469C119.41 89.2469 119.406 89.2423 119.397 89.2423H119.392C119.383 89.2423 119.379 89.2423 119.37 89.2378C119.37 89.2378 119.37 89.2378 119.36 89.2378C119.351 89.2378 119.342 89.2332 119.338 89.2287C119.338 89.2287 119.333 89.2287 119.329 89.2287C119.32 89.2287 119.31 89.2242 119.306 89.2196C119.306 89.2196 119.301 89.2196 119.297 89.2196C119.288 89.2196 119.279 89.2151 119.274 89.2105C119.274 89.2105 119.274 89.2105 119.27 89.2105C119.261 89.2105 119.247 89.206 119.238 89.2014C119.229 89.2014 119.215 89.1969 119.206 89.1923C119.197 89.1923 119.183 89.1878 119.174 89.1833C119.174 89.1833 119.152 89.1742 119.138 89.1742C118.239 88.9151 117.312 88.6788 116.359 88.4789C116.222 88.4516 116.086 88.438 115.954 88.438L115.863 88.3198Z" fill="#3272B9"/>
<path d="M49.0583 3.51535C49.0583 3.51535 45.2388 1.25221 45.0072 1.16586L44.98 1.14768H44.9755C44.3487 0.920457 43.6266 0.938637 42.9681 1.32037L3.44788 24.1518C1.93102 25.0289 1 26.6422 1 28.3964V100.004C1 100.881 1.42238 101.617 2.04002 102.076L2.04912 102.081C2.22169 102.208 2.40788 102.312 2.60317 102.394L6.68143 104.712L6.69507 101.199L44.5349 79.3309C45.7747 78.6174 46.5377 77.295 46.5377 75.8635V5.08775L49.0719 3.51082L49.0583 3.51535Z" fill="#3D84BB" stroke="#19374E" stroke-width="2" stroke-linecap="round" stroke-linejoin="round"/>
<path d="M7.17146 26.3562L46.6917 3.52472C48.2767 2.61127 50.2567 3.75194 50.2567 5.58336V78.0678C50.2567 79.4993 49.4893 80.8218 48.254 81.5353L8.60204 104.449C6.87627 105.444 4.72363 104.199 4.72363 102.208V30.6007C4.72363 28.8511 5.65459 27.2333 7.17146 26.3562Z" fill="white" stroke="#19374E" stroke-width="2" stroke-linecap="round" stroke-linejoin="round"/>
<path d="M35.874 6.99163H31.5732C31.3598 5.26019 30.4197 3.81504 28.9437 3.26515C26.6093 2.38807 23.8163 4.06952 22.7127 7.02343C22.1224 8.60037 22.1359 10.2137 22.6264 11.5134L18.1485 15.6716C16.8496 16.8759 16.1094 18.571 16.1094 20.3433V23.2654C16.1094 25.524 18.5482 26.9328 20.501 25.8058L36.4962 16.5623C37.9677 15.7125 38.876 14.1401 38.876 12.4405V10.0001C38.876 8.34134 37.5317 6.99617 35.874 6.99617V6.99163Z" fill="#3D84BB" stroke="#19374E" stroke-width="2" stroke-linecap="round" stroke-linejoin="round"/>
<path d="M28.5569 9.03181C28.6115 7.99166 28.1421 7.12141 27.5084 7.08807C26.8747 7.05473 26.3167 7.87092 26.2621 8.91107C26.2074 9.95121 26.6768 10.8215 27.3105 10.8548C27.9442 10.8882 28.5022 10.072 28.5569 9.03181Z" fill="#19374E"/>
<path d="M19.4932 37.3671L43.209 23.6655" stroke="#19374E" stroke-width="2" stroke-linecap="round" stroke-linejoin="round"/>
<path d="M19.4932 46.143L43.209 32.4414" stroke="#19374E" stroke-width="2" stroke-linecap="round" stroke-linejoin="round"/>
<path d="M19.4932 54.9174L43.209 41.2158" stroke="#19374E" stroke-width="2" stroke-linecap="round" stroke-linejoin="round"/>
<path d="M19.4932 63.8842L43.209 50.1826" stroke="#19374E" stroke-width="2" stroke-linecap="round" stroke-linejoin="round"/>
<path d="M8.48923 39.8935L11.4639 44.2335L15.6194 34.4629C15.6739 34.3311 15.5604 34.2947 15.4877 34.4174L11.5593 41.4659L8.6255 39.6981C8.55737 39.6572 8.44382 39.8208 8.49377 39.889L8.48923 39.8935Z" fill="#3D84BB"/>
<path d="M8.48923 49.2558L11.4639 53.5958L15.6194 43.8252C15.6739 43.6934 15.5604 43.657 15.4877 43.7797L11.5593 50.8282L8.6255 49.0604C8.55737 49.0195 8.44382 49.1831 8.49377 49.2513L8.48923 49.2558Z" fill="#3D84BB"/>
<path d="M8.48923 58.6133L11.4639 62.9532L15.6194 53.1826C15.6739 53.0508 15.5604 53.0145 15.4877 53.1372L11.5593 60.1856L8.6255 58.4179C8.55737 58.377 8.44382 58.5405 8.49377 58.6087L8.48923 58.6133Z" fill="#3D84BB"/>
<path d="M8.48923 67.9702L11.4639 72.3102L15.6194 62.5395C15.6739 62.4077 15.5604 62.3714 15.4877 62.4941L11.5593 69.5426L8.6255 67.7748C8.55737 67.7339 8.44382 67.8975 8.49377 67.9656L8.48923 67.9702Z" fill="#3D84BB"/>
<path d="M73.1152 63.3349L79.9366 59.3721L85.4772 56.2183L78.6604 60.1856L73.1152 63.3349Z" fill="white" stroke="#19374E" stroke-width="2" stroke-linecap="round" stroke-linejoin="round"/>
<path d="M110.823 95.391L117.644 91.4282L117.594 99.7901L110.777 103.753L110.823 95.391Z" fill="#3D84BB" stroke="#19374E" stroke-linecap="round" stroke-linejoin="round"/>
<path d="M68.9863 29.6914L75.8031 25.7241L83.9188 30.464L77.102 34.4268L68.9863 29.6914Z" fill="#3D84BB" stroke="#19374E" stroke-width="2" stroke-linecap="round" stroke-linejoin="round"/>
<path d="M110.424 71.8967C102.817 67.5022 96.6675 56.7954 96.6947 47.9973C96.7084 43.6073 98.2525 40.5171 100.746 39.0674L93.929 43.0347C91.4402 44.4844 89.8916 47.5701 89.878 51.9646C89.8553 60.7673 95.9999 71.4695 103.607 75.864C107.417 78.0681 110.873 78.2681 113.376 76.8093L120.193 72.842C117.69 74.2962 114.234 74.0962 110.424 71.8922V71.8967Z" fill="#3D84BB" stroke="#19374E" stroke-linecap="round" stroke-linejoin="round"/>
<path d="M128.026 89.8427L134.843 85.8799L140.043 94.9416L133.226 98.9044L128.026 89.8427Z" fill="#3D84BB" stroke="#19374E" stroke-linecap="round" stroke-linejoin="round"/>
<path d="M85.1729 13.5044L91.9942 9.53711L97.8165 19.7622L90.9996 23.725L85.1729 13.5044Z" fill="#3D84BB" stroke="#19374E" stroke-linecap="round" stroke-linejoin="round"/>
<path d="M74.0098 19.7804L80.8311 15.8176L91.9941 9.53711L85.1728 13.5044L74.0098 19.7804Z" fill="white" stroke="#19374E" stroke-linecap="round" stroke-linejoin="round"/>
<path d="M130.501 84.4942L137.318 80.5269C136.714 82.5628 135.879 84.3488 134.843 85.8757L128.026 89.843C129.062 88.3116 129.897 86.5301 130.501 84.4942Z" fill="#3D84BB"/>
<mask id="mask0_1296_38757" style="mask-type:luminance" maskUnits="userSpaceOnUse" x="128" y="80" width="10" height="10">
<path d="M130.501 84.4942L137.318 80.5269C136.714 82.5628 135.879 84.3488 134.843 85.8757L128.026 89.843C129.062 88.3116 129.897 86.5301 130.501 84.4942Z" fill="white"/>
</mask>
<g mask="url(#mask0_1296_38757)">
<path d="M130.501 84.4942L137.318 80.5269C136.714 82.5628 135.879 84.3488 134.843 85.8757L128.026 89.843C129.062 88.3116 129.897 86.5301 130.501 84.4942Z" fill="#3D84BB" stroke="#19374E" stroke-linecap="round" stroke-linejoin="round"/>
</g>
<path d="M130.501 84.4942L137.318 80.5269C136.714 82.5628 135.879 84.3488 134.843 85.8757L128.026 89.843C129.062 88.3116 129.897 86.5301 130.501 84.4942Z" stroke="#19374E" stroke-linecap="round" stroke-linejoin="round"/>
<path d="M90.999 23.7244L97.8158 19.757C99.5325 19.7298 101.358 19.9615 103.261 20.4705L96.4443 24.4378C94.5369 23.9334 92.7157 23.7016 90.999 23.7244Z" fill="#3D84BB"/>
<mask id="mask1_1296_38757" style="mask-type:luminance" maskUnits="userSpaceOnUse" x="90" y="19" width="14" height="6">
<path d="M90.999 23.7244L97.8158 19.757C99.5325 19.7298 101.358 19.9615 103.261 20.4705L96.4443 24.4378C94.5369 23.9334 92.7157 23.7016 90.999 23.7244Z" fill="white"/>
</mask>
<g mask="url(#mask1_1296_38757)">
<path d="M90.999 23.7244L97.8158 19.757C99.5325 19.7298 101.358 19.9615 103.261 20.4705L96.4443 24.4378C94.5369 23.9334 92.7157 23.7016 90.999 23.7244Z" fill="#3D84BB" stroke="#19374E" stroke-linecap="round" stroke-linejoin="round"/>
</g>
<path d="M90.999 23.7244L97.8158 19.757C99.5325 19.7298 101.358 19.9615 103.261 20.4705L96.4443 24.4378C94.5369 23.9334 92.7157 23.7016 90.999 23.7244Z" stroke="#19374E" stroke-width="2" stroke-linecap="round" stroke-linejoin="round"/>
<path d="M128.376 58.9131L135.193 54.9458C136.101 57.4362 136.832 59.9402 137.373 62.4306L130.556 66.3979C130.015 63.9075 129.284 61.399 128.381 58.9131H128.376Z" fill="#3D84BB"/>
<mask id="mask2_1296_38757" style="mask-type:luminance" maskUnits="userSpaceOnUse" x="128" y="54" width="10" height="13">
<path d="M128.376 58.9131L135.193 54.9458C136.101 57.4362 136.832 59.9402 137.373 62.4306L130.556 66.3979C130.015 63.9075 129.284 61.399 128.381 58.9131H128.376Z" fill="white"/>
</mask>
<g mask="url(#mask2_1296_38757)">
<path d="M128.376 58.9131L135.193 54.9458C136.101 57.4362 136.832 59.9402 137.373 62.4306L130.556 66.3979C130.015 63.9075 129.284 61.399 128.381 58.9131H128.376Z" fill="#3D84BB" stroke="#19374E" stroke-width="2" stroke-linecap="round" stroke-linejoin="round"/>
</g>
<path d="M128.376 58.9131L135.193 54.9458C136.101 57.4362 136.832 59.9402 137.373 62.4306L130.556 66.3979C130.015 63.9075 129.284 61.399 128.381 58.9131H128.376Z" stroke="#19374E" stroke-width="2" stroke-linecap="round" stroke-linejoin="round"/>
<path d="M112.081 33.8277L118.898 29.8604C120.792 31.6463 122.599 33.5959 124.293 35.6909L117.476 39.6582C115.782 37.5632 113.975 35.6091 112.081 33.8277Z" fill="#3D84BB"/>
<mask id="mask3_1296_38757" style="mask-type:luminance" maskUnits="userSpaceOnUse" x="112" y="29" width="13" height="11">
<path d="M112.081 33.8277L118.898 29.8604C120.792 31.6463 122.599 33.5959 124.293 35.6909L117.476 39.6582C115.782 37.5632 113.975 35.6091 112.081 33.8277Z" fill="white"/>
</mask>
<g mask="url(#mask3_1296_38757)">
<path d="M112.081 33.8277L118.898 29.8604C120.792 31.6463 122.599 33.5959 124.293 35.6909L117.476 39.6582C115.782 37.5632 113.975 35.6091 112.081 33.8277Z" fill="#3D84BB" stroke="#19374E" stroke-width="2" stroke-linecap="round" stroke-linejoin="round"/>
</g>
<path d="M112.081 33.8277L118.898 29.8604C120.792 31.6463 122.599 33.5959 124.293 35.6909L117.476 39.6582C115.782 37.5632 113.975 35.6091 112.081 33.8277Z" stroke="#19374E" stroke-width="2" stroke-linecap="round" stroke-linejoin="round"/>
<path d="M138.244 70.8423L145.066 66.875L145.011 84.9711L138.194 88.9384L138.244 70.8423Z" fill="#3D84BB" stroke="#19374E" stroke-linecap="round" stroke-linejoin="round"/>
<path d="M130.551 66.3978L137.372 62.4351L145.065 66.875L138.244 70.8423L130.551 66.3978Z" fill="#3D84BB" stroke="#19374E" stroke-linecap="round" stroke-linejoin="round"/>
<path d="M96.54 15.1182L103.357 11.1509L118.998 20.3353L112.176 24.2981L96.54 15.1182Z" fill="#3D84BB" stroke="#19374E" stroke-linecap="round" stroke-linejoin="round"/>
<path d="M112.176 24.2973L118.998 20.3345L118.902 29.8597L112.081 33.827L112.176 24.2973Z" fill="#3D84BB" stroke="#19374E" stroke-linecap="round" stroke-linejoin="round"/>
<path d="M117.477 39.6581L124.298 35.6907L130.016 32.5142L123.199 36.4769L117.477 39.6581Z" fill="white" stroke="#19374E" stroke-linecap="round" stroke-linejoin="round"/>
<path d="M138.195 88.9381L130.501 84.4936C129.897 86.5295 129.062 88.3155 128.026 89.8424L133.226 98.9041L122.118 105.289L116.845 96.1002C114.956 96.1911 112.939 95.9593 110.823 95.3958L110.777 103.758L95.1456 94.6777L95.191 85.9841C93.1201 84.0391 91.1582 81.8805 89.337 79.5719L84.0961 82.5485L73.1193 63.339L78.6645 60.1897C77.738 57.5312 77.0068 54.8499 76.5027 52.205L68.8594 47.7378L68.991 29.6962L77.1068 34.4361C77.738 32.5865 78.5782 30.9641 79.5864 29.569L74.0185 19.7893L85.1815 13.5088L91.0083 23.7293C92.725 23.7021 94.5507 23.9338 96.4536 24.4428L96.5489 15.1221L112.185 24.3019L112.09 33.8317C113.984 35.6177 115.791 37.5673 117.485 39.6623L123.208 36.4811L134.125 55.7225L128.385 58.9127C129.293 61.4031 130.024 63.9071 130.56 66.3974L138.254 70.842L138.204 88.9381H138.195ZM103.606 75.8636C111.213 80.2581 117.404 76.6816 117.426 67.8789C117.449 59.0763 111.304 48.3786 103.697 43.9841C96.0902 39.5896 89.9002 43.1615 89.8775 51.9642C89.8548 60.7668 95.9994 71.4691 103.606 75.8636Z" fill="white" stroke="#19374E" stroke-linecap="round" stroke-linejoin="round"/>
<path d="M123.198 36.4769L130.015 32.5142L140.933 51.7555L134.116 55.7228L123.198 36.4769Z" fill="#3D84BB" stroke="#19374E" stroke-linecap="round" stroke-linejoin="round"/>
</svg>
