<svg width="197" height="176" viewBox="0 0 197 176" fill="none" xmlns="http://www.w3.org/2000/svg">
<path fill-rule="evenodd" clip-rule="evenodd" d="M150.405 28.2089V101.514C150.405 116.567 144.029 129.513 132.399 138.078L85.0703 172.927V3.28125C102.837 18.853 125.593 28.2089 150.405 28.2089Z" fill="#2E78AC"/>
<path d="M135.415 125.886C154.612 125.886 170.174 110.323 170.174 91.1266C170.174 71.9298 154.612 56.3677 135.415 56.3677C116.218 56.3677 100.656 71.9298 100.656 91.1266C100.656 110.323 116.218 125.886 135.415 125.886Z" fill="white"/>
<path fill-rule="evenodd" clip-rule="evenodd" d="M164.914 127.054L171.345 120.623C172.199 119.768 173.597 119.768 174.45 120.623L192.97 139.142C193.823 139.995 193.823 141.393 192.97 142.247L186.538 148.678C185.684 149.532 184.286 149.532 183.432 148.678L164.913 130.159C164.06 129.305 164.06 127.908 164.914 127.054Z" fill="white"/>
<path fill-rule="evenodd" clip-rule="evenodd" d="M133.966 109.403C132.213 109.403 130.791 110.823 130.791 112.586C130.791 114.338 132.214 115.756 133.966 115.756C135.724 115.756 137.142 114.33 137.142 112.578C137.142 110.826 135.724 109.403 133.966 109.403ZM189.906 140.587L172.772 123.458L167.727 128.503L184.861 145.637L189.906 140.587ZM157.625 68.6894C169.939 81.0029 169.939 101.037 157.625 113.356C145.312 125.67 125.272 125.67 112.958 113.356C100.645 101.037 100.645 81.0029 112.958 68.6894C125.276 56.3713 145.316 56.3748 157.625 68.6894ZM137.423 128.87C135.373 131.28 133.033 133.471 130.395 135.416L88.1224 166.541V9.88457C105.273 23.0648 125.885 30.5448 147.109 31.2268V54.9902C133.953 50.6991 118.905 53.7651 108.472 64.1981C93.6761 78.9889 93.6761 103.055 108.472 117.843C116.345 125.715 127 129.497 137.423 128.87ZM81.7741 9.88457C64.6291 23.0648 44.0065 30.5448 22.7766 31.2268V51.2582H59.6349L53.6239 47.3632C52.1524 46.4106 51.7324 44.4417 52.6849 42.9732C53.6425 41.5017 55.6063 41.0822 57.0773 42.0342L72.4568 52.0421C73.8716 53.2391 73.9554 55.4915 72.4111 56.8657L57.0773 66.8279C55.6214 67.7754 53.6445 67.3709 52.6849 65.8914C51.7324 64.4174 52.1524 62.4536 53.6239 61.5015L59.6349 57.6064H22.7766V86.375H59.6349L53.6234 82.4799C52.1519 81.5273 51.7318 79.5585 52.6844 78.09C53.642 76.6185 55.6058 76.1934 57.0768 77.151L72.4106 87.1157C73.856 88.3092 73.9895 90.4943 72.4106 91.9844L57.0768 101.944C55.6129 102.897 53.644 102.487 52.6844 101.008C51.7318 99.5336 52.1519 97.5703 53.6234 96.6152L59.6344 92.7257H22.7766V101.407C22.7766 108.734 24.4082 115.531 27.5063 121.489H59.6349L53.6239 117.596C52.1524 116.641 51.7324 114.678 52.6849 113.204C53.6425 111.735 55.6063 111.312 57.0773 112.267L72.4111 122.229C74.255 123.87 73.6121 126.47 72.0955 127.329L57.0773 137.061C55.6129 138.014 53.643 137.602 52.6849 136.127C51.7324 134.653 52.1524 132.687 53.6239 131.732L59.6349 127.837H31.6152C33.846 130.656 36.4814 133.195 39.4936 135.416L81.7741 166.549V9.88457ZM195.088 144.386L188.657 150.819C186.564 152.913 183.157 152.914 181.065 150.819L162.545 132.299C160.45 130.207 160.448 126.807 162.545 124.704L163.514 123.731L159.771 119.991C155.759 123.38 151.208 125.814 146.422 127.275C143.277 132.392 139.157 136.849 134.162 140.527L86.828 175.379C85.7058 176.206 84.1821 176.207 83.0615 175.379L35.7275 140.527C30.891 136.964 26.9026 132.684 23.8286 127.836H3.17637C1.42432 127.836 0.0010032 126.419 0.0010032 124.661C0.0010032 122.909 1.42432 121.488 3.17637 121.488H20.463C17.8146 115.389 16.4289 108.616 16.4289 101.406V92.7252H3.17537C1.42332 92.7252 0 91.3019 0 89.5498C0 87.7923 1.42332 86.3745 3.17537 86.3745H16.4284V57.6059H3.17537C1.42332 57.6059 0 56.1851 0 54.4331C0 52.681 1.42332 51.2577 3.17537 51.2577H16.4284V28.1017C16.4284 26.3466 17.8512 24.9263 19.6038 24.9263C42.6313 24.9263 65.0948 16.3522 82.8577 0.788572C84.0562 -0.262857 85.8459 -0.262857 87.0443 0.788572C104.805 16.3527 127.263 24.9263 150.285 24.9263C152.037 24.9263 153.46 26.3471 153.46 28.1017V57.7264C156.569 59.4197 159.487 61.5733 162.117 64.1976C176.151 78.2315 176.857 100.609 164.26 115.499L168.005 119.244L168.974 118.27C171.071 116.178 174.479 116.178 176.568 118.27L195.089 136.79C197.183 138.885 197.182 142.293 195.088 144.386ZM147.665 84.4623C147.665 76.9051 141.523 70.7631 133.966 70.7631C130.05 70.7631 126.318 72.4429 123.718 75.3723C122.554 76.6857 122.675 78.6922 123.985 79.8556C125.299 81.0194 127.305 80.899 128.469 79.5906C132.935 74.5608 141.315 77.7111 141.315 84.4618C141.315 87.5945 139.33 90.3875 136.366 91.4093C132.98 92.5812 130.791 95.6496 130.791 99.2315V103.464C130.791 105.216 132.215 106.639 133.967 106.639C135.724 106.639 137.142 105.216 137.142 103.464V99.2315C137.142 98.3703 137.629 97.6908 138.442 97.4097C143.958 95.5051 147.665 90.3021 147.665 84.4623Z" fill="#2E78AC"/>
</svg>
