<svg width="98" height="98" viewBox="0 0 98 98" fill="none" xmlns="http://www.w3.org/2000/svg">
<path d="M64.7653 44.526C64.7653 35.5838 57.5161 28.3347 48.5741 28.3347C39.6319 28.3347 32.3828 35.5838 32.3828 44.526C32.3828 53.468 39.6319 60.7172 48.5741 60.7172C57.5161 60.7172 64.7653 53.468 64.7653 44.526Z" stroke="white" stroke-width="2.60216" stroke-linecap="round" stroke-linejoin="round"/>
<path d="M20.5197 60.7177C17.7644 55.9546 16.1875 50.4245 16.1875 44.5264C16.1875 26.642 30.6856 12.1439 48.57 12.1439C66.4544 12.1439 80.9525 26.642 80.9525 44.5264C80.9525 50.4245 79.3755 55.9546 76.6201 60.7177" stroke="white" stroke-width="2.60216" stroke-linecap="round" stroke-linejoin="round"/>
<path d="M72.8609 85.0044C72.8609 71.5912 61.9872 60.7175 48.574 60.7175C35.1607 60.7175 24.2871 71.5912 24.2871 85.0044" stroke="white" stroke-width="2.60216" stroke-linecap="round" stroke-linejoin="round"/>
</svg>
