<svg width="60" height="66" viewBox="0 0 60 66" fill="none" xmlns="http://www.w3.org/2000/svg">
<path d="M60 30.3052V20.725C60 15.313 60 12.607 58.653 10.8415C57.306 9.076 54.2603 8.21886 48.169 6.50464C44.0073 5.33347 40.3387 3.92248 37.4077 2.63436C33.4113 0.878131 31.4133 0 30 0C28.5867 0 26.5887 0.878131 22.5924 2.63436C19.6613 3.92248 15.9928 5.33347 11.8311 6.50464C5.73977 8.21886 2.69407 9.076 1.34703 10.8415C-1.98682e-07 12.607 0 15.313 0 20.725V30.3052C0 48.868 16.8759 60.0056 25.3133 64.414C27.337 65.4713 28.3487 66 30 66C31.6513 66 32.663 65.4713 34.6867 64.414C43.124 60.0056 60 48.868 60 30.3052Z" fill="white"/>
<path d="M33.2112 30.8959C33.2112 30.5972 32.9712 30.3625 32.6779 30.3625C32.3845 30.3625 32.1445 30.5972 32.1445 30.8959V31.2959H33.2112V30.8959Z" fill="#2E78AC"/>
<path d="M40.4417 30.8959C40.4417 30.5972 40.2017 30.3625 39.9083 30.3625C39.615 30.3625 39.375 30.5972 39.375 30.8959V31.2959H40.4417V30.8959Z" fill="#2E78AC"/>
<path d="M22.8093 20.6187H29.1559C30.2439 20.6187 31.1346 19.7334 31.1346 18.6454C31.1346 17.5521 30.2439 16.6667 29.1559 16.6667H22.8093C21.7213 16.6667 20.8359 17.5521 20.8359 18.6454C20.8359 19.7334 21.7213 20.6187 22.8093 20.6187Z" fill="#2E78AC"/>
<path d="M18.8813 43.3334H28.7266C28.3906 42.8907 28.188 42.3467 28.188 41.7494V32.8801C28.188 31.4187 29.3773 30.2294 30.8386 30.2294H35.996V20.3254C35.996 19.1041 35.004 18.1121 33.7826 18.1121H32.156C32.1826 18.2881 32.204 18.4641 32.204 18.6454C32.204 20.3201 30.8386 21.6854 29.1586 21.6854H22.812C21.1373 21.6854 19.772 20.3201 19.772 18.6454C19.772 18.4641 19.7933 18.2881 19.82 18.1121H18.8813C17.66 18.1121 16.668 19.1041 16.668 20.3254V41.1201C16.668 42.3414 17.66 43.3334 18.8813 43.3334ZM22.5346 23.7387H32.876C33.1693 23.7387 33.4093 23.9787 33.4093 24.2721C33.4093 24.5654 33.1693 24.8054 32.876 24.8054H22.5346C22.2413 24.8054 22.0013 24.5654 22.0013 24.2721C22.0013 23.9787 22.2413 23.7387 22.5346 23.7387ZM22.5346 27.3227H32.876C33.1693 27.3227 33.4093 27.5627 33.4093 27.8561C33.4093 28.1547 33.1693 28.3894 32.876 28.3894H22.5346C22.2413 28.3894 22.0013 28.1547 22.0013 27.8561C22.0013 27.5627 22.2413 27.3227 22.5346 27.3227ZM22.5346 30.9121H26.9986C27.292 30.9121 27.532 31.1467 27.532 31.4454C27.532 31.7387 27.292 31.9787 26.9986 31.9787H22.5346C22.2413 31.9787 22.0013 31.7387 22.0013 31.4454C22.0013 31.1467 22.2413 30.9121 22.5346 30.9121ZM22.5346 34.4961H26.9986C27.292 34.4961 27.532 34.7361 27.532 35.0294C27.532 35.3227 27.292 35.5627 26.9986 35.5627H22.5346C22.2413 35.5627 22.0013 35.3227 22.0013 35.0294C22.0013 34.7361 22.2413 34.4961 22.5346 34.4961ZM22.5346 38.0801H26.9986C27.292 38.0801 27.532 38.3201 27.532 38.6134C27.532 38.9121 27.292 39.1467 26.9986 39.1467H22.5346C22.2413 39.1467 22.0013 38.9121 22.0013 38.6134C22.0013 38.3201 22.2413 38.0801 22.5346 38.0801ZM19.788 23.7387H20.5773C20.8706 23.7387 21.1106 23.9787 21.1106 24.2721C21.1106 24.5654 20.8706 24.8054 20.5773 24.8054H19.788C19.4946 24.8054 19.2546 24.5654 19.2546 24.2721C19.2546 23.9787 19.4946 23.7387 19.788 23.7387ZM19.788 27.3227H20.5773C20.8706 27.3227 21.1106 27.5627 21.1106 27.8561C21.1106 28.1547 20.8706 28.3894 20.5773 28.3894H19.788C19.4946 28.3894 19.2546 28.1547 19.2546 27.8561C19.2546 27.5627 19.4946 27.3227 19.788 27.3227ZM19.788 30.9121H20.5773C20.8706 30.9121 21.1106 31.1467 21.1106 31.4454C21.1106 31.7387 20.8706 31.9787 20.5773 31.9787H19.788C19.4946 31.9787 19.2546 31.7387 19.2546 31.4454C19.2546 31.1467 19.4946 30.9121 19.788 30.9121ZM19.788 34.4961H20.5773C20.8706 34.4961 21.1106 34.7361 21.1106 35.0294C21.1106 35.3227 20.8706 35.5627 20.5773 35.5627H19.788C19.4946 35.5627 19.2546 35.3227 19.2546 35.0294C19.2546 34.7361 19.4946 34.4961 19.788 34.4961ZM19.788 38.0801H20.5773C20.8706 38.0801 21.1106 38.3201 21.1106 38.6134C21.1106 38.9121 20.8706 39.1467 20.5773 39.1467H19.788C19.4946 39.1467 19.2546 38.9121 19.2546 38.6134C19.2546 38.3201 19.4946 38.0801 19.788 38.0801Z" fill="#2E78AC"/>
<path d="M41.7499 31.2959H40.4432V32.7679C40.4432 33.0612 40.2032 33.3012 39.9099 33.3012C39.6166 33.3012 39.3766 33.0612 39.3766 32.7679V31.2959H33.2112V32.7679C33.2112 33.0612 32.9712 33.3012 32.6779 33.3012C32.3846 33.3012 32.1446 33.0612 32.1446 32.7679V31.2959H30.8379C29.9632 31.2959 29.2539 32.0052 29.2539 32.8799V34.2186H43.3339V32.8799C43.3339 32.0052 42.6246 31.2959 41.7499 31.2959Z" fill="#2E78AC"/>
<path d="M29.2539 41.7494C29.2539 42.6241 29.9632 43.3334 30.8379 43.3334H41.7499C42.6246 43.3334 43.3339 42.6241 43.3339 41.7494V35.2854H29.2539V41.7494Z" fill="#2E78AC"/>
</svg>
