<svg width="60" height="66" viewBox="0 0 60 66" fill="none" xmlns="http://www.w3.org/2000/svg">
<path d="M60 30.3052V20.725C60 15.313 60 12.607 58.653 10.8415C57.306 9.076 54.2603 8.21886 48.169 6.50464C44.0073 5.33347 40.3387 3.92248 37.4077 2.63436C33.4113 0.878131 31.4133 0 30 0C28.5867 0 26.5887 0.878131 22.5924 2.63436C19.6613 3.92248 15.9928 5.33347 11.8311 6.50464C5.73977 8.21886 2.69407 9.076 1.34703 10.8415C-1.98682e-07 12.607 0 15.313 0 20.725V30.3052C0 48.868 16.8759 60.0056 25.3133 64.414C27.337 65.4713 28.3487 66 30 66C31.6513 66 32.663 65.4713 34.6867 64.414C43.124 60.0056 60 48.868 60 30.3052Z" fill="white"/>
<path d="M26 27C26.5523 27 27 26.5523 27 26C27 25.4477 26.5523 25 26 25C25.4477 25 25 25.4477 25 26C25 26.5523 25.4477 27 26 27Z" fill="#2E78AC"/>
<path d="M32 27C32.5523 27 33 26.5523 33 26C33 25.4477 32.5523 25 32 25C31.4477 25 31 25.4477 31 26C31 26.5523 31.4477 27 32 27Z" fill="#2E78AC"/>
<path d="M35 22.5H23V29.5H35V22.5ZM32 28H26C25.6044 28 25.2178 27.8827 24.8889 27.6629C24.56 27.4432 24.3036 27.1308 24.1522 26.7654C24.0009 26.3999 23.9613 25.9978 24.0384 25.6098C24.1156 25.2219 24.3061 24.8655 24.5858 24.5858C24.8655 24.3061 25.2219 24.1156 25.6098 24.0384C25.9978 23.9613 26.3999 24.0009 26.7654 24.1522C27.1308 24.3036 27.4432 24.56 27.6629 24.8889C27.8827 25.2178 28 25.6044 28 26C27.9979 26.3521 27.902 26.6973 27.722 27H30.278C30.098 26.6973 30.0021 26.3521 30 26C30 25.6044 30.1173 25.2178 30.3371 24.8889C30.5568 24.56 30.8692 24.3036 31.2346 24.1522C31.6001 24.0009 32.0022 23.9613 32.3902 24.0384C32.7781 24.1156 33.1345 24.3061 33.4142 24.5858C33.6939 24.8655 33.8844 25.2219 33.9616 25.6098C34.0387 25.9978 33.9991 26.3999 33.8478 26.7654C33.6964 27.1308 33.44 27.4432 33.1111 27.6629C32.7822 27.8827 32.3956 28 32 28Z" fill="#2E78AC"/>
<path d="M40.793 32.5H40.5V35.5H43.793L40.793 32.5Z" fill="#2E78AC"/>
<path d="M36.793 19.5L35.5 18.207V19.5H36.793Z" fill="#2E78AC"/>
<path d="M35.354 16.647L38.354 19.647C38.4004 19.6933 38.4372 19.7483 38.4623 19.8089C38.4873 19.8695 38.5002 19.9344 38.5 20V35.5H39.5V15.5H22.5V16.5H35C35.0658 16.4998 35.131 16.5128 35.1917 16.538C35.2525 16.5632 35.3077 16.6003 35.354 16.647Z" fill="#2E78AC"/>
<path d="M24.3535 35.6465L26.207 37.5H33.793L35.6465 35.6465C35.7402 35.5527 35.8674 35.5 36 35.5H37.5V20.5H35C34.8674 20.5 34.7402 20.4473 34.6464 20.3536C34.5527 20.2598 34.5 20.1326 34.5 20V17.5H20.5V35.5H24C24.1326 35.5 24.2598 35.5527 24.3535 35.6465ZM36 34.5H35V33.5H36V34.5ZM22 22C22 21.8674 22.0527 21.7402 22.1464 21.6464C22.2402 21.5527 22.3674 21.5 22.5 21.5H35.5C35.6326 21.5 35.7598 21.5527 35.8536 21.6464C35.9473 21.7402 36 21.8674 36 22V30C36 30.1326 35.9473 30.2598 35.8536 30.3536C35.7598 30.4473 35.6326 30.5 35.5 30.5H22.5C22.3674 30.5 22.2402 30.4473 22.1464 30.3536C22.0527 30.2598 22 30.1326 22 30V22ZM22 31.5H36V32.5H22V31.5ZM22 33.5H34V34.5H22V33.5Z" fill="#2E78AC"/>
<path d="M19.5 32.5H19.207L16.207 35.5H19.5V32.5Z" fill="#2E78AC"/>
<path d="M36.207 36.5L34.3535 38.3535C34.2598 38.4473 34.1326 38.5 34 38.5H26C25.8674 38.5 25.7402 38.4473 25.6465 38.3535L23.793 36.5H15.5V44.5H44.5V36.5H36.207ZM32 42H28C27.7348 42 27.4804 41.8946 27.2929 41.7071C27.1054 41.5196 27 41.2652 27 41C27 40.7348 27.1054 40.4804 27.2929 40.2929C27.4804 40.1054 27.7348 40 28 40H32C32.2652 40 32.5196 40.1054 32.7071 40.2929C32.8946 40.4804 33 40.7348 33 41C33 41.2652 32.8946 41.5196 32.7071 41.7071C32.5196 41.8946 32.2652 42 32 42Z" fill="#2E78AC"/>
</svg>
