<svg width="60" height="66" viewBox="0 0 60 66" fill="none" xmlns="http://www.w3.org/2000/svg">
<path d="M60 30.3052V20.725C60 15.313 60 12.607 58.653 10.8415C57.306 9.076 54.2603 8.21886 48.169 6.50464C44.0073 5.33347 40.3387 3.92248 37.4077 2.63436C33.4113 0.878131 31.4133 0 30 0C28.5867 0 26.5887 0.878131 22.5924 2.63436C19.6613 3.92248 15.9928 5.33347 11.8311 6.50464C5.73977 8.21886 2.69407 9.076 1.34703 10.8415C-1.98682e-07 12.607 0 15.313 0 20.725V30.3052C0 48.868 16.8759 60.0056 25.3133 64.414C27.337 65.4713 28.3487 66 30 66C31.6513 66 32.663 65.4713 34.6867 64.414C43.124 60.0056 60 48.868 60 30.3052Z" fill="white"/>
<path d="M28.334 34.0267C28.334 32.88 28.9606 31.8533 29.974 31.3467L32.6406 29.9867C33.0673 29.7733 33.534 29.6667 34.0007 29.6667H37.6673V23.6667C37.6673 21.64 36.0273 20 34.0007 20H22.0007C19.974 20 18.334 21.64 18.334 23.6667V41C18.334 43.0267 19.974 44.6667 22.0007 44.6667H31.1473C29.374 42.76 28.334 40.2133 28.334 37.5067V34.0267ZM22.0007 24H31.334C31.886 24 32.334 24.448 32.334 25C32.334 25.552 31.886 26 31.334 26H22.0007C21.4487 26 21.0007 25.552 21.0007 25C21.0007 24.448 21.4487 24 22.0007 24ZM26.0007 34H22.0007C21.4487 34 21.0007 33.552 21.0007 33C21.0007 32.448 21.4487 32 22.0007 32H26.0007C26.5527 32 27.0007 32.448 27.0007 33C27.0007 33.552 26.5527 34 26.0007 34ZM27.334 30H22.0007C21.4487 30 21.0007 29.552 21.0007 29C21.0007 28.448 21.4487 28 22.0007 28H27.334C27.886 28 28.334 28.448 28.334 29C28.334 29.552 27.886 30 27.334 30ZM42.454 33.128L39.7873 31.7747C39.6473 31.704 39.4913 31.6667 39.334 31.6667H34.0007C33.8433 31.6667 33.6887 31.704 33.5473 31.7747L30.8807 33.128C30.5447 33.2987 30.334 33.644 30.334 34.02V37.5107C30.334 41.0533 32.5473 44.2707 35.846 45.5173C36.11 45.6173 36.3873 45.6667 36.666 45.6667C36.9447 45.6667 37.2246 45.616 37.4926 45.516C40.7873 44.2707 43.0007 41.0533 43.0007 37.5107V34.02C43.0007 33.644 42.79 33.2987 42.454 33.128ZM39.414 37.3173L37.014 40.004C36.8233 40.216 36.5527 40.3373 36.2673 40.3373C35.982 40.3373 35.7113 40.216 35.5206 40.004L33.9206 38.212C33.554 37.8 33.5886 37.168 34.0007 36.8C34.414 36.4333 35.0433 36.4667 35.414 36.88L36.2687 37.836L37.922 35.984C38.2887 35.572 38.9206 35.5373 39.3353 35.904C39.7473 36.272 39.782 36.904 39.4153 37.316L39.414 37.3173Z" fill="#3384BD"/>
</svg>
