<svg width="60" height="66" viewBox="0 0 60 66" fill="none" xmlns="http://www.w3.org/2000/svg">
<g clip-path="url(#clip0_1305_31083)">
<path d="M60 30.3052V20.725C60 15.313 60 12.607 58.653 10.8415C57.306 9.076 54.2603 8.21886 48.169 6.50464C44.0073 5.33347 40.3387 3.92248 37.4077 2.63436C33.4113 0.878131 31.4133 0 30 0C28.5867 0 26.5887 0.878131 22.5924 2.63436C19.6613 3.92248 15.9928 5.33347 11.8311 6.50464C5.73977 8.21886 2.69407 9.076 1.34703 10.8415C-1.98682e-07 12.607 0 15.313 0 20.725V30.3052C0 48.868 16.8759 60.0056 25.3133 64.414C27.337 65.4713 28.3487 66 30 66C31.6513 66 32.663 65.4713 34.6867 64.414C43.124 60.0056 60 48.868 60 30.3052Z" fill="white"/>
<g clip-path="url(#clip1_1305_31083)">
<path d="M39.5099 26.6999C36.3524 23.5424 31.2324 23.543 28.0749 26.6999C24.918 29.8574 24.9174 34.9774 28.0749 38.1349C31.2428 41.3028 36.3662 41.2813 39.5093 38.1343C42.6567 34.9907 42.6772 29.8672 39.5099 26.6999ZM38.7849 31.398L35.2399 34.943C34.8735 35.3094 34.2792 35.308 33.9143 34.943L32.1037 33.1324L30.2362 34.9999C29.8722 35.3639 29.2777 35.3677 28.9099 34.9999C28.5443 34.6337 28.5443 34.0405 28.9099 33.6743L31.4405 31.1437C31.8074 30.7768 32.4005 30.7774 32.7668 31.1437L34.5774 32.9543L37.4593 30.0724C37.8249 29.7062 38.4187 29.7062 38.7849 30.0724C39.1512 30.4387 39.1512 31.0318 38.7849 31.398Z" fill="#2E78AC"/>
<path d="M45.2841 43.9959C44.3291 44.9509 42.7791 44.951 41.8241 43.9959L38.8359 41.0078H38.8366C40.2549 40.1757 41.4621 38.9855 42.3184 37.5703L45.2841 40.5359C46.2391 41.4916 46.2391 43.0403 45.2841 43.9959Z" fill="#2E78AC"/>
<path d="M19.3752 22.3737H14.5508L19.3752 17.5493V22.3737Z" fill="#2E78AC"/>
<path d="M33.7931 22.4569C34.7994 22.4569 35.7856 22.6056 36.7369 22.9V17.9375C36.7369 17.42 36.3169 17 35.7994 17H21.2488V23.3113C21.2488 23.8288 20.8288 24.2488 20.3113 24.2488H14V48.0625C14 48.58 14.42 49 14.9375 49H35.7994C36.3169 49 36.7369 48.58 36.7369 48.0625V41.9338C35.7875 42.2269 34.7944 42.3781 33.7913 42.3781C28.2913 42.3781 23.8319 37.9206 23.8319 32.4175C23.8319 26.9325 28.2744 22.4569 33.7931 22.4569ZM21.1638 41.4375H17.25C16.7325 41.4375 16.3125 41.0175 16.3125 40.5C16.3125 39.9825 16.7325 39.5625 17.25 39.5625H21.1638C21.6819 39.5625 22.1012 39.9825 22.1012 40.5C22.1012 41.0175 21.6819 41.4375 21.1638 41.4375ZM21.1638 37.6875H17.25C16.7325 37.6875 16.3125 37.2675 16.3125 36.75C16.3125 36.2325 16.7325 35.8125 17.25 35.8125H21.1638C21.6819 35.8125 22.1012 36.2325 22.1012 36.75C22.1012 37.2675 21.6819 37.6875 21.1638 37.6875ZM21.1638 33.9375H17.25C16.7325 33.9375 16.3125 33.5175 16.3125 33C16.3125 32.4825 16.7325 32.0625 17.25 32.0625H21.1638C21.6819 32.0625 22.1012 32.4825 22.1012 33C22.1012 33.5175 21.6819 33.9375 21.1638 33.9375ZM21.1638 30.1875H17.25C16.7325 30.1875 16.3125 29.7675 16.3125 29.25C16.3125 28.7325 16.7325 28.3125 17.25 28.3125H21.1638C21.6819 28.3125 22.1012 28.7325 22.1012 29.25C22.1012 29.7675 21.6819 30.1875 21.1638 30.1875Z" fill="#2E78AC"/>
</g>
</g>
<defs>
<clipPath id="clip0_1305_31083">
<rect width="60" height="66" fill="white"/>
</clipPath>
<clipPath id="clip1_1305_31083">
<rect width="32" height="32" fill="white" transform="translate(14 17)"/>
</clipPath>
</defs>
</svg>
