<svg width="60" height="66" viewBox="0 0 60 66" fill="none" xmlns="http://www.w3.org/2000/svg">
<path d="M60 30.3052V20.725C60 15.313 60 12.607 58.653 10.8415C57.306 9.076 54.2603 8.21886 48.169 6.50464C44.0073 5.33347 40.3387 3.92248 37.4077 2.63436C33.4113 0.878131 31.4133 0 30 0C28.5867 0 26.5887 0.878131 22.5924 2.63436C19.6613 3.92248 15.9928 5.33347 11.8311 6.50464C5.73977 8.21886 2.69407 9.076 1.34703 10.8415C-1.98682e-07 12.607 0 15.313 0 20.725V30.3052C0 48.868 16.8759 60.0056 25.3133 64.414C27.337 65.4713 28.3487 66 30 66C31.6513 66 32.663 65.4713 34.6867 64.414C43.124 60.0056 60 48.868 60 30.3052Z" fill="white"/>
<path d="M43 20.5H42.5V29C42.5 29.1326 42.4473 29.2598 42.3536 29.3536C42.2598 29.4473 42.1326 29.5 42 29.5H35.6665L31.8 32.4C31.7135 32.4649 31.6082 32.5 31.5 32.5C31.3674 32.5 31.2402 32.4473 31.1464 32.3536C31.0527 32.2598 31 32.1326 31 32V29.5H27C26.8674 29.5 26.7402 29.4473 26.6464 29.3536C26.5527 29.2598 26.5 29.1326 26.5 29V26.5H25.6665L21.8 29.4C21.7257 29.4557 21.6374 29.4896 21.5449 29.498C21.4524 29.5063 21.3594 29.4887 21.2764 29.4472C21.1933 29.4057 21.1235 29.3419 21.0747 29.2629C21.0259 29.1839 21 29.0929 21 29V26.5H18C17.8674 26.5 17.7402 26.4473 17.6464 26.3536C17.5527 26.2598 17.5 26.1326 17.5 26V20.5H17C16.6022 20.5 16.2206 20.658 15.9393 20.9393C15.658 21.2206 15.5 21.6022 15.5 22V34.5H44.5V22C44.5 21.6022 44.342 21.2206 44.0607 20.9393C43.7794 20.658 43.3978 20.5 43 20.5Z" fill="#2E78AC"/>
<path d="M22 26V28L25.2 25.6C25.2865 25.5351 25.3918 25.5 25.5 25.5H26.5V18C26.5 17.8674 26.5527 17.7402 26.6464 17.6464C26.7402 17.5527 26.8674 17.5 27 17.5H33.5V15.5H18.5V25.5H21.5C21.6326 25.5 21.7598 25.5527 21.8536 25.6464C21.9473 25.7402 22 25.8674 22 26ZM24.5 20H25.5V21H24.5V20ZM22.5 20H23.5V21H22.5V20ZM20.5 20H21.5V21H20.5V20Z" fill="#2E78AC"/>
<path d="M35.2 28.6C35.2865 28.5351 35.3918 28.5 35.5 28.5H41.5V18.5H27.5V28.5H31.5C31.6326 28.5 31.7598 28.5527 31.8536 28.6464C31.9473 28.7402 32 28.8674 32 29V31L35.2 28.6ZM29 23.5C29.0008 22.7046 29.3171 21.942 29.8796 21.3796C30.442 20.8171 31.2046 20.5008 32 20.5H32.293L31.6465 19.8535L32.3535 19.1465L33.8535 20.6465C33.9472 20.7403 33.9999 20.8674 33.9999 21C33.9999 21.1326 33.9472 21.2597 33.8535 21.3535L32.3535 22.8535L31.6465 22.1465L32.293 21.5H32C31.6044 21.5 31.2178 21.6173 30.8889 21.8371C30.56 22.0568 30.3036 22.3692 30.1522 22.7346C30.0009 23.1001 29.9613 23.5022 30.0384 23.8902C30.1156 24.2781 30.3061 24.6345 30.5858 24.9142C30.8655 25.1939 31.2219 25.3844 31.6098 25.4616C31.9978 25.5387 32.3999 25.4991 32.7654 25.3478C33.1308 25.1964 33.4432 24.94 33.6629 24.6111C33.8827 24.2822 34 23.8956 34 23.5C34 22.9067 34.1759 22.3266 34.5056 21.8333C34.8352 21.3399 35.3038 20.9554 35.8519 20.7284C36.4001 20.5013 37.0033 20.4419 37.5853 20.5576C38.1672 20.6734 38.7018 20.9591 39.1213 21.3787C39.5409 21.7982 39.8266 22.3328 39.9424 22.9147C40.0581 23.4967 39.9987 24.0999 39.7716 24.6481C39.5446 25.1962 39.1601 25.6648 38.6667 25.9944C38.1734 26.3241 37.5933 26.5 37 26.5H36.707L37.3535 27.1465L36.6465 27.8535L35.1465 26.3535C35.0528 26.2597 35.0001 26.1326 35.0001 26C35.0001 25.8674 35.0528 25.7403 35.1465 25.6465L36.6465 24.1465L37.3535 24.8535L36.707 25.5H37C37.3956 25.5 37.7822 25.3827 38.1111 25.1629C38.44 24.9432 38.6964 24.6308 38.8478 24.2654C38.9991 23.8999 39.0387 23.4978 38.9616 23.1098C38.8844 22.7219 38.6939 22.3655 38.4142 22.0858C38.1345 21.8061 37.7781 21.6156 37.3902 21.5384C37.0022 21.4613 36.6001 21.5009 36.2346 21.6522C35.8692 21.8036 35.5568 22.06 35.3371 22.3889C35.1173 22.7178 35 23.1044 35 23.5C35 24.2956 34.6839 25.0587 34.1213 25.6213C33.5587 26.1839 32.7956 26.5 32 26.5C31.2044 26.5 30.4413 26.1839 29.8787 25.6213C29.3161 25.0587 29 24.2956 29 23.5Z" fill="#2E78AC"/>
<path d="M34.499 42.5H25.4645C24.8915 42.5007 24.3366 42.7006 23.8948 43.0655C23.453 43.4303 23.1519 43.9375 23.043 44.5H36.921C36.8123 43.9373 36.5111 43.4299 36.0692 43.065C35.6273 42.7 35.0721 42.5003 34.499 42.5Z" fill="#2E78AC"/>
<path d="M27.5 39.5H32.5V41.5H27.5V39.5Z" fill="#2E78AC"/>
<path d="M15.5 37C15.5 37.3978 15.658 37.7794 15.9393 38.0607C16.2206 38.342 16.6022 38.5 17 38.5H43C43.3978 38.5 43.7794 38.342 44.0607 38.0607C44.342 37.7794 44.5 37.3978 44.5 37V35.5H15.5V37ZM28.5 36.5H31.5V37.5H28.5V36.5Z" fill="#2E78AC"/>
</svg>
