<svg width="60" height="66" viewBox="0 0 60 66" fill="none" xmlns="http://www.w3.org/2000/svg">
<path d="M60 30.3052V20.725C60 15.313 60 12.607 58.653 10.8415C57.306 9.076 54.2603 8.21886 48.169 6.50464C44.0073 5.33347 40.3387 3.92248 37.4077 2.63436C33.4113 0.878131 31.4133 0 30 0C28.5867 0 26.5887 0.878131 22.5924 2.63436C19.6613 3.92248 15.9928 5.33347 11.8311 6.50464C5.73977 8.21886 2.69407 9.076 1.34703 10.8415C-1.98682e-07 12.607 0 15.313 0 20.725V30.3052C0 48.868 16.8759 60.0056 25.3133 64.414C27.337 65.4713 28.3487 66 30 66C31.6513 66 32.663 65.4713 34.6867 64.414C43.124 60.0056 60 48.868 60 30.3052Z" fill="white"/>
<path d="M41.3992 39.24C41.5192 39.03 41.7642 38.925 41.9942 39L43.1692 39.385C43.4342 39.47 43.7142 39.325 43.7992 39.06L44.7992 36H39.5392C38.2692 40.06 34.4792 43 29.9992 43C25.5192 43 21.7292 40.06 20.4592 36H15.1992L16.1992 39.06C16.2842 39.325 16.5642 39.47 16.8292 39.385L18.0042 39C18.2342 38.925 18.4792 39.03 18.5992 39.24C19.1292 40.215 19.7842 41.115 20.5392 41.915C20.7042 42.09 20.7292 42.36 20.5842 42.555L19.8592 43.555C19.6942 43.78 19.7442 44.09 19.9692 44.255L22.3942 46.015C22.6192 46.18 22.9342 46.13 23.0942 45.905L23.8192 44.905C23.9642 44.71 24.2242 44.65 24.4442 44.75C25.4292 45.22 26.4842 45.57 27.5842 45.775C27.8242 45.82 27.9992 46.025 27.9992 46.265V47.5C27.9992 47.775 28.2242 48 28.4992 48H31.4992C31.7742 48 31.9992 47.775 31.9992 47.5V46.265C31.9992 46.025 32.1742 45.82 32.4142 45.775C33.5142 45.57 34.5692 45.22 35.5542 44.75C35.7742 44.65 36.0342 44.71 36.1792 44.905L36.9042 45.905C37.0642 46.13 37.3792 46.18 37.6042 46.015L40.0292 44.255C40.2542 44.09 40.3042 43.78 40.1392 43.555L39.4142 42.555C39.2692 42.36 39.2942 42.09 39.4592 41.915C40.2142 41.115 40.8692 40.215 41.3992 39.24Z" fill="#3D84BB"/>
<path d="M14.5 34H45.5V35H14.5V34Z" fill="#3D84BB"/>
<path d="M15.5 25.5H19.5V33H15.5V25.5Z" fill="#3D84BB"/>
<path d="M27.5 23.5H32.5V33H27.5V23.5Z" fill="#3D84BB"/>
<path d="M40.5 26H44.5V33H40.5V26Z" fill="#3D84BB"/>
<path d="M33.5 23.5V33H39.5V18H33.5V23.5ZM37 20H38V21H37V20ZM37 22.5H38V23.5H37V22.5ZM37 25H38V26H37V25ZM35 20H36V21H35V20ZM35 22.5H36V23.5H35V22.5ZM35 25H36V26H35V25Z" fill="#3D84BB"/>
<path d="M20.5 33H26.5V21L23.5 18.5L20.5 21V33ZM22 22H25V23H22V22ZM22 24.5H25V25.5H22V24.5Z" fill="#3D84BB"/>
</svg>
