<svg width="60" height="66" viewBox="0 0 60 66" fill="none" xmlns="http://www.w3.org/2000/svg">
<path d="M60 30.3052V20.725C60 15.313 60 12.607 58.653 10.8415C57.306 9.076 54.2603 8.21886 48.169 6.50464C44.0073 5.33347 40.3387 3.92248 37.4077 2.63436C33.4113 0.878131 31.4133 0 30 0C28.5867 0 26.5887 0.878131 22.5924 2.63436C19.6613 3.92248 15.9928 5.33347 11.8311 6.50464C5.73977 8.21886 2.69407 9.076 1.34703 10.8415C-1.98682e-07 12.607 0 15.313 0 20.725V30.3052C0 48.868 16.8759 60.0056 25.3133 64.414C27.337 65.4713 28.3487 66 30 66C31.6513 66 32.663 65.4713 34.6867 64.414C43.124 60.0056 60 48.868 60 30.3052Z" fill="white"/>
<g clip-path="url(#clip0_1296_46321)">
<path fill-rule="evenodd" clip-rule="evenodd" d="M43.2071 41.6505H39.9265C39.7203 41.6505 39.5703 41.4818 39.5703 41.2755V39.5321H43.6195V41.2755C43.6008 41.4818 43.4133 41.6505 43.2071 41.6505ZM39.5703 38.801V35.8953H43.6195V38.801H39.5703ZM39.5703 35.1642V32.2398H43.6195V35.1642H39.5703ZM39.5703 31.5274V28.5843H43.6195V31.5274H39.5703ZM39.5703 27.8532V24.9287H43.6195V27.8532H39.5703ZM39.5703 24.1976V22.9604C39.5703 22.4542 39.9452 22.0605 40.4514 22.0605H42.7384C43.2258 22.0605 43.6195 22.4542 43.6195 22.9604V24.1976H39.5703Z" fill="#2E78AC"/>
<path fill-rule="evenodd" clip-rule="evenodd" d="M40.1875 22.4543V21.1233C40.1875 20.7484 40.5062 20.4297 40.8811 20.4297H42.2683C42.662 20.4297 42.9807 20.7484 42.9807 21.1233V22.4543H40.1875Z" fill="#2E78AC"/>
<path fill-rule="evenodd" clip-rule="evenodd" d="M41.1067 45.6997C40.9754 45.1374 39.9819 44.0501 39.4008 43.4877C39.3258 43.4127 39.2695 43.319 39.2695 43.2065C39.2695 43.1128 39.3258 43.0003 39.4008 42.9253C39.6257 42.7566 39.7757 42.5691 39.8882 42.4004H39.9257H43.0563C43.1688 42.5691 43.3187 42.7566 43.525 42.9253C43.5999 43.0003 43.6562 43.1128 43.6562 43.2065C43.6562 43.319 43.5999 43.4127 43.525 43.4877C42.9251 44.0501 41.9503 45.1374 41.819 45.6997V43.9938C41.819 43.7876 41.6691 43.6189 41.4629 43.6189C41.2566 43.6189 41.1067 43.7876 41.1067 43.9938V45.6997Z" fill="#2E78AC"/>
<path fill-rule="evenodd" clip-rule="evenodd" d="M32.5423 22.1734H22.1943C21.6882 22.1734 21.2383 21.7235 21.2383 21.2173V16.737C21.2383 16.2871 21.5945 15.9309 22.0444 15.9309H24.3689V14.3562C24.3689 14.15 24.5189 14 24.7251 14H29.9928C30.199 14 30.349 14.15 30.349 14.3562V15.9309H32.6735C33.1047 15.9309 33.4796 16.2871 33.4796 16.737V21.1798C33.4984 21.7235 33.0672 22.1734 32.5423 22.1734ZM27.3496 19.9426C26.4123 19.9426 25.6624 19.174 25.6624 18.2367C25.6624 17.2994 26.4123 16.5495 27.3496 16.5495C28.2869 16.5495 29.0555 17.2994 29.0555 18.2367C29.0555 19.174 28.2869 19.9426 27.3496 19.9426ZM27.3496 17.2806C26.8434 17.2806 26.3935 17.693 26.3935 18.2367C26.3935 18.7991 26.8059 19.2115 27.3496 19.2115C27.8745 19.2115 28.3244 18.7991 28.3244 18.2367C28.3244 17.693 27.912 17.2806 27.3496 17.2806Z" fill="#2E78AC"/>
<path fill-rule="evenodd" clip-rule="evenodd" d="M35.69 46.0007H19.0245C17.5435 46.0007 16.3438 44.7634 16.3438 43.2825V20.2807C16.3438 18.7998 17.5623 17.5625 19.0432 17.5625H20.4867V21.218C20.4867 22.1554 21.274 22.924 22.1926 22.924H32.5406C33.4967 22.924 34.2653 22.1179 34.2278 21.1618V17.5625H35.69C37.1709 17.5625 38.3894 18.7998 38.3894 20.2807V43.2825C38.3894 44.7634 37.1897 46.0007 35.69 46.0007ZM27.3479 41.8015C25.6419 41.8015 23.9923 41.2204 22.6238 40.1893C22.4738 40.2831 22.3238 40.3206 22.1551 40.3206C21.8552 40.3206 21.5927 40.2081 21.3865 40.0019C19.8118 38.4272 18.912 36.2901 18.912 34.0405C18.912 33.5719 19.2307 33.1782 19.6619 33.047C20.093 29.5414 22.8675 26.767 26.373 26.317C26.523 25.9234 26.9167 25.6422 27.3479 25.6422C29.6162 25.6422 31.7345 26.5233 33.3092 28.1167C33.5154 28.3229 33.6279 28.5853 33.6279 28.8665C33.6279 29.0165 33.5904 29.1665 33.5341 29.3165C34.3777 30.4037 34.8839 31.6785 35.0713 33.047C35.4838 33.1782 35.765 33.5719 35.765 34.0218C35.765 36.2901 34.8839 38.3897 33.2904 39.9831C33.1405 40.2081 32.878 40.3206 32.5968 40.3206C32.3906 40.3206 32.2219 40.2831 32.0719 40.1893C30.7597 41.2391 29.0913 41.8015 27.3479 41.8015ZM26.0356 32.6158H24.6296C24.4047 32.6158 24.2547 32.4658 24.2547 32.2409C24.2547 32.0347 24.4047 31.8847 24.6296 31.8847H26.0356C26.2418 31.8847 26.3918 32.0347 26.3918 32.2409C26.3918 32.4658 26.2418 32.6158 26.0356 32.6158ZM30.216 36.89H24.3859C24.1797 36.89 24.0297 36.7213 24.0297 36.5151C24.0297 36.3088 24.1797 36.1589 24.3859 36.1589H30.216C30.4223 36.1589 30.591 36.3088 30.591 36.5151C30.591 36.7213 30.4223 36.89 30.216 36.89ZM30.216 35.6902H26.2606C26.0544 35.6902 25.9044 35.5215 25.9044 35.3153C25.9044 35.1091 26.0544 34.9591 26.2606 34.9591H30.216C30.4223 34.9591 30.591 35.1091 30.591 35.3153C30.591 35.5215 30.4223 35.6902 30.216 35.6902ZM30.216 34.5092H24.3859C24.1797 34.5092 24.0297 34.3592 24.0297 34.153C24.0297 33.9468 24.1797 33.7781 24.3859 33.7781H30.216C30.4223 33.7781 30.591 33.9468 30.591 34.153C30.591 34.3592 30.4223 34.5092 30.216 34.5092ZM30.3473 33.2344H27.3104C27.0854 33.2344 26.9354 33.0845 26.9354 32.8783V31.6223C26.9354 31.416 27.0854 31.2661 27.3104 31.2661H30.3473C30.5535 31.2661 30.7222 31.416 30.7222 31.6223V32.8783C30.7222 33.0657 30.5535 33.2344 30.3473 33.2344ZM27.6665 32.4846H29.9536V31.9972H27.6665V32.4846ZM23.1862 39.7019C24.3859 40.5643 25.8481 41.0517 27.3291 41.0517C28.8288 41.0517 30.3098 40.5643 31.5095 39.6832L30.8347 39.0083C29.8224 39.7394 28.6226 40.1143 27.3479 40.1143C26.0918 40.1143 24.8921 39.7394 23.8798 39.0083L23.1862 39.7019ZM30.3848 38.4272C30.3473 38.3147 30.3285 38.1835 30.3285 38.0522C30.3285 37.7711 30.4223 37.5086 30.6285 37.3024C31.5283 36.4213 31.9969 35.2778 31.9969 34.0218C31.9969 33.6094 32.2406 33.2344 32.5968 33.0657C32.4656 32.3346 32.1657 31.6223 31.7532 31.0224C31.6408 31.0599 31.5095 31.0786 31.3971 31.0786C31.1346 31.0786 30.8347 30.9661 30.6285 30.7599C29.7474 29.8788 28.6039 29.4102 27.3479 29.4102C26.9354 29.4102 26.5793 29.1665 26.4105 28.8103C24.2172 29.1852 22.4925 30.9099 22.0989 33.1032C22.4551 33.2719 22.6988 33.6281 22.6988 34.0405C22.6988 35.2965 23.1862 36.4401 24.0485 37.3211C24.2547 37.5274 24.3672 37.7898 24.3672 38.0897C24.3672 38.2022 24.3484 38.3147 24.3109 38.4084C25.192 39.0458 26.2606 39.3832 27.3479 39.3832C28.4539 39.3832 29.5037 39.0646 30.3848 38.4272ZM33.3279 32.972H34.3027C34.134 31.8472 33.7029 30.7974 33.0467 29.8976L32.3531 30.5912C32.8593 31.3036 33.178 32.1097 33.3279 32.972ZM33.0655 33.7406C32.8968 33.7406 32.7468 33.8718 32.7468 34.0405C32.7468 35.484 32.1657 36.8337 31.1534 37.846C31.0221 37.9585 31.0221 38.1647 31.1534 38.2585L32.3531 39.4582C32.4656 39.5707 32.6718 39.5707 32.7655 39.4582C34.2278 37.996 35.0339 36.0839 35.0339 34.0218C35.0339 33.8718 34.9026 33.7031 34.7152 33.7031L33.0655 33.7406ZM20.4305 33.0095H21.3678C21.7989 30.4787 23.7673 28.4916 26.3168 28.0605V27.0856C23.2611 27.5543 20.8804 29.9538 20.4305 33.0095ZM19.9618 33.7406C19.8118 33.7406 19.6431 33.8718 19.6431 34.0405C19.6431 36.1026 20.4492 38.0335 21.9114 39.477C22.0426 39.5895 22.2301 39.5895 22.3238 39.477L23.5236 38.296C23.5798 38.2397 23.5986 38.1647 23.5986 38.0897C23.5986 37.996 23.5798 37.921 23.5236 37.8648C22.5113 36.8525 21.9489 35.5027 21.9489 34.078C21.9489 33.9093 21.8177 33.7593 21.6302 33.7593L19.9618 33.7406ZM27.3479 26.3358C27.1979 26.3358 27.0479 26.467 27.0479 26.6545V28.3416C27.0479 28.4916 27.1791 28.6603 27.3479 28.6603C28.7913 28.6603 30.1411 29.2227 31.1534 30.2538C31.2658 30.3475 31.472 30.3475 31.5658 30.2538L32.7655 29.054C32.8968 28.9415 32.8968 28.7353 32.7655 28.6228C31.3596 27.1419 29.4099 26.3358 27.3479 26.3358Z" fill="#2E78AC"/>
</g>
<defs>
<clipPath id="clip0_1296_46321">
<rect width="32" height="32" fill="white" transform="translate(14 14)"/>
</clipPath>
</defs>
</svg>
