<svg width="638" height="485" viewBox="0 0 638 485" fill="none" xmlns="http://www.w3.org/2000/svg">
<path d="M567.201 375.398C562.671 375.398 558.142 374.406 554.697 372.416L367.876 264.715C364.472 262.75 362.594 260.118 362.594 257.306C362.594 254.493 364.472 251.856 367.876 249.891L420.276 219.688C427.171 215.712 438.389 215.712 445.283 219.688L632.104 327.388C635.509 329.353 637.387 331.985 637.387 334.803C637.387 337.62 635.509 340.252 632.104 342.212L579.704 372.416C576.255 374.401 571.73 375.398 567.201 375.398ZM555.049 371.804C561.747 375.664 572.649 375.664 579.348 371.804L631.747 341.6C634.926 339.771 636.674 337.354 636.674 334.803C636.674 332.251 634.926 329.84 631.747 328.005L444.927 220.304C438.228 216.444 427.326 216.444 420.628 220.304L368.228 250.508C365.049 252.338 363.302 254.754 363.302 257.306C363.302 259.857 365.049 262.269 368.228 264.103L555.049 371.804Z" fill="#EBF3F8"/>
<g style="mix-blend-mode:multiply" opacity="0.3">
<path d="M568.995 362.324L617.021 334.642L568.995 306.96L520.969 334.642L568.995 362.324Z" fill="#DFE2F5"/>
</g>
<path d="M616.041 350.254L601.358 358.716C600.148 359.412 598.029 359.327 596.628 358.52C595.855 358.074 595.463 357.502 595.473 356.961V360.661C595.473 361.197 595.865 361.759 596.628 362.2C598.029 363.007 600.143 363.092 601.358 362.395L616.041 353.933C616.619 353.597 616.885 353.146 616.855 352.675V349.141C616.829 349.557 616.558 349.953 616.041 350.254Z" fill="url(#paint0_linear_1296_32194)"/>
<path d="M601.358 358.715L616.041 350.253C617.251 349.556 617.1 348.333 615.699 347.526C614.298 346.719 612.184 346.634 610.969 347.331L596.286 355.793C595.076 356.489 595.226 357.713 596.627 358.52C598.028 359.327 600.142 359.412 601.358 358.715Z" fill="white"/>
<path d="M597.934 357.768C597.267 357.382 597.111 356.825 597.593 356.544L612.276 348.082C612.758 347.807 613.727 347.892 614.395 348.278C615.063 348.664 615.218 349.22 614.736 349.501L600.053 357.963C599.571 358.239 598.602 358.154 597.934 357.768Z" fill="url(#paint1_linear_1296_32194)"/>
<path d="M0.00505495 94.5969C0.00505495 94.5969 0.0404323 94.5716 0.0606478 94.5615L0 94.5969H0.00505495Z" fill="#ACBCF5"/>
<path d="M70.7481 367.709C58.3148 367.709 45.5852 364.856 35.7882 359.206L24.3341 352.604C14.8987 347.165 9.48549 339.751 9.48047 332.256C9.48047 325.348 13.9547 318.951 22.0895 314.249L187.599 218.043C205.154 207.927 234.701 208.499 253.466 219.317L264.92 225.919C274.356 231.358 279.769 238.773 279.774 246.267C279.774 253.175 275.3 259.572 267.165 264.274L101.656 360.48C93.2646 365.317 82.1319 367.709 70.7481 367.709ZM218.507 211.516C207.248 211.516 196.251 213.883 187.956 218.66L22.446 314.866C14.5371 319.433 10.1885 325.609 10.1935 332.256C10.1935 339.49 15.4812 346.679 24.6907 351.988L36.1448 358.59C54.7144 369.293 83.9447 369.864 101.304 359.863L266.814 263.657C274.717 259.09 279.071 252.914 279.066 246.267C279.066 239.033 273.778 231.844 264.569 226.536L253.115 219.933C243.418 214.344 230.809 211.516 218.507 211.516Z" fill="#EBF3F8"/>
<g style="mix-blend-mode:multiply" opacity="0.3">
<path d="M84.0798 350.147L249.554 253.962C257.428 249.425 256.444 241.494 247.35 236.256L235.896 229.653C226.802 224.415 213.048 223.843 205.174 228.38L39.6996 324.566C31.8258 329.103 32.8101 337.033 41.904 342.272L53.3581 348.874C62.4521 354.113 76.2061 354.684 84.0798 350.147Z" fill="#DFE2F5"/>
</g>
<path d="M45.4062 319.738C45.4062 343.34 62.0024 352.905 82.4752 341.104L186.25 281.293L230.535 255.766V255.756C250.993 243.56 267.468 214.825 267.468 191.148C267.468 170.334 254.744 160.288 237.771 165.892C232.227 135.839 206.868 125.342 176.408 142.897C161.72 151.364 148.212 164.99 137.546 180.921C131.44 190.04 126.263 199.916 122.326 210.007C122.095 210.133 121.864 210.263 121.633 210.393C106.111 219.342 92.4178 236.241 84.2678 254.664C83.6703 254.969 83.0727 255.3 82.4752 255.646C62.0024 267.442 45.4062 296.142 45.4062 319.738Z" fill="url(#paint2_linear_1296_32194)"/>
<path d="M176.413 148.412C204.041 132.491 227.868 141.419 233.076 169.643L233.673 172.886L236.772 171.864C243.998 169.477 250.571 170.325 255.281 174.245C260.056 178.215 262.683 185.198 262.683 193.906C262.683 203.892 259.338 215.237 253.262 225.859C247.196 236.467 239.092 245.145 230.449 250.293L230.008 250.559L82.4701 335.595C64.6688 345.857 50.1867 337.51 50.1867 316.987C50.1867 296.463 64.6688 271.423 82.4701 261.161C82.9723 260.871 83.4995 260.585 84.0318 260.304L86.6983 258.915L88.2047 255.507C95.7671 238.417 108.261 223.613 121.623 215.913C121.769 215.828 121.909 215.753 122.05 215.673L122.241 215.567L125.043 213.998L126.449 210.394C131.44 197.606 138.606 185.163 147.172 174.41C155.995 163.341 166.099 154.353 176.398 148.417L176.413 148.412ZM176.413 142.898C153.314 156.213 133.142 182.291 122.326 210.008C122.095 210.138 121.864 210.264 121.633 210.399C106.111 219.342 92.4228 236.241 84.2678 254.664C83.6753 254.975 83.0777 255.301 82.4752 255.647C62.0024 267.448 45.4062 296.142 45.4062 319.744C45.4062 343.345 62.0024 352.91 82.4752 341.11L230.535 255.772V255.762C250.993 243.565 267.468 214.831 267.468 191.154C267.468 170.345 254.739 160.298 237.771 165.898C232.227 135.85 206.868 125.347 176.413 142.903V142.898Z" fill="#DEE6FF"/>
<path opacity="0.5" d="M182.711 201.093L200.934 190.591C203.003 189.398 204.68 186.2 204.68 183.447V163.776C204.68 161.024 203.003 159.756 200.934 160.949L182.711 171.451C180.642 172.644 178.965 175.843 178.965 178.595V198.266C178.965 201.018 180.642 202.286 182.711 201.093Z" fill="white"/>
<path opacity="0.3" d="M207.059 204.618L216.228 199.334C217.268 198.732 218.111 197.123 218.111 195.74V185.844C218.111 184.46 217.268 183.824 216.228 184.42L207.059 189.704C206.019 190.305 205.176 191.915 205.176 193.298V203.194C205.176 204.578 206.019 205.214 207.059 204.618Z" fill="white"/>
<path opacity="0.3" d="M169.001 228.59L183.82 220.048C185.502 219.08 186.868 216.479 186.868 214.238V198.241C186.868 196 185.502 194.973 183.82 195.94L169.001 204.482C167.319 205.45 165.953 208.052 165.953 210.292V226.289C165.953 228.53 167.319 229.558 169.001 228.59Z" fill="white"/>
<path opacity="0.4" d="M129.12 289.44L143.939 280.898C145.621 279.93 146.987 277.328 146.987 275.087V259.091C146.987 256.85 145.621 255.822 143.939 256.79L129.12 265.332C127.438 266.299 126.072 268.901 126.072 271.142V287.139C126.072 289.38 127.438 290.407 129.12 289.44Z" fill="white"/>
<path opacity="0.4" d="M111.354 262.444L118.243 258.473C119.026 258.022 119.659 256.814 119.659 255.771V248.332C119.659 247.289 119.026 246.813 118.243 247.264L111.354 251.234C110.57 251.686 109.938 252.894 109.938 253.936V261.376C109.938 262.418 110.57 262.895 111.354 262.444Z" fill="white"/>
<path opacity="0.4" d="M196.127 236.18L206.527 230.185C207.707 229.503 208.666 227.678 208.666 226.109V214.885C208.666 213.311 207.707 212.589 206.527 213.271L196.127 219.266C194.947 219.948 193.988 221.773 193.988 223.342V234.566C193.988 236.14 194.947 236.862 196.127 236.18Z" fill="white"/>
<path opacity="0.3" d="M188.248 267.262L201.113 259.847C202.574 259.005 203.759 256.744 203.759 254.804V240.918C203.759 238.973 202.574 238.08 201.113 238.923L188.248 246.337C186.787 247.179 185.602 249.44 185.602 251.38V265.266C185.602 267.211 186.787 268.104 188.248 267.262Z" fill="white"/>
<path opacity="0.3" d="M118.756 252.768L131.621 245.354C133.082 244.512 134.267 242.251 134.267 240.311V226.425C134.267 224.48 133.082 223.587 131.621 224.43L118.756 231.844C117.294 232.686 116.109 234.947 116.109 236.887V250.773C116.109 252.718 117.294 253.611 118.756 252.768Z" fill="white"/>
<path opacity="0.4" d="M92.0956 314.861L104.961 307.447C106.422 306.605 107.607 304.344 107.607 302.404V288.517C107.607 286.572 106.422 285.68 104.961 286.522L92.0956 293.937C90.6343 294.779 89.4492 297.04 89.4492 298.98V312.866C89.4492 314.811 90.6343 315.703 92.0956 314.861Z" fill="white"/>
<path opacity="0.2" d="M121.794 283.724L127.468 280.455C128.111 280.084 128.633 279.087 128.633 278.23V272.104C128.633 271.246 128.111 270.85 127.468 271.221L121.794 274.49C121.151 274.861 120.629 275.858 120.629 276.716V282.842C120.629 283.699 121.151 284.095 121.794 283.724Z" fill="white"/>
<path opacity="0.3" d="M223.329 220.796L233.728 214.8C234.908 214.118 235.867 212.293 235.867 210.724V199.5C235.867 197.926 234.908 197.204 233.728 197.886L223.329 203.881C222.149 204.563 221.189 206.388 221.189 207.957V219.181C221.189 220.755 222.149 221.477 223.329 220.796Z" fill="white"/>
<path opacity="0.3" d="M213.219 240.857L217.759 238.24C218.276 237.945 218.693 237.148 218.693 236.461V231.558C218.693 230.871 218.276 230.555 217.759 230.851L213.219 233.468C212.702 233.764 212.285 234.561 212.285 235.248V240.15C212.285 240.837 212.702 241.153 213.219 240.857Z" fill="white"/>
<path opacity="0.3" d="M175.454 243.599L179.993 240.983C180.51 240.687 180.927 239.89 180.927 239.203V234.3C180.927 233.613 180.51 233.298 179.993 233.593L175.454 236.21C174.936 236.506 174.52 237.303 174.52 237.99V242.893C174.52 243.579 174.936 243.895 175.454 243.599Z" fill="white"/>
<path opacity="0.2" d="M196.403 215.582L200.942 212.965C201.459 212.669 201.876 211.872 201.876 211.185V206.283C201.876 205.596 201.459 205.28 200.942 205.576L196.403 208.193C195.886 208.488 195.469 209.285 195.469 209.972V214.875C195.469 215.562 195.886 215.878 196.403 215.582Z" fill="white"/>
<path opacity="0.2" d="M93.4412 282.667L100.953 278.336C101.807 277.845 102.5 276.526 102.5 275.388V267.277C102.5 266.144 101.807 265.618 100.953 266.109L93.4412 270.44C92.5875 270.932 91.8945 272.25 91.8945 273.388V281.499C91.8945 282.632 92.5875 283.158 93.4412 282.667Z" fill="white"/>
<path opacity="0.2" d="M76.2581 301.887L85.7688 296.408C86.8485 295.786 87.7222 294.117 87.7222 292.678V282.411C87.7222 280.973 86.8485 280.316 85.7688 280.938L76.2581 286.417C75.1784 287.038 74.3047 288.708 74.3047 290.147V300.413C74.3047 301.852 75.1784 302.509 76.2581 301.887Z" fill="white"/>
<path opacity="0.2" d="M165.21 271.868L173.611 267.025C174.565 266.474 175.338 265 175.338 263.732V254.663C175.338 253.395 174.565 252.808 173.611 253.36L165.21 258.202C164.256 258.754 163.482 260.228 163.482 261.496V270.565C163.482 271.833 164.256 272.419 165.21 271.868Z" fill="white"/>
<path opacity="0.2" d="M103.952 314.063L112.353 309.221C113.307 308.669 114.08 307.195 114.08 305.927V296.858C114.08 295.59 113.307 295.004 112.353 295.555L103.952 300.398C102.998 300.949 102.225 302.423 102.225 303.691V312.76C102.225 314.028 102.998 314.615 103.952 314.063Z" fill="white"/>
<path opacity="0.2" d="M142.633 267.176L156.618 259.115C158.205 258.198 159.495 255.746 159.495 253.631V238.532C159.495 236.416 158.21 235.449 156.618 236.361L142.633 244.422C141.046 245.339 139.756 247.791 139.756 249.906V265.006C139.756 267.121 141.041 268.089 142.633 267.176Z" fill="white"/>
<path opacity="0.2" d="M160.687 219.602L170.002 214.233C171.061 213.621 171.915 211.987 171.915 210.578V200.522C171.915 199.113 171.056 198.467 170.002 199.078L160.687 204.447C159.627 205.059 158.773 206.693 158.773 208.102V218.158C158.773 219.567 159.632 220.213 160.687 219.602Z" fill="white"/>
<path opacity="0.2" d="M141.272 220.62L148.889 216.228C149.753 215.732 150.456 214.394 150.456 213.241V205.019C150.456 203.866 149.753 203.34 148.889 203.836L141.272 208.228C140.408 208.724 139.705 210.062 139.705 211.215V219.437C139.705 220.59 140.408 221.116 141.272 220.62Z" fill="white"/>
<path opacity="0.2" d="M158.602 193.855L163.141 191.238C163.659 190.943 164.075 190.146 164.075 189.459V184.556C164.075 183.869 163.659 183.553 163.141 183.849L158.602 186.466C158.085 186.762 157.668 187.559 157.668 188.246V193.148C157.668 193.835 158.085 194.151 158.602 193.855Z" fill="white"/>
<path opacity="0.4" d="M70.8793 293.615L75.4188 290.998C75.936 290.703 76.3528 289.905 76.3528 289.219V284.316C76.3528 283.629 75.936 283.313 75.4188 283.609L70.8793 286.226C70.3621 286.522 69.9453 287.319 69.9453 288.005V292.908C69.9453 293.595 70.3621 293.911 70.8793 293.615Z" fill="white"/>
<path opacity="0.3" d="M213.219 167.978L217.759 165.362C218.276 165.066 218.693 164.269 218.693 163.582V158.679C218.693 157.992 218.276 157.677 217.759 157.972L213.219 160.589C212.702 160.885 212.285 161.682 212.285 162.369V167.272C212.285 167.958 212.702 168.274 213.219 167.978Z" fill="white"/>
<path opacity="0.3" d="M72.8285 321.714L77.368 319.097C77.8852 318.801 78.302 318.004 78.302 317.317V312.414C78.302 311.728 77.8852 311.412 77.368 311.708L72.8285 314.324C72.3113 314.62 71.8945 315.417 71.8945 316.104V321.007C71.8945 321.694 72.3113 322.009 72.8285 321.714Z" fill="white"/>
<path opacity="0.4" d="M230.998 233.493L243.009 226.57C244.375 225.783 245.48 223.678 245.48 221.858V208.894C245.48 207.079 244.375 206.242 243.009 207.029L230.998 213.952C229.632 214.739 228.527 216.845 228.527 218.665V231.628C228.527 233.443 229.632 234.28 230.998 233.493Z" fill="white"/>
<path opacity="0.4" d="M240.492 194.421L244.595 192.055C245.062 191.784 245.438 191.067 245.438 190.446V186.014C245.438 185.393 245.062 185.107 244.595 185.378L240.492 187.744C240.025 188.014 239.648 188.731 239.648 189.353V193.785C239.648 194.406 240.025 194.692 240.492 194.421Z" fill="white"/>
<path d="M256.404 166.86C251.378 163.962 244.93 163.516 237.714 165.897C236.951 161.766 235.816 158.006 234.34 154.638L256.525 166.719L256.399 166.86H256.404Z" fill="white"/>
<path d="M190.98 122.218C179.712 116.012 164.296 117.06 147.288 126.866C124.189 140.18 104.017 166.258 93.201 193.975C92.97 194.106 92.739 194.231 92.508 194.367C76.9865 203.31 63.2978 220.209 55.1428 238.632C54.5503 238.943 53.9527 239.269 53.3502 239.614C40.8214 246.833 29.754 260.384 23.0452 275.217C18.787 284.627 16.2812 294.553 16.2812 303.711C16.2812 315.247 20.2483 323.428 26.6959 327.403L26.7511 327.433C27.2081 327.714 27.6801 327.97 28.1622 328.21L55.2935 343.134C49.1271 339.059 45.3509 330.998 45.3509 319.743C45.3509 310.76 47.7612 301.035 51.8738 291.785C58.5575 276.741 69.7454 262.955 82.4198 255.646C83.0224 255.3 83.6149 254.974 84.2124 254.664C92.3674 236.241 106.061 219.342 121.578 210.398C121.809 210.263 122.04 210.138 122.271 210.007C133.087 182.29 153.258 156.212 176.357 142.897C192.743 133.453 207.652 132.134 218.794 137.604L190.975 122.218H190.98Z" fill="url(#paint3_linear_1296_32194)"/>
<path d="M57.8142 344.513L57.7988 344.503C57.7988 344.503 57.8091 344.508 57.8142 344.513Z" fill="#ACBCF5"/>
<path style="mix-blend-mode:soft-light" d="M137.547 180.921C142.533 216.439 155.73 254.608 186.251 281.293L230.535 255.766V255.756C250.993 243.56 267.469 214.825 267.469 191.148C267.469 170.334 254.744 160.288 237.771 165.892C232.228 135.839 206.869 125.342 176.408 142.897C161.72 151.364 148.213 164.99 137.547 180.921Z" fill="url(#paint4_linear_1296_32194)"/>
<g style="mix-blend-mode:multiply" opacity="0.3">
<path d="M435.818 285.734L483.844 258.052L435.818 230.37L387.797 258.052L435.818 285.734Z" fill="#DFE2F5"/>
</g>
<path d="M435.818 262.529V182.149C435.818 174.449 431.128 165.506 425.343 162.172L398.267 146.566C396.153 145.348 392.753 145.719 391.111 146.205L439.388 118.363C441.231 117.275 443.647 117.36 446.293 118.884L473.369 134.49C479.154 137.824 483.844 146.767 483.844 154.467V248.788L435.818 276.47V262.529Z" fill="url(#paint5_linear_1296_32194)"/>
<path d="M398.268 146.561L425.344 162.167C431.129 165.501 435.819 174.444 435.819 182.144V276.465L425.344 270.429L398.268 254.824L387.793 248.788V154.467C387.793 146.767 392.483 143.228 398.268 146.561Z" fill="url(#paint6_linear_1296_32194)"/>
<g opacity="0.85">
<g opacity="0.3">
<path d="M392.197 162.573L430.436 184.611V180.224L392.197 158.182V162.573Z" fill="white"/>
</g>
<g opacity="0.3">
<path d="M392.197 170.374L430.436 192.416V188.025L392.197 165.988V170.374Z" fill="white"/>
</g>
<g opacity="0.3">
<path d="M392.197 178.179L430.436 200.221V195.83L392.197 173.788V178.179Z" fill="#3384BD"/>
</g>
<g opacity="0.3">
<path d="M392.197 191.584L430.436 213.626V209.235L392.197 187.192V191.584Z" fill="white"/>
</g>
<g opacity="0.3">
<path d="M392.197 199.39L430.436 221.427V217.041L392.197 194.998V199.39Z" fill="#3384BD"/>
</g>
<g opacity="0.3">
<path d="M392.197 207.19L430.436 229.232V224.841L392.197 202.803V207.19Z" fill="white"/>
</g>
<g opacity="0.3">
<path d="M392.197 220.594L430.436 242.637V238.245L392.197 216.208V220.594Z" fill="#3384BD"/>
</g>
<g opacity="0.3">
<path d="M392.197 228.4L430.436 250.442V246.051L392.197 224.008V228.4Z" fill="white"/>
</g>
<g opacity="0.3">
<path d="M392.197 236.205L430.436 258.243V253.856L392.197 231.814V236.205Z" fill="white"/>
</g>
<g opacity="0.8">
<path d="M422.503 178.51L427.741 181.528C428.062 181.714 428.318 181.563 428.318 181.192C428.318 180.821 428.057 180.375 427.741 180.19L422.503 177.172C422.182 176.986 421.926 177.137 421.926 177.508C421.926 177.879 422.187 178.325 422.503 178.51Z" fill="white"/>
<path d="M414.253 173.758L419.491 176.776C419.812 176.962 420.068 176.811 420.068 176.44C420.068 176.069 419.807 175.623 419.491 175.438L414.253 172.42C413.932 172.234 413.676 172.385 413.676 172.756C413.676 173.127 413.937 173.573 414.253 173.758Z" fill="white"/>
<path d="M394.999 162.659L407.553 169.893C407.875 170.078 408.131 169.928 408.131 169.557C408.131 169.186 407.87 168.739 407.553 168.554L394.999 161.32C394.678 161.135 394.422 161.285 394.422 161.656C394.422 162.027 394.683 162.473 394.999 162.659Z" fill="white"/>
</g>
<g opacity="0.8">
<path d="M422.503 186.315L427.741 189.333C428.062 189.519 428.318 189.368 428.318 188.997C428.318 188.626 428.057 188.18 427.741 187.995L422.503 184.977C422.182 184.791 421.926 184.942 421.926 185.313C421.926 185.684 422.187 186.13 422.503 186.315Z" fill="white"/>
<path d="M414.253 181.562L419.491 184.58C419.812 184.766 420.068 184.615 420.068 184.244C420.068 183.873 419.807 183.427 419.491 183.242L414.253 180.224C413.932 180.038 413.676 180.189 413.676 180.56C413.676 180.931 413.937 181.377 414.253 181.562Z" fill="white"/>
<path d="M394.999 170.464L407.553 177.698C407.875 177.883 408.131 177.733 408.131 177.362C408.131 176.991 407.87 176.545 407.553 176.359L394.999 169.125C394.678 168.94 394.422 169.09 394.422 169.461C394.422 169.832 394.683 170.278 394.999 170.464Z" fill="white"/>
</g>
<g opacity="0.8">
<path d="M422.503 194.12L427.741 197.138C428.062 197.324 428.318 197.173 428.318 196.802C428.318 196.431 428.057 195.985 427.741 195.8L422.503 192.782C422.182 192.596 421.926 192.747 421.926 193.118C421.926 193.489 422.187 193.935 422.503 194.12Z" fill="#EBF3F8"/>
<path d="M414.253 189.363L419.491 192.38C419.812 192.566 420.068 192.415 420.068 192.045C420.068 191.674 419.807 191.227 419.491 191.042L414.253 188.024C413.932 187.839 413.676 187.989 413.676 188.36C413.676 188.731 413.937 189.177 414.253 189.363Z" fill="#EBF3F8"/>
<path d="M394.999 178.269L407.553 185.503C407.875 185.688 408.131 185.538 408.131 185.167C408.131 184.796 407.87 184.35 407.553 184.164L394.999 176.93C394.678 176.745 394.422 176.895 394.422 177.266C394.422 177.637 394.683 178.083 394.999 178.269Z" fill="#EBF3F8"/>
</g>
<g opacity="0.8">
<path d="M422.503 207.526L427.741 210.544C428.062 210.729 428.318 210.579 428.318 210.208C428.318 209.837 428.057 209.391 427.741 209.205L422.503 206.187C422.182 206.002 421.926 206.152 421.926 206.523C421.926 206.894 422.187 207.34 422.503 207.526Z" fill="white"/>
<path d="M414.253 202.768L419.491 205.786C419.812 205.971 420.068 205.821 420.068 205.45C420.068 205.079 419.807 204.633 419.491 204.447L414.253 201.43C413.932 201.244 413.676 201.394 413.676 201.765C413.676 202.136 413.937 202.583 414.253 202.768Z" fill="white"/>
<path d="M394.999 191.674L407.553 198.908C407.875 199.094 408.131 198.943 408.131 198.572C408.131 198.201 407.87 197.755 407.553 197.57L394.999 190.336C394.678 190.15 394.422 190.301 394.422 190.672C394.422 191.043 394.683 191.489 394.999 191.674Z" fill="white"/>
</g>
<g opacity="0.8">
<path d="M422.501 215.331L427.739 218.349C428.06 218.535 428.316 218.384 428.316 218.013C428.316 217.642 428.055 217.196 427.739 217.011L422.501 213.993C422.18 213.807 421.924 213.958 421.924 214.329C421.924 214.7 422.185 215.146 422.501 215.331Z" fill="#EBF3F8"/>
<path d="M414.253 210.574L419.491 213.592C419.812 213.778 420.068 213.627 420.068 213.256C420.068 212.885 419.807 212.439 419.491 212.254L414.253 209.236C413.932 209.05 413.676 209.201 413.676 209.572C413.676 209.943 413.937 210.389 414.253 210.574Z" fill="#EBF3F8"/>
<path d="M394.999 199.475L407.553 206.709C407.875 206.894 408.131 206.744 408.131 206.373C408.131 206.002 407.87 205.556 407.553 205.37L394.999 198.136C394.678 197.951 394.422 198.101 394.422 198.472C394.422 198.843 394.683 199.289 394.999 199.475Z" fill="#EBF3F8"/>
</g>
<g opacity="0.8">
<path d="M422.503 223.131L427.741 226.149C428.062 226.334 428.318 226.184 428.318 225.813C428.318 225.442 428.057 224.996 427.741 224.81L422.503 221.793C422.182 221.607 421.926 221.757 421.926 222.128C421.926 222.499 422.187 222.946 422.503 223.131Z" fill="white"/>
<path d="M414.253 218.379L419.491 221.397C419.812 221.582 420.068 221.432 420.068 221.061C420.068 220.69 419.807 220.244 419.491 220.058L414.253 217.041C413.932 216.855 413.676 217.006 413.676 217.377C413.676 217.747 413.937 218.194 414.253 218.379Z" fill="white"/>
<path d="M394.999 207.279L407.553 214.513C407.875 214.699 408.131 214.548 408.131 214.177C408.131 213.807 407.87 213.36 407.553 213.175L394.999 205.941C394.678 205.756 394.422 205.906 394.422 206.277C394.422 206.648 394.683 207.094 394.999 207.279Z" fill="white"/>
</g>
<g opacity="0.8">
<path d="M422.503 236.541L427.741 239.559C428.062 239.745 428.318 239.594 428.318 239.223C428.318 238.852 428.057 238.406 427.741 238.221L422.503 235.203C422.182 235.017 421.926 235.168 421.926 235.539C421.926 235.91 422.187 236.356 422.503 236.541Z" fill="#EBF3F8"/>
<path d="M414.253 231.784L419.491 234.802C419.812 234.987 420.068 234.837 420.068 234.466C420.068 234.095 419.807 233.649 419.491 233.463L414.253 230.445C413.932 230.26 413.676 230.41 413.676 230.781C413.676 231.152 413.937 231.598 414.253 231.784Z" fill="#EBF3F8"/>
<path d="M394.999 220.69L407.553 227.924C407.875 228.109 408.131 227.959 408.131 227.588C408.131 227.217 407.87 226.771 407.553 226.585L394.999 219.351C394.678 219.166 394.422 219.316 394.422 219.687C394.422 220.058 394.683 220.504 394.999 220.69Z" fill="#EBF3F8"/>
</g>
<g opacity="0.8">
<path d="M422.503 244.342L427.741 247.36C428.062 247.545 428.318 247.395 428.318 247.024C428.318 246.653 428.057 246.207 427.741 246.021L422.503 243.004C422.182 242.818 421.926 242.968 421.926 243.339C421.926 243.71 422.187 244.157 422.503 244.342Z" fill="white"/>
<path d="M414.253 239.584L419.491 242.602C419.812 242.788 420.068 242.637 420.068 242.266C420.068 241.895 419.807 241.449 419.491 241.264L414.253 238.246C413.932 238.06 413.676 238.211 413.676 238.582C413.676 238.953 413.937 239.399 414.253 239.584Z" fill="white"/>
<path d="M394.999 228.49L407.553 235.724C407.875 235.91 408.131 235.759 408.131 235.388C408.131 235.017 407.87 234.571 407.553 234.386L394.999 227.152C394.678 226.966 394.422 227.117 394.422 227.488C394.422 227.859 394.683 228.305 394.999 228.49Z" fill="white"/>
</g>
<g opacity="0.8">
<path d="M422.501 252.142L427.739 255.16C428.06 255.345 428.316 255.195 428.316 254.824C428.316 254.453 428.055 254.007 427.739 253.821L422.501 250.803C422.18 250.618 421.924 250.768 421.924 251.139C421.924 251.51 422.185 251.956 422.501 252.142Z" fill="white"/>
<path d="M414.253 247.384L419.491 250.402C419.812 250.588 420.068 250.437 420.068 250.066C420.068 249.695 419.807 249.249 419.491 249.064L414.253 246.046C413.932 245.86 413.676 246.011 413.676 246.382C413.676 246.753 413.937 247.199 414.253 247.384Z" fill="white"/>
<path d="M394.999 236.29L407.553 243.524C407.875 243.71 408.131 243.559 408.131 243.188C408.131 242.817 407.87 242.371 407.553 242.186L394.999 234.952C394.678 234.767 394.422 234.917 394.422 235.288C394.422 235.659 394.683 236.105 394.999 236.29Z" fill="white"/>
</g>
</g>
<g style="mix-blend-mode:multiply">
<path d="M483.844 248.787L435.818 276.47L387.797 248.517V246.371L435.818 273.898L483.844 246.371V248.787Z" fill="#E8EDFA"/>
</g>
<g style="mix-blend-mode:multiply" opacity="0.3">
<path d="M502.409 324.029L550.435 296.347L502.409 268.665L454.383 296.347L502.409 324.029Z" fill="#DFE2F5"/>
</g>
<path d="M502.408 300.823V220.444C502.408 212.744 497.718 203.801 491.933 200.467L464.857 184.861C462.743 183.643 459.343 184.014 457.701 184.5L505.978 156.658C507.821 155.57 510.236 155.655 512.883 157.179L539.959 172.785C545.744 176.118 550.434 185.062 550.434 192.762V287.083L502.408 314.765V300.823Z" fill="url(#paint7_linear_1296_32194)"/>
<path d="M464.858 184.856L491.934 200.462C497.719 203.796 502.409 212.739 502.409 220.439V314.76L491.934 308.724L464.858 293.118L454.383 287.083V192.762C454.383 185.062 459.073 181.523 464.858 184.856Z" fill="url(#paint8_linear_1296_32194)"/>
<g opacity="0.85">
<g opacity="0.3">
<path d="M458.781 200.868L497.025 222.906V218.519L458.781 196.477V200.868Z" fill="white"/>
</g>
<g opacity="0.3">
<path d="M458.781 208.669L497.025 230.711V226.32L458.781 204.282V208.669Z" fill="white"/>
</g>
<g opacity="0.3">
<path d="M458.781 216.474L497.025 238.516V234.125L458.781 212.083V216.474Z" fill="#3384BD"/>
</g>
<g opacity="0.3">
<path d="M458.781 229.879L497.025 251.921V247.53L458.781 225.487V229.879Z" fill="white"/>
</g>
<g opacity="0.3">
<path d="M458.781 237.685L497.025 259.722V255.336L458.781 233.293V237.685Z" fill="#3384BD"/>
</g>
<g opacity="0.3">
<path d="M458.781 245.49L497.025 267.527V263.141L458.781 241.098V245.49Z" fill="white"/>
</g>
<g opacity="0.3">
<path d="M458.781 258.889L497.025 280.932V276.54L458.781 254.503V258.889Z" fill="#3384BD"/>
</g>
<g opacity="0.3">
<path d="M458.781 266.694L497.025 288.737V284.345L458.781 262.303V266.694Z" fill="white"/>
</g>
<g opacity="0.3">
<path d="M458.781 274.5L497.025 296.543V292.151L458.781 270.109V274.5Z" fill="white"/>
</g>
<g opacity="0.8">
<path d="M489.093 216.805L494.331 219.823C494.652 220.008 494.908 219.858 494.908 219.487C494.908 219.116 494.647 218.67 494.331 218.485L489.093 215.467C488.772 215.281 488.516 215.432 488.516 215.803C488.516 216.173 488.777 216.62 489.093 216.805Z" fill="white"/>
<path d="M480.843 212.053L486.081 215.071C486.402 215.257 486.658 215.106 486.658 214.735C486.658 214.364 486.397 213.918 486.081 213.733L480.843 210.715C480.522 210.529 480.266 210.68 480.266 211.051C480.266 211.422 480.527 211.868 480.843 212.053Z" fill="white"/>
<path d="M461.589 200.954L474.143 208.187C474.464 208.373 474.72 208.223 474.72 207.852C474.72 207.481 474.459 207.034 474.143 206.849L461.589 199.615C461.268 199.43 461.012 199.58 461.012 199.951C461.012 200.322 461.273 200.768 461.589 200.954Z" fill="white"/>
</g>
<g opacity="0.8">
<path d="M489.093 224.61L494.331 227.628C494.652 227.814 494.908 227.663 494.908 227.292C494.908 226.921 494.647 226.475 494.331 226.29L489.093 223.272C488.772 223.086 488.516 223.237 488.516 223.608C488.516 223.979 488.777 224.425 489.093 224.61Z" fill="white"/>
<path d="M480.843 219.857L486.081 222.875C486.402 223.061 486.658 222.91 486.658 222.539C486.658 222.168 486.397 221.722 486.081 221.537L480.843 218.519C480.522 218.333 480.266 218.484 480.266 218.855C480.266 219.226 480.527 219.672 480.843 219.857Z" fill="white"/>
<path d="M461.589 208.759L474.143 215.993C474.464 216.178 474.72 216.028 474.72 215.657C474.72 215.286 474.459 214.84 474.143 214.654L461.589 207.42C461.268 207.235 461.012 207.385 461.012 207.756C461.012 208.127 461.273 208.573 461.589 208.759Z" fill="white"/>
</g>
<g opacity="0.8">
<path d="M489.093 232.415L494.331 235.433C494.652 235.619 494.908 235.468 494.908 235.097C494.908 234.726 494.647 234.28 494.331 234.095L489.093 231.077C488.772 230.891 488.516 231.042 488.516 231.413C488.516 231.784 488.777 232.23 489.093 232.415Z" fill="#EBF3F8"/>
<path d="M480.843 227.657L486.081 230.675C486.402 230.861 486.658 230.71 486.658 230.339C486.658 229.968 486.397 229.522 486.081 229.337L480.843 226.319C480.522 226.133 480.266 226.284 480.266 226.655C480.266 227.026 480.527 227.472 480.843 227.657Z" fill="#EBF3F8"/>
<path d="M461.589 216.564L474.143 223.798C474.464 223.983 474.72 223.833 474.72 223.462C474.72 223.091 474.459 222.645 474.143 222.459L461.589 215.225C461.268 215.04 461.012 215.19 461.012 215.561C461.012 215.932 461.273 216.378 461.589 216.564Z" fill="#EBF3F8"/>
</g>
<g opacity="0.8">
<path d="M489.091 245.821L494.329 248.838C494.65 249.024 494.906 248.873 494.906 248.503C494.906 248.132 494.645 247.685 494.329 247.5L489.091 244.482C488.77 244.297 488.514 244.447 488.514 244.818C488.514 245.189 488.775 245.635 489.091 245.821Z" fill="white"/>
<path d="M480.843 241.063L486.081 244.081C486.402 244.266 486.658 244.116 486.658 243.745C486.658 243.374 486.397 242.928 486.081 242.742L480.843 239.724C480.522 239.539 480.266 239.689 480.266 240.06C480.266 240.431 480.527 240.877 480.843 241.063Z" fill="white"/>
<path d="M461.589 229.969L474.143 237.203C474.464 237.389 474.72 237.238 474.72 236.867C474.72 236.496 474.459 236.05 474.143 235.865L461.589 228.631C461.268 228.445 461.012 228.596 461.012 228.967C461.012 229.338 461.273 229.784 461.589 229.969Z" fill="white"/>
</g>
<g opacity="0.8">
<path d="M489.091 253.626L494.329 256.644C494.65 256.83 494.906 256.679 494.906 256.308C494.906 255.937 494.645 255.491 494.329 255.306L489.091 252.288C488.77 252.102 488.514 252.253 488.514 252.624C488.514 252.995 488.775 253.441 489.091 253.626Z" fill="#EBF3F8"/>
<path d="M480.843 248.869L486.081 251.887C486.402 252.073 486.658 251.922 486.658 251.551C486.658 251.18 486.397 250.734 486.081 250.549L480.843 247.531C480.522 247.345 480.266 247.496 480.266 247.867C480.266 248.238 480.527 248.684 480.843 248.869Z" fill="#EBF3F8"/>
<path d="M461.589 237.77L474.143 245.004C474.464 245.189 474.72 245.039 474.72 244.668C474.72 244.297 474.459 243.851 474.143 243.665L461.589 236.431C461.268 236.246 461.012 236.396 461.012 236.767C461.012 237.138 461.273 237.584 461.589 237.77Z" fill="#EBF3F8"/>
</g>
<g opacity="0.8">
<path d="M489.091 261.426L494.329 264.444C494.65 264.629 494.906 264.479 494.906 264.108C494.906 263.737 494.645 263.291 494.329 263.105L489.091 260.087C488.77 259.902 488.514 260.052 488.514 260.423C488.514 260.794 488.775 261.24 489.091 261.426Z" fill="white"/>
<path d="M480.843 256.674L486.081 259.692C486.402 259.877 486.658 259.727 486.658 259.356C486.658 258.985 486.397 258.539 486.081 258.353L480.843 255.336C480.522 255.15 480.266 255.3 480.266 255.671C480.266 256.042 480.527 256.489 480.843 256.674Z" fill="white"/>
<path d="M461.589 245.574L474.143 252.808C474.464 252.994 474.72 252.843 474.72 252.472C474.72 252.101 474.459 251.655 474.143 251.47L461.589 244.236C461.268 244.05 461.012 244.201 461.012 244.572C461.012 244.943 461.273 245.389 461.589 245.574Z" fill="white"/>
</g>
<g opacity="0.8">
<path d="M489.093 274.836L494.331 277.854C494.652 278.04 494.908 277.889 494.908 277.518C494.908 277.147 494.647 276.701 494.331 276.516L489.093 273.498C488.772 273.312 488.516 273.463 488.516 273.834C488.516 274.205 488.777 274.651 489.093 274.836Z" fill="#EBF3F8"/>
<path d="M480.843 270.079L486.081 273.096C486.402 273.282 486.658 273.132 486.658 272.761C486.658 272.39 486.397 271.943 486.081 271.758L480.843 268.74C480.522 268.555 480.266 268.705 480.266 269.076C480.266 269.447 480.527 269.893 480.843 270.079Z" fill="#EBF3F8"/>
<path d="M461.589 258.985L474.143 266.219C474.464 266.404 474.72 266.254 474.72 265.883C474.72 265.512 474.459 265.066 474.143 264.88L461.589 257.646C461.268 257.461 461.012 257.611 461.012 257.982C461.012 258.353 461.273 258.799 461.589 258.985Z" fill="#EBF3F8"/>
</g>
<g opacity="0.8">
<path d="M489.093 282.637L494.331 285.655C494.652 285.84 494.908 285.69 494.908 285.319C494.908 284.948 494.647 284.502 494.331 284.316L489.093 281.298C488.772 281.113 488.516 281.263 488.516 281.634C488.516 282.005 488.777 282.451 489.093 282.637Z" fill="white"/>
<path d="M480.843 277.879L486.081 280.897C486.402 281.082 486.658 280.932 486.658 280.561C486.658 280.19 486.397 279.744 486.081 279.558L480.843 276.541C480.522 276.355 480.266 276.506 480.266 276.876C480.266 277.247 480.527 277.694 480.843 277.879Z" fill="white"/>
<path d="M461.589 266.785L474.143 274.019C474.464 274.205 474.72 274.054 474.72 273.683C474.72 273.312 474.459 272.866 474.143 272.681L461.589 265.447C461.268 265.261 461.012 265.412 461.012 265.783C461.012 266.154 461.273 266.6 461.589 266.785Z" fill="white"/>
</g>
<g opacity="0.8">
<path d="M489.093 290.437L494.331 293.455C494.652 293.64 494.908 293.49 494.908 293.119C494.908 292.748 494.647 292.302 494.331 292.116L489.093 289.098C488.772 288.913 488.516 289.063 488.516 289.434C488.516 289.805 488.777 290.252 489.093 290.437Z" fill="white"/>
<path d="M480.843 285.679L486.081 288.697C486.402 288.883 486.658 288.732 486.658 288.361C486.658 287.99 486.397 287.544 486.081 287.359L480.843 284.341C480.522 284.155 480.266 284.306 480.266 284.677C480.266 285.048 480.527 285.494 480.843 285.679Z" fill="white"/>
<path d="M461.589 274.585L474.143 281.819C474.464 282.005 474.72 281.854 474.72 281.483C474.72 281.112 474.459 280.666 474.143 280.481L461.589 273.247C461.268 273.061 461.012 273.212 461.012 273.583C461.012 273.954 461.273 274.4 461.589 274.585Z" fill="white"/>
</g>
</g>
<g style="mix-blend-mode:multiply">
<path d="M550.435 287.082L502.409 314.764L454.383 286.812V284.666L502.409 312.193L550.435 284.666V287.082Z" fill="#E8EDFA"/>
</g>
<path d="M568.994 339.118V258.739C568.994 251.039 564.304 242.096 558.519 238.762L531.443 223.156C529.329 221.938 525.929 222.309 524.287 222.795L572.564 194.953C574.407 193.865 576.822 193.95 579.469 195.474L606.545 211.08C612.33 214.413 617.02 223.357 617.02 231.057V325.378L568.994 353.06V339.118Z" fill="url(#paint9_linear_1296_32194)"/>
<path d="M531.444 223.151L558.52 238.757C564.305 242.09 568.995 251.034 568.995 258.734V353.055L558.52 347.019L531.444 331.413L520.969 325.377V231.057C520.969 223.357 525.659 219.817 531.444 223.151Z" fill="url(#paint10_linear_1296_32194)"/>
<g opacity="0.85">
<g opacity="0.3">
<path d="M525.373 239.163L563.612 261.2V256.814L525.373 234.771V239.163Z" fill="white"/>
</g>
<g opacity="0.3">
<path d="M525.373 246.964L563.612 269.006V264.615L525.373 242.577V246.964Z" fill="white"/>
</g>
<g opacity="0.3">
<path d="M525.373 254.768L563.612 276.811V272.419L525.373 250.382V254.768Z" fill="#3384BD"/>
</g>
<g opacity="0.3">
<path d="M525.373 268.173L563.612 290.216V285.824L525.373 263.782V268.173Z" fill="white"/>
</g>
<g opacity="0.3">
<path d="M525.373 275.979L563.612 298.017V293.63L525.373 271.588V275.979Z" fill="#3384BD"/>
</g>
<g opacity="0.3">
<path d="M525.373 283.784L563.612 305.822V301.435L525.373 279.393V283.784Z" fill="white"/>
</g>
<g opacity="0.3">
<path d="M525.373 297.184L563.612 319.227V314.835L525.373 292.798V297.184Z" fill="#3384BD"/>
</g>
<g opacity="0.3">
<path d="M525.373 304.99L563.612 327.032V322.641L525.373 300.604V304.99Z" fill="white"/>
</g>
<g opacity="0.3">
<path d="M525.373 312.795L563.612 334.837V330.446L525.373 308.403V312.795Z" fill="white"/>
</g>
<g opacity="0.8">
<path d="M555.677 255.105L560.915 258.123C561.236 258.308 561.492 258.158 561.492 257.787C561.492 257.416 561.231 256.97 560.915 256.784L555.677 253.766C555.356 253.581 555.1 253.731 555.1 254.102C555.1 254.473 555.361 254.919 555.677 255.105Z" fill="white"/>
<path d="M547.429 250.348L552.666 253.366C552.988 253.551 553.244 253.401 553.244 253.03C553.244 252.659 552.983 252.213 552.666 252.027L547.429 249.009C547.108 248.824 546.852 248.974 546.852 249.345C546.852 249.716 547.113 250.162 547.429 250.348Z" fill="white"/>
<path d="M528.175 239.248L540.729 246.482C541.05 246.668 541.306 246.517 541.306 246.146C541.306 245.775 541.045 245.329 540.729 245.144L528.175 237.91C527.854 237.724 527.598 237.875 527.598 238.246C527.598 238.617 527.859 239.063 528.175 239.248Z" fill="white"/>
</g>
<g opacity="0.8">
<path d="M555.679 262.905L560.917 265.923C561.238 266.108 561.494 265.958 561.494 265.587C561.494 265.216 561.233 264.77 560.917 264.584L555.679 261.567C555.358 261.381 555.102 261.531 555.102 261.902C555.102 262.273 555.363 262.72 555.679 262.905Z" fill="white"/>
<path d="M547.429 258.152L552.666 261.17C552.988 261.355 553.244 261.205 553.244 260.834C553.244 260.463 552.983 260.017 552.666 259.831L547.429 256.814C547.108 256.628 546.852 256.778 546.852 257.149C546.852 257.52 547.113 257.967 547.429 258.152Z" fill="white"/>
<path d="M528.175 247.053L540.729 254.287C541.05 254.473 541.306 254.322 541.306 253.951C541.306 253.58 541.045 253.134 540.729 252.949L528.175 245.715C527.854 245.529 527.598 245.68 527.598 246.051C527.598 246.422 527.859 246.868 528.175 247.053Z" fill="white"/>
</g>
<g opacity="0.8">
<path d="M555.679 270.711L560.917 273.729C561.238 273.914 561.494 273.764 561.494 273.393C561.494 273.022 561.233 272.576 560.917 272.39L555.679 269.372C555.358 269.187 555.102 269.337 555.102 269.708C555.102 270.079 555.363 270.525 555.679 270.711Z" fill="#EBF3F8"/>
<path d="M547.429 265.953L552.666 268.971C552.988 269.156 553.244 269.006 553.244 268.635C553.244 268.264 552.983 267.818 552.666 267.632L547.429 264.615C547.108 264.429 546.852 264.579 546.852 264.95C546.852 265.321 547.113 265.768 547.429 265.953Z" fill="#EBF3F8"/>
<path d="M528.175 254.859L540.729 262.093C541.05 262.279 541.306 262.128 541.306 261.757C541.306 261.386 541.045 260.94 540.729 260.755L528.175 253.521C527.854 253.335 527.598 253.486 527.598 253.857C527.598 254.228 527.859 254.674 528.175 254.859Z" fill="#EBF3F8"/>
</g>
<g opacity="0.8">
<path d="M555.679 284.115L560.917 287.133C561.238 287.319 561.494 287.168 561.494 286.797C561.494 286.426 561.233 285.98 560.917 285.795L555.679 282.777C555.358 282.591 555.102 282.742 555.102 283.113C555.102 283.484 555.363 283.93 555.679 284.115Z" fill="white"/>
<path d="M547.429 279.358L552.666 282.375C552.988 282.561 553.244 282.411 553.244 282.04C553.244 281.669 552.983 281.222 552.666 281.037L547.429 278.019C547.108 277.834 546.852 277.984 546.852 278.355C546.852 278.726 547.113 279.172 547.429 279.358Z" fill="white"/>
<path d="M528.175 268.264L540.729 275.498C541.05 275.683 541.306 275.533 541.306 275.162C541.306 274.791 541.045 274.345 540.729 274.159L528.175 266.925C527.854 266.74 527.598 266.89 527.598 267.261C527.598 267.632 527.859 268.078 528.175 268.264Z" fill="white"/>
</g>
<g opacity="0.8">
<path d="M555.677 291.921L560.915 294.938C561.236 295.124 561.492 294.974 561.492 294.603C561.492 294.232 561.231 293.785 560.915 293.6L555.677 290.582C555.356 290.397 555.1 290.547 555.1 290.918C555.1 291.289 555.361 291.735 555.677 291.921Z" fill="#EBF3F8"/>
<path d="M547.429 287.164L552.666 290.182C552.988 290.367 553.244 290.217 553.244 289.846C553.244 289.475 552.983 289.029 552.666 288.843L547.429 285.826C547.108 285.64 546.852 285.79 546.852 286.161C546.852 286.532 547.113 286.979 547.429 287.164Z" fill="#EBF3F8"/>
<path d="M528.175 276.064L540.729 283.298C541.05 283.484 541.306 283.333 541.306 282.962C541.306 282.591 541.045 282.145 540.729 281.96L528.175 274.726C527.854 274.54 527.598 274.691 527.598 275.062C527.598 275.433 527.859 275.879 528.175 276.064Z" fill="#EBF3F8"/>
</g>
<g opacity="0.8">
<path d="M555.679 299.721L560.917 302.739C561.238 302.924 561.494 302.774 561.494 302.403C561.494 302.032 561.233 301.586 560.917 301.4L555.679 298.382C555.358 298.197 555.102 298.347 555.102 298.718C555.102 299.089 555.363 299.535 555.679 299.721Z" fill="white"/>
<path d="M547.429 294.969L552.666 297.987C552.988 298.172 553.244 298.022 553.244 297.651C553.244 297.28 552.983 296.834 552.666 296.648L547.429 293.63C547.108 293.445 546.852 293.595 546.852 293.966C546.852 294.337 547.113 294.783 547.429 294.969Z" fill="white"/>
<path d="M528.175 283.869L540.729 291.103C541.05 291.288 541.306 291.138 541.306 290.767C541.306 290.396 541.045 289.95 540.729 289.764L528.175 282.531C527.854 282.345 527.598 282.496 527.598 282.866C527.598 283.237 527.859 283.684 528.175 283.869Z" fill="white"/>
</g>
<g opacity="0.8">
<path d="M555.679 313.131L560.917 316.149C561.238 316.334 561.494 316.184 561.494 315.813C561.494 315.442 561.233 314.996 560.917 314.81L555.679 311.793C555.358 311.607 555.102 311.757 555.102 312.128C555.102 312.499 555.363 312.946 555.679 313.131Z" fill="#EBF3F8"/>
<path d="M547.429 308.373L552.666 311.391C552.988 311.577 553.244 311.426 553.244 311.055C553.244 310.684 552.983 310.238 552.666 310.053L547.429 307.035C547.108 306.849 546.852 307 546.852 307.371C546.852 307.742 547.113 308.188 547.429 308.373Z" fill="#EBF3F8"/>
<path d="M528.175 297.279L540.729 304.513C541.05 304.699 541.306 304.548 541.306 304.177C541.306 303.807 541.045 303.36 540.729 303.175L528.175 295.941C527.854 295.756 527.598 295.906 527.598 296.277C527.598 296.648 527.859 297.094 528.175 297.279Z" fill="#EBF3F8"/>
</g>
<g opacity="0.8">
<path d="M555.679 320.932L560.917 323.949C561.238 324.135 561.494 323.985 561.494 323.614C561.494 323.243 561.233 322.796 560.917 322.611L555.679 319.593C555.358 319.408 555.102 319.558 555.102 319.929C555.102 320.3 555.363 320.746 555.679 320.932Z" fill="white"/>
<path d="M547.429 316.174L552.666 319.192C552.988 319.377 553.244 319.227 553.244 318.856C553.244 318.485 552.983 318.039 552.666 317.853L547.429 314.835C547.108 314.65 546.852 314.8 546.852 315.171C546.852 315.542 547.113 315.988 547.429 316.174Z" fill="white"/>
<path d="M528.175 305.08L540.729 312.314C541.05 312.499 541.306 312.349 541.306 311.978C541.306 311.607 541.045 311.161 540.729 310.975L528.175 303.742C527.854 303.556 527.598 303.706 527.598 304.077C527.598 304.448 527.859 304.895 528.175 305.08Z" fill="white"/>
</g>
<g opacity="0.8">
<path d="M555.679 328.732L560.917 331.75C561.238 331.935 561.494 331.785 561.494 331.414C561.494 331.043 561.233 330.597 560.917 330.411L555.679 327.393C555.358 327.208 555.102 327.358 555.102 327.729C555.102 328.1 555.363 328.546 555.679 328.732Z" fill="white"/>
<path d="M547.429 323.974L552.666 326.992C552.988 327.177 553.244 327.027 553.244 326.656C553.244 326.285 552.983 325.839 552.666 325.653L547.429 322.635C547.108 322.45 546.852 322.6 546.852 322.971C546.852 323.342 547.113 323.788 547.429 323.974Z" fill="white"/>
<path d="M528.175 312.88L540.729 320.114C541.05 320.299 541.306 320.149 541.306 319.778C541.306 319.407 541.045 318.961 540.729 318.775L528.175 311.542C527.854 311.356 527.598 311.507 527.598 311.877C527.598 312.248 527.859 312.695 528.175 312.88Z" fill="white"/>
</g>
</g>
<g style="mix-blend-mode:multiply">
<path d="M617.021 325.377L568.995 353.059L520.969 325.107V322.961L568.995 350.488L617.021 322.961V325.377Z" fill="#E8EDFA"/>
</g>
<path d="M567.499 208.744L589.473 221.412C589.99 221.713 589.925 222.234 589.327 222.58C588.73 222.926 587.821 222.961 587.304 222.665L565.329 209.997C564.812 209.697 564.877 209.175 565.475 208.829C566.073 208.483 566.982 208.448 567.499 208.744Z" fill="#DEE6FF"/>
<path d="M563.362 211.131L585.336 223.799C585.853 224.1 585.788 224.621 585.191 224.967C584.593 225.313 583.684 225.348 583.167 225.052L561.193 212.384C560.675 212.083 560.741 211.562 561.338 211.216C561.936 210.87 562.845 210.835 563.362 211.131Z" fill="#DEE6FF"/>
<path d="M559.223 213.517L581.198 226.185C581.715 226.485 581.649 227.007 581.052 227.353C580.454 227.698 579.545 227.734 579.028 227.438L557.054 214.77C556.537 214.469 556.602 213.948 557.2 213.602C557.797 213.256 558.706 213.221 559.223 213.517Z" fill="#DEE6FF"/>
<path d="M555.081 215.902L577.055 228.57C577.572 228.871 577.507 229.392 576.909 229.738C576.312 230.084 575.403 230.119 574.886 229.824L552.911 217.156C552.394 216.855 552.46 216.333 553.057 215.987C553.655 215.642 554.564 215.607 555.081 215.902Z" fill="#DEE6FF"/>
<path d="M500.85 170.329L522.825 182.997C523.342 183.298 523.276 183.819 522.679 184.165C522.081 184.511 521.172 184.546 520.655 184.25L498.681 171.582C498.164 171.282 498.229 170.76 498.827 170.414C499.424 170.068 500.333 170.033 500.85 170.329Z" fill="#DEE6FF"/>
<path d="M496.714 172.716L518.688 185.384C519.205 185.685 519.14 186.206 518.542 186.552C517.945 186.898 517.036 186.933 516.518 186.637L494.544 173.969C494.027 173.668 494.092 173.147 494.69 172.801C495.287 172.455 496.196 172.42 496.714 172.716Z" fill="#DEE6FF"/>
<path d="M492.575 175.101L514.549 187.77C515.066 188.07 515.001 188.592 514.403 188.938C513.806 189.283 512.897 189.319 512.38 189.023L490.406 176.355C489.888 176.054 489.954 175.533 490.551 175.187C491.149 174.841 492.058 174.806 492.575 175.101Z" fill="#DEE6FF"/>
<path d="M488.432 177.487L510.406 190.155C510.924 190.456 510.858 190.977 510.261 191.323C509.663 191.669 508.754 191.704 508.237 191.409L486.263 178.741C485.746 178.44 485.811 177.918 486.409 177.572C487.006 177.227 487.915 177.191 488.432 177.487Z" fill="#DEE6FF"/>
<path d="M434.257 131.935L456.231 144.603C456.748 144.903 456.683 145.425 456.085 145.771C455.488 146.116 454.579 146.152 454.061 145.856L432.087 133.188C431.57 132.887 431.635 132.366 432.233 132.02C432.83 131.674 433.739 131.639 434.257 131.935Z" fill="#DEE6FF"/>
<path d="M430.12 134.321L452.094 146.989C452.611 147.29 452.546 147.811 451.948 148.157C451.351 148.503 450.442 148.538 449.925 148.242L427.951 135.574C427.433 135.274 427.499 134.752 428.096 134.406C428.694 134.061 429.603 134.025 430.12 134.321Z" fill="#DEE6FF"/>
<path d="M425.981 136.707L447.955 149.375C448.473 149.676 448.407 150.197 447.81 150.543C447.212 150.889 446.303 150.924 445.786 150.628L423.812 137.96C423.295 137.659 423.36 137.138 423.957 136.792C424.555 136.446 425.464 136.411 425.981 136.707Z" fill="#DEE6FF"/>
<path d="M421.839 139.088L443.813 151.756C444.33 152.057 444.265 152.578 443.667 152.924C443.07 153.27 442.161 153.305 441.643 153.009L419.669 140.341C419.152 140.04 419.217 139.519 419.815 139.173C420.412 138.827 421.321 138.792 421.839 139.088Z" fill="#DEE6FF"/>
<path d="M601.715 263.231L587.032 271.693C585.822 272.39 584.838 271.648 584.838 270.039C584.838 268.425 585.822 266.55 587.032 265.853L601.715 257.391C602.925 256.694 603.91 257.436 603.91 259.045C603.91 260.659 602.925 262.534 601.715 263.231Z" fill="url(#paint11_linear_1296_32194)"/>
<path d="M601.539 355.892C601.173 355.892 600.876 355.597 600.876 355.231V284.978C600.876 279.368 596.919 272.525 592.053 269.718L589.497 268.244C589.181 268.064 589.071 267.657 589.256 267.342C589.437 267.026 589.844 266.915 590.16 267.101L592.716 268.575C597.949 271.588 602.202 278.947 602.202 284.978V355.231C602.202 355.597 601.906 355.892 601.539 355.892Z" fill="#A3B5E8"/>
<path d="M604.701 354.057C604.335 354.057 604.038 353.762 604.038 353.396V283.143C604.038 277.533 600.081 270.69 595.215 267.883L592.66 266.409C592.343 266.229 592.233 265.822 592.419 265.507C592.599 265.191 593.006 265.081 593.322 265.266L595.878 266.74C601.111 269.753 605.364 277.112 605.364 283.143V353.396C605.364 353.762 605.068 354.057 604.701 354.057Z" fill="#A3B5E8"/>
<path d="M607.865 352.223C607.499 352.223 607.202 351.928 607.202 351.562V281.309C607.202 275.699 603.245 268.856 598.38 266.049L595.824 264.575C595.507 264.395 595.397 263.989 595.583 263.673C595.768 263.357 596.17 263.247 596.486 263.432L599.042 264.906C604.275 267.919 608.528 275.278 608.528 281.309V351.562C608.528 351.928 608.232 352.223 607.865 352.223Z" fill="#A3B5E8"/>
<path d="M611.029 350.393C610.663 350.393 610.366 350.098 610.366 349.732V279.479C610.366 273.869 606.41 267.026 601.544 264.219L598.988 262.745C598.671 262.564 598.561 262.158 598.747 261.843C598.932 261.527 599.334 261.416 599.651 261.602L602.206 263.076C607.439 266.089 611.692 273.448 611.692 279.479V349.732C611.692 350.098 611.396 350.393 611.029 350.393Z" fill="#A3B5E8"/>
<path d="M300.113 378.808C299.987 378.808 299.872 378.742 299.807 378.632C299.706 378.462 299.766 378.246 299.937 378.146L432.736 301.601C432.907 301.501 433.123 301.561 433.223 301.732C433.324 301.902 433.264 302.118 433.093 302.218L300.294 378.762C300.238 378.793 300.178 378.813 300.118 378.813L300.113 378.808Z" fill="#EBF3F8"/>
<path d="M327.861 394.835C327.735 394.835 327.62 394.769 327.555 394.659C327.454 394.489 327.514 394.273 327.685 394.173L460.484 317.628C460.655 317.533 460.871 317.588 460.972 317.759C461.072 317.929 461.012 318.145 460.841 318.245L328.042 394.79C327.986 394.82 327.926 394.84 327.866 394.84L327.861 394.835Z" fill="#EBF3F8"/>
<path d="M355.605 410.86C355.48 410.86 355.364 410.795 355.299 410.685C355.198 410.514 355.259 410.299 355.429 410.199L488.229 333.654C488.399 333.554 488.615 333.614 488.716 333.784C488.816 333.955 488.756 334.17 488.585 334.271L355.786 410.815C355.731 410.845 355.67 410.865 355.61 410.865L355.605 410.86Z" fill="#EBF3F8"/>
<path d="M355.605 410.86C355.545 410.86 355.485 410.845 355.43 410.81L184.492 312.118C184.321 312.018 184.261 311.802 184.361 311.632C184.462 311.461 184.678 311.406 184.848 311.502L355.786 410.194C355.957 410.294 356.017 410.51 355.917 410.68C355.851 410.795 355.731 410.855 355.61 410.855L355.605 410.86Z" fill="#EBF3F8"/>
<path d="M326.445 484.753C311.561 484.753 297.476 481.49 287.272 475.609L215.926 434.487C204.688 428.01 198.929 418.806 200.124 409.231C201.233 400.323 208.113 391.806 219.487 385.244L283.717 348.222C295.046 341.695 309.719 337.75 325.039 337.113C341.455 336.432 357.272 339.735 368.44 346.167L439.786 387.289C451.024 393.766 456.784 402.97 455.589 412.545C454.479 421.453 447.6 429.975 436.226 436.533L371.995 473.554C360.667 480.081 345.994 484.026 330.673 484.663C329.257 484.723 327.851 484.748 326.445 484.748V484.753ZM329.262 337.745C327.866 337.745 326.465 337.775 325.059 337.83C309.854 338.457 295.297 342.372 284.064 348.844L219.833 385.865C208.655 392.307 201.901 400.639 200.822 409.322C199.667 418.596 205.301 427.549 216.278 433.876L287.624 474.998C298.671 481.364 314.358 484.633 330.638 483.961C345.843 483.334 360.401 479.419 371.634 472.947L435.864 435.926C447.042 429.484 453.796 421.152 454.876 412.47C456.031 403.196 450.397 394.247 439.42 387.916L368.074 346.794C357.975 340.973 344.021 337.745 329.262 337.745Z" fill="#EBF3F8"/>
<g style="mix-blend-mode:multiply" opacity="0.3">
<path d="M304.847 465.278L233.501 424.156C220.797 416.832 222.388 404.038 237.061 395.581L301.287 358.56C315.959 350.103 338.155 349.185 350.859 356.509L422.205 397.632C434.909 404.956 433.318 417.749 418.645 426.206L354.419 463.228C339.746 471.685 317.551 472.602 304.847 465.278Z" fill="#DFE2F5"/>
</g>
<path d="M430.751 394.393C430.786 393.886 430.786 393.38 430.751 392.879V322.561H224.924V394.483H224.964C224.602 399.441 227.394 404.223 233.501 407.743L304.846 448.865C317.551 456.189 339.746 455.271 354.419 446.814L418.649 409.793C426.272 405.401 430.354 399.837 430.746 394.478H430.756V394.388L430.751 394.393Z" fill="#DEE6FF"/>
<g style="mix-blend-mode:multiply">
<path d="M430.75 390.974H430.74C430.349 396.333 426.266 401.892 418.643 406.289L354.413 443.31C339.74 451.767 317.545 452.684 304.841 445.36L233.495 404.238C227.389 400.719 224.592 395.937 224.958 390.979H224.918V394.488H224.958C224.597 399.446 227.389 404.228 233.495 407.747L304.841 448.87C317.545 456.194 339.74 455.276 354.413 446.819L418.643 409.798C426.266 405.406 430.349 399.842 430.74 394.483H430.75V394.393C430.785 393.886 430.785 393.38 430.75 392.879V390.974Z" fill="#E8EDFA"/>
</g>
<path d="M304.847 376.004L233.501 334.882C220.797 327.558 222.388 314.765 237.061 306.308L301.292 269.286C315.964 260.829 338.16 259.912 350.864 267.236L422.21 308.358C434.914 315.682 433.323 328.476 418.65 336.933L354.419 373.954C339.746 382.411 317.551 383.329 304.847 376.004Z" fill="white"/>
<path d="M242.193 329.87C234.304 325.323 235.901 317.001 245.753 311.321L309.978 274.3C319.83 268.62 334.267 267.703 342.156 272.25L413.502 313.372C421.391 317.919 419.794 326.24 409.942 331.92L345.716 368.942C335.864 374.621 321.427 375.539 313.538 370.992L242.193 329.87Z" fill="url(#paint12_linear_1296_32194)"/>
<g opacity="0.8">
<path d="M326.837 287.204L318.953 282.657L326.837 278.115L334.721 282.657L326.837 287.204Z" fill="white"/>
<path d="M338.712 294.047L330.828 289.505L338.712 284.958L346.596 289.505L338.712 294.047Z" fill="white"/>
<path d="M350.589 300.889L342.705 296.347L350.589 291.806L358.473 296.347L350.589 300.889Z" fill="white"/>
<path d="M362.466 307.737L354.582 303.195L362.466 298.648L370.35 303.195L362.466 307.737Z" fill="white"/>
<path d="M374.341 314.58L366.457 310.038L374.341 305.496L382.225 310.038L374.341 314.58Z" fill="white"/>
<path d="M386.216 321.429L378.332 316.887L386.216 312.34L394.1 316.887L386.216 321.429Z" fill="white"/>
<path d="M398.093 328.271L390.209 323.729L398.093 319.188L405.977 323.729L398.093 328.271Z" fill="white"/>
<path d="M313.995 294.603L306.111 290.056L313.995 285.515L321.879 290.056L313.995 294.603Z" fill="white"/>
<path d="M325.87 301.446L317.986 296.904L325.87 292.357L333.754 296.904L325.87 301.446Z" fill="white"/>
<path d="M337.747 308.294L329.863 303.747L337.747 299.205L345.631 303.747L337.747 308.294Z" fill="white"/>
<path d="M349.622 315.137L341.738 310.595L349.622 306.048L357.506 310.595L349.622 315.137Z" fill="white"/>
<path d="M361.499 321.985L353.615 317.438L361.499 312.896L369.383 317.438L361.499 321.985Z" fill="white"/>
<path d="M373.376 328.827L365.492 324.285L373.376 319.738L381.26 324.285L373.376 328.827Z" fill="white"/>
<path d="M385.25 335.676L377.371 331.129L385.25 326.587L393.134 331.129L385.25 335.676Z" fill="white"/>
<path d="M301.157 302.003L293.273 297.461L301.157 292.914L309.041 297.461L301.157 302.003Z" fill="white"/>
<path d="M313.032 308.846L305.148 304.304L313.032 299.762L320.916 304.304L313.032 308.846Z" fill="white"/>
<path d="M324.909 315.693L317.025 311.151L324.909 306.604L332.793 311.151L324.909 315.693Z" fill="white"/>
<path d="M336.786 322.536L328.902 317.994L336.786 313.452L344.67 317.994L336.786 322.536Z" fill="white"/>
<path d="M348.661 329.384L340.777 324.842L348.661 320.295L356.545 324.842L348.661 329.384Z" fill="white"/>
<path d="M360.537 336.227L352.658 331.685L360.537 327.144L368.421 331.685L360.537 336.227Z" fill="white"/>
<path d="M372.419 343.075L364.535 338.528L372.419 333.986L380.298 338.533L372.419 343.075Z" fill="white"/>
<path d="M288.315 309.401L280.432 304.859L288.315 300.312L296.199 304.859L288.315 309.401Z" fill="white"/>
<path d="M300.19 316.249L292.307 311.702L300.19 307.16L308.074 311.702L300.19 316.249Z" fill="white"/>
<path d="M312.067 323.092L304.184 318.55L312.067 314.003L319.951 318.55L312.067 323.092Z" fill="white"/>
<path d="M323.942 329.939L316.059 325.392L323.942 320.851L331.826 325.392L323.942 329.939Z" fill="white"/>
<path d="M335.82 336.783L327.941 332.241L335.82 327.694L343.704 332.241L335.82 336.783Z" fill="white"/>
<path d="M347.7 343.631L339.816 339.084L347.7 334.542L355.579 339.084L347.7 343.631Z" fill="white"/>
<path d="M359.575 350.473L351.691 345.932L359.575 341.385L367.454 345.932L359.575 350.473Z" fill="white"/>
<path d="M275.476 316.801L267.592 312.26L275.476 307.718L283.359 312.26L275.476 316.801Z" fill="white"/>
<path d="M287.351 323.649L279.467 319.107L287.351 314.561L295.234 319.107L287.351 323.649Z" fill="white"/>
<path d="M299.228 330.492L291.344 325.95L299.228 321.408L307.111 325.95L299.228 330.492Z" fill="white"/>
<path d="M311.103 337.34L303.225 332.798L311.103 328.251L318.987 332.798L311.103 337.34Z" fill="white"/>
<path d="M322.98 344.183L315.102 339.641L322.98 335.1L330.864 339.641L322.98 344.183Z" fill="white"/>
<path d="M334.86 351.031L326.977 346.489L334.86 341.942L342.739 346.489L334.86 351.031Z" fill="white"/>
<path d="M346.735 357.874L338.852 353.332L346.735 348.79L354.619 353.332L346.735 357.874Z" fill="white"/>
<path d="M262.636 324.205L254.752 319.658L262.636 315.116L270.52 319.658L262.636 324.205Z" fill="white"/>
<path d="M274.511 331.048L266.627 326.506L274.511 321.959L282.395 326.506L274.511 331.048Z" fill="white"/>
<path d="M286.388 337.895L278.504 333.348L286.388 328.807L294.272 333.348L286.388 337.895Z" fill="white"/>
<path d="M298.264 344.738L290.385 340.196L298.264 335.649L306.147 340.196L298.264 344.738Z" fill="white"/>
<path d="M310.146 351.587L302.262 347.04L310.146 342.498L318.024 347.04L310.146 351.587Z" fill="white"/>
<path d="M322.021 358.429L314.137 353.888L322.021 349.341L329.904 353.888L322.021 358.429Z" fill="white"/>
<path d="M333.896 365.277L326.012 360.73L333.896 356.188L341.779 360.73L333.896 365.277Z" fill="white"/>
</g>
<g style="mix-blend-mode:multiply">
<path d="M430.752 356.655H430.742C430.351 362.014 426.268 367.573 418.645 371.969L354.415 408.991C339.742 417.448 317.547 418.365 304.843 411.041L233.497 369.919C227.391 366.4 224.594 361.617 224.96 356.66H224.92V360.394H224.96C224.599 365.352 227.391 370.135 233.497 373.654L304.843 414.776C317.547 422.1 339.742 421.183 354.415 412.726L418.645 375.704C426.268 371.313 430.351 365.748 430.742 360.389H430.752V360.299C430.787 359.793 430.787 359.286 430.752 358.785V356.655Z" fill="#E8EDFA"/>
</g>
<path d="M416.84 356.174C416.84 358.56 415.163 361.462 413.089 362.655C411.02 363.849 409.338 362.881 409.338 360.495C409.338 358.109 411.015 355.206 413.089 354.013C415.158 352.82 416.84 353.787 416.84 356.174Z" fill="white"/>
<path d="M403.701 366.803C405.165 364.271 405.165 361.534 403.7 360.69C402.235 359.846 399.86 361.214 398.396 363.746C396.931 366.278 396.932 369.015 398.397 369.859C399.862 370.703 402.237 369.335 403.701 366.803Z" fill="white"/>
<path d="M392.752 370.054C392.752 372.441 391.075 375.343 389.001 376.536C386.932 377.729 385.25 376.762 385.25 374.376C385.25 371.989 386.927 369.087 389.001 367.894C391.07 366.701 392.752 367.668 392.752 370.054Z" fill="white"/>
<path d="M415.742 396.223C417.206 393.691 417.206 390.954 415.741 390.11C414.276 389.265 411.901 390.633 410.437 393.165C408.972 395.697 408.973 398.435 410.438 399.279C411.903 400.123 414.278 398.755 415.742 396.223Z" fill="white"/>
<path d="M404.795 399.476C404.795 401.863 403.118 404.765 401.044 405.958C398.97 407.151 397.293 406.184 397.293 403.798C397.293 401.411 398.97 398.509 401.044 397.316C403.113 396.123 404.795 397.09 404.795 399.476Z" fill="white"/>
<path d="M392.752 406.419C392.752 408.805 391.075 411.707 389.001 412.901C386.932 414.094 385.25 413.126 385.25 410.74C385.25 408.354 386.927 405.451 389.001 404.258C391.07 403.065 392.752 404.032 392.752 406.419Z" fill="white"/>
<path d="M415.035 357.347C415.035 358.58 414.166 360.084 413.097 360.7C412.027 361.317 411.158 360.816 411.158 359.582C411.158 358.349 412.027 356.845 413.097 356.229C414.166 355.612 415.035 356.113 415.035 357.347Z" fill="#EBF3F8"/>
<path d="M402.988 400.518C402.988 401.752 402.119 403.256 401.05 403.872C399.98 404.489 399.111 403.987 399.111 402.754C399.111 401.521 399.98 400.017 401.05 399.401C402.119 398.784 402.988 399.285 402.988 400.518Z" fill="#EBF3F8"/>
<g style="mix-blend-mode:multiply">
<path d="M288.135 396.077L285.84 394.758V372.295L288.135 373.618V396.077Z" fill="#E8EDFA"/>
</g>
<g style="mix-blend-mode:multiply">
<path d="M282.381 392.719L280.086 391.4V368.937L282.381 370.26V392.719Z" fill="#E8EDFA"/>
</g>
<g style="mix-blend-mode:multiply">
<path d="M276.622 389.365L274.332 388.042V365.578L276.622 366.902V389.365Z" fill="#E8EDFA"/>
</g>
<g style="mix-blend-mode:multiply">
<path d="M270.866 386.006L268.576 384.682V362.219L270.866 363.542V386.006Z" fill="#E8EDFA"/>
</g>
<g style="mix-blend-mode:multiply">
<path d="M265.11 382.647L262.82 381.324V358.86L265.11 360.184V382.647Z" fill="#E8EDFA"/>
</g>
<g style="mix-blend-mode:multiply">
<path d="M288.135 431.916L285.84 430.592V408.129L288.135 409.452V431.916Z" fill="#E8EDFA"/>
</g>
<g style="mix-blend-mode:multiply">
<path d="M282.381 428.557L280.086 427.233V404.77L282.381 406.093V428.557Z" fill="#E8EDFA"/>
</g>
<g style="mix-blend-mode:multiply">
<path d="M276.62 425.198L274.33 423.875V401.411L276.62 402.735V425.198Z" fill="#E8EDFA"/>
</g>
<g style="mix-blend-mode:multiply">
<path d="M270.866 421.84L268.576 420.516V398.058L270.866 399.376V421.84Z" fill="#E8EDFA"/>
</g>
<g style="mix-blend-mode:multiply">
<path d="M265.11 418.481L262.82 417.163V394.699L265.11 396.018V418.481Z" fill="#E8EDFA"/>
</g>
<path d="M345.201 88.696L324.909 73.4112L304.617 88.696V80.4245L324.909 65.1396L345.201 80.4245V88.696Z" fill="white"/>
<path d="M345.201 105.796L324.909 90.5108L304.617 105.796V97.5241L324.909 82.2393L345.201 97.5241V105.796Z" fill="white"/>
<path d="M345.201 122.895L324.909 107.605L304.617 122.895V114.619L324.909 99.3337L345.201 114.619V122.895Z" fill="white"/>
<path d="M345.201 139.99L324.909 124.705L304.617 139.99V131.718L324.909 116.434L345.201 131.718V139.99Z" fill="white"/>
<path d="M345.201 157.09L324.909 141.805L304.617 157.09V148.813L324.909 133.528L345.201 148.813V157.09Z" fill="white"/>
<path d="M345.201 174.184L324.909 158.899L304.617 174.184V165.913L324.909 150.628L345.201 165.913V174.184Z" fill="white"/>
<path d="M345.201 191.283L324.909 175.998L304.617 191.283V183.007L324.909 167.722L345.201 183.007V191.283Z" fill="white"/>
<path d="M345.201 208.378L324.909 193.093L304.617 208.378V200.106L324.909 184.821L345.201 200.106V208.378Z" fill="white"/>
<path d="M345.201 225.477L324.909 210.193L304.617 225.477V217.201L324.909 201.916L345.201 217.201V225.477Z" fill="white"/>
<path d="M390.318 17.7212L375.053 6.22121L359.787 17.7212V11.495L375.053 0L390.318 11.495V17.7212Z" fill="white"/>
<path d="M390.318 30.5796L375.053 19.0846L359.787 30.5796V24.3584L375.053 12.8584L390.318 24.3584V30.5796Z" fill="white"/>
<path d="M390.318 43.4429L375.053 31.9429L359.787 43.4429V37.2166L375.053 25.7217L390.318 37.2166V43.4429Z" fill="white"/>
<path d="M390.318 56.3013L375.053 44.8063L359.787 56.3013V50.08L375.053 38.5801L390.318 50.08V56.3013Z" fill="white"/>
<path d="M390.318 69.1655L375.053 57.6655L359.787 69.1655V62.9393L375.053 51.4443L390.318 62.9393V69.1655Z" fill="white"/>
<path d="M390.318 82.0237L375.053 70.5287L359.787 82.0237V75.8025L375.053 64.3025L390.318 75.8025V82.0237Z" fill="white"/>
<path d="M390.318 94.8872L375.053 83.3872L359.787 94.8872V88.661L375.053 77.166L390.318 88.661V94.8872Z" fill="white"/>
<path d="M390.318 107.746L375.053 96.2509L359.787 107.746V101.525L375.053 90.0247L390.318 101.525V107.746Z" fill="white"/>
<path d="M390.318 120.609L375.053 109.109L359.787 120.609V114.383L375.053 102.888L390.318 114.383V120.609Z" fill="white"/>
<path d="M289.249 54.8374L275.244 44.29L261.244 54.8374V49.1276L275.244 38.5801L289.249 49.1276V54.8374Z" fill="white"/>
<path d="M289.249 66.6332L275.244 56.0857L261.244 66.6332V60.9233L275.244 50.3809L289.249 60.9233V66.6332Z" fill="white"/>
<path d="M289.249 78.4289L275.244 67.8814L261.244 78.4289V72.719L275.244 62.1765L289.249 72.719V78.4289Z" fill="white"/>
<path d="M289.249 90.225L275.244 79.6775L261.244 90.225V84.5201L275.244 73.9727L289.249 84.5201V90.225Z" fill="white"/>
<path d="M289.249 102.02L275.244 91.4775L261.244 102.02V96.3151L275.244 85.7676L289.249 96.3151V102.02Z" fill="white"/>
<path d="M289.249 113.821L275.244 103.273L261.244 113.821V108.111L275.244 97.5635L289.249 108.111V113.821Z" fill="white"/>
<path d="M289.249 125.617L275.244 115.069L261.244 125.617V119.907L275.244 109.36L289.249 119.907V125.617Z" fill="white"/>
<path d="M289.249 137.413L275.244 126.865L261.244 137.413V131.703L275.244 121.16L289.249 131.703V137.413Z" fill="white"/>
<path d="M289.249 149.208L275.244 138.661L261.244 149.208V143.499L275.244 132.956L289.249 143.499V149.208Z" fill="white"/>
<defs>
<linearGradient id="paint0_linear_1296_32194" x1="595.473" y1="356.004" x2="616.855" y2="356.004" gradientUnits="userSpaceOnUse">
<stop stop-color="white"/>
<stop offset="0.06" stop-color="white"/>
<stop offset="0.28" stop-color="#DEE6FF"/>
<stop offset="1" stop-color="#DEE6FF"/>
</linearGradient>
<linearGradient id="paint1_linear_1296_32194" x1="606.165" y1="347.921" x2="595.955" y2="364.896" gradientUnits="userSpaceOnUse">
<stop stop-color="#3384BD"/>
<stop offset="1" stop-color="#304FAF"/>
</linearGradient>
<linearGradient id="paint2_linear_1296_32194" x1="156.437" y1="134.377" x2="-83.4431" y2="375.404" gradientUnits="userSpaceOnUse">
<stop stop-color="#3384BD"/>
<stop offset="1" stop-color="#304FAF"/>
</linearGradient>
<linearGradient id="paint3_linear_1296_32194" x1="47.6055" y1="338.923" x2="170.575" y2="115.431" gradientUnits="userSpaceOnUse">
<stop stop-color="#DEE6FF"/>
<stop offset="0.35" stop-color="white"/>
<stop offset="0.36" stop-color="#EBF0FF"/>
<stop offset="0.57" stop-color="white"/>
<stop offset="0.6" stop-color="#EBF0FF"/>
<stop offset="0.8" stop-color="white"/>
<stop offset="1" stop-color="white"/>
</linearGradient>
<linearGradient id="paint4_linear_1296_32194" x1="259.434" y1="166.148" x2="143.268" y2="235.26" gradientUnits="userSpaceOnUse">
<stop stop-color="white"/>
<stop offset="1" stop-color="#8F8F8F"/>
</linearGradient>
<linearGradient id="paint5_linear_1296_32194" x1="482.438" y1="250.247" x2="414.941" y2="136.255" gradientUnits="userSpaceOnUse">
<stop stop-color="#DEE6FF"/>
<stop offset="0.6" stop-color="#DEE6FF"/>
<stop offset="0.8" stop-color="white"/>
<stop offset="1" stop-color="white"/>
</linearGradient>
<linearGradient id="paint6_linear_1296_32194" x1="411.806" y1="145.307" x2="318.979" y2="177.879" gradientUnits="userSpaceOnUse">
<stop stop-color="#3384BD"/>
<stop offset="1" stop-color="#304FAF"/>
</linearGradient>
<linearGradient id="paint7_linear_1296_32194" x1="549.028" y1="288.541" x2="481.526" y2="174.55" gradientUnits="userSpaceOnUse">
<stop stop-color="#DEE6FF"/>
<stop offset="0.6" stop-color="#DEE6FF"/>
<stop offset="0.8" stop-color="white"/>
<stop offset="1" stop-color="white"/>
</linearGradient>
<linearGradient id="paint8_linear_1296_32194" x1="478.396" y1="183.602" x2="385.569" y2="216.174" gradientUnits="userSpaceOnUse">
<stop stop-color="#3384BD"/>
<stop offset="1" stop-color="#304FAF"/>
</linearGradient>
<linearGradient id="paint9_linear_1296_32194" x1="615.614" y1="326.836" x2="548.112" y2="212.845" gradientUnits="userSpaceOnUse">
<stop stop-color="#DEE6FF"/>
<stop offset="0.6" stop-color="#DEE6FF"/>
<stop offset="0.8" stop-color="white"/>
<stop offset="1" stop-color="white"/>
</linearGradient>
<linearGradient id="paint10_linear_1296_32194" x1="544.982" y1="221.896" x2="452.155" y2="254.468" gradientUnits="userSpaceOnUse">
<stop stop-color="#3384BD"/>
<stop offset="1" stop-color="#304FAF"/>
</linearGradient>
<linearGradient id="paint11_linear_1296_32194" x1="594.374" y1="257.129" x2="577.941" y2="277.385" gradientUnits="userSpaceOnUse">
<stop stop-color="#3384BD"/>
<stop offset="1" stop-color="#304FAF"/>
</linearGradient>
<linearGradient id="paint12_linear_1296_32194" x1="327.847" y1="269.359" x2="223.26" y2="443.233" gradientUnits="userSpaceOnUse">
<stop stop-color="#3384BD"/>
<stop offset="1" stop-color="#304FAF"/>
</linearGradient>
</defs>
</svg>
