<svg width="60" height="66" viewBox="0 0 60 66" fill="none" xmlns="http://www.w3.org/2000/svg">
<path d="M59.6912 30.3052V20.725C59.6912 15.313 59.6912 12.607 58.3511 10.8415C57.011 9.076 53.9811 8.21886 47.9211 6.50464C43.7808 5.33347 40.131 3.92248 37.2151 2.63436C33.2394 0.878131 31.2516 0 29.8456 0C28.4395 0 26.4518 0.878131 22.4761 2.63436C19.5601 3.92248 15.9105 5.33347 11.7702 6.50464C5.71022 8.21886 2.6802 9.076 1.3401 10.8415C-2.37191e-07 12.607 0 15.313 0 20.725V30.3052C0 48.868 16.789 60.0056 25.183 64.414C27.1963 65.4713 28.2028 66 29.8456 66C31.4884 66 32.4949 65.4713 34.5081 64.414C42.902 60.0056 59.6912 48.868 59.6912 30.3052Z" fill="#2E78AC"/>
<path d="M35.6615 28.9119C35.6159 28.1245 34.9629 27.5 34.1641 27.5H33.1641L33.1058 27.5034C32.8571 27.5322 32.6641 27.7436 32.6641 28C32.6641 28.2761 32.8879 28.5 33.1641 28.5H34.1641L34.2224 28.5034C34.471 28.5322 34.6641 28.7436 34.6641 29V30L34.6674 30.0583C34.6963 30.307 34.9076 30.5 35.1641 30.5C35.4402 30.5 35.6641 30.2761 35.6641 30V29L35.6615 28.9119Z" fill="white"/>
<path d="M35.1641 35.5C35.4205 35.5 35.6318 35.693 35.6607 35.9417L35.6641 36V37C35.6641 37.7988 35.0396 38.4518 34.2522 38.4975L34.1641 38.5H33.1641C32.8879 38.5 32.6641 38.2761 32.6641 38C32.6641 37.7436 32.8571 37.5322 33.1058 37.5034L33.1641 37.5H34.1641C34.4205 37.5 34.6318 37.307 34.6607 37.0583L34.6641 37V36C34.6641 35.7239 34.8879 35.5 35.1641 35.5Z" fill="white"/>
<path d="M25.6607 35.9417C25.6318 35.693 25.4205 35.5 25.1641 35.5C24.8879 35.5 24.6641 35.7239 24.6641 36V37L24.6666 37.0881C24.7122 37.8755 25.3652 38.5 26.1641 38.5H27.1641L27.2224 38.4966C27.471 38.4678 27.6641 38.2564 27.6641 38C27.6641 37.7239 27.4402 37.5 27.1641 37.5H26.1641L26.1058 37.4966C25.8571 37.4678 25.6641 37.2564 25.6641 37V36L25.6607 35.9417Z" fill="white"/>
<path d="M27.1641 27.5C27.4402 27.5 27.6641 27.7239 27.6641 28C27.6641 28.2564 27.471 28.4678 27.2224 28.4966L27.1641 28.5H26.1641C25.9076 28.5 25.6963 28.693 25.6674 28.9417L25.6641 29V30C25.6641 30.2761 25.4402 30.5 25.1641 30.5C24.9076 30.5 24.6963 30.307 24.6674 30.0583L24.6641 30V29C24.6641 28.2012 25.2885 27.5482 26.0759 27.5025L26.1641 27.5H27.1641Z" fill="white"/>
<path d="M30.1641 29.5C30.7163 29.5 31.1641 29.9477 31.1641 30.5C31.1641 31.0523 30.7163 31.5 30.1641 31.5C29.6118 31.5 29.1641 31.0523 29.1641 30.5C29.1641 29.9477 29.6118 29.5 30.1641 29.5Z" fill="white"/>
<path fill-rule="evenodd" clip-rule="evenodd" d="M33.1641 31C33.1641 29.3431 31.8209 28 30.1641 28C28.5072 28 27.1641 29.3431 27.1641 31L27.1666 31.1241L27.1746 31.2522C27.2564 32.2296 27.8102 33.095 28.6399 33.5846L28.6641 33.598V37L28.6675 37.0585C28.6834 37.1936 28.7539 37.3174 28.8641 37.4L29.8641 38.15L29.9193 38.186C30.0901 38.282 30.3041 38.27 30.4641 38.15L31.4641 37.4L31.5088 37.3622C31.6073 37.2684 31.6641 37.1377 31.6641 37V36.25L31.6597 36.1843L31.6469 36.1202C31.6244 36.0363 31.5801 35.959 31.5176 35.8964L31.3716 35.75L31.5176 35.6036L31.5592 35.5564L31.5939 35.5057C31.7083 35.3138 31.6828 35.0617 31.5176 34.8964L31.3716 34.75L31.5176 34.6036L31.561 34.554L31.5972 34.4997C31.6406 34.4245 31.664 34.3385 31.6641 34.2501V33.598L31.6887 33.5843L31.7952 33.5184C32.634 32.9749 33.1641 32.036 33.1641 31ZM28.1641 31C28.1641 29.8954 29.0595 29 30.1641 29C31.2686 29 32.1641 29.8954 32.1641 31C32.1641 31.8027 31.687 32.5177 30.9641 32.8337L30.9059 32.8638L30.8529 32.9007C30.7356 32.9941 30.6644 33.1372 30.6643 33.2917L30.6641 34.042L30.3105 34.3964L30.2689 34.4436L30.2343 34.4943C30.1199 34.6862 30.1453 34.9383 30.3105 35.1036L30.4566 35.25L30.3105 35.3964L30.2689 35.4436L30.2343 35.4943C30.1199 35.6862 30.1453 35.9383 30.3105 36.1036L30.6641 36.4575V36.75L30.1641 37.125L29.6636 36.7495L29.6643 33.2921L29.66 33.2267C29.6373 33.0546 29.5263 32.9046 29.3644 32.8339C28.6413 32.518 28.1641 31.8028 28.1641 31Z" fill="white"/>
<path fill-rule="evenodd" clip-rule="evenodd" d="M25.1641 23.5C25.1641 22.6716 25.8356 22 26.6641 22C27.4925 22 28.1641 22.6716 28.1641 23.5C28.1641 24.1531 27.7467 24.7087 27.1641 24.9146V26H29.6641V24.9146C29.0815 24.7087 28.6641 24.1531 28.6641 23.5C28.6641 22.6716 29.3356 22 30.1641 22C30.9925 22 31.6641 22.6716 31.6641 23.5C31.6641 24.1531 31.2467 24.7087 30.6641 24.9146V26H33.1641V24.9146C32.5815 24.7087 32.1641 24.1531 32.1641 23.5C32.1641 22.6716 32.8356 22 33.6641 22C34.4925 22 35.1641 22.6716 35.1641 23.5C35.1641 24.1531 34.7467 24.7087 34.1641 24.9146V26H34.6641C36.0448 26 37.1641 27.1193 37.1641 28.5V29H38.1848C38.3038 28.2906 38.9208 27.75 39.6641 27.75C40.4925 27.75 41.1641 28.4216 41.1641 29.25C41.1641 30.0784 40.4925 30.75 39.6641 30.75C39.1089 30.75 38.6241 30.4484 38.3647 30H37.1641V32.5H38.1848C38.3038 31.7906 38.9208 31.25 39.6641 31.25C40.4925 31.25 41.1641 31.9216 41.1641 32.75C41.1641 33.5784 40.4925 34.25 39.6641 34.25C39.1089 34.25 38.6241 33.9484 38.3647 33.5H37.1641V36H38.1848C38.3038 35.2906 38.9208 34.75 39.6641 34.75C40.4925 34.75 41.1641 35.4216 41.1641 36.25C41.1641 37.0784 40.4925 37.75 39.6641 37.75C39.1089 37.75 38.6241 37.4484 38.3647 37H37.1641V37.5C37.1641 38.8807 36.0448 40 34.6641 40H34.1641V41.0854C34.7467 41.2913 35.1641 41.8469 35.1641 42.5C35.1641 43.3284 34.4925 44 33.6641 44C32.8356 44 32.1641 43.3284 32.1641 42.5C32.1641 41.8469 32.5815 41.2913 33.1641 41.0854V40H30.6641V41.0854C31.2467 41.2913 31.6641 41.8469 31.6641 42.5C31.6641 43.3284 30.9925 44 30.1641 44C29.3356 44 28.6641 43.3284 28.6641 42.5C28.6641 41.8469 29.0815 41.2913 29.6641 41.0854V40H27.1641V41.0854C27.7467 41.2913 28.1641 41.8469 28.1641 42.5C28.1641 43.3284 27.4925 44 26.6641 44C25.8356 44 25.1641 43.3284 25.1641 42.5C25.1641 41.8469 25.5815 41.2913 26.1641 41.0854V40H25.6641C24.2834 40 23.1641 38.8807 23.1641 37.5V37H22.0787C21.8728 37.5826 21.3172 38 20.6641 38C19.8356 38 19.1641 37.3284 19.1641 36.5C19.1641 35.6716 19.8356 35 20.6641 35C21.3172 35 21.8728 35.4174 22.0787 36H23.1641V33.5H22.0787C21.8728 34.0826 21.3172 34.5 20.6641 34.5C19.8356 34.5 19.1641 33.8284 19.1641 33C19.1641 32.1716 19.8356 31.5 20.6641 31.5C21.3172 31.5 21.8728 31.9174 22.0787 32.5H23.1641V30H22.0787C21.8728 30.5826 21.3172 31 20.6641 31C19.8356 31 19.1641 30.3284 19.1641 29.5C19.1641 28.6716 19.8356 28 20.6641 28C21.3172 28 21.8728 28.4174 22.0787 29H23.1641V28.5C23.1641 27.1193 24.2834 26 25.6641 26H26.1641V24.9146C25.5815 24.7087 25.1641 24.1531 25.1641 23.5ZM39.1641 36.25C39.1641 36.5261 39.3879 36.75 39.6641 36.75C39.9402 36.75 40.1641 36.5261 40.1641 36.25C40.1641 35.9739 39.9402 35.75 39.6641 35.75C39.3879 35.75 39.1641 35.9739 39.1641 36.25ZM39.6641 33.25C39.3879 33.25 39.1641 33.0261 39.1641 32.75C39.1641 32.4739 39.3879 32.25 39.6641 32.25C39.9402 32.25 40.1641 32.4739 40.1641 32.75C40.1641 33.0261 39.9402 33.25 39.6641 33.25ZM39.1641 29.25C39.1641 29.5261 39.3879 29.75 39.6641 29.75C39.9402 29.75 40.1641 29.5261 40.1641 29.25C40.1641 28.9739 39.9402 28.75 39.6641 28.75C39.3879 28.75 39.1641 28.9739 39.1641 29.25ZM21.1641 29.5C21.1641 29.2239 20.9402 29 20.6641 29C20.3879 29 20.1641 29.2239 20.1641 29.5C20.1641 29.7761 20.3879 30 20.6641 30C20.9402 30 21.1641 29.7761 21.1641 29.5ZM20.6641 32.5C20.9402 32.5 21.1641 32.7239 21.1641 33C21.1641 33.2761 20.9402 33.5 20.6641 33.5C20.3879 33.5 20.1641 33.2761 20.1641 33C20.1641 32.7239 20.3879 32.5 20.6641 32.5ZM21.1641 36.5C21.1641 36.2239 20.9402 36 20.6641 36C20.3879 36 20.1641 36.2239 20.1641 36.5C20.1641 36.7761 20.3879 37 20.6641 37C20.9402 37 21.1641 36.7761 21.1641 36.5ZM30.1641 24C30.4402 24 30.6641 23.7761 30.6641 23.5C30.6641 23.2239 30.4402 23 30.1641 23C29.8879 23 29.6641 23.2239 29.6641 23.5C29.6641 23.7761 29.8879 24 30.1641 24ZM34.1641 23.5C34.1641 23.7761 33.9402 24 33.6641 24C33.3879 24 33.1641 23.7761 33.1641 23.5C33.1641 23.2239 33.3879 23 33.6641 23C33.9402 23 34.1641 23.2239 34.1641 23.5ZM26.6641 24C26.9402 24 27.1641 23.7761 27.1641 23.5C27.1641 23.2239 26.9402 23 26.6641 23C26.3879 23 26.1641 23.2239 26.1641 23.5C26.1641 23.7761 26.3879 24 26.6641 24ZM34.6641 27C35.4925 27 36.1641 27.6716 36.1641 28.5V37.5C36.1641 38.3284 35.4925 39 34.6641 39H25.6641C24.8356 39 24.1641 38.3284 24.1641 37.5V28.5C24.1641 27.6716 24.8356 27 25.6641 27H34.6641ZM26.6641 42C26.9402 42 27.1641 42.2239 27.1641 42.5C27.1641 42.7761 26.9402 43 26.6641 43C26.3879 43 26.1641 42.7761 26.1641 42.5C26.1641 42.2239 26.3879 42 26.6641 42ZM34.1641 42.5C34.1641 42.2239 33.9402 42 33.6641 42C33.3879 42 33.1641 42.2239 33.1641 42.5C33.1641 42.7761 33.3879 43 33.6641 43C33.9402 43 34.1641 42.7761 34.1641 42.5ZM30.6641 42.5C30.6641 42.2239 30.4402 42 30.1641 42C29.8879 42 29.6641 42.2239 29.6641 42.5C29.6641 42.7761 29.8879 43 30.1641 43C30.4402 43 30.6641 42.7761 30.6641 42.5Z" fill="white"/>
</svg>
