<svg width="60" height="66" viewBox="0 0 60 66" fill="none" xmlns="http://www.w3.org/2000/svg">
<path d="M59.6912 30.3052V20.725C59.6912 15.313 59.6912 12.607 58.3511 10.8415C57.011 9.076 53.9811 8.21886 47.9211 6.50464C43.7808 5.33347 40.131 3.92248 37.2151 2.63436C33.2394 0.878131 31.2516 0 29.8456 0C28.4395 0 26.4518 0.878131 22.4761 2.63436C19.5601 3.92248 15.9105 5.33347 11.7702 6.50464C5.71022 8.21886 2.6802 9.076 1.3401 10.8415C-2.37191e-07 12.607 0 15.313 0 20.725V30.3052C0 48.868 16.789 60.0056 25.183 64.414C27.1963 65.4713 28.2028 66 29.8456 66C31.4884 66 32.4949 65.4713 34.5081 64.414C42.902 60.0056 59.6912 48.868 59.6912 30.3052Z" fill="#2E78AC"/>
<g clip-path="url(#clip0_1343_37629)">
<path fill-rule="evenodd" clip-rule="evenodd" d="M19.7724 29.1111V28.2934C19.7724 28.1447 19.8276 28.0131 19.9349 27.9099L21.0896 26.799V26.4032C20.7339 26.3451 20.3661 26.1934 20.125 25.9376H19.0704C18.7742 25.9376 18.5371 25.6976 18.5371 25.4055V24.8711C18.5371 24.3027 18.8485 23.8146 19.3645 23.5754C19.3666 23.5744 19.3687 23.5734 19.3709 23.5725L21.1379 22.7933V21.9242C21.1379 21.5988 21.4041 21.3293 21.7327 21.3293C22.6491 21.3293 23.4101 22.0264 23.5134 22.9163C23.9091 23.0942 24.2902 23.4135 24.6122 23.8301C25.1665 24.5472 25.5483 25.551 25.5483 26.5274V29.1111H25.8461C26.0541 29.1111 26.2226 29.2797 26.2226 29.4876V30.6396C26.2226 30.8476 26.0541 31.0161 25.8461 31.0161H19.4745C19.2666 31.0161 19.0981 30.8476 19.0981 30.6396V29.4876C19.0981 29.2797 19.2666 29.1111 19.4745 29.1111H19.7724ZM24.7954 29.1111V26.5274C24.7954 25.7174 24.4763 24.8854 24.0165 24.2905C23.7328 23.9236 23.3979 23.6448 23.0457 23.5444C22.8839 23.4983 22.7724 23.3505 22.7724 23.1823V23.1232C22.7724 22.6047 22.3886 22.1712 21.8908 22.0944V23.0388C21.8908 23.1879 21.8028 23.323 21.6662 23.3832C21.6662 23.3832 19.6782 24.2598 19.6771 24.2604C19.4356 24.3741 19.2901 24.6038 19.2901 24.8711V25.1846H20.3093C20.4425 25.1846 20.5659 25.2551 20.6336 25.3699C20.6999 25.4824 20.8213 25.5504 20.9501 25.598C21.115 25.659 21.2977 25.6822 21.4536 25.677C21.5556 25.6737 21.6546 25.7118 21.7278 25.7827C21.8012 25.8536 21.8426 25.9513 21.8426 26.0533V26.9592C21.8426 27.0616 21.8009 27.1596 21.7271 27.2305L20.5253 28.3867V29.1111H24.7954ZM19.851 30.2631H25.4697V29.8641H19.851V30.2631ZM32.2562 29.6149C32.5373 29.6968 32.8085 29.8091 33.0655 29.9502L33.5844 29.7195C33.7268 29.6562 33.8934 29.6871 34.0036 29.7973L34.8218 30.6156C34.9318 30.7256 34.9629 30.892 34.8998 31.0342C34.8998 31.0342 34.6699 31.5533 34.6699 31.5533C34.8112 31.8106 34.9237 32.0822 35.0056 32.3643L35.5348 32.5679C35.6801 32.6239 35.776 32.7636 35.776 32.9193V34.0767C35.776 34.2325 35.6801 34.3722 35.5348 34.4281C35.5348 34.4281 35.0054 34.6318 35.0054 34.6318C34.9233 34.913 34.8105 35.1842 34.6697 35.4412L34.8998 35.9606C34.9629 36.1029 34.9318 36.2693 34.8218 36.3793L34.0036 37.1975C33.8935 37.3076 33.7271 37.3386 33.5849 37.2756C33.5849 37.2756 33.066 37.0457 33.0661 37.0457C32.8093 37.1869 32.5375 37.2993 32.256 37.3813L32.0524 37.9105C31.9964 38.0558 31.8567 38.1517 31.701 38.1517H30.5436C30.3878 38.1517 30.2481 38.0558 30.1922 37.9105L29.9885 37.3813C29.7066 37.2992 29.4351 37.1863 29.178 37.0454L28.6585 37.2756C28.5163 37.3386 28.3499 37.3076 28.2398 37.1975L27.4216 36.3793C27.3114 36.2691 27.2805 36.1025 27.3438 35.9601C27.3438 35.9601 27.5744 35.4414 27.5744 35.4415C27.4333 35.1849 27.3209 34.9133 27.2384 34.632L26.7086 34.4281C26.5633 34.3722 26.4674 34.2325 26.4674 34.0767V32.9193C26.4674 32.7636 26.5633 32.6239 26.7086 32.5679C26.7086 32.5679 27.2383 32.3641 27.2383 32.3641C27.3208 32.0821 27.4333 31.8108 27.5745 31.5536L27.3438 31.0347C27.2805 30.8924 27.3114 30.7257 27.4216 30.6156L28.2398 29.7973C28.35 29.6871 28.5166 29.6562 28.659 29.7195C28.659 29.7195 29.1779 29.9502 29.1779 29.9502C29.435 29.8091 29.7063 29.6967 29.9876 29.6148L30.1923 29.0841C30.2484 28.9389 30.3879 28.8431 30.5436 28.8431H31.701C31.8568 28.8431 31.9965 28.9391 32.0525 29.0845L32.2562 29.6149ZM31.6223 30.0645L31.4424 29.5961H30.8018L30.6209 30.065C30.5762 30.1807 30.4774 30.267 30.3567 30.2957C30.0181 30.3762 29.6951 30.51 29.3982 30.6929C29.2925 30.7581 29.1613 30.7669 29.0478 30.7164L28.5894 30.5125L28.1368 30.9651L28.3407 31.4235C28.3911 31.5371 28.3823 31.6682 28.3172 31.774C28.1341 32.0711 28.0003 32.3944 27.9186 32.7344C27.8897 32.8549 27.8034 32.9534 27.6878 32.9979L27.2204 33.1778V33.8182L27.6878 33.9981C27.8033 34.0426 27.8896 34.141 27.9186 34.2614C28.0001 34.6002 28.1339 34.9245 28.3169 35.2204C28.3823 35.3262 28.3912 35.4576 28.3407 35.5713L28.1368 36.0297L28.5897 36.4826L29.0483 36.2794C29.1614 36.2293 29.2919 36.238 29.3974 36.3026C29.6945 36.4846 30.0176 36.6197 30.3576 36.7002C30.4785 36.7289 30.5775 36.8154 30.6221 36.9313L30.802 37.3988H31.4425L31.6224 36.9313C31.667 36.8155 31.7659 36.729 31.8867 36.7003C32.2252 36.6198 32.549 36.4862 32.8446 36.3034C32.9503 36.2381 33.0815 36.2291 33.1951 36.2794L33.6537 36.4826L34.1069 36.0294L33.9037 35.5709C33.8536 35.4577 33.8622 35.3272 33.9269 35.2217C34.1089 34.9246 34.244 34.6014 34.3245 34.2624C34.3533 34.1416 34.4397 34.0428 34.5556 33.9981L35.023 33.8182V33.1778L34.5556 32.9979C34.4396 32.9533 34.3532 32.8542 34.3245 32.7333C34.244 32.3937 34.1103 32.0708 33.9274 31.774C33.8623 31.6684 33.8534 31.5374 33.9037 31.424L34.1069 30.9654L33.654 30.5125L33.1956 30.7164C33.0821 30.7669 32.9509 30.7581 32.8452 30.6929C32.5483 30.51 32.2253 30.3762 31.8867 30.2957C31.7658 30.267 31.6669 30.1805 31.6223 30.0645ZM31.1217 31.1021C32.4452 31.1021 33.5182 32.174 33.5182 33.4974C33.5182 34.8208 32.4451 35.8939 31.1217 35.8939C29.7982 35.8939 28.7264 34.8209 28.7264 33.4974C28.7264 32.1739 29.7982 31.1021 31.1217 31.1021ZM31.1217 31.855C30.2142 31.855 29.4793 32.59 29.4793 33.4974C29.4793 34.405 30.2141 35.141 31.1217 35.141C32.0293 35.141 32.7653 34.405 32.7653 33.4974C32.7653 32.5899 32.0293 31.855 31.1217 31.855ZM37.6715 44.6705C35.4031 44.6705 33.5525 42.8211 33.5525 40.5527C33.5525 38.2844 35.4031 36.4338 37.6715 36.4338C39.9398 36.4338 41.7892 38.2844 41.7892 40.5527C41.7892 42.8212 39.9399 44.6705 37.6715 44.6705ZM37.6715 43.9176C39.5251 43.9176 41.0363 42.4064 41.0363 40.5527C41.0363 38.6991 39.5251 37.1868 37.6715 37.1868C35.8178 37.1868 34.3055 38.699 34.3055 40.5527C34.3055 42.4064 35.8178 43.9176 37.6715 43.9176ZM37.1788 40.3483L38.7314 38.7796L38.7321 38.7789C39.0939 38.4151 39.6845 38.4134 40.0482 38.7752C40.4118 39.1369 40.4142 39.7253 40.0525 40.0907L40.0524 40.0909C39.314 40.836 38.5812 41.5855 37.8394 42.3273C37.4759 42.6908 36.8856 42.6908 36.5221 42.3273L35.2929 41.0969C34.9295 40.7336 34.9289 40.1455 35.2922 39.7803L35.2929 39.7797C35.6564 39.4161 36.2467 39.4161 36.6101 39.7797L37.1788 40.3483ZM36.914 41.1483L36.0778 40.3121C36.0082 40.2425 35.8953 40.2424 35.8254 40.3119C35.7561 40.3822 35.7556 40.4949 35.8253 40.5645L37.0545 41.7949C37.1242 41.8645 37.2373 41.8645 37.307 41.7949C38.0479 41.054 38.7798 40.3053 39.5174 39.5611C39.5867 39.491 39.5869 39.3783 39.5172 39.309C39.4478 39.24 39.3351 39.2404 39.266 39.3097L37.4478 41.1469C37.3773 41.2181 37.2813 41.2583 37.1812 41.2586C37.081 41.2588 36.9848 41.2191 36.914 41.1483ZM26.9119 26.5492C26.7042 26.5492 26.5355 26.3805 26.5355 26.1727C26.5355 25.9649 26.7042 25.7963 26.9119 25.7963H40.4755C40.6834 25.7963 40.8519 25.9648 40.8519 26.1727V33.4974C40.8519 33.7053 40.6834 33.8739 40.4755 33.8739H36.684C36.4763 33.8739 36.3076 33.7052 36.3076 33.4974C36.3076 33.2896 36.4763 33.121 36.684 33.121H40.099C40.099 31.6738 40.099 26.5492 40.099 26.5492H26.9119ZM32.5382 40.6826C32.746 40.6826 32.9147 40.8513 32.9147 41.0591C32.9147 41.2669 32.746 41.4356 32.5382 41.4356H20.1595C19.9516 41.4356 19.783 41.267 19.783 41.0591V33.4974C19.783 33.2895 19.9516 33.121 20.1595 33.121H25.3727C25.5805 33.121 25.7492 33.2896 25.7492 33.4974C25.7492 33.7052 25.5805 33.8739 25.3727 33.8739H20.536V40.6826H32.5382Z" fill="white"/>
</g>
<defs>
<clipPath id="clip0_1343_37629">
<rect width="24" height="24" fill="white" transform="translate(18.1641 21)"/>
</clipPath>
</defs>
</svg>
