<svg width="60" height="66" viewBox="0 0 60 66" fill="none" xmlns="http://www.w3.org/2000/svg">
<path d="M59.6912 30.3052V20.725C59.6912 15.313 59.6912 12.607 58.3511 10.8415C57.011 9.076 53.9811 8.21886 47.9211 6.50464C43.7808 5.33347 40.131 3.92248 37.2151 2.63436C33.2394 0.878131 31.2516 0 29.8456 0C28.4395 0 26.4518 0.878131 22.4761 2.63436C19.5601 3.92248 15.9105 5.33347 11.7702 6.50464C5.71022 8.21886 2.6802 9.076 1.3401 10.8415C-2.37191e-07 12.607 0 15.313 0 20.725V30.3052C0 48.868 16.789 60.0056 25.183 64.414C27.1963 65.4713 28.2028 66 29.8456 66C31.4884 66 32.4949 65.4713 34.5081 64.414C42.902 60.0056 59.6912 48.868 59.6912 30.3052Z" fill="#2E78AC"/>
<path fill-rule="evenodd" clip-rule="evenodd" d="M32.1641 29C31.0595 29 30.1641 29.8954 30.1641 31C30.1641 32.1046 31.0595 33 32.1641 33C33.2686 33 34.1641 32.1046 34.1641 31C34.1641 29.8954 33.2686 29 32.1641 29ZM32.1641 30C32.7163 30 33.1641 30.4477 33.1641 31C33.1641 31.5523 32.7163 32 32.1641 32C31.6118 32 31.1641 31.5523 31.1641 31C31.1641 30.4477 31.6118 30 32.1641 30Z" fill="white"/>
<path fill-rule="evenodd" clip-rule="evenodd" d="M27.6641 31C27.6641 28.5147 29.6788 26.5 32.1641 26.5C34.6493 26.5 36.6641 28.5147 36.6641 31C36.6641 33.4853 34.6493 35.5 32.1641 35.5C29.6788 35.5 27.6641 33.4853 27.6641 31ZM35.6641 31C35.6641 29.067 34.0971 27.5 32.1641 27.5C30.2311 27.5 28.6641 29.067 28.6641 31C28.6641 32.933 30.2311 34.5 32.1641 34.5C34.0971 34.5 35.6641 32.933 35.6641 31Z" fill="white"/>
<path fill-rule="evenodd" clip-rule="evenodd" d="M33.357 22.7679C33.2715 22.6047 33.1016 22.5 32.9141 22.5H31.4141L31.3523 22.5038C31.1695 22.5265 31.0118 22.6488 30.9459 22.8244L30.2049 24.8005C29.844 24.9144 29.4967 25.059 29.1661 25.2312L27.2444 24.3577C27.0736 24.28 26.8756 24.3051 26.7303 24.4183L26.6839 24.4593L25.6233 25.5199C25.4906 25.6526 25.4446 25.8467 25.4996 26.0226L25.5216 26.0804L26.3952 28.0021C26.223 28.3327 26.0784 28.68 25.9645 29.0409L23.9884 29.7819C23.8128 29.8478 23.6905 30.0055 23.6678 30.1883L23.664 30.2501V31.7501C23.664 31.9376 23.7687 32.1075 23.9319 32.193L23.9884 32.2182L25.9646 32.9593C26.0675 33.2853 26.1954 33.6002 26.3461 33.9017C26.3413 33.9088 26.3367 33.9161 26.3322 33.9235L26.305 33.9752L25.4211 35.9197C25.3435 36.0905 25.3686 36.2885 25.4818 36.4338L25.5228 36.4802L26.5834 37.5409C26.7161 37.6735 26.9102 37.7196 27.0861 37.6646L27.1439 37.6425L29.0884 36.7586C29.0987 36.754 29.1087 36.749 29.1184 36.7438C29.4633 36.927 29.8266 37.0801 30.2048 37.1995L30.9459 39.1757C31.0118 39.3513 31.1695 39.4736 31.3523 39.4963L31.4141 39.5001H32.9141C33.1016 39.5001 33.2715 39.3954 33.357 39.2322L33.3822 39.1757L34.1233 37.1995C34.4841 37.0856 34.8313 36.941 35.1619 36.7689L37.0837 37.6425L37.1416 37.6646C37.3174 37.7196 37.5115 37.6735 37.6442 37.5409L38.7048 36.4802L38.7458 36.4338C38.8591 36.2885 38.8841 36.0905 38.8065 35.9197L37.9329 33.9979C38.1051 33.6674 38.2496 33.3201 38.3636 32.9593L40.3397 32.2182L40.3962 32.193C40.5594 32.1075 40.6641 31.9376 40.6641 31.7501V30.2501L40.6603 30.1883C40.6376 30.0055 40.5153 29.8478 40.3397 29.7819L38.3636 29.0409C38.2497 28.68 38.1051 28.3327 37.933 28.0021L38.8065 26.0804L38.8286 26.0226C38.8836 25.8467 38.8375 25.6526 38.7048 25.5199L37.6442 24.4593L37.5978 24.4183C37.4525 24.3051 37.2545 24.28 37.0837 24.3577L35.162 25.2312C34.8314 25.059 34.4841 24.9144 34.1232 24.8005L33.3822 22.8244L33.357 22.7679ZM27.146 25.411L28.1658 25.8748C27.7458 26.203 27.3671 26.5816 27.0389 27.0017L26.5754 25.9817L27.146 25.411ZM28.129 36.0962C27.6965 35.7533 27.3087 35.3566 26.9757 34.9161L26.4745 36.0181L27.0452 36.5887L28.129 36.0962ZM37.1824 36.5887L36.1624 36.1252C36.5824 35.797 36.9611 35.4183 37.2893 34.9982L37.7531 36.0181L37.1824 36.5887ZM36.1623 25.8748C36.5824 26.203 36.961 26.5816 37.2892 27.0017L37.7527 25.9817L37.1821 25.411L36.1623 25.8748ZM24.664 30.5966L25.7124 30.2034C25.6805 30.4645 25.6641 30.7303 25.6641 31C25.6641 31.2697 25.6805 31.5355 25.7124 31.7965L24.664 31.4031V30.5966ZM38.6157 30.2034C38.6476 30.4645 38.6641 30.7303 38.6641 31C38.6641 31.2697 38.6476 31.5355 38.6157 31.7965L39.6641 31.4031V30.5966L38.6157 30.2034ZM31.7606 38.5001L31.3674 37.4517C31.6285 37.4836 31.8944 37.5 32.1641 37.5C32.4337 37.5 32.6995 37.4836 32.9605 37.4517L32.5671 38.5001H31.7606ZM32.9605 24.5483L32.5671 23.5H31.7606L31.3674 24.5483C31.6285 24.5164 31.8944 24.5 32.1641 24.5C32.4337 24.5 32.6995 24.5164 32.9605 24.5483ZM37.6641 31C37.6641 27.9624 35.2016 25.5 32.1641 25.5C29.1265 25.5 26.6641 27.9624 26.6641 31C26.6641 34.0376 29.1265 36.5 32.1641 36.5C35.2016 36.5 37.6641 34.0376 37.6641 31Z" fill="white"/>
<path d="M23.8481 36.6612C23.964 36.4106 24.2611 36.3013 24.5118 36.4173C24.7445 36.5249 24.8553 36.7888 24.7771 37.0266L24.7557 37.081C24.6956 37.2109 24.6641 37.3527 24.6641 37.5C24.6641 38.0523 25.1118 38.5 25.6641 38.5C25.777 38.5 25.8868 38.4815 25.9905 38.4457L26.0671 38.4156C26.3197 38.3042 26.6149 38.4186 26.7263 38.6713C26.8378 38.924 26.7233 39.2191 26.4706 39.3306C26.2185 39.4418 25.9449 39.5 25.6641 39.5C24.5595 39.5 23.6641 38.6046 23.6641 37.5C23.6641 37.207 23.7274 36.9221 23.8481 36.6612Z" fill="white"/>
<path d="M22.0117 32.7596C21.8493 32.7272 21.6795 32.7774 21.5605 32.8964L21.0605 33.3964L21.0191 33.4433C20.9175 33.5742 20.8865 33.7484 20.9397 33.9081L21.5376 35.703L21.5101 35.7675L19.9405 36.5528L19.8864 36.5842C19.7486 36.6762 19.6641 36.8317 19.6641 37V38L19.668 38.0624C19.6886 38.2267 19.7898 38.3719 19.9404 38.4472L21.5101 39.2325L21.5376 39.2965L20.9397 41.0919L20.9237 41.1523C20.8913 41.3148 20.9415 41.4845 21.0605 41.6036L21.5605 42.1036L21.6074 42.1449C21.7382 42.2465 21.9123 42.2776 22.072 42.2244L23.8681 41.626L23.9311 41.653L24.7169 43.2237L24.7483 43.2778C24.8403 43.4155 24.9957 43.5 25.1641 43.5H26.1641L26.2265 43.4961C26.3908 43.4755 26.5359 43.3743 26.6112 43.2238L27.3971 41.653L27.4606 41.626L29.256 42.2244L29.3165 42.2404C29.4789 42.2727 29.6486 42.2226 29.7676 42.1036L30.2676 41.6036L30.309 41.5567C30.4106 41.4259 30.4416 41.2517 30.3884 41.092L29.7279 39.1092L29.7063 39.0549C29.6003 38.8281 29.3387 38.7118 29.0955 38.7928L29.0412 38.8145C28.8144 38.9205 28.6981 39.182 28.7791 39.4253L29.3416 41.1145L29.2786 41.1775L27.5893 40.6151L27.5261 40.5985C27.4195 40.5779 27.3085 40.5925 27.2101 40.641C27.0976 40.6965 26.9821 40.7459 26.8641 40.789L26.806 40.8145C26.7124 40.8628 26.636 40.9398 26.5884 41.0349L25.8546 42.5H25.4731L24.7403 41.0352L24.7084 40.9804C24.6497 40.8929 24.5645 40.8256 24.4645 40.7892C24.3465 40.7461 24.231 40.6967 24.1185 40.6412L24.0581 40.6162C23.9554 40.5814 23.8434 40.5807 23.7394 40.6153L22.0496 41.178L21.9861 41.1145L22.5492 39.4258L22.5658 39.3626C22.5864 39.256 22.5718 39.1449 22.5233 39.0465C22.4676 38.9337 22.4181 38.8179 22.3749 38.6996L22.3494 38.6414C22.301 38.5478 22.224 38.4714 22.1289 38.4238L20.6641 37.691V37.309L22.1286 36.5768L22.1835 36.5448C22.271 36.4861 22.3383 36.4009 22.3747 36.3009C22.4179 36.1824 22.4675 36.0665 22.5233 35.9535L22.5483 35.8931C22.5832 35.7903 22.5839 35.6783 22.5492 35.5742L21.9861 33.885L22.0491 33.822L23.7382 34.3851L23.7946 34.4004C24.0396 34.4516 24.2896 34.3122 24.3707 34.0689C24.458 33.807 24.3164 33.5238 24.0545 33.4365L22.0722 32.7757L22.0117 32.7596Z" fill="white"/>
</svg>
