<svg width="60" height="66" viewBox="0 0 60 66" fill="none" xmlns="http://www.w3.org/2000/svg">
<path d="M59.6912 30.3052V20.725C59.6912 15.313 59.6912 12.607 58.3511 10.8415C57.011 9.076 53.9811 8.21886 47.9211 6.50464C43.7808 5.33347 40.131 3.92248 37.2151 2.63436C33.2394 0.878131 31.2516 0 29.8456 0C28.4395 0 26.4518 0.878131 22.4761 2.63436C19.5601 3.92248 15.9105 5.33347 11.7702 6.50464C5.71022 8.21886 2.6802 9.076 1.3401 10.8415C-2.37191e-07 12.607 0 15.313 0 20.725V30.3052C0 48.868 16.789 60.0056 25.183 64.414C27.1963 65.4713 28.2028 66 29.8456 66C31.4884 66 32.4949 65.4713 34.5081 64.414C42.902 60.0056 59.6912 48.868 59.6912 30.3052Z" fill="#2E78AC"/>
<path fill-rule="evenodd" clip-rule="evenodd" d="M30.1641 22C29.3556 22 28.6965 22.6396 28.6652 23.4404L24.7054 25.4203C24.4356 25.1601 24.0685 25 23.6641 25C22.8356 25 22.1641 25.6716 22.1641 26.5C22.1641 26.776 22.2386 27.0346 22.3687 27.2568L20.5811 31.5023C19.7913 31.5453 19.1641 32.1994 19.1641 33C19.1641 33.8059 19.7997 34.4634 20.5969 34.4985L22.5114 38.5401C22.2945 38.8002 22.1641 39.1349 22.1641 39.5C22.1641 40.3284 22.8356 41 23.6641 41C24.0709 41 24.4399 40.838 24.7101 40.5751L28.6649 42.4484C28.6644 42.4655 28.6641 42.4827 28.6641 42.5C28.6641 43.3284 29.3356 44 30.1641 44C30.928 44 31.5585 43.429 31.6521 42.6905L35.7995 40.7259C36.0439 40.8986 36.3421 41 36.6641 41C37.4925 41 38.1641 40.3284 38.1641 39.5C38.1641 39.224 38.0895 38.9654 37.9594 38.7432L39.747 34.4977C40.5368 34.4547 41.1641 33.8006 41.1641 33C41.1641 32.197 40.5331 31.5413 39.7398 31.5019L37.8967 27.3549C38.0653 27.1124 38.1641 26.8177 38.1641 26.5C38.1641 25.6716 37.4925 25 36.6641 25C36.2989 25 35.9643 25.1305 35.7042 25.3473L31.6626 23.4329C31.6275 22.6356 30.97 22 30.1641 22ZM31.3653 24.3986L35.1918 26.2112C35.1736 26.3046 35.1641 26.4012 35.1641 26.5C35.1641 26.5771 35.1699 26.6528 35.1811 26.7268L31.3415 28.0706C31.1677 27.8507 30.9336 27.6806 30.6641 27.5854V24.9146C30.946 24.815 31.1893 24.6334 31.3653 24.3986ZM29.6641 24.9146C29.3853 24.8161 29.1444 24.6376 28.9689 24.4066L25.1527 26.3147C25.1602 26.3754 25.1641 26.4373 25.1641 26.5L25.164 26.5115L29.005 28.0478C29.1768 27.8389 29.4039 27.6773 29.6641 27.5854V24.9146ZM37.065 27.9458L38.7745 31.7921C38.5353 31.9686 38.3503 32.2145 38.2494 32.5H35.5787C35.4868 32.2399 35.3251 32.0127 35.1162 31.8409L36.6526 28L36.6641 28C36.8029 28 36.9374 27.9811 37.065 27.9458ZM35.5787 33.5C35.4868 33.7601 35.3251 33.9873 35.1162 34.1591L36.6526 38L36.6641 38C36.8353 38 36.9998 38.0287 37.153 38.0815L38.7818 34.2132C38.539 34.0364 38.3514 33.7884 38.2494 33.5H35.5787ZM29.0321 41.5158C29.2004 41.3224 29.4174 41.1725 29.6641 41.0854V38.4146C29.4039 38.3227 29.1768 38.1611 29.005 37.9522L25.164 39.4885L25.1641 39.5C25.1641 39.5604 25.1605 39.62 25.1535 39.6786L29.0321 41.5158ZM31.4271 41.6906C31.2486 41.4125 30.9807 41.1973 30.6641 41.0854V38.4146C30.9242 38.3227 31.1514 38.1611 31.3232 37.9522L35.1641 39.4885L35.1641 39.5C35.1641 39.6369 35.1824 39.7695 35.2167 39.8955L31.4271 41.6906ZM21.5464 31.7868L23.1751 27.9185C23.3284 27.9713 23.4929 28 23.6641 28C23.7446 28 23.8236 27.9937 23.9007 27.9814L25.2983 31.7749C25.0475 31.9525 24.8537 32.2051 24.7494 32.5H22.0787C21.9768 32.2116 21.7891 31.9636 21.5464 31.7868ZM22.0787 33.5C21.9791 33.7819 21.7975 34.0252 21.5626 34.2012L23.3752 38.0278C23.4687 38.0096 23.5653 38 23.6641 38C23.7412 38 23.8169 38.0058 23.8909 38.017L25.2347 34.1775C25.0148 34.0036 24.8447 33.7695 24.7494 33.5H22.0787ZM28.6641 37.0115L24.8232 38.5478C24.8096 38.5314 24.7957 38.5152 24.7815 38.4993L26.1813 34.4999C26.4065 34.4974 26.6198 34.4452 26.8108 34.3538L28.8102 36.3533C28.7165 36.5491 28.6641 36.7684 28.6641 37L28.6641 37.0115ZM27.6641 33C27.6641 33.2316 27.6116 33.4509 27.5179 33.6467L29.5174 35.6462C29.7132 35.5525 29.9325 35.5 30.1641 35.5C30.3956 35.5 30.615 35.5525 30.8108 35.6462L32.8102 33.6467C32.7165 33.4509 32.6641 33.2316 32.6641 33C32.6641 32.7684 32.7165 32.5491 32.8102 32.3533L30.8108 30.3538C30.615 30.4475 30.3956 30.5 30.1641 30.5C29.9325 30.5 29.7132 30.4475 29.5174 30.3538L27.5179 32.3533C27.6116 32.5491 27.6641 32.7684 27.6641 33ZM31.5179 36.3533C31.6116 36.5491 31.6641 36.7684 31.6641 37L31.664 37.0115L35.505 38.5478C35.5671 38.4723 35.6364 38.403 35.7119 38.3409L34.1755 34.5L34.1641 34.5C33.9325 34.5 33.7132 34.4475 33.5174 34.3538L31.5179 36.3533ZM33.5174 31.6462L31.5179 29.6467C31.6093 29.4558 31.6614 29.2425 31.664 29.0173L35.6634 27.6175C35.6793 27.6317 35.6954 27.6456 35.7119 27.6591L34.1755 31.5L34.1641 31.5C33.9325 31.5 33.7132 31.5525 33.5174 31.6462ZM28.8102 29.6467C28.7165 29.4509 28.6641 29.2316 28.6641 29L28.6641 28.9885L24.8232 27.4522C24.8114 27.4665 24.7993 27.4806 24.787 27.4945L26.2639 31.5033C26.4587 31.5161 26.6433 31.5661 26.8108 31.6462L28.8102 29.6467ZM30.1641 23C30.4402 23 30.6641 23.2239 30.6641 23.5C30.6641 23.7761 30.4402 24 30.1641 24C29.8879 24 29.6641 23.7761 29.6641 23.5C29.6641 23.2239 29.8879 23 30.1641 23ZM30.1641 42C30.4402 42 30.6641 42.2239 30.6641 42.5C30.6641 42.7761 30.4402 43 30.1641 43C29.8879 43 29.6641 42.7761 29.6641 42.5C29.6641 42.2239 29.8879 42 30.1641 42ZM40.1641 33C40.1641 32.7239 39.9402 32.5 39.6641 32.5C39.3879 32.5 39.1641 32.7239 39.1641 33C39.1641 33.2761 39.3879 33.5 39.6641 33.5C39.9402 33.5 40.1641 33.2761 40.1641 33ZM20.6641 32.5C20.9402 32.5 21.1641 32.7239 21.1641 33C21.1641 33.2761 20.9402 33.5 20.6641 33.5C20.3879 33.5 20.1641 33.2761 20.1641 33C20.1641 32.7239 20.3879 32.5 20.6641 32.5ZM24.1641 26.5C24.1641 26.2239 23.9402 26 23.6641 26C23.3879 26 23.1641 26.2239 23.1641 26.5C23.1641 26.7761 23.3879 27 23.6641 27C23.9402 27 24.1641 26.7761 24.1641 26.5ZM36.6641 26C36.9402 26 37.1641 26.2239 37.1641 26.5C37.1641 26.7761 36.9402 27 36.6641 27C36.3879 27 36.1641 26.7761 36.1641 26.5C36.1641 26.2239 36.3879 26 36.6641 26ZM37.1641 39.5C37.1641 39.2239 36.9402 39 36.6641 39C36.3879 39 36.1641 39.2239 36.1641 39.5C36.1641 39.7761 36.3879 40 36.6641 40C36.9402 40 37.1641 39.7761 37.1641 39.5ZM23.6641 39C23.9402 39 24.1641 39.2239 24.1641 39.5C24.1641 39.7761 23.9402 40 23.6641 40C23.3879 40 23.1641 39.7761 23.1641 39.5C23.1641 39.2239 23.3879 39 23.6641 39ZM26.6641 33C26.6641 32.7239 26.4402 32.5 26.1641 32.5C25.8879 32.5 25.6641 32.7239 25.6641 33C25.6641 33.2761 25.8879 33.5 26.1641 33.5C26.4402 33.5 26.6641 33.2761 26.6641 33ZM34.1641 32.5C34.4402 32.5 34.6641 32.7239 34.6641 33C34.6641 33.2761 34.4402 33.5 34.1641 33.5C33.8879 33.5 33.6641 33.2761 33.6641 33C33.6641 32.7239 33.8879 32.5 34.1641 32.5ZM30.6641 29C30.6641 28.7239 30.4402 28.5 30.1641 28.5C29.8879 28.5 29.6641 28.7239 29.6641 29C29.6641 29.2761 29.8879 29.5 30.1641 29.5C30.4402 29.5 30.6641 29.2761 30.6641 29ZM30.1641 36.5C30.4402 36.5 30.6641 36.7239 30.6641 37C30.6641 37.2761 30.4402 37.5 30.1641 37.5C29.8879 37.5 29.6641 37.2761 29.6641 37C29.6641 36.7239 29.8879 36.5 30.1641 36.5Z" fill="white"/>
</svg>
