<svg width="60" height="66" viewBox="0 0 60 66" fill="none" xmlns="http://www.w3.org/2000/svg">
<path d="M59.6912 30.3052V20.725C59.6912 15.313 59.6912 12.607 58.3511 10.8415C57.011 9.076 53.9811 8.21886 47.9211 6.50464C43.7808 5.33347 40.131 3.92248 37.2151 2.63436C33.2394 0.878131 31.2516 0 29.8456 0C28.4395 0 26.4518 0.878131 22.4761 2.63436C19.5601 3.92248 15.9105 5.33347 11.7702 6.50464C5.71022 8.21886 2.6802 9.076 1.3401 10.8415C-2.37191e-07 12.607 0 15.313 0 20.725V30.3052C0 48.868 16.789 60.0056 25.183 64.414C27.1963 65.4713 28.2028 66 29.8456 66C31.4884 66 32.4949 65.4713 34.5081 64.414C42.902 60.0056 59.6912 48.868 59.6912 30.3052Z" fill="#2E78AC"/>
<path fill-rule="evenodd" clip-rule="evenodd" d="M28.6641 26C28.6641 25.1716 29.3356 24.5 30.1641 24.5C30.9925 24.5 31.6641 25.1716 31.6641 26C31.6641 26.8284 30.9925 27.5 30.1641 27.5C29.3356 27.5 28.6641 26.8284 28.6641 26ZM30.6641 26C30.6641 25.7239 30.4402 25.5 30.1641 25.5C29.8879 25.5 29.6641 25.7239 29.6641 26C29.6641 26.2761 29.8879 26.5 30.1641 26.5C30.4402 26.5 30.6641 26.2761 30.6641 26Z" fill="white"/>
<path d="M33.6641 28C33.6641 27.7239 33.4402 27.5 33.1641 27.5C32.8879 27.5 32.6641 27.7239 32.6641 28C32.6641 29.3807 31.5448 30.5 30.1641 30.5C28.7834 30.5 27.6641 29.3807 27.6641 28C27.6641 27.7239 27.4402 27.5 27.1641 27.5C26.8879 27.5 26.6641 27.7239 26.6641 28C26.6641 29.933 28.2311 31.5 30.1641 31.5C32.0971 31.5 33.6641 29.933 33.6641 28Z" fill="white"/>
<path fill-rule="evenodd" clip-rule="evenodd" d="M24.6641 28C24.6641 24.9624 27.1265 22.5 30.1641 22.5C33.2016 22.5 35.6641 24.9624 35.6641 28C35.6641 30.0532 34.5285 31.8983 32.7699 32.8448L32.6636 32.9L32.6641 34.9999C32.6641 35.0908 32.6393 35.1795 32.5931 35.2567L32.5545 35.3123L31.8041 36.2495L32.5545 37.1877C32.7004 37.37 32.6992 37.6262 32.5592 37.8064L32.5176 37.8536L31.8716 38.5L32.5176 39.1464C32.5958 39.2246 32.6454 39.3259 32.6597 39.4343L32.6641 39.5V41C32.6641 41.1574 32.59 41.3056 32.4641 41.4L30.4641 42.9C30.2863 43.0333 30.0418 43.0333 29.8641 42.9L27.8641 41.4C27.7382 41.3056 27.6641 41.1574 27.6641 41L27.6636 32.8995L27.5577 32.8445C25.8434 31.9216 24.7212 30.1447 24.6662 28.1536L24.6641 28ZM34.6641 28C34.6641 25.5147 32.6493 23.5 30.1641 23.5C27.6788 23.5 25.6641 25.5147 25.6641 28C25.6641 29.8059 26.7375 31.415 28.3641 32.1257C28.5462 32.2053 28.6639 32.3851 28.6639 32.5839L28.6636 40.75L30.1636 41.875L31.6636 40.75V39.707L30.8105 38.8536C30.6303 38.6733 30.6164 38.3897 30.7689 38.1936L30.8105 38.1464L31.4936 37.4625L30.7736 36.5623C30.6408 36.3963 30.6287 36.1668 30.7374 35.9892L30.7736 35.9377L31.6641 34.8245L31.6638 32.5841C31.6637 32.4075 31.7568 32.2457 31.9054 32.156L31.9636 32.1259C33.5904 31.4153 34.6641 29.8061 34.6641 28Z" fill="white"/>
<path fill-rule="evenodd" clip-rule="evenodd" d="M38.5174 33.3538C38.7132 33.4475 38.9325 33.5 39.1641 33.5C39.9925 33.5 40.6641 32.8284 40.6641 32C40.6641 31.1716 39.9925 30.5 39.1641 30.5C38.3356 30.5 37.6641 31.1716 37.6641 32C37.6641 32.2315 37.7165 32.4508 37.8102 32.6466L36.4561 34H34.1641L34.1058 34.0034C33.8571 34.0322 33.6641 34.2436 33.6641 34.5C33.6641 34.7761 33.8879 35 34.1641 35H36.6641L36.7298 34.9957C36.8381 34.9813 36.9395 34.9317 37.0176 34.8536L38.5174 33.3538ZM39.1641 31.5C39.4402 31.5 39.6641 31.7239 39.6641 32C39.6641 32.2761 39.4402 32.5 39.1641 32.5C38.8879 32.5 38.6641 32.2761 38.6641 32C38.6641 31.7239 38.8879 31.5 39.1641 31.5Z" fill="white"/>
<path fill-rule="evenodd" clip-rule="evenodd" d="M37.2271 36.5C37.4491 35.6374 38.2321 35 39.1641 35C40.2686 35 41.1641 35.8954 41.1641 37C41.1641 38.1046 40.2686 39 39.1641 39C38.2321 39 37.4491 38.3626 37.2271 37.5H34.1641C33.8879 37.5 33.6641 37.2761 33.6641 37C33.6641 36.7436 33.8571 36.5322 34.1058 36.5034L34.1641 36.5H37.2271ZM38.1641 37C38.1641 37.5523 38.6118 38 39.1641 38C39.7163 38 40.1641 37.5523 40.1641 37C40.1641 36.4477 39.7163 36 39.1641 36C38.6118 36 38.1641 36.4477 38.1641 37Z" fill="white"/>
<path fill-rule="evenodd" clip-rule="evenodd" d="M39.1641 40C38.5084 40 37.951 40.4207 37.747 41.0069C37.72 41.0023 37.6923 41 37.6641 41H36.3716L34.5176 39.1464L34.4705 39.1049C34.2744 38.9523 33.9908 38.9662 33.8105 39.1464C33.6152 39.3417 33.6152 39.6583 33.8105 39.8536L35.8105 41.8536L35.86 41.897C35.9468 41.9634 36.0536 42 36.1641 42H37.6641L37.7224 41.9966C37.7306 41.9957 37.7389 41.9945 37.747 41.9931C37.951 42.5793 38.5084 43 39.1641 43C39.9925 43 40.6641 42.3284 40.6641 41.5C40.6641 40.6716 39.9925 40 39.1641 40ZM39.1641 41C39.4402 41 39.6641 41.2239 39.6641 41.5C39.6641 41.7761 39.4402 42 39.1641 42C38.8879 42 38.6641 41.7761 38.6641 41.5C38.6641 41.2239 38.8879 41 39.1641 41Z" fill="white"/>
<path fill-rule="evenodd" clip-rule="evenodd" d="M22.5179 41.3534L23.8721 40H26.1641L26.2224 39.9966C26.471 39.9678 26.6641 39.7564 26.6641 39.5C26.6641 39.2239 26.4402 39 26.1641 39H23.6641L23.5983 39.0043C23.49 39.0187 23.3886 39.0683 23.3105 39.1464L21.8108 40.6462C21.615 40.5525 21.3956 40.5 21.1641 40.5C20.3356 40.5 19.6641 41.1716 19.6641 42C19.6641 42.8284 20.3356 43.5 21.1641 43.5C21.9925 43.5 22.6641 42.8284 22.6641 42C22.6641 41.7685 22.6116 41.5492 22.5179 41.3534ZM21.1641 42.5C20.8879 42.5 20.6641 42.2761 20.6641 42C20.6641 41.7239 20.8879 41.5 21.1641 41.5C21.4402 41.5 21.6641 41.7239 21.6641 42C21.6641 42.2761 21.4402 42.5 21.1641 42.5Z" fill="white"/>
<path fill-rule="evenodd" clip-rule="evenodd" d="M23.1011 37.5C22.879 38.3626 22.096 39 21.1641 39C20.0595 39 19.1641 38.1046 19.1641 37C19.1641 35.8954 20.0595 35 21.1641 35C22.096 35 22.879 35.6374 23.1011 36.5H26.1641C26.4402 36.5 26.6641 36.7239 26.6641 37C26.6641 37.2564 26.471 37.4678 26.2224 37.4966L26.1641 37.5H23.1011ZM20.1641 37C20.1641 37.5523 20.6118 38 21.1641 38C21.7163 38 22.1641 37.5523 22.1641 37C22.1641 36.4477 21.7163 36 21.1641 36C20.6118 36 20.1641 36.4477 20.1641 37Z" fill="white"/>
<path fill-rule="evenodd" clip-rule="evenodd" d="M21.1641 34C21.8197 34 22.3771 33.5793 22.5811 32.9931C22.6081 32.9977 22.6358 33 22.6641 33H23.9566L25.8105 34.8536L25.8576 34.8951C26.0538 35.0477 26.3374 35.0338 26.5176 34.8536C26.7129 34.6583 26.7129 34.3417 26.5176 34.1464L24.5176 32.1464L24.4681 32.103C24.3813 32.0366 24.2746 32 24.1641 32H22.6641L22.6058 32.0034C22.5975 32.0043 22.5893 32.0055 22.5811 32.0069C22.3771 31.4207 21.8197 31 21.1641 31C20.3356 31 19.6641 31.6716 19.6641 32.5C19.6641 33.3284 20.3356 34 21.1641 34ZM21.1641 33C20.8879 33 20.6641 32.7761 20.6641 32.5C20.6641 32.2239 20.8879 32 21.1641 32C21.4402 32 21.6641 32.2239 21.6641 32.5C21.6641 32.7761 21.4402 33 21.1641 33Z" fill="white"/>
</svg>
