<svg width="60" height="66" viewBox="0 0 60 66" fill="none" xmlns="http://www.w3.org/2000/svg">
<path d="M59.6912 30.3052V20.725C59.6912 15.313 59.6912 12.607 58.3511 10.8415C57.011 9.076 53.9811 8.21886 47.9211 6.50464C43.7808 5.33347 40.131 3.92248 37.2151 2.63436C33.2394 0.878131 31.2516 0 29.8456 0C28.4395 0 26.4518 0.878131 22.4761 2.63436C19.5601 3.92248 15.9105 5.33347 11.7702 6.50464C5.71022 8.21886 2.6802 9.076 1.3401 10.8415C-2.37191e-07 12.607 0 15.313 0 20.725V30.3052C0 48.868 16.789 60.0056 25.183 64.414C27.1963 65.4713 28.2028 66 29.8456 66C31.4884 66 32.4949 65.4713 34.5081 64.414C42.902 60.0056 59.6912 48.868 59.6912 30.3052Z" fill="#2E78AC"/>
<g clip-path="url(#clip0_1343_37634)">
<path d="M28.9641 24.6C29.185 24.7657 29.2297 25.0791 29.0641 25.3L27.5641 27.3C27.4103 27.505 27.1265 27.5606 26.9068 27.4287L26.0856 26.936L25.5928 27.7572C25.4722 27.9582 25.2283 28.0484 25.0059 27.9743L23.7379 27.5517L22.4414 28.416C22.2116 28.5692 21.9012 28.5071 21.748 28.2773C21.5949 28.0476 21.6569 27.7372 21.8867 27.584L23.3867 26.584C23.5151 26.4984 23.6758 26.4769 23.8222 26.5257L24.9417 26.8988L25.4853 25.9928C25.6274 25.756 25.9345 25.6792 26.1713 25.8213L27.0346 26.3392L28.2641 24.7C28.4297 24.4791 28.7431 24.4343 28.9641 24.6Z" fill="white"/>
<path d="M34.6641 36.5C34.6641 36.2239 34.4402 36 34.1641 36C33.8879 36 33.6641 36.2239 33.6641 36.5V39C33.6641 39.2761 33.8879 39.5 34.1641 39.5C34.4402 39.5 34.6641 39.2761 34.6641 39V36.5Z" fill="white"/>
<path d="M37.6641 36.5C37.6641 36.2239 37.4402 36 37.1641 36C36.8879 36 36.6641 36.2239 36.6641 36.5V39C36.6641 39.2761 36.8879 39.5 37.1641 39.5C37.4402 39.5 37.6641 39.2761 37.6641 39V36.5Z" fill="white"/>
<path d="M36.1641 37.5C36.1641 37.2239 35.9402 37 35.6641 37C35.3879 37 35.1641 37.2239 35.1641 37.5V39C35.1641 39.2761 35.3879 39.5 35.6641 39.5C35.9402 39.5 36.1641 39.2761 36.1641 39V37.5Z" fill="white"/>
<path d="M33.1641 38C33.1641 37.7239 32.9402 37.5 32.6641 37.5C32.3879 37.5 32.1641 37.7239 32.1641 38V39C32.1641 39.2761 32.3879 39.5 32.6641 39.5C32.9402 39.5 33.1641 39.2761 33.1641 39V38Z" fill="white"/>
<path fill-rule="evenodd" clip-rule="evenodd" d="M23.6641 30.5H20.6641C20.1118 30.5 19.6641 30.0523 19.6641 29.5V23.5C19.6641 22.9477 20.1118 22.5 20.6641 22.5H30.1641C30.7163 22.5 31.1641 22.9477 31.1641 23.5V25.25H33.6641C33.7967 25.25 33.9239 25.3027 34.0177 25.3965L34.2836 25.6624C34.798 25.248 35.4521 25 36.1641 25C36.4402 25 36.6641 25.2239 36.6641 25.5C36.6641 25.7761 36.4402 26 36.1641 26C35.0595 26 34.1641 26.8954 34.1641 28C34.1641 29.1046 35.0595 30 36.1641 30C37.2686 30 38.1641 29.1046 38.1641 28C38.1641 27.7239 38.3879 27.5 38.6641 27.5C38.9402 27.5 39.1641 27.7239 39.1641 28C39.1641 28.712 38.916 29.366 38.5017 29.8805L39.0177 30.3964C39.1114 30.4902 39.1641 30.6174 39.1641 30.75V33.5H39.6641C40.2163 33.5 40.6641 33.9477 40.6641 34.5V40.5C40.6641 41.0523 40.2163 41.5 39.6641 41.5H36.1641V42.5H37.1641C37.4402 42.5 37.6641 42.7239 37.6641 43C37.6641 43.2761 37.4402 43.5 37.1641 43.5H32.1641C31.8879 43.5 31.6641 43.2761 31.6641 43C31.6641 42.7239 31.8879 42.5 32.1641 42.5H33.1641V41.5H30.1641C29.6118 41.5 29.1641 41.0523 29.1641 40.5V40H26.3712L25.0179 41.3533C25.1116 41.5491 25.1641 41.7684 25.1641 42C25.1641 42.8284 24.4925 43.5 23.6641 43.5C22.8356 43.5 22.1641 42.8284 22.1641 42C22.1641 41.1716 22.8356 40.5 23.6641 40.5C23.8956 40.5 24.115 40.5525 24.3108 40.6462L25.8105 39.1464C25.9043 39.0527 26.0315 39 26.1641 39H29.1641V37.5H26.5787C26.3728 38.0826 25.8172 38.5 25.1641 38.5C24.3356 38.5 23.6641 37.8284 23.6641 37C23.6641 36.1716 24.3356 35.5 25.1641 35.5C25.8172 35.5 26.3728 35.9174 26.5787 36.5H29.1641V34.5C29.1641 33.9477 29.6118 33.5 30.1641 33.5H32.1641V32.9147C31.5815 32.7088 31.1641 32.1531 31.1641 31.5C31.1641 30.6716 31.8356 30 32.6641 30C33.4925 30 34.1641 30.6716 34.1641 31.5C34.1641 32.1531 33.7467 32.7087 33.1641 32.9146V33.5H38.1641V30.9571L37.7525 30.5455C37.2918 30.8335 36.7474 31 36.1641 31C34.5072 31 33.1641 29.6569 33.1641 28C33.1641 27.4167 33.3305 26.8722 33.6186 26.4116L33.457 26.25H31.1641V29.5C31.1641 30.0523 30.7163 30.5 30.1641 30.5H26.6641V31.5H27.6641C27.9402 31.5 28.1641 31.7239 28.1641 32C28.1641 32.2761 27.9402 32.5 27.6641 32.5H22.6641C22.3879 32.5 22.1641 32.2761 22.1641 32C22.1641 31.7239 22.3879 31.5 22.6641 31.5H23.6641V30.5ZM20.6641 23.5H30.1641V29.5H20.6641L20.6641 23.5ZM24.6641 30.5V31.5H25.6641V30.5H24.6641ZM30.1641 40.5V39.5062L30.1641 39.5L30.1641 39.4938V34.5H39.6641V40.5H30.1641ZM33.1641 31.5C33.1641 31.7761 32.9402 32 32.6641 32C32.3879 32 32.1641 31.7761 32.1641 31.5C32.1641 31.2239 32.3879 31 32.6641 31C32.9402 31 33.1641 31.2239 33.1641 31.5ZM35.1641 42.5H34.1641V41.5H35.1641V42.5ZM25.1641 37.5C25.4402 37.5 25.6641 37.2761 25.6641 37C25.6641 36.7239 25.4402 36.5 25.1641 36.5C24.8879 36.5 24.6641 36.7239 24.6641 37C24.6641 37.2761 24.8879 37.5 25.1641 37.5ZM24.1641 42C24.1641 42.2761 23.9402 42.5 23.6641 42.5C23.3879 42.5 23.1641 42.2761 23.1641 42C23.1641 41.7239 23.3879 41.5 23.6641 41.5C23.9402 41.5 24.1641 41.7239 24.1641 42Z" fill="white"/>
<path d="M41.0176 23.6464C41.2129 23.8417 41.2129 24.1583 41.0176 24.3536L36.5176 28.8536C36.3224 29.0488 36.0058 29.0488 35.8105 28.8536L34.8105 27.8536C34.6152 27.6583 34.6152 27.3417 34.8105 27.1464C35.0058 26.9512 35.3224 26.9512 35.5176 27.1464L36.1641 27.7929L40.3105 23.6464C40.5058 23.4512 40.8224 23.4512 41.0176 23.6464Z" fill="white"/>
</g>
<defs>
<clipPath id="clip0_1343_37634">
<rect width="24" height="24" fill="white" transform="translate(18.1641 21)"/>
</clipPath>
</defs>
</svg>
