<svg id="eU0uyfpERlZ1" xmlns="http://www.w3.org/2000/svg" xmlns:xlink="http://www.w3.org/1999/xlink" viewBox="0 0 494 525" shape-rendering="geometricPrecision" text-rendering="geometricPrecision" project-id="9866f379cf8e499ea12280c31d883f84" export-id="9a3b5cefaad74af1b17a8871f3a4b0cc" cached="true">
<style><![CDATA[
#eU0uyfpERlZ4_to {animation: eU0uyfpERlZ4_to__to 3000ms linear infinite normal forwards}@keyframes eU0uyfpERlZ4_to__to { 0% {transform: translate(388.465836px,473.158295px)} 50% {transform: translate(388.465836px,488.158295px)} 100% {transform: translate(388.465836px,473.15806px)}} #eU0uyfpERlZ14_to {animation: eU0uyfpERlZ14_to__to 3000ms linear infinite normal forwards}@keyframes eU0uyfpERlZ14_to__to { 0% {transform: translate(45.489339px,365.283005px)} 50% {transform: translate(45.489339px,380.21777px)} 100% {transform: translate(45.489339px,365.28777px)}} #eU0uyfpERlZ59_to {animation: eU0uyfpERlZ59_to__to 3000ms linear infinite normal forwards}@keyframes eU0uyfpERlZ59_to__to { 0% {offset-distance: 0%} 56% {offset-distance: 55.890461%} 82.666667% {offset-distance: 82.686271%} 100% {offset-distance: 100%}} #eU0uyfpERlZ60_to {animation: eU0uyfpERlZ60_to__to 3000ms linear infinite normal forwards}@keyframes eU0uyfpERlZ60_to__to { 0% {offset-distance: 0%} 23.333333% {offset-distance: 23.271969%} 69.333333% {offset-distance: 69.474606%} 91.666667% {offset-distance: 91.62455%} 100% {offset-distance: 100%}} #eU0uyfpERlZ61_to {animation: eU0uyfpERlZ61_to__to 3000ms linear infinite normal forwards}@keyframes eU0uyfpERlZ61_to__to { 0% {offset-distance: 0%} 21.666667% {offset-distance: 21.621229%} 83.333333% {offset-distance: 83.169768%} 100% {offset-distance: 100%}} #eU0uyfpERlZ62_to {animation: eU0uyfpERlZ62_to__to 3000ms linear infinite normal forwards}@keyframes eU0uyfpERlZ62_to__to { 0% {offset-distance: 0%} 19.333333% {offset-distance: 19.32134%} 80% {offset-distance: 79.888268%} 87.666667% {offset-distance: 87.698959%} 100% {offset-distance: 100%}} #eU0uyfpERlZ63_to {animation: eU0uyfpERlZ63_to__to 3000ms linear infinite normal forwards}@keyframes eU0uyfpERlZ63_to__to { 0% {offset-distance: 0%} 18% {offset-distance: 18.156884%} 100% {offset-distance: 100%}} #eU0uyfpERlZ64_to {animation: eU0uyfpERlZ64_to__to 3000ms linear infinite normal forwards}@keyframes eU0uyfpERlZ64_to__to { 0% {offset-distance: 0%} 19% {offset-distance: 18.997351%} 79.666667% {offset-distance: 79.664923%} 94% {offset-distance: 93.897997%} 100% {offset-distance: 100%}} #eU0uyfpERlZ65_to {animation: eU0uyfpERlZ65_to__to 3000ms linear infinite normal forwards}@keyframes eU0uyfpERlZ65_to__to { 0% {offset-distance: 0%} 22.666667% {offset-distance: 22.650156%} 74.666667% {offset-distance: 74.676035%} 100% {offset-distance: 100%}} #eU0uyfpERlZ66_to {animation: eU0uyfpERlZ66_to__to 3000ms linear infinite normal forwards}@keyframes eU0uyfpERlZ66_to__to { 0% {offset-distance: 0%} 28% {offset-distance: 24.265088%} 75% {offset-distance: 64.761835%} 100% {offset-distance: 100%}} #eU0uyfpERlZ67_to {animation: eU0uyfpERlZ67_to__to 3000ms linear infinite normal forwards}@keyframes eU0uyfpERlZ67_to__to { 0% {offset-distance: 0%} 23.666667% {offset-distance: 23.623479%} 48% {offset-distance: 48.135487%} 81.333333% {offset-distance: 81.454401%} 100% {offset-distance: 100%}} #eU0uyfpERlZ68_to {animation: eU0uyfpERlZ68_to__to 3000ms linear infinite normal forwards}@keyframes eU0uyfpERlZ68_to__to { 0% {offset-distance: 0%} 49.333333% {offset-distance: 49.310307%} 77.666667% {offset-distance: 77.537102%} 100% {offset-distance: 100%}} #eU0uyfpERlZ69_to {animation: eU0uyfpERlZ69_to__to 3000ms linear infinite normal forwards}@keyframes eU0uyfpERlZ69_to__to { 0% {offset-distance: 0%} 41.333333% {offset-distance: 41.262594%} 73% {offset-distance: 72.846845%} 100% {offset-distance: 100%}}
]]></style>
<defs><linearGradient id="eU0uyfpERlZ9-fill" x1="388.47" y1="452.072" x2="360.544" y2="498.402" spreadMethod="pad" gradientUnits="userSpaceOnUse" gradientTransform="translate(0 0)"><stop id="eU0uyfpERlZ9-fill-0" offset="0%" stop-color="#3384bd"/><stop id="eU0uyfpERlZ9-fill-1" offset="100%" stop-color="#304faf"/></linearGradient><linearGradient id="eU0uyfpERlZ22-fill" x1="45.4909" y1="344.197" x2="17.565" y2="390.527" spreadMethod="pad" gradientUnits="userSpaceOnUse" gradientTransform="translate(0 0)"><stop id="eU0uyfpERlZ22-fill-0" offset="0%" stop-color="#3384bd"/><stop id="eU0uyfpERlZ22-fill-1" offset="100%" stop-color="#304faf"/></linearGradient></defs><g opacity="0.7"><path d="M376.954,522.067l-29.685-17.146c-6.358-3.671-5.561-10.085,1.78-14.325l26.125-15.089c7.341-4.24,18.446-4.7,24.803-1.028l29.686,17.146c6.358,3.671,5.56,10.085-1.78,14.325l-26.125,15.089c-7.341,4.24-18.446,4.7-24.804,1.028Z" opacity="0.3" fill="#dfe2f5"/><g id="eU0uyfpERlZ4_to" transform="translate(388.465836,473.158295)"><g transform="translate(-388.465835,-473.158294)"><path d="M433.955,466.013h-17.522l-16.456-9.504c-6.357-3.672-17.463-3.211-24.803,1.029l-14.675,8.475h-17.505v13.941h.038c-.345,2.609,1.038,5.15,4.237,6.997l29.686,17.146c6.357,3.672,17.462,3.211,24.803-1.029l26.124-15.088c3.98-2.298,6.018-5.234,6.055-8.026h.018v-13.941Z" fill="#e2e4f6"/><path d="M343.033,477.201h-.039v.774c0-.257.004-.515.039-.774Z" fill="#e8edfa"/><path d="M427.882,485.228l-26.124,15.088c-7.341,4.24-18.446,4.701-24.803,1.029l-29.686-17.146c-2.764-1.596-4.166-3.711-4.275-5.94v1.695h.038c-.345,2.609,1.038,5.15,4.237,6.997l29.686,17.147c6.357,3.671,17.462,3.211,24.803-1.029l26.124-15.089c3.979-2.298,6.018-5.233,6.055-8.026h.018v-2.752h-.018c-.037,2.792-2.076,5.728-6.055,8.026Z" fill="#e8edfa"/><path d="M376.954,489.807l-29.685-17.145c-6.358-3.672-5.561-10.086,1.78-14.326l26.125-15.088c7.341-4.24,18.446-4.701,24.803-1.029l29.686,17.146c6.358,3.672,5.56,10.085-1.78,14.325l-26.125,15.089c-7.341,4.24-18.446,4.701-24.804,1.028Z" fill="#fff"/><path d="M409.383,470.08l-9.023,5.217-4.836,2.792c-3.893,2.254-9.793,2.498-13.16.551l-5.778-3.331-9.977-5.768c-3.367-1.947-2.951-5.352.942-7.606l13.871-8.009c3.893-2.241,9.781-2.486,13.16-.539l15.744,9.099c3.378,1.948,2.95,5.352-.943,7.594Z" fill="url(#eU0uyfpERlZ9-fill)"/><path d="M400.358,465.965v9.332l-4.836,2.792c-3.893,2.254-9.793,2.498-13.16.551l-5.778-3.331v-9.295l23.774-.049Z" fill="#e2e4f6"/><path d="M385.459,472.229l-7.759-4.481c-1.662-.96-1.453-2.636.465-3.745l6.828-3.944c1.919-1.108,4.821-1.228,6.483-.268l7.759,4.481c1.662.96,1.454,2.636-.465,3.744l-6.828,3.944c-1.919,1.108-4.822,1.229-6.483.269Z" fill="#fff"/></g></g></g><g opacity="0.7"><path d="M33.9785,414.192L4.29199,397.046c-6.35759-3.671-5.56014-10.085,1.78069-14.325L32.1973,367.633c7.3408-4.241,18.4458-4.701,24.803-1.029L86.6867,383.75c6.3576,3.671,5.5601,10.085-1.7807,14.325L58.7819,413.164c-7.3413,4.24-18.4463,4.7-24.8034,1.028Z" opacity="0.3" fill="#dfe2f5"/><g id="eU0uyfpERlZ14_to" transform="translate(45.489339,365.283005)"><g transform="translate(-45.489339,-365.283004)"><path d="M90.9782,358.138h-17.5224l-16.4557-9.504c-6.3576-3.672-17.4622-3.211-24.803,1.029l-14.675,8.475h-17.504871v13.941h.03835c-.345434,2.609,1.038211,5.15,4.236681,6.997L33.9783,396.222c6.3576,3.672,17.4626,3.211,24.803-1.029l26.1245-15.088c3.9789-2.298,6.0179-5.234,6.0548-8.026h.018l-.0004-13.941Z" fill="#e2e4f6"/><g transform="translate(0 0.000001)"><path d="M0.053989,369.326h-.038364v.774c.000474-.257.004234-.515.038364-.774Z" fill="#e8edfa"/><g transform="translate(0 0.000001)"><path d="M84.9058,377.352L58.7817,392.441c-7.3408,4.239-18.4458,4.7-24.803,1.028L4.29226,376.323c-2.76395-1.596-4.166046-3.711-4.275031-5.94v1.695h.03835c-.345434,2.609,1.038211,5.151,4.236681,6.998L33.9787,396.222c6.3576,3.672,17.4622,3.211,24.803-1.029l26.1241-15.088c3.9794-2.298,6.0178-5.234,6.0548-8.026h.018v-2.753h-.018c-.037,2.793-2.0754,5.728-6.0548,8.026Z" fill="#e8edfa"/><g transform="translate(0 0.000001)"><path d="M33.9785,381.933L4.29199,364.787c-6.35759-3.672-5.56014-10.086,1.78069-14.326L32.1973,335.373c7.3408-4.24,18.4458-4.701,24.803-1.029L86.6867,351.49c6.3576,3.672,5.5601,10.086-1.7807,14.325L58.7819,380.904c-7.3413,4.239-18.4463,4.7-24.8034,1.029Z" fill="#fff"/><path d="M66.4039,362.205l-9.0225,5.217-4.8356,2.792c-3.8927,2.254-9.7934,2.498-13.1601.551l-5.7781-3.331-9.9773-5.768c-3.3667-1.948-2.9502-5.352.9425-7.606l13.8704-8.009c3.8931-2.241,9.7816-2.486,13.1601-.539l15.7435,9.099c3.3786,1.948,2.9502,5.352-.9429,7.594Z" fill="url(#eU0uyfpERlZ22-fill)"/><path d="M57.3812,358.09v9.332l-4.8356,2.792c-3.8927,2.254-9.7934,2.498-13.1601.551l-5.7781-3.331v-9.295l23.7738-.049Z" fill="#e2e4f6"/></g><path d="M42.4846,364.353l-7.7592-4.481c-1.6618-.96-1.4533-2.636.4653-3.744l6.8281-3.944c1.9186-1.108,4.8209-1.228,6.4827-.268l7.7592,4.481c1.6618.96,1.4533,2.636-.4653,3.744l-6.8281,3.944c-1.9186,1.108-4.8214,1.228-6.4827.268Z" fill="#fff"/></g></g></g></g></g><path d="M223.766,313.673c-.199,0-.397-.051-.575-.154l-40.332-23.295c-.55-.318-.739-1.022-.421-1.573s1.021-.739,1.572-.422l39.756,22.962l48.578-28.057v-100.692c0-.636.516-1.152,1.152-1.152s1.151.516,1.151,1.152v101.357c0,.412-.219.792-.576.998l-49.729,28.722c-.178.103-.377.154-.576.154Z" fill="#2e78ac"/><path d="M189.507,362.409c-.199,0-.397-.051-.575-.154L93.3886,307.073c-.5506-.318-.7397-1.023-.4217-1.573.3179-.551,1.0211-.74,1.5726-.422l94.9675,54.85l107.901-62.319v-74.574c0-.636.515-1.152,1.151-1.152s1.152.516,1.152,1.152v75.238c0,.412-.22.792-.576.998L190.083,362.255c-.178.103-.377.154-.576.154Z" fill="#2e78ac"/><path d="M153.09,412.39c-.199,0-.397-.051-.576-.154l-39.168-22.623-16.6541,9.618c-.5506.318-1.2547.129-1.5727-.421-.318-.551-.1289-1.256.4217-1.574l17.2291-9.95c.356-.206.795-.206,1.151,0l39.169,22.622l169.376-97.825v-60.65c0-.636.516-1.152,1.152-1.152s1.151.516,1.151,1.152v61.315c0,.411-.219.791-.575.997l-170.528,98.49c-.178.103-.377.155-.576.155Z" fill="#2e78ac"/><path d="M165.228,460.334c-.398,0-.784-.207-.997-.576-.318-.551-.129-1.255.421-1.573l33.711-19.47-20.788-12.006c-.357-.206-.576-.586-.576-.997c0-.412.219-.792.576-.997l169.952-98.158v-62.845c0-.636.515-1.151,1.151-1.151s1.151.515,1.151,1.151v63.509c0,.411-.219.791-.575.998L180.453,425.712l20.788,12.006c.357.206.576.586.576.998c0,.411-.219.791-.576.997L165.804,460.18c-.182.105-.38.154-.576.154Z" fill="#2e78ac"/><path d="M376.09,437.38c-.195,0-.393-.049-.575-.154l-70.482-40.708c-.357-.207-.576-.586-.576-.998c0-.411.219-.791.576-.997l80.087-46.255v-121.311c0-.637.516-1.152,1.152-1.152s1.151.515,1.151,1.152v121.976c0,.411-.219.792-.575.997l-78.937,45.591l68.756,39.71c.551.318.74,1.023.422,1.574-.214.369-.601.575-.999.575Z" fill="#2e78ac"/><path d="M94.5486,465.157c-2.1797,0-4.3594-.49-6.0576-1.472-1.8357-1.06-2.8465-2.538-2.8465-4.163s1.0108-3.104,2.8465-4.164c3.3965-1.961,8.7187-1.962,12.115,0c1.836,1.06,2.847,2.54,2.847,4.164c0,1.625-1.012,3.103-2.847,4.163-1.6975.982-3.8777,1.472-6.0574,1.472Zm0-8.956c-1.7883,0-3.5766.384-4.9062,1.153-1.0771.622-1.695,1.412-1.695,2.168s.6179,1.547,1.695,2.169c2.6597,1.536,7.1541,1.536,9.8129,0c1.0767-.623,1.6947-1.412,1.6947-2.169c0-.756-.618-1.547-1.6947-2.168-1.3297-.769-3.1184-1.153-4.9067-1.153Z" fill="#2e78ac"/><path d="M159.746,467.984c-2.18,0-4.359-.49-6.058-1.471-1.836-1.06-2.846-2.539-2.846-4.164s1.01-3.103,2.846-4.164c3.397-1.962,8.718-1.962,12.115,0c1.836,1.061,2.846,2.54,2.846,4.164c0,1.625-1.01,3.104-2.846,4.164-1.698.981-3.878,1.471-6.057,1.471Zm0-8.956c-1.789,0-3.577.384-4.906,1.152-1.077.622-1.695,1.413-1.695,2.169s.618,1.546,1.695,2.168c2.659,1.537,7.153,1.536,9.812,0c1.077-.622,1.695-1.412,1.695-2.168s-.618-1.547-1.695-2.169c-1.33-.768-3.118-1.152-4.906-1.152Z" fill="#2e78ac"/><path d="M90.632,407.035c-2.1801,0-4.3588-.491-6.0571-1.471-1.8357-1.061-2.8464-2.54-2.8464-4.164c0-1.625,1.0107-3.103,2.8464-4.164c3.3965-1.962,8.7173-1.962,12.1148,0c1.8357,1.061,2.8464,2.539,2.8464,4.164s-1.0107,3.103-2.8464,4.164c-1.6982.98-3.8784,1.471-6.0577,1.471Zm0-8.957c-1.7882,0-3.5761.385-4.9062,1.153-1.077.622-1.6949,1.412-1.6949,2.168s.6179,1.547,1.6949,2.169c2.6593,1.536,7.1532,1.536,9.8125,0c1.077-.622,1.6949-1.413,1.6949-2.169s-.6179-1.546-1.6949-2.168c-1.3292-.768-3.1184-1.153-4.9063-1.153Z" fill="#2e78ac"/><path d="M93.1814,349.931c-2.1797,0-4.3594-.491-6.0577-1.471-1.8357-1.06-2.8464-2.539-2.8464-4.164s1.0107-3.104,2.8464-4.164c3.397-1.962,8.7183-1.961,12.1153,0c1.835,1.06,2.846,2.539,2.846,4.164s-1.011,3.104-2.846,4.164c-1.6982.98-3.8779,1.471-6.0576,1.471Zm-.0005-8.956c-1.7878,0-3.5766.384-4.9062,1.153-1.0771.622-1.6949,1.412-1.6949,2.168s.6178,1.547,1.6949,2.168c2.6597,1.537,7.1532,1.537,9.8129,0c1.0771-.622,1.6944-1.412,1.6944-2.168s-.6173-1.547-1.6944-2.168c-1.3296-.769-3.1184-1.153-4.9067-1.153Z" fill="#2e78ac"/><path d="M88.4822,308.544c-2.1797,0-4.3594-.491-6.0577-1.471-1.8352-1.06-2.8464-2.539-2.8464-4.164s1.0112-3.104,2.8464-4.163c3.3965-1.961,8.7188-1.962,12.1153,0c1.8357,1.059,2.8464,2.538,2.8464,4.163s-1.0107,3.104-2.8464,4.164c-1.6983.98-3.8779,1.471-6.0576,1.471Zm0-8.956c-1.7883,0-3.5766.384-4.9062,1.152-1.0771.623-1.6945,1.412-1.6945,2.168c0,.757.6174,1.547,1.6945,2.169c2.6597,1.537,7.1531,1.537,9.8128,0c1.0771-.622,1.695-1.412,1.695-2.169c0-.756-.6179-1.546-1.695-2.168-1.33-.768-3.1183-1.152-4.9066-1.152Z" fill="#2e78ac"/><path d="M177.953,291.696c-2.18,0-4.36-.49-6.058-1.471-1.835-1.061-2.846-2.54-2.846-4.164c0-1.625,1.011-3.104,2.846-4.164c3.398-1.962,8.719-1.961,12.115,0c1.835,1.06,2.846,2.539,2.846,4.163.001,1.625-1.01,3.104-2.846,4.165-1.698.98-3.877,1.471-6.057,1.471Zm-.001-8.956c-1.787,0-3.576.384-4.906,1.152-1.077.622-1.695,1.412-1.695,2.169c0,.756.618,1.547,1.695,2.168c2.659,1.537,7.154,1.536,9.813,0c1.077-.622,1.695-1.413,1.695-2.168c0-.756-.618-1.547-1.695-2.169-1.33-.768-3.118-1.152-4.907-1.152Z" fill="#2e78ac"/><path d="M28.3748,318.834c-2.1797,0-4.3595-.49-6.0577-1.471-1.8352-1.06-2.8464-2.539-2.8464-4.163c0-1.626,1.0112-3.104,2.8464-4.164c3.397-1.962,8.7183-1.962,12.1153,0c1.8357,1.06,2.8464,2.538,2.8464,4.164c0,1.624-1.0107,3.103-2.8464,4.163-1.6983.98-3.878,1.471-6.0576,1.471Zm0-8.956c-1.7883,0-3.5766.384-4.9063,1.152-1.077.623-1.6944,1.413-1.6944,2.169s.6174,1.546,1.6944,2.168c2.6597,1.537,7.1532,1.537,9.8129,0c1.0771-.622,1.695-1.412,1.695-2.168s-.6179-1.547-1.695-2.169c-1.3301-.768-3.1179-1.152-4.9066-1.152Z" fill="#2e78ac"/><path d="M264.492,448.874c-2.18,0-4.359-.49-6.058-1.471-1.835-1.06-2.846-2.539-2.846-4.164s1.011-3.103,2.846-4.163c3.397-1.962,8.719-1.962,12.116,0c1.835,1.06,2.846,2.539,2.846,4.164s-1.011,3.103-2.846,4.163c-1.699.98-3.878,1.471-6.058,1.471Zm0-8.956c-1.788,0-3.577.385-4.906,1.153-1.077.622-1.695,1.412-1.695,2.168s.618,1.547,1.695,2.168c2.659,1.537,7.153,1.537,9.813,0c1.077-.622,1.695-1.412,1.695-2.168s-.618-1.546-1.695-2.168c-1.33-.769-3.119-1.153-4.907-1.153Z" fill="#2e78ac"/><path d="M290.923,455.998c-2.18,0-4.359-.49-6.057-1.471-1.836-1.06-2.846-2.539-2.846-4.164s1.01-3.103,2.846-4.164c3.397-1.961,8.718-1.961,12.115.001c1.835,1.06,2.846,2.538,2.846,4.164c0,1.625-1.011,3.103-2.846,4.163-1.698.981-3.878,1.471-6.058,1.471Zm0-8.955c-1.788,0-3.576.384-4.906,1.152-1.077.622-1.695,1.412-1.695,2.168s.618,1.547,1.695,2.169c2.659,1.536,7.153,1.536,9.812,0c1.077-.623,1.695-1.412,1.695-2.168c0-.757-.618-1.547-1.695-2.169-1.329-.768-3.118-1.152-4.906-1.152Z" fill="#2e78ac"/><path d="M381.568,445.03c-2.18,0-4.359-.49-6.058-1.471-1.835-1.061-2.846-2.54-2.846-4.164s1.011-3.103,2.846-4.164c3.397-1.962,8.719-1.962,12.115,0c1.836,1.061,2.847,2.539,2.847,4.164s-1.011,3.103-2.847,4.164c-1.698.981-3.877,1.471-6.057,1.471Zm0-8.956c-1.788,0-3.576.384-4.906,1.152-1.077.623-1.695,1.413-1.695,2.169s.618,1.547,1.695,2.169c2.66,1.536,7.154,1.536,9.812,0c1.077-.623,1.695-1.413,1.695-2.169s-.618-1.547-1.695-2.169c-1.329-.768-3.118-1.152-4.906-1.152Z" fill="#2e78ac"/><path d="M388.424,413.255c-2.18,0-4.36-.49-6.058-1.471-1.836-1.06-2.846-2.539-2.846-4.164s1.01-3.103,2.846-4.163c3.397-1.962,8.719-1.962,12.115,0c1.835,1.06,2.846,2.538,2.846,4.163.001,1.625-1.011,3.104-2.846,4.164-1.698.981-3.878,1.471-6.057,1.471Zm0-8.956c-1.789,0-3.577.384-4.907,1.152-1.077.623-1.695,1.413-1.695,2.169s.618,1.546,1.695,2.168c2.66,1.537,7.154,1.537,9.813,0c1.077-.621,1.695-1.412,1.695-2.168c0-.757-.618-1.547-1.695-2.169-1.33-.768-3.119-1.152-4.906-1.152Z" fill="#2e78ac"/><path d="M205.366,338.776c-.199,0-.397-.051-.576-.154L95.7261,275.631l-61.292,35.4c-.5506.318-1.2548.129-1.5727-.422-.318-.551-.1289-1.255.4217-1.573l61.8673-35.732c.3572-.206.796-.206,1.1514,0L205.366,336.295l79.512-45.923v-89.083c0-.637.515-1.152,1.151-1.152s1.152.515,1.152,1.152v89.748c0,.411-.22.791-.576.997l-80.663,46.588c-.178.103-.377.154-.576.154Z" transform="translate(0-.115112)" fill="#2e78ac"/><path d="M168.557,388.983c-.199,0-.398-.052-.576-.154L98.0859,348.46c-.5507-.318-.7397-1.023-.4218-1.574s1.0211-.74,1.5727-.422l69.3192,40.037l141.38-81.655v-70.81c0-.636.515-1.152,1.151-1.152s1.152.516,1.152,1.152v71.474c0,.412-.22.792-.576.998L169.132,388.829c-.178.102-.376.154-.575.154Z" fill="#2e78ac"/><path d="M100.033,457.507c-.3979,0-.7845-.206-.9978-.576-.3179-.55-.1289-1.255.4217-1.573L334.997,319.319v-59.699c0-.636.515-1.152,1.151-1.152s1.152.516,1.152,1.152v60.364c0,.412-.22.792-.576.998L100.608,457.353c-.182.105-.38.154-.575.154Z" fill="#2e78ac"/><path d="M259.005,441.225c-.195,0-.393-.049-.574-.154l-40.332-23.294c-.356-.206-.576-.586-.576-.998c0-.411.22-.791.576-.997l141.955-81.988v-57.8c0-.636.516-1.152,1.151-1.152.636,0,1.152.516,1.152,1.152v58.465c0,.411-.219.792-.576.997L220.978,416.779l38.605,22.297c.55.318.739,1.022.421,1.573-.214.369-.601.576-.999.576Z" fill="#2e78ac"/><path d="M296.406,448.349c-.398.001-.784-.207-.998-.576-.317-.551-.128-1.255.422-1.573l19.222-11.102-50.939-29.421c-.356-.206-.576-.586-.576-.997c0-.412.22-.792.576-.997l108.476-62.652v-63.433c0-.636.516-1.152,1.151-1.152.636,0,1.152.516,1.152,1.152v64.097c0,.412-.219.792-.576.998L266.991,404.679L317.93,434.1c.357.206.576.586.576.997c0,.412-.219.792-.576.998l-20.948,12.099c-.182.106-.38.155-.576.155Z" fill="#2e78ac"/><path d="M382.939,405.606c-.195,0-.393-.05-.575-.155l-33.87-19.562c-.357-.207-.576-.586-.576-.998c0-.411.219-.791.576-.997l49.153-28.389v-121.312c0-.636.515-1.152,1.151-1.152s1.152.516,1.152,1.152v121.976c0,.412-.22.792-.576.998l-48.002,27.724l32.144,18.565c.55.318.739,1.022.421,1.573-.213.37-.6.577-.998.577Z" fill="#2e78ac"/><path d="M490.685,216.972l-46.315,26.75c-2.127,5.087-4.594,9.839-7.374,14.234c1.014,2.093,2.639,3.986,4.676,5.162l8.869,5.122l5.161,2.981c3.415,1.972,6.823,3.165,10.091,3.685l-.936,5.984l13.343-7.717c.047-.025.091-.055.138-.08l1.376-.796-.037-.011c4.065-2.625,7.103-6.94,8.417-12.755l4.887-21.625c1.493-6.612.52-14.014-2.296-20.934Z" fill="#a1c6e1"/><path d="M472.738,195.816l-5.167-2.984c0-.003-.001-.005-.001-.007l-17.679,10.211l3.127,2.495c-.449,6.753-1.381,13.399-2.844,19.877-1.473,6.522-3.428,12.628-5.805,18.313l46.315-26.75c-3.509-8.623-9.883-16.497-17.946-21.155Z" fill="#a1c6e1"/><path d="M275.702,258.743l-10.413,5.969-1.767,5.903-8.455-4.77-1.085-2.362l17.108-8.913c2.258,2.211,2.255,2.089,4.612,4.173Z" fill="#adcaff"/><path d="M361.67,20.2313c-48.762-28.16304-97.561-25.95837-129.863.6233l23.245,5.6499c24.815-13.384,56.96-13.7447,90.011,1.2481l-3.662.2929l33.347,30.161l32.671,38.8816l22.013-12.7132c-17.778-26.0741-40.937-48.6503-67.762-64.1436Z" fill="#ebf3f8"/><path d="M429.431,84.375L407.418,97.0882l3.384,4.0278l26.576,49.595l7.926,48.663l4.587,3.661l17.679-10.211c-1.786-36.922-15.661-75.482-38.139-108.449Z" fill="#a1c6e1"/><path d="M440.017,264.677c3.392-7.368,6.062-15.328,7.974-23.791c1.926-8.522,3.053-17.368,3.398-26.435l4.009,2.315c7.721,4.459,12.552,14.505,10.77,22.394l-4.886,21.625c-1.782,7.889-9.514,10.678-17.235,6.219l-4.03-2.327Zm-262.654-151.7c-7.721-4.459-12.553-14.5047-10.77-22.3934l4.886-21.6248c1.783-7.8891,9.514-10.6792,17.235-6.2201l4.033,2.3293c-3.35,7.2658-6.039,15.209-7.978,23.7897-1.927,8.5272-3.008,17.4013-3.293,26.4953l-4.113-2.376Z" fill="#fff"/><path d="M211.582,87.6035c5.565-24.6339,17.905-43.4151,34.535-55.4775-23.909,10.6062-41.952,32.4955-49.035,63.8435-6.414,28.3875-2.688,60.1635,8.682,90.2525l14.497-8.373c-11.368-30.087-15.093-61.86-8.679-90.2455Z" fill="#a1c6e1"/><path d="M191.554,50.1552l5.167,2.9845c2.568-4.2297,5.393-8.1736,8.443-11.8335-8.293-4.4733-16.486-4.5174-22.543-.9087l.008-.0483-13.377,7.754.008.0028c6.149-3.0669,14.215-2.617,22.294,2.0492Z" fill="#a1c6e1"/><path d="M315.89,149.119c.05-.22.107-.434.165-.646-6.928-1.702-13.02,1.736-14.665,9.012-1.28,5.666.448,12.297,4.112,17.679l14.495-8.372c-3.661-5.381-5.387-12.009-4.107-17.673Z" fill="#adcaff"/><path d="M319.999,166.792l-14.495,8.372c2.113,3.104,4.868,5.795,8.066,7.641c8.53,4.927,17.037,2.049,19.324-6.387-1.579-.387-3.201-1.041-4.824-1.978-3.2-1.849-5.957-4.542-8.071-7.648Z" fill="#d4e4ff"/><path d="M356.32,172.469c.05-.22.106-.433.164-.646-6.927-1.702-13.02,1.737-14.664,9.012-1.28,5.667.448,12.297,4.112,17.68l14.495-8.372c-3.661-5.382-5.387-12.01-4.107-17.674Z" fill="#adcaff"/><path d="M360.427,190.143l-14.495,8.372c2.113,3.104,4.867,5.794,8.066,7.641c8.529,4.926,17.037,2.048,19.323-6.387-1.578-.388-3.2-1.041-4.824-1.979-3.2-1.848-5.957-4.541-8.07-7.647Z" fill="#d4e4ff"/><g id="eU0uyfpERlZ59_to" style="offset-path:path('M398.77,236.4365L398.77,355.505L349.829,384.891L381.568,403.683');offset-rotate:0deg"><ellipse rx="5.0455" ry="3.662691" transform="translate(0,0)" fill="#2e78ac" stroke-width="0" stroke-dashoffset="27.7" stroke-dasharray="27.7"/></g><g id="eU0uyfpERlZ60_to" style="offset-path:path('M373.740003,277.598L373.740003,341.031L265.072004,404.679L317.224146,435.097L297.524001,446.632842');offset-rotate:0deg"><ellipse rx="5.0455" ry="3.662691" transform="translate(0,0)" fill="#2e78ac" stroke-width="0" stroke-dashoffset="27.7" stroke-dasharray="27.7"/></g><g id="eU0uyfpERlZ61_to" style="offset-path:path('M361.205,275.994L361.205,333.794L219.061586,416.666656L257.891,439.395');offset-rotate:0deg"><ellipse rx="5.0455" ry="3.662691" transform="translate(0,0)" fill="#2e78ac" stroke-width="0" stroke-dashoffset="27.7" stroke-dasharray="27.7"/></g><g id="eU0uyfpERlZ62_to" style="offset-path:path('M348.678,263.712L348.678,326.557L178.449363,425.712L200.274744,438.715L165.804,459.028');offset-rotate:0deg"><ellipse rx="5.0455" ry="3.662691" transform="translate(0,0)" fill="#2e78ac" stroke-width="0" stroke-dashoffset="27.7" stroke-dasharray="27.7"/></g><g id="eU0uyfpERlZ63_to" style="offset-path:path('M336.148,259.62L336.148,319.984L100.606,456.201');offset-rotate:0deg"><ellipse rx="5.0455" ry="3.662691" transform="translate(0,0)" fill="#2e78ac" stroke-width="0" stroke-dashoffset="27.7" stroke-dasharray="27.7"/></g><g id="eU0uyfpERlZ64_to" style="offset-path:path('M324.14972,251.729603L322.99772,313.044603L153.67672,411.455398L113.87772,388.497012L96.83352,398.371601');offset-rotate:0deg"><ellipse rx="5.0455" ry="3.662691" transform="translate(0,0)" fill="#2e78ac" stroke-width="0" stroke-dashoffset="27.7" stroke-dasharray="27.7"/></g><g id="eU0uyfpERlZ65_to" style="offset-path:path('M311.087,234.036L310.711,305.51L168.649,387.797514L99.4553,347.819571');offset-rotate:0deg"><ellipse rx="5.0455" ry="3.662691" transform="translate(0,0)" fill="#2e78ac" stroke-width="0" stroke-dashoffset="27.7" stroke-dasharray="27.7"/></g><g id="eU0uyfpERlZ66_to" style="offset-path:path('M298.559,223.035002L298.559,298.30811L189.712851,361.032146L94.964882,306.514956');offset-rotate:0deg"><ellipse rx="5.0455" ry="3.662691" transform="translate(0,0)" fill="#2e78ac" stroke-width="0" stroke-dashoffset="27.7" stroke-dasharray="27.7"/></g><g id="eU0uyfpERlZ67_to" style="offset-path:path('M286.072104,201.214069L286.017,290.921888Q205.409104,337.493302,205.409104,337.468706Q205.409104,337.44411,95.769203,274.320181L34.768503,309.514034');offset-rotate:0deg"><ellipse rx="5.0455" ry="3.662691" transform="translate(0,0)" fill="#2e78ac" stroke-width="0" stroke-dashoffset="27.7" stroke-dasharray="27.7"/></g><g id="eU0uyfpERlZ68_to" style="offset-path:path('M273.496,182.442L273.496,283.212207L223.766,312.442L184.01,289.491363');offset-rotate:0deg"><ellipse rx="5.0455" ry="3.662691" transform="translate(0,0)" fill="#2e78ac" stroke-width="0" stroke-dashoffset="27.7" stroke-dasharray="27.7"/></g><g id="eU0uyfpERlZ69_to" style="offset-path:path('M386.272002,226.957L386.272002,348.268L306.144287,395.193L374.967001,435.642958');offset-rotate:0deg"><ellipse rx="5.0455" ry="3.662691" transform="translate(0,0)" fill="#2e78ac" stroke-width="0" stroke-dashoffset="27.7" stroke-dasharray="27.7"/></g><path d="M310.711,309.918l-1.03,11.886l14.277-8.232-.014-.006c1.819-1.047,3.227-2.991,3.833-5.67l3.18-14.076c.641-2.834.265-5.953-.854-8.736l-31.324,17.943l11.932,6.891Z" transform="translate(.002579 0)" fill="#a1c6e1"/><g transform="translate(.002579 0)"><path d="M352.189,67.6819c-28.985-16.7401-57.928-17.3862-79.069-4.7521l.005-.0109-13.334,7.6872.008.0009c21.031-11.9178,49.441-10.9906,77.89,5.4404c48.961,28.2786,79.489,91.7566,68.185,141.7836-3.743,16.568-11.624,29.557-22.246,38.528l1.78,52.051v.001l14.499-8.366-1.779-52.051c10.621-8.971,18.502-21.961,22.246-38.529c11.303-50.028-19.224-113.5045-68.185-141.7831Z" fill="#c4d9ff"/><g><path d="M383.627,256.359l14.5-8.366l1.779,52.051-14.499,8.366-1.78-52.051Z" fill="#adcaff"/><g><path d="M330.1,285.085l-31.321,17.94-19.497-11.26c-4.921-2.839-7.842-9.847-6.53-15.652l.41-1.833c-1.564-1.308-3.106-2.648-4.632-4.011l-1.056,5.947-20.049-13.759-38.349-49.907-8.017-23.613l19.201-11.089c10.402,27.535,27.209,53.648,48.516,74.455c2.259,2.21,4.566,4.354,6.924,6.439l3.637-2.106c.3-.203.612-.389.94-.542l.011-.005c2.023-.941,4.49-.821,6.924.585l37.211,21.49c2.516,1.455,4.507,4.005,5.677,6.921Z" fill="#a1c6e1"/><path d="M478.479,246.272l-4.886,21.625c-3.355,14.85-17.858,20.084-32.392,11.689l-5.16-2.98-8.87-5.123c-2.037-1.176-3.661-3.069-4.676-5.162c5.887-9.307,10.388-20.19,13.18-32.549c15.211-67.319-25.87-152.7414-91.756-190.7944C278.034,4.92417,212.292,28.6499,197.081,95.9694C184.092,153.457,212.665,224.847,262.167,267.965l-.139.582c1.876-4.425,6.328-6.023,10.682-3.509l37.214,21.494c4.919,2.841,7.843,9.848,6.532,15.651l-3.181,14.077c-1.311,5.803-6.361,8.204-11.28,5.363L264.781,300.13c-4.919-2.841-7.843-9.849-6.531-15.651l.414-1.833c-45.757-38.326-76.286-98.404-78.979-154.103l-5.167-2.984c-14.534-8.395-23.597-27.2385-20.242-42.0891l4.887-21.6248c3.355-14.8511,17.858-20.0848,32.392-11.6903l5.167,2.9844c28.893-47.59265,89.703-59.62519,150.447-24.5415s102.705,106.4723,105.903,172.5993l5.167,2.985c14.534,8.396,23.596,27.24,20.24,42.09Zm-72.605-28.441c-3.744,16.568-11.624,29.557-22.247,38.528l1.78,52.05-41.191-37.751c-14.891.261-31.165-4.039-47.46-13.45-48.961-28.278-79.489-91.756-68.185-141.781c11.303-50.0268,60.157-67.6566,109.117-39.3784c48.961,28.2784,79.489,91.7554,68.186,141.7824ZM292.626,152.423c2.018-8.934-3.434-20.272-12.178-25.322s-17.469-1.901-19.488,7.034c-2.018,8.934,3.434,20.27,12.178,25.32s17.469,1.902,19.488-7.032Zm40.429,23.35c2.018-8.934-3.433-20.271-12.178-25.322-8.744-5.05-17.469-1.9-19.488,7.034-2.018,8.934,3.434,20.271,12.178,25.321c8.744,5.049,17.469,1.901,19.488-7.033Zm40.429,23.35c2.018-8.934-3.433-20.271-12.178-25.321-8.744-5.051-17.469-1.901-19.487,7.033-2.019,8.934,3.433,20.271,12.177,25.321c8.745,5.05,17.469,1.901,19.488-7.033Z" fill="#2e78ac"/><path d="M337.69,76.0475c-48.96-28.2777-97.814-10.6479-109.117,39.3795-11.304,50.026,19.224,113.503,68.185,141.781c16.295,9.412,32.569,13.711,47.46,13.451l41.191,37.751-1.78-52.051c10.622-8.971,18.503-21.96,22.247-38.528c11.303-50.028-19.225-113.505-68.186-141.7835ZM273.14,159.455c-8.744-5.05-14.196-16.387-12.178-25.321c2.019-8.934,10.744-12.084,19.488-7.033c8.744,5.05,14.196,16.387,12.178,25.322-2.019,8.933-10.744,12.082-19.488,7.032Zm40.429,23.35c-8.744-5.05-14.196-16.387-12.178-25.321c2.019-8.934,10.744-12.083,19.488-7.033c8.745,5.05,14.196,16.387,12.178,25.322-2.019,8.934-10.744,12.082-19.488,7.032Zm40.429,23.35c-8.744-5.05-14.195-16.387-12.177-25.32c2.019-8.935,10.744-12.084,19.488-7.034s14.196,16.387,12.177,25.322c-2.019,8.934-10.743,12.083-19.488,7.032Z" fill="#2e78ac"/><g transform="translate(.000001 0.000001)"><path d="M275.46,125.768c.05-.22.107-.433.165-.646-6.928-1.702-13.02,1.736-14.664,9.012-1.281,5.667.447,12.297,4.111,17.68l14.496-8.372c-3.661-5.382-5.387-12.01-4.108-17.674Z" fill="#adcaff"/><path d="M279.568,143.441l-14.496,8.373c2.113,3.103,4.868,5.794,8.067,7.641c8.529,4.926,17.037,2.048,19.323-6.387-1.579-.388-3.201-1.042-4.824-1.979-3.2-1.848-5.957-4.541-8.07-7.648Z" fill="#d4e4ff"/><path d="M355.17,33.501c-.605,4.9597-1.304,10.0189-2.105,15.1644-2.991-1.9966-6.04-3.895-9.145-5.6878C278.034,4.92417,212.293,28.6503,197.082,95.9703c-12.219,54.0757,12.34,120.4497,56.5,164.0257-2.953,3.219-5.988,6.419-9.104,9.594-37.801-38.112-62.388-91.322-64.793-141.045l-5.167-2.984c-14.534-8.395-23.597-27.2386-20.242-42.0892l4.887-21.6253c3.355-14.8511,17.858-20.0847,32.392-11.6903l5.167,2.9844c28.893-47.5931,89.703-59.62565,150.447-24.5419c2.706,1.5619,5.372,3.1996,8.001,4.9023ZM337.689,76.0482c3.054,1.7638,6.037,3.6651,8.941,5.6911-5.313,22.6777-12.795,46.4387-23.19,70.4437-.818-.635-1.671-1.218-2.562-1.732-8.744-5.05-17.469-1.901-19.488,7.034-1.724,7.629,2.003,17.007,8.574,22.73-10.416,19.63-22.962,39.205-38.043,58.269-33.877-32.296-52.588-82.167-43.349-123.057c11.303-50.0268,60.157-67.6566,109.117-39.3788Zm-57.24,51.0528c-8.744-5.051-17.469-1.901-19.488,7.033-2.018,8.934,3.434,20.271,12.178,25.321s17.469,1.902,19.487-7.032c2.019-8.934-3.433-20.272-12.177-25.322Z" fill="#2e78ac"/></g></g></g></g></svg>
