<svg id="eYJyCItpzs11" xmlns="http://www.w3.org/2000/svg" xmlns:xlink="http://www.w3.org/1999/xlink" viewBox="0 0 605 400" shape-rendering="geometricPrecision" text-rendering="geometricPrecision" project-id="6ef6f98b3ecd4f2b96f64b960b98abeb" export-id="eb03a7d373004ea98d66d80f8241377a" cached="false">
<style><![CDATA[
#eYJyCItpzs113_to {animation: eYJyCItpzs113_to__to 6000ms linear infinite normal forwards}@keyframes eYJyCItpzs113_to__to { 0% {transform: translate(301.680069px,209.376228px)} 25% {transform: translate(301.680069px,209.376228px)} 45% {transform: translate(301.680069px,178.376228px)} 53.333333% {transform: translate(301.679952px,178.376228px)} 73.333333% {transform: translate(301.680069px,209.376228px)} 100% {transform: translate(301.680069px,209.376228px)}} #eYJyCItpzs178_to {animation: eYJyCItpzs178_to__to 6000ms linear infinite normal forwards}@keyframes eYJyCItpzs178_to__to { 0% {offset-distance: 0%} 10.5% {offset-distance: 10.469259%} 25% {offset-distance: 25.000045%} 39.5% {offset-distance: 39.530864%} 50% {offset-distance: 49.999897%} 60.5% {offset-distance: 60.46926%} 75% {offset-distance: 75.000147%} 89.5% {offset-distance: 89.530967%} 100% {offset-distance: 100%}} #eYJyCItpzs1105_to {animation: eYJyCItpzs1105_to__to 6000ms linear infinite normal forwards}@keyframes eYJyCItpzs1105_to__to { 0% {offset-distance: 0%} 10.5% {offset-distance: 10.469259%} 25% {offset-distance: 25.000045%} 39.5% {offset-distance: 39.530864%} 50% {offset-distance: 49.999897%} 60.5% {offset-distance: 60.46926%} 75% {offset-distance: 75.000147%} 89.5% {offset-distance: 89.530967%} 100% {offset-distance: 100%}} #eYJyCItpzs1133_to {animation: eYJyCItpzs1133_to__to 6000ms linear infinite normal forwards}@keyframes eYJyCItpzs1133_to__to { 0% {transform: translate(301.680069px,156.486198px)} 13.333333% {transform: translate(301.680069px,156.486198px)} 41.666667% {transform: translate(301.680004px,105.984829px)} 55% {transform: translate(301.680081px,107.984829px)} 83.333333% {transform: translate(301.680069px,156.486198px)} 100% {transform: translate(301.680069px,156.486198px)}}
]]></style>
<defs><linearGradient id="eYJyCItpzs16-fill" x1="133.1" y1="313.18" x2="470.43" y2="313.18" spreadMethod="pad" gradientUnits="userSpaceOnUse" gradientTransform="translate(0 0)"><stop id="eYJyCItpzs16-fill-0" offset="0%" stop-color="#cad1e0"/><stop id="eYJyCItpzs16-fill-1" offset="51%" stop-color="#bfc6d8"/><stop id="eYJyCItpzs16-fill-2" offset="54%" stop-color="#d5dae7"/><stop id="eYJyCItpzs16-fill-3" offset="100%" stop-color="#e3e6ef"/></linearGradient><linearGradient id="eYJyCItpzs116-fill" x1="133.1" y1="258.55" x2="470.43" y2="258.55" spreadMethod="pad" gradientUnits="userSpaceOnUse" gradientTransform="translate(0 0)"><stop id="eYJyCItpzs116-fill-0" offset="0%" stop-color="#cad1e0"/><stop id="eYJyCItpzs116-fill-1" offset="51%" stop-color="#bfc6d8"/><stop id="eYJyCItpzs116-fill-2" offset="54%" stop-color="#d5dae7"/><stop id="eYJyCItpzs116-fill-3" offset="100%" stop-color="#e3e6ef"/></linearGradient><radialGradient id="eYJyCItpzs187-fill" cx="0" cy="0" r="1" spreadMethod="pad" gradientUnits="userSpaceOnUse" gradientTransform="matrix(0 39.59 39.59 0 103.7111 97.708)"><stop id="eYJyCItpzs187-fill-0" offset="0%" stop-color="#007bfc"/><stop id="eYJyCItpzs187-fill-1" offset="100%" stop-color="rgba(0,123,252,0)"/></radialGradient><radialGradient id="eYJyCItpzs1114-fill" cx="0" cy="0" r="1" spreadMethod="pad" gradientUnits="userSpaceOnUse" gradientTransform="matrix(0 39.59 39.59 0 480.9111 268.708)"><stop id="eYJyCItpzs1114-fill-0" offset="0%" stop-color="#007bfc"/><stop id="eYJyCItpzs1114-fill-1" offset="100%" stop-color="rgba(0,123,252,0)"/></radialGradient><linearGradient id="eYJyCItpzs1136-fill" x1="133.1" y1="205.66" x2="470.43" y2="205.66" spreadMethod="pad" gradientUnits="userSpaceOnUse" gradientTransform="translate(0 0)"><stop id="eYJyCItpzs1136-fill-0" offset="0%" stop-color="#cad1e0"/><stop id="eYJyCItpzs1136-fill-1" offset="51%" stop-color="#bfc6d8"/><stop id="eYJyCItpzs1136-fill-2" offset="54%" stop-color="#d5dae7"/><stop id="eYJyCItpzs1136-fill-3" offset="100%" stop-color="#e3e6ef"/></linearGradient></defs><g><g><path d="M468.3,280.01c-1.19-2.6-3.17-4.8-5.8-6.28l-18.43-10.45-1.11-.64-1.1.64l1.11.64l18.99,10.77c3.47,1.97,5.75,5.3,6.34,9.15.11.65.17,1.31.17,1.98c0,.3-.01.58-.03.87h.97v-2.95c-.19-1.31-.56-2.56-1.1-3.73h-.01ZM154.24,306.67l116.3,65v-.63l-116.3-65v.63Zm7.52-41.79l-1.12-.63-1.11.64l1.12.63l1.11-.64Zm300.74,8.85l-18.43-10.45-1.11-.64-1.1.64l1.11.64l18.99,10.77c3.47,1.97,5.75,5.3,6.34,9.15v-3.83c-1.19-2.6-3.17-4.8-5.8-6.28Z" fill="#191919"/><g><path d="M469.4,283.74v-41.09c-.19,1.29-.56,2.52-1.1,3.68-1.17,2.58-3.13,4.76-5.71,6.25l-18.52,10.69-1.1.64-118.88,68.63c-6.68,3.86-14.21,5.79-21.74,5.79s-14.65-1.83-21.21-5.49L160.65,265.51l-1.12-.63-18.6-10.4c-2.59-1.44-4.57-3.58-5.79-6.13-.51-1.06-.88-2.19-1.1-3.38v40.05c-.18.88-.25,1.8-.25,2.72.02,5.09,2.7,9.62,7.14,12.1L281.14,378.2c6.56,3.67,13.89,5.5,21.21,5.5s15.06-1.94,21.74-5.8l138.5-79.97c4.39-2.54,7-7.07,6.98-12.14c0-.71-.05-1.4-.17-2.07v.02ZM270.54,371.03v.63l-116.3-65v-25.21c0,0,1.1-4.22,6.8-.74c5.69,3.49,103.62,61.18,103.62,61.18s5.88,1.29,5.88,9.92v19.21.01Zm187.75-90.72L436.98,293c-.44.25-.93.39-1.4.39-.95,0-1.86-.49-2.37-1.36-.78-1.3-.35-3,.96-3.77l21.31-12.68c1.3-.78,3-.35,3.77.96.78,1.3.35,3-.96,3.77Z" fill="url(#eYJyCItpzs16-fill)"/><path d="M469.57,240.45c0,.75-.05,1.49-.17,2.2-.19,1.29-.56,2.52-1.1,3.68-1.17,2.58-3.13,4.76-5.71,6.25l-18.52,10.69-1.1.64-118.88,68.63c-6.68,3.86-14.21,5.79-21.74,5.79s-14.65-1.83-21.21-5.49L160.65,265.51l-1.12-.63-18.6-10.4c-2.59-1.44-4.57-3.58-5.79-6.13-.51-1.06-.88-2.19-1.1-3.38-.17-.84-.25-1.71-.25-2.6s.08-1.83.25-2.71c.07-.42.17-.83.29-1.22.97-3.44,3.25-6.38,6.49-8.23l140.39-80.2c13.26-7.57,29.74-7.6,43.01-.07L462.5,228.36c4.41,2.5,7.04,7.01,7.07,12.08v.01Z" fill="#f1f3fb"/></g><g transform="matrix(.7 0 0 0.7 90.503952 91.226646)"><path d="M469.4,229.11v-41.09c-.19,1.29-.56,2.52-1.1,3.68-1.17,2.58-3.13,4.76-5.71,6.25l-18.52,10.69-1.1.64-118.88,68.63c-6.68,3.86-14.21,5.79-21.74,5.79s-14.65-1.83-21.21-5.49L160.65,210.88l-1.12-.63-18.6-10.4c-2.59-1.44-4.57-3.58-5.79-6.13-.51-1.06-.88-2.19-1.1-3.38v40.05c-.18.88-.25,1.8-.25,2.72.02,5.09,2.7,9.62,7.14,12.1l140.21,78.36c6.56,3.67,13.89,5.5,21.21,5.5s15.06-1.94,21.74-5.8l138.5-79.97c4.39-2.54,7-7.07,6.98-12.14c0-.71-.05-1.4-.17-2.07v.02Z" fill="#263259"/><path d="M469.57,185.82c0,.75-.05,1.49-.17,2.2-.19,1.29-.56,2.52-1.1,3.68-1.17,2.58-3.13,4.76-5.71,6.25l-18.52,10.69-1.1.64-118.88,68.63c-6.68,3.86-14.21,5.79-21.74,5.79s-14.65-1.83-21.21-5.49L160.65,210.88l-1.12-.63-18.6-10.4c-2.59-1.44-4.57-3.58-5.79-6.13-.51-1.06-.88-2.19-1.1-3.38-.17-.84-.25-1.71-.25-2.6s.08-1.83.25-2.71c.07-.42.17-.83.29-1.22.97-3.44,3.25-6.38,6.49-8.23l140.39-80.2c13.26-7.57,29.74-7.6,43.01-.07L462.5,173.73c4.41,2.5,7.04,7.01,7.07,12.08v.01Z" fill="#f1f3fb"/></g><path d="M270.54,352.55v19.84l-116.3-65v-25.21c0,0,1.1-4.22,6.8-.74c5.69,3.49,103.62,61.18,103.62,61.18s5.88,1.29,5.88,9.92v.01Z" transform="translate(0-.709869)" fill="#263358" stroke="#263259"/><path d="M458.29,280.31L436.98,293c-.44.25-.93.39-1.4.39-.95,0-1.86-.49-2.37-1.36-.78-1.3-.35-3,.96-3.77l21.31-12.68c1.3-.78,3-.35,3.77.96.78,1.3.35,3-.96,3.77Z" fill="#263358"/></g><g id="eYJyCItpzs113_to" transform="translate(301.680069,209.376228)"><g transform="translate(-301.680069,-209.376228)"><path d="M468.3,225.38c-1.19-2.6-3.17-4.8-5.8-6.28l-18.43-10.45-1.11-.64-1.1.64l1.11.64l18.99,10.77c3.47,1.97,5.75,5.3,6.34,9.15.11.65.17,1.31.17,1.98c0,.3-.01.58-.03.87h.97v-2.95c-.19-1.31-.56-2.56-1.1-3.73h-.01ZM154.24,252.04l116.3,65v-.63l-116.3-65v.63Zm7.52-41.79l-1.12-.63-1.11.64l1.12.63l1.11-.64ZM462.5,219.1l-18.43-10.45-1.11-.64-1.1.64l1.11.64l18.99,10.77c3.47,1.97,5.75,5.3,6.34,9.15v-3.83c-1.19-2.6-3.17-4.8-5.8-6.28Z" fill="#191919"/><g><path d="M469.4,229.11v-41.09c-.19,1.29-.56,2.52-1.1,3.68-1.17,2.58-3.13,4.76-5.71,6.25l-18.52,10.69-1.1.64-118.88,68.63c-6.68,3.86-14.21,5.79-21.74,5.79s-14.65-1.83-21.21-5.49L160.65,210.88l-1.12-.63-18.6-10.4c-2.59-1.44-4.57-3.58-5.79-6.13-.51-1.06-.88-2.19-1.1-3.38v40.05c-.18.88-.25,1.8-.25,2.72.02,5.09,2.7,9.62,7.14,12.1l140.21,78.36c6.56,3.67,13.89,5.5,21.21,5.5s15.06-1.94,21.74-5.8l138.5-79.97c4.39-2.54,7-7.07,6.98-12.14c0-.71-.05-1.4-.17-2.07v.02Zm-198.86,87.3v.63l-116.3-65v-25.21c0,0,1.1-4.22,6.8-.74c5.69,3.49,103.62,61.18,103.62,61.18s5.88,1.29,5.88,9.92v19.21.01Zm187.75-90.73l-21.31,12.69c-.44.25-.93.39-1.4.39-.95,0-1.86-.49-2.37-1.36-.78-1.3-.35-3,.96-3.77l21.31-12.68c1.3-.78,3-.35,3.77.96.78,1.3.35,3-.96,3.77Z" fill="url(#eYJyCItpzs116-fill)"/><path d="M469.57,185.82c0,.75-.05,1.49-.17,2.2-.19,1.29-.56,2.52-1.1,3.68-1.17,2.58-3.13,4.76-5.71,6.25l-18.52,10.69-1.1.64-118.88,68.63c-6.68,3.86-14.21,5.79-21.74,5.79s-14.65-1.83-21.21-5.49L160.65,210.88l-1.12-.63-18.6-10.4c-2.59-1.44-4.57-3.58-5.79-6.13-.51-1.06-.88-2.19-1.1-3.38-.17-.84-.25-1.71-.25-2.6s.08-1.83.25-2.71c.07-.42.17-.83.29-1.22.97-3.44,3.25-6.38,6.49-8.23l140.39-80.2c13.26-7.57,29.74-7.6,43.01-.07L462.5,173.73c4.41,2.5,7.04,7.01,7.07,12.08v.01Z" fill="#f1f3fb"/></g><g transform="matrix(.7 0 0 0.7 92.139879 35.434116)"><path d="M469.4,229.11v-41.09c-.19,1.29-.56,2.52-1.1,3.68-1.17,2.58-3.13,4.76-5.71,6.25l-18.52,10.69-1.1.64-118.88,68.63c-6.68,3.86-14.21,5.79-21.74,5.79s-14.65-1.83-21.21-5.49L160.65,210.88l-1.12-.63-18.6-10.4c-2.59-1.44-4.57-3.58-5.79-6.13-.51-1.06-.88-2.19-1.1-3.38v40.05c-.18.88-.25,1.8-.25,2.72.02,5.09,2.7,9.62,7.14,12.1l140.21,78.36c6.56,3.67,13.89,5.5,21.21,5.5s15.06-1.94,21.74-5.8l138.5-79.97c4.39-2.54,7-7.07,6.98-12.14c0-.71-.05-1.4-.17-2.07v.02Z" fill="#263259"/><path d="M469.57,185.82c0,.75-.05,1.49-.17,2.2-.19,1.29-.56,2.52-1.1,3.68-1.17,2.58-3.13,4.76-5.71,6.25l-18.52,10.69-1.1.64-118.88,68.63c-6.68,3.86-14.21,5.79-21.74,5.79s-14.65-1.83-21.21-5.49L160.65,210.88l-1.12-.63-18.6-10.4c-2.59-1.44-4.57-3.58-5.79-6.13-.51-1.06-.88-2.19-1.1-3.38-.17-.84-.25-1.71-.25-2.6s.08-1.83.25-2.71c.07-.42.17-.83.29-1.22.97-3.44,3.25-6.38,6.49-8.23l140.39-80.2c13.26-7.57,29.74-7.6,43.01-.07L462.5,173.73c4.41,2.5,7.04,7.01,7.07,12.08v.01Z" fill="#f1f3fb"/></g><path d="M270.54,297.93v19.84l-116.3-65v-25.21c0,0,1.1-4.22,6.8-.74C166.73,230.31,264.66,288,264.66,288s5.88,1.29,5.88,9.92v.01Z" transform="translate(0-.689874)" fill="#263358" stroke="#263259"/><path d="M458.29,225.68l-21.31,12.69c-.44.25-.93.39-1.4.39-.95,0-1.86-.49-2.37-1.36-.78-1.3-.35-3,.96-3.77l21.31-12.68c1.3-.78,3-.35,3.77.96.78,1.3.35,3-.96,3.77Z" fill="#263358"/></g></g></g><g><path d="M146.87,90.78h322.7v294.02h-312.7c-5.52,0-10-4.48-10-10v-284.02Z" fill="none"/><g clip-path="url(#eYJyCItpzs136)"><g><g clip-path="url(#eYJyCItpzs134)"><g><g clip-path="url(#eYJyCItpzs132)"><g><path d="M67.66,225.02c.57,38.81,27.96,73.59,71.9,98.45c43.93,24.85,104.35,39.75,170.85,38.76c66.5-.98,126.45-17.65,169.63-43.79s69.53-61.73,68.96-100.53-27.96-73.59-71.9-98.45C433.17,94.61,372.75,79.71,306.25,80.7c-66.5.98-126.45,17.65-169.63,43.79s-69.53,61.73-68.96,100.53Z" fill="none" stroke="#007bfc" stroke-width="0.6"/></g><clipPath id="eYJyCItpzs132"><rect width="482" height="283" rx="0" ry="0" transform="translate(67.35 79.77)" fill="none"/></clipPath></g></g><clipPath id="eYJyCItpzs134"><rect width="482" height="283" rx="0" ry="0" transform="translate(67.35 79.77)" fill="none"/></clipPath></g></g><clipPath id="eYJyCItpzs136"><path d="M67.35,79.77h481.55v282.94h-471.55c-5.52,0-10-4.48-10-10v-272.94Z" fill="none"/></clipPath></g><g clip-path="url(#eYJyCItpzs149)"><g><g clip-path="url(#eYJyCItpzs147)"><g><g clip-path="url(#eYJyCItpzs145)"><g><path d="M67.66,246.68c.57,38.8,27.96,73.59,71.9,98.45c43.93,24.85,104.35,39.75,170.85,38.76c66.5-.98,126.45-17.65,169.63-43.79s69.53-61.73,68.96-100.53c-.57-38.81-27.96-73.59-71.9-98.45-43.93-24.85-104.35-39.75-170.85-38.76-66.5.98-126.45,17.65-169.63,43.79-43.18,26.15-69.53,61.73-68.96,100.53Z" fill="none" stroke="#007bfc" stroke-width="0.6"/></g><clipPath id="eYJyCItpzs145"><rect width="482" height="283" rx="0" ry="0" transform="translate(67.35 101.77)" fill="none"/></clipPath></g></g><clipPath id="eYJyCItpzs147"><rect width="482" height="283" rx="0" ry="0" transform="translate(67.35 101.77)" fill="none"/></clipPath></g></g><clipPath id="eYJyCItpzs149"><path d="M67.35,101.77h481.55v282.94h-471.55c-5.52,0-10-4.48-10-10v-272.94Z" fill="none"/></clipPath></g><g clip-path="url(#eYJyCItpzs162)"><g><g clip-path="url(#eYJyCItpzs160)"><g><g clip-path="url(#eYJyCItpzs158)"><g><path d="M67.66,203.34c.57,38.8,27.96,73.59,71.9,98.45c43.93,24.85,104.35,39.75,170.85,38.76c66.5-.98,126.45-17.65,169.63-43.79s69.53-61.73,68.96-100.53c-.57-38.81-27.96-73.59-71.9-98.45-43.93-24.85-104.35-39.75-170.85-38.76-66.5.98-126.45,17.65-169.63,43.79s-69.53,61.73-68.96,100.53Z" fill="none" stroke="#007bfc" stroke-width="0.6"/></g><clipPath id="eYJyCItpzs158"><rect width="482" height="284" rx="0" ry="0" transform="translate(67.35 57.77)" fill="none"/></clipPath></g></g><clipPath id="eYJyCItpzs160"><rect width="482" height="284" rx="0" ry="0" transform="translate(67.35 57.77)" fill="none"/></clipPath></g></g><clipPath id="eYJyCItpzs162"><path d="M67.35,57.77h481.55v283.94h-471.55c-5.52,0-10-4.48-10-10v-273.94Z" fill="none"/></clipPath></g><g clip-path="url(#eYJyCItpzs176)"><g><g clip-path="url(#eYJyCItpzs174)"><g><g clip-path="url(#eYJyCItpzs172)"><g><path d="M67.66,173.35c.57,38.8,27.96,73.59,71.9,98.45c43.93,24.85,104.35,39.74,170.85,38.76s126.45-17.65,169.63-43.79s69.53-61.73,68.96-100.53c-.57-38.81-27.96-73.59-71.9-98.45-43.93-24.85-104.35-39.75-170.85-38.76-66.5.98-126.45,17.65-169.63,43.79s-69.53,61.73-68.96,100.53Z" transform="matrix(.999966-.008298 0.008298 0.999966-1.399319 3.564272)" fill="none" stroke="#007bfc" stroke-width="0.6"/></g><clipPath id="eYJyCItpzs172"><rect width="482" height="284" rx="0" ry="0" transform="translate(67.35 27.78)" fill="none"/></clipPath></g></g><clipPath id="eYJyCItpzs174"><rect width="482" height="284" rx="0" ry="0" transform="translate(67.35 27.78)" fill="none"/></clipPath></g></g><clipPath id="eYJyCItpzs176"><path d="M67.35,27.78h481.55v283.94h-471.55c-5.52,0-10-4.48-10-10v-273.94Z" fill="none"/></clipPath></g><g id="eYJyCItpzs178_to" style="offset-path:path('M67.66,173.35C68.23,212.15,95.62,246.94,139.56,271.8C183.49,296.65,243.91,311.54,310.41,310.56C376.91,309.58,436.86,292.91,480.04,266.77C523.22,240.63,549.57,205.04,549,166.24C548.43,127.43,521.04,92.65,477.1,67.79C433.17,42.94,372.75,28.04,306.25,29.03C239.75,30.01,179.8,46.68,136.62,72.82C93.44,98.96,67.09,134.55,67.66,173.35');offset-rotate:0deg"><g transform="translate(-101.460003,-99.820004)" clip-path="url(#eYJyCItpzs1103)"><g><g clip-path="url(#eYJyCItpzs1101)"><g><g><g clip-path="url(#eYJyCItpzs189)"><g><g><g opacity="0.8"><path d="M101.46,139.41c21.86,0,39.59-17.72,39.59-39.59s-17.72-39.59-39.59-39.59-39.59,17.72-39.59,39.59s17.72,39.59,39.59,39.59Z" fill="url(#eYJyCItpzs187-fill)"/></g><path d="M101.46,111.78c6.61,0,11.96-5.35,11.96-11.96s-5.36-11.96-11.96-11.96-11.96,5.36-11.96,11.96s5.35,11.96,11.96,11.96Z" fill="#007bfc"/></g></g><clipPath id="eYJyCItpzs189"><rect width="228" height="228" rx="0" ry="0" transform="translate(-12.13-14.21)" fill="none"/></clipPath></g><g clip-path="url(#eYJyCItpzs199)"><g><g mask="url(#eYJyCItpzs196)"><g><path d="M101.9,111.78c6.61,0,11.96-5.35,11.96-11.96s-5.35-11.96-11.96-11.96-11.96,5.36-11.96,11.96s5.36,11.96,11.96,11.96Z" fill="#007bfb"/></g><mask id="eYJyCItpzs196" mask-type="luminance" x="-150%" y="-150%" height="400%" width="400%"><g><path d="M216.87,-14.21h-229v228h229v-228Z" fill="#fff"/></g></mask></g></g><clipPath id="eYJyCItpzs199"><rect width="229" height="228" rx="0" ry="0" transform="translate(-12.13-14.21)" fill="none"/></clipPath></g></g></g><clipPath id="eYJyCItpzs1101"><rect width="228" height="228" rx="0" ry="0" transform="translate(-12.13-14.21)" fill="none"/></clipPath></g></g><clipPath id="eYJyCItpzs1103"><rect width="227.79" height="227.95" rx="0" ry="0" transform="translate(-12.13-14.21)" fill="none"/></clipPath></g></g><g id="eYJyCItpzs1105_to" style="offset-path:path('M548.981697,165.232954C548.238706,126.435882,520.69386,91.768351,476.643454,67.104513C432.603092,42.45063,372.117303,27.830172,305.622333,29.106665C239.127364,30.383159,179.252286,47.320291,136.189265,73.652558C93.126245,99.984824,66.935191,135.691957,67.678183,174.48903C68.421219,213.296103,95.96602,247.953633,140.016426,272.617471C184.056788,297.271354,244.542622,311.901812,311.037547,310.615319C377.532516,309.338826,437.407594,292.401693,480.470615,266.069426C523.533635,239.73716,549.724689,204.030027,548.981697,165.232954');offset-rotate:0deg"><g transform="translate(-478.670013,-270.790009)" clip-path="url(#eYJyCItpzs1130)"><g><g clip-path="url(#eYJyCItpzs1128)"><g><g><g clip-path="url(#eYJyCItpzs1116)"><g><g><g opacity="0.8"><path d="M478.67,310.38c21.86,0,39.59-17.72,39.59-39.59s-17.72-39.59-39.59-39.59-39.59,17.72-39.59,39.59s17.72,39.59,39.59,39.59Z" fill="url(#eYJyCItpzs1114-fill)"/></g><path d="M478.67,282.75c6.61,0,11.96-5.36,11.96-11.96s-5.35-11.96-11.96-11.96-11.96,5.36-11.96,11.96s5.36,11.96,11.96,11.96Z" fill="#007bfc"/></g></g><clipPath id="eYJyCItpzs1116"><rect width="228" height="228" rx="0" ry="0" transform="translate(365.08 156.76)" fill="none"/></clipPath></g><g clip-path="url(#eYJyCItpzs1126)"><g><g mask="url(#eYJyCItpzs1123)"><g><path d="M479.11,282.75c6.61,0,11.96-5.36,11.96-11.96s-5.36-11.96-11.96-11.96-11.96,5.36-11.96,11.96s5.35,11.96,11.96,11.96Z" fill="#007bfb"/></g><mask id="eYJyCItpzs1123" mask-type="luminance" x="-150%" y="-150%" height="400%" width="400%"><g><path d="M594.08,156.76h-229v228h229v-228Z" fill="#fff"/></g></mask></g></g><clipPath id="eYJyCItpzs1126"><rect width="229" height="228" rx="0" ry="0" transform="translate(365.08 156.76)" fill="none"/></clipPath></g></g></g><clipPath id="eYJyCItpzs1128"><rect width="228" height="228" rx="0" ry="0" transform="translate(365.08 156.76)" fill="none"/></clipPath></g></g><clipPath id="eYJyCItpzs1130"><rect width="227.79" height="227.95" rx="0" ry="0" transform="translate(365.08 150.76)" fill="none"/></clipPath></g></g><path d="M146.87,36.79h322.7v229.23h-312.7c-5.52,0-10-4.48-10-10v-219.23Z" fill="none"/></g><g id="eYJyCItpzs1133_to" transform="translate(301.680069,156.486198)"><g transform="translate(-301.679972,-163.984829)"><path d="M468.3,172.49c-1.19-2.6-3.17-4.8-5.8-6.28l-18.43-10.45-1.11-.64-1.1.64l1.11.64l18.99,10.77c3.47,1.97,5.75,5.3,6.34,9.15.11.65.17,1.31.17,1.98c0,.3-.01.58-.03.87h.97v-2.95c-.19-1.31-.56-2.56-1.1-3.73h-.01ZM154.24,199.14l116.3,65v-.63l-116.3-65v.63Zm7.52-41.79l-1.12-.63-1.11.64l1.12.63l1.11-.64Zm300.74,8.86l-18.43-10.45-1.11-.64-1.1.64l1.11.64l18.99,10.77c3.47,1.97,5.75,5.3,6.34,9.15v-3.83c-1.19-2.6-3.17-4.8-5.8-6.28Z" fill="#191919"/><g><path d="M469.4,176.22v-41.09c-.19,1.29-.56,2.52-1.1,3.68-1.17,2.58-3.13,4.76-5.71,6.25l-18.52,10.69-1.1.64-118.88,68.63c-6.68,3.86-14.21,5.79-21.74,5.79s-14.65-1.83-21.21-5.49L160.65,157.99l-1.12-.63-18.6-10.4c-2.59-1.44-4.57-3.58-5.79-6.13-.51-1.06-.88-2.19-1.1-3.38v40.05c-.18.88-.25,1.8-.25,2.72.02,5.09,2.7,9.62,7.14,12.1l140.21,78.36c6.56,3.67,13.89,5.5,21.21,5.5s15.06-1.94,21.74-5.8l138.5-79.97c4.39-2.54,7-7.07,6.98-12.14c0-.71-.05-1.4-.17-2.07v.02ZM270.54,263.51v.63l-116.3-65v-25.21c0,0,1.1-4.22,6.8-.74c5.69,3.49,103.62,61.18,103.62,61.18s5.88,1.29,5.88,9.92v19.21.01Zm187.75-90.72l-21.31,12.69c-.44.25-.93.39-1.4.39-.95,0-1.86-.49-2.37-1.36-.78-1.3-.35-3,.96-3.77l21.31-12.68c1.3-.78,3-.35,3.77.96.78,1.3.35,3-.96,3.77Z" fill="url(#eYJyCItpzs1136-fill)"/><path d="M469.57,132.93c0,.75-.05,1.49-.17,2.2-.19,1.29-.56,2.52-1.1,3.68-1.17,2.58-3.13,4.76-5.71,6.25l-18.52,10.69-1.1.64-118.88,68.63c-6.68,3.86-14.21,5.79-21.74,5.79s-14.65-1.83-21.21-5.49L160.65,157.99l-1.12-.63-18.6-10.4c-2.59-1.44-4.57-3.58-5.79-6.13-.51-1.06-.88-2.19-1.1-3.38-.17-.84-.25-1.71-.25-2.6s.08-1.83.25-2.71c.07-.42.17-.83.29-1.22.97-3.44,3.25-6.38,6.49-8.23l140.39-80.2c13.26-7.57,29.74-7.6,43.01-.07L462.5,120.84c4.41,2.5,7.04,7.01,7.07,12.08v.01Z" fill="#f1f3fb"/></g><path d="M270.54,244.9v19.84l-116.3-65v-25.21c0,0,1.1-4.22,6.8-.74c5.69,3.49,103.62,61.18,103.62,61.18s5.88,1.29,5.88,9.92v.01Z" transform="translate(0-.561214)" fill="#263358" stroke="#263259"/><path d="M458.29,172.79l-21.31,12.69c-.44.25-.93.39-1.4.39-.95,0-1.86-.49-2.37-1.36-.78-1.3-.35-3,.96-3.77l21.31-12.68c1.3-.78,3-.35,3.77.96.78,1.3.35,3-.96,3.77Z" fill="#263358"/></g></g></svg>
