<svg width="713" height="472" viewBox="0 0 713 472" fill="none" xmlns="http://www.w3.org/2000/svg">
<g clip-path="url(#clip0_2095_25934)">
<path d="M551.899 330.413C550.497 327.345 548.163 324.749 545.064 323.002L523.344 310.671L522.035 309.916L520.739 310.671L522.047 311.426L544.427 324.135C548.517 326.46 551.204 330.389 551.899 334.932C552.029 335.699 552.099 336.478 552.099 337.268C552.099 337.622 552.088 337.953 552.064 338.295H553.207V334.814C552.983 333.268 552.547 331.793 551.911 330.413H551.899ZM181.775 361.871L318.836 438.571V437.828L181.775 361.128V361.871ZM190.638 312.559L189.318 311.816L188.01 312.571L189.33 313.314L190.638 312.559ZM545.064 323.002L523.344 310.671L522.035 309.916L520.739 310.671L522.047 311.426L544.427 324.135C548.517 326.46 551.204 330.389 551.899 334.932V330.413C550.497 327.345 548.163 324.749 545.064 323.002Z" fill="#191919"/>
<path d="M553.194 334.813V286.327C552.97 287.849 552.534 289.301 551.898 290.67C550.519 293.714 548.209 296.286 545.169 298.045L523.343 310.659L522.046 311.414L381.945 392.397C374.072 396.952 365.198 399.23 356.324 399.23C347.45 399.23 339.059 397.07 331.328 392.751L189.329 313.302L188.009 312.559L166.088 300.287C163.036 298.587 160.703 296.062 159.265 293.053C158.664 291.802 158.228 290.469 157.968 289.065V336.324C157.756 337.362 157.674 338.448 157.674 339.533C157.697 345.54 160.856 350.885 166.088 353.811L331.328 446.276C339.059 450.607 347.697 452.766 356.324 452.766C364.951 452.766 374.072 450.477 381.945 445.922L545.169 351.558C550.342 348.56 553.418 343.215 553.395 337.232C553.395 336.395 553.336 335.58 553.194 334.79V334.813ZM318.835 437.816V438.559L181.774 361.859V332.111C181.774 332.111 183.071 327.132 189.788 331.238C196.494 335.356 311.906 403.43 311.906 403.43C311.906 403.43 318.835 404.953 318.835 415.136V437.804V437.816ZM540.101 330.766L514.987 345.74C514.468 346.035 513.891 346.2 513.337 346.2C512.217 346.2 511.145 345.622 510.544 344.596C509.625 343.062 510.132 341.056 511.675 340.147L536.789 325.185C538.322 324.264 540.325 324.772 541.233 326.317C542.152 327.851 541.645 329.857 540.101 330.766Z" fill="url(#paint0_linear_2095_25934)"/>
<path d="M553.395 283.731C553.395 284.616 553.336 285.49 553.194 286.327C552.97 287.85 552.534 289.301 551.898 290.67C550.519 293.714 548.209 296.287 545.169 298.045L523.343 310.659L522.046 311.414L381.945 392.398C374.072 396.952 365.198 399.23 356.324 399.23C347.45 399.23 339.059 397.07 331.328 392.752L189.329 313.302L188.009 312.559L166.088 300.287C163.036 298.588 160.703 296.062 159.265 293.053C158.664 291.803 158.228 290.469 157.968 289.065C157.768 288.074 157.674 287.047 157.674 285.997C157.674 284.947 157.768 283.838 157.968 282.799C158.051 282.304 158.169 281.82 158.31 281.36C159.453 277.3 162.14 273.831 165.959 271.648L331.41 177.012C347.037 168.08 366.459 168.044 382.098 176.93L545.063 269.465C550.26 272.415 553.359 277.737 553.395 283.72V283.731Z" fill="#F1F3FB"/>
<path d="M318.836 416.01V439.421L181.775 362.721V332.973C181.775 332.973 183.072 327.993 189.789 332.1C196.495 336.218 311.907 404.292 311.907 404.292C311.907 404.292 318.836 405.814 318.836 415.998V416.01Z" fill="#263358"/>
<path d="M540.101 330.766L514.987 345.74C514.469 346.035 513.891 346.2 513.337 346.2C512.218 346.2 511.145 345.622 510.544 344.596C509.625 343.062 510.132 341.056 511.676 340.147L536.79 325.185C538.322 324.264 540.325 324.772 541.233 326.317C542.152 327.851 541.645 329.857 540.101 330.766Z" fill="#263358"/>
<path d="M551.897 265.949C550.495 262.881 548.161 260.285 545.062 258.538L523.342 246.207L522.034 245.452L520.737 246.207L522.045 246.963L544.425 259.671C548.515 261.996 551.202 265.925 551.897 270.468C552.027 271.235 552.097 272.014 552.097 272.805C552.097 273.159 552.086 273.489 552.062 273.831H553.205V270.35C552.981 268.804 552.545 267.329 551.909 265.949H551.897ZM181.773 297.408L318.834 374.108V373.364L181.773 296.664V297.408ZM190.636 248.095L189.316 247.352L188.008 248.107L189.328 248.851L190.636 248.095ZM545.062 258.538L523.342 246.207L522.034 245.452L520.737 246.207L522.045 246.963L544.425 259.671C548.515 261.996 551.202 265.925 551.897 270.468V265.949C550.495 262.881 548.161 260.285 545.062 258.538Z" fill="#191919"/>
<path d="M553.194 270.349V221.863C552.97 223.385 552.534 224.837 551.898 226.206C550.519 229.25 548.209 231.822 545.169 233.581L523.343 246.195L522.046 246.95L381.945 327.933C374.072 332.488 365.198 334.766 356.324 334.766C347.45 334.766 339.059 332.606 331.328 328.287L189.329 248.838L188.009 248.095L166.088 235.823C163.036 234.123 160.703 231.598 159.265 228.589C158.664 227.338 158.228 226.005 157.968 224.601V271.86C157.756 272.898 157.674 273.984 157.674 275.069C157.697 281.076 160.856 286.421 166.088 289.347L331.328 381.812C339.059 386.143 347.697 388.302 356.324 388.302C364.951 388.302 374.072 386.013 381.945 381.458L545.169 287.094C550.342 284.096 553.418 278.751 553.395 272.768C553.395 271.931 553.336 271.116 553.194 270.326V270.349ZM318.835 373.363V374.107L181.774 297.407V267.659C181.774 267.659 183.071 262.679 189.788 266.786C196.494 270.904 311.906 338.978 311.906 338.978C311.906 338.978 318.835 340.5 318.835 350.684V373.352V373.363ZM540.101 266.302L514.987 281.276C514.468 281.571 513.891 281.736 513.337 281.736C512.217 281.736 511.145 281.158 510.544 280.132C509.625 278.598 510.132 276.592 511.675 275.683L536.789 260.721C538.322 259.8 540.325 260.308 541.233 261.853C542.152 263.387 541.645 265.393 540.101 266.302Z" fill="url(#paint1_linear_2095_25934)"/>
<path d="M553.395 219.268C553.395 220.153 553.336 221.026 553.194 221.864C552.97 223.386 552.534 224.837 551.898 226.206C550.519 229.25 548.209 231.823 545.169 233.581L523.343 246.195L522.046 246.95L381.945 327.934C374.072 332.489 365.198 334.766 356.324 334.766C347.45 334.766 339.059 332.607 331.328 328.288L189.329 248.838L188.009 248.095L166.088 235.823C163.036 234.124 160.703 231.599 159.265 228.59C158.664 227.339 158.228 226.005 157.968 224.601C157.768 223.61 157.674 222.583 157.674 221.533C157.674 220.483 157.768 219.374 157.968 218.335C158.051 217.84 158.169 217.356 158.31 216.896C159.453 212.837 162.14 209.367 165.959 207.184L331.41 112.548C347.037 103.616 366.459 103.58 382.098 112.466L545.063 205.001C550.26 207.951 553.359 213.273 553.395 219.256V219.268Z" fill="#F1F3FB"/>
<path d="M318.834 351.557V374.969L181.773 298.269V268.521C181.773 268.521 183.07 263.541 189.787 267.648C196.493 271.766 311.905 339.84 311.905 339.84C311.905 339.84 318.834 341.362 318.834 351.546V351.557Z" fill="#263358"/>
<path d="M540.101 266.302L514.987 281.276C514.469 281.571 513.891 281.736 513.337 281.736C512.218 281.736 511.145 281.158 510.544 280.132C509.625 278.598 510.132 276.592 511.676 275.683L536.79 260.721C538.322 259.8 540.325 260.308 541.233 261.853C542.152 263.387 541.645 265.393 540.101 266.302Z" fill="#263358"/>
<mask id="mask0_2095_25934" style="mask-type:luminance" maskUnits="userSpaceOnUse" x="79" y="94" width="568" height="334">
<path d="M79.373 94.1289H646.886V427.998H91.1582C84.6528 427.998 79.373 422.712 79.373 416.198V94.1289Z" fill="white"/>
</mask>
<g mask="url(#mask0_2095_25934)">
<mask id="mask1_2095_25934" style="mask-type:luminance" maskUnits="userSpaceOnUse" x="79" y="94" width="569" height="335">
<path d="M647.416 94.1289H79.373V428.069H647.416V94.1289Z" fill="white"/>
</mask>
<g mask="url(#mask1_2095_25934)">
<mask id="mask2_2095_25934" style="mask-type:luminance" maskUnits="userSpaceOnUse" x="79" y="94" width="569" height="335">
<path d="M647.416 94.1289H79.373V428.069H647.416V94.1289Z" fill="white"/>
</mask>
<g mask="url(#mask2_2095_25934)">
<path d="M79.7392 265.524C80.4109 311.32 112.69 352.36 164.474 381.695C216.246 411.018 287.452 428.6 365.823 427.432C444.194 426.276 514.846 406.605 565.734 375.76C616.622 344.915 647.676 302.918 647.004 257.134C646.333 211.35 614.053 170.298 562.269 140.963C510.497 111.64 439.292 94.0585 360.92 95.2267C282.549 96.3831 211.898 116.054 161.009 146.899C110.121 177.744 79.0674 219.74 79.7392 265.524Z" stroke="#007BFC" stroke-width="0.6"/>
</g>
</g>
</g>
<mask id="mask3_2095_25934" style="mask-type:luminance" maskUnits="userSpaceOnUse" x="79" y="120" width="568" height="334">
<path d="M79.373 120.089H646.886V453.958H91.1582C84.6528 453.958 79.373 448.672 79.373 442.158V120.089Z" fill="white"/>
</mask>
<g mask="url(#mask3_2095_25934)">
<mask id="mask4_2095_25934" style="mask-type:luminance" maskUnits="userSpaceOnUse" x="79" y="120" width="569" height="335">
<path d="M647.416 120.089H79.373V454.029H647.416V120.089Z" fill="white"/>
</mask>
<g mask="url(#mask4_2095_25934)">
<mask id="mask5_2095_25934" style="mask-type:luminance" maskUnits="userSpaceOnUse" x="79" y="120" width="569" height="335">
<path d="M647.416 120.089H79.373V454.029H647.416V120.089Z" fill="white"/>
</mask>
<g mask="url(#mask5_2095_25934)">
<path d="M79.7392 291.083C80.4109 336.867 112.69 377.919 164.474 407.254C216.246 436.577 287.452 454.159 365.823 452.991C444.194 451.834 514.846 432.164 565.734 401.318C616.622 370.473 647.676 328.477 647.004 282.693C646.333 236.897 614.053 195.857 562.269 166.522C510.497 137.199 439.292 119.617 360.92 120.785C282.549 121.942 211.898 141.612 161.009 172.457C110.121 203.314 79.0674 245.299 79.7392 291.083Z" stroke="#007BFC" stroke-width="0.6"/>
</g>
</g>
</g>
<mask id="mask6_2095_25934" style="mask-type:luminance" maskUnits="userSpaceOnUse" x="79" y="68" width="568" height="336">
<path d="M79.373 68.1689H646.886V403.218H91.1582C84.6528 403.218 79.373 397.932 79.373 391.418V68.1689Z" fill="white"/>
</mask>
<g mask="url(#mask6_2095_25934)">
<mask id="mask7_2095_25934" style="mask-type:luminance" maskUnits="userSpaceOnUse" x="79" y="68" width="569" height="336">
<path d="M647.416 68.1689H79.373V403.289H647.416V68.1689Z" fill="white"/>
</mask>
<g mask="url(#mask7_2095_25934)">
<mask id="mask8_2095_25934" style="mask-type:luminance" maskUnits="userSpaceOnUse" x="79" y="68" width="569" height="336">
<path d="M647.416 68.1689H79.373V403.289H647.416V68.1689Z" fill="white"/>
</mask>
<g mask="url(#mask8_2095_25934)">
<path d="M79.7392 239.941C80.4109 285.725 112.69 326.777 164.474 356.112C216.246 385.435 287.452 403.017 365.823 401.849C444.194 400.693 514.846 381.022 565.734 350.177C616.622 319.332 647.676 277.335 647.004 231.551C646.333 185.756 614.053 144.715 562.269 115.38C510.497 86.0575 439.292 68.4755 360.92 69.6437C282.549 70.8001 211.898 90.4707 161.009 121.316C110.121 152.161 79.0674 194.157 79.7392 239.941Z" stroke="#007BFC" stroke-width="0.6"/>
</g>
</g>
</g>
<mask id="mask9_2095_25934" style="mask-type:luminance" maskUnits="userSpaceOnUse" x="79" y="32" width="568" height="336">
<path d="M79.373 32.7803H646.886V367.829H91.1582C84.6528 367.829 79.373 362.543 79.373 356.029V32.7803Z" fill="white"/>
</mask>
<g mask="url(#mask9_2095_25934)">
<mask id="mask10_2095_25934" style="mask-type:luminance" maskUnits="userSpaceOnUse" x="79" y="32" width="569" height="336">
<path d="M647.416 32.7803H79.373V367.9H647.416V32.7803Z" fill="white"/>
</mask>
<g mask="url(#mask10_2095_25934)">
<mask id="mask11_2095_25934" style="mask-type:luminance" maskUnits="userSpaceOnUse" x="79" y="32" width="569" height="336">
<path d="M647.416 32.7803H79.373V367.9H647.416V32.7803Z" fill="white"/>
</mask>
<g mask="url(#mask11_2095_25934)">
<path d="M79.7392 204.553C80.4109 250.337 112.69 291.389 164.474 320.724C216.246 350.047 287.452 367.617 365.823 366.46C444.194 365.304 514.846 345.633 565.734 314.788C616.622 283.943 647.676 241.947 647.004 196.163C646.333 150.367 614.053 109.327 562.269 79.9918C510.497 50.6688 439.292 33.0868 360.92 34.255C282.549 35.4114 211.898 55.082 161.009 85.9272C110.121 116.772 79.0674 158.769 79.7392 204.553Z" stroke="#007BFC" stroke-width="0.6"/>
</g>
</g>
</g>
<mask id="mask12_2095_25934" style="mask-type:luminance" maskUnits="userSpaceOnUse" x="-15" y="-17" width="270" height="270">
<path d="M254.158 -16.7676H-14.2949V252.213H254.158V-16.7676Z" fill="white"/>
</mask>
<g mask="url(#mask12_2095_25934)">
<mask id="mask13_2095_25934" style="mask-type:luminance" maskUnits="userSpaceOnUse" x="-15" y="-17" width="270" height="270">
<path d="M254.406 -16.7676H-14.2949V252.272H254.406V-16.7676Z" fill="white"/>
</mask>
<g mask="url(#mask13_2095_25934)">
<mask id="mask14_2095_25934" style="mask-type:luminance" maskUnits="userSpaceOnUse" x="-15" y="-17" width="270" height="270">
<path d="M254.406 -16.7676H-14.2949V252.272H254.406V-16.7676Z" fill="white"/>
</mask>
<g mask="url(#mask14_2095_25934)">
<g opacity="0.8">
<path d="M119.571 164.504C145.334 164.504 166.229 143.594 166.229 117.787C166.229 91.9809 145.345 71.0713 119.571 71.0713C93.7973 71.0713 72.9141 91.9809 72.9141 117.787C72.9141 143.594 93.7973 164.504 119.571 164.504Z" fill="url(#paint2_radial_2095_25934)"/>
</g>
<path d="M119.572 131.9C127.362 131.9 133.667 125.587 133.667 117.788C133.667 109.988 127.35 103.675 119.572 103.675C111.793 103.675 105.477 110 105.477 117.788C105.477 125.576 111.782 131.9 119.572 131.9Z" fill="#007BFC"/>
</g>
<mask id="mask15_2095_25934" style="mask-type:luminance" maskUnits="userSpaceOnUse" x="-15" y="-17" width="271" height="270">
<path d="M255.584 -16.7676H-14.2949V252.272H255.584V-16.7676Z" fill="white"/>
</mask>
<g mask="url(#mask15_2095_25934)">
<path d="M120.091 131.9C127.881 131.9 134.186 125.587 134.186 117.788C134.186 109.988 127.881 103.675 120.091 103.675C112.301 103.675 105.996 110 105.996 117.788C105.996 125.576 112.313 131.9 120.091 131.9Z" fill="#007BFB"/>
</g>
</g>
</g>
<mask id="mask16_2095_25934" style="mask-type:luminance" maskUnits="userSpaceOnUse" x="430" y="177" width="269" height="270">
<path d="M698.705 177.897H430.252V446.878H698.705V177.897Z" fill="white"/>
</mask>
<g mask="url(#mask16_2095_25934)">
<mask id="mask17_2095_25934" style="mask-type:luminance" maskUnits="userSpaceOnUse" x="430" y="184" width="269" height="271">
<path d="M698.953 184.978H430.252V454.018H698.953V184.978Z" fill="white"/>
</mask>
<g mask="url(#mask17_2095_25934)">
<mask id="mask18_2095_25934" style="mask-type:luminance" maskUnits="userSpaceOnUse" x="430" y="184" width="269" height="271">
<path d="M698.953 184.978H430.252V454.018H698.953V184.978Z" fill="white"/>
</mask>
<g mask="url(#mask18_2095_25934)">
<g opacity="0.8">
<path d="M564.118 366.249C589.881 366.249 610.776 345.339 610.776 319.533C610.776 293.726 589.892 272.816 564.118 272.816C538.344 272.816 517.461 293.726 517.461 319.533C517.461 345.339 538.344 366.249 564.118 366.249Z" fill="url(#paint3_radial_2095_25934)"/>
</g>
<path d="M564.118 333.646C571.908 333.646 578.213 327.321 578.213 319.533C578.213 311.745 571.908 305.42 564.118 305.42C556.329 305.42 550.023 311.745 550.023 319.533C550.023 327.321 556.34 333.646 564.118 333.646Z" fill="#007BFC"/>
</g>
<mask id="mask19_2095_25934" style="mask-type:luminance" maskUnits="userSpaceOnUse" x="430" y="184" width="271" height="271">
<path d="M700.131 184.978H430.252V454.018H700.131V184.978Z" fill="white"/>
</mask>
<g mask="url(#mask19_2095_25934)">
<path d="M564.638 333.646C572.428 333.646 578.733 327.321 578.733 319.533C578.733 311.745 572.416 305.42 564.638 305.42C556.86 305.42 550.543 311.745 550.543 319.533C550.543 327.321 556.848 333.646 564.638 333.646Z" fill="#007BFB"/>
</g>
</g>
</g>
<path d="M551.897 203.539C550.495 200.471 548.161 197.875 545.062 196.128L523.342 183.797L522.034 183.042L520.737 183.797L522.045 184.552L544.425 197.261C548.515 199.586 551.202 203.515 551.897 208.058C552.027 208.825 552.097 209.604 552.097 210.394C552.097 210.748 552.086 211.079 552.062 211.421H553.205V207.94C552.981 206.394 552.545 204.919 551.909 203.539H551.897ZM181.773 234.986L318.834 311.686V310.942L181.773 234.242V234.986ZM190.636 185.673L189.316 184.93L188.008 185.685L189.328 186.429L190.636 185.673ZM545.062 196.128L523.342 183.797L522.034 183.042L520.737 183.797L522.045 184.552L544.425 197.261C548.515 199.586 551.202 203.515 551.897 208.058V203.539C550.495 200.471 548.161 197.875 545.062 196.128Z" fill="#191919"/>
<path d="M553.194 207.939V159.453C552.97 160.975 552.534 162.427 551.898 163.796C550.519 166.84 548.209 169.412 545.169 171.171L523.343 183.785L522.046 184.54L381.945 265.523C374.072 270.078 365.198 272.356 356.324 272.356C347.45 272.356 339.059 270.196 331.328 265.877L189.329 186.428L188.009 185.685L166.088 173.413C163.036 171.713 160.703 169.188 159.265 166.179C158.664 164.928 158.228 163.595 157.968 162.191V209.45C157.756 210.488 157.674 211.574 157.674 212.659C157.697 218.666 160.856 224.011 166.088 226.937L331.328 319.402C339.059 323.733 347.697 325.892 356.324 325.892C364.951 325.892 374.072 323.603 381.945 319.048L545.169 224.684C550.342 221.686 553.418 216.341 553.395 210.358C553.395 209.521 553.336 208.706 553.194 207.916V207.939ZM318.835 310.942V311.685L181.774 234.985V205.237C181.774 205.237 183.071 200.258 189.788 204.364C196.494 208.482 311.906 276.556 311.906 276.556C311.906 276.556 318.835 278.079 318.835 288.262V310.93V310.942ZM540.101 203.892L514.987 218.866C514.468 219.161 513.891 219.326 513.337 219.326C512.217 219.326 511.145 218.748 510.544 217.722C509.625 216.188 510.132 214.182 511.675 213.273L536.789 198.311C538.322 197.39 540.325 197.898 541.233 199.443C542.152 200.977 541.645 202.983 540.101 203.892Z" fill="url(#paint4_linear_2095_25934)"/>
<path d="M553.395 156.857C553.395 157.742 553.336 158.616 553.194 159.453C552.97 160.976 552.534 162.427 551.898 163.796C550.519 166.84 548.209 169.413 545.169 171.171L523.343 183.785L522.046 184.54L381.945 265.524C374.072 270.078 365.198 272.356 356.324 272.356C347.45 272.356 339.059 270.196 331.328 265.878L189.329 186.428L188.009 185.685L166.088 173.413C163.036 171.714 160.703 169.188 159.265 166.179C158.664 164.929 158.228 163.595 157.968 162.191C157.768 161.2 157.674 160.173 157.674 159.123C157.674 158.073 157.768 156.964 157.968 155.925C158.051 155.43 158.169 154.946 158.31 154.486C159.453 150.426 162.14 146.957 165.959 144.774L331.41 50.1382C347.037 41.2056 366.459 41.1702 382.098 50.0556L545.063 142.591C550.26 145.541 553.359 150.863 553.395 156.846V156.857Z" fill="#F1F3FB"/>
<path d="M318.834 288.982V312.393L181.773 235.694V205.946C181.773 205.946 183.07 200.966 189.787 205.072C196.493 209.191 311.905 277.265 311.905 277.265C311.905 277.265 318.834 278.787 318.834 288.97V288.982Z" fill="#263358"/>
<path d="M540.101 203.892L514.987 218.866C514.469 219.161 513.891 219.326 513.337 219.326C512.218 219.326 511.145 218.748 510.544 217.722C509.625 216.188 510.132 214.182 511.676 213.273L536.79 198.311C538.322 197.39 540.325 197.898 541.233 199.443C542.152 200.977 541.645 202.983 540.101 203.892Z" fill="#263358"/>
</g>
<defs>
<linearGradient id="paint0_linear_2095_25934" x1="156.861" y1="369.553" x2="554.408" y2="369.553" gradientUnits="userSpaceOnUse">
<stop stop-color="#CAD1E0"/>
<stop offset="0.51" stop-color="#BFC6D8"/>
<stop offset="0.54" stop-color="#D5DAE7"/>
<stop offset="1" stop-color="#E3E6EF"/>
</linearGradient>
<linearGradient id="paint1_linear_2095_25934" x1="0.000660956" y1="305.089" x2="1.17917" y2="305.089" gradientUnits="userSpaceOnUse">
<stop stop-color="#CAD1E0"/>
<stop offset="0.51" stop-color="#BFC6D8"/>
<stop offset="0.54" stop-color="#D5DAE7"/>
<stop offset="1" stop-color="#E3E6EF"/>
</linearGradient>
<radialGradient id="paint2_radial_2095_25934" cx="0" cy="0" r="1" gradientUnits="userSpaceOnUse" gradientTransform="translate(122.26 115.284) rotate(90) scale(46.7162 46.6573)">
<stop stop-color="#007BFC"/>
<stop offset="1" stop-color="#007BFC" stop-opacity="0"/>
</radialGradient>
<radialGradient id="paint3_radial_2095_25934" cx="0" cy="0" r="1" gradientUnits="userSpaceOnUse" gradientTransform="translate(566.807 317.029) rotate(90) scale(46.7162 46.6573)">
<stop stop-color="#007BFC"/>
<stop offset="1" stop-color="#007BFC" stop-opacity="0"/>
</radialGradient>
<linearGradient id="paint4_linear_2095_25934" x1="0.000660956" y1="242.679" x2="1.17917" y2="242.679" gradientUnits="userSpaceOnUse">
<stop stop-color="#CAD1E0"/>
<stop offset="0.51" stop-color="#BFC6D8"/>
<stop offset="0.54" stop-color="#D5DAE7"/>
<stop offset="1" stop-color="#E3E6EF"/>
</linearGradient>
<clipPath id="clip0_2095_25934">
<rect width="713" height="472" fill="white"/>
</clipPath>
</defs>
</svg>
