<svg id="eeyUbOgqWvQ1" xmlns="http://www.w3.org/2000/svg" xmlns:xlink="http://www.w3.org/1999/xlink" viewBox="0 0 490 398" shape-rendering="geometricPrecision" text-rendering="geometricPrecision" project-id="1c220943f0df4bf28399320ca4eb800c" export-id="0db4f09622994e71ba4f861505eb14a8" cached="false">
<style><![CDATA[
#eeyUbOgqWvQ6_tr {animation: eeyUbOgqWvQ6_tr__tr 3000ms linear infinite normal forwards}@keyframes eeyUbOgqWvQ6_tr__tr { 0% {transform: translate(206.512001px,142.335026px) rotate(0deg)} 63.333333% {transform: translate(206.512001px,142.335026px) rotate(15deg)} 100% {transform: translate(206.512001px,142.335026px) rotate(0deg)}} #eeyUbOgqWvQ27 {animation: eeyUbOgqWvQ27_c_o 3000ms linear infinite normal forwards}@keyframes eeyUbOgqWvQ27_c_o { 0% {opacity: 1} 60% {opacity: 1} 83.333333% {opacity: 0} 100% {opacity: 0}} #eeyUbOgqWvQ31_to {animation: eeyUbOgqWvQ31_to__to 3000ms linear infinite normal forwards}@keyframes eeyUbOgqWvQ31_to__to { 0% {transform: translate(208.764px,54.600001px)} 66.666667% {transform: translate(208.194997px,58.8px)} 100% {transform: translate(208.194997px,58.8px)}} #eeyUbOgqWvQ37_to {animation: eeyUbOgqWvQ37_to__to 3000ms linear infinite normal forwards}@keyframes eeyUbOgqWvQ37_to__to { 0% {transform: translate(239.719002px,54.600001px)} 66.666667% {transform: translate(239.246004px,58.73845px)} 100% {transform: translate(239.246004px,58.73845px)}} #eeyUbOgqWvQ41_ts {animation: eeyUbOgqWvQ41_ts__ts 3000ms linear infinite normal forwards}@keyframes eeyUbOgqWvQ41_ts__ts { 0% {transform: translate(228.003052px,87.291393px) scale(1,1)} 66.666667% {transform: translate(228.003052px,87.291393px) scale(2,0.5)} 100% {transform: translate(228.003052px,87.291393px) scale(2,0.5)}} #eeyUbOgqWvQ41 {animation: eeyUbOgqWvQ41_c_o 3000ms linear infinite normal forwards}@keyframes eeyUbOgqWvQ41_c_o { 0% {opacity: 1} 60% {opacity: 1} 83.333333% {opacity: 0} 100% {opacity: 0}}
]]></style>
<defs><filter id="eeyUbOgqWvQ45-filter" x="-150%" y="-150%" width="400%" height="400%"><feGaussianBlur id="eeyUbOgqWvQ45-filter-drop-shadow-0-blur" in="SourceAlpha" stdDeviation="7.5,7.5"/><feOffset id="eeyUbOgqWvQ45-filter-drop-shadow-0-offset" dx="0" dy="7" result="tmp"/><feFlood id="eeyUbOgqWvQ45-filter-drop-shadow-0-flood" flood-color="#000"/><feComposite id="eeyUbOgqWvQ45-filter-drop-shadow-0-composite" operator="in" in2="tmp"/><feMerge id="eeyUbOgqWvQ45-filter-drop-shadow-0-merge" result="result"><feMergeNode id="eeyUbOgqWvQ45-filter-drop-shadow-0-merge-node-1"/><feMergeNode id="eeyUbOgqWvQ45-filter-drop-shadow-0-merge-node-2" in="SourceGraphic"/></feMerge><feGaussianBlur id="eeyUbOgqWvQ45-filter-drop-shadow-1-blur" in="result" stdDeviation="13.5,13.5"/><feOffset id="eeyUbOgqWvQ45-filter-drop-shadow-1-offset" dx="0" dy="-3" result="tmp"/><feFlood id="eeyUbOgqWvQ45-filter-drop-shadow-1-flood" flood-color="#000"/><feComposite id="eeyUbOgqWvQ45-filter-drop-shadow-1-composite" operator="in" in2="tmp"/><feMerge id="eeyUbOgqWvQ45-filter-drop-shadow-1-merge" result="result"><feMergeNode id="eeyUbOgqWvQ45-filter-drop-shadow-1-merge-node-1"/><feMergeNode id="eeyUbOgqWvQ45-filter-drop-shadow-1-merge-node-2" in="result"/></feMerge><feGaussianBlur id="eeyUbOgqWvQ45-filter-drop-shadow-2-blur" in="result" stdDeviation="18.5,18.5"/><feOffset id="eeyUbOgqWvQ45-filter-drop-shadow-2-offset" dx="0" dy="61" result="tmp"/><feFlood id="eeyUbOgqWvQ45-filter-drop-shadow-2-flood" flood-color="#000"/><feComposite id="eeyUbOgqWvQ45-filter-drop-shadow-2-composite" operator="in" in2="tmp"/><feMerge id="eeyUbOgqWvQ45-filter-drop-shadow-2-merge" result="result"><feMergeNode id="eeyUbOgqWvQ45-filter-drop-shadow-2-merge-node-1"/><feMergeNode id="eeyUbOgqWvQ45-filter-drop-shadow-2-merge-node-2" in="result"/></feMerge></filter></defs><g clip-path="url(#eeyUbOgqWvQ42)"><g><path d="M284.807,219.392c0,0,44.883-25.508,46.599-52.447c1.716-26.94-26.607-38.274-34.058-37.303-7.45.97-2.352,6.512-2.352,6.512s26.857,8.356,28.257,23.361c1.655,17.74-6.453,29.189-42.662,54.842l4.216,5.035Z" fill="#3384bd"/><path d="M307.411,141.198c.511.577.988.065.507-.518-1.589-1.925.365-5.851,2.889-5.415.8.138,1.17-1.056.35-1.237-3.834-.848-6.217,4.38-3.746,7.17Zm13.313,10.938c.047.794.979.996.953.187-.029-.933.501-1.732,1.313-2.184.604-.336,1.336-.435,2.008-.274.547.132,1.068.431,1.631.402.125-.007.255-.032.351-.113.173-.144.174-.424.057-.616s-.321-.312-.524-.408c-.629-.297-1.333-.422-2.026-.377-.363.023-.715.098-1.061.208-.285.092-.585.098-.862.205-1.24.476-1.917,1.67-1.84,2.97Zm3.003,21.204c2.408-.214,4.302,1.68,3.774,4.141-.166.776.756.688.954-.094.84-3.311-1.519-5.753-4.874-5.358-.742.088-.604,1.378.146,1.311Zm-11.623,15.596c.01.041.044.077.084.094.059.025.127.017.191.012c1.169-.095,2.266.755,2.809,1.741.64,1.161.552,2.515.407,3.781-.093.81,1.158.817,1.259.024.212-1.664.204-3.428-.774-4.869-.848-1.25-2.609-2.067-3.925-.9-.018.016-.037.034-.047.057-.009.019-.009.04-.004.06Zm-16.44,15.454c2.091.849,2.895,3.037,2.068,5.073-.254.626.825,1.097,1.099.469c1.205-2.766-.072-5.253-2.891-6.362-.786-.309-1.046.507-.276.82Z" fill="#15374f"/><g id="eeyUbOgqWvQ6_tr" transform="translate(206.512001,142.335026) rotate(0)"><g transform="translate(-206.511997,-142.33501)"><path d="M125.254,92.4417c0,0,7.738,5.719,15.619,2.2038c7.881-3.5151,6.629-14.6287,6.589-18.872s-1.09-12.2047-1.676-13.518c-.586-1.3136-6.587-5.2138-6.991-5.4967s-9.094,14.7095-9.094,14.7095l-4.447,20.9734Z" fill="#fff"/><path d="M120.729,104.929c-.323,2.183,2.666,9.093.767,14.387-1.9,5.294-7.376,8.385-9.215,8.001s-1.455-2.223-.949-3.374c.505-1.152,2.001-6.729,1.071-7.982-.929-1.252-8.405-3.476-10.062-2.829-1.657.646-2.7694,10.406-3.4565,10.527-.687.121-3.5156-1.859-4.0405-8.851-.5249-6.991,2.8296-10.062,5.0524-11.517c2.2226-1.454,8.0626-2.485,8.9716-3.3532.91-.8687,26.858-46.5325,26.858-46.5325s5.174-10.8301,4.972-13.9822c-.202-3.152-2.424-7.719-1.757-9.9618s5.476-9.1126,9.296-11.5571c3.819-2.4448,3.253-1.6366,3.091-.5453-.162,1.091-2.547,9.6583-2.021,10.6284.525.97,3.354,2.9503,5.879,3.2132c2.526.2629,5.214-.5654,5.901-.6865s3.355-9.0924,4.325-9.6178s4.566,3.7991,4.464,11.2553c-.101,7.4561-3.704,8.529-4.931,9.1933-2.424,1.3131-8.345,2.8887-9.76,4.9094-1.414,2.0198-34.132,56.4928-34.456,58.6748Z" fill="#15374f"/><path d="M149.822,43.4718c-.349-.2058-.752-.3454-1.191-.4075-1.753-.2475-3.504.7506-4.642,2.0157-2.034,2.2605-3.444,5.2607-4.937,7.8915-1.567,2.7636-3.08,5.5576-4.595,8.35-3.077,5.6691-6.213,11.2829-9.697,16.714-3.243,5.0554-6.611,10.0385-9.427,15.3518-1.368,2.5814-3.333,5.6947-3.679,8.6457-.165,1.41.631,3.922,2.47,3.8c1.703-.113,3.166-2.161,3.984-3.434c1.609-2.505,3.219-5.01,4.829-7.5148.267-.4163.546-.907.395-1.3784-2.077,3.0045-4.154,6.0091-6.232,9.0132-.443.641-.922,1.312-1.634,1.628-2.519,1.115-1.977-2.231-1.551-3.473.51-1.4851,1.279-2.8447,1.982-4.241c1.333-2.6482,2.843-5.202,4.399-7.7235c3.064-4.962,6.394-9.754,9.404-14.7494c3.167-5.2559,6.02-10.69,8.969-16.069c1.475-2.6893,2.976-5.3647,4.555-7.9939.722-1.2014,1.406-2.5026,2.376-3.5254.594-.626,1.328-1.2059,2.233-1.2726.829-.0609,1.771.2636,1.945,1.1641.086.4426-.006.9006-.141,1.3305-.377,1.1967-1.085,2.256-1.756,3.316-1.193,1.884-2.298,3.824-3.309,5.8114.539-.3796.93-.9308,1.303-1.4747c1.589-2.3124,3.071-4.698,4.44-7.1468.347-.6212.693-1.2658.779-1.9722.142-1.1815-.386-2.132-1.272-2.6557Z" fill="#fff"/><path d="M128.434,58.2337c0,0-3.051-1.2329-4.809.8483-1.758,2.081.222,5.2738.222,5.2738s-4.708-.5863-5.254,2.3434c-.546,2.93,1.475,4.3445,1.475,4.3445s-2.809.1412-3.759,2.7881c-.95,2.6468,1.071,4.0615,1.071,4.0615s-6.002,2.1211-3.84,6.3445s12.891,4.8101,15.114,3.3554c2.223-1.4546.364-3.9603.364-3.9603s4.647.243,4.91-2.2829c.263-2.5257-1.07-4.0616-1.07-4.0616s1.434.1011,2.445-2.2022c1.01-2.3033-1.01-3.718-1.01-3.718s3.091-.5453,2.364-4.6674c-.727-4.122-8.223-8.4671-8.223-8.4671Z" fill="#fff"/><path d="M146.03,63.13c-.535-3.9439-7.438-9.5237-11.5-8.4531-4.061,1.0707-9.275,7.6574-9.275,7.6574s-1.313,3.8039,3.465,4.1856c4.779.3816,6.658-1.0124,6.658-1.0124s1.212.8487.647,1.6569c-.566.8082-4.189,13.2422-3.581,16.2694.609,3.0272,9.62,3.917,9.62,3.917s4.837-17.789,3.966-24.2208Z" fill="#fff"/><path d="M146.396,72.0478c.441-.5051-.417-1.2986-.875-.7975-2.73,2.9896-6.17,4.8607-10.286,4.2558.034-.1791.064-.3581.102-.5374.357-1.6796.846-3.3372,1.444-4.9466.33-.89.962-1.8713.78-2.8248c3.503-1.6279,4.131-5.3123,2.563-8.5657-.32-.6629-1.341-.1804-1.034.4913c1.243,2.726-.164,5.1746-2.179,6.9206-.5-.5441-1.194-.9908-1.815-1.1921-.634-.2051-1.209-.0702-1.782.1358.002-.0141.005-.0261.006-.0408.097-2.2419-.608-4.4423-2.487-5.7831-.62-.4417-1.28.5092-.676.9643c1.511,1.1384,1.888,2.8967,1.915,4.7005.003.2359.114.4131.267.526-.17.0587-.342.1115-.519.1507-1.391.3085-4.545.5537-5.346-1.0831-.835-1.7052,1.26-3.9287,2.461-4.8339.637-.4803-.066-1.6073-.77-1.1919-2.07,1.2213-4.277,3.7037-3.554,6.3143.799,2.889,4.81,3.2455,7.264,2.8276.123-.0209.242-.0519.361-.0821.501.2729.974.5711,1.319,1.0559.528.7413.45,1.496.568,2.3391-.255.8313-.557,1.6583-1.266,2.2209-.941.7454-2.795.405-4.031.1693-.3-.398-.445-.8561-.4-1.3955.046-.5403.506-1.9663,1.162-2.0139.659-.0478.615-1.1517-.047-1.1658-1.262-.0267-2.085,1.5373-2.348,2.6152-.134.5487-.127,1.0996.001,1.615-.972-.2436-1.92-.5571-2.847-.9249.041-.1688.018-.3615-.107-.5494-1.004-1.5101-.834-3.164.669-4.2728.533-.3932-.062-1.3455-.639-.9897-1.697,1.0453-2.497,3.2493-1.72,5.0286-.445-.211-.888-.4288-1.327-.6572-.836-.4352-1.531.9428-.76,1.4509c3.062,2.0166,6.721,3.1933,10.377,3.4417.918.0624,1.684.0193,2.377-.2744-.357,1.8094-.595,3.659-.661,5.5073-.185.055-.363.172-.511.3692-.446.5953-1.163.8696-1.981.9555-.747-1.4707-.987-2.8466.073-4.2855.476-.6459-.521-1.3288-1.013-.7096-1.078,1.3573-1.444,3.4009-.648,4.9649-1.223-.1446-2.45-.5092-3.241-.7708-1.037-.3424-2.037-.7776-3.015-1.258.068-.1895.055-.4116-.095-.619-.941-1.3004-1.57-3.793.533-4.4271.732-.2203.559-1.3929-.211-1.1969-2.549.6491-2.912,3.2591-2.008,5.3153-.588-.322-1.172-.6518-1.753-.9815-.869-.493-1.778.7479-.905,1.2925.164.1024.328.2044.493.3066-.581.3624-1.087.8968-1.459,1.4068-.808,1.1062-.624,2.2534-.192,3.4689.29.8159,1.483.2305,1.211-.5757-.268-.7948-.404-1.5101.138-2.2238.389-.5119.984-1.1141,1.633-1.2635c1.443.8629,2.918,1.667,4.471,2.2879-.591,1.3964-.464,3.0547.334,4.3696.402.6629,1.503.167,1.108-.5265-.629-1.1019-.663-2.2953-.181-3.3925.481.1546.968.2955,1.467.4068c1.798.4007,4.153.6564,5.78-.3592.016.274.031.5482.056.8213.085.9431,1.461,1.0262,1.848.3234c2.492,4.2493,8.717,1.2105,11.418-.3229.675-.383.182-1.4677-.524-1.1031-2.42,1.2504-8.75,3.5023-10.164-.1543-.106-.2733-.356-.3798-.607-.3662.036-1.8725.134-3.7226.4-5.5735c4.577,2.4542,8.542-1.5262,11.385-4.7873Z" fill="#ebf3f8"/><path d="M136.332,92.9685c0,0,9.311,50.7785,34.184,61.2675s44.899-12.524,46.435-19.879c1.537-7.355-5.374-4.365-5.374-4.365s-16.733,22.61-31.362,18.992c-17.295-4.278-25.438-15.703-37.74-58.3385l-6.143,2.323Z" fill="#3384bd"/><path d="M202.726,140.055c-.713.292-.386.912.323.649c2.34-.866,5.404,2.27,4.161,4.511-.394.71.612,1.453,1.054.737c2.062-3.34-2.091-7.312-5.538-5.897Zm-14.711,8.97c-.765-.217-1.263.596-.491.838.891.28,1.471,1.043,1.631,1.959.118.681-.029,1.404-.403,1.986-.304.474-.758.867-.916,1.408-.035.12-.054.252-.009.369.079.21.343.303.563.256s.401-.2.558-.36c.487-.496.837-1.121,1.023-1.789.097-.35.143-.707.152-1.07.007-.299.101-.585.091-.882-.042-1.328-.947-2.36-2.199-2.715Zm-21.011-4.145c-.59,2.344-3.002,3.509-5.152,2.201-.678-.413-.899.487-.226.932c2.851,1.882,5.933.459,6.664-2.84.162-.729-1.102-1.023-1.286-.293Zm-10.9-16.11c-.042-.003-.088.017-.116.049-.044.048-.059.114-.075.176-.295,1.136-1.459,1.892-2.568,2.08-1.308.222-2.557-.307-3.705-.861-.734-.354-1.152.825-.437,1.181c1.502.748,3.17,1.321,4.853.872c1.46-.389,2.811-1.783,2.142-3.409-.01-.023-.02-.047-.038-.064-.016-.014-.036-.022-.056-.024Zm-9.181-20.61c-1.489,1.695-3.82,1.733-5.47.283-.508-.447-1.308.418-.805.883c2.215,2.048,4.983,1.661,6.959-.636.551-.641-.135-1.155-.684-.53Z" fill="#15374f"/></g></g><path d="M302.443,119.591c-.932-3.034-3.882-5.052-6.526-6.486-3.675-1.993-7.723-3.288-11.746-4.363-13.68-3.656-28.365-3.869-42.402-2.538-7.17.68-14.123,1.923-20.905,4.343-4.407,1.573-10.874,4.05-12.408,9.044-3.656,11.901,1.662,52.855,21.605,74.908c4.102,4.536,8.962,8.738,14.508,11.482c5.712,2.827,11.333,3.409,17.39,1.623c7.469-2.202,13.736-7.417,18.88-13.105c19.942-22.053,25.26-63.007,21.604-74.908Z" fill="#ebf3f8"/><path d="M302.27,119.102c-1.083-2.763-3.854-4.642-6.353-5.997-3.675-1.993-7.722-3.288-11.745-4.363-13.68-3.656-28.366-3.869-42.403-2.538-7.17.68-14.123,1.923-20.904,4.343-4.407,1.573-10.874,4.05-12.408,9.044-.023.074-.044.155-.066.231c1.168,4.319,10.599,11.32,47.972,11.32c5.207,0,9.831-.185,13.944-.51-.228,3.112.017,6.219.329,9.328.339,3.371,1.078,7.059.65,10.447-.22,1.744-1.794,3.034-2.895,4.29-.987,1.125-1.973,2.249-2.959,3.374-1.92,2.191-3.892,4.406-4.581,7.319-.757,3.199-.567,6.747-.447,10.005.119,3.246.426,6.494.945,9.7.503,3.103,1.439,5.94,3.334,8.473c1.732,2.314,3.915,4.212,6.1,6.081c1.008.863,2.479-.598,1.464-1.468-2.175-1.863-4.423-3.757-6.098-6.107-1.883-2.642-2.551-5.674-2.988-8.834-.483-3.497-.718-7.032-.726-10.563-.007-3.296-.132-6.803,1.698-9.685c1.681-2.647,4.09-4.955,6.148-7.307c1.778-2.031,3.069-3.48,3.115-6.301.104-6.344-1.438-12.57-1.164-18.917c21.659-2.024,28.154-8.107,30.038-11.365Z" fill="#3384bd"/><path d="M276.698,185.906c-2.095,1.623-4.337,3.005-6.737,4.126-1.13.528-.146,2.158.97,1.665c2.588-1.143,4.988-2.588,7.197-4.358c1.023-.82-.418-2.216-1.43-1.433Zm-.165,4.891c-1.486.979-2.931,1.937-4.561,2.667-.963.43-.269,2.119.725,1.724c1.794-.713,3.544-1.59,5.021-2.851.843-.719-.259-2.15-1.185-1.54Zm.901-9.479c-1.584.771-2.979,1.936-4.457,2.893-1.49.965-3.004,1.891-4.529,2.801-1.02.609-.121,2.122.926,1.587c3.072-1.569,6.713-3.392,9.087-5.948.673-.724-.168-1.752-1.027-1.333Z" fill="#c0d9eb"/><path d="M270.078,143.546c-.195-2.439-.425-4.873-.674-7.306-.103-1.007-1.67-1.038-1.596,0c.289,4.056.548,8.118.716,12.181.089,2.158-1.37,3.41-2.656,4.998-1.138,1.405-2.374,2.767-3.375,4.274-.588.885.725,1.866,1.453,1.123c1.504-1.534,2.783-3.34,4.136-5.01.95-1.173,2.221-2.357,2.38-3.94.205-2.038-.221-4.282-.384-6.32Zm-32.056-11.052c-8.949-.52-17.677-2.785-25.704-6.796-1.065-.532-2.006,1.059-.938,1.608c8.285,4.26,17.335,6.751,26.642,7.206c1.298.064,1.289-1.943,0-2.018Z" fill="#fff"/><path d="M196.153,33.5361c0,0-13.495,6.5963-15.242,25.1481-1.746,18.5521,8.6,26.0275,12.945,27.8028s9.584-14.6764,9.584-14.6764l-7.287-38.2745Z" fill="#3384bd"/><path d="M253.773,112.49c35.754-2.375,63.129-28.5193,61.144-58.3945-1.985-29.8753-32.578-52.16837-68.332-49.79299-35.753,2.37538-63.128,28.51969-61.143,58.39499c1.984,29.8752,32.577,52.1685,68.331,49.7925Z" fill="#ebf3f8"/><path d="M320.108,45.5583c0,0-5.938-17.8518-15.369-15.7518-9.43,2.1003-17.464,15.7517-17.115,31.1533.35,15.4016,20.507,36.6217,30.512,8.3348c0,0,4.242-1.5091,5.639-10.2601c1.397-8.7506-3.667-13.4762-3.667-13.4762Z" fill="#3384bd"/><path d="M317.833,44.6827c1.04.1843,1.136-.543.078-.8163-8.228-2.1252-14.883,7.6499-15.134,14.6455-.139,3.8701,1.024,8.117,3.816,10.9094c2.633,2.6342,7.808,3.0129,10.891.4639.904-.7476-.052-1.1937-.986-.7436-7.288,3.5154-11.4-5.2872-10.904-11.3452.464-5.6809,5.563-14.2965,12.239-13.1137Z" fill="#15374f"/><path d="M183.009,50.9834c0,0-3.493,1.7501-3.842,10.8512-.349,9.1008,5.589,11.9011,5.589,11.9011l-1.747-22.7523Z" fill="#3384bd"/><path d="M196.755,46.4452c0,0-7.714,15.721.623,24.0762c0,0,61.021,0,62.086,0c1.064,0-5.621-10.3648.233-24.764c0,0-62.588-1.0899-62.942.6878Z" fill="#15374f"/><path d="M282.853,30.7226c1.78-1.7897,3.329-3.5813,1.574-6.0378-.896-1.2542-2.024-2.3564-3.148-3.4016-.575-.5351-1.189-1.0489-1.637-1.7009-.6-.8735-1.155-3.153.719-3.1328.979.0104.959-1.4451,0-1.5112-1.918-.1322-3.211,1.7344-3.033,3.5448.259,2.6213,3.135,4.4482,4.698,6.3026.947,1.1234,1.638,2.1131.55,3.3603-.415.4764-.918.8889-1.368,1.3329-1.156,1.1397-2.249,2.3384-3.283,3.5899-1.819,2.2015-3.473,4.5438-4.902,7.0185-5.953,10.3077-7.934,22.777-4.384,34.2555c1,3.2341,2.416,6.3545,4.25,9.2004c1.937,3.0075,4.333,5.6813,6.31,8.6611-1.63,1.6214-3.432,3.0009-5.449,4.1325-1.501.8418-3.215,1.6661-4.171,3.1746-2.198,3.4686,1.096,6.5676,3.851,8.2786c1.149.713,2.174-1.075,1.054-1.807-1.255-.819-2.82-1.808-3.339-3.291-.643-1.837,1.013-3.0118,2.403-3.8241c2.855-1.6682,5.458-3.356,7.748-5.7842.314-.3325.419-.88.166-1.2828-3.182-5.0517-7.342-9.2672-9.653-14.8656-2.175-5.2697-3.085-11.0254-2.791-16.7131.581-11.2052,6.014-21.6368,13.835-29.4996Z" fill="#3384bd"/><path d="M290.988,86.3154c-.943.8384-1.715,1.8249-2.602,2.7222-.788.7982-1.79,2.0195-2.928,2.2185-1.34.2344-1.037,2.4688.322,2.3849c1.586-.0979,2.709-1.1524,3.846-2.1741c1.222-1.0983,2.422-2.2786,3.162-3.7599.586-1.171-.81-2.2711-1.8-1.3916Zm1.96,3.8148c-1.25,2.0626-2.961,3.3925-5.052,4.5237-1.224.6627-.39,2.7665.963,2.2892c2.703-.9532,4.942-3.0186,6.388-5.4656.877-1.4822-1.41-2.8146-2.299-1.3473Z" fill="#c0d9eb"/><g id="eeyUbOgqWvQ27"><g transform="translate(.000001 0)"><path d="M199.766,60.7364l.475-3.4809l3.643-.1002-.476,3.4809-3.642.1002Z" fill="#fff"/><path d="M212.602,60.3826l.475-3.4807l3.643-.1001-.476,3.4807-3.642.1001Z" fill="#fff"/><g id="eeyUbOgqWvQ31_to" transform="translate(208.764,54.600001)"><g transform="translate(-208.764,-54.6)"><path d="M204.453,56.452l.476-3.481l3.642-.0999-.475,3.4807-3.643.1002Z" fill="#fff"/><path d="M208.957,56.3289l.476-3.4809l3.642-.1-.475,3.4807-3.643.1002Z" fill="#fff"/></g></g></g><g><path d="M230.719,60.7364l.475-3.4809l3.643-.1002-.476,3.4809-3.642.1002Z" fill="#fff"/><path d="M243.559,60.3826l.475-3.4807l3.643-.1001-.476,3.4807-3.642.1001Z" fill="#fff"/><g id="eeyUbOgqWvQ37_to" transform="translate(239.719002,54.600001)"><g transform="translate(-239.719002,-54.6)"><path d="M235.406,56.452l.476-3.481l3.642-.0999-.475,3.4807-3.643.1002Z" fill="#fff"/><path d="M239.914,56.3289l.476-3.4809l3.642-.1-.476,3.4807-3.642.1002Z" fill="#fff"/></g></g></g></g><path d="M279.878,26.704c-6.668,5.5725-12.64,13.5921-14.372,22.2424-.235,1.1758,1.539,1.6859,1.808.4995.946-4.1674,2.692-7.9912,5.067-11.534c2.495-3.7226,5.65-6.7658,8.62-10.0827.691-.7717-.344-1.7766-1.123-1.1252ZM265.584,52.1615c-1.222,0-1.224,1.9032,0,1.9032c1.222,0,1.224-1.9032,0-1.9032ZM227.202,13.7301c-12.219,3.8021-23.046,12.4603-30.799,22.4602-.559.7219.438,1.7512,1.019,1.021c3.895-4.8926,8.588-9.269,13.668-12.904c5.185-3.7101,10.753-6.313,16.626-8.7101c1.117-.4563.705-2.2465-.514-1.8671Z" fill="#fff"/><g id="eeyUbOgqWvQ41_ts" transform="translate(228.003052,87.291393) scale(1,1)"><path id="eeyUbOgqWvQ41" d="M236.726,84.4133c-5.418,3.3526-11.86,4.7747-17.714.86-1.306-.8734-2.574.878-1.439,1.9729c6.448,6.2176,14.586,2.2156,20.701-1.5293c1.477-.9043-.059-2.2249-1.548-1.3036Z" transform="translate(-228.003052,-87.291393)" fill="#c0d9eb"/></g></g><clipPath id="eeyUbOgqWvQ42"><rect width="262.633" height="213" rx="0" ry="0" transform="translate(94 0)" fill="#fff"/></clipPath></g><path d="M129.772,235l31.872-57.6h16.64L145.644,235h-15.872Zm0,8.96v-8.96l6.272-4.224h63.232v13.184h-69.504ZM172.268,267v-58.624h14.464v58.624h-14.464Z" fill="#15374f"/><g filter="url(#eeyUbOgqWvQ45-filter)"><rect width="116" height="161" rx="24" ry="24" transform="translate(203 139)" fill="#fff"/><path d="M261.175,268.28c-6.742,0-12.928-1.877-18.56-5.632-5.547-3.84-9.984-9.216-13.312-16.128s-4.992-15.061-4.992-24.448s1.621-17.493,4.864-24.32c3.328-6.912,7.765-12.245,13.312-16c5.546-3.755,11.69-5.632,18.432-5.632c6.826,0,13.013,1.877,18.56,5.632c5.546,3.755,9.941,9.088,13.184,16c3.328,6.827,4.992,14.976,4.992,24.448c0,9.387-1.664,17.536-4.992,24.448-3.243,6.912-7.638,12.245-13.184,16-5.462,3.755-11.563,5.632-18.304,5.632Zm-.256-13.824c4.437,0,11.52-3.584,11.52-3.584s5.76-5.973,7.552-10.752c1.877-4.779,2.816-10.795,2.816-18.048c0-7.168-.939-13.141-2.816-17.92-1.792-4.779-4.352-8.32-7.68-10.624-3.243-2.389-7.04-3.584-11.392-3.584s-8.192,1.195-11.52,3.584c-3.243,2.304-5.76,5.845-7.552,10.624-1.792,4.693-2.688,10.667-2.688,17.92s.896,13.269,2.688,18.048s4.309,8.363,7.552,10.752c3.328,2.389,7.168,3.584,11.52,3.584Z" fill="#15374f"/></g><path d="M322.772,235l31.872-57.6h16.64L338.644,235h-15.872Zm0,8.96v-8.96l6.272-4.224h63.232v13.184h-69.504ZM365.268,267v-58.624h14.464v58.624h-14.464Z" fill="#15374f"/></svg>
