<svg width="36" height="36" viewBox="0 0 36 36" fill="none" xmlns="http://www.w3.org/2000/svg">
<rect width="36" height="36" rx="18" fill="#15374F"/>
<path d="M13.625 12.3438C16.75 12.3438 19.2812 14.875 19.2812 18C19.2812 21.1562 16.75 23.6875 13.625 23.6875C10.5 23.6875 8 21.1562 8 18C8 14.875 10.5 12.3438 13.625 12.3438ZM22.625 12.6562C24.1875 12.6562 25.4688 15.0625 25.4688 18.0312C25.4688 20.9688 24.1875 23.375 22.625 23.375C21.0625 23.375 19.8125 20.9688 19.8125 18.0312C19.8125 15.0625 21.0625 12.6562 22.625 12.6562ZM27 13.2188C27.5312 13.2188 28 15.375 28 18C28 20.6562 27.5312 22.8125 27 22.8125C26.4375 22.8125 26 20.6562 26 18.0312C26 15.375 26.4375 13.2188 27 13.2188Z" fill="white"/>
</svg>
