<svg width="834" height="802" viewBox="0 0 834 802" fill="none" xmlns="http://www.w3.org/2000/svg">
<g opacity="0.2">
<path d="M829.382 22.4289C829.382 33.0688 818.936 41.6695 805.962 41.6695H649.827C636.852 41.6695 626.406 33.0688 626.406 22.4289C626.406 11.789 636.852 3.18848 649.827 3.18848H805.962C818.936 3.18848 829.382 11.789 829.382 22.4289Z" fill="#E7E7E7"/>
<path d="M833.086 118.277C833.086 130.159 821.321 139.823 806.917 139.823H632.419C617.905 139.823 606.25 130.159 606.25 118.277C606.25 106.396 618.015 96.7314 632.419 96.7314H807.027C821.431 96.7314 833.086 106.396 833.086 118.277Z" fill="#E7E7E7"/>
<path d="M733.895 212.616C733.895 224.497 722.13 234.162 707.726 234.162H533.118C518.604 234.162 506.949 224.497 506.949 212.616C506.949 200.735 518.714 191.07 533.118 191.07H707.726C722.13 191.07 733.895 200.735 733.895 212.616Z" fill="#E7E7E7"/>
<path d="M577.689 118.277C577.689 130.159 565.923 139.823 551.519 139.823H479.829C465.315 139.823 453.66 130.159 453.66 118.277C453.66 106.396 465.425 96.7314 479.829 96.7314H551.519C565.923 96.7314 577.689 106.396 577.689 118.277Z" fill="#E7E7E7"/>
<path d="M470.24 212.616C470.24 224.497 458.475 234.162 444.071 234.162H394.482C379.968 234.162 368.312 224.497 368.312 212.616C368.312 200.735 380.078 191.07 394.482 191.07H444.071C458.475 191.07 470.24 200.735 470.24 212.616Z" fill="#E7E7E7"/>
<path d="M626.277 306.517C626.277 316.979 615.941 325.403 603.296 325.403H481.137C468.492 325.403 458.156 316.979 458.156 306.517C458.156 296.054 468.492 287.631 481.137 287.631H603.296C616.051 287.631 626.277 296.143 626.277 306.517Z" fill="#E7E7E7"/>
<path d="M548.285 399.35C548.285 411.053 536.74 420.452 522.556 420.452H393.909C379.725 420.452 368.18 410.965 368.18 399.35C368.18 387.646 379.725 378.247 393.909 378.247H522.556C536.85 378.247 548.285 387.646 548.285 399.35Z" fill="#E7E7E7"/>
<path d="M632.854 491.827C632.854 503.708 621.089 513.373 606.685 513.373H533.236C518.722 513.373 507.066 503.708 507.066 491.827C507.066 479.946 518.832 470.281 533.236 470.281H606.685C621.089 470.281 632.854 479.946 632.854 491.827Z" fill="#E7E7E7"/>
<path d="M739.368 588.378C739.368 600.259 727.603 609.924 713.198 609.924H669.107C654.593 609.924 642.938 600.259 642.938 588.378C642.938 576.497 654.703 566.832 669.107 566.832H713.198C727.712 566.921 739.368 576.497 739.368 588.378Z" fill="#E7E7E7"/>
<path d="M603.498 588.378C603.498 600.259 591.734 609.924 577.329 609.924H508.388C493.874 609.924 482.219 600.259 482.219 588.378C482.219 576.497 493.984 566.832 508.388 566.832H577.329C591.734 566.921 603.498 576.497 603.498 588.378Z" fill="#E7E7E7"/>
<path d="M829.428 681.568C829.428 693.272 817.883 702.671 803.698 702.671H419.628C405.444 702.671 393.898 693.184 393.898 681.568C393.898 669.864 405.444 660.466 419.628 660.466H803.698C817.883 660.466 829.428 669.953 829.428 681.568Z" fill="#E7E7E7"/>
<path d="M829.413 776.268C829.413 788.15 817.648 797.814 803.244 797.814H560.685C546.171 797.814 534.516 788.15 534.516 776.268C534.516 764.387 546.281 754.723 560.685 754.723H803.244C817.648 754.811 829.413 764.387 829.413 776.268Z" fill="#E7E7E7"/>
<path d="M371.844 329.036C371.844 329.036 421.653 332.849 419.344 308.377C417.035 283.905 393.945 279.295 365.687 285.59C337.429 291.885 275.414 331.076 275.414 402.274C275.414 447.76 313.898 518.16 379.541 518.16C445.184 518.16 441.555 518.16 441.555 518.16C441.555 518.16 476.411 520.732 476.411 496.26C476.411 471.788 460.467 470.281 440.456 470.281C420.444 470.281 375.802 470.281 375.802 470.281C375.802 470.281 316.867 454.144 319.396 397.22C319.506 351.291 355.901 329.125 371.844 329.036Z" fill="#E7E7E7"/>
<path d="M275.345 228.487C275.345 228.487 279.193 223.788 287.66 222.192C296.126 220.596 327.903 236.024 303.713 262.358C279.523 288.691 232.683 325.576 232.683 414.419C232.683 503.262 314.489 566.924 402.782 566.924C449.842 566.924 443.795 582.086 443.795 593.524C443.795 604.962 438.517 609.927 381.891 609.927C325.154 609.927 189.141 544.049 189.141 410.873C189.031 277.52 275.345 228.487 275.345 228.487Z" fill="#E7E7E7"/>
<path d="M368.311 139.736C368.311 139.736 418.45 143.371 419.33 118.19C420.099 93.0093 398.768 92.9207 357.316 96.6446C315.863 100.457 207.558 114.555 134.218 233.988C78.3613 325.491 90.5662 393.852 90.5662 434.195C90.5662 474.449 97.1634 473.917 112.117 473.385C127.181 472.853 127.841 467.445 129.16 442.264C130.48 416.994 116.076 347.657 167.754 251.012C184.687 219.358 245.712 145.056 368.311 139.736Z" fill="#E7E7E7"/>
<path d="M542.362 2.03548C542.362 2.03548 593.711 -2.48648 594.59 25.4432C594.59 46.9003 577.987 49.8263 536.204 49.8263C494.312 49.8263 340.816 49.8263 340.816 49.8263C340.816 49.8263 155.873 67.3821 72.1975 250.034C35.5827 341.359 34.703 486.771 72.1975 548.394C85.282 566.304 86.1616 582.619 68.6788 588.471C51.1961 594.323 29.425 579.87 12.8219 518.336C-3.78124 456.802 -20.2742 299.864 73.8467 161.634C135.751 77.8447 222.065 9.74939 340.706 3.2768C459.456 -3.28447 542.362 2.03548 542.362 2.03548Z" fill="#E7E7E7"/>
<path d="M122.087 548.66C122.087 548.66 104.604 524.189 126.705 513.283C148.806 502.377 159.471 519.312 169.367 538.021C179.263 556.818 230.282 623.051 302.522 646.813C356.509 663.039 357.279 673.679 356.509 690.614C355.74 707.549 320.225 710.032 297.244 700.013C274.374 689.994 162.44 638.745 122.087 548.66Z" fill="#E7E7E7"/>
<path d="M182.236 733.794C182.236 733.794 173.11 724.395 182.236 713.134C191.362 701.874 208.075 704.357 224.128 716.858C240.072 729.36 320.229 759.595 394.008 754.807C466.248 750.019 487.469 753.211 486.699 776.353C485.93 799.495 456.792 801.357 419.297 801.978C381.693 802.51 242.381 793.82 182.236 733.794Z" fill="#E7E7E7"/>
<path d="M84.4721 650.627C84.4721 650.627 70.0681 631.387 84.4721 620.304C98.8761 609.221 119.767 625.712 128.014 635.466C136.261 645.219 180.132 674.213 158.801 699.128C149.785 707.196 133.951 702.497 121.417 690.704C108.662 679.001 84.4721 650.627 84.4721 650.627Z" fill="#E7E7E7"/>
</g>
</svg>
