<svg width="96" height="77" viewBox="0 0 96 77" fill="none" xmlns="http://www.w3.org/2000/svg">
<g clip-path="url(#clip0_1296_37498)">
<g clip-path="url(#clip1_1296_37498)">
<g clip-path="url(#clip2_1296_37498)">
<path d="M44.7171 4.82146C44.7171 10.8041 43.8031 17.119 41.9751 23.7665C40.0639 30.4139 37.6127 36.5211 34.6214 42.0884C31.6302 47.7387 28.9296 52.4748 26.5199 56.2972C24.0272 60.2026 21.659 63.5677 19.4156 66.3929L17.0475 69.1349C15.5517 70.963 13.6406 72.791 11.314 74.6191C8.90436 76.447 6.91015 77.3611 5.33138 77.3611C1.59222 77.3611 -0.277344 75.5746 -0.277344 72.0016C-0.277344 67.4315 0.802856 60.9919 2.96327 52.6827C5.04058 44.3734 6.28696 38.8893 6.70241 36.2304C8.36427 24.2651 9.19518 15.2495 9.19518 9.18382C9.19518 8.02053 9.56911 7.10651 10.3169 6.44176C10.9817 5.77703 11.6464 5.32002 12.3111 5.07075C12.8928 4.90455 13.973 4.65528 15.5517 4.3229L38.6099 -0.537988C42.6814 -1.28582 44.7171 0.500669 44.7171 4.82146ZM95.6942 4.82146C95.6942 10.8041 94.7804 17.119 92.9523 23.7665C91.0411 30.4139 88.59 36.5211 85.5985 42.0884C82.6073 47.7387 79.9067 52.4748 77.4971 56.2972C75.0043 60.2026 72.6361 63.5677 70.3927 66.3929L68.0246 69.1349C66.5288 70.963 64.6178 72.791 62.2911 74.6191C59.8815 76.447 57.8872 77.3611 56.3086 77.3611C52.5694 77.3611 50.6999 75.5746 50.6999 72.0016C50.6999 67.4315 51.7799 60.9919 53.9404 52.6827C56.0176 44.3734 57.2641 38.8893 57.6796 36.2304C59.3415 24.2651 60.1723 15.2495 60.1723 9.18382C60.1723 8.02053 60.5463 7.10651 61.2941 6.44176C61.9587 5.77703 62.6235 5.32002 63.2883 5.07075C63.8699 4.90455 64.9502 4.65528 66.5288 4.3229L89.587 -0.537988C93.6585 -1.28582 95.6942 0.500669 95.6942 4.82146Z" fill="#76ADD3"/>
</g>
</g>
</g>
<defs>
<clipPath id="clip0_1296_37498">
<rect width="95.4127" height="76.6598" fill="white"/>
</clipPath>
<clipPath id="clip1_1296_37498">
<rect width="95.4127" height="76.6598" fill="white" transform="translate(0 0.000366211)"/>
</clipPath>
<clipPath id="clip2_1296_37498">
<rect width="97.1475" height="78.0649" fill="white" transform="translate(-0.867188 -0.703125)"/>
</clipPath>
</defs>
</svg>
